%FSLAX25Y25*%
%MOIN*%
G70*
G01*
G75*
G04 Layer_Physical_Order=1*
G04 Layer_Color=255*
%ADD10R,0.05906X0.04921*%
%ADD11R,0.04921X0.05906*%
%ADD12R,0.03740X0.03347*%
%ADD13O,0.01102X0.05906*%
%ADD14O,0.05906X0.01102*%
%ADD15R,0.13583X0.13583*%
%ADD16R,0.02362X0.04134*%
%ADD17C,0.00787*%
%ADD18C,0.01575*%
%ADD19C,0.00394*%
%ADD20C,0.08661*%
%ADD21C,0.05906*%
%ADD22R,0.05906X0.05906*%
%ADD23C,0.19685*%
%ADD24C,0.09843*%
%ADD25R,0.09843X0.09843*%
%ADD26C,0.02756*%
G36*
X123247Y88092D02*
X123198Y88072D01*
X121797Y87213D01*
X120547Y86146D01*
X119480Y84896D01*
X118621Y83495D01*
X117992Y81977D01*
X117608Y80379D01*
X117480Y78740D01*
X117608Y77102D01*
X117992Y75504D01*
X118621Y73985D01*
X119480Y72584D01*
X120547Y71334D01*
X121797Y70267D01*
X123198Y69408D01*
X124716Y68779D01*
X126314Y68396D01*
X127953Y68267D01*
X129591Y68396D01*
X131189Y68779D01*
X132708Y69408D01*
X134109Y70267D01*
X135359Y71334D01*
X136426Y72584D01*
X137285Y73985D01*
X137305Y74035D01*
X137795Y73937D01*
Y-103465D01*
X137305Y-103562D01*
X137285Y-103513D01*
X136426Y-102112D01*
X135359Y-100862D01*
X134109Y-99795D01*
X132708Y-98936D01*
X131189Y-98307D01*
X129591Y-97923D01*
X127953Y-97795D01*
X126314Y-97923D01*
X124716Y-98307D01*
X123198Y-98936D01*
X121797Y-99795D01*
X120547Y-100862D01*
X119480Y-102112D01*
X118621Y-103513D01*
X117992Y-105031D01*
X117608Y-106629D01*
X117480Y-108268D01*
X117608Y-109906D01*
X117992Y-111504D01*
X118621Y-113022D01*
X119480Y-114424D01*
X120547Y-115673D01*
X121797Y-116741D01*
X123198Y-117599D01*
X123247Y-117620D01*
X123150Y-118110D01*
X-78740D01*
Y0D01*
X-82985D01*
X-83138Y771D01*
X-83575Y1425D01*
X-84229Y1862D01*
X-85000Y2015D01*
X-85771Y1862D01*
X-86028Y1690D01*
X-86528Y1958D01*
Y3059D01*
X-93630D01*
Y0D01*
X-95969D01*
Y3461D01*
X-99421D01*
Y0D01*
X-100421D01*
Y3461D01*
X-103874D01*
Y1413D01*
X-110000D01*
X-110541Y1305D01*
X-110999Y999D01*
X-111305Y541D01*
X-111413Y0D01*
X-137795D01*
Y19685D01*
Y73937D01*
X-137305Y74035D01*
X-137285Y73985D01*
X-136426Y72584D01*
X-135359Y71334D01*
X-134109Y70267D01*
X-132708Y69408D01*
X-131189Y68779D01*
X-129591Y68396D01*
X-127953Y68267D01*
X-126314Y68396D01*
X-124716Y68779D01*
X-123198Y69408D01*
X-121797Y70267D01*
X-120547Y71334D01*
X-119480Y72584D01*
X-118621Y73985D01*
X-117992Y75504D01*
X-117608Y77102D01*
X-117480Y78740D01*
X-117608Y80379D01*
X-117992Y81977D01*
X-118621Y83495D01*
X-119480Y84896D01*
X-120547Y86146D01*
X-121797Y87213D01*
X-123198Y88072D01*
X-123247Y88092D01*
X-123150Y88583D01*
X123150D01*
X123247Y88092D01*
D02*
G37*
%LPC*%
G36*
X115000Y-25029D02*
X113714Y-25198D01*
X112514Y-25695D01*
X111485Y-26485D01*
X110695Y-27514D01*
X110198Y-28714D01*
X110029Y-30000D01*
X110198Y-31287D01*
X110695Y-32486D01*
X111485Y-33516D01*
X112514Y-34306D01*
X113714Y-34803D01*
X113988Y-34839D01*
Y-49000D01*
X114065Y-49387D01*
X114285Y-49715D01*
X115285Y-50715D01*
X115613Y-50935D01*
X116000Y-51012D01*
X128988D01*
Y-58988D01*
X128472D01*
Y-56941D01*
X121370D01*
Y-63059D01*
X128472D01*
Y-61012D01*
X128988D01*
Y-68062D01*
X128972Y-68073D01*
X128472Y-67806D01*
Y-66941D01*
X121370D01*
Y-73059D01*
X128472D01*
Y-71012D01*
X129000D01*
X129387Y-70935D01*
X129715Y-70715D01*
X130715Y-69715D01*
X130935Y-69387D01*
X131012Y-69000D01*
Y-60000D01*
Y-50000D01*
X130935Y-49613D01*
X130715Y-49285D01*
X130387Y-49065D01*
X130000Y-48988D01*
X116419D01*
X116012Y-48581D01*
Y-34839D01*
X116287Y-34803D01*
X117486Y-34306D01*
X118516Y-33516D01*
X119306Y-32486D01*
X119803Y-31287D01*
X119972Y-30000D01*
X119803Y-28714D01*
X119306Y-27514D01*
X118516Y-26485D01*
X117486Y-25695D01*
X116287Y-25198D01*
X115000Y-25029D01*
D02*
G37*
G36*
X118630Y-56941D02*
X111528D01*
Y-58988D01*
X108472D01*
Y-56941D01*
X101370D01*
Y-63059D01*
X108472D01*
Y-61012D01*
X108988D01*
Y-68988D01*
X108472D01*
Y-66941D01*
X101370D01*
Y-73059D01*
X108472D01*
Y-71012D01*
X111528D01*
Y-73059D01*
X118630D01*
Y-66941D01*
X111528D01*
Y-68988D01*
X111012D01*
Y-61012D01*
X111528D01*
Y-63059D01*
X118630D01*
Y-56941D01*
D02*
G37*
G36*
X-66539Y-50579D02*
X-69500D01*
Y-54031D01*
X-66539D01*
Y-50579D01*
D02*
G37*
G36*
X-70500D02*
X-73461D01*
Y-54031D01*
X-70500D01*
Y-50579D01*
D02*
G37*
G36*
X68630Y-56941D02*
X61528D01*
Y-58988D01*
X58472D01*
Y-56941D01*
X51370D01*
Y-63059D01*
X58472D01*
Y-61012D01*
X58988D01*
Y-69000D01*
X59065Y-69387D01*
X59285Y-69715D01*
X60285Y-70715D01*
X60613Y-70935D01*
X61000Y-71012D01*
X61528D01*
Y-73059D01*
X68630D01*
Y-66941D01*
X61528D01*
Y-67806D01*
X61028Y-68073D01*
X61012Y-68062D01*
Y-61012D01*
X61528D01*
Y-63059D01*
X68630D01*
Y-56941D01*
D02*
G37*
G36*
X38059Y-66370D02*
X31941D01*
Y-73472D01*
X33988D01*
Y-75000D01*
Y-76528D01*
X31941D01*
Y-83630D01*
X38059D01*
Y-76528D01*
X36012D01*
Y-76012D01*
X43062D01*
X43073Y-76028D01*
X42806Y-76528D01*
X41941D01*
Y-83630D01*
X48059D01*
Y-76528D01*
X46012D01*
Y-76000D01*
X45935Y-75613D01*
X45715Y-75285D01*
X44715Y-74285D01*
X44387Y-74065D01*
X44000Y-73988D01*
X36012D01*
Y-73472D01*
X38059D01*
Y-66370D01*
D02*
G37*
G36*
X48461Y-85969D02*
X45500D01*
Y-89421D01*
X48461D01*
Y-85969D01*
D02*
G37*
G36*
X78472Y-56941D02*
X71370D01*
Y-63059D01*
X78472D01*
Y-62194D01*
X78972Y-61927D01*
X78988Y-61938D01*
Y-68988D01*
X78472D01*
Y-66941D01*
X71370D01*
Y-73059D01*
X78472D01*
Y-71012D01*
X78988D01*
Y-74000D01*
X79065Y-74387D01*
X79285Y-74715D01*
X80285Y-75715D01*
X80613Y-75935D01*
X81000Y-76012D01*
X89000D01*
X89387Y-75935D01*
X89715Y-75715D01*
X90715Y-74715D01*
X90935Y-74387D01*
X91012Y-74000D01*
Y-71938D01*
X91028Y-71927D01*
X91528Y-72194D01*
Y-73059D01*
X98630D01*
Y-66941D01*
X91528D01*
Y-68988D01*
X91000D01*
X90613Y-69065D01*
X90285Y-69285D01*
X89285Y-70285D01*
X89065Y-70613D01*
X88988Y-71000D01*
Y-73581D01*
X88581Y-73988D01*
X86012D01*
Y-73472D01*
X88059D01*
Y-66370D01*
X81941D01*
Y-73472D01*
X83988D01*
Y-73988D01*
X81419D01*
X81012Y-73581D01*
Y-70000D01*
Y-61000D01*
X80935Y-60613D01*
X80715Y-60285D01*
X79715Y-59285D01*
X79387Y-59065D01*
X79000Y-58988D01*
X78472D01*
Y-56941D01*
D02*
G37*
G36*
X15000Y-67985D02*
X14229Y-68138D01*
X13575Y-68575D01*
X13138Y-69229D01*
X12985Y-70000D01*
X13138Y-70771D01*
X13310Y-71028D01*
X13042Y-71528D01*
X11941D01*
Y-78630D01*
X18059D01*
Y-71528D01*
X16958D01*
X16690Y-71028D01*
X16862Y-70771D01*
X17015Y-70000D01*
X16862Y-69229D01*
X16425Y-68575D01*
X15771Y-68138D01*
X15000Y-67985D01*
D02*
G37*
G36*
X105000Y-35028D02*
X103713Y-35198D01*
X102514Y-35694D01*
X101485Y-36485D01*
X100694Y-37514D01*
X100198Y-38713D01*
X100028Y-40000D01*
X100198Y-41287D01*
X100694Y-42486D01*
X101485Y-43516D01*
X102514Y-44306D01*
X103713Y-44802D01*
X105000Y-44972D01*
X106287Y-44802D01*
X107486Y-44306D01*
X108516Y-43516D01*
X109306Y-42486D01*
X109802Y-41287D01*
X109972Y-40000D01*
X109802Y-38713D01*
X109306Y-37514D01*
X108516Y-36485D01*
X107486Y-35694D01*
X106287Y-35198D01*
X105000Y-35028D01*
D02*
G37*
G36*
X18059Y-36370D02*
X11941D01*
Y-43472D01*
X13042D01*
X13310Y-43972D01*
X13138Y-44229D01*
X12985Y-45000D01*
X13138Y-45771D01*
X13575Y-46425D01*
X14229Y-46862D01*
X15000Y-47015D01*
X15771Y-46862D01*
X16425Y-46425D01*
X16862Y-45771D01*
X17015Y-45000D01*
X16862Y-44229D01*
X16690Y-43972D01*
X16958Y-43472D01*
X18059D01*
Y-36370D01*
D02*
G37*
G36*
X68472Y-36941D02*
X61370D01*
Y-43059D01*
X68472D01*
Y-41958D01*
X68972Y-41690D01*
X69229Y-41862D01*
X70000Y-42015D01*
X70771Y-41862D01*
X71425Y-41425D01*
X71862Y-40771D01*
X72015Y-40000D01*
X71862Y-39229D01*
X71425Y-38575D01*
X70771Y-38138D01*
X70000Y-37985D01*
X69229Y-38138D01*
X68972Y-38310D01*
X68472Y-38042D01*
Y-36941D01*
D02*
G37*
G36*
X125000Y-35028D02*
X123713Y-35198D01*
X122514Y-35694D01*
X121484Y-36485D01*
X120694Y-37514D01*
X120198Y-38713D01*
X120028Y-40000D01*
X120198Y-41287D01*
X120694Y-42486D01*
X121484Y-43516D01*
X122514Y-44306D01*
X123713Y-44802D01*
X125000Y-44972D01*
X126287Y-44802D01*
X127486Y-44306D01*
X128516Y-43516D01*
X129306Y-42486D01*
X129802Y-41287D01*
X129972Y-40000D01*
X129802Y-38713D01*
X129306Y-37514D01*
X128516Y-36485D01*
X127486Y-35694D01*
X126287Y-35198D01*
X125000Y-35028D01*
D02*
G37*
G36*
X8059Y-36370D02*
X1941D01*
Y-43472D01*
X3042D01*
X3310Y-43972D01*
X3138Y-44229D01*
X2985Y-45000D01*
X3138Y-45771D01*
X3575Y-46425D01*
X4229Y-46862D01*
X5000Y-47015D01*
X5771Y-46862D01*
X6425Y-46425D01*
X6862Y-45771D01*
X7015Y-45000D01*
X6862Y-44229D01*
X6690Y-43972D01*
X6958Y-43472D01*
X8059D01*
Y-36370D01*
D02*
G37*
G36*
X-66539Y-46126D02*
X-69500D01*
Y-49579D01*
X-66539D01*
Y-46126D01*
D02*
G37*
G36*
X-70500D02*
X-73461D01*
Y-49579D01*
X-70500D01*
Y-46126D01*
D02*
G37*
G36*
X-1941Y-36370D02*
X-8059D01*
Y-43472D01*
X-6958D01*
X-6690Y-43972D01*
X-6862Y-44229D01*
X-7015Y-45000D01*
X-6862Y-45771D01*
X-6425Y-46425D01*
X-5771Y-46862D01*
X-5000Y-47015D01*
X-4229Y-46862D01*
X-3575Y-46425D01*
X-3138Y-45771D01*
X-2985Y-45000D01*
X-3138Y-44229D01*
X-3310Y-43972D01*
X-3042Y-43472D01*
X-1941D01*
Y-36370D01*
D02*
G37*
G36*
X-11941D02*
X-18059D01*
Y-43472D01*
X-16958D01*
X-16690Y-43972D01*
X-16862Y-44229D01*
X-17015Y-45000D01*
X-16862Y-45771D01*
X-16425Y-46425D01*
X-15771Y-46862D01*
X-15000Y-47015D01*
X-14229Y-46862D01*
X-13575Y-46425D01*
X-13138Y-45771D01*
X-12985Y-45000D01*
X-13138Y-44229D01*
X-13310Y-43972D01*
X-13042Y-43472D01*
X-11941D01*
Y-36370D01*
D02*
G37*
G36*
X-10000Y-106418D02*
X-10927Y-106540D01*
X-11791Y-106898D01*
X-12533Y-107467D01*
X-13102Y-108209D01*
X-13460Y-109073D01*
X-13582Y-110000D01*
X-13460Y-110927D01*
X-13102Y-111791D01*
X-12533Y-112533D01*
X-11791Y-113102D01*
X-10927Y-113460D01*
X-10000Y-113582D01*
X-9073Y-113460D01*
X-8209Y-113102D01*
X-7467Y-112533D01*
X-6898Y-111791D01*
X-6540Y-110927D01*
X-6418Y-110000D01*
X-6540Y-109073D01*
X-6898Y-108209D01*
X-7467Y-107467D01*
X-8209Y-106898D01*
X-9073Y-106540D01*
X-10000Y-106418D01*
D02*
G37*
G36*
X-20000D02*
X-20927Y-106540D01*
X-21791Y-106898D01*
X-22533Y-107467D01*
X-23102Y-108209D01*
X-23460Y-109073D01*
X-23582Y-110000D01*
X-23460Y-110927D01*
X-23102Y-111791D01*
X-22533Y-112533D01*
X-21791Y-113102D01*
X-20927Y-113460D01*
X-20000Y-113582D01*
X-19073Y-113460D01*
X-18209Y-113102D01*
X-17467Y-112533D01*
X-16898Y-111791D01*
X-16540Y-110927D01*
X-16418Y-110000D01*
X-16540Y-109073D01*
X-16898Y-108209D01*
X-17467Y-107467D01*
X-18209Y-106898D01*
X-19073Y-106540D01*
X-20000Y-106418D01*
D02*
G37*
G36*
X10000D02*
X9073Y-106540D01*
X8209Y-106898D01*
X7467Y-107467D01*
X6898Y-108209D01*
X6540Y-109073D01*
X6418Y-110000D01*
X6540Y-110927D01*
X6898Y-111791D01*
X7467Y-112533D01*
X8209Y-113102D01*
X9073Y-113460D01*
X10000Y-113582D01*
X10927Y-113460D01*
X11791Y-113102D01*
X12533Y-112533D01*
X13102Y-111791D01*
X13460Y-110927D01*
X13582Y-110000D01*
X13460Y-109073D01*
X13102Y-108209D01*
X12533Y-107467D01*
X11791Y-106898D01*
X10927Y-106540D01*
X10000Y-106418D01*
D02*
G37*
G36*
X0D02*
X-927Y-106540D01*
X-1791Y-106898D01*
X-2533Y-107467D01*
X-3102Y-108209D01*
X-3460Y-109073D01*
X-3582Y-110000D01*
X-3460Y-110927D01*
X-3102Y-111791D01*
X-2533Y-112533D01*
X-1791Y-113102D01*
X-927Y-113460D01*
X0Y-113582D01*
X927Y-113460D01*
X1791Y-113102D01*
X2533Y-112533D01*
X3102Y-111791D01*
X3460Y-110927D01*
X3582Y-110000D01*
X3460Y-109073D01*
X3102Y-108209D01*
X2533Y-107467D01*
X1791Y-106898D01*
X927Y-106540D01*
X0Y-106418D01*
D02*
G37*
G36*
X-30000D02*
X-30927Y-106540D01*
X-31791Y-106898D01*
X-32533Y-107467D01*
X-33102Y-108209D01*
X-33460Y-109073D01*
X-33582Y-110000D01*
X-33460Y-110927D01*
X-33102Y-111791D01*
X-32533Y-112533D01*
X-31791Y-113102D01*
X-30927Y-113460D01*
X-30000Y-113582D01*
X-29073Y-113460D01*
X-28209Y-113102D01*
X-27467Y-112533D01*
X-26898Y-111791D01*
X-26540Y-110927D01*
X-26418Y-110000D01*
X-26540Y-109073D01*
X-26898Y-108209D01*
X-27467Y-107467D01*
X-28209Y-106898D01*
X-29073Y-106540D01*
X-30000Y-106418D01*
D02*
G37*
G36*
X48059Y-106370D02*
X41941D01*
Y-113472D01*
X43042D01*
X43310Y-113972D01*
X43138Y-114229D01*
X42985Y-115000D01*
X43138Y-115771D01*
X43575Y-116425D01*
X44229Y-116862D01*
X45000Y-117015D01*
X45771Y-116862D01*
X46425Y-116425D01*
X46862Y-115771D01*
X47015Y-115000D01*
X46862Y-114229D01*
X46690Y-113972D01*
X46958Y-113472D01*
X48059D01*
Y-106370D01*
D02*
G37*
G36*
X38059D02*
X31941D01*
Y-113472D01*
X33042D01*
X33310Y-113972D01*
X33138Y-114229D01*
X32985Y-115000D01*
X33138Y-115771D01*
X33575Y-116425D01*
X34229Y-116862D01*
X35000Y-117015D01*
X35771Y-116862D01*
X36425Y-116425D01*
X36862Y-115771D01*
X37015Y-115000D01*
X36862Y-114229D01*
X36690Y-113972D01*
X36958Y-113472D01*
X38059D01*
Y-106370D01*
D02*
G37*
G36*
X-40000Y-106418D02*
X-40927Y-106540D01*
X-41791Y-106898D01*
X-42533Y-107467D01*
X-43102Y-108209D01*
X-43460Y-109073D01*
X-43582Y-110000D01*
X-43460Y-110927D01*
X-43102Y-111791D01*
X-42533Y-112533D01*
X-41791Y-113102D01*
X-40927Y-113460D01*
X-40000Y-113582D01*
X-39073Y-113460D01*
X-38209Y-113102D01*
X-37467Y-112533D01*
X-36898Y-111791D01*
X-36540Y-110927D01*
X-36418Y-110000D01*
X-36540Y-109073D01*
X-36898Y-108209D01*
X-37467Y-107467D01*
X-38209Y-106898D01*
X-39073Y-106540D01*
X-40000Y-106418D01*
D02*
G37*
G36*
X-50000D02*
X-50927Y-106540D01*
X-51791Y-106898D01*
X-52533Y-107467D01*
X-53102Y-108209D01*
X-53460Y-109073D01*
X-53582Y-110000D01*
X-53460Y-110927D01*
X-53102Y-111791D01*
X-52533Y-112533D01*
X-51791Y-113102D01*
X-50927Y-113460D01*
X-50000Y-113582D01*
X-49073Y-113460D01*
X-48209Y-113102D01*
X-47467Y-112533D01*
X-46898Y-111791D01*
X-46540Y-110927D01*
X-46418Y-110000D01*
X-46540Y-109073D01*
X-46898Y-108209D01*
X-47467Y-107467D01*
X-48209Y-106898D01*
X-49073Y-106540D01*
X-50000Y-106418D01*
D02*
G37*
G36*
X34500Y-85969D02*
X31539D01*
Y-89421D01*
X34500D01*
Y-85969D01*
D02*
G37*
G36*
X48461Y-90421D02*
X41539D01*
Y-93874D01*
X41087Y-93988D01*
X38913D01*
X38461Y-93874D01*
Y-90421D01*
X31539D01*
Y-93874D01*
X33988D01*
Y-95000D01*
Y-96126D01*
X31539D01*
Y-99579D01*
X38461D01*
Y-96126D01*
X38913Y-96012D01*
X41087D01*
X41539Y-96126D01*
Y-99579D01*
X48461D01*
Y-96126D01*
X46012D01*
Y-95000D01*
Y-93874D01*
X48461D01*
Y-90421D01*
D02*
G37*
G36*
X44500Y-85969D02*
X41539D01*
Y-89421D01*
X44500D01*
Y-85969D01*
D02*
G37*
G36*
X38461D02*
X35500D01*
Y-89421D01*
X38461D01*
Y-85969D01*
D02*
G37*
G36*
X48461Y-100579D02*
X45500D01*
Y-104032D01*
X48461D01*
Y-100579D01*
D02*
G37*
G36*
X34500D02*
X31539D01*
Y-104032D01*
X34500D01*
Y-100579D01*
D02*
G37*
G36*
X-56449Y-106449D02*
X-63551D01*
Y-113551D01*
X-56449D01*
Y-106449D01*
D02*
G37*
G36*
X44500Y-100579D02*
X41539D01*
Y-104032D01*
X44500D01*
Y-100579D01*
D02*
G37*
G36*
X38461D02*
X35500D01*
Y-104032D01*
X38461D01*
Y-100579D01*
D02*
G37*
G36*
X-15500Y-30579D02*
X-18461D01*
Y-34032D01*
X-15500D01*
Y-30579D01*
D02*
G37*
G36*
X-6941Y63630D02*
X-13059D01*
Y56528D01*
X-11012D01*
Y53411D01*
X-12526Y51896D01*
X-12746Y51568D01*
X-12823Y51181D01*
Y42323D01*
Y39535D01*
X-14614D01*
Y34992D01*
Y30465D01*
X-14064D01*
X-13797Y29965D01*
X-14007Y29649D01*
X-14161Y28878D01*
X-14007Y28107D01*
X-13571Y27453D01*
X-12917Y27016D01*
X-12146Y26863D01*
X-11374Y27016D01*
X-10721Y27453D01*
X-10284Y28107D01*
X-10131Y28878D01*
X-10284Y29649D01*
X-10495Y29965D01*
X-10227Y30465D01*
X-9677D01*
Y34992D01*
Y39535D01*
X-10800D01*
Y41311D01*
X-9277D01*
X-8886Y40920D01*
Y20812D01*
X-9347Y20621D01*
X-16843Y28116D01*
Y30465D01*
X-15386D01*
Y34992D01*
Y39535D01*
X-15989D01*
X-16256Y40035D01*
X-15993Y40430D01*
X-15839Y41201D01*
X-15993Y41972D01*
X-16429Y42626D01*
X-17083Y43062D01*
X-17854Y43216D01*
X-18625Y43062D01*
X-19279Y42626D01*
X-19716Y41972D01*
X-19869Y41201D01*
X-19716Y40430D01*
X-19453Y40035D01*
X-19720Y39535D01*
X-20323D01*
X-20642Y39903D01*
Y50762D01*
X-19285Y52119D01*
X-19065Y52447D01*
X-18988Y52835D01*
Y56528D01*
X-16941D01*
Y63630D01*
X-23059D01*
Y56528D01*
X-21012D01*
Y53254D01*
X-22369Y51896D01*
X-22588Y51568D01*
X-22665Y51181D01*
Y27559D01*
X-22588Y27172D01*
X-22369Y26844D01*
X-22041Y26625D01*
X-21654Y26548D01*
X-18136D01*
X-16684Y25096D01*
X-16875Y24634D01*
X-28124D01*
X-28988Y25498D01*
Y26528D01*
X-26941D01*
Y33630D01*
X-33059D01*
Y26528D01*
X-31012D01*
Y25079D01*
X-30935Y24692D01*
X-30715Y24363D01*
X-29259Y22907D01*
X-28930Y22688D01*
X-28543Y22611D01*
X-16167D01*
X-7901Y14345D01*
Y13981D01*
X-7973Y13874D01*
X-8062Y13425D01*
Y8870D01*
X-8446Y8487D01*
X-8538Y8455D01*
X-8622Y8471D01*
X-10524D01*
Y6890D01*
X-11524D01*
Y8471D01*
X-13425D01*
X-14030Y8351D01*
X-14544Y8008D01*
X-14615Y7901D01*
X-18971D01*
X-21785Y10715D01*
X-22113Y10935D01*
X-22500Y11012D01*
X-22816D01*
X-23286Y11714D01*
X-24072Y12240D01*
X-24500Y12325D01*
Y10000D01*
X-25500D01*
Y12325D01*
X-25626Y12300D01*
X-26126Y12663D01*
Y13461D01*
X-29579D01*
Y10000D01*
X-30079D01*
Y9500D01*
X-34032D01*
Y7512D01*
X-36370D01*
Y13059D01*
X-43472D01*
Y11958D01*
X-43972Y11690D01*
X-44229Y11862D01*
X-45000Y12015D01*
X-45771Y11862D01*
X-46425Y11425D01*
X-46862Y10771D01*
X-47015Y10000D01*
X-46862Y9229D01*
X-46425Y8575D01*
X-45771Y8138D01*
X-45353Y8055D01*
X-45331Y7994D01*
X-45291Y7533D01*
X-45302Y7525D01*
X-45302D01*
X-45319Y7512D01*
X-51500D01*
X-51500Y7512D01*
X-51887Y7435D01*
X-52215Y7215D01*
X-52215Y7215D01*
X-60715Y-1285D01*
X-60935Y-1613D01*
X-61012Y-2000D01*
Y-68988D01*
X-64581D01*
X-68988Y-64581D01*
Y-63472D01*
X-66941D01*
Y-56370D01*
X-73059D01*
Y-63472D01*
X-71012D01*
Y-65000D01*
X-70935Y-65387D01*
X-70715Y-65715D01*
X-65715Y-70715D01*
X-65387Y-70935D01*
X-65000Y-71012D01*
X-61012D01*
Y-96575D01*
X-61791Y-96898D01*
X-62533Y-97467D01*
X-63102Y-98209D01*
X-63460Y-99073D01*
X-63582Y-100000D01*
X-63460Y-100927D01*
X-63102Y-101791D01*
X-62533Y-102533D01*
X-61791Y-103102D01*
X-60927Y-103460D01*
X-60000Y-103582D01*
X-59073Y-103460D01*
X-58209Y-103102D01*
X-57467Y-102533D01*
X-56898Y-101791D01*
X-56540Y-100927D01*
X-56418Y-100000D01*
X-56540Y-99073D01*
X-56898Y-98209D01*
X-57467Y-97467D01*
X-58209Y-96898D01*
X-58988Y-96575D01*
Y-70000D01*
Y-2419D01*
X-51081Y5488D01*
X-50595D01*
X-50404Y5026D01*
X-55715Y-285D01*
X-55935Y-613D01*
X-56012Y-1000D01*
Y-95000D01*
X-55935Y-95387D01*
X-55715Y-95715D01*
X-53137Y-98294D01*
X-53460Y-99073D01*
X-53582Y-100000D01*
X-53460Y-100927D01*
X-53102Y-101791D01*
X-52533Y-102533D01*
X-51791Y-103102D01*
X-50927Y-103460D01*
X-50000Y-103582D01*
X-49073Y-103460D01*
X-48209Y-103102D01*
X-47467Y-102533D01*
X-46898Y-101791D01*
X-46540Y-100927D01*
X-46418Y-100000D01*
X-46540Y-99073D01*
X-46898Y-98209D01*
X-47467Y-97467D01*
X-48209Y-96898D01*
X-49073Y-96540D01*
X-50000Y-96418D01*
X-50927Y-96540D01*
X-51706Y-96863D01*
X-53988Y-94581D01*
Y-1419D01*
X-48468Y4101D01*
X-47983D01*
X-47791Y3639D01*
X-50715Y715D01*
X-50935Y387D01*
X-51012Y0D01*
Y-90000D01*
X-50935Y-90387D01*
X-50715Y-90715D01*
X-43137Y-98294D01*
X-43460Y-99073D01*
X-43582Y-100000D01*
X-43460Y-100927D01*
X-43102Y-101791D01*
X-42533Y-102533D01*
X-41791Y-103102D01*
X-40927Y-103460D01*
X-40000Y-103582D01*
X-39073Y-103460D01*
X-38209Y-103102D01*
X-37467Y-102533D01*
X-36898Y-101791D01*
X-36540Y-100927D01*
X-36418Y-100000D01*
X-36540Y-99073D01*
X-36898Y-98209D01*
X-37467Y-97467D01*
X-38209Y-96898D01*
X-39073Y-96540D01*
X-40000Y-96418D01*
X-40927Y-96540D01*
X-41706Y-96863D01*
X-48988Y-89581D01*
Y-419D01*
X-45856Y2714D01*
X-43472D01*
Y1958D01*
X-43972Y1690D01*
X-44229Y1862D01*
X-45000Y2015D01*
X-45771Y1862D01*
X-46425Y1425D01*
X-46862Y771D01*
X-47015Y0D01*
X-46862Y-771D01*
X-46425Y-1425D01*
X-45771Y-1862D01*
X-45000Y-2015D01*
X-44229Y-1862D01*
X-43972Y-1690D01*
X-43472Y-1958D01*
Y-3059D01*
X-36370D01*
Y2714D01*
X-34032D01*
Y500D01*
X-30079D01*
Y0D01*
X-29579D01*
Y-3461D01*
X-26126D01*
Y-2663D01*
X-25626Y-2300D01*
X-25500Y-2325D01*
Y0D01*
X-24500D01*
Y-2325D01*
X-24072Y-2240D01*
X-23286Y-1714D01*
X-22880Y-1107D01*
X-22357Y-1073D01*
X-21731Y-1699D01*
X-21403Y-1919D01*
X-21114Y-1976D01*
X-20971Y-2243D01*
X-20926Y-2496D01*
X-21715Y-3285D01*
X-21935Y-3613D01*
X-22012Y-4000D01*
Y-8581D01*
X-22419Y-8988D01*
X-26528D01*
Y-6941D01*
X-33630D01*
Y-13059D01*
X-26528D01*
Y-11012D01*
X-22000D01*
X-21613Y-10935D01*
X-21285Y-10715D01*
X-20512Y-9942D01*
X-20012Y-10149D01*
Y-12081D01*
X-22419Y-14488D01*
X-32000D01*
X-32387Y-14565D01*
X-32715Y-14785D01*
X-40715Y-22785D01*
X-40935Y-23113D01*
X-41012Y-23500D01*
Y-90000D01*
X-40935Y-90387D01*
X-40715Y-90715D01*
X-33137Y-98294D01*
X-33460Y-99073D01*
X-33582Y-100000D01*
X-33460Y-100927D01*
X-33102Y-101791D01*
X-32533Y-102533D01*
X-31791Y-103102D01*
X-30927Y-103460D01*
X-30000Y-103582D01*
X-29073Y-103460D01*
X-28209Y-103102D01*
X-27467Y-102533D01*
X-26898Y-101791D01*
X-26540Y-100927D01*
X-26418Y-100000D01*
X-26540Y-99073D01*
X-26898Y-98209D01*
X-27467Y-97467D01*
X-28209Y-96898D01*
X-29073Y-96540D01*
X-30000Y-96418D01*
X-30927Y-96540D01*
X-31706Y-96863D01*
X-38988Y-89581D01*
Y-23919D01*
X-31581Y-16512D01*
X-30595D01*
X-30404Y-16973D01*
X-36715Y-23285D01*
X-36935Y-23613D01*
X-37012Y-24000D01*
Y-84000D01*
X-36935Y-84387D01*
X-36715Y-84715D01*
X-23137Y-98294D01*
X-23460Y-99073D01*
X-23582Y-100000D01*
X-23460Y-100927D01*
X-23102Y-101791D01*
X-22533Y-102533D01*
X-21791Y-103102D01*
X-20927Y-103460D01*
X-20000Y-103582D01*
X-19073Y-103460D01*
X-18209Y-103102D01*
X-17467Y-102533D01*
X-16898Y-101791D01*
X-16540Y-100927D01*
X-16418Y-100000D01*
X-16540Y-99073D01*
X-16898Y-98209D01*
X-17467Y-97467D01*
X-18209Y-96898D01*
X-19073Y-96540D01*
X-20000Y-96418D01*
X-20927Y-96540D01*
X-21706Y-96863D01*
X-34988Y-83581D01*
Y-24419D01*
X-28581Y-18012D01*
X-28095D01*
X-27904Y-18474D01*
X-32715Y-23285D01*
X-32935Y-23613D01*
X-33012Y-24000D01*
Y-78000D01*
X-32935Y-78387D01*
X-32715Y-78715D01*
X-13137Y-98294D01*
X-13460Y-99073D01*
X-13582Y-100000D01*
X-13460Y-100927D01*
X-13102Y-101791D01*
X-12533Y-102533D01*
X-11791Y-103102D01*
X-10927Y-103460D01*
X-10000Y-103582D01*
X-9073Y-103460D01*
X-8209Y-103102D01*
X-7467Y-102533D01*
X-6898Y-101791D01*
X-6540Y-100927D01*
X-6418Y-100000D01*
X-6540Y-99073D01*
X-6898Y-98209D01*
X-7467Y-97467D01*
X-8209Y-96898D01*
X-9073Y-96540D01*
X-10000Y-96418D01*
X-10927Y-96540D01*
X-11706Y-96863D01*
X-30988Y-77581D01*
Y-24419D01*
X-26081Y-19512D01*
X-25595D01*
X-25404Y-19974D01*
X-28715Y-23285D01*
X-28935Y-23613D01*
X-29012Y-24000D01*
Y-72000D01*
X-28935Y-72387D01*
X-28715Y-72715D01*
X-3137Y-98294D01*
X-3460Y-99073D01*
X-3582Y-100000D01*
X-3460Y-100927D01*
X-3102Y-101791D01*
X-2533Y-102533D01*
X-1791Y-103102D01*
X-927Y-103460D01*
X0Y-103582D01*
X927Y-103460D01*
X1791Y-103102D01*
X2533Y-102533D01*
X3102Y-101791D01*
X3460Y-100927D01*
X3582Y-100000D01*
X3460Y-99073D01*
X3102Y-98209D01*
X2533Y-97467D01*
X1791Y-96898D01*
X927Y-96540D01*
X0Y-96418D01*
X-927Y-96540D01*
X-1706Y-96863D01*
X-26988Y-71581D01*
Y-24419D01*
X-23581Y-21012D01*
X-23095D01*
X-22904Y-21474D01*
X-24715Y-23285D01*
X-24935Y-23613D01*
X-25012Y-24000D01*
Y-66000D01*
X-24935Y-66387D01*
X-24715Y-66715D01*
X6863Y-98294D01*
X6540Y-99073D01*
X6418Y-100000D01*
X6540Y-100927D01*
X6898Y-101791D01*
X7467Y-102533D01*
X8209Y-103102D01*
X9073Y-103460D01*
X10000Y-103582D01*
X10927Y-103460D01*
X11791Y-103102D01*
X12533Y-102533D01*
X13102Y-101791D01*
X13460Y-100927D01*
X13582Y-100000D01*
X13460Y-99073D01*
X13137Y-98294D01*
X15715Y-95715D01*
X15935Y-95387D01*
X16012Y-95000D01*
Y-88472D01*
X18059D01*
Y-81370D01*
X11941D01*
Y-88472D01*
X13988D01*
Y-94581D01*
X11706Y-96863D01*
X10927Y-96540D01*
X10000Y-96418D01*
X9073Y-96540D01*
X8294Y-96863D01*
X-22988Y-65581D01*
Y-24419D01*
X-21081Y-22512D01*
X-14649D01*
X-14442Y-23012D01*
X-15715Y-24285D01*
X-15935Y-24613D01*
X-16012Y-25000D01*
Y-26126D01*
X-18461D01*
Y-29579D01*
X-11539D01*
Y-26126D01*
X-13988D01*
Y-25419D01*
X-13081Y-24512D01*
X-7000D01*
X-6613Y-24435D01*
X-6512Y-24367D01*
X-6012Y-24634D01*
Y-26126D01*
X-8461D01*
Y-29579D01*
X-1539D01*
Y-26126D01*
X-3988D01*
Y-23919D01*
X1441Y-18489D01*
X1941Y-18697D01*
Y-21953D01*
X2018Y-22340D01*
X2238Y-22668D01*
X3988Y-24419D01*
Y-26528D01*
X1941D01*
Y-33630D01*
X8059D01*
Y-26528D01*
X6012D01*
Y-24000D01*
X5935Y-23613D01*
X5847Y-23481D01*
X5715Y-23285D01*
X5715Y-23285D01*
X3994Y-21564D01*
X4045Y-21089D01*
X4483Y-20913D01*
X6785Y-23215D01*
X7113Y-23435D01*
X7500Y-23512D01*
X13081D01*
X13988Y-24419D01*
Y-26126D01*
X11539D01*
Y-29579D01*
X18461D01*
Y-26126D01*
X16012D01*
Y-24000D01*
X15935Y-23613D01*
X15715Y-23285D01*
X14215Y-21785D01*
X13887Y-21565D01*
X13500Y-21488D01*
X7919D01*
X5933Y-19502D01*
Y-14770D01*
X6332Y-14485D01*
X6390Y-14474D01*
X6441Y-14508D01*
X6890Y-14597D01*
X7338Y-14508D01*
X7719Y-14254D01*
X7973Y-13874D01*
X8062Y-13425D01*
Y-8622D01*
X8023Y-8428D01*
X8428Y-8023D01*
X8622Y-8062D01*
X13425D01*
X13874Y-7973D01*
X13981Y-7901D01*
X14345D01*
X22988Y-16545D01*
Y-55000D01*
X23065Y-55387D01*
X23285Y-55715D01*
X23613Y-55935D01*
X24000Y-56012D01*
X33988D01*
Y-56528D01*
X31941D01*
Y-63630D01*
X38059D01*
Y-56528D01*
X36012D01*
Y-56012D01*
X38988D01*
Y-59000D01*
X39065Y-59387D01*
X39285Y-59715D01*
X40285Y-60715D01*
X40613Y-60935D01*
X41000Y-61012D01*
X41528D01*
Y-63059D01*
X48630D01*
Y-56941D01*
X41528D01*
Y-57806D01*
X41028Y-58073D01*
X41012Y-58062D01*
Y-55000D01*
X40935Y-54613D01*
X40715Y-54285D01*
X40387Y-54065D01*
X40000Y-53988D01*
X25012D01*
Y-49649D01*
X25512Y-49442D01*
X26785Y-50715D01*
X27113Y-50935D01*
X27500Y-51012D01*
X83988D01*
Y-56528D01*
X81941D01*
Y-63630D01*
X88059D01*
Y-61553D01*
X88559Y-61401D01*
X88575Y-61425D01*
X89229Y-61862D01*
X90000Y-62015D01*
X90771Y-61862D01*
X91028Y-61690D01*
X91528Y-61958D01*
Y-63059D01*
X98630D01*
Y-56941D01*
X91528D01*
Y-58042D01*
X91028Y-58310D01*
X90771Y-58138D01*
X90000Y-57985D01*
X89229Y-58138D01*
X88575Y-58575D01*
X88559Y-58599D01*
X88059Y-58447D01*
Y-56528D01*
X86012D01*
Y-50000D01*
Y-43472D01*
X88059D01*
Y-36370D01*
X81941D01*
Y-43472D01*
X83988D01*
Y-48988D01*
X27919D01*
X27012Y-48081D01*
Y-44149D01*
X27512Y-43942D01*
X29285Y-45715D01*
X29613Y-45935D01*
X30000Y-46012D01*
X50000D01*
X50387Y-45935D01*
X50715Y-45715D01*
X50935Y-45387D01*
X51012Y-45000D01*
Y-41012D01*
X51528D01*
Y-43059D01*
X58630D01*
Y-36941D01*
X51528D01*
Y-38988D01*
X51012D01*
Y-31938D01*
X51028Y-31927D01*
X51528Y-32194D01*
Y-33059D01*
X58630D01*
Y-26941D01*
X51528D01*
Y-28988D01*
X51000D01*
X50613Y-29065D01*
X50285Y-29285D01*
X49285Y-30285D01*
X49065Y-30613D01*
X48988Y-31000D01*
Y-43988D01*
X36012D01*
Y-43472D01*
X38059D01*
Y-36370D01*
X31941D01*
Y-43472D01*
X33988D01*
Y-43988D01*
X30419D01*
X29012Y-42581D01*
Y-25149D01*
X29512Y-24942D01*
X30285Y-25715D01*
X30613Y-25935D01*
X31000Y-26012D01*
X33988D01*
Y-26528D01*
X31941D01*
Y-33630D01*
X38059D01*
Y-26528D01*
X36012D01*
Y-26012D01*
X49000D01*
X49387Y-25935D01*
X49715Y-25715D01*
X50715Y-24715D01*
X50935Y-24387D01*
X51012Y-24000D01*
Y-22384D01*
X51028Y-22373D01*
X51528Y-22640D01*
Y-23059D01*
X58630D01*
Y-16941D01*
X51669D01*
X51425Y-16575D01*
X50771Y-16138D01*
X50000Y-15985D01*
X49229Y-16138D01*
X48575Y-16575D01*
X48331Y-16941D01*
X41370D01*
Y-23059D01*
X48472D01*
Y-21584D01*
X48488Y-21577D01*
X48988Y-21911D01*
Y-23581D01*
X48581Y-23988D01*
X31419D01*
X31012Y-23581D01*
Y-21012D01*
X31528D01*
Y-23059D01*
X38630D01*
Y-16941D01*
X31528D01*
Y-18988D01*
X31012D01*
Y-13268D01*
X31012Y-13268D01*
X30935Y-12881D01*
X30715Y-12552D01*
X30715Y-12552D01*
X29606Y-11443D01*
X29852Y-10982D01*
X30000Y-11012D01*
X30000Y-11012D01*
X31528D01*
Y-13059D01*
X38630D01*
Y-6941D01*
X31528D01*
Y-8988D01*
X30419D01*
X22942Y-1512D01*
X23149Y-1012D01*
X31126D01*
Y-3461D01*
X34579D01*
Y0D01*
X35079D01*
Y500D01*
X39031D01*
Y3461D01*
X39031D01*
X39154Y3910D01*
X49921D01*
X50308Y3987D01*
X50637Y4206D01*
X51715Y5285D01*
X51935Y5613D01*
X52012Y6000D01*
Y9039D01*
X52012Y9039D01*
X51935Y9426D01*
X51715Y9755D01*
X50755Y10715D01*
X50427Y10935D01*
X50039Y11012D01*
X48472D01*
Y13059D01*
X41370D01*
Y6941D01*
X48472D01*
Y8988D01*
X49620D01*
X49988Y8620D01*
Y6419D01*
X49502Y5933D01*
X19882D01*
X19674Y6433D01*
X22230Y8988D01*
X31528D01*
Y6941D01*
X38630D01*
Y13059D01*
X31528D01*
Y11012D01*
X21811D01*
X21424Y10935D01*
X21096Y10715D01*
X18282Y7901D01*
X13981D01*
X13874Y7973D01*
X13425Y8062D01*
X8870D01*
X8487Y8446D01*
X8455Y8538D01*
X8471Y8622D01*
Y10524D01*
X6890D01*
Y11524D01*
X8471D01*
Y13425D01*
X8351Y14030D01*
X8045Y14488D01*
X12545Y18988D01*
X31126D01*
Y16539D01*
X34579D01*
Y20000D01*
Y23461D01*
X31126D01*
Y21012D01*
X23095D01*
X22904Y21474D01*
X30419Y28988D01*
X31528D01*
Y26941D01*
X38630D01*
Y33059D01*
X31528D01*
Y31012D01*
X30000D01*
X29613Y30935D01*
X29285Y30715D01*
X21235Y22665D01*
X19882D01*
X19674Y23165D01*
X20715Y24206D01*
X20935Y24534D01*
X21012Y24921D01*
Y26126D01*
X23461D01*
Y29579D01*
X16539D01*
Y26126D01*
X18988D01*
Y25340D01*
X18282Y24634D01*
X11811D01*
X11512Y24574D01*
X11184Y24746D01*
X11012Y24882D01*
Y26126D01*
X13461D01*
Y29579D01*
X6539D01*
Y26126D01*
X8988D01*
Y24198D01*
X1474Y16684D01*
X1012Y16875D01*
Y26528D01*
X3059D01*
Y33630D01*
X-3059D01*
Y26528D01*
X-1012D01*
Y16167D01*
X-1661Y15517D01*
X-1758Y15479D01*
X-2179D01*
X-2276Y15517D01*
X-6862Y20104D01*
Y41339D01*
X-6939Y41726D01*
X-7159Y42054D01*
X-8143Y43038D01*
X-8471Y43257D01*
X-8858Y43334D01*
X-10800D01*
Y50762D01*
X-9285Y52277D01*
X-9065Y52605D01*
X-8988Y52992D01*
Y56528D01*
X-6941D01*
Y63630D01*
D02*
G37*
G36*
X39031Y23461D02*
X35579D01*
Y20500D01*
X39031D01*
Y23461D01*
D02*
G37*
G36*
X9500Y34032D02*
X6539D01*
Y30579D01*
X9500D01*
Y34032D01*
D02*
G37*
G36*
X48472Y33059D02*
X41370D01*
Y26941D01*
X48472D01*
Y28042D01*
X48972Y28310D01*
X49229Y28138D01*
X50000Y27985D01*
X50771Y28138D01*
X51425Y28575D01*
X51862Y29229D01*
X52015Y30000D01*
X51862Y30771D01*
X51425Y31425D01*
X50771Y31862D01*
X50000Y32015D01*
X49229Y31862D01*
X48972Y31690D01*
X48472Y31958D01*
Y33059D01*
D02*
G37*
G36*
Y23059D02*
X41370D01*
Y16941D01*
X48472D01*
Y18042D01*
X48972Y18310D01*
X49229Y18138D01*
X50000Y17985D01*
X50771Y18138D01*
X51425Y18575D01*
X51862Y19229D01*
X52015Y20000D01*
X51862Y20771D01*
X51425Y21425D01*
X50771Y21862D01*
X50000Y22015D01*
X49229Y21862D01*
X48972Y21690D01*
X48472Y21958D01*
Y23059D01*
D02*
G37*
G36*
X-95969Y13461D02*
X-99421D01*
Y10500D01*
X-95969D01*
Y13461D01*
D02*
G37*
G36*
X-100421D02*
X-103874D01*
Y10500D01*
X-100421D01*
Y13461D01*
D02*
G37*
G36*
X39031Y19500D02*
X35579D01*
Y16539D01*
X39031D01*
Y19500D01*
D02*
G37*
G36*
X-30579Y13461D02*
X-34032D01*
Y10500D01*
X-30579D01*
Y13461D01*
D02*
G37*
G36*
X20000Y47015D02*
X19229Y46862D01*
X18575Y46425D01*
X18138Y45771D01*
X17985Y45000D01*
X18138Y44229D01*
X18310Y43972D01*
X18042Y43472D01*
X16941D01*
Y36370D01*
X23059D01*
Y43472D01*
X21958D01*
X21690Y43972D01*
X21862Y44229D01*
X22015Y45000D01*
X21862Y45771D01*
X21425Y46425D01*
X20771Y46862D01*
X20000Y47015D01*
D02*
G37*
G36*
X10000D02*
X9229Y46862D01*
X8575Y46425D01*
X8138Y45771D01*
X7985Y45000D01*
X8138Y44229D01*
X8310Y43972D01*
X8042Y43472D01*
X6941D01*
Y36370D01*
X13059D01*
Y43472D01*
X11958D01*
X11690Y43972D01*
X11862Y44229D01*
X12015Y45000D01*
X11862Y45771D01*
X11425Y46425D01*
X10771Y46862D01*
X10000Y47015D01*
D02*
G37*
G36*
X-10000Y77015D02*
X-10771Y76862D01*
X-11425Y76425D01*
X-11862Y75771D01*
X-12015Y75000D01*
X-11862Y74229D01*
X-11690Y73972D01*
X-11958Y73472D01*
X-13059D01*
Y66370D01*
X-6941D01*
Y73472D01*
X-8042D01*
X-8310Y73972D01*
X-8138Y74229D01*
X-7985Y75000D01*
X-8138Y75771D01*
X-8575Y76425D01*
X-9229Y76862D01*
X-10000Y77015D01*
D02*
G37*
G36*
X-20000D02*
X-20771Y76862D01*
X-21425Y76425D01*
X-21862Y75771D01*
X-22015Y75000D01*
X-21862Y74229D01*
X-21690Y73972D01*
X-21958Y73472D01*
X-23059D01*
Y66370D01*
X-16941D01*
Y73472D01*
X-18042D01*
X-18310Y73972D01*
X-18138Y74229D01*
X-17985Y75000D01*
X-18138Y75771D01*
X-18575Y76425D01*
X-19229Y76862D01*
X-20000Y77015D01*
D02*
G37*
G36*
X0Y47015D02*
X-771Y46862D01*
X-1425Y46425D01*
X-1862Y45771D01*
X-2015Y45000D01*
X-1862Y44229D01*
X-1690Y43972D01*
X-1958Y43472D01*
X-3059D01*
Y36370D01*
X3059D01*
Y43472D01*
X1958D01*
X1690Y43972D01*
X1862Y44229D01*
X2015Y45000D01*
X1862Y45771D01*
X1425Y46425D01*
X771Y46862D01*
X0Y47015D01*
D02*
G37*
G36*
X19500Y34032D02*
X16539D01*
Y30579D01*
X19500D01*
Y34032D01*
D02*
G37*
G36*
X13461D02*
X10500D01*
Y30579D01*
X13461D01*
Y34032D01*
D02*
G37*
G36*
X-30000Y47015D02*
X-30771Y46862D01*
X-31425Y46425D01*
X-31862Y45771D01*
X-32015Y45000D01*
X-31862Y44229D01*
X-31690Y43972D01*
X-31958Y43472D01*
X-33059D01*
Y36370D01*
X-26941D01*
Y43472D01*
X-28042D01*
X-28310Y43972D01*
X-28138Y44229D01*
X-27985Y45000D01*
X-28138Y45771D01*
X-28575Y46425D01*
X-29229Y46862D01*
X-30000Y47015D01*
D02*
G37*
G36*
X23461Y34032D02*
X20500D01*
Y30579D01*
X23461D01*
Y34032D01*
D02*
G37*
G36*
X68472Y-16941D02*
X61370D01*
Y-23059D01*
X68472D01*
Y-22194D01*
X68972Y-21927D01*
X68988Y-21938D01*
Y-25000D01*
Y-28062D01*
X68972Y-28073D01*
X68472Y-27806D01*
Y-26941D01*
X61370D01*
Y-33059D01*
X68472D01*
Y-31012D01*
X69000D01*
X69387Y-30935D01*
X69715Y-30715D01*
X70715Y-29715D01*
X70935Y-29387D01*
X71012Y-29000D01*
Y-26012D01*
X83062D01*
X83073Y-26028D01*
X82806Y-26528D01*
X81941D01*
Y-33630D01*
X88059D01*
Y-26528D01*
X86012D01*
Y-26000D01*
X85935Y-25613D01*
X85715Y-25285D01*
X84715Y-24285D01*
X84387Y-24065D01*
X84000Y-23988D01*
X71012D01*
Y-21000D01*
X70935Y-20613D01*
X70715Y-20285D01*
X69715Y-19285D01*
X69387Y-19065D01*
X69000Y-18988D01*
X68472D01*
Y-16941D01*
D02*
G37*
G36*
X18461Y-30579D02*
X15500D01*
Y-34032D01*
X18461D01*
Y-30579D01*
D02*
G37*
G36*
X125000Y-15028D02*
X123713Y-15198D01*
X122514Y-15694D01*
X121484Y-16485D01*
X120694Y-17514D01*
X120198Y-18713D01*
X120028Y-20000D01*
X120198Y-21287D01*
X120694Y-22486D01*
X121484Y-23516D01*
X122514Y-24306D01*
X123713Y-24802D01*
X125000Y-24972D01*
X126287Y-24802D01*
X127486Y-24306D01*
X128516Y-23516D01*
X129306Y-22486D01*
X129802Y-21287D01*
X129972Y-20000D01*
X129802Y-18713D01*
X129306Y-17514D01*
X128516Y-16485D01*
X127486Y-15694D01*
X126287Y-15198D01*
X125000Y-15028D01*
D02*
G37*
G36*
X105000D02*
X103713Y-15198D01*
X102514Y-15694D01*
X101485Y-16485D01*
X100694Y-17514D01*
X100198Y-18713D01*
X100028Y-20000D01*
X100198Y-21287D01*
X100694Y-22486D01*
X101485Y-23516D01*
X102514Y-24306D01*
X103713Y-24802D01*
X105000Y-24972D01*
X106287Y-24802D01*
X107486Y-24306D01*
X108516Y-23516D01*
X109306Y-22486D01*
X109802Y-21287D01*
X109972Y-20000D01*
X109802Y-18713D01*
X109306Y-17514D01*
X108516Y-16485D01*
X107486Y-15694D01*
X106287Y-15198D01*
X105000Y-15028D01*
D02*
G37*
G36*
X-5500Y-30579D02*
X-8461D01*
Y-34032D01*
X-5500D01*
Y-30579D01*
D02*
G37*
G36*
X-11539D02*
X-14500D01*
Y-34032D01*
X-11539D01*
Y-30579D01*
D02*
G37*
G36*
X14500D02*
X11539D01*
Y-34032D01*
X14500D01*
Y-30579D01*
D02*
G37*
G36*
X-1539D02*
X-4500D01*
Y-34032D01*
X-1539D01*
Y-30579D01*
D02*
G37*
G36*
X48472Y-6941D02*
X41370D01*
Y-13059D01*
X48472D01*
Y-11958D01*
X48972Y-11690D01*
X49229Y-11862D01*
X50000Y-12015D01*
X50771Y-11862D01*
X51425Y-11425D01*
X51862Y-10771D01*
X52015Y-10000D01*
X51862Y-9229D01*
X51425Y-8575D01*
X50771Y-8138D01*
X50000Y-7985D01*
X49229Y-8138D01*
X48972Y-8310D01*
X48472Y-8042D01*
Y-6941D01*
D02*
G37*
G36*
X-100421Y9500D02*
X-103874D01*
Y6539D01*
X-100421D01*
Y9500D01*
D02*
G37*
G36*
X48472Y3059D02*
X41370D01*
Y-3059D01*
X48472D01*
Y-1958D01*
X48972Y-1690D01*
X49229Y-1862D01*
X50000Y-2015D01*
X50771Y-1862D01*
X51425Y-1425D01*
X51862Y-771D01*
X52015Y0D01*
X51862Y771D01*
X51425Y1425D01*
X50771Y1862D01*
X50000Y2015D01*
X49229Y1862D01*
X48972Y1690D01*
X48472Y1958D01*
Y3059D01*
D02*
G37*
G36*
X-86528Y13059D02*
X-93630D01*
Y6941D01*
X-86528D01*
Y8042D01*
X-86028Y8310D01*
X-85771Y8138D01*
X-85000Y7985D01*
X-84229Y8138D01*
X-83575Y8575D01*
X-83138Y9229D01*
X-82985Y10000D01*
X-83138Y10771D01*
X-83575Y11425D01*
X-84229Y11862D01*
X-85000Y12015D01*
X-85771Y11862D01*
X-86028Y11690D01*
X-86528Y11958D01*
Y13059D01*
D02*
G37*
G36*
X-95969Y9500D02*
X-99421D01*
Y6539D01*
X-95969D01*
Y9500D01*
D02*
G37*
G36*
X-30579Y-500D02*
X-34032D01*
Y-3461D01*
X-30579D01*
Y-500D01*
D02*
G37*
G36*
X-36370Y-6941D02*
X-43472D01*
Y-8042D01*
X-43972Y-8310D01*
X-44229Y-8138D01*
X-45000Y-7985D01*
X-45771Y-8138D01*
X-46425Y-8575D01*
X-46862Y-9229D01*
X-47015Y-10000D01*
X-46862Y-10771D01*
X-46425Y-11425D01*
X-45771Y-11862D01*
X-45000Y-12015D01*
X-44229Y-11862D01*
X-43972Y-11690D01*
X-43472Y-11958D01*
Y-13059D01*
X-36370D01*
Y-6941D01*
D02*
G37*
G36*
X39031Y-500D02*
X35579D01*
Y-3461D01*
X39031D01*
Y-500D01*
D02*
G37*
%LPD*%
G36*
X-13874Y-7973D02*
X-13425Y-8062D01*
X-8622D01*
X-8428Y-8023D01*
X-8023Y-8428D01*
X-8062Y-8622D01*
Y-13425D01*
X-7973Y-13874D01*
X-7901Y-13981D01*
Y-14971D01*
X-10419Y-17488D01*
X-18905D01*
X-19096Y-17027D01*
X-16785Y-14715D01*
X-16565Y-14387D01*
X-16488Y-14000D01*
Y-8419D01*
X-15971Y-7901D01*
X-13981D01*
X-13874Y-7973D01*
D02*
G37*
G36*
X31126Y3461D02*
X31126D01*
Y1012D01*
X23057D01*
X20659Y3410D01*
X20866Y3910D01*
X31003D01*
X31126Y3461D01*
D02*
G37*
D10*
X-90079Y10000D02*
D03*
X-99921D02*
D03*
X-90079Y0D02*
D03*
X-99921D02*
D03*
X-90079Y-10000D02*
D03*
X-99921D02*
D03*
X104921Y-60000D02*
D03*
X95079D02*
D03*
X104921Y-70000D02*
D03*
X95079D02*
D03*
X64921Y-20000D02*
D03*
X55079D02*
D03*
Y-30000D02*
D03*
X64921D02*
D03*
Y-40000D02*
D03*
X55079D02*
D03*
X124921Y-60000D02*
D03*
X115079D02*
D03*
Y-70000D02*
D03*
X124921D02*
D03*
X35079Y-20000D02*
D03*
X44921D02*
D03*
X65079Y-70000D02*
D03*
X74921D02*
D03*
X54921Y-60000D02*
D03*
X45079D02*
D03*
X74921D02*
D03*
X65079D02*
D03*
X-90079Y-50000D02*
D03*
X-99921D02*
D03*
X35079Y30000D02*
D03*
X44921D02*
D03*
X35079Y-10000D02*
D03*
X44921D02*
D03*
X35079Y10000D02*
D03*
X44921D02*
D03*
X35079Y0D02*
D03*
X44921D02*
D03*
X-39921Y10000D02*
D03*
X-30079D02*
D03*
X-39921Y0D02*
D03*
X-30079D02*
D03*
X-39921Y-10000D02*
D03*
X-30079D02*
D03*
X35079Y20000D02*
D03*
X44921D02*
D03*
D11*
X85000Y-39921D02*
D03*
Y-30079D02*
D03*
Y-69921D02*
D03*
Y-60079D02*
D03*
X45000Y-109921D02*
D03*
Y-100079D02*
D03*
X35000Y-109921D02*
D03*
Y-100079D02*
D03*
Y-80079D02*
D03*
Y-89921D02*
D03*
X45000D02*
D03*
Y-80079D02*
D03*
X35000Y-60079D02*
D03*
Y-69921D02*
D03*
X-110000Y-25079D02*
D03*
Y-34921D02*
D03*
X20000Y30079D02*
D03*
Y39921D02*
D03*
X10000Y30079D02*
D03*
Y39921D02*
D03*
X0Y30079D02*
D03*
Y39921D02*
D03*
X-15000Y-30079D02*
D03*
Y-39921D02*
D03*
X15000Y-30079D02*
D03*
Y-39921D02*
D03*
X5000D02*
D03*
Y-30079D02*
D03*
X-5000D02*
D03*
Y-39921D02*
D03*
X35000D02*
D03*
Y-30079D02*
D03*
X-30000Y30079D02*
D03*
Y39921D02*
D03*
X-20000Y60079D02*
D03*
Y69921D02*
D03*
X-10000Y60079D02*
D03*
Y69921D02*
D03*
X-70000Y-59921D02*
D03*
Y-50079D02*
D03*
X15000Y-84921D02*
D03*
Y-75079D02*
D03*
D12*
X-17854Y37264D02*
D03*
X-12146D02*
D03*
Y32736D02*
D03*
X-17854D02*
D03*
D13*
X-6890Y11024D02*
D03*
X-4921D02*
D03*
X-2953D02*
D03*
X-984D02*
D03*
X984D02*
D03*
X2953D02*
D03*
X4921D02*
D03*
X6890D02*
D03*
Y-11024D02*
D03*
X4921D02*
D03*
X2953D02*
D03*
X984D02*
D03*
X-984D02*
D03*
X-2953D02*
D03*
X-4921D02*
D03*
X-6890D02*
D03*
D14*
X11024Y6890D02*
D03*
Y4921D02*
D03*
Y2953D02*
D03*
Y984D02*
D03*
Y-984D02*
D03*
Y-2953D02*
D03*
Y-4921D02*
D03*
Y-6890D02*
D03*
X-11024D02*
D03*
Y-4921D02*
D03*
Y-2953D02*
D03*
Y-984D02*
D03*
Y984D02*
D03*
Y2953D02*
D03*
Y4921D02*
D03*
Y6890D02*
D03*
D15*
X0Y0D02*
D03*
D16*
X-98740Y-25276D02*
D03*
X-91260D02*
D03*
Y-34724D02*
D03*
X-95000D02*
D03*
X-98740D02*
D03*
D17*
X-60000Y-2000D02*
X-51500Y6500D01*
X-55000Y-95000D02*
X-50000Y-100000D01*
X-55000Y-1000D02*
X-48887Y5113D01*
X-55000Y-95000D02*
Y-1000D01*
X-50000Y-90000D02*
Y0D01*
Y-90000D02*
X-40000Y-100000D01*
Y-90000D02*
X-30000Y-100000D01*
X-32000Y-78000D02*
Y-24000D01*
X-28000Y-72000D02*
Y-24000D01*
X-24000Y-66000D02*
Y-24000D01*
X-36000Y-84000D02*
Y-24000D01*
Y-84000D02*
X-20000Y-100000D01*
X-28000Y-72000D02*
X0Y-100000D01*
X-104000Y-10000D02*
X-99921D01*
X-105000Y-11000D02*
X-104000Y-10000D01*
X-105000Y-14000D02*
Y-11000D01*
Y-14000D02*
X-104000Y-15000D01*
X-96000D01*
X-91260Y-25276D02*
Y-19740D01*
X-96000Y-15000D02*
X-91260Y-19740D01*
X-95000Y-34724D02*
Y-30000D01*
X-32000Y-78000D02*
X-10000Y-100000D01*
X-24000Y-24000D02*
X-21500Y-21500D01*
X-24000Y-66000D02*
X10000Y-100000D01*
X15000Y-45000D02*
Y-39921D01*
X5000Y-45000D02*
Y-39921D01*
X-5000Y-45000D02*
Y-39921D01*
X-15000Y-45000D02*
Y-39921D01*
X-24000Y-20000D02*
X-8000D01*
X-28000Y-24000D02*
X-24000Y-20000D01*
X-29000Y-17000D02*
X-20500D01*
X-36000Y-24000D02*
X-29000Y-17000D01*
X-32000Y-24000D02*
X-26500Y-18500D01*
X-10000D01*
X-21500Y-21500D02*
X-7000D01*
X-50000Y0D02*
X-46275Y3725D01*
X-23500D01*
X-48887Y5113D02*
X-22613D01*
X-51500Y6500D02*
X-21500D01*
X-40000Y-90000D02*
Y-23500D01*
X-25000Y10000D02*
X-22500D01*
X-30079D02*
X-25000D01*
Y0D02*
X-22000D01*
X-30079D02*
X-25000D01*
X7500Y-22500D02*
X13500D01*
X4921Y-19921D02*
X7500Y-22500D01*
X4921Y-19921D02*
Y-11024D01*
X13500Y-22500D02*
X15000Y-24000D01*
Y-30079D02*
Y-24000D01*
X5000Y-30079D02*
Y-24000D01*
X2953Y-21953D02*
X5000Y-24000D01*
X2953Y-21953D02*
Y-11024D01*
X-7000Y-23500D02*
X-984Y-17484D01*
X-13500Y-23500D02*
X-7000D01*
X-15000Y-25000D02*
X-13500Y-23500D01*
X-15000Y-30079D02*
Y-25000D01*
X-22000Y-15500D02*
X-19000Y-12500D01*
X-32000Y-15500D02*
X-22000D01*
X-40000Y-23500D02*
X-32000Y-15500D01*
X-20500Y-17000D02*
X-17500Y-14000D01*
X-10000Y-18500D02*
X-6890Y-15390D01*
X-8000Y-20000D02*
X-4921Y-16921D01*
X-7000Y-21500D02*
X-2953Y-17453D01*
X-45000Y-10000D02*
X-39921D01*
X-45000Y10000D02*
X-39921D01*
X-45000Y0D02*
X-39921D01*
X-19390Y6890D02*
X-11024D01*
X-22500Y10000D02*
X-19390Y6890D01*
X-19921Y4921D02*
X-11024D01*
X-21500Y6500D02*
X-19921Y4921D01*
X-20453Y2953D02*
X-11024D01*
X-22613Y5113D02*
X-20453Y2953D01*
X-23500Y3725D02*
X-20759Y984D01*
X-11024D01*
X-22000Y0D02*
X-21016Y-984D01*
X-11024D01*
X-30079Y-10000D02*
X-22000D01*
X-21000Y-9000D01*
Y-4000D01*
X-19953Y-2953D01*
X-11024D01*
X-19000Y-12500D02*
Y-7500D01*
X-16421Y-4921D01*
X-11024D01*
X-17500Y-14000D02*
Y-8000D01*
X-16390Y-6890D01*
X-11024D01*
X-6890Y-15390D02*
Y-11024D01*
X-4921Y-16921D02*
Y-11024D01*
X-2953Y-17453D02*
Y-11024D01*
X-984Y-17484D02*
Y-11024D01*
X984Y-17516D02*
Y-11024D01*
X-5000Y-23500D02*
X984Y-17516D01*
X-5000Y-30079D02*
Y-23500D01*
X-30000Y39921D02*
Y45000D01*
X-10000Y69921D02*
Y75000D01*
X-20000Y69921D02*
Y75000D01*
X20000Y39921D02*
Y45000D01*
X10000Y39921D02*
Y45000D01*
X0Y39921D02*
Y45000D01*
X130000Y-60000D02*
Y-50000D01*
Y-69000D02*
Y-60000D01*
X124921D02*
X130000D01*
X124921Y-70000D02*
X129000D01*
X130000Y-69000D01*
X116000Y-50000D02*
X130000D01*
X115000Y-49000D02*
X116000Y-50000D01*
X115000Y-49000D02*
Y-30000D01*
X50000Y-24000D02*
Y-21500D01*
X49000Y-25000D02*
X50000Y-24000D01*
X35000Y-25000D02*
X49000D01*
X31000D02*
X35000D01*
X30000Y-24000D02*
X31000Y-25000D01*
X30000Y-24000D02*
Y-20000D01*
X35079D01*
X45000Y-115000D02*
Y-109921D01*
X35000Y-115000D02*
Y-109921D01*
X45000Y-100079D02*
Y-95000D01*
Y-89921D01*
X35000Y-95000D02*
Y-89921D01*
Y-100079D02*
Y-95000D01*
X45000D01*
Y-80079D02*
Y-76000D01*
X44000Y-75000D02*
X45000Y-76000D01*
X35000Y-75000D02*
X44000D01*
X35000D02*
Y-69921D01*
Y-80079D02*
Y-75000D01*
X90000Y-60000D02*
X95079D01*
X110000D02*
X115079D01*
X104921D02*
X110000D01*
Y-70000D02*
X115079D01*
X104921D02*
X110000D01*
Y-60000D01*
X90000Y-74000D02*
Y-71000D01*
X89000Y-75000D02*
X90000Y-74000D01*
X85000Y-75000D02*
X89000D01*
X91000Y-70000D02*
X95079D01*
X90000Y-71000D02*
X91000Y-70000D01*
X85000Y-75000D02*
Y-69921D01*
X81000Y-75000D02*
X85000D01*
X80000Y-74000D02*
Y-70000D01*
Y-74000D02*
X81000Y-75000D01*
X80000Y-70000D02*
Y-61000D01*
X74921Y-70000D02*
X80000D01*
X79000Y-60000D02*
X80000Y-61000D01*
X74921Y-60000D02*
X79000D01*
X60000D02*
X65079D01*
X54921D02*
X60000D01*
Y-69000D02*
Y-60000D01*
Y-69000D02*
X61000Y-70000D01*
X65079D01*
X35000Y-55000D02*
X40000D01*
X24000D02*
X35000D01*
Y-60079D02*
Y-55000D01*
X41000Y-60000D02*
X45079D01*
X40000Y-59000D02*
X41000Y-60000D01*
X40000Y-59000D02*
Y-55000D01*
X85000Y-50000D02*
Y-39921D01*
Y-60079D02*
Y-50000D01*
X27500D02*
X85000D01*
X26000Y-48500D02*
X27500Y-50000D01*
X44921Y20000D02*
X50000D01*
X44921Y30000D02*
X50000D01*
X70000Y-25000D02*
Y-21000D01*
Y-29000D02*
Y-25000D01*
X85000Y-30079D02*
Y-26000D01*
X84000Y-25000D02*
X85000Y-26000D01*
X70000Y-25000D02*
X84000D01*
X64921Y-30000D02*
X69000D01*
X70000Y-29000D01*
X69000Y-20000D02*
X70000Y-21000D01*
X64921Y-20000D02*
X69000D01*
X64921Y-40000D02*
X70000D01*
X30000Y-45000D02*
X35000D01*
X28000Y-43000D02*
X30000Y-45000D01*
X28000Y-43000D02*
Y-14220D01*
X35000Y-30079D02*
Y-25000D01*
X51000Y-30000D02*
X55079D01*
X50000Y-31000D02*
X51000Y-30000D01*
X50000Y-45000D02*
Y-31000D01*
X35000Y-45000D02*
X50000D01*
X35000D02*
Y-39921D01*
X50000Y-40000D02*
X55079D01*
X44921Y0D02*
X50000D01*
Y-18500D02*
Y-18000D01*
X51500Y-20000D02*
X55079D01*
X50000Y-21500D02*
X51500Y-20000D01*
X48500D02*
X50000Y-18500D01*
X44921Y-10000D02*
X50000D01*
X44921Y-20000D02*
X48500D01*
X24000Y-55000D02*
Y-16126D01*
X14764Y-6890D02*
X24000Y-16126D01*
X11024Y-6890D02*
X14764D01*
X15748Y-4921D02*
X26000Y-15173D01*
Y-48500D02*
Y-15173D01*
X11024Y-4921D02*
X15748D01*
X49921Y4921D02*
X51000Y6000D01*
X11024Y4921D02*
X49921D01*
X18701Y6890D02*
X21811Y10000D01*
X11024Y6890D02*
X18701D01*
X51000Y6000D02*
Y9039D01*
X50039Y10000D02*
X51000Y9039D01*
X44921Y10000D02*
X50039D01*
X30000Y-10000D02*
X35079D01*
X19016Y984D02*
X30000Y-10000D01*
X11024Y984D02*
X19016D01*
X22638Y0D02*
X35079D01*
X19685Y2953D02*
X22638Y0D01*
X11024Y2953D02*
X19685D01*
X30000Y-20000D02*
Y-13268D01*
X17717Y-984D02*
X30000Y-13268D01*
X16732Y-2953D02*
X28000Y-14220D01*
X11024Y-2953D02*
X16732D01*
X11024Y-984D02*
X17717D01*
X21811Y10000D02*
X35079D01*
X6890Y14764D02*
X12126Y20000D01*
X6890Y11024D02*
Y14764D01*
X12126Y20000D02*
X35079D01*
X30000Y30000D02*
X35079D01*
X21654Y21654D02*
X30000Y30000D01*
X11811Y21654D02*
X21654D01*
X4921Y14764D02*
X11811Y21654D01*
X4921Y11024D02*
Y14764D01*
X20000Y24921D02*
Y30079D01*
X18701Y23622D02*
X20000Y24921D01*
X11811Y23622D02*
X18701D01*
X2953Y14764D02*
X11811Y23622D01*
X2953Y11024D02*
Y14764D01*
X10000Y23779D02*
Y30079D01*
X984Y14764D02*
X10000Y23779D01*
X984Y11024D02*
Y14764D01*
X0Y15748D02*
Y30079D01*
X-984Y14764D02*
X0Y15748D01*
X-984Y11024D02*
Y14764D01*
X-17854Y27559D02*
X-17717D01*
X-4921Y14764D01*
X-17854Y27559D02*
Y32736D01*
X-21654Y27559D02*
X-17854D01*
X-21654D02*
Y51181D01*
X-20000Y52835D01*
Y60079D01*
X-10000Y52992D02*
Y60079D01*
X-11811Y51181D02*
X-10000Y52992D01*
X-11811Y42323D02*
Y51181D01*
Y42323D02*
X-8858D01*
X-11811Y37598D02*
Y42323D01*
X-17854Y37264D02*
Y41201D01*
X-12146Y28878D02*
Y32736D01*
X-7874Y19685D02*
Y41339D01*
X-8858Y42323D02*
X-7874Y41339D01*
X-12146Y37264D02*
X-11811Y37598D01*
X-7874Y19685D02*
X-2953Y14764D01*
Y11024D02*
Y14764D01*
X-4921Y11024D02*
Y14764D01*
X-30000Y25079D02*
Y30079D01*
Y25079D02*
X-28543Y23622D01*
X-15748D01*
X-6890Y14764D01*
Y11024D02*
Y14764D01*
X15000Y-75079D02*
Y-70000D01*
Y-95000D02*
Y-84921D01*
X10000Y-100000D02*
X15000Y-95000D01*
X-70000Y-65000D02*
Y-59921D01*
Y-65000D02*
X-65000Y-70000D01*
X-60000D01*
Y-100000D02*
Y-70000D01*
Y-2000D01*
D18*
X-106299Y-51701D02*
Y-50000D01*
X-110000Y-40500D02*
X-106299Y-44201D01*
Y-50000D02*
Y-44201D01*
Y-50000D02*
X-99921D01*
X-106299Y-96299D02*
Y-51701D01*
X-108425Y-98425D02*
X-106299Y-96299D01*
X-110000Y-17500D02*
Y0D01*
X-99921D01*
X-110000Y-25079D02*
Y-17500D01*
X-100000D01*
X-98740Y-18760D01*
Y-25276D02*
Y-18760D01*
X-108000Y-42500D02*
X-93500D01*
X-110000Y-40500D02*
Y-34921D01*
X-93500Y-42500D02*
X-91260Y-40260D01*
Y-34724D01*
X-90079Y-50000D02*
X-85000D01*
X-90079Y10000D02*
X-85000D01*
X-90079Y0D02*
X-85000D01*
X-90079Y-10000D02*
X-85000D01*
D19*
X-147638Y-127953D02*
Y98425D01*
X147638D01*
Y-127953D02*
Y98425D01*
X-147638Y-127953D02*
X147638D01*
D20*
X115000Y-30000D02*
D03*
X105000Y-40000D02*
D03*
X125000D02*
D03*
Y-20000D02*
D03*
X105000D02*
D03*
D21*
X10000Y-100000D02*
D03*
X0D02*
D03*
X-10000D02*
D03*
X-20000D02*
D03*
X-30000D02*
D03*
X-40000D02*
D03*
X-50000D02*
D03*
X-60000D02*
D03*
X10000Y-110000D02*
D03*
X0D02*
D03*
X-10000D02*
D03*
X-20000D02*
D03*
X-30000D02*
D03*
X-40000D02*
D03*
X-50000D02*
D03*
D22*
X-60000D02*
D03*
D23*
X127953Y78740D02*
D03*
Y-108268D02*
D03*
X-127953D02*
D03*
Y78740D02*
D03*
D24*
X-86457Y-98425D02*
D03*
D25*
X-106457D02*
D03*
D26*
X-85000Y-50000D02*
D03*
X-95000Y-30000D02*
D03*
X-85000Y-10000D02*
D03*
Y0D02*
D03*
Y10000D02*
D03*
X-15000Y-45000D02*
D03*
X-5000D02*
D03*
X5000D02*
D03*
X15000D02*
D03*
X-25000Y10000D02*
D03*
Y0D02*
D03*
X-45000Y-10000D02*
D03*
Y10000D02*
D03*
Y0D02*
D03*
X-30000Y45000D02*
D03*
X-10000Y75000D02*
D03*
X-20000D02*
D03*
X10000Y45000D02*
D03*
X0D02*
D03*
X20000D02*
D03*
X45000Y-115000D02*
D03*
X35000D02*
D03*
X90000Y-60000D02*
D03*
X50000Y20000D02*
D03*
Y30000D02*
D03*
X70000Y-40000D02*
D03*
X50000Y0D02*
D03*
Y-18000D02*
D03*
Y-10000D02*
D03*
X-17854Y41201D02*
D03*
X-12146Y28878D02*
D03*
X3937Y3937D02*
D03*
Y0D02*
D03*
Y-3937D02*
D03*
X0D02*
D03*
X-3937D02*
D03*
Y0D02*
D03*
Y3937D02*
D03*
X0D02*
D03*
X0Y-0D02*
D03*
X15000Y-70000D02*
D03*
M02*
