%FSLAX25Y25*%
%MOIN*%
G70*
G01*
G75*
G04 Layer_Physical_Order=2*
G04 Layer_Color=16711680*
%ADD10R,0.05906X0.04921*%
%ADD11R,0.04921X0.05906*%
%ADD12R,0.03740X0.03347*%
%ADD13O,0.01102X0.05906*%
%ADD14O,0.05906X0.01102*%
%ADD15R,0.13583X0.13583*%
%ADD16R,0.02362X0.04134*%
%ADD17C,0.00787*%
%ADD18C,0.01575*%
%ADD19C,0.00394*%
%ADD20C,0.08661*%
%ADD21C,0.05906*%
%ADD22R,0.05906X0.05906*%
%ADD23C,0.19685*%
%ADD24C,0.09843*%
%ADD25R,0.09843X0.09843*%
%ADD26C,0.02756*%
%ADD27C,0.03937*%
G36*
X137795Y-118110D02*
X-137795D01*
Y88583D01*
X137795D01*
Y-118110D01*
D02*
G37*
%LPC*%
G36*
X-40000Y-96418D02*
X-40927Y-96540D01*
X-41791Y-96898D01*
X-42533Y-97467D01*
X-43102Y-98209D01*
X-43460Y-99073D01*
X-43582Y-100000D01*
X-43460Y-100927D01*
X-43102Y-101791D01*
X-42533Y-102533D01*
X-41791Y-103102D01*
X-40927Y-103460D01*
X-40000Y-103582D01*
X-39073Y-103460D01*
X-38209Y-103102D01*
X-37467Y-102533D01*
X-36898Y-101791D01*
X-36540Y-100927D01*
X-36418Y-100000D01*
X-36540Y-99073D01*
X-36898Y-98209D01*
X-37467Y-97467D01*
X-38209Y-96898D01*
X-39073Y-96540D01*
X-40000Y-96418D01*
D02*
G37*
G36*
X-30000D02*
X-30927Y-96540D01*
X-31791Y-96898D01*
X-32533Y-97467D01*
X-33102Y-98209D01*
X-33460Y-99073D01*
X-33582Y-100000D01*
X-33460Y-100927D01*
X-33102Y-101791D01*
X-32533Y-102533D01*
X-31791Y-103102D01*
X-30927Y-103460D01*
X-30000Y-103582D01*
X-29073Y-103460D01*
X-28209Y-103102D01*
X-27467Y-102533D01*
X-26898Y-101791D01*
X-26540Y-100927D01*
X-26418Y-100000D01*
X-26540Y-99073D01*
X-26898Y-98209D01*
X-27467Y-97467D01*
X-28209Y-96898D01*
X-29073Y-96540D01*
X-30000Y-96418D01*
D02*
G37*
G36*
X-50000D02*
X-50927Y-96540D01*
X-51791Y-96898D01*
X-52533Y-97467D01*
X-53102Y-98209D01*
X-53460Y-99073D01*
X-53582Y-100000D01*
X-53460Y-100927D01*
X-53102Y-101791D01*
X-52533Y-102533D01*
X-51791Y-103102D01*
X-50927Y-103460D01*
X-50000Y-103582D01*
X-49073Y-103460D01*
X-48209Y-103102D01*
X-47467Y-102533D01*
X-46898Y-101791D01*
X-46540Y-100927D01*
X-46418Y-100000D01*
X-46540Y-99073D01*
X-46898Y-98209D01*
X-47467Y-97467D01*
X-48209Y-96898D01*
X-49073Y-96540D01*
X-50000Y-96418D01*
D02*
G37*
G36*
X-100937Y-92905D02*
X-111976D01*
Y-103945D01*
X-100937D01*
Y-92905D01*
D02*
G37*
G36*
X-60000Y-96418D02*
X-60927Y-96540D01*
X-61791Y-96898D01*
X-62533Y-97467D01*
X-63102Y-98209D01*
X-63460Y-99073D01*
X-63582Y-100000D01*
X-63460Y-100927D01*
X-63102Y-101791D01*
X-62533Y-102533D01*
X-61791Y-103102D01*
X-60927Y-103460D01*
X-60000Y-103582D01*
X-59073Y-103460D01*
X-58209Y-103102D01*
X-57467Y-102533D01*
X-56898Y-101791D01*
X-56540Y-100927D01*
X-56418Y-100000D01*
X-56540Y-99073D01*
X-56898Y-98209D01*
X-57467Y-97467D01*
X-58209Y-96898D01*
X-59073Y-96540D01*
X-60000Y-96418D01*
D02*
G37*
G36*
X10000D02*
X9073Y-96540D01*
X8209Y-96898D01*
X7467Y-97467D01*
X6898Y-98209D01*
X6540Y-99073D01*
X6418Y-100000D01*
X6540Y-100927D01*
X6898Y-101791D01*
X7467Y-102533D01*
X8209Y-103102D01*
X9073Y-103460D01*
X10000Y-103582D01*
X10927Y-103460D01*
X11791Y-103102D01*
X12533Y-102533D01*
X13102Y-101791D01*
X13460Y-100927D01*
X13582Y-100000D01*
X13460Y-99073D01*
X13102Y-98209D01*
X12533Y-97467D01*
X11791Y-96898D01*
X10927Y-96540D01*
X10000Y-96418D01*
D02*
G37*
G36*
X115000Y-25029D02*
X113714Y-25198D01*
X112514Y-25695D01*
X111485Y-26485D01*
X110695Y-27514D01*
X110198Y-28714D01*
X110029Y-30000D01*
X110198Y-31287D01*
X110695Y-32486D01*
X111485Y-33516D01*
X112514Y-34306D01*
X113714Y-34803D01*
X115000Y-34972D01*
X116287Y-34803D01*
X117486Y-34306D01*
X118516Y-33516D01*
X119306Y-32486D01*
X119803Y-31287D01*
X119972Y-30000D01*
X119803Y-28714D01*
X119306Y-27514D01*
X118516Y-26485D01*
X117486Y-25695D01*
X116287Y-25198D01*
X115000Y-25029D01*
D02*
G37*
G36*
X-25000Y12589D02*
X-25670Y12501D01*
X-26294Y12242D01*
X-26831Y11831D01*
X-27242Y11294D01*
X-27501Y10670D01*
X-27589Y10000D01*
Y0D01*
X-27501Y-670D01*
X-27242Y-1295D01*
X-26831Y-1831D01*
X-26294Y-2242D01*
X-25670Y-2501D01*
X-25000Y-2589D01*
X-24330Y-2501D01*
X-23706Y-2242D01*
X-23169Y-1831D01*
X-22758Y-1295D01*
X-22499Y-670D01*
X-22411Y0D01*
Y10000D01*
X-22499Y10670D01*
X-22758Y11294D01*
X-23169Y11831D01*
X-23706Y12242D01*
X-24330Y12501D01*
X-25000Y12589D01*
D02*
G37*
G36*
X-20000Y-96418D02*
X-20927Y-96540D01*
X-21791Y-96898D01*
X-22533Y-97467D01*
X-23102Y-98209D01*
X-23460Y-99073D01*
X-23582Y-100000D01*
X-23460Y-100927D01*
X-23102Y-101791D01*
X-22533Y-102533D01*
X-21791Y-103102D01*
X-20927Y-103460D01*
X-20000Y-103582D01*
X-19073Y-103460D01*
X-18209Y-103102D01*
X-17467Y-102533D01*
X-16898Y-101791D01*
X-16540Y-100927D01*
X-16418Y-100000D01*
X-16540Y-99073D01*
X-16898Y-98209D01*
X-17467Y-97467D01*
X-18209Y-96898D01*
X-19073Y-96540D01*
X-20000Y-96418D01*
D02*
G37*
G36*
X-10000D02*
X-10927Y-96540D01*
X-11791Y-96898D01*
X-12533Y-97467D01*
X-13102Y-98209D01*
X-13460Y-99073D01*
X-13582Y-100000D01*
X-13460Y-100927D01*
X-13102Y-101791D01*
X-12533Y-102533D01*
X-11791Y-103102D01*
X-10927Y-103460D01*
X-10000Y-103582D01*
X-9073Y-103460D01*
X-8209Y-103102D01*
X-7467Y-102533D01*
X-6898Y-101791D01*
X-6540Y-100927D01*
X-6418Y-100000D01*
X-6540Y-99073D01*
X-6898Y-98209D01*
X-7467Y-97467D01*
X-8209Y-96898D01*
X-9073Y-96540D01*
X-10000Y-96418D01*
D02*
G37*
G36*
X0D02*
X-927Y-96540D01*
X-1791Y-96898D01*
X-2533Y-97467D01*
X-3102Y-98209D01*
X-3460Y-99073D01*
X-3582Y-100000D01*
X-3460Y-100927D01*
X-3102Y-101791D01*
X-2533Y-102533D01*
X-1791Y-103102D01*
X-927Y-103460D01*
X0Y-103582D01*
X927Y-103460D01*
X1791Y-103102D01*
X2533Y-102533D01*
X3102Y-101791D01*
X3460Y-100927D01*
X3582Y-100000D01*
X3460Y-99073D01*
X3102Y-98209D01*
X2533Y-97467D01*
X1791Y-96898D01*
X927Y-96540D01*
X0Y-96418D01*
D02*
G37*
%LPD*%
D19*
X-147638Y-127953D02*
Y98425D01*
X147638D01*
Y-127953D02*
Y98425D01*
X-147638Y-127953D02*
X147638D01*
D20*
X115000Y-30000D02*
D03*
X105000Y-40000D02*
D03*
X125000D02*
D03*
Y-20000D02*
D03*
X105000D02*
D03*
D21*
X10000Y-100000D02*
D03*
X0D02*
D03*
X-10000D02*
D03*
X-20000D02*
D03*
X-30000D02*
D03*
X-40000D02*
D03*
X-50000D02*
D03*
X-60000D02*
D03*
X10000Y-110000D02*
D03*
X0D02*
D03*
X-10000D02*
D03*
X-20000D02*
D03*
X-30000D02*
D03*
X-40000D02*
D03*
X-50000D02*
D03*
D22*
X-60000D02*
D03*
D23*
X127953Y78740D02*
D03*
Y-108268D02*
D03*
X-127953D02*
D03*
Y78740D02*
D03*
D24*
X-86457Y-98425D02*
D03*
D25*
X-106457D02*
D03*
D26*
X-85000Y-50000D02*
D03*
X-95000Y-30000D02*
D03*
X-85000Y-10000D02*
D03*
Y0D02*
D03*
Y10000D02*
D03*
X-15000Y-45000D02*
D03*
X-5000D02*
D03*
X5000D02*
D03*
X15000D02*
D03*
X-25000Y10000D02*
D03*
Y0D02*
D03*
X-45000Y-10000D02*
D03*
Y10000D02*
D03*
Y0D02*
D03*
X-30000Y45000D02*
D03*
X-10000Y75000D02*
D03*
X-20000D02*
D03*
X10000Y45000D02*
D03*
X0D02*
D03*
X20000D02*
D03*
X45000Y-115000D02*
D03*
X35000D02*
D03*
X90000Y-60000D02*
D03*
X50000Y20000D02*
D03*
Y30000D02*
D03*
X70000Y-40000D02*
D03*
X50000Y0D02*
D03*
Y-18000D02*
D03*
Y-10000D02*
D03*
X-17854Y41201D02*
D03*
X-12146Y28878D02*
D03*
X3937Y3937D02*
D03*
Y0D02*
D03*
Y-3937D02*
D03*
X0D02*
D03*
X-3937D02*
D03*
Y0D02*
D03*
Y3937D02*
D03*
X0D02*
D03*
X0Y-0D02*
D03*
X15000Y-70000D02*
D03*
D27*
X-25000Y0D02*
Y10000D01*
M02*
