%FSLAX25Y25*%
%MOIN*%
G70*
G01*
G75*
G04 Layer_Color=8388736*
%ADD10R,0.05906X0.04921*%
%ADD11R,0.04921X0.05906*%
%ADD12R,0.03740X0.03347*%
%ADD13O,0.01102X0.05906*%
%ADD14O,0.05906X0.01102*%
%ADD15R,0.13583X0.13583*%
%ADD16R,0.02362X0.04134*%
%ADD17C,0.00787*%
%ADD18C,0.01575*%
%ADD19C,0.00394*%
%ADD20C,0.08661*%
%ADD21C,0.05906*%
%ADD22R,0.05906X0.05906*%
%ADD23C,0.19685*%
%ADD24C,0.09843*%
%ADD25R,0.09843X0.09843*%
%ADD26C,0.02756*%
%ADD27C,0.03937*%
%ADD28C,0.00984*%
%ADD29C,0.00488*%
%ADD30C,0.00325*%
%ADD31C,0.01000*%
%ADD32C,0.00650*%
%ADD33C,0.00591*%
%ADD34R,0.06299X0.05315*%
%ADD35R,0.05315X0.06299*%
%ADD36R,0.04291X0.03898*%
%ADD37O,0.01654X0.06457*%
%ADD38O,0.06457X0.01654*%
%ADD39R,0.13976X0.13976*%
%ADD40R,0.02756X0.04528*%
%ADD41C,0.09055*%
%ADD42C,0.06299*%
%ADD43R,0.06299X0.06299*%
%ADD44C,0.20236*%
%ADD45C,0.10236*%
%ADD46R,0.10236X0.10236*%
%ADD47C,0.03150*%
D19*
X-147638Y-127953D02*
Y98425D01*
X147638D01*
Y-127953D02*
Y98425D01*
X-147638Y-127953D02*
X147638D01*
D34*
X-90079Y10000D02*
D03*
X-99921D02*
D03*
X-90079Y0D02*
D03*
X-99921D02*
D03*
X-90079Y-10000D02*
D03*
X-99921D02*
D03*
X104921Y-60000D02*
D03*
X95079D02*
D03*
X104921Y-70000D02*
D03*
X95079D02*
D03*
X64921Y-20000D02*
D03*
X55079D02*
D03*
Y-30000D02*
D03*
X64921D02*
D03*
Y-40000D02*
D03*
X55079D02*
D03*
X124921Y-60000D02*
D03*
X115079D02*
D03*
Y-70000D02*
D03*
X124921D02*
D03*
X35079Y-20000D02*
D03*
X44921D02*
D03*
X65079Y-70000D02*
D03*
X74921D02*
D03*
X54921Y-60000D02*
D03*
X45079D02*
D03*
X74921D02*
D03*
X65079D02*
D03*
X-90079Y-50000D02*
D03*
X-99921D02*
D03*
X35079Y30000D02*
D03*
X44921D02*
D03*
X35079Y-10000D02*
D03*
X44921D02*
D03*
X35079Y10000D02*
D03*
X44921D02*
D03*
X35079Y0D02*
D03*
X44921D02*
D03*
X-39921Y10000D02*
D03*
X-30079D02*
D03*
X-39921Y0D02*
D03*
X-30079D02*
D03*
X-39921Y-10000D02*
D03*
X-30079D02*
D03*
X35079Y20000D02*
D03*
X44921D02*
D03*
D35*
X85000Y-39921D02*
D03*
Y-30079D02*
D03*
Y-69921D02*
D03*
Y-60079D02*
D03*
X45000Y-109921D02*
D03*
Y-100079D02*
D03*
X35000Y-109921D02*
D03*
Y-100079D02*
D03*
Y-80079D02*
D03*
Y-89921D02*
D03*
X45000D02*
D03*
Y-80079D02*
D03*
X35000Y-60079D02*
D03*
Y-69921D02*
D03*
X-110000Y-25079D02*
D03*
Y-34921D02*
D03*
X20000Y30079D02*
D03*
Y39921D02*
D03*
X10000Y30079D02*
D03*
Y39921D02*
D03*
X0Y30079D02*
D03*
Y39921D02*
D03*
X-15000Y-30079D02*
D03*
Y-39921D02*
D03*
X15000Y-30079D02*
D03*
Y-39921D02*
D03*
X5000D02*
D03*
Y-30079D02*
D03*
X-5000D02*
D03*
Y-39921D02*
D03*
X35000D02*
D03*
Y-30079D02*
D03*
X-30000Y30079D02*
D03*
Y39921D02*
D03*
X-20000Y60079D02*
D03*
Y69921D02*
D03*
X-10000Y60079D02*
D03*
Y69921D02*
D03*
X-70000Y-59921D02*
D03*
Y-50079D02*
D03*
X15000Y-84921D02*
D03*
Y-75079D02*
D03*
D36*
X-17854Y37264D02*
D03*
X-12146D02*
D03*
Y32736D02*
D03*
X-17854D02*
D03*
D37*
X-6890Y11024D02*
D03*
X-4921D02*
D03*
X-2953D02*
D03*
X-984D02*
D03*
X984D02*
D03*
X2953D02*
D03*
X4921D02*
D03*
X6890D02*
D03*
Y-11024D02*
D03*
X4921D02*
D03*
X2953D02*
D03*
X984D02*
D03*
X-984D02*
D03*
X-2953D02*
D03*
X-4921D02*
D03*
X-6890D02*
D03*
D38*
X11024Y6890D02*
D03*
Y4921D02*
D03*
Y2953D02*
D03*
Y984D02*
D03*
Y-984D02*
D03*
Y-2953D02*
D03*
Y-4921D02*
D03*
Y-6890D02*
D03*
X-11024D02*
D03*
Y-4921D02*
D03*
Y-2953D02*
D03*
Y-984D02*
D03*
Y984D02*
D03*
Y2953D02*
D03*
Y4921D02*
D03*
Y6890D02*
D03*
D39*
X0Y0D02*
D03*
D40*
X-98740Y-25276D02*
D03*
X-91260D02*
D03*
Y-34724D02*
D03*
X-95000D02*
D03*
X-98740D02*
D03*
D41*
X115000Y-30000D02*
D03*
X105000Y-40000D02*
D03*
X125000D02*
D03*
Y-20000D02*
D03*
X105000D02*
D03*
D42*
X10000Y-100000D02*
D03*
X0D02*
D03*
X-10000D02*
D03*
X-20000D02*
D03*
X-30000D02*
D03*
X-40000D02*
D03*
X-50000D02*
D03*
X-60000D02*
D03*
X10000Y-110000D02*
D03*
X0D02*
D03*
X-10000D02*
D03*
X-20000D02*
D03*
X-30000D02*
D03*
X-40000D02*
D03*
X-50000D02*
D03*
D43*
X-60000D02*
D03*
D44*
X127953Y78740D02*
D03*
Y-108268D02*
D03*
X-127953D02*
D03*
Y78740D02*
D03*
D45*
X-86457Y-98425D02*
D03*
D46*
X-106457D02*
D03*
D47*
X-85000Y-50000D02*
D03*
X-95000Y-30000D02*
D03*
X-85000Y-10000D02*
D03*
Y0D02*
D03*
Y10000D02*
D03*
X-25000D02*
D03*
Y0D02*
D03*
X70000Y-40000D02*
D03*
X3937Y3937D02*
D03*
Y0D02*
D03*
Y-3937D02*
D03*
X0D02*
D03*
X-3937D02*
D03*
Y0D02*
D03*
Y3937D02*
D03*
X0D02*
D03*
X0Y-0D02*
D03*
X15000Y-70000D02*
D03*
M02*
