M48
;Layer_Color=9474304
;FILE_FORMAT=2:5
INCH,LZ
;TYPE=PLATED
T1F00S00C0.01181
T2F00S00C0.01968
T3F00S00C0.03000
T4F00S00C0.03543
T5F00S00C0.03937
T6F00S00C0.04331
T7F00S00C0.04685
T8F00S00C0.12205
T9F00S00C0.12520
T10F00S00C0.12598
T11F00S00C0.13780
;TYPE=NON_PLATED
T12F00S00C0.11811
%
T01
X0545409Y0034799
Y0054554
X0603479Y003972
X0607416
X0603479Y0032634
X0637928Y0045001
X0653204Y0040035
X0653301Y0050035
Y0060035
X0653204Y0070035
Y0080035
X0653301Y0090035
Y0100035
X0653204Y0110035
Y0120035
X0641865Y012535
X0637732Y0096182
Y0084371
Y0065936
X0614306Y0107634
X0611353Y0110587
X0533598Y0054554
Y0034799
X0523381Y0037142
X0515881Y0028732
X051375Y006039
X0499936Y0056453
X0488696Y0042142
Y0037142
X0480074Y0047142
X0445389Y0052142
X0334646Y0084646
X0329865Y0094213
X0310271Y0080764
X031283Y0075153
X0303184Y0071216
X0297869Y0121953
X0278184Y0125496
X0266578Y0122169
X0259578
X027559Y0028543
X028937Y0019685
X0218637Y0093657
X0211157Y0092279
X0208465Y0104724
X0215291Y0113146
X0215881Y0120823
X0221393Y0107831
X0193869Y0106917
Y0110461
X0196196Y011728
Y0124366
X0164861Y0120752
X0164271Y0113075
X0170373Y010776
X0157677Y0104724
X0153435Y0110909
X0144228Y0111858
X0146688Y0117209
X0145176Y0124295
X0114074Y0120358
X0113484Y0112681
X0119586Y0107366
X0106496Y0104331
X0102647Y0110516
X009344Y0111464
X0095507Y0116815
X0094389Y0123902
X007918Y0124067
X007518
X0069424Y0107634
X0093898Y0087402
X010935Y0091815
X011683Y0093193
X0144685Y0087795
X0160137Y0092209
X0167617Y0093587
X0195866Y0087795
X0066668Y0093461
X0059188Y0092083
X0056496Y0104331
X0063322Y0112949
X0063913Y0120626
X0044228Y0117083
Y0124169
X0040291Y011039
Y0106846
X0019192Y0107701
X001309Y0113016
X001368Y0120693
X0006496Y0104724
X0008956Y009215
X0016436Y0093528
X-0006496Y0087795
X-0009942Y0106913
Y0110457
X-0006005Y011715
Y0124236
X0043898Y0087795
X006068Y0052736
X005935Y0136697
X006683Y0138075
X0063484Y0157563
X0064074Y016524
X0066668Y0182831
X0059188Y0181453
X0056102Y0193701
X0052486Y0200153
X0043279Y0201102
X0045605Y0206453
X0044228Y0213539
X0063913Y0209996
X0063322Y0202319
X0068637Y0230262
Y0233224
X0055448Y0246807
X0052486
X0013519Y0209996
X0012928Y0202319
X0019031Y0197004
X0006102Y0194095
X0008794Y0181453
X0016275Y0182831
X001368Y0165693
X001309Y0158016
X0019192Y0152701
X0006102Y0149606
X0008956Y013715
X0016436Y0138528
X-0006496Y0132677
X-0009942Y0151913
Y0155457
X-0006005Y016215
Y0169236
X-0006496Y0177165
X-0010103Y0196216
Y019976
X-0006166Y0206453
Y0213539
X0043504Y0177165
X0044389Y0168783
Y0161697
X0041668Y0154878
Y0151335
X0043504Y0132283
X007518Y0131905
X007918
X0093898Y0132283
X010935Y0136697
X011683Y0138075
X0119586Y0152248
X0113484Y0157563
X0114074Y016524
X0109743Y0181579
X0117224Y0182957
X011998Y019713
X0113877Y0202445
X0114468Y0210122
X0115291Y0228106
X012405Y0236669
X0140684Y0238736
X0143834
Y0252516
X0129704Y025652
X0130015Y0267476
X0139503
X0148755Y0268461
X0158168Y0268331
X0167657
X0177298Y0267476
X0186747Y0267475
X0196196Y026787
X0206006Y0267739
X0215494
X0205609Y025652
X0198375Y0255088
X0186747Y0255665
X0177145Y025652
X0172574Y0252122
X0165487Y0259208
X0155743Y0243067
X0145176Y0213665
X0146393Y0206579
X0144228Y0201228
X0153435Y0200279
X0158071Y0194095
X0164271Y0202445
X0164861Y0210122
X0170373Y019713
X0167617Y0182957
X0160137Y0181579
X0144685Y0177165
X0145015Y0169051
X0146196Y0161965
X0144066Y0156614
X0153273Y0155665
X0158071Y0149606
X016411Y0157831
X01647Y0165508
X0170212Y0152516
X0167456Y0138342
X0159976Y0136965
X0144291Y0132677
X0195472
X0210924Y0137091
X0218405Y0138469
X0221161Y0152642
X0215058Y0157957
X0215649Y0165634
X0218405Y0182957
X0210924Y0181579
X0208071Y0194095
X0204222Y0200279
X0195015Y0201228
X019718Y0206579
X019618Y0213736
X0215649Y0210122
X0221693Y021041
X0221004Y0207359
X0221161Y019713
X0215058Y0202445
X0208991Y0225547
X021155Y02285
X0209287Y0240114
X021844Y0240114
X0195472Y0177165
X0195964Y0169177
X0197279Y0162091
X0195015Y0156739
X0204222Y0155791
X0208071Y0149606
X0106496Y0149213
X0092062Y0151335
Y0154878
X0094389Y0161697
Y0168783
X0093898Y0179134
X0090846Y0196343
Y0199886
X0094783Y0206579
Y0213665
X0083598Y0218657
X0069424Y0197004
X007568Y0168567
X008268
X0069586Y0152248
X010689Y0194095
X0091751Y025652
Y0268331
X0101239
X0120216
X0233991Y0268559
X0234074Y025652
X0237732Y0255173
X025305Y025652
X0262539
X0253283Y0241886
X0250527Y0224169
X0268243Y0224562
X0268243Y0219445
X0268393Y0212555
Y0205999
Y0202555
X0250704Y0202535
X0244228Y0202122
X025407Y020724
X030211Y0207555
Y0202555
X0302101Y0214326
X0302102Y0219445
Y0224563
X0316235Y0222555
X0316196Y0217555
X0316078Y0212555
X0316196Y0207555
X0316235Y0202555
X0298622Y0158268
X0282909Y0154039
X0275428Y0152661
X0272672Y0138488
X0278775Y0133173
X0284449Y0140551
X0301708Y0133815
X0297869Y0129039
X0309976Y0130468
X04736Y0229736
X047818Y0235236
X0504751Y0277079
X05147Y0276925
X0519818
X0524751Y0277079
X0529751
X0534751
X0539751
X0607318Y0225252
X0613818Y0228402
X062734Y0227262
X0629434Y0229356
X063168Y0237736
X064018Y0229736
X0648117Y0230035
Y0220035
Y0210035
Y0200035
X0648078Y0194642
X0648117Y0190035
X0644031Y018913
X0648117Y0180035
Y0170035
Y0160035
X0648755Y014602
X0653873Y0150705
X0666039
X0648755Y0134209
X0636747Y0128662
X0631039Y0140114
X0626476Y014602
X0607204Y0187196
X0595704Y0187535
T02
X0236255Y0006059
X0248066
X0256039Y0009799
X0236157Y0053402
X0251708Y011472
X0220507Y0049465
X0179168Y0053402
X0173361Y0053303
X0167358Y0006059
X0155546
X0144523Y-0002209
X0084483Y0006059
X0072672
Y00535
X0096393
X0090783Y0062752
X0086942Y0072904
X0081531Y0078992
X0224444Y0006059
X0060861
X0030054Y0066
X-000154Y0065902
X0064995Y0254583
X0067665Y0263571
X0077153
X0073556Y0267894
X0083104
X0086641Y0263571
X0096129
X0105617
X0115105
X0124594
X0134082
X014357
X0153058
X0162547
X0172035
X0181523
X0191011
X0200499
X0209987
X0219476
X0215054Y0243854
X0205566
X0196078
X018659
X0177102
X0224542
X0083173Y0256013
X0073556Y0256082
X0079365Y0230173
X009157Y0171807
X0231432Y0175842
X0234031Y0243854
X0238452Y0263571
X0228964
X0225428Y026787
X0244405
X024794Y0263571
X025768Y0263244
X026768Y0264236
T03
X0353558Y0084051
T04
X0547377Y-001835
X0557377
X0657613
X0667613
X0683204Y0035035
X0693204
Y0045035
Y0055035
Y0065035
Y0075035
Y0085035
Y0095035
Y0105035
Y0115035
Y0125035
X0683204
Y0115035
Y0105035
Y0095035
Y0085035
Y0075035
Y0065035
Y0055035
Y0045035
X0447141Y-001835
X0437141
X0336905Y-001835
X0326905
X0298125Y0090508
X0288125
X0288224Y0102417
X0298224
X0353558Y0104051
Y0094051
Y0114051
Y0124051
Y0134051
Y0144051
X0683204Y0145035
X0693204
Y0135035
X0683204
Y0160035
X0693204
Y0170035
X0683204
Y0180035
X0693204
Y0190035
X0683204
Y0200035
X0693204
Y0210035
X0683204
Y0220035
X0693204
Y0230035
X0683204
T05
X0236221Y0023854
Y0035654
X0248031
Y0023854
X0259842
Y0035654
X022441
Y0023854
X0179134
Y0035654
X0167323
Y0023854
X0155512
Y0035654
X0143701
Y0023854
X009626
Y0035654
X0084449
Y0023854
X0072638
Y0035654
X0060827
Y0023854
T06
X028844Y0055075
X029844
X0262318Y0169953
Y0179953
T07
X0541258Y0301463
X0530458
X0519658
X0508858
X0498058
X0503458Y0312663
X0514258
X0525058
X0535858
X0252897Y030963
X0243409
X0233802
X0238527Y029963
X0229039
X0233802Y028963
X0243409
X0252897
X0262385
X0257621Y029963
X0248133
X021955
X0210062
X0200574
X0191086
X0181598
X0172109
X0162621
X0153133
X0143645
X0134157
X0124669
X011518
X0105692
X0096204
X0086716
X0077228
X0072503Y030963
X0081991
X0091479
X0100968
X0110456
X0119944
X0129432
X013892
X0148409
X0157897
X0167385
X0176873
X0186361
X019585
X0205338
X0214826
X0224314
Y028963
X0214826
X0205338
X019585
X0186361
X0176873
X0167385
X0157897
X0148409
X013892
X0129432
X0119944
X0110456
X0100968
X0091479
X0081991
X0072503
X0067739Y029963
T08
X0Y0
X0669291Y0311024
X0015748Y0311024
T09
X0568858Y0307063
X0470458
X029022Y029963
X004022
T10
X068722Y001472
X0332889
Y0250941
X068722
T11
X034252Y0311024
T12
X0232913Y-0009646
X0251339
X017063
X0152205
X0087756
X0069331
M30
