%FSLAX25Y25*%
%MOIN*%
G70*
G01*
G75*
G04 Layer_Physical_Order=3*
G04 Layer_Color=16440176*
%ADD10R,0.04134X0.05118*%
%ADD11R,0.05118X0.04134*%
%ADD12R,0.10000X0.10000*%
%ADD13R,0.09055X0.01969*%
%ADD14R,0.09843X0.07874*%
%ADD15O,0.02362X0.07677*%
%ADD16O,0.07677X0.02362*%
%ADD17R,0.01400X0.06000*%
%ADD18C,0.03937*%
%ADD19C,0.01500*%
%ADD20C,0.03000*%
%ADD21C,0.01000*%
%ADD22R,0.05906X0.05906*%
%ADD23C,0.05906*%
%ADD24R,0.05906X0.05906*%
%ADD25C,0.05906*%
%ADD26C,0.04331*%
%ADD27R,0.05906X0.05906*%
%ADD28C,0.04500*%
%ADD29C,0.15000*%
%ADD30C,0.02400*%
G36*
X189340Y109921D02*
X188840Y109752D01*
X188681Y109960D01*
X187918Y110546D01*
X187029Y110914D01*
X186075Y111039D01*
X185122Y110914D01*
X184233Y110546D01*
X183470Y109960D01*
X182885Y109197D01*
X182517Y108308D01*
X182391Y107355D01*
X182517Y106401D01*
X182885Y105513D01*
X183442Y104787D01*
X183392Y104518D01*
X183313Y104287D01*
X178838D01*
X178759Y104518D01*
X178709Y104787D01*
X179266Y105513D01*
X179634Y106401D01*
X179760Y107355D01*
X179634Y108308D01*
X179266Y109197D01*
X178681Y109960D01*
X177918Y110546D01*
X177029Y110914D01*
X176075Y111039D01*
X175122Y110914D01*
X174233Y110546D01*
X173470Y109960D01*
X172885Y109197D01*
X172517Y108308D01*
X172391Y107355D01*
X172517Y106401D01*
X172885Y105513D01*
X173442Y104787D01*
X173392Y104518D01*
X173313Y104287D01*
X168838D01*
X168759Y104518D01*
X168709Y104787D01*
X169266Y105513D01*
X169634Y106401D01*
X169760Y107355D01*
X169634Y108308D01*
X169266Y109197D01*
X168681Y109960D01*
X167918Y110546D01*
X167029Y110914D01*
X166075Y111039D01*
X165122Y110914D01*
X164233Y110546D01*
X163470Y109960D01*
X162885Y109197D01*
X162517Y108308D01*
X162391Y107355D01*
X162517Y106401D01*
X162885Y105513D01*
X163442Y104787D01*
X163392Y104518D01*
X163313Y104287D01*
X158838D01*
X158759Y104518D01*
X158709Y104787D01*
X159266Y105513D01*
X159634Y106401D01*
X159760Y107355D01*
X159634Y108308D01*
X159266Y109197D01*
X158681Y109960D01*
X157918Y110546D01*
X157029Y110914D01*
X156075Y111039D01*
X155122Y110914D01*
X154233Y110546D01*
X153470Y109960D01*
X152885Y109197D01*
X152517Y108308D01*
X152391Y107355D01*
X152517Y106401D01*
X152885Y105513D01*
X153442Y104787D01*
X153392Y104518D01*
X153313Y104287D01*
X149334D01*
X149087Y104787D01*
X149528Y105361D01*
X149926Y106323D01*
X149996Y106855D01*
X142154D01*
X142224Y106323D01*
X142623Y105361D01*
X143064Y104787D01*
X142817Y104287D01*
X140028D01*
Y106855D01*
X132123D01*
Y104287D01*
X104287D01*
Y436707D01*
X189340D01*
Y109921D01*
D02*
G37*
G36*
X395713Y104287D02*
X328838D01*
X328759Y104518D01*
X328709Y104787D01*
X329266Y105513D01*
X329634Y106401D01*
X329760Y107355D01*
X329634Y108308D01*
X329266Y109197D01*
X328681Y109960D01*
X327918Y110546D01*
X327029Y110914D01*
X326075Y111039D01*
X325122Y110914D01*
X324233Y110546D01*
X323470Y109960D01*
X322885Y109197D01*
X322517Y108308D01*
X322391Y107355D01*
X322517Y106401D01*
X322885Y105513D01*
X323442Y104787D01*
X323392Y104518D01*
X323313Y104287D01*
X318838D01*
X318759Y104518D01*
X318709Y104787D01*
X319266Y105513D01*
X319634Y106401D01*
X319760Y107355D01*
X319634Y108308D01*
X319266Y109197D01*
X318681Y109960D01*
X317918Y110546D01*
X317029Y110914D01*
X316075Y111039D01*
X315122Y110914D01*
X314233Y110546D01*
X313470Y109960D01*
X312885Y109197D01*
X312517Y108308D01*
X312391Y107355D01*
X312517Y106401D01*
X312885Y105513D01*
X313442Y104787D01*
X313392Y104518D01*
X313313Y104287D01*
X308838D01*
X308759Y104518D01*
X308709Y104787D01*
X309266Y105513D01*
X309634Y106401D01*
X309760Y107355D01*
X309634Y108308D01*
X309266Y109197D01*
X308681Y109960D01*
X307918Y110546D01*
X307029Y110914D01*
X306075Y111039D01*
X305122Y110914D01*
X304233Y110546D01*
X303470Y109960D01*
X302885Y109197D01*
X302517Y108308D01*
X302391Y107355D01*
X302517Y106401D01*
X302885Y105513D01*
X303442Y104787D01*
X303392Y104518D01*
X303313Y104287D01*
X298838D01*
X298759Y104518D01*
X298709Y104787D01*
X299266Y105513D01*
X299634Y106401D01*
X299760Y107355D01*
X299634Y108308D01*
X299266Y109197D01*
X298681Y109960D01*
X297918Y110546D01*
X297029Y110914D01*
X296075Y111039D01*
X295122Y110914D01*
X294233Y110546D01*
X293470Y109960D01*
X292885Y109197D01*
X292517Y108308D01*
X292391Y107355D01*
X292517Y106401D01*
X292885Y105513D01*
X293442Y104787D01*
X293392Y104518D01*
X293313Y104287D01*
X288838D01*
X288759Y104518D01*
X288709Y104787D01*
X289266Y105513D01*
X289634Y106401D01*
X289760Y107355D01*
X289634Y108308D01*
X289266Y109197D01*
X288681Y109960D01*
X287918Y110546D01*
X287029Y110914D01*
X286075Y111039D01*
X285122Y110914D01*
X284233Y110546D01*
X283470Y109960D01*
X282885Y109197D01*
X282517Y108308D01*
X282391Y107355D01*
X282517Y106401D01*
X282885Y105513D01*
X283442Y104787D01*
X283392Y104518D01*
X283313Y104287D01*
X278838D01*
X278759Y104518D01*
X278709Y104787D01*
X279266Y105513D01*
X279634Y106401D01*
X279760Y107355D01*
X279634Y108308D01*
X279266Y109197D01*
X278681Y109960D01*
X277918Y110546D01*
X277029Y110914D01*
X276075Y111039D01*
X275122Y110914D01*
X274233Y110546D01*
X273470Y109960D01*
X272885Y109197D01*
X272517Y108308D01*
X272391Y107355D01*
X272517Y106401D01*
X272885Y105513D01*
X273442Y104787D01*
X273392Y104518D01*
X273313Y104287D01*
X268838D01*
X268759Y104518D01*
X268709Y104787D01*
X269266Y105513D01*
X269634Y106401D01*
X269760Y107355D01*
X269634Y108308D01*
X269266Y109197D01*
X268681Y109960D01*
X267918Y110546D01*
X267029Y110914D01*
X266075Y111039D01*
X265122Y110914D01*
X264233Y110546D01*
X263470Y109960D01*
X262885Y109197D01*
X262517Y108308D01*
X262391Y107355D01*
X262517Y106401D01*
X262885Y105513D01*
X263442Y104787D01*
X263392Y104518D01*
X263313Y104287D01*
X258838D01*
X258759Y104518D01*
X258709Y104787D01*
X259266Y105513D01*
X259634Y106401D01*
X259760Y107355D01*
X259634Y108308D01*
X259266Y109197D01*
X258681Y109960D01*
X257918Y110546D01*
X257029Y110914D01*
X256075Y111039D01*
X255122Y110914D01*
X254233Y110546D01*
X253470Y109960D01*
X252885Y109197D01*
X252517Y108308D01*
X252391Y107355D01*
X252517Y106401D01*
X252885Y105513D01*
X253442Y104787D01*
X253392Y104518D01*
X253313Y104287D01*
X248838D01*
X248759Y104518D01*
X248709Y104787D01*
X249266Y105513D01*
X249634Y106401D01*
X249760Y107355D01*
X249634Y108308D01*
X249266Y109197D01*
X248681Y109960D01*
X247918Y110546D01*
X247029Y110914D01*
X246075Y111039D01*
X245122Y110914D01*
X244233Y110546D01*
X243470Y109960D01*
X242885Y109197D01*
X242517Y108308D01*
X242391Y107355D01*
X242517Y106401D01*
X242885Y105513D01*
X243442Y104787D01*
X243392Y104518D01*
X243313Y104287D01*
X239334D01*
X239087Y104787D01*
X239528Y105361D01*
X239926Y106323D01*
X239997Y106855D01*
X236075D01*
Y107355D01*
X235575D01*
Y111276D01*
X235044Y111206D01*
X234082Y110808D01*
X233256Y110174D01*
X233075Y109938D01*
X232575Y110108D01*
X232828Y436707D01*
X395713D01*
Y104287D01*
D02*
G37*
G36*
X231070D02*
X228838D01*
X228759Y104518D01*
X228709Y104787D01*
X229266Y105513D01*
X229634Y106401D01*
X229760Y107355D01*
X229634Y108308D01*
X229266Y109197D01*
X228681Y109960D01*
X227918Y110546D01*
X227029Y110914D01*
X226075Y111039D01*
X225122Y110914D01*
X224233Y110546D01*
X223470Y109960D01*
X222885Y109197D01*
X222517Y108308D01*
X222391Y107355D01*
X222517Y106401D01*
X222885Y105513D01*
X223442Y104787D01*
X223392Y104518D01*
X223313Y104287D01*
X218838D01*
X218759Y104518D01*
X218709Y104787D01*
X219266Y105513D01*
X219634Y106401D01*
X219760Y107355D01*
X219634Y108308D01*
X219266Y109197D01*
X218681Y109960D01*
X217918Y110546D01*
X217029Y110914D01*
X216075Y111039D01*
X215122Y110914D01*
X214233Y110546D01*
X213470Y109960D01*
X212885Y109197D01*
X212517Y108308D01*
X212391Y107355D01*
X212517Y106401D01*
X212885Y105513D01*
X213442Y104787D01*
X213392Y104518D01*
X213313Y104287D01*
X208838D01*
X208759Y104518D01*
X208709Y104787D01*
X209266Y105513D01*
X209634Y106401D01*
X209760Y107355D01*
X209634Y108308D01*
X209266Y109197D01*
X208681Y109960D01*
X207918Y110546D01*
X207029Y110914D01*
X206075Y111039D01*
X205122Y110914D01*
X204233Y110546D01*
X203470Y109960D01*
X202885Y109197D01*
X202517Y108308D01*
X202391Y107355D01*
X202517Y106401D01*
X202885Y105513D01*
X203442Y104787D01*
X203392Y104518D01*
X203313Y104287D01*
X199334D01*
X199087Y104787D01*
X199528Y105361D01*
X199926Y106323D01*
X199996Y106855D01*
X192154D01*
X192224Y106323D01*
X192623Y105361D01*
X193064Y104787D01*
X192817Y104287D01*
X191275D01*
X190922Y104640D01*
X191178Y436707D01*
X231070D01*
Y104287D01*
D02*
G37*
%LPC*%
G36*
X337201Y149339D02*
Y147695D01*
X338844D01*
X338773Y148054D01*
X338287Y148782D01*
X337559Y149268D01*
X337201Y149339D01*
D02*
G37*
G36*
X153720Y153430D02*
X150299D01*
X150369Y152899D01*
X150768Y151937D01*
X151401Y151111D01*
X152227Y150478D01*
X153188Y150079D01*
X153720Y150009D01*
Y153430D01*
D02*
G37*
G36*
X306134Y150806D02*
X305393Y150659D01*
X304764Y150239D01*
X304344Y149611D01*
X304197Y148869D01*
X304344Y148128D01*
X304764Y147499D01*
X305393Y147080D01*
X306134Y146932D01*
X306875Y147080D01*
X307504Y147499D01*
X307924Y148128D01*
X308071Y148869D01*
X307924Y149611D01*
X307504Y150239D01*
X306875Y150659D01*
X306134Y150806D01*
D02*
G37*
G36*
X336201Y149339D02*
X335842Y149268D01*
X335115Y148782D01*
X334628Y148054D01*
X334557Y147695D01*
X336201D01*
Y149339D01*
D02*
G37*
G36*
X153720Y157851D02*
X153188Y157781D01*
X152227Y157383D01*
X151401Y156749D01*
X150768Y155924D01*
X150369Y154962D01*
X150299Y154430D01*
X153720D01*
Y157851D01*
D02*
G37*
G36*
X154720D02*
Y154430D01*
X158141D01*
X158071Y154962D01*
X157673Y155924D01*
X157039Y156749D01*
X156214Y157383D01*
X155252Y157781D01*
X154720Y157851D01*
D02*
G37*
G36*
X378382Y159403D02*
X377403Y159274D01*
X376491Y158897D01*
X375708Y158296D01*
X375107Y157512D01*
X374729Y156600D01*
X374600Y155621D01*
X374729Y154642D01*
X375107Y153730D01*
X375708Y152946D01*
X376491Y152345D01*
X377403Y151968D01*
X378382Y151839D01*
X379361Y151968D01*
X380273Y152345D01*
X381057Y152946D01*
X381658Y153730D01*
X382036Y154642D01*
X382165Y155621D01*
X382036Y156600D01*
X381658Y157512D01*
X381057Y158296D01*
X380273Y158897D01*
X379361Y159274D01*
X378382Y159403D01*
D02*
G37*
G36*
X158141Y153430D02*
X154720D01*
Y150009D01*
X155252Y150079D01*
X156214Y150478D01*
X157039Y151111D01*
X157673Y151937D01*
X158071Y152899D01*
X158141Y153430D01*
D02*
G37*
G36*
X127873Y157583D02*
X120568D01*
Y150278D01*
X127873D01*
Y157583D01*
D02*
G37*
G36*
X207185Y144254D02*
Y142610D01*
X208829D01*
X208758Y142969D01*
X208272Y143696D01*
X207544Y144183D01*
X207185Y144254D01*
D02*
G37*
G36*
X243692Y145174D02*
X243334Y145103D01*
X242606Y144616D01*
X242120Y143889D01*
X242048Y143530D01*
X243692D01*
Y145174D01*
D02*
G37*
G36*
X296363Y145842D02*
X295621Y145695D01*
X294993Y145275D01*
X294573Y144646D01*
X294425Y143905D01*
X294573Y143164D01*
X294993Y142535D01*
X295621Y142115D01*
X296363Y141968D01*
X297104Y142115D01*
X297732Y142535D01*
X298152Y143164D01*
X298300Y143905D01*
X298152Y144646D01*
X297732Y145275D01*
X297104Y145695D01*
X296363Y145842D01*
D02*
G37*
G36*
X206185Y144254D02*
X205827Y144183D01*
X205099Y143696D01*
X204613Y142969D01*
X204542Y142610D01*
X206185D01*
Y144254D01*
D02*
G37*
G36*
X244692Y145174D02*
Y143530D01*
X246336D01*
X246264Y143889D01*
X245778Y144616D01*
X245050Y145103D01*
X244692Y145174D01*
D02*
G37*
G36*
X336201Y146695D02*
X334557D01*
X334628Y146337D01*
X335115Y145609D01*
X335842Y145123D01*
X336201Y145052D01*
Y146695D01*
D02*
G37*
G36*
X338844D02*
X337201D01*
Y145052D01*
X337559Y145123D01*
X338287Y145609D01*
X338773Y146337D01*
X338844Y146695D01*
D02*
G37*
G36*
X314880Y146049D02*
X314522Y145977D01*
X313794Y145491D01*
X313308Y144763D01*
X313237Y144405D01*
X314880D01*
Y146049D01*
D02*
G37*
G36*
X315880D02*
Y144405D01*
X317524D01*
X317453Y144763D01*
X316966Y145491D01*
X316239Y145977D01*
X315880Y146049D01*
D02*
G37*
G36*
X200609Y158947D02*
X198966D01*
X199037Y158588D01*
X199523Y157861D01*
X200251Y157375D01*
X200609Y157303D01*
Y158947D01*
D02*
G37*
G36*
X315057Y170519D02*
Y168876D01*
X316700D01*
X316629Y169234D01*
X316143Y169962D01*
X315415Y170448D01*
X315057Y170519D01*
D02*
G37*
G36*
X378382Y176726D02*
X377403Y176597D01*
X376491Y176219D01*
X375708Y175618D01*
X375107Y174835D01*
X374729Y173923D01*
X374600Y172944D01*
X374729Y171965D01*
X375107Y171053D01*
X375708Y170269D01*
X376491Y169668D01*
X377403Y169290D01*
X378382Y169161D01*
X379361Y169290D01*
X380273Y169668D01*
X381057Y170269D01*
X381658Y171053D01*
X382036Y171965D01*
X382165Y172944D01*
X382036Y173923D01*
X381658Y174835D01*
X381057Y175618D01*
X380273Y176219D01*
X379361Y176597D01*
X378382Y176726D01*
D02*
G37*
G36*
X307557Y170411D02*
Y168767D01*
X309200D01*
X309129Y169126D01*
X308643Y169853D01*
X307915Y170340D01*
X307557Y170411D01*
D02*
G37*
G36*
X314057Y170519D02*
X313698Y170448D01*
X312971Y169962D01*
X312484Y169234D01*
X312413Y168876D01*
X314057D01*
Y170519D01*
D02*
G37*
G36*
X259116Y171311D02*
X257472D01*
X257543Y170952D01*
X258030Y170224D01*
X258757Y169738D01*
X259116Y169667D01*
Y171311D01*
D02*
G37*
G36*
X260116Y173954D02*
Y172311D01*
X261759D01*
X261688Y172669D01*
X261202Y173397D01*
X260474Y173883D01*
X260116Y173954D01*
D02*
G37*
G36*
X367898Y174224D02*
X366255D01*
X366326Y173865D01*
X366812Y173137D01*
X367540Y172651D01*
X367898Y172580D01*
Y174224D01*
D02*
G37*
G36*
X261759Y171311D02*
X260116D01*
Y169667D01*
X260474Y169738D01*
X261202Y170224D01*
X261688Y170952D01*
X261759Y171311D01*
D02*
G37*
G36*
X259116Y173954D02*
X258757Y173883D01*
X258030Y173397D01*
X257543Y172669D01*
X257472Y172311D01*
X259116D01*
Y173954D01*
D02*
G37*
G36*
X201609Y161591D02*
Y159947D01*
X203253D01*
X203182Y160305D01*
X202695Y161033D01*
X201968Y161519D01*
X201609Y161591D01*
D02*
G37*
G36*
X180622Y164862D02*
X179880Y164715D01*
X179252Y164295D01*
X178832Y163666D01*
X178684Y162925D01*
X178832Y162183D01*
X179252Y161555D01*
X179880Y161135D01*
X180622Y160988D01*
X181363Y161135D01*
X181992Y161555D01*
X182412Y162183D01*
X182559Y162925D01*
X182412Y163666D01*
X181992Y164295D01*
X181363Y164715D01*
X180622Y164862D01*
D02*
G37*
G36*
X203253Y158947D02*
X201609D01*
Y157303D01*
X201968Y157375D01*
X202695Y157861D01*
X203182Y158588D01*
X203253Y158947D01*
D02*
G37*
G36*
X200609Y161591D02*
X200251Y161519D01*
X199523Y161033D01*
X199037Y160305D01*
X198966Y159947D01*
X200609D01*
Y161591D01*
D02*
G37*
G36*
X306557Y167767D02*
X304913D01*
X304984Y167409D01*
X305471Y166681D01*
X306198Y166195D01*
X306557Y166124D01*
Y167767D01*
D02*
G37*
G36*
X316700Y167876D02*
X315057D01*
Y166232D01*
X315415Y166303D01*
X316143Y166790D01*
X316629Y167517D01*
X316700Y167876D01*
D02*
G37*
G36*
X306557Y170411D02*
X306198Y170340D01*
X305471Y169853D01*
X304984Y169126D01*
X304913Y168767D01*
X306557D01*
Y170411D01*
D02*
G37*
G36*
X309200Y167767D02*
X307557D01*
Y166124D01*
X307915Y166195D01*
X308643Y166681D01*
X309129Y167409D01*
X309200Y167767D01*
D02*
G37*
G36*
X314057Y167876D02*
X312413D01*
X312484Y167517D01*
X312971Y166790D01*
X313698Y166303D01*
X314057Y166232D01*
Y167876D01*
D02*
G37*
G36*
X222367Y114365D02*
X220723D01*
Y112722D01*
X221081Y112793D01*
X221809Y113279D01*
X222295Y114007D01*
X222367Y114365D01*
D02*
G37*
G36*
X219723Y117009D02*
X219365Y116937D01*
X218637Y116451D01*
X218151Y115724D01*
X218079Y115365D01*
X219723D01*
Y117009D01*
D02*
G37*
G36*
X320431Y113819D02*
X319689Y113672D01*
X319061Y113252D01*
X318641Y112623D01*
X318493Y111882D01*
X318641Y111141D01*
X319061Y110512D01*
X319689Y110092D01*
X320431Y109945D01*
X321172Y110092D01*
X321800Y110512D01*
X322220Y111141D01*
X322368Y111882D01*
X322220Y112623D01*
X321800Y113252D01*
X321172Y113672D01*
X320431Y113819D01*
D02*
G37*
G36*
X219723Y114365D02*
X218079D01*
X218151Y114007D01*
X218637Y113279D01*
X219365Y112793D01*
X219723Y112722D01*
Y114365D01*
D02*
G37*
G36*
X220723Y117009D02*
Y115365D01*
X222367D01*
X222295Y115724D01*
X221809Y116451D01*
X221081Y116937D01*
X220723Y117009D01*
D02*
G37*
G36*
X346143Y130909D02*
X345402Y130761D01*
X344774Y130341D01*
X344354Y129713D01*
X344206Y128971D01*
X344354Y128230D01*
X344774Y127602D01*
X345402Y127181D01*
X346143Y127034D01*
X346885Y127181D01*
X347513Y127602D01*
X347933Y128230D01*
X348081Y128971D01*
X347933Y129713D01*
X347513Y130341D01*
X346885Y130761D01*
X346143Y130909D01*
D02*
G37*
G36*
X318993Y132399D02*
X317350D01*
X317421Y132040D01*
X317907Y131313D01*
X318635Y130826D01*
X318993Y130755D01*
Y132399D01*
D02*
G37*
G36*
X353023Y123717D02*
X352281Y123569D01*
X351653Y123149D01*
X351233Y122521D01*
X351086Y121780D01*
X351233Y121038D01*
X351653Y120410D01*
X352281Y119990D01*
X353023Y119842D01*
X353764Y119990D01*
X353977Y120132D01*
X354293Y119882D01*
X354364Y119789D01*
X354223Y119080D01*
X354370Y118338D01*
X354790Y117710D01*
X355419Y117290D01*
X356160Y117142D01*
X356902Y117290D01*
X357530Y117710D01*
X357950Y118338D01*
X358097Y119080D01*
X357950Y119821D01*
X357530Y120449D01*
X356902Y120869D01*
X356160Y121017D01*
X355419Y120869D01*
X355206Y120727D01*
X354889Y120977D01*
X354819Y121070D01*
X354960Y121780D01*
X354813Y122521D01*
X354393Y123149D01*
X353764Y123569D01*
X353023Y123717D01*
D02*
G37*
G36*
X349764Y127313D02*
X349023Y127165D01*
X348394Y126745D01*
X347974Y126117D01*
X347827Y125375D01*
X347974Y124634D01*
X348394Y124006D01*
X349023Y123586D01*
X349764Y123438D01*
X350505Y123586D01*
X351134Y124006D01*
X351554Y124634D01*
X351701Y125375D01*
X351554Y126117D01*
X351134Y126745D01*
X350505Y127165D01*
X349764Y127313D01*
D02*
G37*
G36*
X135575Y111308D02*
X132123D01*
Y107855D01*
X135575D01*
Y111308D01*
D02*
G37*
G36*
X140028D02*
X136575D01*
Y107855D01*
X140028D01*
Y111308D01*
D02*
G37*
G36*
X115000Y124044D02*
X113236Y123870D01*
X111539Y123355D01*
X109976Y122519D01*
X108605Y121395D01*
X107481Y120024D01*
X106645Y118461D01*
X106130Y116764D01*
X105956Y115000D01*
X106130Y113236D01*
X106645Y111539D01*
X107481Y109976D01*
X108605Y108605D01*
X109976Y107481D01*
X111539Y106645D01*
X113236Y106130D01*
X115000Y105956D01*
X116764Y106130D01*
X118461Y106645D01*
X120024Y107481D01*
X121395Y108605D01*
X122519Y109976D01*
X123355Y111539D01*
X123870Y113236D01*
X124044Y115000D01*
X123870Y116764D01*
X123355Y118461D01*
X122519Y120024D01*
X121395Y121395D01*
X120024Y122519D01*
X118461Y123355D01*
X116764Y123870D01*
X115000Y124044D01*
D02*
G37*
G36*
X385000D02*
X383236Y123870D01*
X381539Y123355D01*
X379976Y122519D01*
X378605Y121395D01*
X377481Y120024D01*
X376645Y118461D01*
X376130Y116764D01*
X375957Y115000D01*
X376130Y113236D01*
X376645Y111539D01*
X377481Y109976D01*
X378605Y108605D01*
X379976Y107481D01*
X381539Y106645D01*
X383236Y106130D01*
X385000Y105956D01*
X386764Y106130D01*
X388461Y106645D01*
X390024Y107481D01*
X391395Y108605D01*
X392519Y109976D01*
X393355Y111539D01*
X393870Y113236D01*
X394044Y115000D01*
X393870Y116764D01*
X393355Y118461D01*
X392519Y120024D01*
X391395Y121395D01*
X390024Y122519D01*
X388461Y123355D01*
X386764Y123870D01*
X385000Y124044D01*
D02*
G37*
G36*
X145575Y111276D02*
X145044Y111206D01*
X144082Y110808D01*
X143256Y110174D01*
X142623Y109348D01*
X142224Y108387D01*
X142154Y107855D01*
X145575D01*
Y111276D01*
D02*
G37*
G36*
X196575D02*
Y107855D01*
X199996D01*
X199926Y108387D01*
X199528Y109348D01*
X198895Y110174D01*
X198069Y110808D01*
X197107Y111206D01*
X196575Y111276D01*
D02*
G37*
G36*
X236575D02*
Y107855D01*
X239997D01*
X239926Y108387D01*
X239528Y109348D01*
X238895Y110174D01*
X238069Y110808D01*
X237107Y111206D01*
X236575Y111276D01*
D02*
G37*
G36*
X146575D02*
Y107855D01*
X149996D01*
X149926Y108387D01*
X149528Y109348D01*
X148895Y110174D01*
X148069Y110808D01*
X147107Y111206D01*
X146575Y111276D01*
D02*
G37*
G36*
X195575D02*
X195044Y111206D01*
X194082Y110808D01*
X193256Y110174D01*
X192623Y109348D01*
X192224Y108387D01*
X192154Y107855D01*
X195575D01*
Y111276D01*
D02*
G37*
G36*
X321637Y132399D02*
X319993D01*
Y130755D01*
X320352Y130826D01*
X321079Y131313D01*
X321566Y132040D01*
X321637Y132399D01*
D02*
G37*
G36*
X220691Y143532D02*
X219949Y143384D01*
X219321Y142964D01*
X218901Y142336D01*
X218753Y141594D01*
X218901Y140853D01*
X219321Y140224D01*
X219949Y139804D01*
X220691Y139657D01*
X221432Y139804D01*
X222060Y140224D01*
X222480Y140853D01*
X222628Y141594D01*
X222480Y142336D01*
X222060Y142964D01*
X221432Y143384D01*
X220691Y143532D01*
D02*
G37*
G36*
X206185Y141610D02*
X204542D01*
X204613Y141252D01*
X205099Y140524D01*
X205827Y140038D01*
X206185Y139967D01*
Y141610D01*
D02*
G37*
G36*
X168992Y137737D02*
X168634Y137666D01*
X167906Y137180D01*
X167420Y136452D01*
X167349Y136094D01*
X168992D01*
Y137737D01*
D02*
G37*
G36*
X169992D02*
Y136094D01*
X171636D01*
X171564Y136452D01*
X171078Y137180D01*
X170351Y137666D01*
X169992Y137737D01*
D02*
G37*
G36*
X208829Y141610D02*
X207185D01*
Y139967D01*
X207544Y140038D01*
X208272Y140524D01*
X208758Y141252D01*
X208829Y141610D01*
D02*
G37*
G36*
X314880Y143405D02*
X313237D01*
X313308Y143046D01*
X313794Y142319D01*
X314522Y141833D01*
X314880Y141761D01*
Y143405D01*
D02*
G37*
G36*
X317524D02*
X315880D01*
Y141761D01*
X316239Y141833D01*
X316966Y142319D01*
X317453Y143046D01*
X317524Y143405D01*
D02*
G37*
G36*
X243692Y142530D02*
X242048D01*
X242120Y142172D01*
X242606Y141444D01*
X243334Y140958D01*
X243692Y140887D01*
Y142530D01*
D02*
G37*
G36*
X246336D02*
X244692D01*
Y140887D01*
X245050Y140958D01*
X245778Y141444D01*
X246264Y142172D01*
X246336Y142530D01*
D02*
G37*
G36*
X265421Y136252D02*
X264680Y136104D01*
X264051Y135684D01*
X263631Y135056D01*
X263484Y134314D01*
X263631Y133573D01*
X264051Y132945D01*
X264680Y132525D01*
X265421Y132377D01*
X266162Y132525D01*
X266791Y132945D01*
X267211Y133573D01*
X267358Y134314D01*
X267211Y135056D01*
X266791Y135684D01*
X266162Y136104D01*
X265421Y136252D01*
D02*
G37*
G36*
X318993Y135042D02*
X318635Y134971D01*
X317907Y134485D01*
X317421Y133757D01*
X317350Y133399D01*
X318993D01*
Y135042D01*
D02*
G37*
G36*
X237104Y134010D02*
X235460D01*
X235532Y133652D01*
X236018Y132924D01*
X236746Y132438D01*
X237104Y132366D01*
Y134010D01*
D02*
G37*
G36*
X239748D02*
X238104D01*
Y132366D01*
X238462Y132438D01*
X239190Y132924D01*
X239676Y133652D01*
X239748Y134010D01*
D02*
G37*
G36*
X319993Y135042D02*
Y133399D01*
X321637D01*
X321566Y133757D01*
X321079Y134485D01*
X320352Y134971D01*
X319993Y135042D01*
D02*
G37*
G36*
X237104Y136654D02*
X236746Y136582D01*
X236018Y136096D01*
X235532Y135368D01*
X235460Y135010D01*
X237104D01*
Y136654D01*
D02*
G37*
G36*
X238104D02*
Y135010D01*
X239748D01*
X239676Y135368D01*
X239190Y136096D01*
X238462Y136582D01*
X238104Y136654D01*
D02*
G37*
G36*
X168992Y135094D02*
X167349D01*
X167420Y134735D01*
X167906Y134008D01*
X168634Y133521D01*
X168992Y133450D01*
Y135094D01*
D02*
G37*
G36*
X171636D02*
X169992D01*
Y133450D01*
X170351Y133521D01*
X171078Y134008D01*
X171564Y134735D01*
X171636Y135094D01*
D02*
G37*
G36*
X370542Y174224D02*
X368898D01*
Y172580D01*
X369257Y172651D01*
X369984Y173137D01*
X370471Y173865D01*
X370542Y174224D01*
D02*
G37*
G36*
X260806Y263026D02*
Y261382D01*
X262449D01*
X262378Y261740D01*
X261892Y262468D01*
X261164Y262954D01*
X260806Y263026D01*
D02*
G37*
G36*
X291583Y263876D02*
X289940D01*
X290011Y263518D01*
X290497Y262790D01*
X291225Y262304D01*
X291583Y262233D01*
Y263876D01*
D02*
G37*
G36*
X262449Y260382D02*
X260806D01*
Y258738D01*
X261164Y258810D01*
X261892Y259296D01*
X262378Y260024D01*
X262449Y260382D01*
D02*
G37*
G36*
X259805Y263026D02*
X259447Y262954D01*
X258719Y262468D01*
X258233Y261740D01*
X258162Y261382D01*
X259805D01*
Y263026D01*
D02*
G37*
G36*
X294227Y263876D02*
X292583D01*
Y262233D01*
X292942Y262304D01*
X293669Y262790D01*
X294156Y263518D01*
X294227Y263876D01*
D02*
G37*
G36*
X292583Y266520D02*
Y264876D01*
X294227D01*
X294156Y265235D01*
X293669Y265963D01*
X292942Y266449D01*
X292583Y266520D01*
D02*
G37*
G36*
X312751Y267026D02*
X311107D01*
X311178Y266668D01*
X311664Y265940D01*
X312392Y265454D01*
X312751Y265382D01*
Y267026D01*
D02*
G37*
G36*
X279086Y266184D02*
X278344Y266036D01*
X277716Y265616D01*
X277296Y264988D01*
X277149Y264247D01*
X277296Y263505D01*
X277716Y262877D01*
X278344Y262457D01*
X279086Y262309D01*
X279827Y262457D01*
X280456Y262877D01*
X280876Y263505D01*
X281023Y264247D01*
X280876Y264988D01*
X280456Y265616D01*
X279827Y266036D01*
X279086Y266184D01*
D02*
G37*
G36*
X291583Y266520D02*
X291225Y266449D01*
X290497Y265963D01*
X290011Y265235D01*
X289940Y264876D01*
X291583D01*
Y266520D01*
D02*
G37*
G36*
X259805Y260382D02*
X258162D01*
X258233Y260024D01*
X258719Y259296D01*
X259447Y258810D01*
X259805Y258738D01*
Y260382D01*
D02*
G37*
G36*
X272323Y243496D02*
X271582Y243349D01*
X270953Y242929D01*
X270533Y242300D01*
X270386Y241559D01*
X270533Y240817D01*
X270953Y240189D01*
X271582Y239769D01*
X272323Y239621D01*
X273065Y239769D01*
X273693Y240189D01*
X274113Y240817D01*
X274260Y241559D01*
X274113Y242300D01*
X273693Y242929D01*
X273065Y243349D01*
X272323Y243496D01*
D02*
G37*
G36*
X324683Y246055D02*
X323039D01*
X323110Y245696D01*
X323597Y244968D01*
X324324Y244482D01*
X324683Y244411D01*
Y246055D01*
D02*
G37*
G36*
X359044Y242262D02*
X358303Y242115D01*
X357674Y241695D01*
X357254Y241067D01*
X357107Y240325D01*
X357254Y239584D01*
X357674Y238955D01*
X358303Y238535D01*
X359044Y238388D01*
X359786Y238535D01*
X360414Y238955D01*
X360834Y239584D01*
X360981Y240325D01*
X360834Y241067D01*
X360414Y241695D01*
X359786Y242115D01*
X359044Y242262D01*
D02*
G37*
G36*
X267768Y243305D02*
X267026Y243158D01*
X266398Y242738D01*
X265978Y242109D01*
X265830Y241368D01*
X265978Y240627D01*
X266398Y239998D01*
X267026Y239578D01*
X267768Y239431D01*
X268509Y239578D01*
X269137Y239998D01*
X269557Y240627D01*
X269705Y241368D01*
X269557Y242109D01*
X269137Y242738D01*
X268509Y243158D01*
X267768Y243305D01*
D02*
G37*
G36*
X327326Y246055D02*
X325683D01*
Y244411D01*
X326041Y244482D01*
X326769Y244968D01*
X327255Y245696D01*
X327326Y246055D01*
D02*
G37*
G36*
X300425Y258570D02*
X299684Y258422D01*
X299055Y258002D01*
X298635Y257374D01*
X298488Y256632D01*
X298635Y255891D01*
X299055Y255263D01*
X299684Y254843D01*
X300425Y254695D01*
X301166Y254843D01*
X301795Y255263D01*
X301985Y255547D01*
X302516Y255442D01*
X302533Y255359D01*
X302952Y254730D01*
X303581Y254310D01*
X304322Y254163D01*
X305064Y254310D01*
X305692Y254730D01*
X306112Y255359D01*
X306259Y256100D01*
X306112Y256841D01*
X305692Y257470D01*
X305064Y257890D01*
X304322Y258037D01*
X303581Y257890D01*
X302952Y257470D01*
X302762Y257185D01*
X302231Y257291D01*
X302215Y257374D01*
X301795Y258002D01*
X301166Y258422D01*
X300425Y258570D01*
D02*
G37*
G36*
X325535Y260014D02*
X324794Y259867D01*
X324166Y259447D01*
X323746Y258819D01*
X323598Y258077D01*
X323746Y257336D01*
X324166Y256707D01*
X324794Y256288D01*
X325535Y256140D01*
X326277Y256288D01*
X326905Y256707D01*
X327325Y257336D01*
X327473Y258077D01*
X327325Y258819D01*
X326905Y259447D01*
X326277Y259867D01*
X325535Y260014D01*
D02*
G37*
G36*
X324683Y248698D02*
X324324Y248627D01*
X323597Y248141D01*
X323110Y247413D01*
X323039Y247055D01*
X324683D01*
Y248698D01*
D02*
G37*
G36*
X325683D02*
Y247055D01*
X327326D01*
X327255Y247413D01*
X326769Y248141D01*
X326041Y248627D01*
X325683Y248698D01*
D02*
G37*
G36*
X336877Y273356D02*
X335234D01*
X335305Y272998D01*
X335791Y272270D01*
X336519Y271784D01*
X336877Y271713D01*
Y273356D01*
D02*
G37*
G36*
X339521D02*
X337877D01*
Y271713D01*
X338236Y271784D01*
X338964Y272270D01*
X339450Y272998D01*
X339521Y273356D01*
D02*
G37*
G36*
X291539Y272819D02*
X291181Y272748D01*
X290453Y272262D01*
X289967Y271534D01*
X289896Y271176D01*
X291539D01*
Y272819D01*
D02*
G37*
G36*
X292539D02*
Y271176D01*
X294183D01*
X294111Y271534D01*
X293625Y272262D01*
X292898Y272748D01*
X292539Y272819D01*
D02*
G37*
G36*
X336877Y276000D02*
X336519Y275929D01*
X335791Y275443D01*
X335305Y274715D01*
X335234Y274356D01*
X336877D01*
Y276000D01*
D02*
G37*
G36*
X115000Y435037D02*
X113236Y434864D01*
X111539Y434349D01*
X109976Y433513D01*
X108605Y432388D01*
X107481Y431018D01*
X106645Y429455D01*
X106130Y427758D01*
X105956Y425994D01*
X106130Y424229D01*
X106645Y422533D01*
X107481Y420969D01*
X108605Y419599D01*
X109976Y418474D01*
X111539Y417639D01*
X113236Y417124D01*
X115000Y416950D01*
X116764Y417124D01*
X118461Y417639D01*
X120024Y418474D01*
X121395Y419599D01*
X122519Y420969D01*
X123355Y422533D01*
X123870Y424229D01*
X124044Y425994D01*
X123870Y427758D01*
X123355Y429455D01*
X122519Y431018D01*
X121395Y432388D01*
X120024Y433513D01*
X118461Y434349D01*
X116764Y434864D01*
X115000Y435037D01*
D02*
G37*
G36*
X385000D02*
X383236Y434864D01*
X381539Y434349D01*
X379976Y433513D01*
X378605Y432388D01*
X377481Y431018D01*
X376645Y429455D01*
X376130Y427758D01*
X375957Y425994D01*
X376130Y424229D01*
X376645Y422533D01*
X377481Y420969D01*
X378605Y419599D01*
X379976Y418474D01*
X381539Y417639D01*
X383236Y417124D01*
X385000Y416950D01*
X386764Y417124D01*
X388461Y417639D01*
X390024Y418474D01*
X391395Y419599D01*
X392519Y420969D01*
X393355Y422533D01*
X393870Y424229D01*
X394044Y425994D01*
X393870Y427758D01*
X393355Y429455D01*
X392519Y431018D01*
X391395Y432388D01*
X390024Y433513D01*
X388461Y434349D01*
X386764Y434864D01*
X385000Y435037D01*
D02*
G37*
G36*
X337877Y276000D02*
Y274356D01*
X339521D01*
X339450Y274715D01*
X338964Y275443D01*
X338236Y275929D01*
X337877Y276000D01*
D02*
G37*
G36*
X298298Y276913D02*
X297557Y276766D01*
X296928Y276346D01*
X296574Y275816D01*
X296191Y275747D01*
X296008Y275764D01*
X295888Y275943D01*
X295260Y276363D01*
X294518Y276511D01*
X293777Y276363D01*
X293148Y275943D01*
X292728Y275315D01*
X292581Y274574D01*
X292728Y273832D01*
X293148Y273204D01*
X293777Y272784D01*
X294518Y272636D01*
X295260Y272784D01*
X295888Y273204D01*
X296242Y273733D01*
X296625Y273803D01*
X296809Y273786D01*
X296928Y273606D01*
X297557Y273186D01*
X298298Y273039D01*
X299040Y273186D01*
X299668Y273606D01*
X300088Y274235D01*
X300235Y274976D01*
X300088Y275718D01*
X299668Y276346D01*
X299040Y276766D01*
X298298Y276913D01*
D02*
G37*
G36*
X301096Y273203D02*
X300355Y273056D01*
X299726Y272636D01*
X299307Y272007D01*
X299159Y271266D01*
X299307Y270525D01*
X299726Y269896D01*
X300355Y269476D01*
X301096Y269329D01*
X301838Y269476D01*
X302466Y269896D01*
X302886Y270525D01*
X303033Y271266D01*
X302886Y272007D01*
X302466Y272636D01*
X301838Y273056D01*
X301096Y273203D01*
D02*
G37*
G36*
X262418Y268310D02*
X260775D01*
Y266666D01*
X261133Y266737D01*
X261861Y267224D01*
X262347Y267951D01*
X262418Y268310D01*
D02*
G37*
G36*
X312751Y269670D02*
X312392Y269598D01*
X311664Y269112D01*
X311178Y268384D01*
X311107Y268026D01*
X312751D01*
Y269670D01*
D02*
G37*
G36*
X315394Y267026D02*
X313751D01*
Y265382D01*
X314109Y265454D01*
X314837Y265940D01*
X315323Y266668D01*
X315394Y267026D01*
D02*
G37*
G36*
X259775Y268310D02*
X258131D01*
X258202Y267951D01*
X258688Y267224D01*
X259416Y266737D01*
X259775Y266666D01*
Y268310D01*
D02*
G37*
G36*
X313751Y269670D02*
Y268026D01*
X315394D01*
X315323Y268384D01*
X314837Y269112D01*
X314109Y269598D01*
X313751Y269670D01*
D02*
G37*
G36*
X259775Y270953D02*
X259416Y270882D01*
X258688Y270396D01*
X258202Y269668D01*
X258131Y269310D01*
X259775D01*
Y270953D01*
D02*
G37*
G36*
X260775D02*
Y269310D01*
X262418D01*
X262347Y269668D01*
X261861Y270396D01*
X261133Y270882D01*
X260775Y270953D01*
D02*
G37*
G36*
X291539Y270176D02*
X289896D01*
X289967Y269817D01*
X290453Y269090D01*
X291181Y268603D01*
X291539Y268532D01*
Y270176D01*
D02*
G37*
G36*
X294183D02*
X292539D01*
Y268532D01*
X292898Y268603D01*
X293625Y269090D01*
X294111Y269817D01*
X294183Y270176D01*
D02*
G37*
G36*
X307197Y240551D02*
X306455Y240404D01*
X305827Y239984D01*
X305407Y239355D01*
X305259Y238614D01*
X305407Y237873D01*
X305827Y237244D01*
X306455Y236824D01*
X307197Y236677D01*
X307938Y236824D01*
X308566Y237244D01*
X308986Y237873D01*
X309134Y238614D01*
X308986Y239355D01*
X308566Y239984D01*
X307938Y240404D01*
X307197Y240551D01*
D02*
G37*
G36*
X373869Y220619D02*
X372916Y220493D01*
X372027Y220125D01*
X371264Y219540D01*
X370679Y218777D01*
X370311Y217888D01*
X370185Y216935D01*
X370311Y215981D01*
X370679Y215092D01*
X371264Y214330D01*
X372027Y213744D01*
X372916Y213376D01*
X373869Y213250D01*
X374823Y213376D01*
X375711Y213744D01*
X376474Y214330D01*
X377060Y215092D01*
X377428Y215981D01*
X377554Y216935D01*
X377428Y217888D01*
X377060Y218777D01*
X376474Y219540D01*
X375711Y220125D01*
X374823Y220493D01*
X373869Y220619D01*
D02*
G37*
G36*
X391421Y216435D02*
X389778D01*
X389849Y216076D01*
X390335Y215349D01*
X391063Y214862D01*
X391421Y214791D01*
Y216435D01*
D02*
G37*
G36*
X383369D02*
X379917D01*
Y212982D01*
X383369D01*
Y216435D01*
D02*
G37*
G36*
X387822D02*
X384369D01*
Y212982D01*
X387822D01*
Y216435D01*
D02*
G37*
G36*
X394065D02*
X392421D01*
Y214791D01*
X392780Y214862D01*
X393507Y215349D01*
X393994Y216076D01*
X394065Y216435D01*
D02*
G37*
G36*
X339154Y217928D02*
X337510D01*
X337581Y217570D01*
X338068Y216842D01*
X338795Y216356D01*
X339154Y216284D01*
Y217928D01*
D02*
G37*
G36*
X341797D02*
X340154D01*
Y216284D01*
X340512Y216356D01*
X341240Y216842D01*
X341726Y217570D01*
X341797Y217928D01*
D02*
G37*
G36*
X288712Y217696D02*
X287068D01*
X287139Y217337D01*
X287625Y216610D01*
X288353Y216123D01*
X288712Y216052D01*
Y217696D01*
D02*
G37*
G36*
X291355D02*
X289711D01*
Y216052D01*
X290070Y216123D01*
X290798Y216610D01*
X291284Y217337D01*
X291355Y217696D01*
D02*
G37*
G36*
X323839Y205738D02*
X323091Y205640D01*
X322394Y205351D01*
X321796Y204892D01*
X321337Y204293D01*
X321048Y203596D01*
X320949Y202848D01*
X321048Y202100D01*
X321337Y201403D01*
X321796Y200805D01*
X322394Y200345D01*
X323091Y200057D01*
X323839Y199958D01*
X324587Y200057D01*
X325285Y200345D01*
X325883Y200805D01*
X326342Y201403D01*
X326631Y202100D01*
X326729Y202848D01*
X326631Y203596D01*
X326342Y204293D01*
X325883Y204892D01*
X325285Y205351D01*
X324587Y205640D01*
X323839Y205738D01*
D02*
G37*
G36*
X312057Y181774D02*
X311315Y181627D01*
X310687Y181207D01*
X310267Y180578D01*
X310120Y179837D01*
X310267Y179096D01*
X310687Y178467D01*
X311315Y178047D01*
X312057Y177900D01*
X312798Y178047D01*
X313427Y178467D01*
X313846Y179096D01*
X313994Y179837D01*
X313846Y180578D01*
X313427Y181207D01*
X312798Y181627D01*
X312057Y181774D01*
D02*
G37*
G36*
X336204Y182095D02*
X334560D01*
X334632Y181737D01*
X335118Y181009D01*
X335846Y180523D01*
X336204Y180451D01*
Y182095D01*
D02*
G37*
G36*
X367898Y176867D02*
X367540Y176796D01*
X366812Y176310D01*
X366326Y175582D01*
X366255Y175224D01*
X367898D01*
Y176867D01*
D02*
G37*
G36*
X368898D02*
Y175224D01*
X370542D01*
X370471Y175582D01*
X369984Y176310D01*
X369257Y176796D01*
X368898Y176867D01*
D02*
G37*
G36*
X338848Y182095D02*
X337204D01*
Y180451D01*
X337562Y180523D01*
X338290Y181009D01*
X338776Y181737D01*
X338848Y182095D01*
D02*
G37*
G36*
X196964Y195377D02*
X196222Y195230D01*
X195594Y194810D01*
X195174Y194181D01*
X195027Y193440D01*
X195174Y192699D01*
X195594Y192070D01*
X196222Y191650D01*
X196964Y191503D01*
X197705Y191650D01*
X198334Y192070D01*
X198753Y192699D01*
X198901Y193440D01*
X198753Y194181D01*
X198334Y194810D01*
X197705Y195230D01*
X196964Y195377D01*
D02*
G37*
G36*
X304627Y205738D02*
X303879Y205640D01*
X303182Y205351D01*
X302583Y204892D01*
X302124Y204293D01*
X301835Y203596D01*
X301737Y202848D01*
X301835Y202100D01*
X302124Y201403D01*
X302583Y200805D01*
X303182Y200345D01*
X303879Y200057D01*
X304627Y199958D01*
X305375Y200057D01*
X306072Y200345D01*
X306670Y200805D01*
X307130Y201403D01*
X307418Y202100D01*
X307517Y202848D01*
X307418Y203596D01*
X307130Y204293D01*
X306670Y204892D01*
X306072Y205351D01*
X305375Y205640D01*
X304627Y205738D01*
D02*
G37*
G36*
X336204Y184739D02*
X335846Y184667D01*
X335118Y184181D01*
X334632Y183453D01*
X334560Y183095D01*
X336204D01*
Y184739D01*
D02*
G37*
G36*
X337204D02*
Y183095D01*
X338848D01*
X338776Y183453D01*
X338290Y184181D01*
X337562Y184667D01*
X337204Y184739D01*
D02*
G37*
G36*
X257985Y231283D02*
X257243Y231135D01*
X256615Y230715D01*
X256195Y230087D01*
X256048Y229345D01*
X256195Y228604D01*
X256615Y227976D01*
X257243Y227556D01*
X257985Y227408D01*
X258726Y227556D01*
X259355Y227976D01*
X259774Y228604D01*
X259922Y229345D01*
X259774Y230087D01*
X259355Y230715D01*
X258726Y231135D01*
X257985Y231283D01*
D02*
G37*
G36*
X349764Y234660D02*
X349023Y234513D01*
X348394Y234093D01*
X347974Y233464D01*
X347827Y232723D01*
X347974Y231982D01*
X348394Y231353D01*
X349023Y230933D01*
X349764Y230786D01*
X350505Y230933D01*
X351134Y231353D01*
X351554Y231982D01*
X351701Y232723D01*
X351554Y233464D01*
X351134Y234093D01*
X350505Y234513D01*
X349764Y234660D01*
D02*
G37*
G36*
X383869Y230619D02*
X382916Y230493D01*
X382027Y230125D01*
X381264Y229540D01*
X380679Y228777D01*
X380311Y227888D01*
X380185Y226935D01*
X380311Y225981D01*
X380679Y225093D01*
X381264Y224329D01*
X382027Y223744D01*
X382916Y223376D01*
X383869Y223250D01*
X384823Y223376D01*
X385711Y223744D01*
X386474Y224329D01*
X387060Y225093D01*
X387428Y225981D01*
X387554Y226935D01*
X387428Y227888D01*
X387060Y228777D01*
X386474Y229540D01*
X385711Y230125D01*
X384823Y230493D01*
X383869Y230619D01*
D02*
G37*
G36*
X359044Y228872D02*
X358303Y228724D01*
X357674Y228305D01*
X357254Y227676D01*
X357107Y226935D01*
X357254Y226193D01*
X357674Y225565D01*
X358303Y225145D01*
X359044Y224997D01*
X359786Y225145D01*
X360414Y225565D01*
X360834Y226193D01*
X360981Y226935D01*
X360834Y227676D01*
X360414Y228305D01*
X359786Y228724D01*
X359044Y228872D01*
D02*
G37*
G36*
X373869Y240619D02*
X372916Y240493D01*
X372027Y240125D01*
X371264Y239540D01*
X370679Y238777D01*
X370311Y237888D01*
X370185Y236935D01*
X370311Y235981D01*
X370679Y235092D01*
X371264Y234330D01*
X372027Y233744D01*
X372916Y233376D01*
X373869Y233250D01*
X374823Y233376D01*
X375711Y233744D01*
X376474Y234330D01*
X377060Y235092D01*
X377428Y235981D01*
X377554Y236935D01*
X377428Y237888D01*
X377060Y238777D01*
X376474Y239540D01*
X375711Y240125D01*
X374823Y240493D01*
X373869Y240619D01*
D02*
G37*
G36*
X392065Y238872D02*
X391323Y238724D01*
X390695Y238304D01*
X390275Y237676D01*
X390127Y236935D01*
X390275Y236193D01*
X390695Y235565D01*
X391323Y235145D01*
X392065Y234997D01*
X392806Y235145D01*
X393434Y235565D01*
X393854Y236193D01*
X394002Y236935D01*
X393854Y237676D01*
X393434Y238304D01*
X392806Y238724D01*
X392065Y238872D01*
D02*
G37*
G36*
X353023Y238872D02*
X352281Y238725D01*
X351653Y238305D01*
X351233Y237676D01*
X351086Y236935D01*
X351233Y236194D01*
X351653Y235565D01*
X352281Y235145D01*
X353023Y234998D01*
X353764Y235145D01*
X354393Y235565D01*
X354813Y236194D01*
X354960Y236935D01*
X354813Y237676D01*
X354393Y238305D01*
X353764Y238725D01*
X353023Y238872D01*
D02*
G37*
G36*
X383869Y240619D02*
X382916Y240493D01*
X382027Y240125D01*
X381264Y239540D01*
X380679Y238777D01*
X380311Y237888D01*
X380185Y236935D01*
X380311Y235981D01*
X380679Y235092D01*
X381264Y234330D01*
X382027Y233744D01*
X382916Y233376D01*
X383869Y233250D01*
X384823Y233376D01*
X385711Y233744D01*
X386474Y234330D01*
X387060Y235092D01*
X387428Y235981D01*
X387554Y236935D01*
X387428Y237888D01*
X387060Y238777D01*
X386474Y239540D01*
X385711Y240125D01*
X384823Y240493D01*
X383869Y240619D01*
D02*
G37*
G36*
X264035Y238737D02*
X263294Y238589D01*
X262665Y238169D01*
X262245Y237541D01*
X262098Y236799D01*
X262245Y236058D01*
X262665Y235430D01*
X263294Y235010D01*
X264035Y234862D01*
X264776Y235010D01*
X265405Y235430D01*
X265825Y236058D01*
X265972Y236799D01*
X265825Y237541D01*
X265405Y238169D01*
X264776Y238589D01*
X264035Y238737D01*
D02*
G37*
G36*
X373869Y230619D02*
X372916Y230493D01*
X372027Y230125D01*
X371264Y229540D01*
X370679Y228777D01*
X370311Y227888D01*
X370185Y226935D01*
X370311Y225981D01*
X370679Y225093D01*
X371264Y224329D01*
X372027Y223744D01*
X372916Y223376D01*
X373869Y223250D01*
X374823Y223376D01*
X375711Y223744D01*
X376474Y224329D01*
X377060Y225093D01*
X377428Y225981D01*
X377554Y226935D01*
X377428Y227888D01*
X377060Y228777D01*
X376474Y229540D01*
X375711Y230125D01*
X374823Y230493D01*
X373869Y230619D01*
D02*
G37*
G36*
X391421Y219078D02*
X391063Y219007D01*
X390335Y218521D01*
X389849Y217793D01*
X389778Y217435D01*
X391421D01*
Y219078D01*
D02*
G37*
G36*
X392421D02*
Y217435D01*
X394065D01*
X393994Y217793D01*
X393507Y218521D01*
X392780Y219007D01*
X392421Y219078D01*
D02*
G37*
G36*
X383369Y220887D02*
X379917D01*
Y217435D01*
X383369D01*
Y220887D01*
D02*
G37*
G36*
X387822D02*
X384369D01*
Y217435D01*
X387822D01*
Y220887D01*
D02*
G37*
G36*
X288712Y220339D02*
X288353Y220268D01*
X287625Y219782D01*
X287139Y219054D01*
X287068Y218696D01*
X288712D01*
Y220339D01*
D02*
G37*
G36*
X340154Y220572D02*
Y218928D01*
X341797D01*
X341726Y219286D01*
X341240Y220014D01*
X340512Y220500D01*
X340154Y220572D01*
D02*
G37*
G36*
X346143Y225694D02*
X345402Y225547D01*
X344774Y225127D01*
X344354Y224499D01*
X344206Y223757D01*
X344354Y223016D01*
X344774Y222387D01*
X345402Y221967D01*
X346143Y221820D01*
X346885Y221967D01*
X347513Y222387D01*
X347933Y223016D01*
X348081Y223757D01*
X347933Y224499D01*
X347513Y225127D01*
X346885Y225547D01*
X346143Y225694D01*
D02*
G37*
G36*
X289711Y220339D02*
Y218696D01*
X291355D01*
X291284Y219054D01*
X290798Y219782D01*
X290070Y220268D01*
X289711Y220339D01*
D02*
G37*
G36*
X339154Y220572D02*
X338795Y220500D01*
X338068Y220014D01*
X337581Y219286D01*
X337510Y218928D01*
X339154D01*
Y220572D01*
D02*
G37*
%LPD*%
D22*
X383869Y216935D02*
D03*
D23*
X146075Y107355D02*
D03*
X196075D02*
D03*
X236075D02*
D03*
D25*
X154220Y153930D02*
D03*
D27*
X136075Y107355D02*
D03*
D30*
X368398Y174724D02*
D03*
X244192Y143030D02*
D03*
X237604Y134510D02*
D03*
X319493Y132899D02*
D03*
X315380Y143905D02*
D03*
X314557Y168376D02*
D03*
X307057Y168267D02*
D03*
X339654Y218428D02*
D03*
X289212Y218196D02*
D03*
X391921Y216935D02*
D03*
X325183Y246554D02*
D03*
X337377Y273856D02*
D03*
X260275Y268810D02*
D03*
X260306Y260882D02*
D03*
X292083Y264376D02*
D03*
X292039Y270676D02*
D03*
X313250Y267526D02*
D03*
X259616Y171811D02*
D03*
X336704Y182595D02*
D03*
X336701Y147195D02*
D03*
X220223Y114865D02*
D03*
X206685Y142110D02*
D03*
X201109Y159447D02*
D03*
X169492Y135594D02*
D03*
M02*
