%FSLAX25Y25*%
%MOIN*%
G70*
G01*
G75*
G04 Layer_Physical_Order=1*
G04 Layer_Color=255*
%ADD10R,0.04134X0.05118*%
%ADD11R,0.05118X0.04134*%
%ADD12R,0.10000X0.10000*%
%ADD13R,0.09055X0.01969*%
%ADD14R,0.09843X0.07874*%
%ADD15O,0.02362X0.07677*%
%ADD16O,0.07677X0.02362*%
%ADD17R,0.01400X0.06000*%
%ADD18C,0.03937*%
%ADD19C,0.01500*%
%ADD20C,0.03000*%
%ADD21C,0.01000*%
%ADD22R,0.05906X0.05906*%
%ADD23C,0.05906*%
%ADD24R,0.05906X0.05906*%
%ADD25C,0.05906*%
%ADD26C,0.04331*%
%ADD27R,0.05906X0.05906*%
%ADD28C,0.04500*%
%ADD29C,0.15000*%
%ADD30C,0.02400*%
D10*
X336701Y152792D02*
D03*
X327449D02*
D03*
X336704Y176683D02*
D03*
X327452D02*
D03*
X310377Y143905D02*
D03*
X301125D02*
D03*
X265295Y260882D02*
D03*
X274547D02*
D03*
X265421Y268810D02*
D03*
X274673D02*
D03*
X220243Y119894D02*
D03*
X210991D02*
D03*
X333067Y218428D02*
D03*
X323815D02*
D03*
X295512Y218196D02*
D03*
X304764D02*
D03*
X211352Y135451D02*
D03*
X220604D02*
D03*
X336740Y161230D02*
D03*
X327488D02*
D03*
X342383Y137548D02*
D03*
X351635D02*
D03*
X336683Y168207D02*
D03*
X327431D02*
D03*
X324095Y137500D02*
D03*
X333347D02*
D03*
D11*
X330723Y246554D02*
D03*
Y255806D02*
D03*
X330792Y273856D02*
D03*
Y264604D02*
D03*
X237604Y128739D02*
D03*
Y119487D02*
D03*
X175046Y135872D02*
D03*
Y145124D02*
D03*
X196666Y163398D02*
D03*
Y172650D02*
D03*
X265386Y171811D02*
D03*
Y162559D02*
D03*
X265421Y119013D02*
D03*
X265421Y128265D02*
D03*
X175021Y153648D02*
D03*
Y162900D02*
D03*
X196914Y179454D02*
D03*
Y188706D02*
D03*
X265401Y154141D02*
D03*
Y144889D02*
D03*
D12*
X199091Y121156D02*
D03*
Y141856D02*
D03*
X252399Y122330D02*
D03*
Y143030D02*
D03*
D13*
X368146Y170582D02*
D03*
Y167432D02*
D03*
Y164282D02*
D03*
Y161133D02*
D03*
Y157983D02*
D03*
D14*
X390193Y146763D02*
D03*
X368540D02*
D03*
X390193Y181802D02*
D03*
X368540D02*
D03*
D15*
X291645Y282683D02*
D03*
X294795Y282683D02*
D03*
X297945Y282683D02*
D03*
X301094D02*
D03*
X304244D02*
D03*
X307393D02*
D03*
X310543D02*
D03*
X313693D02*
D03*
X313693Y249219D02*
D03*
X310543D02*
D03*
X307393Y249219D02*
D03*
X304244Y249219D02*
D03*
X301094D02*
D03*
X297945D02*
D03*
X294795D02*
D03*
X291645D02*
D03*
D16*
X319402Y276975D02*
D03*
Y273825D02*
D03*
Y270676D02*
D03*
Y267526D02*
D03*
Y264376D02*
D03*
Y261227D02*
D03*
Y258077D02*
D03*
Y254928D02*
D03*
X285937D02*
D03*
Y258077D02*
D03*
Y261227D02*
D03*
Y264376D02*
D03*
Y267526D02*
D03*
Y270676D02*
D03*
Y273825D02*
D03*
Y276975D02*
D03*
D17*
X317057Y174039D02*
D03*
X314557D02*
D03*
X312057D02*
D03*
X309557D02*
D03*
X307057D02*
D03*
X304557Y174039D02*
D03*
X302057Y174039D02*
D03*
X299557D02*
D03*
Y154539D02*
D03*
X302057D02*
D03*
X304557D02*
D03*
X307057D02*
D03*
X309557D02*
D03*
X312057D02*
D03*
X314557D02*
D03*
X317057D02*
D03*
D18*
X130842Y428461D02*
D03*
X130103Y119018D02*
D03*
X371277Y112311D02*
D03*
D19*
X368398Y170543D02*
Y174724D01*
Y181370D01*
D20*
X246120Y107463D02*
Y116052D01*
X252399Y122330D01*
X242686Y119487D02*
X246120Y116052D01*
X237604Y119487D02*
X242686D01*
X255716Y119013D02*
X265421D01*
X265421Y128265D02*
Y134314D01*
X244192Y143030D02*
X252399D01*
X237604Y128739D02*
Y134510D01*
X206120Y107463D02*
Y114127D01*
X199091Y121156D02*
X206120Y114127D01*
X210991Y118998D02*
Y119894D01*
X206120Y114127D02*
X210991Y118998D01*
Y119894D02*
Y135090D01*
X211352Y135451D01*
X220243Y114885D02*
Y119894D01*
X220223Y114865D02*
X220243Y114885D01*
X220604Y135451D02*
Y141507D01*
X220691Y141594D01*
X199091Y141856D02*
X199346Y142110D01*
X206685D01*
D21*
X364928Y157945D02*
X368398D01*
X358183Y151200D02*
X364928Y157945D01*
X358183Y144095D02*
Y151200D01*
X351635Y137548D02*
X358183Y144095D01*
X333394Y137548D02*
X342383D01*
X319493Y132899D02*
X324095Y137500D01*
X317057Y153790D02*
X333347Y137500D01*
X309557Y144725D02*
Y154539D01*
X302057Y144836D02*
Y154539D01*
X304557D01*
X307057D01*
X304557Y150446D02*
Y154539D01*
Y150446D02*
X306134Y148869D01*
X296363Y143905D02*
X301125D01*
X310377D02*
X315380D01*
X312057Y174039D02*
Y179837D01*
X314557Y168376D02*
Y174039D01*
X304557Y174039D02*
X307057D01*
X307057Y168267D02*
Y174039D01*
X328452Y258077D02*
X330723Y255806D01*
X319629Y264604D02*
X330792D01*
X304627Y202848D02*
Y218058D01*
X323839Y202848D02*
Y218404D01*
X333067Y218428D02*
X339654D01*
X289212Y218196D02*
X295512D01*
X383869Y236935D02*
X392065D01*
X383869Y216935D02*
X391921D01*
X276951Y235667D02*
X281481Y231138D01*
X276951Y235667D02*
Y254692D01*
X280337Y258077D01*
X285937D01*
X279799Y237868D02*
X283422Y234244D01*
X279799Y237868D02*
Y248789D01*
X285937Y254928D01*
X382465Y226935D02*
X383869D01*
X313693Y239409D02*
X316167Y236935D01*
X313693Y239409D02*
Y249219D01*
X359044Y226935D02*
X373869D01*
X321804Y240325D02*
X359044D01*
X319402Y242728D02*
X321804Y240325D01*
X319402Y242728D02*
Y254928D01*
X325183Y246554D02*
X330723D01*
X330792Y273856D02*
X337377D01*
X260275Y268810D02*
X265421D01*
X260306Y260882D02*
X265295D01*
X280414Y261227D02*
Y262918D01*
X279086Y264247D02*
X280414Y262918D01*
X274891Y261227D02*
X280414D01*
X285937D01*
X279876Y265037D02*
Y267526D01*
X275957D02*
X279876D01*
X285937D01*
Y264376D02*
X292083D01*
X285937Y270676D02*
X292039D01*
X313250Y267526D02*
X319402D01*
Y258077D02*
X325535D01*
X328452D01*
X317057Y174039D02*
Y179729D01*
X308797Y187988D02*
X317057Y179729D01*
X291262Y187988D02*
X308797D01*
X272323Y206927D02*
X291262Y187988D01*
X272323Y206927D02*
Y241559D01*
X309557Y174039D02*
Y178216D01*
X303292Y184481D02*
X309557Y178216D01*
X288716Y184481D02*
X303292D01*
X267768Y205429D02*
X288716Y184481D01*
X267768Y205429D02*
Y241368D01*
X256120Y107463D02*
X262710Y114053D01*
X269095D01*
X272659Y117617D01*
X266120Y107463D02*
X275913Y117256D01*
Y187056D01*
X294518Y274574D02*
Y282407D01*
X298298Y274976D02*
Y282330D01*
X361276Y216935D02*
X373869D01*
X301096Y271266D02*
Y282681D01*
X264035Y198934D02*
X275913Y187056D01*
X264035Y198934D02*
Y236799D01*
X257985Y198669D02*
Y229345D01*
Y198669D02*
X272659Y183995D01*
Y117617D02*
Y183995D01*
X300425Y256632D02*
Y264989D01*
X304244Y268808D01*
Y282683D01*
X304322Y256100D02*
Y264690D01*
X306625Y266992D01*
Y281915D01*
X348267Y229944D02*
X361276Y216935D01*
X313055Y229944D02*
X348267D01*
X376617Y232782D02*
X382465Y226935D01*
X265401Y134334D02*
Y144889D01*
Y154141D02*
Y162544D01*
X259616Y171811D02*
X265386D01*
X300057Y168629D02*
Y173539D01*
X299557Y174039D02*
X300057Y173539D01*
X299557Y154539D02*
X300057Y155039D01*
X304211Y162090D02*
X310015D01*
X300057Y157936D02*
X304211Y162090D01*
X300057Y155039D02*
Y157936D01*
X310015Y162090D02*
X311644Y163718D01*
X322433D01*
X324921Y161230D02*
X327488D01*
X322433Y163718D02*
X324921Y161230D01*
X304596Y164090D02*
X309187D01*
X310815Y165718D01*
X313396D02*
X313438Y165676D01*
X310815Y165718D02*
X313396D01*
X313438Y165676D02*
X319965D01*
X320007Y165718D01*
X322376D01*
X324864Y168207D01*
X327431D01*
X300057Y168629D02*
X304596Y164090D01*
X340646Y164244D02*
X368398D01*
X336683Y168207D02*
X340646Y164244D01*
X336876Y161094D02*
X368398D01*
X327431Y168207D02*
Y176662D01*
X327488Y152831D02*
Y161230D01*
X336704Y176683D02*
Y182595D01*
X336701Y147195D02*
Y152792D01*
X316120Y107463D02*
X320431Y111774D01*
Y111882D01*
X310543Y237728D02*
X315489Y232782D01*
X310543Y237728D02*
Y249219D01*
X307197Y235802D02*
Y238614D01*
Y235802D02*
X313055Y229944D01*
X306120Y107463D02*
X308592D01*
X296120D02*
X299242D01*
X313559Y121780D01*
X353023D01*
X286120Y107463D02*
X287496D01*
X305408Y125375D01*
X349764D01*
X276120Y107463D02*
X278866D01*
X300374Y128971D01*
X346143D01*
X316167Y236935D02*
X373869D01*
X315489Y232782D02*
X376617D01*
X315559Y223757D02*
X346143D01*
X304497Y234819D02*
X315559Y223757D01*
X304497Y234819D02*
Y239786D01*
X307393Y242683D01*
Y249219D01*
X283422Y234244D02*
X296886D01*
X312702Y218428D01*
X323815D01*
X281481Y231138D02*
X293944D01*
X304764Y220317D01*
Y218196D02*
Y220317D01*
X320208Y119080D02*
X356160D01*
X308592Y107463D02*
X320208Y119080D01*
X196914Y188706D02*
Y193391D01*
X196964Y193440D01*
X196914Y172897D02*
Y179454D01*
X196666Y172650D02*
X196914Y172897D01*
X196666Y163398D02*
X200617Y159447D01*
X201109D01*
X175021Y145150D02*
Y153648D01*
Y145150D02*
X175046Y145124D01*
X175021Y162900D02*
X180596D01*
X180622Y162925D01*
X174767Y135594D02*
X175046Y135872D01*
X169492Y135594D02*
X174767D01*
D22*
X383869Y216935D02*
D03*
D23*
X373869D02*
D03*
X383869Y226935D02*
D03*
X373869D02*
D03*
X383869Y236935D02*
D03*
X373869D02*
D03*
X146075Y107355D02*
D03*
X156075D02*
D03*
X166075D02*
D03*
X176075D02*
D03*
X186075D02*
D03*
X196075D02*
D03*
X206075D02*
D03*
X216075D02*
D03*
X226075D02*
D03*
X236075D02*
D03*
X246075D02*
D03*
X256075D02*
D03*
X266075D02*
D03*
X276075D02*
D03*
X286075D02*
D03*
X296075D02*
D03*
X306075D02*
D03*
X316075D02*
D03*
X326075D02*
D03*
D24*
X124220Y153930D02*
D03*
D25*
X154220D02*
D03*
D26*
X323839Y202848D02*
D03*
X304627D02*
D03*
D27*
X136075Y107355D02*
D03*
D28*
X378382Y155621D02*
D03*
Y172944D02*
D03*
D29*
X385000Y425994D02*
D03*
X115000D02*
D03*
Y115000D02*
D03*
X385000D02*
D03*
D30*
X368398Y174724D02*
D03*
X265421Y134314D02*
D03*
X244192Y143030D02*
D03*
X237604Y134510D02*
D03*
X319493Y132899D02*
D03*
X306134Y148869D02*
D03*
X296363Y143905D02*
D03*
X315380D02*
D03*
X312057Y179837D02*
D03*
X314557Y168376D02*
D03*
X307057Y168267D02*
D03*
X339654Y218428D02*
D03*
X289212Y218196D02*
D03*
X392065Y236935D02*
D03*
X391921Y216935D02*
D03*
X359044Y226935D02*
D03*
Y240325D02*
D03*
X325183Y246554D02*
D03*
X337377Y273856D02*
D03*
X260275Y268810D02*
D03*
X260306Y260882D02*
D03*
X279086Y264247D02*
D03*
X292083Y264376D02*
D03*
X292039Y270676D02*
D03*
X313250Y267526D02*
D03*
X325535Y258077D02*
D03*
X272323Y241559D02*
D03*
X267768Y241368D02*
D03*
X298298Y274976D02*
D03*
X294518Y274574D02*
D03*
X301096Y271266D02*
D03*
X257985Y229345D02*
D03*
X264035Y236799D02*
D03*
X300425Y256632D02*
D03*
X304322Y256100D02*
D03*
X259616Y171811D02*
D03*
X336704Y182595D02*
D03*
X336701Y147195D02*
D03*
X320431Y111882D02*
D03*
X307197Y238614D02*
D03*
X346143Y128971D02*
D03*
X349764Y125375D02*
D03*
X353023Y121780D02*
D03*
Y236935D02*
D03*
X349764Y232723D02*
D03*
X346143Y223757D02*
D03*
X356160Y119080D02*
D03*
X220223Y114865D02*
D03*
X220691Y141594D02*
D03*
X206685Y142110D02*
D03*
X196964Y193440D02*
D03*
X201109Y159447D02*
D03*
X180622Y162925D02*
D03*
X169492Y135594D02*
D03*
M02*
