%FSLAX25Y25*%
%MOIN*%
G70*
G01*
G75*
G04 Layer_Color=8388736*
%ADD10R,0.04134X0.05118*%
%ADD11R,0.05118X0.04134*%
%ADD12R,0.10000X0.10000*%
%ADD13R,0.09055X0.01969*%
%ADD14R,0.09843X0.07874*%
%ADD15O,0.02362X0.07677*%
%ADD16O,0.07677X0.02362*%
%ADD17R,0.01400X0.06000*%
%ADD18C,0.03937*%
%ADD19C,0.01500*%
%ADD20C,0.03000*%
%ADD21C,0.01000*%
%ADD22R,0.05906X0.05906*%
%ADD23C,0.05906*%
%ADD24R,0.05906X0.05906*%
%ADD25C,0.05906*%
%ADD26C,0.04331*%
%ADD27R,0.05906X0.05906*%
%ADD28C,0.04500*%
%ADD29C,0.15000*%
%ADD30C,0.02400*%
%ADD31C,0.00787*%
%ADD32C,0.02000*%
%ADD33C,0.02362*%
%ADD34C,0.00984*%
%ADD35C,0.00200*%
%ADD36C,0.00800*%
%ADD37C,0.01200*%
%ADD38C,0.00591*%
%ADD39R,0.03607X0.07933*%
%ADD40R,0.04934X0.05918*%
%ADD41R,0.05918X0.04934*%
%ADD42R,0.10800X0.10800*%
%ADD43R,0.09855X0.02769*%
%ADD44R,0.10642X0.08674*%
%ADD45O,0.03162X0.08477*%
%ADD46O,0.08477X0.03162*%
%ADD47R,0.02200X0.06800*%
%ADD48C,0.04737*%
%ADD49R,0.06706X0.06706*%
%ADD50C,0.06706*%
%ADD51R,0.06706X0.06706*%
%ADD52C,0.06706*%
%ADD53C,0.05131*%
%ADD54R,0.06706X0.06706*%
%ADD55C,0.05300*%
%ADD56C,0.15800*%
%ADD57C,0.03200*%
D40*
X336701Y152792D02*
D03*
X327449D02*
D03*
X336704Y176683D02*
D03*
X327452D02*
D03*
X310377Y143905D02*
D03*
X301125D02*
D03*
X265295Y260882D02*
D03*
X274547D02*
D03*
X265421Y268810D02*
D03*
X274673D02*
D03*
X220243Y119894D02*
D03*
X210991D02*
D03*
X333067Y218428D02*
D03*
X323815D02*
D03*
X295512Y218196D02*
D03*
X304764D02*
D03*
X211352Y135451D02*
D03*
X220604D02*
D03*
X336740Y161230D02*
D03*
X327488D02*
D03*
X342383Y137548D02*
D03*
X351635D02*
D03*
X336683Y168207D02*
D03*
X327431D02*
D03*
X324095Y137500D02*
D03*
X333347D02*
D03*
D41*
X330723Y246554D02*
D03*
Y255806D02*
D03*
X330792Y273856D02*
D03*
Y264604D02*
D03*
X237604Y128739D02*
D03*
Y119487D02*
D03*
X175046Y135872D02*
D03*
Y145124D02*
D03*
X196666Y163398D02*
D03*
Y172650D02*
D03*
X265386Y171811D02*
D03*
Y162559D02*
D03*
X265421Y119013D02*
D03*
X265421Y128265D02*
D03*
X175021Y153648D02*
D03*
Y162900D02*
D03*
X196914Y179454D02*
D03*
Y188706D02*
D03*
X265401Y154141D02*
D03*
Y144889D02*
D03*
D42*
X199091Y121156D02*
D03*
Y141856D02*
D03*
X252399Y122330D02*
D03*
Y143030D02*
D03*
D43*
X368146Y170582D02*
D03*
Y167432D02*
D03*
Y164282D02*
D03*
Y161133D02*
D03*
Y157983D02*
D03*
D44*
X390193Y146763D02*
D03*
X368540D02*
D03*
X390193Y181802D02*
D03*
X368540D02*
D03*
D45*
X291645Y282683D02*
D03*
X294795Y282683D02*
D03*
X297945Y282683D02*
D03*
X301094D02*
D03*
X304244D02*
D03*
X307393D02*
D03*
X310543D02*
D03*
X313693D02*
D03*
X313693Y249219D02*
D03*
X310543D02*
D03*
X307393Y249219D02*
D03*
X304244Y249219D02*
D03*
X301094D02*
D03*
X297945D02*
D03*
X294795D02*
D03*
X291645D02*
D03*
D46*
X319402Y276975D02*
D03*
Y273825D02*
D03*
Y270676D02*
D03*
Y267526D02*
D03*
Y264376D02*
D03*
Y261227D02*
D03*
Y258077D02*
D03*
Y254928D02*
D03*
X285937D02*
D03*
Y258077D02*
D03*
Y261227D02*
D03*
Y264376D02*
D03*
Y267526D02*
D03*
Y270676D02*
D03*
Y273825D02*
D03*
Y276975D02*
D03*
D47*
X317057Y174039D02*
D03*
X314557D02*
D03*
X312057D02*
D03*
X309557D02*
D03*
X307057D02*
D03*
X304557Y174039D02*
D03*
X302057Y174039D02*
D03*
X299557D02*
D03*
Y154539D02*
D03*
X302057D02*
D03*
X304557D02*
D03*
X307057D02*
D03*
X309557D02*
D03*
X312057D02*
D03*
X314557D02*
D03*
X317057D02*
D03*
D48*
X130842Y428461D02*
D03*
X130103Y119018D02*
D03*
X371277Y112311D02*
D03*
D49*
X383869Y216935D02*
D03*
D50*
X373869D02*
D03*
X383869Y226935D02*
D03*
X373869D02*
D03*
X383869Y236935D02*
D03*
X373869D02*
D03*
X146075Y107355D02*
D03*
X156075D02*
D03*
X166075D02*
D03*
X176075D02*
D03*
X186075D02*
D03*
X196075D02*
D03*
X206075D02*
D03*
X216075D02*
D03*
X226075D02*
D03*
X236075D02*
D03*
X246075D02*
D03*
X256075D02*
D03*
X266075D02*
D03*
X276075D02*
D03*
X286075D02*
D03*
X296075D02*
D03*
X306075D02*
D03*
X316075D02*
D03*
X326075D02*
D03*
D51*
X124220Y153930D02*
D03*
D52*
X154220D02*
D03*
D53*
X323839Y202848D02*
D03*
X304627D02*
D03*
D54*
X136075Y107355D02*
D03*
D55*
X378382Y155621D02*
D03*
Y172944D02*
D03*
D56*
X385000Y425994D02*
D03*
X115000D02*
D03*
Y115000D02*
D03*
X385000D02*
D03*
D57*
X368398Y174724D02*
D03*
X265421Y134314D02*
D03*
X244192Y143030D02*
D03*
X237604Y134510D02*
D03*
X319493Y132899D02*
D03*
X306134Y148869D02*
D03*
X296363Y143905D02*
D03*
X315380D02*
D03*
X312057Y179837D02*
D03*
X314557Y168376D02*
D03*
X307057Y168267D02*
D03*
X339654Y218428D02*
D03*
X289212Y218196D02*
D03*
X392065Y236935D02*
D03*
X391921Y216935D02*
D03*
X359044Y226935D02*
D03*
Y240325D02*
D03*
X325183Y246554D02*
D03*
X337377Y273856D02*
D03*
X260275Y268810D02*
D03*
X260306Y260882D02*
D03*
X279086Y264247D02*
D03*
X292083Y264376D02*
D03*
X292039Y270676D02*
D03*
X313250Y267526D02*
D03*
X325535Y258077D02*
D03*
X272323Y241559D02*
D03*
X267768Y241368D02*
D03*
X298298Y274976D02*
D03*
X294518Y274574D02*
D03*
X301096Y271266D02*
D03*
X257985Y229345D02*
D03*
X264035Y236799D02*
D03*
X300425Y256632D02*
D03*
X304322Y256100D02*
D03*
X259616Y171811D02*
D03*
X336704Y182595D02*
D03*
X336701Y147195D02*
D03*
X320431Y111882D02*
D03*
X307197Y238614D02*
D03*
X346143Y128971D02*
D03*
X349764Y125375D02*
D03*
X353023Y121780D02*
D03*
Y236935D02*
D03*
X349764Y232723D02*
D03*
X346143Y223757D02*
D03*
X356160Y119080D02*
D03*
X220223Y114865D02*
D03*
X220691Y141594D02*
D03*
X206685Y142110D02*
D03*
X196964Y193440D02*
D03*
X201109Y159447D02*
D03*
X180622Y162925D02*
D03*
X169492Y135594D02*
D03*
M02*
