%FSLAX25Y25*%
%MOIN*%
G70*
G01*
G75*
G04 Layer_Physical_Order=2*
G04 Layer_Color=36540*
%ADD10R,0.04134X0.05118*%
%ADD11R,0.05118X0.04134*%
%ADD12R,0.10000X0.10000*%
%ADD13R,0.09055X0.01969*%
%ADD14R,0.09843X0.07874*%
%ADD15O,0.02362X0.07677*%
%ADD16O,0.07677X0.02362*%
%ADD17R,0.01400X0.06000*%
%ADD18C,0.03937*%
%ADD19C,0.01500*%
%ADD20C,0.03000*%
%ADD21C,0.01000*%
%ADD22R,0.05906X0.05906*%
%ADD23C,0.05906*%
%ADD24R,0.05906X0.05906*%
%ADD25C,0.05906*%
%ADD26C,0.04331*%
%ADD27R,0.05906X0.05906*%
%ADD28C,0.04500*%
%ADD29C,0.15000*%
%ADD30C,0.02400*%
G36*
X189310Y109961D02*
X188810Y109792D01*
X188681Y109960D01*
X187918Y110546D01*
X187029Y110914D01*
X186075Y111039D01*
X185122Y110914D01*
X184233Y110546D01*
X183470Y109960D01*
X182885Y109197D01*
X182517Y108308D01*
X182391Y107355D01*
X182517Y106401D01*
X182885Y105513D01*
X183442Y104787D01*
X183392Y104518D01*
X183313Y104287D01*
X178838D01*
X178759Y104518D01*
X178709Y104787D01*
X179266Y105513D01*
X179634Y106401D01*
X179760Y107355D01*
X179634Y108308D01*
X179266Y109197D01*
X178681Y109960D01*
X177918Y110546D01*
X177029Y110914D01*
X176075Y111039D01*
X175122Y110914D01*
X174233Y110546D01*
X173470Y109960D01*
X172885Y109197D01*
X172517Y108308D01*
X172391Y107355D01*
X172517Y106401D01*
X172885Y105513D01*
X173442Y104787D01*
X173392Y104518D01*
X173313Y104287D01*
X169334D01*
X169087Y104787D01*
X169528Y105361D01*
X169926Y106323D01*
X169997Y106855D01*
X162154D01*
X162224Y106323D01*
X162623Y105361D01*
X163064Y104787D01*
X162817Y104287D01*
X159334D01*
X159087Y104787D01*
X159528Y105361D01*
X159926Y106323D01*
X159996Y106855D01*
X152154D01*
X152224Y106323D01*
X152623Y105361D01*
X153064Y104787D01*
X152817Y104287D01*
X148838D01*
X148759Y104518D01*
X148709Y104787D01*
X149266Y105513D01*
X149634Y106401D01*
X149760Y107355D01*
X149634Y108308D01*
X149266Y109197D01*
X148681Y109960D01*
X147918Y110546D01*
X147029Y110914D01*
X146075Y111039D01*
X145122Y110914D01*
X144233Y110546D01*
X143470Y109960D01*
X142885Y109197D01*
X142517Y108308D01*
X142391Y107355D01*
X142517Y106401D01*
X142885Y105513D01*
X143442Y104787D01*
X143392Y104518D01*
X143313Y104287D01*
X139728D01*
Y111008D01*
X132423D01*
Y104287D01*
X104287D01*
Y436707D01*
X189310D01*
Y109961D01*
D02*
G37*
G36*
X395713Y104287D02*
X328838D01*
X328759Y104518D01*
X328709Y104787D01*
X329266Y105513D01*
X329634Y106401D01*
X329760Y107355D01*
X329634Y108308D01*
X329266Y109197D01*
X328681Y109960D01*
X327918Y110546D01*
X327029Y110914D01*
X326075Y111039D01*
X325122Y110914D01*
X324233Y110546D01*
X323470Y109960D01*
X322885Y109197D01*
X322517Y108308D01*
X322391Y107355D01*
X322517Y106401D01*
X322885Y105513D01*
X323442Y104787D01*
X323392Y104518D01*
X323313Y104287D01*
X319334D01*
X319087Y104787D01*
X319528Y105361D01*
X319926Y106323D01*
X319997Y106855D01*
X312154D01*
X312224Y106323D01*
X312623Y105361D01*
X313064Y104787D01*
X312817Y104287D01*
X308838D01*
X308759Y104518D01*
X308709Y104787D01*
X309266Y105513D01*
X309634Y106401D01*
X309760Y107355D01*
X309634Y108308D01*
X309266Y109197D01*
X308681Y109960D01*
X307918Y110546D01*
X307029Y110914D01*
X306075Y111039D01*
X305122Y110914D01*
X304233Y110546D01*
X303470Y109960D01*
X302885Y109197D01*
X302517Y108308D01*
X302391Y107355D01*
X302517Y106401D01*
X302885Y105513D01*
X303442Y104787D01*
X303392Y104518D01*
X303313Y104287D01*
X298838D01*
X298759Y104518D01*
X298709Y104787D01*
X299266Y105513D01*
X299634Y106401D01*
X299760Y107355D01*
X299634Y108308D01*
X299266Y109197D01*
X298681Y109960D01*
X297918Y110546D01*
X297029Y110914D01*
X296075Y111039D01*
X295122Y110914D01*
X294233Y110546D01*
X293470Y109960D01*
X292885Y109197D01*
X292517Y108308D01*
X292391Y107355D01*
X292517Y106401D01*
X292885Y105513D01*
X293442Y104787D01*
X293392Y104518D01*
X293313Y104287D01*
X288838D01*
X288759Y104518D01*
X288709Y104787D01*
X289266Y105513D01*
X289634Y106401D01*
X289760Y107355D01*
X289634Y108308D01*
X289266Y109197D01*
X288681Y109960D01*
X287918Y110546D01*
X287029Y110914D01*
X286075Y111039D01*
X285122Y110914D01*
X284233Y110546D01*
X283470Y109960D01*
X282885Y109197D01*
X282517Y108308D01*
X282391Y107355D01*
X282517Y106401D01*
X282885Y105513D01*
X283442Y104787D01*
X283392Y104518D01*
X283313Y104287D01*
X278838D01*
X278759Y104518D01*
X278709Y104787D01*
X279266Y105513D01*
X279634Y106401D01*
X279760Y107355D01*
X279634Y108308D01*
X279266Y109197D01*
X278681Y109960D01*
X277918Y110546D01*
X277029Y110914D01*
X276075Y111039D01*
X275122Y110914D01*
X274233Y110546D01*
X273470Y109960D01*
X272885Y109197D01*
X272517Y108308D01*
X272391Y107355D01*
X272517Y106401D01*
X272885Y105513D01*
X273442Y104787D01*
X273392Y104518D01*
X273313Y104287D01*
X268838D01*
X268759Y104518D01*
X268709Y104787D01*
X269266Y105513D01*
X269634Y106401D01*
X269760Y107355D01*
X269634Y108308D01*
X269266Y109197D01*
X268681Y109960D01*
X267918Y110546D01*
X267029Y110914D01*
X266075Y111039D01*
X265122Y110914D01*
X264233Y110546D01*
X263470Y109960D01*
X262885Y109197D01*
X262517Y108308D01*
X262391Y107355D01*
X262517Y106401D01*
X262885Y105513D01*
X263442Y104787D01*
X263392Y104518D01*
X263313Y104287D01*
X258838D01*
X258759Y104518D01*
X258709Y104787D01*
X259266Y105513D01*
X259634Y106401D01*
X259760Y107355D01*
X259634Y108308D01*
X259266Y109197D01*
X258681Y109960D01*
X257918Y110546D01*
X257029Y110914D01*
X256075Y111039D01*
X255122Y110914D01*
X254233Y110546D01*
X253470Y109960D01*
X252885Y109197D01*
X252517Y108308D01*
X252391Y107355D01*
X252517Y106401D01*
X252885Y105513D01*
X253442Y104787D01*
X253392Y104518D01*
X253313Y104287D01*
X248838D01*
X248759Y104518D01*
X248709Y104787D01*
X249266Y105513D01*
X249634Y106401D01*
X249760Y107355D01*
X249634Y108308D01*
X249266Y109197D01*
X248681Y109960D01*
X247918Y110546D01*
X247029Y110914D01*
X246075Y111039D01*
X245122Y110914D01*
X244233Y110546D01*
X243470Y109960D01*
X242885Y109197D01*
X242517Y108308D01*
X242391Y107355D01*
X242517Y106401D01*
X242885Y105513D01*
X243442Y104787D01*
X243392Y104518D01*
X243313Y104287D01*
X238838D01*
X238759Y104518D01*
X238709Y104787D01*
X239266Y105513D01*
X239634Y106401D01*
X239760Y107355D01*
X239634Y108308D01*
X239266Y109197D01*
X238681Y109960D01*
X237918Y110546D01*
X237029Y110914D01*
X236075Y111039D01*
X235122Y110914D01*
X234233Y110546D01*
X233470Y109960D01*
X233044Y109405D01*
X232544Y109575D01*
X232797Y436707D01*
X395713D01*
Y104287D01*
D02*
G37*
G36*
X231039D02*
X228838D01*
X228759Y104518D01*
X228709Y104787D01*
X229266Y105513D01*
X229634Y106401D01*
X229760Y107355D01*
X229634Y108308D01*
X229266Y109197D01*
X228681Y109960D01*
X227918Y110546D01*
X227029Y110914D01*
X226075Y111039D01*
X225122Y110914D01*
X224233Y110546D01*
X223470Y109960D01*
X222885Y109197D01*
X222517Y108308D01*
X222391Y107355D01*
X222517Y106401D01*
X222885Y105513D01*
X223442Y104787D01*
X223392Y104518D01*
X223313Y104287D01*
X218838D01*
X218759Y104518D01*
X218709Y104787D01*
X219266Y105513D01*
X219634Y106401D01*
X219760Y107355D01*
X219634Y108308D01*
X219266Y109197D01*
X218681Y109960D01*
X217918Y110546D01*
X217029Y110914D01*
X216075Y111039D01*
X215122Y110914D01*
X214233Y110546D01*
X213470Y109960D01*
X212885Y109197D01*
X212517Y108308D01*
X212391Y107355D01*
X212517Y106401D01*
X212885Y105513D01*
X213442Y104787D01*
X213392Y104518D01*
X213313Y104287D01*
X208838D01*
X208759Y104518D01*
X208709Y104787D01*
X209266Y105513D01*
X209634Y106401D01*
X209760Y107355D01*
X209634Y108308D01*
X209266Y109197D01*
X208681Y109960D01*
X207918Y110546D01*
X207029Y110914D01*
X206075Y111039D01*
X205122Y110914D01*
X204233Y110546D01*
X203470Y109960D01*
X202885Y109197D01*
X202517Y108308D01*
X202391Y107355D01*
X202517Y106401D01*
X202885Y105513D01*
X203442Y104787D01*
X203392Y104518D01*
X203313Y104287D01*
X198838D01*
X198759Y104518D01*
X198709Y104787D01*
X199266Y105513D01*
X199634Y106401D01*
X199760Y107355D01*
X199634Y108308D01*
X199266Y109197D01*
X198681Y109960D01*
X197918Y110546D01*
X197029Y110914D01*
X196075Y111039D01*
X195122Y110914D01*
X194233Y110546D01*
X193470Y109960D01*
X192885Y109197D01*
X192517Y108308D01*
X192391Y107355D01*
X192517Y106401D01*
X192885Y105513D01*
X193442Y104787D01*
X193392Y104518D01*
X193313Y104287D01*
X191244D01*
X190891Y104640D01*
X191148Y436707D01*
X231039D01*
Y104287D01*
D02*
G37*
%LPC*%
G36*
X308278Y148369D02*
X306634D01*
Y146726D01*
X306992Y146797D01*
X307720Y147283D01*
X308206Y148011D01*
X308278Y148369D01*
D02*
G37*
G36*
X305634D02*
X303990D01*
X304062Y148011D01*
X304548Y147283D01*
X305276Y146797D01*
X305634Y146726D01*
Y148369D01*
D02*
G37*
G36*
Y151013D02*
X305276Y150942D01*
X304548Y150455D01*
X304062Y149728D01*
X303990Y149369D01*
X305634D01*
Y151013D01*
D02*
G37*
G36*
X128173Y153430D02*
X124720D01*
Y149978D01*
X128173D01*
Y153430D01*
D02*
G37*
G36*
X123720D02*
X120267D01*
Y149978D01*
X123720D01*
Y153430D01*
D02*
G37*
G36*
X306634Y151013D02*
Y149369D01*
X308278D01*
X308206Y149728D01*
X307720Y150455D01*
X306992Y150942D01*
X306634Y151013D01*
D02*
G37*
G36*
X220191Y143738D02*
X219832Y143667D01*
X219105Y143180D01*
X218618Y142453D01*
X218547Y142094D01*
X220191D01*
Y143738D01*
D02*
G37*
G36*
X315380Y145842D02*
X314639Y145695D01*
X314010Y145275D01*
X313591Y144646D01*
X313443Y143905D01*
X313591Y143164D01*
X314010Y142535D01*
X314639Y142115D01*
X315380Y141968D01*
X316122Y142115D01*
X316750Y142535D01*
X317170Y143164D01*
X317317Y143905D01*
X317170Y144646D01*
X316750Y145275D01*
X316122Y145695D01*
X315380Y145842D01*
D02*
G37*
G36*
X298506Y143405D02*
X296863D01*
Y141761D01*
X297221Y141833D01*
X297949Y142319D01*
X298435Y143046D01*
X298506Y143405D01*
D02*
G37*
G36*
X221191Y143738D02*
Y142094D01*
X222834D01*
X222763Y142453D01*
X222277Y143180D01*
X221549Y143667D01*
X221191Y143738D01*
D02*
G37*
G36*
X336701Y149133D02*
X335959Y148985D01*
X335331Y148565D01*
X334911Y147937D01*
X334764Y147195D01*
X334911Y146454D01*
X335331Y145826D01*
X335959Y145406D01*
X336701Y145258D01*
X337442Y145406D01*
X338071Y145826D01*
X338491Y146454D01*
X338638Y147195D01*
X338491Y147937D01*
X338071Y148565D01*
X337442Y148985D01*
X336701Y149133D01*
D02*
G37*
G36*
X296863Y146049D02*
Y144405D01*
X298506D01*
X298435Y144763D01*
X297949Y145491D01*
X297221Y145977D01*
X296863Y146049D01*
D02*
G37*
G36*
X295863D02*
X295504Y145977D01*
X294777Y145491D01*
X294290Y144763D01*
X294219Y144405D01*
X295863D01*
Y146049D01*
D02*
G37*
G36*
X154220Y157615D02*
X153267Y157489D01*
X152378Y157121D01*
X151615Y156535D01*
X151030Y155772D01*
X150662Y154884D01*
X150536Y153930D01*
X150662Y152977D01*
X151030Y152088D01*
X151615Y151325D01*
X152378Y150740D01*
X153267Y150372D01*
X154220Y150246D01*
X155174Y150372D01*
X156062Y150740D01*
X156825Y151325D01*
X157411Y152088D01*
X157779Y152977D01*
X157905Y153930D01*
X157779Y154884D01*
X157411Y155772D01*
X156825Y156535D01*
X156062Y157121D01*
X155174Y157489D01*
X154220Y157615D01*
D02*
G37*
G36*
X314557Y170313D02*
X313815Y170166D01*
X313187Y169746D01*
X312767Y169117D01*
X312620Y168376D01*
X312767Y167634D01*
X313187Y167006D01*
X313815Y166586D01*
X314557Y166439D01*
X315298Y166586D01*
X315927Y167006D01*
X316347Y167634D01*
X316494Y168376D01*
X316347Y169117D01*
X315927Y169746D01*
X315298Y170166D01*
X314557Y170313D01*
D02*
G37*
G36*
X307057Y170205D02*
X306315Y170057D01*
X305687Y169637D01*
X305267Y169009D01*
X305120Y168267D01*
X305267Y167526D01*
X305687Y166898D01*
X306315Y166478D01*
X307057Y166330D01*
X307798Y166478D01*
X308427Y166898D01*
X308846Y167526D01*
X308994Y168267D01*
X308846Y169009D01*
X308427Y169637D01*
X307798Y170057D01*
X307057Y170205D01*
D02*
G37*
G36*
X181122Y165068D02*
Y163425D01*
X182765D01*
X182694Y163783D01*
X182208Y164511D01*
X181480Y164997D01*
X181122Y165068D01*
D02*
G37*
G36*
X368398Y176661D02*
X367657Y176513D01*
X367028Y176093D01*
X366609Y175465D01*
X366461Y174724D01*
X366609Y173982D01*
X367028Y173354D01*
X367657Y172934D01*
X368398Y172786D01*
X369140Y172934D01*
X369768Y173354D01*
X370188Y173982D01*
X370336Y174724D01*
X370188Y175465D01*
X369768Y176093D01*
X369140Y176513D01*
X368398Y176661D01*
D02*
G37*
G36*
X259616Y173748D02*
X258874Y173600D01*
X258246Y173180D01*
X257826Y172552D01*
X257679Y171811D01*
X257826Y171069D01*
X258246Y170441D01*
X258874Y170021D01*
X259616Y169873D01*
X260357Y170021D01*
X260986Y170441D01*
X261405Y171069D01*
X261553Y171811D01*
X261405Y172552D01*
X260986Y173180D01*
X260357Y173600D01*
X259616Y173748D01*
D02*
G37*
G36*
X378382Y176726D02*
X377403Y176597D01*
X376491Y176219D01*
X375708Y175618D01*
X375107Y174835D01*
X374729Y173923D01*
X374600Y172944D01*
X374729Y171965D01*
X375107Y171053D01*
X375708Y170269D01*
X376491Y169668D01*
X377403Y169290D01*
X378382Y169161D01*
X379361Y169290D01*
X380273Y169668D01*
X381057Y170269D01*
X381658Y171053D01*
X382036Y171965D01*
X382165Y172944D01*
X382036Y173923D01*
X381658Y174835D01*
X381057Y175618D01*
X380273Y176219D01*
X379361Y176597D01*
X378382Y176726D01*
D02*
G37*
G36*
X180122Y165068D02*
X179763Y164997D01*
X179036Y164511D01*
X178549Y163783D01*
X178478Y163425D01*
X180122D01*
Y165068D01*
D02*
G37*
G36*
X128173Y157883D02*
X124720D01*
Y154430D01*
X128173D01*
Y157883D01*
D02*
G37*
G36*
X123720D02*
X120267D01*
Y154430D01*
X123720D01*
Y157883D01*
D02*
G37*
G36*
X378382Y159403D02*
X377403Y159274D01*
X376491Y158897D01*
X375708Y158296D01*
X375107Y157512D01*
X374729Y156600D01*
X374600Y155621D01*
X374729Y154642D01*
X375107Y153730D01*
X375708Y152946D01*
X376491Y152345D01*
X377403Y151968D01*
X378382Y151839D01*
X379361Y151968D01*
X380273Y152345D01*
X381057Y152946D01*
X381658Y153730D01*
X382036Y154642D01*
X382165Y155621D01*
X382036Y156600D01*
X381658Y157512D01*
X381057Y158296D01*
X380273Y158897D01*
X379361Y159274D01*
X378382Y159403D01*
D02*
G37*
G36*
X182765Y162425D02*
X181122D01*
Y160781D01*
X181480Y160853D01*
X182208Y161339D01*
X182694Y162066D01*
X182765Y162425D01*
D02*
G37*
G36*
X180122D02*
X178478D01*
X178549Y162066D01*
X179036Y161339D01*
X179763Y160853D01*
X180122Y160781D01*
Y162425D01*
D02*
G37*
G36*
X201109Y161384D02*
X200368Y161237D01*
X199739Y160817D01*
X199320Y160188D01*
X199172Y159447D01*
X199320Y158705D01*
X199739Y158077D01*
X200368Y157657D01*
X201109Y157510D01*
X201851Y157657D01*
X202479Y158077D01*
X202899Y158705D01*
X203046Y159447D01*
X202899Y160188D01*
X202479Y160817D01*
X201851Y161237D01*
X201109Y161384D01*
D02*
G37*
G36*
X319931Y114026D02*
X319572Y113954D01*
X318845Y113468D01*
X318358Y112740D01*
X318287Y112382D01*
X319931D01*
Y114026D01*
D02*
G37*
G36*
Y111382D02*
X318287D01*
X318320Y111219D01*
X318305Y111195D01*
X317900Y110877D01*
X317107Y111206D01*
X316575Y111276D01*
Y107855D01*
X319997D01*
X319926Y108387D01*
X319546Y109305D01*
X319616Y109461D01*
X319846Y109755D01*
X319931Y109738D01*
Y111382D01*
D02*
G37*
G36*
X322574D02*
X320931D01*
Y109738D01*
X321289Y109810D01*
X322017Y110296D01*
X322503Y111024D01*
X322574Y111382D01*
D02*
G37*
G36*
X353023Y123717D02*
X352281Y123569D01*
X351653Y123149D01*
X351233Y122521D01*
X351086Y121780D01*
X351233Y121038D01*
X351653Y120410D01*
X352281Y119990D01*
X353023Y119842D01*
X353764Y119990D01*
X353977Y120132D01*
X354293Y119882D01*
X354364Y119789D01*
X354223Y119080D01*
X354370Y118338D01*
X354790Y117710D01*
X355419Y117290D01*
X356160Y117142D01*
X356902Y117290D01*
X357530Y117710D01*
X357950Y118338D01*
X358097Y119080D01*
X357950Y119821D01*
X357530Y120449D01*
X356902Y120869D01*
X356160Y121017D01*
X355419Y120869D01*
X355206Y120727D01*
X354889Y120977D01*
X354819Y121070D01*
X354960Y121780D01*
X354813Y122521D01*
X354393Y123149D01*
X353764Y123569D01*
X353023Y123717D01*
D02*
G37*
G36*
X220223Y116802D02*
X219482Y116655D01*
X218853Y116235D01*
X218433Y115606D01*
X218286Y114865D01*
X218433Y114124D01*
X218853Y113495D01*
X219482Y113075D01*
X220223Y112928D01*
X220964Y113075D01*
X221593Y113495D01*
X222013Y114124D01*
X222160Y114865D01*
X222013Y115606D01*
X221593Y116235D01*
X220964Y116655D01*
X220223Y116802D01*
D02*
G37*
G36*
X320931Y114026D02*
Y112382D01*
X322574D01*
X322503Y112740D01*
X322017Y113468D01*
X321289Y113954D01*
X320931Y114026D01*
D02*
G37*
G36*
X315575Y111276D02*
X315043Y111206D01*
X314082Y110808D01*
X313256Y110174D01*
X312623Y109348D01*
X312224Y108387D01*
X312154Y107855D01*
X315575D01*
Y111276D01*
D02*
G37*
G36*
X155575D02*
X155043Y111206D01*
X154082Y110808D01*
X153256Y110174D01*
X152623Y109348D01*
X152224Y108387D01*
X152154Y107855D01*
X155575D01*
Y111276D01*
D02*
G37*
G36*
X385000Y124044D02*
X383236Y123870D01*
X381539Y123355D01*
X379976Y122519D01*
X378605Y121395D01*
X377481Y120024D01*
X376645Y118461D01*
X376130Y116764D01*
X375957Y115000D01*
X376130Y113236D01*
X376645Y111539D01*
X377481Y109976D01*
X378605Y108605D01*
X379976Y107481D01*
X381539Y106645D01*
X383236Y106130D01*
X385000Y105956D01*
X386764Y106130D01*
X388461Y106645D01*
X390024Y107481D01*
X391395Y108605D01*
X392519Y109976D01*
X393355Y111539D01*
X393870Y113236D01*
X394044Y115000D01*
X393870Y116764D01*
X393355Y118461D01*
X392519Y120024D01*
X391395Y121395D01*
X390024Y122519D01*
X388461Y123355D01*
X386764Y123870D01*
X385000Y124044D01*
D02*
G37*
G36*
X115000D02*
X113236Y123870D01*
X111539Y123355D01*
X109976Y122519D01*
X108605Y121395D01*
X107481Y120024D01*
X106645Y118461D01*
X106130Y116764D01*
X105956Y115000D01*
X106130Y113236D01*
X106645Y111539D01*
X107481Y109976D01*
X108605Y108605D01*
X109976Y107481D01*
X111539Y106645D01*
X113236Y106130D01*
X115000Y105956D01*
X116764Y106130D01*
X118461Y106645D01*
X120024Y107481D01*
X121395Y108605D01*
X122519Y109976D01*
X123355Y111539D01*
X123870Y113236D01*
X124044Y115000D01*
X123870Y116764D01*
X123355Y118461D01*
X122519Y120024D01*
X121395Y121395D01*
X120024Y122519D01*
X118461Y123355D01*
X116764Y123870D01*
X115000Y124044D01*
D02*
G37*
G36*
X166575Y111276D02*
Y107855D01*
X169997D01*
X169926Y108387D01*
X169528Y109348D01*
X168895Y110174D01*
X168069Y110808D01*
X167107Y111206D01*
X166575Y111276D01*
D02*
G37*
G36*
X165575D02*
X165043Y111206D01*
X164082Y110808D01*
X163256Y110174D01*
X162623Y109348D01*
X162224Y108387D01*
X162154Y107855D01*
X165575D01*
Y111276D01*
D02*
G37*
G36*
X156575D02*
Y107855D01*
X159996D01*
X159926Y108387D01*
X159528Y109348D01*
X158895Y110174D01*
X158069Y110808D01*
X157107Y111206D01*
X156575Y111276D01*
D02*
G37*
G36*
X349764Y127313D02*
X349023Y127165D01*
X348394Y126745D01*
X347974Y126117D01*
X347827Y125375D01*
X347974Y124634D01*
X348394Y124006D01*
X349023Y123586D01*
X349764Y123438D01*
X350505Y123586D01*
X351134Y124006D01*
X351554Y124634D01*
X351701Y125375D01*
X351554Y126117D01*
X351134Y126745D01*
X350505Y127165D01*
X349764Y127313D01*
D02*
G37*
G36*
X222834Y141094D02*
X221191D01*
Y139451D01*
X221549Y139522D01*
X222277Y140008D01*
X222763Y140736D01*
X222834Y141094D01*
D02*
G37*
G36*
X220191D02*
X218547D01*
X218618Y140736D01*
X219105Y140008D01*
X219832Y139522D01*
X220191Y139451D01*
Y141094D01*
D02*
G37*
G36*
X265921Y136458D02*
Y134814D01*
X267565D01*
X267493Y135173D01*
X267007Y135900D01*
X266279Y136387D01*
X265921Y136458D01*
D02*
G37*
G36*
X295863Y143405D02*
X294219D01*
X294290Y143046D01*
X294777Y142319D01*
X295504Y141833D01*
X295863Y141761D01*
Y143405D01*
D02*
G37*
G36*
X244192Y144968D02*
X243451Y144820D01*
X242822Y144400D01*
X242402Y143772D01*
X242255Y143030D01*
X242402Y142289D01*
X242822Y141661D01*
X243451Y141241D01*
X244192Y141093D01*
X244933Y141241D01*
X245562Y141661D01*
X245982Y142289D01*
X246129Y143030D01*
X245982Y143772D01*
X245562Y144400D01*
X244933Y144820D01*
X244192Y144968D01*
D02*
G37*
G36*
X206685Y144048D02*
X205944Y143900D01*
X205315Y143480D01*
X204896Y142852D01*
X204748Y142110D01*
X204896Y141369D01*
X205315Y140741D01*
X205944Y140321D01*
X206685Y140173D01*
X207427Y140321D01*
X208055Y140741D01*
X208475Y141369D01*
X208623Y142110D01*
X208475Y142852D01*
X208055Y143480D01*
X207427Y143900D01*
X206685Y144048D01*
D02*
G37*
G36*
X264921Y136458D02*
X264563Y136387D01*
X263835Y135900D01*
X263349Y135173D01*
X263277Y134814D01*
X264921D01*
Y136458D01*
D02*
G37*
G36*
Y133814D02*
X263277D01*
X263349Y133456D01*
X263835Y132728D01*
X264563Y132242D01*
X264921Y132171D01*
Y133814D01*
D02*
G37*
G36*
X319493Y134836D02*
X318752Y134688D01*
X318124Y134268D01*
X317704Y133640D01*
X317556Y132899D01*
X317704Y132157D01*
X318124Y131529D01*
X318752Y131109D01*
X319493Y130961D01*
X320235Y131109D01*
X320863Y131529D01*
X321283Y132157D01*
X321431Y132899D01*
X321283Y133640D01*
X320863Y134268D01*
X320235Y134688D01*
X319493Y134836D01*
D02*
G37*
G36*
X346143Y130909D02*
X345402Y130761D01*
X344774Y130341D01*
X344354Y129713D01*
X344206Y128971D01*
X344354Y128230D01*
X344774Y127602D01*
X345402Y127181D01*
X346143Y127034D01*
X346885Y127181D01*
X347513Y127602D01*
X347933Y128230D01*
X348081Y128971D01*
X347933Y129713D01*
X347513Y130341D01*
X346885Y130761D01*
X346143Y130909D01*
D02*
G37*
G36*
X169492Y137531D02*
X168751Y137383D01*
X168122Y136963D01*
X167702Y136335D01*
X167555Y135594D01*
X167702Y134852D01*
X168122Y134224D01*
X168751Y133804D01*
X169492Y133657D01*
X170234Y133804D01*
X170862Y134224D01*
X171282Y134852D01*
X171429Y135594D01*
X171282Y136335D01*
X170862Y136963D01*
X170234Y137383D01*
X169492Y137531D01*
D02*
G37*
G36*
X237604Y136447D02*
X236863Y136300D01*
X236234Y135880D01*
X235814Y135251D01*
X235667Y134510D01*
X235814Y133769D01*
X236234Y133140D01*
X236863Y132720D01*
X237604Y132573D01*
X238345Y132720D01*
X238974Y133140D01*
X239394Y133769D01*
X239541Y134510D01*
X239394Y135251D01*
X238974Y135880D01*
X238345Y136300D01*
X237604Y136447D01*
D02*
G37*
G36*
X267565Y133814D02*
X265921D01*
Y132171D01*
X266279Y132242D01*
X267007Y132728D01*
X267493Y133456D01*
X267565Y133814D01*
D02*
G37*
G36*
X300425Y258570D02*
X299684Y258422D01*
X299055Y258002D01*
X298635Y257374D01*
X298488Y256632D01*
X298635Y255891D01*
X299055Y255263D01*
X299684Y254843D01*
X300425Y254695D01*
X301166Y254843D01*
X301795Y255263D01*
X301985Y255547D01*
X302516Y255442D01*
X302533Y255359D01*
X302952Y254730D01*
X303581Y254310D01*
X304322Y254163D01*
X305064Y254310D01*
X305692Y254730D01*
X306112Y255359D01*
X306259Y256100D01*
X306112Y256841D01*
X305692Y257470D01*
X305064Y257890D01*
X304322Y258037D01*
X303581Y257890D01*
X302952Y257470D01*
X302762Y257185D01*
X302231Y257291D01*
X302215Y257374D01*
X301795Y258002D01*
X301166Y258422D01*
X300425Y258570D01*
D02*
G37*
G36*
X325183Y248492D02*
X324441Y248344D01*
X323813Y247924D01*
X323393Y247296D01*
X323246Y246554D01*
X323393Y245813D01*
X323813Y245185D01*
X324441Y244765D01*
X325183Y244617D01*
X325924Y244765D01*
X326553Y245185D01*
X326973Y245813D01*
X327120Y246554D01*
X326973Y247296D01*
X326553Y247924D01*
X325924Y248344D01*
X325183Y248492D01*
D02*
G37*
G36*
X272323Y243496D02*
X271582Y243349D01*
X270953Y242929D01*
X270533Y242300D01*
X270386Y241559D01*
X270533Y240817D01*
X270953Y240189D01*
X271582Y239769D01*
X272323Y239621D01*
X273065Y239769D01*
X273693Y240189D01*
X274113Y240817D01*
X274260Y241559D01*
X274113Y242300D01*
X273693Y242929D01*
X273065Y243349D01*
X272323Y243496D01*
D02*
G37*
G36*
X325036Y257577D02*
X323392D01*
X323463Y257219D01*
X323949Y256491D01*
X324677Y256005D01*
X325036Y255934D01*
Y257577D01*
D02*
G37*
G36*
X326035Y260221D02*
Y258577D01*
X327679D01*
X327608Y258936D01*
X327122Y259663D01*
X326394Y260150D01*
X326035Y260221D01*
D02*
G37*
G36*
X325036D02*
X324677Y260150D01*
X323949Y259663D01*
X323463Y258936D01*
X323392Y258577D01*
X325036D01*
Y260221D01*
D02*
G37*
G36*
X327679Y257577D02*
X326035D01*
Y255934D01*
X326394Y256005D01*
X327122Y256491D01*
X327608Y257219D01*
X327679Y257577D01*
D02*
G37*
G36*
X384369Y240856D02*
Y237435D01*
X387790D01*
X387720Y237966D01*
X387322Y238928D01*
X386688Y239754D01*
X385863Y240387D01*
X384901Y240786D01*
X384369Y240856D01*
D02*
G37*
G36*
X383369D02*
X382837Y240786D01*
X381876Y240387D01*
X381050Y239754D01*
X380417Y238928D01*
X380018Y237966D01*
X379948Y237435D01*
X383369D01*
Y240856D01*
D02*
G37*
G36*
X307197Y240551D02*
X306455Y240404D01*
X305827Y239984D01*
X305407Y239355D01*
X305259Y238614D01*
X305407Y237873D01*
X305827Y237244D01*
X306455Y236824D01*
X307197Y236677D01*
X307938Y236824D01*
X308566Y237244D01*
X308986Y237873D01*
X309134Y238614D01*
X308986Y239355D01*
X308566Y239984D01*
X307938Y240404D01*
X307197Y240551D01*
D02*
G37*
G36*
X391565Y239078D02*
X391206Y239007D01*
X390478Y238521D01*
X389992Y237793D01*
X389921Y237435D01*
X391565D01*
Y239078D01*
D02*
G37*
G36*
X267768Y243305D02*
X267026Y243158D01*
X266398Y242738D01*
X265978Y242109D01*
X265830Y241368D01*
X265978Y240627D01*
X266398Y239998D01*
X267026Y239578D01*
X267768Y239431D01*
X268509Y239578D01*
X269137Y239998D01*
X269557Y240627D01*
X269705Y241368D01*
X269557Y242109D01*
X269137Y242738D01*
X268509Y243158D01*
X267768Y243305D01*
D02*
G37*
G36*
X359044Y242262D02*
X358303Y242115D01*
X357674Y241695D01*
X357254Y241067D01*
X357107Y240325D01*
X357254Y239584D01*
X357674Y238955D01*
X358303Y238535D01*
X359044Y238388D01*
X359786Y238535D01*
X360414Y238955D01*
X360834Y239584D01*
X360981Y240325D01*
X360834Y241067D01*
X360414Y241695D01*
X359786Y242115D01*
X359044Y242262D01*
D02*
G37*
G36*
X392565Y239078D02*
Y237435D01*
X394208D01*
X394137Y237793D01*
X393651Y238521D01*
X392923Y239007D01*
X392565Y239078D01*
D02*
G37*
G36*
X301096Y273203D02*
X300355Y273056D01*
X299726Y272636D01*
X299307Y272007D01*
X299159Y271266D01*
X299307Y270525D01*
X299726Y269896D01*
X300355Y269476D01*
X301096Y269329D01*
X301838Y269476D01*
X302466Y269896D01*
X302886Y270525D01*
X303033Y271266D01*
X302886Y272007D01*
X302466Y272636D01*
X301838Y273056D01*
X301096Y273203D01*
D02*
G37*
G36*
X292039Y272613D02*
X291298Y272465D01*
X290669Y272045D01*
X290249Y271417D01*
X290102Y270676D01*
X290249Y269934D01*
X290669Y269306D01*
X291298Y268886D01*
X292039Y268738D01*
X292780Y268886D01*
X293409Y269306D01*
X293829Y269934D01*
X293976Y270676D01*
X293829Y271417D01*
X293409Y272045D01*
X292780Y272465D01*
X292039Y272613D01*
D02*
G37*
G36*
X260275Y270747D02*
X259533Y270599D01*
X258905Y270180D01*
X258485Y269551D01*
X258337Y268810D01*
X258485Y268068D01*
X258905Y267440D01*
X259533Y267020D01*
X260275Y266873D01*
X261016Y267020D01*
X261644Y267440D01*
X262064Y268068D01*
X262212Y268810D01*
X262064Y269551D01*
X261644Y270180D01*
X261016Y270599D01*
X260275Y270747D01*
D02*
G37*
G36*
X337377Y275794D02*
X336636Y275646D01*
X336008Y275226D01*
X335588Y274598D01*
X335440Y273856D01*
X335588Y273115D01*
X336008Y272486D01*
X336636Y272067D01*
X337377Y271919D01*
X338119Y272067D01*
X338747Y272486D01*
X339167Y273115D01*
X339315Y273856D01*
X339167Y274598D01*
X338747Y275226D01*
X338119Y275646D01*
X337377Y275794D01*
D02*
G37*
G36*
X385000Y435037D02*
X383236Y434864D01*
X381539Y434349D01*
X379976Y433513D01*
X378605Y432388D01*
X377481Y431018D01*
X376645Y429455D01*
X376130Y427758D01*
X375957Y425994D01*
X376130Y424229D01*
X376645Y422533D01*
X377481Y420969D01*
X378605Y419599D01*
X379976Y418474D01*
X381539Y417639D01*
X383236Y417124D01*
X385000Y416950D01*
X386764Y417124D01*
X388461Y417639D01*
X390024Y418474D01*
X391395Y419599D01*
X392519Y420969D01*
X393355Y422533D01*
X393870Y424229D01*
X394044Y425994D01*
X393870Y427758D01*
X393355Y429455D01*
X392519Y431018D01*
X391395Y432388D01*
X390024Y433513D01*
X388461Y434349D01*
X386764Y434864D01*
X385000Y435037D01*
D02*
G37*
G36*
X115000D02*
X113236Y434864D01*
X111539Y434349D01*
X109976Y433513D01*
X108605Y432388D01*
X107481Y431018D01*
X106645Y429455D01*
X106130Y427758D01*
X105956Y425994D01*
X106130Y424229D01*
X106645Y422533D01*
X107481Y420969D01*
X108605Y419599D01*
X109976Y418474D01*
X111539Y417639D01*
X113236Y417124D01*
X115000Y416950D01*
X116764Y417124D01*
X118461Y417639D01*
X120024Y418474D01*
X121395Y419599D01*
X122519Y420969D01*
X123355Y422533D01*
X123870Y424229D01*
X124044Y425994D01*
X123870Y427758D01*
X123355Y429455D01*
X122519Y431018D01*
X121395Y432388D01*
X120024Y433513D01*
X118461Y434349D01*
X116764Y434864D01*
X115000Y435037D01*
D02*
G37*
G36*
X298298Y276913D02*
X297557Y276766D01*
X296928Y276346D01*
X296574Y275816D01*
X296191Y275747D01*
X296008Y275764D01*
X295888Y275943D01*
X295260Y276363D01*
X294518Y276511D01*
X293777Y276363D01*
X293148Y275943D01*
X292728Y275315D01*
X292581Y274574D01*
X292728Y273832D01*
X293148Y273204D01*
X293777Y272784D01*
X294518Y272636D01*
X295260Y272784D01*
X295888Y273204D01*
X296242Y273733D01*
X296625Y273803D01*
X296809Y273786D01*
X296928Y273606D01*
X297557Y273186D01*
X298298Y273039D01*
X299040Y273186D01*
X299668Y273606D01*
X300088Y274235D01*
X300235Y274976D01*
X300088Y275718D01*
X299668Y276346D01*
X299040Y276766D01*
X298298Y276913D01*
D02*
G37*
G36*
X281229Y263747D02*
X279586D01*
Y262103D01*
X279944Y262174D01*
X280672Y262661D01*
X281158Y263388D01*
X281229Y263747D01*
D02*
G37*
G36*
X278586D02*
X276942D01*
X277013Y263388D01*
X277500Y262661D01*
X278227Y262174D01*
X278586Y262103D01*
Y263747D01*
D02*
G37*
G36*
X260306Y262819D02*
X259564Y262672D01*
X258936Y262252D01*
X258516Y261623D01*
X258368Y260882D01*
X258516Y260141D01*
X258936Y259512D01*
X259564Y259092D01*
X260306Y258945D01*
X261047Y259092D01*
X261675Y259512D01*
X262095Y260141D01*
X262243Y260882D01*
X262095Y261623D01*
X261675Y262252D01*
X261047Y262672D01*
X260306Y262819D01*
D02*
G37*
G36*
X292083Y266314D02*
X291342Y266166D01*
X290713Y265746D01*
X290294Y265118D01*
X290146Y264376D01*
X290294Y263635D01*
X290713Y263007D01*
X291342Y262587D01*
X292083Y262439D01*
X292825Y262587D01*
X293453Y263007D01*
X293873Y263635D01*
X294020Y264376D01*
X293873Y265118D01*
X293453Y265746D01*
X292825Y266166D01*
X292083Y266314D01*
D02*
G37*
G36*
X313250Y269463D02*
X312509Y269316D01*
X311881Y268896D01*
X311461Y268267D01*
X311313Y267526D01*
X311461Y266785D01*
X311881Y266156D01*
X312509Y265736D01*
X313250Y265589D01*
X313992Y265736D01*
X314620Y266156D01*
X315040Y266785D01*
X315188Y267526D01*
X315040Y268267D01*
X314620Y268896D01*
X313992Y269316D01*
X313250Y269463D01*
D02*
G37*
G36*
X279586Y266390D02*
Y264747D01*
X281229D01*
X281158Y265105D01*
X280672Y265833D01*
X279944Y266319D01*
X279586Y266390D01*
D02*
G37*
G36*
X278586D02*
X278227Y266319D01*
X277500Y265833D01*
X277013Y265105D01*
X276942Y264747D01*
X278586D01*
Y266390D01*
D02*
G37*
G36*
X353023Y238872D02*
X352281Y238725D01*
X351653Y238305D01*
X351233Y237676D01*
X351086Y236935D01*
X351233Y236194D01*
X351653Y235565D01*
X352281Y235145D01*
X353023Y234998D01*
X353764Y235145D01*
X354393Y235565D01*
X354813Y236194D01*
X354960Y236935D01*
X354813Y237676D01*
X354393Y238305D01*
X353764Y238725D01*
X353023Y238872D01*
D02*
G37*
G36*
X304627Y205738D02*
X303879Y205640D01*
X303182Y205351D01*
X302583Y204892D01*
X302124Y204293D01*
X301835Y203596D01*
X301737Y202848D01*
X301835Y202100D01*
X302124Y201403D01*
X302583Y200805D01*
X303182Y200345D01*
X303879Y200057D01*
X304627Y199958D01*
X305375Y200057D01*
X306072Y200345D01*
X306670Y200805D01*
X307130Y201403D01*
X307418Y202100D01*
X307517Y202848D01*
X307418Y203596D01*
X307130Y204293D01*
X306670Y204892D01*
X306072Y205351D01*
X305375Y205640D01*
X304627Y205738D01*
D02*
G37*
G36*
X197464Y195584D02*
Y193940D01*
X199107D01*
X199036Y194299D01*
X198550Y195026D01*
X197822Y195512D01*
X197464Y195584D01*
D02*
G37*
G36*
X196464D02*
X196105Y195512D01*
X195378Y195026D01*
X194891Y194299D01*
X194820Y193940D01*
X196464D01*
Y195584D01*
D02*
G37*
G36*
X323839Y205738D02*
X323091Y205640D01*
X322394Y205351D01*
X321796Y204892D01*
X321337Y204293D01*
X321048Y203596D01*
X320949Y202848D01*
X321048Y202100D01*
X321337Y201403D01*
X321796Y200805D01*
X322394Y200345D01*
X323091Y200057D01*
X323839Y199958D01*
X324587Y200057D01*
X325285Y200345D01*
X325883Y200805D01*
X326342Y201403D01*
X326631Y202100D01*
X326729Y202848D01*
X326631Y203596D01*
X326342Y204293D01*
X325883Y204892D01*
X325285Y205351D01*
X324587Y205640D01*
X323839Y205738D01*
D02*
G37*
G36*
X391921Y218872D02*
X391180Y218724D01*
X390551Y218304D01*
X390131Y217676D01*
X389984Y216935D01*
X390131Y216193D01*
X390551Y215565D01*
X391180Y215145D01*
X391921Y214997D01*
X392663Y215145D01*
X393291Y215565D01*
X393711Y216193D01*
X393859Y216935D01*
X393711Y217676D01*
X393291Y218304D01*
X392663Y218724D01*
X391921Y218872D01*
D02*
G37*
G36*
X387522Y220587D02*
X380217D01*
Y213282D01*
X387522D01*
Y220587D01*
D02*
G37*
G36*
X373869Y220619D02*
X372916Y220493D01*
X372027Y220125D01*
X371264Y219540D01*
X370679Y218777D01*
X370311Y217888D01*
X370185Y216935D01*
X370311Y215981D01*
X370679Y215092D01*
X371264Y214330D01*
X372027Y213744D01*
X372916Y213376D01*
X373869Y213250D01*
X374823Y213376D01*
X375711Y213744D01*
X376474Y214330D01*
X377060Y215092D01*
X377428Y215981D01*
X377554Y216935D01*
X377428Y217888D01*
X377060Y218777D01*
X376474Y219540D01*
X375711Y220125D01*
X374823Y220493D01*
X373869Y220619D01*
D02*
G37*
G36*
X311557Y181981D02*
X311198Y181909D01*
X310471Y181423D01*
X309984Y180695D01*
X309913Y180337D01*
X311557D01*
Y181981D01*
D02*
G37*
G36*
X314200Y179337D02*
X312557D01*
Y177693D01*
X312915Y177765D01*
X313643Y178251D01*
X314129Y178979D01*
X314200Y179337D01*
D02*
G37*
G36*
X311557D02*
X309913D01*
X309984Y178979D01*
X310471Y178251D01*
X311198Y177765D01*
X311557Y177693D01*
Y179337D01*
D02*
G37*
G36*
X312557Y181981D02*
Y180337D01*
X314200D01*
X314129Y180695D01*
X313643Y181423D01*
X312915Y181909D01*
X312557Y181981D01*
D02*
G37*
G36*
X199107Y192940D02*
X197464D01*
Y191296D01*
X197822Y191368D01*
X198550Y191854D01*
X199036Y192582D01*
X199107Y192940D01*
D02*
G37*
G36*
X196464D02*
X194820D01*
X194891Y192582D01*
X195378Y191854D01*
X196105Y191368D01*
X196464Y191296D01*
Y192940D01*
D02*
G37*
G36*
X336704Y184532D02*
X335963Y184385D01*
X335334Y183965D01*
X334914Y183336D01*
X334767Y182595D01*
X334914Y181854D01*
X335334Y181225D01*
X335963Y180805D01*
X336704Y180658D01*
X337445Y180805D01*
X338074Y181225D01*
X338494Y181854D01*
X338641Y182595D01*
X338494Y183336D01*
X338074Y183965D01*
X337445Y184385D01*
X336704Y184532D01*
D02*
G37*
G36*
X387790Y236435D02*
X384369D01*
Y233014D01*
X384901Y233084D01*
X385863Y233482D01*
X386688Y234116D01*
X387322Y234941D01*
X387720Y235903D01*
X387790Y236435D01*
D02*
G37*
G36*
X383369D02*
X379948D01*
X380018Y235903D01*
X380417Y234941D01*
X381050Y234116D01*
X381876Y233482D01*
X382837Y233084D01*
X383369Y233014D01*
Y236435D01*
D02*
G37*
G36*
X349764Y234660D02*
X349023Y234513D01*
X348394Y234093D01*
X347974Y233464D01*
X347827Y232723D01*
X347974Y231982D01*
X348394Y231353D01*
X349023Y230933D01*
X349764Y230786D01*
X350505Y230933D01*
X351134Y231353D01*
X351554Y231982D01*
X351701Y232723D01*
X351554Y233464D01*
X351134Y234093D01*
X350505Y234513D01*
X349764Y234660D01*
D02*
G37*
G36*
X373869Y240619D02*
X372916Y240493D01*
X372027Y240125D01*
X371264Y239540D01*
X370679Y238777D01*
X370311Y237888D01*
X370185Y236935D01*
X370311Y235981D01*
X370679Y235092D01*
X371264Y234330D01*
X372027Y233744D01*
X372916Y233376D01*
X373869Y233250D01*
X374823Y233376D01*
X375711Y233744D01*
X376474Y234330D01*
X377060Y235092D01*
X377428Y235981D01*
X377554Y236935D01*
X377428Y237888D01*
X377060Y238777D01*
X376474Y239540D01*
X375711Y240125D01*
X374823Y240493D01*
X373869Y240619D01*
D02*
G37*
G36*
X264035Y238737D02*
X263294Y238589D01*
X262665Y238169D01*
X262245Y237541D01*
X262098Y236799D01*
X262245Y236058D01*
X262665Y235430D01*
X263294Y235010D01*
X264035Y234862D01*
X264776Y235010D01*
X265405Y235430D01*
X265825Y236058D01*
X265972Y236799D01*
X265825Y237541D01*
X265405Y238169D01*
X264776Y238589D01*
X264035Y238737D01*
D02*
G37*
G36*
X394208Y236435D02*
X392565D01*
Y234791D01*
X392923Y234862D01*
X393651Y235349D01*
X394137Y236076D01*
X394208Y236435D01*
D02*
G37*
G36*
X391565D02*
X389921D01*
X389992Y236076D01*
X390478Y235349D01*
X391206Y234862D01*
X391565Y234791D01*
Y236435D01*
D02*
G37*
G36*
X346143Y225694D02*
X345402Y225547D01*
X344774Y225127D01*
X344354Y224499D01*
X344206Y223757D01*
X344354Y223016D01*
X344774Y222387D01*
X345402Y221967D01*
X346143Y221820D01*
X346885Y221967D01*
X347513Y222387D01*
X347933Y223016D01*
X348081Y223757D01*
X347933Y224499D01*
X347513Y225127D01*
X346885Y225547D01*
X346143Y225694D01*
D02*
G37*
G36*
X339654Y220365D02*
X338912Y220218D01*
X338284Y219798D01*
X337864Y219169D01*
X337716Y218428D01*
X337864Y217687D01*
X338284Y217058D01*
X338912Y216638D01*
X339654Y216491D01*
X340395Y216638D01*
X341023Y217058D01*
X341443Y217687D01*
X341591Y218428D01*
X341443Y219169D01*
X341023Y219798D01*
X340395Y220218D01*
X339654Y220365D01*
D02*
G37*
G36*
X289212Y220133D02*
X288470Y219986D01*
X287842Y219566D01*
X287422Y218937D01*
X287274Y218196D01*
X287422Y217454D01*
X287842Y216826D01*
X288470Y216406D01*
X289212Y216259D01*
X289953Y216406D01*
X290581Y216826D01*
X291001Y217454D01*
X291149Y218196D01*
X291001Y218937D01*
X290581Y219566D01*
X289953Y219986D01*
X289212Y220133D01*
D02*
G37*
G36*
X373869Y230619D02*
X372916Y230493D01*
X372027Y230125D01*
X371264Y229540D01*
X370679Y228777D01*
X370311Y227888D01*
X370185Y226935D01*
X370311Y225981D01*
X370679Y225093D01*
X371264Y224329D01*
X372027Y223744D01*
X372916Y223376D01*
X373869Y223250D01*
X374823Y223376D01*
X375711Y223744D01*
X376474Y224329D01*
X377060Y225093D01*
X377428Y225981D01*
X377554Y226935D01*
X377428Y227888D01*
X377060Y228777D01*
X376474Y229540D01*
X375711Y230125D01*
X374823Y230493D01*
X373869Y230619D01*
D02*
G37*
G36*
X257985Y231283D02*
X257243Y231135D01*
X256615Y230715D01*
X256195Y230087D01*
X256048Y229345D01*
X256195Y228604D01*
X256615Y227976D01*
X257243Y227556D01*
X257985Y227408D01*
X258726Y227556D01*
X259355Y227976D01*
X259774Y228604D01*
X259922Y229345D01*
X259774Y230087D01*
X259355Y230715D01*
X258726Y231135D01*
X257985Y231283D01*
D02*
G37*
G36*
X359044Y228872D02*
X358303Y228724D01*
X357674Y228305D01*
X357254Y227676D01*
X357107Y226935D01*
X357254Y226193D01*
X357674Y225565D01*
X358303Y225145D01*
X359044Y224997D01*
X359786Y225145D01*
X360414Y225565D01*
X360834Y226193D01*
X360981Y226935D01*
X360834Y227676D01*
X360414Y228305D01*
X359786Y228724D01*
X359044Y228872D01*
D02*
G37*
G36*
X383869Y230619D02*
X382916Y230493D01*
X382027Y230125D01*
X381264Y229540D01*
X380679Y228777D01*
X380311Y227888D01*
X380185Y226935D01*
X380311Y225981D01*
X380679Y225093D01*
X381264Y224329D01*
X382027Y223744D01*
X382916Y223376D01*
X383869Y223250D01*
X384823Y223376D01*
X385711Y223744D01*
X386474Y224329D01*
X387060Y225093D01*
X387428Y225981D01*
X387554Y226935D01*
X387428Y227888D01*
X387060Y228777D01*
X386474Y229540D01*
X385711Y230125D01*
X384823Y230493D01*
X383869Y230619D01*
D02*
G37*
%LPD*%
D23*
Y236935D02*
D03*
X156075Y107355D02*
D03*
X166075D02*
D03*
X316075D02*
D03*
D24*
X124220Y153930D02*
D03*
D30*
X265421Y134314D02*
D03*
X306134Y148869D02*
D03*
X296363Y143905D02*
D03*
X312057Y179837D02*
D03*
X392065Y236935D02*
D03*
X279086Y264247D02*
D03*
X325535Y258077D02*
D03*
X320431Y111882D02*
D03*
X220691Y141594D02*
D03*
X196964Y193440D02*
D03*
X180622Y162925D02*
D03*
M02*
