%FSLAX25Y25*%
%MOIN*%
G70*
G01*
G75*
G04 Layer_Color=255*
%ADD10R,0.04134X0.05118*%
%ADD11R,0.05118X0.04134*%
%ADD12R,0.10000X0.10000*%
%ADD13R,0.09055X0.01969*%
%ADD14R,0.09843X0.07874*%
%ADD15O,0.02362X0.07677*%
%ADD16O,0.07677X0.02362*%
%ADD17R,0.01400X0.06000*%
%ADD18C,0.03937*%
%ADD19C,0.01500*%
%ADD20C,0.03000*%
%ADD21C,0.01000*%
%ADD22R,0.05906X0.05906*%
%ADD23C,0.05906*%
%ADD24R,0.05906X0.05906*%
%ADD25C,0.05906*%
%ADD26C,0.04331*%
%ADD27R,0.05906X0.05906*%
%ADD28C,0.04500*%
%ADD29C,0.15000*%
%ADD30C,0.02400*%
D22*
X383869Y216935D02*
D03*
D23*
X373869D02*
D03*
X383869Y226935D02*
D03*
X373869D02*
D03*
X383869Y236935D02*
D03*
X373869D02*
D03*
X146075Y107355D02*
D03*
X156075D02*
D03*
X166075D02*
D03*
X176075D02*
D03*
X186075D02*
D03*
X196075D02*
D03*
X206075D02*
D03*
X216075D02*
D03*
X226075D02*
D03*
X236075D02*
D03*
X246075D02*
D03*
X256075D02*
D03*
X266075D02*
D03*
X276075D02*
D03*
X286075D02*
D03*
X296075D02*
D03*
X306075D02*
D03*
X316075D02*
D03*
X326075D02*
D03*
D24*
X124220Y153930D02*
D03*
D25*
X154220D02*
D03*
D26*
X323839Y202848D02*
D03*
X304627D02*
D03*
D27*
X136075Y107355D02*
D03*
M02*
