%FSLAX25Y25*%
%MOIN*%
G70*
G01*
G75*
%ADD10R,0.04134X0.05118*%
%ADD11R,0.05118X0.04134*%
%ADD12R,0.10000X0.10000*%
%ADD13R,0.09055X0.01969*%
%ADD14R,0.09843X0.07874*%
%ADD15O,0.02362X0.07677*%
%ADD16O,0.07677X0.02362*%
%ADD17R,0.01400X0.06000*%
%ADD18C,0.03937*%
%ADD19C,0.01500*%
%ADD20C,0.03000*%
%ADD21C,0.01000*%
%ADD22R,0.05906X0.05906*%
%ADD23C,0.05906*%
%ADD24R,0.05906X0.05906*%
%ADD25C,0.05906*%
%ADD26C,0.04331*%
%ADD27R,0.05906X0.05906*%
%ADD28C,0.04500*%
%ADD29C,0.15000*%
%ADD30C,0.02400*%
%ADD31C,0.00787*%
%ADD32C,0.02000*%
%ADD33C,0.02362*%
%ADD34C,0.00984*%
%ADD35C,0.00200*%
%ADD36C,0.00800*%
%ADD37C,0.01200*%
%ADD38C,0.00591*%
%ADD39R,0.03607X0.07933*%
%ADD40R,0.04934X0.05918*%
%ADD41R,0.05918X0.04934*%
%ADD42R,0.10800X0.10800*%
%ADD43R,0.09855X0.02769*%
%ADD44R,0.10642X0.08674*%
%ADD45O,0.03162X0.08477*%
%ADD46O,0.08477X0.03162*%
%ADD47R,0.02200X0.06800*%
%ADD48C,0.04737*%
%ADD49R,0.06706X0.06706*%
%ADD50C,0.06706*%
%ADD51R,0.06706X0.06706*%
%ADD52C,0.06706*%
%ADD53C,0.05131*%
%ADD54R,0.06706X0.06706*%
%ADD55C,0.05300*%
%ADD56C,0.15800*%
%ADD57C,0.03200*%
%ADD58C,0.00500*%
%ADD59C,0.00333*%
%ADD60C,0.01600*%
D58*
X381869Y216935D02*
X385869D01*
X383869Y214935D02*
Y218935D01*
X371869Y216935D02*
X375869D01*
X373869Y214935D02*
Y218935D01*
X381869Y226935D02*
X385869D01*
X383869Y224935D02*
Y228935D01*
X371869Y226935D02*
X375869D01*
X373869Y224935D02*
Y228935D01*
X381869Y236935D02*
X385869D01*
X383869Y234935D02*
Y238935D01*
X371869Y236935D02*
X375869D01*
X373869Y234935D02*
Y238935D01*
X122220Y153930D02*
X126220D01*
X124220Y151930D02*
Y155930D01*
X152220Y153930D02*
X156220D01*
X154220Y151930D02*
Y155930D01*
X322658Y202848D02*
X325021D01*
X323839Y201667D02*
Y204029D01*
X303446Y202848D02*
X305808D01*
X304627Y201667D02*
Y204029D01*
X134075Y107355D02*
X138075D01*
X136075Y105355D02*
Y109355D01*
X144075Y107355D02*
X148075D01*
X146075Y105355D02*
Y109355D01*
X154075Y107355D02*
X158075D01*
X156075Y105355D02*
Y109355D01*
X164075Y107355D02*
X168075D01*
X166075Y105355D02*
Y109355D01*
X174075Y107355D02*
X178075D01*
X176075Y105355D02*
Y109355D01*
X184075Y107355D02*
X188075D01*
X186075Y105355D02*
Y109355D01*
X194075Y107355D02*
X198075D01*
X196075Y105355D02*
Y109355D01*
X204075Y107355D02*
X208075D01*
X206075Y105355D02*
Y109355D01*
X214075Y107355D02*
X218075D01*
X216075Y105355D02*
Y109355D01*
X224075Y107355D02*
X228075D01*
X226075Y105355D02*
Y109355D01*
X234075Y107355D02*
X238075D01*
X236075Y105355D02*
Y109355D01*
X244075Y107355D02*
X248075D01*
X246075Y105355D02*
Y109355D01*
X254075Y107355D02*
X258075D01*
X256075Y105355D02*
Y109355D01*
X264075Y107355D02*
X268075D01*
X266075Y105355D02*
Y109355D01*
X274075Y107355D02*
X278075D01*
X276075Y105355D02*
Y109355D01*
X284075Y107355D02*
X288075D01*
X286075Y105355D02*
Y109355D01*
X294075Y107355D02*
X298075D01*
X296075Y105355D02*
Y109355D01*
X304075Y107355D02*
X308075D01*
X306075Y105355D02*
Y109355D01*
X314075Y107355D02*
X318075D01*
X316075Y105355D02*
Y109355D01*
X324075Y107355D02*
X328075D01*
X326075Y105355D02*
Y109355D01*
X376132Y155621D02*
X380632D01*
X378382Y153371D02*
Y157871D01*
X376132Y172944D02*
X380632D01*
X378382Y170694D02*
Y175194D01*
X377500Y425994D02*
X392500D01*
X385000Y418494D02*
Y433494D01*
X107500Y425994D02*
X122500D01*
X115000Y418494D02*
Y433494D01*
X107500Y115000D02*
X122500D01*
X115000Y107500D02*
Y122500D01*
X377500Y115000D02*
X392500D01*
X385000Y107500D02*
Y122500D01*
X367798Y174724D02*
X368998D01*
X368398Y174124D02*
Y175324D01*
X264821Y134314D02*
X266021D01*
X265421Y133714D02*
Y134914D01*
X243592Y143030D02*
X244792D01*
X244192Y142430D02*
Y143630D01*
X237004Y134510D02*
X238204D01*
X237604Y133910D02*
Y135110D01*
X318893Y132899D02*
X320093D01*
X319493Y132299D02*
Y133499D01*
X305534Y148869D02*
X306734D01*
X306134Y148269D02*
Y149469D01*
X295763Y143905D02*
X296963D01*
X296363Y143305D02*
Y144505D01*
X314780Y143905D02*
X315980D01*
X315380Y143305D02*
Y144505D01*
X311457Y179837D02*
X312657D01*
X312057Y179237D02*
Y180437D01*
X313957Y168376D02*
X315157D01*
X314557Y167776D02*
Y168976D01*
X306457Y168267D02*
X307657D01*
X307057Y167667D02*
Y168867D01*
X339054Y218428D02*
X340254D01*
X339654Y217828D02*
Y219028D01*
X288612Y218196D02*
X289811D01*
X289212Y217596D02*
Y218796D01*
X391465Y236935D02*
X392665D01*
X392065Y236335D02*
Y237535D01*
X391321Y216935D02*
X392521D01*
X391921Y216335D02*
Y217535D01*
X358444Y226935D02*
X359644D01*
X359044Y226335D02*
Y227535D01*
X358444Y240325D02*
X359644D01*
X359044Y239725D02*
Y240925D01*
X324583Y246554D02*
X325783D01*
X325183Y245954D02*
Y247154D01*
X336777Y273856D02*
X337977D01*
X337377Y273256D02*
Y274456D01*
X259675Y268810D02*
X260875D01*
X260275Y268210D02*
Y269410D01*
X259705Y260882D02*
X260906D01*
X260306Y260282D02*
Y261482D01*
X278486Y264247D02*
X279686D01*
X279086Y263647D02*
Y264847D01*
X291483Y264376D02*
X292683D01*
X292083Y263776D02*
Y264976D01*
X291439Y270676D02*
X292639D01*
X292039Y270076D02*
Y271276D01*
X312650Y267526D02*
X313850D01*
X313250Y266926D02*
Y268126D01*
X324936Y258077D02*
X326135D01*
X325535Y257477D02*
Y258677D01*
X271723Y241559D02*
X272923D01*
X272323Y240959D02*
Y242159D01*
X267168Y241368D02*
X268368D01*
X267768Y240768D02*
Y241968D01*
X297698Y274976D02*
X298898D01*
X298298Y274376D02*
Y275576D01*
X293918Y274574D02*
X295118D01*
X294518Y273974D02*
Y275174D01*
X300496Y271266D02*
X301696D01*
X301096Y270666D02*
Y271866D01*
X257385Y229345D02*
X258585D01*
X257985Y228745D02*
Y229945D01*
X263435Y236799D02*
X264635D01*
X264035Y236199D02*
Y237399D01*
X299825Y256632D02*
X301025D01*
X300425Y256032D02*
Y257232D01*
X303722Y256100D02*
X304922D01*
X304322Y255500D02*
Y256700D01*
X259016Y171811D02*
X260216D01*
X259616Y171211D02*
Y172411D01*
X336104Y182595D02*
X337304D01*
X336704Y181995D02*
Y183195D01*
X336101Y147195D02*
X337301D01*
X336701Y146595D02*
Y147795D01*
X319831Y111882D02*
X321031D01*
X320431Y111282D02*
Y112482D01*
X306597Y238614D02*
X307797D01*
X307197Y238014D02*
Y239214D01*
X345543Y128971D02*
X346743D01*
X346143Y128371D02*
Y129571D01*
X349164Y125375D02*
X350364D01*
X349764Y124775D02*
Y125975D01*
X352423Y121780D02*
X353623D01*
X353023Y121180D02*
Y122380D01*
X352423Y236935D02*
X353623D01*
X353023Y236335D02*
Y237535D01*
X349164Y232723D02*
X350364D01*
X349764Y232123D02*
Y233323D01*
X345543Y223757D02*
X346743D01*
X346143Y223157D02*
Y224357D01*
X355560Y119080D02*
X356760D01*
X356160Y118480D02*
Y119680D01*
X219623Y114865D02*
X220823D01*
X220223Y114265D02*
Y115465D01*
X220091Y141594D02*
X221291D01*
X220691Y140994D02*
Y142194D01*
X206085Y142110D02*
X207285D01*
X206685Y141510D02*
Y142710D01*
X196364Y193440D02*
X197564D01*
X196964Y192840D02*
Y194040D01*
X200509Y159447D02*
X201709D01*
X201109Y158847D02*
Y160047D01*
X180022Y162925D02*
X181222D01*
X180622Y162325D02*
Y163525D01*
X168892Y135594D02*
X170092D01*
X169492Y134994D02*
Y136194D01*
M02*
