%FSLAX25Y25*%
%MOIN*%
G70*
G01*
G75*
G04 Layer_Color=2752767*
%ADD10R,0.04134X0.05118*%
%ADD11R,0.05118X0.04134*%
%ADD12R,0.10000X0.10000*%
%ADD13R,0.09055X0.01969*%
%ADD14R,0.09843X0.07874*%
%ADD15O,0.02362X0.07677*%
%ADD16O,0.07677X0.02362*%
%ADD17R,0.01400X0.06000*%
%ADD18C,0.03937*%
%ADD19C,0.01500*%
%ADD20C,0.03000*%
%ADD21C,0.01000*%
%ADD22R,0.05906X0.05906*%
%ADD23C,0.05906*%
%ADD24R,0.05906X0.05906*%
%ADD25C,0.05906*%
%ADD26C,0.04331*%
%ADD27R,0.05906X0.05906*%
%ADD28C,0.04500*%
%ADD29C,0.15000*%
%ADD30C,0.02400*%
%ADD31C,0.00787*%
%ADD32C,0.02000*%
%ADD33C,0.02362*%
%ADD34C,0.00984*%
%ADD35C,0.00200*%
%ADD36C,0.00800*%
%ADD37C,0.01200*%
%ADD38C,0.00591*%
%ADD39R,0.03607X0.07933*%
%ADD40R,0.04934X0.05918*%
%ADD41R,0.05918X0.04934*%
%ADD42R,0.10800X0.10800*%
%ADD43R,0.09855X0.02769*%
%ADD44R,0.10642X0.08674*%
%ADD45O,0.03162X0.08477*%
%ADD46O,0.08477X0.03162*%
%ADD47R,0.02200X0.06800*%
%ADD48C,0.04737*%
%ADD49R,0.06706X0.06706*%
%ADD50C,0.06706*%
%ADD51R,0.06706X0.06706*%
%ADD52C,0.06706*%
%ADD53C,0.05131*%
%ADD54R,0.06706X0.06706*%
%ADD55C,0.05300*%
%ADD56C,0.15800*%
%ADD57C,0.03200*%
%ADD58C,0.00500*%
%ADD59C,0.00333*%
%ADD60C,0.01600*%
D19*
X408546Y198067D02*
X796443D01*
X408546Y123067D02*
X796443D01*
X408546Y108067D02*
X796443D01*
Y213067D01*
X408546D02*
X796443D01*
X408546Y108067D02*
Y213067D01*
X718563Y108067D02*
Y213067D01*
X667975Y108067D02*
Y213067D01*
X533415Y108067D02*
Y213067D01*
X463633Y108067D02*
Y213067D01*
D21*
X723063Y187567D02*
Y193565D01*
X726061D01*
X727061Y192565D01*
Y190566D01*
X726061Y189566D01*
X723063D01*
X725062D02*
X727061Y187567D01*
X730060D02*
X732060D01*
X733059Y188567D01*
Y190566D01*
X732060Y191566D01*
X730060D01*
X729061Y190566D01*
Y188567D01*
X730060Y187567D01*
X735059Y191566D02*
Y188567D01*
X736058Y187567D01*
X739057D01*
Y191566D01*
X741057Y187567D02*
Y191566D01*
X744056D01*
X745055Y190566D01*
Y187567D01*
X751053Y193565D02*
Y187567D01*
X748054D01*
X747055Y188567D01*
Y190566D01*
X748054Y191566D01*
X751053D01*
X723063Y172567D02*
Y178565D01*
X726061D01*
X727061Y177565D01*
Y175566D01*
X726061Y174566D01*
X723063D01*
X725062D02*
X727061Y172567D01*
X730060D02*
X732060D01*
X733059Y173567D01*
Y175566D01*
X732060Y176566D01*
X730060D01*
X729061Y175566D01*
Y173567D01*
X730060Y172567D01*
X735059Y176566D02*
Y173567D01*
X736058Y172567D01*
X739057D01*
Y176566D01*
X741057Y172567D02*
Y176566D01*
X744056D01*
X745055Y175566D01*
Y172567D01*
X751053Y178565D02*
Y172567D01*
X748054D01*
X747055Y173567D01*
Y175566D01*
X748054Y176566D01*
X751053D01*
X723063Y157567D02*
Y163565D01*
X726061D01*
X727061Y162565D01*
Y160566D01*
X726061Y159566D01*
X723063D01*
X725062D02*
X727061Y157567D01*
X730060D02*
X732060D01*
X733059Y158567D01*
Y160566D01*
X732060Y161566D01*
X730060D01*
X729061Y160566D01*
Y158567D01*
X730060Y157567D01*
X735059Y161566D02*
Y158567D01*
X736058Y157567D01*
X739057D01*
Y161566D01*
X741057Y157567D02*
Y161566D01*
X744056D01*
X745055Y160566D01*
Y157567D01*
X751053Y163565D02*
Y157567D01*
X748054D01*
X747055Y158567D01*
Y160566D01*
X748054Y161566D01*
X751053D01*
X723063Y142567D02*
Y148565D01*
X726061D01*
X727061Y147565D01*
Y145566D01*
X726061Y144566D01*
X723063D01*
X725062D02*
X727061Y142567D01*
X730060D02*
X732060D01*
X733059Y143567D01*
Y145566D01*
X732060Y146566D01*
X730060D01*
X729061Y145566D01*
Y143567D01*
X730060Y142567D01*
X735059Y146566D02*
Y143567D01*
X736058Y142567D01*
X739057D01*
Y146566D01*
X741057Y142567D02*
Y146566D01*
X744056D01*
X745055Y145566D01*
Y142567D01*
X751053Y148565D02*
Y142567D01*
X748054D01*
X747055Y143567D01*
Y145566D01*
X748054Y146566D01*
X751053D01*
X723063Y127567D02*
Y133565D01*
X726061D01*
X727061Y132565D01*
Y130566D01*
X726061Y129566D01*
X723063D01*
X725062D02*
X727061Y127567D01*
X730060D02*
X732060D01*
X733059Y128567D01*
Y130566D01*
X732060Y131566D01*
X730060D01*
X729061Y130566D01*
Y128567D01*
X730060Y127567D01*
X735059Y131566D02*
Y128567D01*
X736058Y127567D01*
X739057D01*
Y131566D01*
X741057Y127567D02*
Y131566D01*
X744056D01*
X745055Y130566D01*
Y127567D01*
X751053Y133565D02*
Y127567D01*
X748054D01*
X747055Y128567D01*
Y130566D01*
X748054Y131566D01*
X751053D01*
X672475Y187567D02*
Y193565D01*
X675474D01*
X676474Y192565D01*
Y190566D01*
X675474Y189566D01*
X672475D01*
X678473Y193565D02*
X682472D01*
X680472D01*
Y187567D01*
X684471Y193565D02*
Y187567D01*
Y190566D01*
X688470D01*
Y193565D01*
Y187567D01*
X672475Y172567D02*
Y178565D01*
X675474D01*
X676474Y177565D01*
Y175566D01*
X675474Y174566D01*
X672475D01*
X678473Y178565D02*
X682472D01*
X680472D01*
Y172567D01*
X684471Y178565D02*
Y172567D01*
Y175566D01*
X688470D01*
Y178565D01*
Y172567D01*
X672475Y157567D02*
Y163565D01*
X675474D01*
X676474Y162565D01*
Y160566D01*
X675474Y159566D01*
X672475D01*
X678473Y163565D02*
X682472D01*
X680472D01*
Y157567D01*
X684471Y163565D02*
Y157567D01*
Y160566D01*
X688470D01*
Y163565D01*
Y157567D01*
X672475Y142567D02*
Y148565D01*
X675474D01*
X676474Y147565D01*
Y145566D01*
X675474Y144566D01*
X672475D01*
X678473Y148565D02*
X682472D01*
X680472D01*
Y142567D01*
X684471Y148565D02*
Y142567D01*
Y145566D01*
X688470D01*
Y148565D01*
Y142567D01*
X672475Y127567D02*
Y133565D01*
X675474D01*
X676474Y132565D01*
Y130566D01*
X675474Y129566D01*
X672475D01*
X678473Y133565D02*
X682472D01*
X680472D01*
Y127567D01*
X684471Y133565D02*
Y127567D01*
Y130566D01*
X688470D01*
Y133565D01*
Y127567D01*
X541913Y187567D02*
X537915D01*
X541913Y191566D01*
Y192565D01*
X540913Y193565D01*
X538914D01*
X537915Y192565D01*
X543913D02*
X544912Y193565D01*
X546912D01*
X547911Y192565D01*
Y191566D01*
X546912Y190566D01*
X545912D01*
X546912D01*
X547911Y189566D01*
Y188567D01*
X546912Y187567D01*
X544912D01*
X543913Y188567D01*
X549911Y187567D02*
Y188567D01*
X550910D01*
Y187567D01*
X549911D01*
X558908Y193565D02*
X556908Y192565D01*
X554909Y190566D01*
Y188567D01*
X555909Y187567D01*
X557908D01*
X558908Y188567D01*
Y189566D01*
X557908Y190566D01*
X554909D01*
X564906Y187567D02*
X560907D01*
X564906Y191566D01*
Y192565D01*
X563906Y193565D01*
X561907D01*
X560907Y192565D01*
X566905Y187567D02*
Y191566D01*
X567905D01*
X568904Y190566D01*
Y187567D01*
Y190566D01*
X569904Y191566D01*
X570904Y190566D01*
Y187567D01*
X572903D02*
X574902D01*
X573903D01*
Y191566D01*
X572903D01*
X577902Y187567D02*
X579901D01*
X578901D01*
Y193565D01*
X577902D01*
X590897Y187567D02*
X588898Y189566D01*
Y191566D01*
X590897Y193565D01*
X593896Y192565D02*
X594896Y193565D01*
X596895D01*
X597895Y192565D01*
Y188567D01*
X596895Y187567D01*
X594896D01*
X593896Y188567D01*
Y192565D01*
X599894Y187567D02*
Y188567D01*
X600894D01*
Y187567D01*
X599894D01*
X608891Y193565D02*
X606892Y192565D01*
X604893Y190566D01*
Y188567D01*
X605893Y187567D01*
X607892D01*
X608891Y188567D01*
Y189566D01*
X607892Y190566D01*
X604893D01*
X610891Y192565D02*
X611891Y193565D01*
X613890D01*
X614890Y192565D01*
Y188567D01*
X613890Y187567D01*
X611891D01*
X610891Y188567D01*
Y192565D01*
X616889D02*
X617889Y193565D01*
X619888D01*
X620888Y192565D01*
Y188567D01*
X619888Y187567D01*
X617889D01*
X616889Y188567D01*
Y192565D01*
X622887Y187567D02*
Y191566D01*
X623887D01*
X624886Y190566D01*
Y187567D01*
Y190566D01*
X625886Y191566D01*
X626886Y190566D01*
Y187567D01*
X628885D02*
Y191566D01*
X629885D01*
X630884Y190566D01*
Y187567D01*
Y190566D01*
X631884Y191566D01*
X632884Y190566D01*
Y187567D01*
X634883D02*
X636882Y189566D01*
Y191566D01*
X634883Y193565D01*
X540913Y172567D02*
Y178565D01*
X537915Y175566D01*
X541913D01*
X547911Y178565D02*
X543913D01*
Y175566D01*
X545912Y176566D01*
X546912D01*
X547911Y175566D01*
Y173567D01*
X546912Y172567D01*
X544912D01*
X543913Y173567D01*
X549911Y172567D02*
Y173567D01*
X550910D01*
Y172567D01*
X549911D01*
X554909Y177565D02*
X555909Y178565D01*
X557908D01*
X558908Y177565D01*
Y173567D01*
X557908Y172567D01*
X555909D01*
X554909Y173567D01*
Y177565D01*
X560907D02*
X561907Y178565D01*
X563906D01*
X564906Y177565D01*
Y173567D01*
X563906Y172567D01*
X561907D01*
X560907Y173567D01*
Y177565D01*
X566905Y172567D02*
Y176566D01*
X567905D01*
X568904Y175566D01*
Y172567D01*
Y175566D01*
X569904Y176566D01*
X570904Y175566D01*
Y172567D01*
X572903D02*
X574902D01*
X573903D01*
Y176566D01*
X572903D01*
X577902Y172567D02*
X579901D01*
X578901D01*
Y178565D01*
X577902D01*
X590897Y172567D02*
X588898Y174566D01*
Y176566D01*
X590897Y178565D01*
X593896Y172567D02*
X595896D01*
X594896D01*
Y178565D01*
X593896Y177565D01*
X598895Y172567D02*
Y173567D01*
X599894D01*
Y172567D01*
X598895D01*
X603893D02*
X605893D01*
X604893D01*
Y178565D01*
X603893Y177565D01*
X611891Y172567D02*
Y178565D01*
X608891Y175566D01*
X612890D01*
X614890Y177565D02*
X615889Y178565D01*
X617889D01*
X618888Y177565D01*
Y176566D01*
X617889Y175566D01*
X616889D01*
X617889D01*
X618888Y174566D01*
Y173567D01*
X617889Y172567D01*
X615889D01*
X614890Y173567D01*
X620888Y172567D02*
Y176566D01*
X621887D01*
X622887Y175566D01*
Y172567D01*
Y175566D01*
X623887Y176566D01*
X624886Y175566D01*
Y172567D01*
X626886D02*
Y176566D01*
X627885D01*
X628885Y175566D01*
Y172567D01*
Y175566D01*
X629885Y176566D01*
X630884Y175566D01*
Y172567D01*
X632884D02*
X634883Y174566D01*
Y176566D01*
X632884Y178565D01*
X537915Y157567D02*
X539914D01*
X538914D01*
Y163565D01*
X537915Y162565D01*
X546912Y163565D02*
X542913D01*
Y160566D01*
X544912Y161566D01*
X545912D01*
X546912Y160566D01*
Y158567D01*
X545912Y157567D01*
X543913D01*
X542913Y158567D01*
X548911Y162565D02*
X549911Y163565D01*
X551910D01*
X552910Y162565D01*
Y158567D01*
X551910Y157567D01*
X549911D01*
X548911Y158567D01*
Y162565D01*
X554909Y157567D02*
Y158567D01*
X555909D01*
Y157567D01*
X554909D01*
X559907Y162565D02*
X560907Y163565D01*
X562906D01*
X563906Y162565D01*
Y158567D01*
X562906Y157567D01*
X560907D01*
X559907Y158567D01*
Y162565D01*
X565905D02*
X566905Y163565D01*
X568904D01*
X569904Y162565D01*
Y158567D01*
X568904Y157567D01*
X566905D01*
X565905Y158567D01*
Y162565D01*
X571904Y157567D02*
Y161566D01*
X572903D01*
X573903Y160566D01*
Y157567D01*
Y160566D01*
X574902Y161566D01*
X575902Y160566D01*
Y157567D01*
X577902D02*
X579901D01*
X578901D01*
Y161566D01*
X577902D01*
X582900Y157567D02*
X584899D01*
X583900D01*
Y163565D01*
X582900D01*
X595896Y157567D02*
X593896Y159566D01*
Y161566D01*
X595896Y163565D01*
X598895Y162565D02*
X599894Y163565D01*
X601894D01*
X602893Y162565D01*
Y161566D01*
X601894Y160566D01*
X600894D01*
X601894D01*
X602893Y159566D01*
Y158567D01*
X601894Y157567D01*
X599894D01*
X598895Y158567D01*
X604893Y157567D02*
Y158567D01*
X605893D01*
Y157567D01*
X604893D01*
X609891Y162565D02*
X610891Y163565D01*
X612890D01*
X613890Y162565D01*
Y161566D01*
X612890Y160566D01*
X613890Y159566D01*
Y158567D01*
X612890Y157567D01*
X610891D01*
X609891Y158567D01*
Y159566D01*
X610891Y160566D01*
X609891Y161566D01*
Y162565D01*
X610891Y160566D02*
X612890D01*
X615889Y157567D02*
X617889D01*
X616889D01*
Y163565D01*
X615889Y162565D01*
X620888D02*
X621887Y163565D01*
X623887D01*
X624886Y162565D01*
Y158567D01*
X623887Y157567D01*
X621887D01*
X620888Y158567D01*
Y162565D01*
X626886Y157567D02*
Y161566D01*
X627885D01*
X628885Y160566D01*
Y157567D01*
Y160566D01*
X629885Y161566D01*
X630884Y160566D01*
Y157567D01*
X632884D02*
Y161566D01*
X633883D01*
X634883Y160566D01*
Y157567D01*
Y160566D01*
X635883Y161566D01*
X636882Y160566D01*
Y157567D01*
X638882D02*
X640881Y159566D01*
Y161566D01*
X638882Y163565D01*
X540913Y142567D02*
Y148565D01*
X537915Y145566D01*
X541913D01*
X543913Y147565D02*
X544912Y148565D01*
X546912D01*
X547911Y147565D01*
Y143567D01*
X546912Y142567D01*
X544912D01*
X543913Y143567D01*
Y147565D01*
X549911Y142567D02*
Y143567D01*
X550910D01*
Y142567D01*
X549911D01*
X554909Y147565D02*
X555909Y148565D01*
X557908D01*
X558908Y147565D01*
Y143567D01*
X557908Y142567D01*
X555909D01*
X554909Y143567D01*
Y147565D01*
X560907D02*
X561907Y148565D01*
X563906D01*
X564906Y147565D01*
Y143567D01*
X563906Y142567D01*
X561907D01*
X560907Y143567D01*
Y147565D01*
X566905Y142567D02*
Y146566D01*
X567905D01*
X568904Y145566D01*
Y142567D01*
Y145566D01*
X569904Y146566D01*
X570904Y145566D01*
Y142567D01*
X572903D02*
X574902D01*
X573903D01*
Y146566D01*
X572903D01*
X577902Y142567D02*
X579901D01*
X578901D01*
Y148565D01*
X577902D01*
X590897Y142567D02*
X588898Y144566D01*
Y146566D01*
X590897Y148565D01*
X593896Y142567D02*
X595896D01*
X594896D01*
Y148565D01*
X593896Y147565D01*
X598895Y142567D02*
Y143567D01*
X599894D01*
Y142567D01*
X598895D01*
X603893Y147565D02*
X604893Y148565D01*
X606892D01*
X607892Y147565D01*
Y143567D01*
X606892Y142567D01*
X604893D01*
X603893Y143567D01*
Y147565D01*
X609891Y142567D02*
X611891D01*
X610891D01*
Y148565D01*
X609891Y147565D01*
X618888Y148565D02*
X616889Y147565D01*
X614890Y145566D01*
Y143567D01*
X615889Y142567D01*
X617889D01*
X618888Y143567D01*
Y144566D01*
X617889Y145566D01*
X614890D01*
X620888Y142567D02*
Y146566D01*
X621887D01*
X622887Y145566D01*
Y142567D01*
Y145566D01*
X623887Y146566D01*
X624886Y145566D01*
Y142567D01*
X626886D02*
Y146566D01*
X627885D01*
X628885Y145566D01*
Y142567D01*
Y145566D01*
X629885Y146566D01*
X630884Y145566D01*
Y142567D01*
X632884D02*
X634883Y144566D01*
Y146566D01*
X632884Y148565D01*
X537915Y127567D02*
X539914D01*
X538914D01*
Y133565D01*
X537915Y132565D01*
X546912Y127567D02*
X542913D01*
X546912Y131566D01*
Y132565D01*
X545912Y133565D01*
X543913D01*
X542913Y132565D01*
X548911Y127567D02*
Y128567D01*
X549911D01*
Y127567D01*
X548911D01*
X553909Y132565D02*
X554909Y133565D01*
X556908D01*
X557908Y132565D01*
Y128567D01*
X556908Y127567D01*
X554909D01*
X553909Y128567D01*
Y132565D01*
X559907D02*
X560907Y133565D01*
X562906D01*
X563906Y132565D01*
Y128567D01*
X562906Y127567D01*
X560907D01*
X559907Y128567D01*
Y132565D01*
X565905Y127567D02*
Y131566D01*
X566905D01*
X567905Y130566D01*
Y127567D01*
Y130566D01*
X568904Y131566D01*
X569904Y130566D01*
Y127567D01*
X571904D02*
X573903D01*
X572903D01*
Y131566D01*
X571904D01*
X576902Y127567D02*
X578901D01*
X577902D01*
Y133565D01*
X576902D01*
X589898Y127567D02*
X587898Y129566D01*
Y131566D01*
X589898Y133565D01*
X592897Y132565D02*
X593896Y133565D01*
X595896D01*
X596895Y132565D01*
Y128567D01*
X595896Y127567D01*
X593896D01*
X592897Y128567D01*
Y132565D01*
X598895Y127567D02*
Y128567D01*
X599894D01*
Y127567D01*
X598895D01*
X603893Y132565D02*
X604893Y133565D01*
X606892D01*
X607892Y132565D01*
Y131566D01*
X606892Y130566D01*
X605893D01*
X606892D01*
X607892Y129566D01*
Y128567D01*
X606892Y127567D01*
X604893D01*
X603893Y128567D01*
X609891Y132565D02*
X610891Y133565D01*
X612890D01*
X613890Y132565D01*
Y128567D01*
X612890Y127567D01*
X610891D01*
X609891Y128567D01*
Y132565D01*
X619888Y133565D02*
X615889D01*
Y130566D01*
X617889Y131566D01*
X618888D01*
X619888Y130566D01*
Y128567D01*
X618888Y127567D01*
X616889D01*
X615889Y128567D01*
X621887Y127567D02*
Y131566D01*
X622887D01*
X623887Y130566D01*
Y127567D01*
Y130566D01*
X624886Y131566D01*
X625886Y130566D01*
Y127567D01*
X627885D02*
Y131566D01*
X628885D01*
X629885Y130566D01*
Y127567D01*
Y130566D01*
X630884Y131566D01*
X631884Y130566D01*
Y127567D01*
X633883D02*
X635883Y129566D01*
Y131566D01*
X633883Y133565D01*
X468133Y113567D02*
X469133Y112567D01*
X471132D01*
X472132Y113567D01*
Y117565D01*
X471132Y118565D01*
X469133D01*
X468133Y117565D01*
Y116566D01*
X469133Y115566D01*
X472132D01*
X474131Y117565D02*
X475131Y118565D01*
X477130D01*
X478130Y117565D01*
Y113567D01*
X477130Y112567D01*
X475131D01*
X474131Y113567D01*
Y117565D01*
X486127Y118565D02*
X490126D01*
X488127D01*
Y112567D01*
X493125D02*
X495124D01*
X496124Y113567D01*
Y115566D01*
X495124Y116566D01*
X493125D01*
X492125Y115566D01*
Y113567D01*
X493125Y112567D01*
X499123Y117565D02*
Y116566D01*
X498123D01*
X500123D01*
X499123D01*
Y113567D01*
X500123Y112567D01*
X504121Y116566D02*
X506121D01*
X507121Y115566D01*
Y112567D01*
X504121D01*
X503122Y113567D01*
X504121Y114566D01*
X507121D01*
X509120Y112567D02*
X511119D01*
X510120D01*
Y118565D01*
X509120D01*
X472132Y187567D02*
X468133D01*
X472132Y191566D01*
Y192565D01*
X471132Y193565D01*
X469133D01*
X468133Y192565D01*
X472132Y172567D02*
X468133D01*
X472132Y176566D01*
Y177565D01*
X471132Y178565D01*
X469133D01*
X468133Y177565D01*
X471132Y157567D02*
Y163565D01*
X468133Y160566D01*
X472132D01*
Y142567D02*
X468133D01*
X472132Y146566D01*
Y147565D01*
X471132Y148565D01*
X469133D01*
X468133Y147565D01*
X474131D02*
X475131Y148565D01*
X477130D01*
X478130Y147565D01*
Y146566D01*
X477130Y145566D01*
X478130Y144566D01*
Y143567D01*
X477130Y142567D01*
X475131D01*
X474131Y143567D01*
Y144566D01*
X475131Y145566D01*
X474131Y146566D01*
Y147565D01*
X475131Y145566D02*
X477130D01*
X472132Y133565D02*
X468133D01*
Y130566D01*
X470132Y131566D01*
X471132D01*
X472132Y130566D01*
Y128567D01*
X471132Y127567D01*
X469133D01*
X468133Y128567D01*
X477130Y127567D02*
Y133565D01*
X474131Y130566D01*
X478130D01*
D59*
X415358Y187567D02*
X420358D01*
Y192567D01*
X415358D02*
X420358D01*
X415358Y187567D02*
Y192567D01*
X416608Y173817D02*
X417858Y172567D01*
X415358Y173817D02*
X416608D01*
X415358D02*
X416608Y175067D01*
X415358Y176317D02*
X416608Y175067D01*
X415358Y176317D02*
X416608D01*
X417858Y177567D01*
X419108Y176317D01*
X420358D01*
X419108Y175067D02*
X420358Y176317D01*
X419108Y175067D02*
X420358Y173817D01*
X419108D02*
X420358D01*
X417858Y172567D02*
X419108Y173817D01*
X415358Y160067D02*
X417858Y157567D01*
X420358Y160067D01*
X417858Y162567D02*
X420358Y160067D01*
X415358D02*
X417858Y162567D01*
X415358Y142567D02*
Y143817D01*
X416608Y145067D01*
X415358Y146317D02*
X416608Y145067D01*
X415358Y146317D02*
Y147567D01*
X416608D01*
X417858Y146317D01*
X419108Y147567D01*
X420358D01*
Y146317D02*
Y147567D01*
X419108Y145067D02*
X420358Y146317D01*
X419108Y145067D02*
X420358Y143817D01*
Y142567D02*
Y143817D01*
X419108Y142567D02*
X420358D01*
X417858Y143817D02*
X419108Y142567D01*
X416608D02*
X417858Y143817D01*
X415358Y142567D02*
X416608D01*
X417858Y127567D02*
X420358Y132567D01*
X415358D02*
X420358D01*
X415358D02*
X417858Y127567D01*
X169492Y133927D02*
X171159Y137260D01*
X167825D02*
X171159D01*
X167825D02*
X169492Y133927D01*
X180622Y161258D02*
X182288Y164592D01*
X178955D02*
X182288D01*
X178955D02*
X180622Y161258D01*
X201109Y157780D02*
X202776Y161114D01*
X199443D02*
X202776D01*
X199443D02*
X201109Y157780D01*
X196964Y191773D02*
X198630Y195107D01*
X195297D02*
X198630D01*
X195297D02*
X196964Y191773D01*
X206685Y140444D02*
X208352Y143777D01*
X205019D02*
X208352D01*
X205019D02*
X206685Y140444D01*
X220691Y139928D02*
X222357Y143261D01*
X219024D02*
X222357D01*
X219024D02*
X220691Y139928D01*
X220223Y113198D02*
X221890Y116532D01*
X218556D02*
X221890D01*
X218556D02*
X220223Y113198D01*
X356160Y117413D02*
X357827Y120746D01*
X354494D02*
X357827D01*
X354494D02*
X356160Y117413D01*
X346143Y222091D02*
X347810Y225424D01*
X344477D02*
X347810D01*
X344477D02*
X346143Y222091D01*
X349764Y231056D02*
X351431Y234390D01*
X348097D02*
X351431D01*
X348097D02*
X349764Y231056D01*
X353023Y235268D02*
X354689Y238602D01*
X351356D02*
X354689D01*
X351356D02*
X353023Y235268D01*
Y120113D02*
X354689Y123446D01*
X351356D02*
X354689D01*
X351356D02*
X353023Y120113D01*
X349764Y123709D02*
X351431Y127042D01*
X348097D02*
X351431D01*
X348097D02*
X349764Y123709D01*
X346143Y127305D02*
X347810Y130638D01*
X344477D02*
X347810D01*
X344477D02*
X346143Y127305D01*
X307197Y236947D02*
X308863Y240281D01*
X305530D02*
X308863D01*
X305530D02*
X307197Y236947D01*
X320431Y110215D02*
X322097Y113549D01*
X318764D02*
X322097D01*
X318764D02*
X320431Y110215D01*
X336701Y145529D02*
X338367Y148862D01*
X335034D02*
X338367D01*
X335034D02*
X336701Y145529D01*
X336704Y180928D02*
X338371Y184262D01*
X335037D02*
X338371D01*
X335037D02*
X336704Y180928D01*
X259616Y170144D02*
X261282Y173477D01*
X257949D02*
X261282D01*
X257949D02*
X259616Y170144D01*
X304322Y254433D02*
X305989Y257767D01*
X302656D02*
X305989D01*
X302656D02*
X304322Y254433D01*
X300425Y254966D02*
X302092Y258299D01*
X298758D02*
X302092D01*
X298758D02*
X300425Y254966D01*
X264035Y235133D02*
X265702Y238466D01*
X262368D02*
X265702D01*
X262368D02*
X264035Y235133D01*
X257985Y227679D02*
X259651Y231012D01*
X256318D02*
X259651D01*
X256318D02*
X257985Y227679D01*
X301096Y269599D02*
X302763Y272933D01*
X299430D02*
X302763D01*
X299430D02*
X301096Y269599D01*
X294518Y272907D02*
X296185Y276240D01*
X292852D02*
X296185D01*
X292852D02*
X294518Y272907D01*
X298298Y273310D02*
X299965Y276643D01*
X296632D02*
X299965D01*
X296632D02*
X298298Y273310D01*
X267768Y239701D02*
X269434Y243035D01*
X266101D02*
X269434D01*
X266101D02*
X267768Y239701D01*
X272323Y239892D02*
X273990Y243225D01*
X270657D02*
X273990D01*
X270657D02*
X272323Y239892D01*
X325535Y256411D02*
X327202Y259744D01*
X323869D02*
X327202D01*
X323869D02*
X325535Y256411D01*
X313250Y265859D02*
X314917Y269193D01*
X311584D02*
X314917D01*
X311584D02*
X313250Y265859D01*
X292039Y269009D02*
X293706Y272342D01*
X290372D02*
X293706D01*
X290372D02*
X292039Y269009D01*
X292083Y262710D02*
X293750Y266043D01*
X290417D02*
X293750D01*
X290417D02*
X292083Y262710D01*
X279086Y262580D02*
X280752Y265913D01*
X277419D02*
X280752D01*
X277419D02*
X279086Y262580D01*
X260306Y259215D02*
X261972Y262549D01*
X258639D02*
X261972D01*
X258639D02*
X260306Y259215D01*
X260275Y267143D02*
X261941Y270476D01*
X258608D02*
X261941D01*
X258608D02*
X260275Y267143D01*
X337377Y272190D02*
X339044Y275523D01*
X335711D02*
X339044D01*
X335711D02*
X337377Y272190D01*
X325183Y244888D02*
X326849Y248221D01*
X323516D02*
X326849D01*
X323516D02*
X325183Y244888D01*
X359044Y238658D02*
X360711Y241992D01*
X357378D02*
X360711D01*
X357378D02*
X359044Y238658D01*
Y225268D02*
X360711Y228601D01*
X357378D02*
X360711D01*
X357378D02*
X359044Y225268D01*
X391921Y215268D02*
X393588Y218601D01*
X390255D02*
X393588D01*
X390255D02*
X391921Y215268D01*
X392065Y235268D02*
X393731Y238601D01*
X390398D02*
X393731D01*
X390398D02*
X392065Y235268D01*
X289212Y216529D02*
X290878Y219862D01*
X287545D02*
X290878D01*
X287545D02*
X289212Y216529D01*
X339654Y216761D02*
X341320Y220095D01*
X337987D02*
X341320D01*
X337987D02*
X339654Y216761D01*
X307057Y166601D02*
X308723Y169934D01*
X305390D02*
X308723D01*
X305390D02*
X307057Y166601D01*
X314557Y166709D02*
X316223Y170042D01*
X312890D02*
X316223D01*
X312890D02*
X314557Y166709D01*
X312057Y178170D02*
X313723Y181504D01*
X310390D02*
X313723D01*
X310390D02*
X312057Y178170D01*
X315380Y142238D02*
X317047Y145572D01*
X313714D02*
X317047D01*
X313714D02*
X315380Y142238D01*
X296363D02*
X298029Y145572D01*
X294696D02*
X298029D01*
X294696D02*
X296363Y142238D01*
X306134Y147203D02*
X307801Y150536D01*
X304467D02*
X307801D01*
X304467D02*
X306134Y147203D01*
X319493Y131232D02*
X321160Y134565D01*
X317827D02*
X321160D01*
X317827D02*
X319493Y131232D01*
X237604Y132843D02*
X239271Y136177D01*
X235937D02*
X239271D01*
X235937D02*
X237604Y132843D01*
X244192Y141364D02*
X245859Y144697D01*
X242525D02*
X245859D01*
X242525D02*
X244192Y141364D01*
X265421Y132648D02*
X267088Y135981D01*
X263754D02*
X267088D01*
X263754D02*
X265421Y132648D01*
X368398Y173057D02*
X370065Y176390D01*
X366732D02*
X370065D01*
X366732D02*
X368398Y173057D01*
X383333Y115000D02*
X385000Y113333D01*
X386667Y115000D01*
X385000Y116667D02*
X386667Y115000D01*
X383333D02*
X385000Y116667D01*
X113333Y115000D02*
X115000Y113333D01*
X116667Y115000D01*
X115000Y116667D02*
X116667Y115000D01*
X113333D02*
X115000Y116667D01*
X113333Y425994D02*
X115000Y424327D01*
X116667Y425994D01*
X115000Y427660D02*
X116667Y425994D01*
X113333D02*
X115000Y427660D01*
X383333Y425994D02*
X385000Y424327D01*
X386667Y425994D01*
X385000Y427660D02*
X386667Y425994D01*
X383333D02*
X385000Y427660D01*
X377549Y172110D02*
X378382Y171277D01*
X376715Y172110D02*
X377549D01*
X376715D02*
X377549Y172944D01*
X376715Y173777D02*
X377549Y172944D01*
X376715Y173777D02*
X377549D01*
X378382Y174610D01*
X379215Y173777D01*
X380049D01*
X379215Y172944D02*
X380049Y173777D01*
X379215Y172944D02*
X380049Y172110D01*
X379215D02*
X380049D01*
X378382Y171277D02*
X379215Y172110D01*
X377549Y154788D02*
X378382Y153954D01*
X376715Y154788D02*
X377549D01*
X376715D02*
X377549Y155621D01*
X376715Y156454D02*
X377549Y155621D01*
X376715Y156454D02*
X377549D01*
X378382Y157288D01*
X379215Y156454D01*
X380049D01*
X379215Y155621D02*
X380049Y156454D01*
X379215Y155621D02*
X380049Y154788D01*
X379215D02*
X380049D01*
X378382Y153954D02*
X379215Y154788D01*
X324409Y105688D02*
Y106521D01*
X325242Y107355D01*
X324409Y108188D02*
X325242Y107355D01*
X324409Y108188D02*
Y109021D01*
X325242D01*
X326075Y108188D01*
X326909Y109021D01*
X327742D01*
Y108188D02*
Y109021D01*
X326909Y107355D02*
X327742Y108188D01*
X326909Y107355D02*
X327742Y106521D01*
Y105688D02*
Y106521D01*
X326909Y105688D02*
X327742D01*
X326075Y106521D02*
X326909Y105688D01*
X325242D02*
X326075Y106521D01*
X324409Y105688D02*
X325242D01*
X314409D02*
Y106521D01*
X315242Y107355D01*
X314409Y108188D02*
X315242Y107355D01*
X314409Y108188D02*
Y109021D01*
X315242D01*
X316075Y108188D01*
X316909Y109021D01*
X317742D01*
Y108188D02*
Y109021D01*
X316909Y107355D02*
X317742Y108188D01*
X316909Y107355D02*
X317742Y106521D01*
Y105688D02*
Y106521D01*
X316909Y105688D02*
X317742D01*
X316075Y106521D02*
X316909Y105688D01*
X315242D02*
X316075Y106521D01*
X314409Y105688D02*
X315242D01*
X304409D02*
Y106521D01*
X305242Y107355D01*
X304409Y108188D02*
X305242Y107355D01*
X304409Y108188D02*
Y109021D01*
X305242D01*
X306075Y108188D01*
X306909Y109021D01*
X307742D01*
Y108188D02*
Y109021D01*
X306909Y107355D02*
X307742Y108188D01*
X306909Y107355D02*
X307742Y106521D01*
Y105688D02*
Y106521D01*
X306909Y105688D02*
X307742D01*
X306075Y106521D02*
X306909Y105688D01*
X305242D02*
X306075Y106521D01*
X304409Y105688D02*
X305242D01*
X294409D02*
Y106521D01*
X295242Y107355D01*
X294409Y108188D02*
X295242Y107355D01*
X294409Y108188D02*
Y109021D01*
X295242D01*
X296075Y108188D01*
X296909Y109021D01*
X297742D01*
Y108188D02*
Y109021D01*
X296909Y107355D02*
X297742Y108188D01*
X296909Y107355D02*
X297742Y106521D01*
Y105688D02*
Y106521D01*
X296909Y105688D02*
X297742D01*
X296075Y106521D02*
X296909Y105688D01*
X295242D02*
X296075Y106521D01*
X294409Y105688D02*
X295242D01*
X284409D02*
Y106521D01*
X285242Y107355D01*
X284409Y108188D02*
X285242Y107355D01*
X284409Y108188D02*
Y109021D01*
X285242D01*
X286075Y108188D01*
X286909Y109021D01*
X287742D01*
Y108188D02*
Y109021D01*
X286909Y107355D02*
X287742Y108188D01*
X286909Y107355D02*
X287742Y106521D01*
Y105688D02*
Y106521D01*
X286909Y105688D02*
X287742D01*
X286075Y106521D02*
X286909Y105688D01*
X285242D02*
X286075Y106521D01*
X284409Y105688D02*
X285242D01*
X274409D02*
Y106521D01*
X275242Y107355D01*
X274409Y108188D02*
X275242Y107355D01*
X274409Y108188D02*
Y109021D01*
X275242D01*
X276075Y108188D01*
X276909Y109021D01*
X277742D01*
Y108188D02*
Y109021D01*
X276909Y107355D02*
X277742Y108188D01*
X276909Y107355D02*
X277742Y106521D01*
Y105688D02*
Y106521D01*
X276909Y105688D02*
X277742D01*
X276075Y106521D02*
X276909Y105688D01*
X275242D02*
X276075Y106521D01*
X274409Y105688D02*
X275242D01*
X264409D02*
Y106521D01*
X265242Y107355D01*
X264409Y108188D02*
X265242Y107355D01*
X264409Y108188D02*
Y109021D01*
X265242D01*
X266075Y108188D01*
X266909Y109021D01*
X267742D01*
Y108188D02*
Y109021D01*
X266909Y107355D02*
X267742Y108188D01*
X266909Y107355D02*
X267742Y106521D01*
Y105688D02*
Y106521D01*
X266909Y105688D02*
X267742D01*
X266075Y106521D02*
X266909Y105688D01*
X265242D02*
X266075Y106521D01*
X264409Y105688D02*
X265242D01*
X254409D02*
Y106521D01*
X255242Y107355D01*
X254409Y108188D02*
X255242Y107355D01*
X254409Y108188D02*
Y109021D01*
X255242D01*
X256075Y108188D01*
X256909Y109021D01*
X257742D01*
Y108188D02*
Y109021D01*
X256909Y107355D02*
X257742Y108188D01*
X256909Y107355D02*
X257742Y106521D01*
Y105688D02*
Y106521D01*
X256909Y105688D02*
X257742D01*
X256075Y106521D02*
X256909Y105688D01*
X255242D02*
X256075Y106521D01*
X254409Y105688D02*
X255242D01*
X244409D02*
Y106521D01*
X245242Y107355D01*
X244409Y108188D02*
X245242Y107355D01*
X244409Y108188D02*
Y109021D01*
X245242D01*
X246075Y108188D01*
X246909Y109021D01*
X247742D01*
Y108188D02*
Y109021D01*
X246909Y107355D02*
X247742Y108188D01*
X246909Y107355D02*
X247742Y106521D01*
Y105688D02*
Y106521D01*
X246909Y105688D02*
X247742D01*
X246075Y106521D02*
X246909Y105688D01*
X245242D02*
X246075Y106521D01*
X244409Y105688D02*
X245242D01*
X234409D02*
Y106521D01*
X235242Y107355D01*
X234409Y108188D02*
X235242Y107355D01*
X234409Y108188D02*
Y109021D01*
X235242D01*
X236075Y108188D01*
X236909Y109021D01*
X237742D01*
Y108188D02*
Y109021D01*
X236909Y107355D02*
X237742Y108188D01*
X236909Y107355D02*
X237742Y106521D01*
Y105688D02*
Y106521D01*
X236909Y105688D02*
X237742D01*
X236075Y106521D02*
X236909Y105688D01*
X235242D02*
X236075Y106521D01*
X234409Y105688D02*
X235242D01*
X224409D02*
Y106521D01*
X225242Y107355D01*
X224409Y108188D02*
X225242Y107355D01*
X224409Y108188D02*
Y109021D01*
X225242D01*
X226075Y108188D01*
X226909Y109021D01*
X227742D01*
Y108188D02*
Y109021D01*
X226909Y107355D02*
X227742Y108188D01*
X226909Y107355D02*
X227742Y106521D01*
Y105688D02*
Y106521D01*
X226909Y105688D02*
X227742D01*
X226075Y106521D02*
X226909Y105688D01*
X225242D02*
X226075Y106521D01*
X224409Y105688D02*
X225242D01*
X214409D02*
Y106521D01*
X215242Y107355D01*
X214409Y108188D02*
X215242Y107355D01*
X214409Y108188D02*
Y109021D01*
X215242D01*
X216075Y108188D01*
X216909Y109021D01*
X217742D01*
Y108188D02*
Y109021D01*
X216909Y107355D02*
X217742Y108188D01*
X216909Y107355D02*
X217742Y106521D01*
Y105688D02*
Y106521D01*
X216909Y105688D02*
X217742D01*
X216075Y106521D02*
X216909Y105688D01*
X215242D02*
X216075Y106521D01*
X214409Y105688D02*
X215242D01*
X204409D02*
Y106521D01*
X205242Y107355D01*
X204409Y108188D02*
X205242Y107355D01*
X204409Y108188D02*
Y109021D01*
X205242D01*
X206075Y108188D01*
X206909Y109021D01*
X207742D01*
Y108188D02*
Y109021D01*
X206909Y107355D02*
X207742Y108188D01*
X206909Y107355D02*
X207742Y106521D01*
Y105688D02*
Y106521D01*
X206909Y105688D02*
X207742D01*
X206075Y106521D02*
X206909Y105688D01*
X205242D02*
X206075Y106521D01*
X204409Y105688D02*
X205242D01*
X194409D02*
Y106521D01*
X195242Y107355D01*
X194409Y108188D02*
X195242Y107355D01*
X194409Y108188D02*
Y109021D01*
X195242D01*
X196075Y108188D01*
X196909Y109021D01*
X197742D01*
Y108188D02*
Y109021D01*
X196909Y107355D02*
X197742Y108188D01*
X196909Y107355D02*
X197742Y106521D01*
Y105688D02*
Y106521D01*
X196909Y105688D02*
X197742D01*
X196075Y106521D02*
X196909Y105688D01*
X195242D02*
X196075Y106521D01*
X194409Y105688D02*
X195242D01*
X184409D02*
Y106521D01*
X185242Y107355D01*
X184409Y108188D02*
X185242Y107355D01*
X184409Y108188D02*
Y109021D01*
X185242D01*
X186075Y108188D01*
X186909Y109021D01*
X187742D01*
Y108188D02*
Y109021D01*
X186909Y107355D02*
X187742Y108188D01*
X186909Y107355D02*
X187742Y106521D01*
Y105688D02*
Y106521D01*
X186909Y105688D02*
X187742D01*
X186075Y106521D02*
X186909Y105688D01*
X185242D02*
X186075Y106521D01*
X184409Y105688D02*
X185242D01*
X174409D02*
Y106521D01*
X175242Y107355D01*
X174409Y108188D02*
X175242Y107355D01*
X174409Y108188D02*
Y109021D01*
X175242D01*
X176075Y108188D01*
X176909Y109021D01*
X177742D01*
Y108188D02*
Y109021D01*
X176909Y107355D02*
X177742Y108188D01*
X176909Y107355D02*
X177742Y106521D01*
Y105688D02*
Y106521D01*
X176909Y105688D02*
X177742D01*
X176075Y106521D02*
X176909Y105688D01*
X175242D02*
X176075Y106521D01*
X174409Y105688D02*
X175242D01*
X164409D02*
Y106521D01*
X165242Y107355D01*
X164409Y108188D02*
X165242Y107355D01*
X164409Y108188D02*
Y109021D01*
X165242D01*
X166075Y108188D01*
X166909Y109021D01*
X167742D01*
Y108188D02*
Y109021D01*
X166909Y107355D02*
X167742Y108188D01*
X166909Y107355D02*
X167742Y106521D01*
Y105688D02*
Y106521D01*
X166909Y105688D02*
X167742D01*
X166075Y106521D02*
X166909Y105688D01*
X165242D02*
X166075Y106521D01*
X164409Y105688D02*
X165242D01*
X154409D02*
Y106521D01*
X155242Y107355D01*
X154409Y108188D02*
X155242Y107355D01*
X154409Y108188D02*
Y109021D01*
X155242D01*
X156075Y108188D01*
X156909Y109021D01*
X157742D01*
Y108188D02*
Y109021D01*
X156909Y107355D02*
X157742Y108188D01*
X156909Y107355D02*
X157742Y106521D01*
Y105688D02*
Y106521D01*
X156909Y105688D02*
X157742D01*
X156075Y106521D02*
X156909Y105688D01*
X155242D02*
X156075Y106521D01*
X154409Y105688D02*
X155242D01*
X144409D02*
Y106521D01*
X145242Y107355D01*
X144409Y108188D02*
X145242Y107355D01*
X144409Y108188D02*
Y109021D01*
X145242D01*
X146075Y108188D01*
X146909Y109021D01*
X147742D01*
Y108188D02*
Y109021D01*
X146909Y107355D02*
X147742Y108188D01*
X146909Y107355D02*
X147742Y106521D01*
Y105688D02*
Y106521D01*
X146909Y105688D02*
X147742D01*
X146075Y106521D02*
X146909Y105688D01*
X145242D02*
X146075Y106521D01*
X144409Y105688D02*
X145242D01*
X134409D02*
Y106521D01*
X135242Y107355D01*
X134409Y108188D02*
X135242Y107355D01*
X134409Y108188D02*
Y109021D01*
X135242D01*
X136075Y108188D01*
X136909Y109021D01*
X137742D01*
Y108188D02*
Y109021D01*
X136909Y107355D02*
X137742Y108188D01*
X136909Y107355D02*
X137742Y106521D01*
Y105688D02*
Y106521D01*
X136909Y105688D02*
X137742D01*
X136075Y106521D02*
X136909Y105688D01*
X135242D02*
X136075Y106521D01*
X134409Y105688D02*
X135242D01*
X302960Y201182D02*
X306294D01*
Y204515D01*
X302960D02*
X306294D01*
X302960Y201182D02*
Y204515D01*
X322173Y201182D02*
X325506D01*
Y204515D01*
X322173D02*
X325506D01*
X322173Y201182D02*
Y204515D01*
X152554Y152264D02*
Y153097D01*
X153387Y153930D01*
X152554Y154764D02*
X153387Y153930D01*
X152554Y154764D02*
Y155597D01*
X153387D01*
X154220Y154764D01*
X155054Y155597D01*
X155887D01*
Y154764D02*
Y155597D01*
X155054Y153930D02*
X155887Y154764D01*
X155054Y153930D02*
X155887Y153097D01*
Y152264D02*
Y153097D01*
X155054Y152264D02*
X155887D01*
X154220Y153097D02*
X155054Y152264D01*
X153387D02*
X154220Y153097D01*
X152554Y152264D02*
X153387D01*
X122554D02*
Y153097D01*
X123387Y153930D01*
X122554Y154764D02*
X123387Y153930D01*
X122554Y154764D02*
Y155597D01*
X123387D01*
X124220Y154764D01*
X125054Y155597D01*
X125887D01*
Y154764D02*
Y155597D01*
X125054Y153930D02*
X125887Y154764D01*
X125054Y153930D02*
X125887Y153097D01*
Y152264D02*
Y153097D01*
X125054Y152264D02*
X125887D01*
X124220Y153097D02*
X125054Y152264D01*
X123387D02*
X124220Y153097D01*
X122554Y152264D02*
X123387D01*
X372203Y235268D02*
Y236101D01*
X373036Y236935D01*
X372203Y237768D02*
X373036Y236935D01*
X372203Y237768D02*
Y238601D01*
X373036D01*
X373869Y237768D01*
X374703Y238601D01*
X375536D01*
Y237768D02*
Y238601D01*
X374703Y236935D02*
X375536Y237768D01*
X374703Y236935D02*
X375536Y236101D01*
Y235268D02*
Y236101D01*
X374703Y235268D02*
X375536D01*
X373869Y236101D02*
X374703Y235268D01*
X373036D02*
X373869Y236101D01*
X372203Y235268D02*
X373036D01*
X382203D02*
Y236101D01*
X383036Y236935D01*
X382203Y237768D02*
X383036Y236935D01*
X382203Y237768D02*
Y238601D01*
X383036D01*
X383869Y237768D01*
X384703Y238601D01*
X385536D01*
Y237768D02*
Y238601D01*
X384703Y236935D02*
X385536Y237768D01*
X384703Y236935D02*
X385536Y236101D01*
Y235268D02*
Y236101D01*
X384703Y235268D02*
X385536D01*
X383869Y236101D02*
X384703Y235268D01*
X383036D02*
X383869Y236101D01*
X382203Y235268D02*
X383036D01*
X372203Y225268D02*
Y226101D01*
X373036Y226935D01*
X372203Y227768D02*
X373036Y226935D01*
X372203Y227768D02*
Y228601D01*
X373036D01*
X373869Y227768D01*
X374703Y228601D01*
X375536D01*
Y227768D02*
Y228601D01*
X374703Y226935D02*
X375536Y227768D01*
X374703Y226935D02*
X375536Y226101D01*
Y225268D02*
Y226101D01*
X374703Y225268D02*
X375536D01*
X373869Y226101D02*
X374703Y225268D01*
X373036D02*
X373869Y226101D01*
X372203Y225268D02*
X373036D01*
X382203D02*
Y226101D01*
X383036Y226935D01*
X382203Y227768D02*
X383036Y226935D01*
X382203Y227768D02*
Y228601D01*
X383036D01*
X383869Y227768D01*
X384703Y228601D01*
X385536D01*
Y227768D02*
Y228601D01*
X384703Y226935D02*
X385536Y227768D01*
X384703Y226935D02*
X385536Y226101D01*
Y225268D02*
Y226101D01*
X384703Y225268D02*
X385536D01*
X383869Y226101D02*
X384703Y225268D01*
X383036D02*
X383869Y226101D01*
X382203Y225268D02*
X383036D01*
X372203Y215268D02*
Y216101D01*
X373036Y216935D01*
X372203Y217768D02*
X373036Y216935D01*
X372203Y217768D02*
Y218601D01*
X373036D01*
X373869Y217768D01*
X374703Y218601D01*
X375536D01*
Y217768D02*
Y218601D01*
X374703Y216935D02*
X375536Y217768D01*
X374703Y216935D02*
X375536Y216101D01*
Y215268D02*
Y216101D01*
X374703Y215268D02*
X375536D01*
X373869Y216101D02*
X374703Y215268D01*
X373036D02*
X373869Y216101D01*
X372203Y215268D02*
X373036D01*
X382203D02*
Y216101D01*
X383036Y216935D01*
X382203Y217768D02*
X383036Y216935D01*
X382203Y217768D02*
Y218601D01*
X383036D01*
X383869Y217768D01*
X384703Y218601D01*
X385536D01*
Y217768D02*
Y218601D01*
X384703Y216935D02*
X385536Y217768D01*
X384703Y216935D02*
X385536Y216101D01*
Y215268D02*
Y216101D01*
X384703Y215268D02*
X385536D01*
X383869Y216101D02*
X384703Y215268D01*
X383036D02*
X383869Y216101D01*
X382203Y215268D02*
X383036D01*
D60*
X723063Y209765D02*
Y202567D01*
Y206166D01*
X727861D01*
Y209765D01*
Y202567D01*
X731460D02*
X733859D01*
X735059Y203766D01*
Y206166D01*
X733859Y207365D01*
X731460D01*
X730260Y206166D01*
Y203766D01*
X731460Y202567D01*
X737458D02*
X739857D01*
X738657D01*
Y209765D01*
X737458D01*
X747055Y202567D02*
X744656D01*
X743456Y203766D01*
Y206166D01*
X744656Y207365D01*
X747055D01*
X748254Y206166D01*
Y204966D01*
X743456D01*
X757851Y209765D02*
X762650D01*
X760250D01*
Y202567D01*
X765049Y207365D02*
Y203766D01*
X766249Y202567D01*
X769847D01*
Y201367D01*
X768648Y200168D01*
X767448D01*
X769847Y202567D02*
Y207365D01*
X772247Y200168D02*
Y207365D01*
X775845D01*
X777045Y206166D01*
Y203766D01*
X775845Y202567D01*
X772247D01*
X783043D02*
X780644D01*
X779444Y203766D01*
Y206166D01*
X780644Y207365D01*
X783043D01*
X784243Y206166D01*
Y204966D01*
X779444D01*
X672475Y202567D02*
Y209765D01*
X676074D01*
X677273Y208565D01*
Y206166D01*
X676074Y204966D01*
X672475D01*
X679673Y202567D02*
X682072D01*
X680872D01*
Y209765D01*
X679673D01*
X686870Y207365D02*
X689269D01*
X690469Y206166D01*
Y202567D01*
X686870D01*
X685671Y203766D01*
X686870Y204966D01*
X690469D01*
X694068Y208565D02*
Y207365D01*
X692868D01*
X695267D01*
X694068D01*
Y203766D01*
X695267Y202567D01*
X702465D02*
X700066D01*
X698866Y203766D01*
Y206166D01*
X700066Y207365D01*
X702465D01*
X703665Y206166D01*
Y204966D01*
X698866D01*
X710862Y209765D02*
Y202567D01*
X707264D01*
X706064Y203766D01*
Y206166D01*
X707264Y207365D01*
X710862D01*
X542713Y209765D02*
X537915D01*
Y206166D01*
X540314D01*
X537915D01*
Y202567D01*
X545112D02*
X547511D01*
X546312D01*
Y207365D01*
X545112D01*
X551110Y202567D02*
Y207365D01*
X554709D01*
X555909Y206166D01*
Y202567D01*
X558308D02*
X560707D01*
X559508D01*
Y207365D01*
X558308D01*
X564306Y202567D02*
X567905D01*
X569104Y203766D01*
X567905Y204966D01*
X565506D01*
X564306Y206166D01*
X565506Y207365D01*
X569104D01*
X571504Y209765D02*
Y202567D01*
Y206166D01*
X572703Y207365D01*
X575103D01*
X576302Y206166D01*
Y202567D01*
X582300D02*
X579901D01*
X578701Y203766D01*
Y206166D01*
X579901Y207365D01*
X582300D01*
X583500Y206166D01*
Y204966D01*
X578701D01*
X590697Y209765D02*
Y202567D01*
X587099D01*
X585899Y203766D01*
Y206166D01*
X587099Y207365D01*
X590697D01*
X600294Y209765D02*
Y202567D01*
Y206166D01*
X605093D01*
Y209765D01*
Y202567D01*
X608692D02*
X611091D01*
X612290Y203766D01*
Y206166D01*
X611091Y207365D01*
X608692D01*
X607492Y206166D01*
Y203766D01*
X608692Y202567D01*
X614690D02*
X617089D01*
X615889D01*
Y209765D01*
X614690D01*
X624287Y202567D02*
X621887D01*
X620688Y203766D01*
Y206166D01*
X621887Y207365D01*
X624287D01*
X625486Y206166D01*
Y204966D01*
X620688D01*
X639882Y208565D02*
X638682Y209765D01*
X636283D01*
X635083Y208565D01*
Y207365D01*
X636283Y206166D01*
X638682D01*
X639882Y204966D01*
Y203766D01*
X638682Y202567D01*
X636283D01*
X635083Y203766D01*
X642281Y202567D02*
X644680D01*
X643480D01*
Y207365D01*
X642281D01*
X648279D02*
X653077D01*
X648279Y202567D01*
X653077D01*
X659075D02*
X656676D01*
X655477Y203766D01*
Y206166D01*
X656676Y207365D01*
X659075D01*
X660275Y206166D01*
Y204966D01*
X655477D01*
X468133Y209765D02*
Y202567D01*
Y206166D01*
X472932D01*
Y209765D01*
Y202567D01*
X475331D02*
X477730D01*
X476530D01*
Y207365D01*
X475331D01*
X482528Y208565D02*
Y207365D01*
X481329D01*
X483728D01*
X482528D01*
Y203766D01*
X483728Y202567D01*
X499323Y208565D02*
X498123Y209765D01*
X495724D01*
X494525Y208565D01*
Y203766D01*
X495724Y202567D01*
X498123D01*
X499323Y203766D01*
X502922Y202567D02*
X505321D01*
X506521Y203766D01*
Y206166D01*
X505321Y207365D01*
X502922D01*
X501722Y206166D01*
Y203766D01*
X502922Y202567D01*
X508920Y207365D02*
Y203766D01*
X510119Y202567D01*
X513718D01*
Y207365D01*
X516118Y202567D02*
Y207365D01*
X519716D01*
X520916Y206166D01*
Y202567D01*
X524515Y208565D02*
Y207365D01*
X523315D01*
X525714D01*
X524515D01*
Y203766D01*
X525714Y202567D01*
X422344Y208565D02*
X421144Y209765D01*
X418745D01*
X417546Y208565D01*
Y207365D01*
X418745Y206166D01*
X421144D01*
X422344Y204966D01*
Y203766D01*
X421144Y202567D01*
X418745D01*
X417546Y203766D01*
X424743Y207365D02*
Y203766D01*
X425943Y202567D01*
X429542D01*
Y201367D01*
X428342Y200168D01*
X427142D01*
X429542Y202567D02*
Y207365D01*
X431941Y202567D02*
Y207365D01*
X433141D01*
X434340Y206166D01*
Y202567D01*
Y206166D01*
X435540Y207365D01*
X436739Y206166D01*
Y202567D01*
X439139Y209765D02*
Y202567D01*
X442737D01*
X443937Y203766D01*
Y204966D01*
Y206166D01*
X442737Y207365D01*
X439139D01*
X447536Y202567D02*
X449935D01*
X451135Y203766D01*
Y206166D01*
X449935Y207365D01*
X447536D01*
X446336Y206166D01*
Y203766D01*
X447536Y202567D01*
X453534D02*
X455933D01*
X454734D01*
Y209765D01*
X453534D01*
M02*
