%FSLAX25Y25*%
%MOIN*%
G70*
G01*
G75*
G04 Layer_Physical_Order=1*
G04 Layer_Color=255*
%ADD10R,0.02756X0.03150*%
%ADD11R,0.11000X0.02900*%
%ADD12O,0.08661X0.02362*%
%ADD13R,0.03150X0.02756*%
%ADD14R,0.05906X0.02362*%
%ADD15R,0.05118X0.03150*%
%ADD16R,0.12598X0.07874*%
%ADD17O,0.06890X0.01181*%
%ADD18C,0.01181*%
%ADD19C,0.01000*%
%ADD20C,0.01800*%
%ADD21C,0.02000*%
%ADD22C,0.03000*%
%ADD23C,0.07874*%
G04:AMPARAMS|DCode=24|XSize=78.74mil|YSize=78.74mil|CornerRadius=19.69mil|HoleSize=0mil|Usage=FLASHONLY|Rotation=0.000|XOffset=0mil|YOffset=0mil|HoleType=Round|Shape=RoundedRectangle|*
%AMROUNDEDRECTD24*
21,1,0.07874,0.03937,0,0,0.0*
21,1,0.03937,0.07874,0,0,0.0*
1,1,0.03937,0.01969,-0.01969*
1,1,0.03937,-0.01969,-0.01969*
1,1,0.03937,-0.01969,0.01969*
1,1,0.03937,0.01969,0.01969*
%
%ADD24ROUNDEDRECTD24*%
%ADD25C,0.23622*%
%ADD26C,0.05906*%
%ADD27R,0.05906X0.05906*%
%ADD28R,0.05906X0.05906*%
%ADD29C,0.27559*%
%ADD30C,0.06299*%
%ADD31R,0.06299X0.06299*%
%ADD32C,0.16535*%
%ADD33C,0.19685*%
%ADD34C,0.07087*%
%ADD35C,0.06000*%
%ADD36C,0.02756*%
%ADD37C,0.02362*%
%ADD38C,0.03937*%
%ADD39C,0.01969*%
D10*
X289370Y28740D02*
D03*
Y24409D02*
D03*
X296260Y24409D02*
D03*
Y28740D02*
D03*
X484385Y52713D02*
D03*
Y48382D02*
D03*
X515881Y23185D02*
D03*
Y18854D02*
D03*
X278972Y158370D02*
D03*
Y154039D02*
D03*
X286846Y154039D02*
D03*
Y158370D02*
D03*
X294720Y158370D02*
D03*
Y154039D02*
D03*
X63125Y87752D02*
D03*
Y92083D02*
D03*
X55251Y92083D02*
D03*
Y87752D02*
D03*
X47377Y87752D02*
D03*
Y92083D02*
D03*
X214861Y132760D02*
D03*
Y137091D02*
D03*
X206987Y137091D02*
D03*
Y132760D02*
D03*
X199113Y132760D02*
D03*
Y137091D02*
D03*
X215094Y87949D02*
D03*
Y92279D02*
D03*
X207220Y92279D02*
D03*
Y87949D02*
D03*
X199346Y87949D02*
D03*
Y92279D02*
D03*
X214861Y177248D02*
D03*
Y181579D02*
D03*
X206987Y181579D02*
D03*
Y177248D02*
D03*
X199113Y177248D02*
D03*
Y181579D02*
D03*
X12893Y87819D02*
D03*
Y92150D02*
D03*
X5019Y92150D02*
D03*
Y87819D02*
D03*
X-2855Y87819D02*
D03*
Y92150D02*
D03*
X12893Y132819D02*
D03*
Y137150D02*
D03*
X5019Y137150D02*
D03*
Y132819D02*
D03*
X-2855Y132819D02*
D03*
Y137150D02*
D03*
X12731Y177122D02*
D03*
Y181453D02*
D03*
X4857Y181453D02*
D03*
Y177122D02*
D03*
X-3017Y177122D02*
D03*
Y181453D02*
D03*
X63125Y177122D02*
D03*
Y181453D02*
D03*
X55251Y181453D02*
D03*
Y177122D02*
D03*
X47377Y177122D02*
D03*
Y181453D02*
D03*
X163913Y132634D02*
D03*
Y136965D02*
D03*
X156039Y136965D02*
D03*
Y132634D02*
D03*
X148165Y132634D02*
D03*
Y136965D02*
D03*
X164074Y87878D02*
D03*
Y92209D02*
D03*
X156200Y92209D02*
D03*
Y87878D02*
D03*
X148326Y87878D02*
D03*
Y92209D02*
D03*
X113287Y87484D02*
D03*
Y91815D02*
D03*
X105413Y91815D02*
D03*
Y87484D02*
D03*
X97539Y87484D02*
D03*
Y91815D02*
D03*
X164074Y177248D02*
D03*
Y181579D02*
D03*
X156200Y181579D02*
D03*
Y177248D02*
D03*
X148326Y177248D02*
D03*
Y181579D02*
D03*
X113680Y177248D02*
D03*
Y181579D02*
D03*
X105806Y181579D02*
D03*
Y177248D02*
D03*
X97932Y177248D02*
D03*
Y181579D02*
D03*
X113287Y132366D02*
D03*
Y136697D02*
D03*
X105413Y136697D02*
D03*
Y132366D02*
D03*
X97539Y132366D02*
D03*
Y136697D02*
D03*
X63287Y132366D02*
D03*
Y136697D02*
D03*
X55413Y136697D02*
D03*
Y132366D02*
D03*
X47539Y132366D02*
D03*
Y136697D02*
D03*
X279523Y176866D02*
D03*
Y172535D02*
D03*
D11*
X277251Y222555D02*
D03*
X293251D02*
D03*
Y217555D02*
D03*
X277251D02*
D03*
X293251Y212555D02*
D03*
X277251D02*
D03*
X293251Y207555D02*
D03*
X277251D02*
D03*
X293251Y202555D02*
D03*
X277251D02*
D03*
D12*
X472180Y37142D02*
D03*
Y42142D02*
D03*
Y47142D02*
D03*
Y52142D02*
D03*
X453283Y37142D02*
D03*
Y42142D02*
D03*
Y47142D02*
D03*
Y52142D02*
D03*
X496590D02*
D03*
Y47142D02*
D03*
Y42142D02*
D03*
Y37142D02*
D03*
X515487Y52142D02*
D03*
Y47142D02*
D03*
Y42142D02*
D03*
Y37142D02*
D03*
D13*
X503873Y60390D02*
D03*
X508204D02*
D03*
X641078Y146020D02*
D03*
X636747D02*
D03*
X641078Y134209D02*
D03*
X636747D02*
D03*
X642062Y89917D02*
D03*
X637732D02*
D03*
X642062Y101728D02*
D03*
X637732D02*
D03*
X642062Y60390D02*
D03*
X637732D02*
D03*
X642062Y50547D02*
D03*
X637732D02*
D03*
X278184Y121953D02*
D03*
X282515D02*
D03*
X278184Y129039D02*
D03*
X282515D02*
D03*
X289208Y121953D02*
D03*
X293539D02*
D03*
X289208Y129039D02*
D03*
X293539D02*
D03*
X63913Y124169D02*
D03*
X59582D02*
D03*
X63913Y117083D02*
D03*
X59582D02*
D03*
X52889Y124169D02*
D03*
X48558D02*
D03*
X52889Y117083D02*
D03*
X48558D02*
D03*
X215649Y169177D02*
D03*
X211318D02*
D03*
X215649Y162091D02*
D03*
X211318D02*
D03*
X204625Y169177D02*
D03*
X200294D02*
D03*
X204625Y162091D02*
D03*
X200294D02*
D03*
X215881Y124366D02*
D03*
X211550D02*
D03*
X215881Y117280D02*
D03*
X211550D02*
D03*
X204857Y124366D02*
D03*
X200527D02*
D03*
X204857Y117280D02*
D03*
X200527D02*
D03*
X215649Y213665D02*
D03*
X211318D02*
D03*
X215649Y206579D02*
D03*
X211318D02*
D03*
X204625Y213665D02*
D03*
X200294D02*
D03*
X204625Y206579D02*
D03*
X200294D02*
D03*
X13680Y124236D02*
D03*
X9350D02*
D03*
X13680Y117150D02*
D03*
X9350D02*
D03*
X2657Y124236D02*
D03*
X-1674D02*
D03*
X2657Y117150D02*
D03*
X-1674D02*
D03*
X13680Y169236D02*
D03*
X9350D02*
D03*
X13680Y162150D02*
D03*
X9350D02*
D03*
X2657Y169236D02*
D03*
X-1674D02*
D03*
X2657Y162150D02*
D03*
X-1674D02*
D03*
X13519Y213539D02*
D03*
X9188D02*
D03*
X13519Y206453D02*
D03*
X9188D02*
D03*
X2495Y213539D02*
D03*
X-1835D02*
D03*
X2495Y206453D02*
D03*
X-1835D02*
D03*
X63913Y213539D02*
D03*
X59582D02*
D03*
X63913Y206453D02*
D03*
X59582D02*
D03*
X52889Y213539D02*
D03*
X48558D02*
D03*
X52889Y206453D02*
D03*
X48558D02*
D03*
X164700Y169051D02*
D03*
X160369D02*
D03*
X164700Y161965D02*
D03*
X160369D02*
D03*
X153676Y169051D02*
D03*
X149346D02*
D03*
X153676Y161965D02*
D03*
X149346D02*
D03*
X164861Y124295D02*
D03*
X160531D02*
D03*
X164861Y117209D02*
D03*
X160531D02*
D03*
X153838Y124295D02*
D03*
X149507D02*
D03*
X153838Y117209D02*
D03*
X149507D02*
D03*
X114074Y123902D02*
D03*
X109743D02*
D03*
X114074Y116815D02*
D03*
X109743D02*
D03*
X103050Y123902D02*
D03*
X98720D02*
D03*
X103050Y116815D02*
D03*
X98720D02*
D03*
X164861Y213665D02*
D03*
X160531D02*
D03*
X164861Y206579D02*
D03*
X160531D02*
D03*
X153838Y213665D02*
D03*
X149507D02*
D03*
X153838Y206579D02*
D03*
X149507D02*
D03*
X114468Y213665D02*
D03*
X110137D02*
D03*
X114468Y206579D02*
D03*
X110137D02*
D03*
X103444Y213665D02*
D03*
X99113D02*
D03*
X103444Y206579D02*
D03*
X99113D02*
D03*
X114074Y168783D02*
D03*
X109743D02*
D03*
X114074Y161697D02*
D03*
X109743D02*
D03*
X103050Y168783D02*
D03*
X98720D02*
D03*
X103050Y161697D02*
D03*
X98720D02*
D03*
X64074Y168783D02*
D03*
X59743D02*
D03*
X64074Y161697D02*
D03*
X59743D02*
D03*
X53050Y168783D02*
D03*
X48720D02*
D03*
X53050Y161697D02*
D03*
X48720D02*
D03*
D14*
X498558Y24524D02*
D03*
Y17516D02*
D03*
X505845Y21020D02*
D03*
D15*
X533598Y49007D02*
D03*
Y44676D02*
D03*
Y40346D02*
D03*
X545409Y49007D02*
D03*
Y44676D02*
D03*
Y40346D02*
D03*
D16*
X262436Y127661D02*
D03*
Y153252D02*
D03*
X79661Y118461D02*
D03*
Y92870D02*
D03*
X231397Y163469D02*
D03*
Y137878D02*
D03*
X231629Y118658D02*
D03*
Y93067D02*
D03*
X231397Y207957D02*
D03*
Y182366D02*
D03*
X29428Y118527D02*
D03*
Y92937D02*
D03*
Y163528D02*
D03*
Y137937D02*
D03*
X29267Y207831D02*
D03*
Y182240D02*
D03*
X79661Y207831D02*
D03*
Y182240D02*
D03*
X180448Y163342D02*
D03*
Y137752D02*
D03*
X180610Y118587D02*
D03*
Y92996D02*
D03*
X129822Y118193D02*
D03*
Y92602D02*
D03*
X180610Y207957D02*
D03*
Y182366D02*
D03*
X130216Y207957D02*
D03*
Y182366D02*
D03*
X129822Y163075D02*
D03*
Y137484D02*
D03*
X79822Y163075D02*
D03*
Y137484D02*
D03*
D17*
X278775Y144394D02*
D03*
Y142425D02*
D03*
Y140457D02*
D03*
Y138488D02*
D03*
Y136520D02*
D03*
X294917Y144394D02*
D03*
Y142425D02*
D03*
Y140457D02*
D03*
Y138488D02*
D03*
Y136520D02*
D03*
X63322Y101728D02*
D03*
Y103697D02*
D03*
Y105665D02*
D03*
Y107634D02*
D03*
Y109602D02*
D03*
X47180Y101728D02*
D03*
Y103697D02*
D03*
Y105665D02*
D03*
Y107634D02*
D03*
Y109602D02*
D03*
X215058Y146736D02*
D03*
Y148705D02*
D03*
Y150673D02*
D03*
Y152642D02*
D03*
Y154610D02*
D03*
X198917Y146736D02*
D03*
Y148705D02*
D03*
Y150673D02*
D03*
Y152642D02*
D03*
Y154610D02*
D03*
X215291Y101925D02*
D03*
Y103894D02*
D03*
Y105862D02*
D03*
Y107831D02*
D03*
Y109799D02*
D03*
X199149Y101925D02*
D03*
Y103894D02*
D03*
Y105862D02*
D03*
Y107831D02*
D03*
Y109799D02*
D03*
X215058Y191224D02*
D03*
Y193193D02*
D03*
Y195161D02*
D03*
Y197130D02*
D03*
Y199098D02*
D03*
X198917Y191224D02*
D03*
Y193193D02*
D03*
Y195161D02*
D03*
Y197130D02*
D03*
Y199098D02*
D03*
X13090Y101795D02*
D03*
Y103764D02*
D03*
Y105732D02*
D03*
Y107701D02*
D03*
Y109669D02*
D03*
X-3052Y101795D02*
D03*
Y103764D02*
D03*
Y105732D02*
D03*
Y107701D02*
D03*
Y109669D02*
D03*
X13090Y146795D02*
D03*
Y148764D02*
D03*
Y150732D02*
D03*
Y152701D02*
D03*
Y154669D02*
D03*
X-3052Y146795D02*
D03*
Y148764D02*
D03*
Y150732D02*
D03*
Y152701D02*
D03*
Y154669D02*
D03*
X12928Y191098D02*
D03*
Y193067D02*
D03*
Y195035D02*
D03*
Y197004D02*
D03*
Y198972D02*
D03*
X-3213Y191098D02*
D03*
Y193067D02*
D03*
Y195035D02*
D03*
Y197004D02*
D03*
Y198972D02*
D03*
X63322Y191098D02*
D03*
Y193067D02*
D03*
Y195035D02*
D03*
Y197004D02*
D03*
Y198972D02*
D03*
X47180Y191098D02*
D03*
Y193067D02*
D03*
Y195035D02*
D03*
Y197004D02*
D03*
Y198972D02*
D03*
X164110Y146610D02*
D03*
Y148579D02*
D03*
Y150547D02*
D03*
Y152516D02*
D03*
Y154484D02*
D03*
X147968Y146610D02*
D03*
Y148579D02*
D03*
Y150547D02*
D03*
Y152516D02*
D03*
Y154484D02*
D03*
X164271Y101854D02*
D03*
Y103823D02*
D03*
Y105791D02*
D03*
Y107760D02*
D03*
Y109728D02*
D03*
X148129Y101854D02*
D03*
Y103823D02*
D03*
Y105791D02*
D03*
Y107760D02*
D03*
Y109728D02*
D03*
X113484Y101461D02*
D03*
Y103429D02*
D03*
Y105398D02*
D03*
Y107366D02*
D03*
Y109335D02*
D03*
X97342Y101461D02*
D03*
Y103429D02*
D03*
Y105398D02*
D03*
Y107366D02*
D03*
Y109335D02*
D03*
X164271Y191224D02*
D03*
Y193193D02*
D03*
Y195161D02*
D03*
Y197130D02*
D03*
Y199098D02*
D03*
X148129Y191224D02*
D03*
Y193193D02*
D03*
Y195161D02*
D03*
Y197130D02*
D03*
Y199098D02*
D03*
X113877Y191224D02*
D03*
Y193193D02*
D03*
Y195161D02*
D03*
Y197130D02*
D03*
Y199098D02*
D03*
X97736Y191224D02*
D03*
Y193193D02*
D03*
Y195161D02*
D03*
Y197130D02*
D03*
Y199098D02*
D03*
X113484Y146343D02*
D03*
Y148311D02*
D03*
Y150279D02*
D03*
Y152248D02*
D03*
Y154217D02*
D03*
X97342Y146343D02*
D03*
Y148311D02*
D03*
Y150279D02*
D03*
Y152248D02*
D03*
Y154217D02*
D03*
X63484Y146343D02*
D03*
Y148311D02*
D03*
Y150279D02*
D03*
Y152248D02*
D03*
Y154217D02*
D03*
X47342Y146343D02*
D03*
Y148311D02*
D03*
Y150279D02*
D03*
Y152248D02*
D03*
Y154217D02*
D03*
D18*
X29267Y182240D02*
Y187161D01*
X12928Y191213D02*
X25216D01*
X29267Y187161D01*
X29428Y137937D02*
Y142858D01*
X13090Y146909D02*
X25377D01*
X29428Y142858D01*
Y92937D02*
Y97858D01*
X13090Y101909D02*
X25377D01*
X29428Y97858D01*
X79661Y92870D02*
Y97791D01*
X63322Y101842D02*
X75609D01*
X79661Y97791D01*
X79822Y137484D02*
Y142405D01*
X63484Y146457D02*
X75771D01*
X79822Y142405D01*
X79661Y182240D02*
Y187161D01*
X63322Y191213D02*
X75609D01*
X79661Y187161D01*
X125771Y146457D02*
X129822Y142405D01*
X113484Y146457D02*
X125771D01*
X266279Y144488D02*
X280024D01*
X262436Y148331D02*
X266279Y144488D01*
X231397Y182366D02*
Y187287D01*
X215058Y191339D02*
X227346D01*
X231397Y187287D01*
Y137878D02*
Y142799D01*
X215058Y146850D02*
X227346D01*
X231397Y142799D01*
X231629Y93067D02*
Y97988D01*
X215291Y102039D02*
X227578D01*
X231629Y97988D01*
X180610Y92996D02*
Y97917D01*
X164271Y101969D02*
X176558D01*
X180610Y97917D01*
X180448Y137752D02*
Y142673D01*
X164110Y146724D02*
X176397D01*
X180448Y142673D01*
X180645Y182331D02*
Y187252D01*
X164306Y191303D02*
X176594D01*
X180645Y187252D01*
X129822Y92602D02*
Y97524D01*
X113484Y101575D02*
X125771D01*
X129822Y97524D01*
Y137484D02*
Y142405D01*
X126165Y191339D02*
X130216Y187287D01*
X113877Y191339D02*
X126165D01*
X97736Y181776D02*
Y191224D01*
X148129Y92405D02*
Y101854D01*
X147968Y137161D02*
Y146610D01*
X148129Y181776D02*
Y191224D01*
X198917Y181776D02*
Y191224D01*
X199113Y137091D02*
Y146539D01*
X199149Y92476D02*
X199346Y92279D01*
X199149Y92476D02*
Y101925D01*
X97342Y136894D02*
Y146343D01*
Y92012D02*
Y101461D01*
X47377Y92083D02*
Y101532D01*
X47342Y136894D02*
Y146343D01*
X47180Y181650D02*
Y191098D01*
X-3017Y181453D02*
Y190902D01*
X-2855Y137150D02*
Y146598D01*
X-3052Y92346D02*
Y101795D01*
X47180Y193067D02*
X51708D01*
X56665Y198024D01*
Y206453D01*
X54857Y198972D02*
Y201728D01*
X53283Y203303D02*
X54857Y201728D01*
X44621Y203303D02*
X53283D01*
X50920Y195035D02*
X54857Y198972D01*
X47180Y195035D02*
X50920D01*
X42590Y205335D02*
Y209181D01*
Y205335D02*
X44621Y203303D01*
X148129Y103823D02*
X152657D01*
X157613Y108780D01*
Y117209D01*
X155806Y109728D02*
Y112484D01*
X154232Y114059D02*
X155806Y112484D01*
X145570Y114059D02*
X154232D01*
X151869Y105791D02*
X155806Y109728D01*
X148129Y105791D02*
X151869D01*
X143539Y116091D02*
Y119937D01*
Y116091D02*
X145570Y114059D01*
X147968Y148579D02*
X152495D01*
X157452Y153535D01*
Y161965D01*
X155645Y154484D02*
Y157240D01*
X154070Y158815D02*
X155645Y157240D01*
X145409Y158815D02*
X154070D01*
X151708Y150547D02*
X155645Y154484D01*
X147968Y150547D02*
X151708D01*
X143377Y160846D02*
Y164693D01*
Y160846D02*
X145409Y158815D01*
X148129Y193193D02*
X152657D01*
X157613Y198150D01*
Y206579D01*
X155806Y199098D02*
Y201854D01*
X154232Y203429D02*
X155806Y201854D01*
X145570Y203429D02*
X154232D01*
X151869Y195161D02*
X155806Y199098D01*
X148129Y195161D02*
X151869D01*
X143539Y205461D02*
Y209307D01*
Y205461D02*
X145570Y203429D01*
X196393Y112555D02*
X202889D01*
X193628Y115321D02*
X196393Y112555D01*
X198917Y148705D02*
X203444D01*
X208401Y153661D01*
Y162091D01*
X206594Y154610D02*
Y157366D01*
X205019Y158941D02*
X206594Y157366D01*
X196358Y158941D02*
X205019D01*
X202657Y150673D02*
X206594Y154610D01*
X198917Y150673D02*
X202657D01*
X194326Y160972D02*
Y164819D01*
Y160972D02*
X196358Y158941D01*
X198917Y193193D02*
X203444D01*
X208401Y198150D01*
Y206579D01*
X206594Y199099D02*
Y201854D01*
X205019Y203429D02*
X206594Y201854D01*
X196358Y203429D02*
X205019D01*
X202657Y195161D02*
X206594Y199099D01*
X198917Y195161D02*
X202657D01*
X194326Y205461D02*
Y209307D01*
Y205461D02*
X196358Y203429D01*
X92751Y115697D02*
X94783Y113665D01*
X92751Y115697D02*
Y119543D01*
X106826Y116815D02*
X109743D01*
X106826Y108386D02*
Y116815D01*
X101869Y103429D02*
X106826Y108386D01*
X97342Y105398D02*
X101082D01*
X105019Y109335D01*
X94783Y113665D02*
X103444D01*
X105019Y112091D01*
Y109335D02*
Y112091D01*
X56235Y206453D02*
X56639Y206050D01*
X286846Y144394D02*
X290783Y148331D01*
X278775Y144394D02*
X286846D01*
X286846Y158370D02*
X290783D01*
X269326Y142425D02*
X278775D01*
X290783Y148331D02*
Y158370D01*
X262436Y127661D02*
Y135535D01*
X269326Y142425D01*
X282515Y129039D02*
X285861D01*
X289208D01*
X282515Y121953D02*
X289208D01*
Y122258D01*
X292445Y125496D01*
X298657D01*
X288814Y138094D02*
X291176Y140457D01*
X294917D01*
X285861Y129039D02*
Y137898D01*
X290389Y142425D01*
X294917D01*
X288814Y136126D02*
Y138094D01*
Y136126D02*
X291176Y133764D01*
X297476D01*
X262436Y148331D02*
Y153252D01*
X55251Y101728D02*
X63322D01*
X51314Y97791D02*
X55251Y101728D01*
X51314Y87752D02*
Y97791D01*
Y87752D02*
X55251D01*
X79661Y110587D02*
Y118461D01*
X72771Y103697D02*
X79661Y110587D01*
X63322Y103697D02*
X72771D01*
X56235Y117083D02*
X59582D01*
X52889D02*
X56235D01*
X51708Y103697D02*
X56235Y108224D01*
Y117083D01*
X47180Y103697D02*
X51708D01*
X53283Y108028D02*
Y109996D01*
X50920Y105665D02*
X53283Y108028D01*
X49651Y120626D02*
X52889Y123864D01*
X50920Y112358D02*
X53283Y109996D01*
X43440Y120626D02*
X49651D01*
X44621Y112358D02*
X50920D01*
X47180Y105665D02*
X50920D01*
X52889Y124169D02*
X59582D01*
X52889Y123864D02*
Y124169D01*
X206987Y146736D02*
X215058D01*
X203050Y142799D02*
X206987Y146736D01*
X203050Y132760D02*
Y142799D01*
Y132760D02*
X206987D01*
X231397Y155595D02*
Y163469D01*
X224507Y148705D02*
X231397Y155595D01*
X215058Y148705D02*
X224507D01*
X207972Y162091D02*
X211318D01*
X204625D02*
X207972D01*
X201388Y165634D02*
X204625Y168871D01*
X195176Y165634D02*
X201388D01*
X204625Y169177D02*
X211318D01*
X204625Y168871D02*
Y169177D01*
X207220Y101925D02*
X215291D01*
X203283Y97988D02*
X207220Y101925D01*
X203283Y87949D02*
Y97988D01*
Y87949D02*
X207220D01*
X231629Y110784D02*
Y118658D01*
X224739Y103894D02*
X231629Y110784D01*
X215291Y103894D02*
X224739D01*
X208204Y117280D02*
X211550D01*
X204857D02*
X208204D01*
X203676Y103894D02*
X208204Y108421D01*
Y117280D01*
X199149Y103894D02*
X203676D01*
X205251Y108224D02*
Y110193D01*
X202889Y105862D02*
X205251Y108224D01*
X201620Y120823D02*
X204857Y124060D01*
X202889Y112555D02*
X205251Y110193D01*
X195409Y120823D02*
X201620D01*
X199149Y105862D02*
X202889D01*
X204857Y124366D02*
X211550D01*
X204857Y124060D02*
Y124366D01*
X206987Y191224D02*
X215058D01*
X203050Y187287D02*
X206987Y191224D01*
X203050Y177248D02*
Y187287D01*
Y177248D02*
X206987D01*
X224507Y193193D02*
X231397Y200083D01*
X215058Y193193D02*
X224507D01*
X207972Y206579D02*
X211318D01*
X204625D02*
X207972D01*
X201388Y210122D02*
X204625Y213360D01*
X195176Y210122D02*
X201388D01*
X204625Y213665D02*
X211318D01*
X204625Y213360D02*
Y213665D01*
X5019Y101795D02*
X13090D01*
X1082Y97858D02*
X5019Y101795D01*
X1082Y87819D02*
Y97858D01*
Y87819D02*
X5019D01*
X29428Y110653D02*
Y118527D01*
X22539Y103764D02*
X29428Y110653D01*
X13090Y103764D02*
X22539D01*
X6003Y117150D02*
X9350D01*
X2657D02*
X6003D01*
X1476Y103764D02*
X6003Y108291D01*
Y117150D01*
X-3052Y103764D02*
X1476D01*
X3050Y108095D02*
Y110063D01*
X688Y105732D02*
X3050Y108095D01*
X-581Y120693D02*
X2657Y123931D01*
X688Y112425D02*
X3050Y110063D01*
X-6792Y120693D02*
X-581D01*
X-5611Y112425D02*
X688D01*
X-3052Y105732D02*
X688D01*
X2657Y124236D02*
X9350D01*
X2657Y123931D02*
Y124236D01*
X5019Y146795D02*
X13090D01*
X1082Y142858D02*
X5019Y146795D01*
X1082Y132819D02*
Y142858D01*
Y132819D02*
X5019D01*
X22539Y148764D02*
X29428Y155654D01*
X13090Y148764D02*
X22539D01*
X6003Y162150D02*
X9350D01*
X2657D02*
X6003D01*
X1476Y148764D02*
X6003Y153291D01*
Y162150D01*
X-3052Y148764D02*
X1476D01*
X3050Y153094D02*
Y155063D01*
X688Y150732D02*
X3050Y153094D01*
X-581Y165693D02*
X2657Y168930D01*
X688Y157425D02*
X3050Y155063D01*
X-6792Y165693D02*
X-581D01*
X-5611Y157425D02*
X688D01*
X-3052Y150732D02*
X688D01*
X2657Y169236D02*
X9350D01*
X2657Y168930D02*
Y169236D01*
X4857Y191098D02*
X12928D01*
X920Y187161D02*
X4857Y191098D01*
X920Y177122D02*
Y187161D01*
Y177122D02*
X4857D01*
X29267Y199957D02*
Y207831D01*
X22377Y193067D02*
X29267Y199957D01*
X12928Y193067D02*
X22377D01*
X5842Y206453D02*
X9188D01*
X2495D02*
X5842D01*
X1314Y193067D02*
X5842Y197594D01*
Y206453D01*
X-3213Y193067D02*
X1314D01*
X2889Y197398D02*
Y199366D01*
X527Y195035D02*
X2889Y197398D01*
X-742Y209996D02*
X2495Y213234D01*
X527Y201728D02*
X2889Y199366D01*
X-6954Y209996D02*
X-742D01*
X-5772Y201728D02*
X527D01*
X-3213Y195035D02*
X527D01*
X2495Y213539D02*
X9188D01*
X2495Y213234D02*
Y213539D01*
X55251Y191098D02*
X63322D01*
X51314Y187161D02*
X55251Y191098D01*
X51314Y177122D02*
Y187161D01*
Y177122D02*
X55251D01*
X79661Y199957D02*
Y207831D01*
X72771Y193067D02*
X79661Y199957D01*
X63322Y193067D02*
X72771D01*
X56235Y206453D02*
X59582D01*
X52889D02*
X56235D01*
X49651Y209996D02*
X52889Y213234D01*
X43440Y209996D02*
X49651D01*
X52889Y213539D02*
X59582D01*
X52889Y213234D02*
Y213539D01*
X156039Y146610D02*
X164110D01*
X152102Y142673D02*
X156039Y146610D01*
X152102Y132634D02*
Y142673D01*
Y132634D02*
X156039D01*
X180448Y155468D02*
Y163342D01*
X173558Y148579D02*
X180448Y155468D01*
X164110Y148579D02*
X173558D01*
X157023Y161965D02*
X160369D01*
X153676D02*
X157023D01*
X150439Y165508D02*
X153676Y168745D01*
X144228Y165508D02*
X150439D01*
X153676Y169051D02*
X160369D01*
X153676Y168745D02*
Y169051D01*
X156200Y101854D02*
X164271D01*
X152263Y97917D02*
X156200Y101854D01*
X152263Y87878D02*
Y97917D01*
Y87878D02*
X156200D01*
X180610Y110713D02*
Y118587D01*
X173720Y103823D02*
X180610Y110713D01*
X164271Y103823D02*
X173720D01*
X153838Y117209D02*
X160531D01*
X150600Y120752D02*
X153838Y123990D01*
X144389Y120752D02*
X150600D01*
X153838Y124295D02*
X160531D01*
X153838Y123990D02*
Y124295D01*
X105413Y101461D02*
X113484D01*
X101476Y97524D02*
X105413Y101461D01*
X101476Y87484D02*
Y97524D01*
Y87484D02*
X105413D01*
X129822Y110319D02*
Y118193D01*
X122932Y103429D02*
X129822Y110319D01*
X113484Y103429D02*
X122932D01*
X103050Y116815D02*
X106397D01*
X97342Y103429D02*
X101869D01*
X99813Y120358D02*
X103050Y123596D01*
X93602Y120358D02*
X99813D01*
X103050Y123902D02*
X109743D01*
X103050Y123596D02*
Y123902D01*
X156200Y191224D02*
X164271D01*
X152263Y187287D02*
X156200Y191224D01*
X152263Y177248D02*
Y187287D01*
Y177248D02*
X156200D01*
X180610Y200083D02*
Y207957D01*
X173720Y193193D02*
X180610Y200083D01*
X164271Y193193D02*
X173720D01*
X157184Y206579D02*
X160531D01*
X153838D02*
X157184D01*
X150600Y210122D02*
X153838Y213360D01*
X144389Y210122D02*
X150600D01*
X153838Y213665D02*
X160531D01*
X153838Y213360D02*
Y213665D01*
X105806Y191224D02*
X113877D01*
X101869Y187287D02*
X105806Y191224D01*
X101869Y177248D02*
Y187287D01*
Y177248D02*
X105806D01*
X130216Y200083D02*
Y207957D01*
X123326Y193193D02*
X130216Y200083D01*
X113877Y193193D02*
X123326D01*
X106791Y206579D02*
X110137D01*
X103444D02*
X106791D01*
X102263Y193193D02*
X106791Y197721D01*
Y206579D01*
X97736Y193193D02*
X102263D01*
X103838Y197524D02*
Y199492D01*
X101476Y195161D02*
X103838Y197524D01*
X100206Y210122D02*
X103444Y213360D01*
X101476Y201854D02*
X103838Y199492D01*
X93995Y210122D02*
X100206D01*
X95176Y201854D02*
X101476D01*
X97736Y195161D02*
X101476D01*
X103444Y213665D02*
X110137D01*
X103444Y213360D02*
Y213665D01*
X130216Y182366D02*
Y187287D01*
X105413Y146343D02*
X113484D01*
X101476Y142405D02*
X105413Y146343D01*
X101476Y132366D02*
Y142405D01*
Y132366D02*
X105413D01*
X129822Y155201D02*
Y163075D01*
X122932Y148311D02*
X129822Y155201D01*
X113484Y148311D02*
X122932D01*
X106397Y161697D02*
X109743D01*
X103050D02*
X106397D01*
X101869Y148311D02*
X106397Y152839D01*
Y161697D01*
X97342Y148311D02*
X101869D01*
X103444Y152642D02*
Y154610D01*
X101082Y150279D02*
X103444Y152642D01*
X99813Y165240D02*
X103050Y168478D01*
X101082Y156973D02*
X103444Y154610D01*
X93602Y165240D02*
X99813D01*
X94783Y156973D02*
X101082D01*
X97342Y150279D02*
X101082D01*
X103050Y168783D02*
X109743D01*
X103050Y168478D02*
Y168783D01*
X59350Y150279D02*
X63484D01*
X55413Y146343D02*
X63484D01*
X55413D02*
X59350Y150279D01*
X51476Y142405D02*
X55413Y146343D01*
X51476Y132366D02*
Y142405D01*
Y132366D02*
X55413D01*
X79822Y155201D02*
Y163075D01*
X72932Y148311D02*
X79822Y155201D01*
X63484Y148311D02*
X72932D01*
X56397Y161697D02*
X59743D01*
X53050D02*
X56397D01*
X51869Y148311D02*
X56397Y152839D01*
Y161697D01*
X47342Y148311D02*
X51869D01*
X53444Y152642D02*
Y154610D01*
X51082Y150279D02*
X53444Y152642D01*
X49813Y165240D02*
X53050Y168478D01*
X51082Y156973D02*
X53444Y154610D01*
X43602Y165240D02*
X49813D01*
X44783Y156973D02*
X51082D01*
X47342Y150279D02*
X51082D01*
X53050Y168783D02*
X59743D01*
X53050Y168478D02*
Y168783D01*
X298657Y125496D02*
X300438Y127277D01*
X297476Y133764D02*
X300438Y130802D01*
Y127277D02*
Y130802D01*
X-8735Y204691D02*
Y208215D01*
Y204691D02*
X-5772Y201728D01*
X-8735Y208215D02*
X-6954Y209996D01*
X41659Y159809D02*
Y163333D01*
Y159809D02*
X44621Y156846D01*
X41659Y163333D02*
X43440Y165114D01*
X41659Y115321D02*
Y118845D01*
Y115321D02*
X44621Y112358D01*
X41659Y118845D02*
X43440Y120626D01*
X91659Y159809D02*
Y163333D01*
Y159809D02*
X94621Y156846D01*
X91659Y163333D02*
X93440Y165114D01*
X92053Y204691D02*
Y208215D01*
Y204691D02*
X95015Y201728D01*
X92053Y208215D02*
X93834Y209996D01*
X193628Y115321D02*
Y118845D01*
X195409Y120626D01*
X-8573Y163912D02*
X-6792Y165693D01*
X-8573Y160387D02*
X-5611Y157425D01*
X-8573Y160387D02*
Y163912D01*
Y118912D02*
X-6792Y120693D01*
X-8573Y115387D02*
X-5611Y112425D01*
X-8573Y115387D02*
Y118912D01*
X92751Y119543D02*
X93440Y120232D01*
X143539Y164819D02*
X144228Y165508D01*
X143539Y119937D02*
X144228Y120626D01*
X29428Y155654D02*
Y162555D01*
X42850Y209405D02*
X43440Y209996D01*
X143637Y209405D02*
X144228Y209996D01*
X194424Y209405D02*
X195015Y209996D01*
X194424Y164917D02*
X195015Y165508D01*
X231397Y200083D02*
Y207240D01*
X294917Y144394D02*
Y153842D01*
X294720Y154039D02*
X294917Y153842D01*
D19*
X158071Y149606D02*
X159012Y150547D01*
X164110D01*
X157677Y104724D02*
X158744Y105791D01*
X164271D01*
X208465Y104724D02*
X209602Y105862D01*
X215291D01*
X208071Y149606D02*
X209138Y150673D01*
X215058D01*
X208071Y194095D02*
X209138Y195161D01*
X215058D01*
X158071Y194095D02*
X159138Y195161D01*
X164271D01*
X106890Y194095D02*
X107957Y195161D01*
X113877D01*
X107563Y150279D02*
X113484D01*
X106496Y104331D02*
X107563Y105398D01*
X113484D01*
X56496Y104331D02*
X57831Y105665D01*
X63322D01*
X56102Y193701D02*
X57437Y195035D01*
X63322D01*
X6102Y194095D02*
X7043Y195035D01*
X12928D01*
X6102Y149606D02*
X7228Y150732D01*
X13090D01*
X7677Y105905D02*
X12916D01*
X6496Y104724D02*
X7677Y105905D01*
X334646Y62618D02*
Y84646D01*
X296438Y24409D02*
X334646Y62618D01*
X289370Y19685D02*
Y24409D01*
X275590Y28543D02*
X275787Y28740D01*
X289370D01*
X289370Y28740D02*
X296260D01*
X289370Y28740D02*
X289370Y28740D01*
X268243Y222705D02*
Y224562D01*
X268393Y217555D02*
Y219295D01*
X268243Y219445D02*
X268393Y219295D01*
Y222555D02*
X277251D01*
X268243Y222705D02*
X268393Y222555D01*
X302101Y222563D02*
Y224563D01*
X302102Y224563D01*
X302110Y217555D02*
Y219437D01*
X302102Y219445D02*
X302110Y219437D01*
Y212555D02*
Y214318D01*
X302101Y214326D02*
X302110Y214318D01*
X47342Y152122D02*
X48558D01*
X41668Y151335D02*
X42582Y152248D01*
X47342D01*
X97342Y152122D02*
X98952D01*
X92850D02*
X92976Y152248D01*
X97342D01*
X52889Y199436D02*
Y200153D01*
X83598Y218264D02*
X86353D01*
X87535Y199654D02*
Y217083D01*
X86353Y218264D02*
X87535Y217083D01*
X83598Y218264D02*
Y218657D01*
X87535Y199654D02*
X90846Y196343D01*
X309976Y130468D02*
X312830Y127614D01*
X302234Y138210D02*
X309976Y130468D01*
X194657Y107705D02*
X200759D01*
X204625Y199562D02*
Y200279D01*
X153838Y199562D02*
Y200279D01*
X301708Y133815D02*
X310271Y125252D01*
X299003Y136520D02*
X301708Y133815D01*
X195015Y201228D02*
X197144Y199098D01*
X195015Y156739D02*
X197144Y154610D01*
X194657Y109673D02*
X200759D01*
X194263Y110461D02*
Y110854D01*
X144228Y201228D02*
X146357Y199098D01*
X144066Y156614D02*
X146195Y154484D01*
X144228Y111858D02*
X146357Y109728D01*
X92850Y154091D02*
X98952D01*
X92456Y154878D02*
Y155272D01*
X91239Y199886D02*
Y200279D01*
X93440Y111464D02*
X95569Y109335D01*
X-9548Y155457D02*
Y155850D01*
X-9709Y199760D02*
Y200153D01*
X43279Y201102D02*
X45408Y198972D01*
X42456Y154091D02*
X48558D01*
X42062Y154878D02*
Y155272D01*
X40684Y110390D02*
Y110784D01*
X-9548Y110063D02*
Y110850D01*
X312830Y75153D02*
Y127614D01*
X295195Y138210D02*
X302234D01*
X193869Y106917D02*
X194657Y107705D01*
X193869Y110461D02*
X194263Y110854D01*
Y110067D02*
X194657Y109673D01*
X42653Y201335D02*
X43046D01*
X45408Y198972D02*
X47180D01*
X50457Y197004D02*
X52889Y199436D01*
X47180Y197004D02*
X50457D01*
X52486Y200153D02*
X52889D01*
X143602Y112091D02*
X143995D01*
X146357Y109728D02*
X148129D01*
X151406Y107760D02*
X153838Y110192D01*
X148129Y107760D02*
X151406D01*
X153435Y110909D02*
X153838D01*
X143440Y156846D02*
X143833D01*
X146195Y154484D02*
X147968D01*
X151244Y152516D02*
X153676Y154948D01*
X147968Y152516D02*
X151244D01*
X143602Y201461D02*
X143995D01*
X146357Y199098D02*
X148129D01*
X151406Y197130D02*
X153838Y199562D01*
X148129Y197130D02*
X151406D01*
X153435Y200279D02*
X153838D01*
X194389Y156973D02*
X194782D01*
X197144Y154610D02*
X198917D01*
X202193Y152642D02*
X204625Y155074D01*
X198917Y152642D02*
X202193D01*
X194389Y201461D02*
X194782D01*
X197144Y199098D02*
X198917D01*
X202193Y197130D02*
X204625Y199562D01*
X198917Y197130D02*
X202193D01*
X204222Y200279D02*
X204625D01*
X102647Y110516D02*
X103050D01*
X97342Y107366D02*
X100618D01*
X103050Y109798D01*
X95569Y109335D02*
X97342D01*
X92456Y154484D02*
X92850Y154091D01*
X92062Y154878D02*
X92456Y155272D01*
X91633Y199098D02*
X97736D01*
X91239Y199492D02*
X91633Y199098D01*
X90846Y199886D02*
X91239Y200279D01*
X91633Y197130D02*
X97736D01*
X90846Y196343D02*
X91633Y197130D01*
X42062Y154484D02*
X42456Y154091D01*
X41668Y154878D02*
X42062Y155272D01*
X41078Y109602D02*
X47180D01*
X40684Y109996D02*
X41078Y109602D01*
X40291Y110390D02*
X40684Y110784D01*
X41078Y107634D02*
X47180D01*
X40291Y106846D02*
X41078Y107634D01*
X-9154Y109669D02*
X-3052D01*
X-9548Y110063D02*
X-9154Y109669D01*
X-9942Y110457D02*
X-9548Y110850D01*
X-9154Y107701D02*
X-3052D01*
X-9942Y106913D02*
X-9154Y107701D01*
X-9154Y154669D02*
X-3052D01*
X-9548Y155063D02*
X-9154Y154669D01*
X-9942Y155457D02*
X-9548Y155850D01*
X-9154Y152701D02*
X-3052D01*
X-9942Y151913D02*
X-9154Y152701D01*
X-10103Y196216D02*
X-9316Y197004D01*
X-3213D01*
X-10103Y199760D02*
X-9709Y200153D01*
Y199366D02*
X-9316Y198972D01*
X-3213D01*
X268393Y217555D02*
X277251D01*
X268393Y212555D02*
X277251D01*
X268393Y207555D02*
X277251D01*
X268393Y202555D02*
X277251D01*
X293251Y222555D02*
X302110D01*
X293251Y217555D02*
X302110D01*
X293251Y212555D02*
X302110D01*
X293251Y207555D02*
X302110D01*
X293251Y202555D02*
X302110D01*
X529751Y253488D02*
X595704Y187535D01*
X534751Y259649D02*
X607204Y187196D01*
X534751Y259649D02*
Y277079D01*
X529751Y253488D02*
Y277079D01*
X531595Y44676D02*
X533598D01*
X524129Y52142D02*
X531595Y44676D01*
X515487Y52142D02*
X524129D01*
X533598Y34799D02*
Y40346D01*
Y49007D02*
Y54554D01*
X545409Y49007D02*
Y54554D01*
Y34799D02*
Y40346D01*
X543475Y44676D02*
X545409D01*
X539503Y40705D02*
X543475Y44676D01*
X539503Y34799D02*
Y40705D01*
X535566Y30862D02*
X539503Y34799D01*
X531629Y30862D02*
X535566D01*
X515487Y47142D02*
X523224D01*
X515487Y37142D02*
X523381D01*
X488696D02*
X496590D01*
X512397Y42142D02*
X515487D01*
X505845Y35590D02*
X512397Y42142D01*
X505845Y21020D02*
Y35590D01*
X527692Y34799D02*
X531629Y30862D01*
X527692Y34799D02*
Y42673D01*
X523224Y47142D02*
X527692Y42673D01*
X485625Y47142D02*
X496590D01*
X484385Y48382D02*
X485625Y47142D01*
X484385Y-14298D02*
Y48382D01*
X484818Y24524D02*
X498558D01*
X484207Y48382D02*
X484385D01*
X480447Y52142D02*
X484207Y48382D01*
X472180Y52142D02*
X480447D01*
X472180Y47142D02*
X480074D01*
X445389Y52142D02*
X453283D01*
X484385Y52713D02*
X496196D01*
X503873Y60390D01*
X508204D02*
X513750D01*
X326905Y-18350D02*
X330958Y-14298D01*
X653561D02*
X657613Y-18350D01*
X547377D02*
Y-14298D01*
X653561D01*
X437141Y-18350D02*
Y-14298D01*
X330958D02*
X437141D01*
X484385D01*
X547377D01*
X498558Y17516D02*
X514542D01*
X515881Y18854D01*
Y23185D02*
Y28732D01*
X641078Y146020D02*
X648755D01*
X641078Y134209D02*
X648755D01*
X641865Y125350D02*
Y133421D01*
X641078Y134209D02*
X641865Y133421D01*
X640881Y145823D02*
X641078Y146020D01*
X640881Y142083D02*
Y145823D01*
X638913Y140114D02*
X640881Y142083D01*
X631039Y140114D02*
X638913D01*
X642417Y60035D02*
X653301D01*
X642062Y60390D02*
X642417Y60035D01*
X642062Y50547D02*
Y50906D01*
X633991Y58977D02*
X642062Y50906D01*
X633991Y58977D02*
Y69345D01*
X473600Y229736D02*
X633991Y69345D01*
X642574Y50035D02*
X653301D01*
X642062Y50547D02*
X642574Y50035D01*
X637732Y60390D02*
Y65936D01*
Y84371D02*
Y89917D01*
Y96182D02*
Y101728D01*
X636747Y128662D02*
Y134209D01*
X626476Y146020D02*
X636747D01*
X637928Y45001D02*
Y50547D01*
X488696Y42142D02*
X496590D01*
X278972Y154039D02*
X278972Y154039D01*
X278184Y121953D02*
Y129039D01*
X293539D02*
X297869D01*
X293539Y121953D02*
X297869D01*
X272672Y138488D02*
X278775D01*
Y133173D02*
Y136520D01*
X278578Y132976D02*
X278775Y133173D01*
X278972Y154039D02*
X282909D01*
X286846D01*
X277594Y158370D02*
X278972D01*
X275428Y156205D02*
X277594Y158370D01*
X275428Y152661D02*
Y156205D01*
X63322Y107634D02*
X69424D01*
X63322Y109602D02*
Y112949D01*
X63519Y113146D01*
X63125Y92083D02*
X63125Y92083D01*
X55251Y92083D02*
X59188D01*
X63125D01*
X63913Y117083D02*
Y124169D01*
X44228Y117083D02*
X48558D01*
X44228Y124169D02*
X48558D01*
X66668Y89917D02*
Y93461D01*
X64503Y87752D02*
X66668Y89917D01*
X63125Y87752D02*
X64503D01*
X215058Y152642D02*
X221161D01*
X215058Y154610D02*
Y157957D01*
X215255Y158153D01*
X214861Y137091D02*
X214861Y137091D01*
X206987Y137091D02*
X210924D01*
X214861D01*
X215649Y162091D02*
Y169177D01*
X197279Y162091D02*
X200294D01*
X195964Y169177D02*
X200294D01*
X218405Y134925D02*
Y138469D01*
X216239Y132760D02*
X218405Y134925D01*
X214861Y132760D02*
X216239D01*
X215291Y107831D02*
X221393D01*
X215291Y109799D02*
Y113146D01*
X215487Y113342D01*
X215094Y92279D02*
X215094Y92279D01*
X207220Y92279D02*
X211157D01*
X215094D01*
X215881Y117280D02*
Y124366D01*
X196196Y117280D02*
X200527D01*
X196196Y124366D02*
X200527D01*
X218637Y90114D02*
Y93657D01*
X216472Y87949D02*
X218637Y90114D01*
X215094Y87949D02*
X216472D01*
X215058Y197130D02*
X221161D01*
X215058Y199098D02*
Y202445D01*
X215255Y202642D01*
X214861Y181579D02*
X214861Y181579D01*
X206987Y181579D02*
X210924D01*
X214861D01*
X215649Y206579D02*
Y213665D01*
X197180Y206579D02*
X200294D01*
X195964Y213665D02*
X200294D01*
X218405Y179413D02*
Y182957D01*
X216239Y177248D02*
X218405Y179413D01*
X214861Y177248D02*
X216239D01*
X13090Y107701D02*
X19192D01*
X13090Y109669D02*
Y113016D01*
X13287Y113213D01*
X12893Y92150D02*
X12893Y92150D01*
X5019Y92150D02*
X8956D01*
X12893D01*
X13680Y117150D02*
Y124236D01*
X-6005Y117150D02*
X-1674D01*
X-6005Y124236D02*
X-1674D01*
X16436Y89984D02*
Y93528D01*
X14271Y87819D02*
X16436Y89984D01*
X12893Y87819D02*
X14271D01*
X13090Y152701D02*
X19192D01*
X13090Y154669D02*
Y158016D01*
X13287Y158213D01*
X12893Y137150D02*
X12893Y137150D01*
X5019Y137150D02*
X8956D01*
X12893D01*
X13680Y162150D02*
Y169236D01*
X-6005Y162150D02*
X-1674D01*
X-6005Y169236D02*
X-1674D01*
X16436Y134984D02*
Y138528D01*
X14271Y132819D02*
X16436Y134984D01*
X12893Y132819D02*
X14271D01*
X12928Y197004D02*
X19031D01*
X12928Y198972D02*
Y202319D01*
X13125Y202516D01*
X12731Y181453D02*
X12731Y181453D01*
X4857Y181453D02*
X8794D01*
X12731D01*
X13519Y206453D02*
Y213539D01*
X-6166Y206453D02*
X-1835D01*
X-6166Y213539D02*
X-1835D01*
X16275Y179287D02*
Y182831D01*
X14109Y177122D02*
X16275Y179287D01*
X12731Y177122D02*
X14109D01*
X63322Y197004D02*
X69424D01*
X63322Y198972D02*
Y202319D01*
X63519Y202516D01*
X63125Y181453D02*
X63125Y181453D01*
X55251Y181453D02*
X59188D01*
X63125D01*
X63913Y206453D02*
Y213539D01*
X45605Y206453D02*
X48558D01*
X44228Y213539D02*
X48558D01*
X66668Y179287D02*
Y182831D01*
X64503Y177122D02*
X66668Y179287D01*
X63125Y177122D02*
X64503D01*
X164110Y152516D02*
X170212D01*
X164110Y154484D02*
Y157831D01*
X164306Y158028D01*
X163913Y136965D02*
X163913Y136965D01*
X156039Y136965D02*
X159976D01*
X163913D01*
X164700Y161965D02*
Y169051D01*
X146196Y161965D02*
X149346D01*
X145015Y169051D02*
X149346D01*
X167456Y134799D02*
Y138342D01*
X165291Y132634D02*
X167456Y134799D01*
X163913Y132634D02*
X165291D01*
X164271Y107760D02*
X170373D01*
X164271Y109728D02*
Y113075D01*
X164468Y113272D01*
X164074Y92209D02*
X164074Y92209D01*
X156200Y92209D02*
X160137D01*
X164074D01*
X164861Y117209D02*
Y124295D01*
X146688Y117209D02*
X149507D01*
X145176Y124295D02*
X149507D01*
X167617Y90043D02*
Y93587D01*
X165452Y87878D02*
X167617Y90043D01*
X164074Y87878D02*
X165452D01*
X113484Y107366D02*
X119586D01*
X113484Y109335D02*
Y112681D01*
X113680Y112878D01*
X113287Y91815D02*
X113287Y91815D01*
X105413Y91815D02*
X109350D01*
X113287D01*
X114074Y116815D02*
Y123902D01*
X95507Y116815D02*
X98720D01*
X94389Y123902D02*
X98720D01*
X116830Y89650D02*
Y93193D01*
X114665Y87484D02*
X116830Y89650D01*
X113287Y87484D02*
X114665D01*
X164271Y197130D02*
X170373D01*
X164271Y199098D02*
Y202445D01*
X164468Y202642D01*
X164074Y181579D02*
X164074Y181579D01*
X156200Y181579D02*
X160137D01*
X164074D01*
X164861Y206579D02*
Y213665D01*
X146393Y206579D02*
X149507D01*
X145176Y213665D02*
X149507D01*
X167617Y179413D02*
Y182957D01*
X165452Y177248D02*
X167617Y179413D01*
X164074Y177248D02*
X165452D01*
X113877Y197130D02*
X119980D01*
X113877Y199098D02*
Y202445D01*
X114074Y202642D01*
X113680Y181579D02*
X113680Y181579D01*
X105806Y181579D02*
X109743D01*
X113680D01*
X114468Y206579D02*
Y213665D01*
X94783Y206579D02*
X99113D01*
X94783Y213665D02*
X99113D01*
X117224Y179413D02*
Y182957D01*
X115058Y177248D02*
X117224Y179413D01*
X113680Y177248D02*
X115058D01*
X113484Y152248D02*
X119586D01*
X113484Y154217D02*
Y157563D01*
X113680Y157760D01*
X113287Y136697D02*
X113287Y136697D01*
X105413Y136697D02*
X109350D01*
X113287D01*
X114074Y161697D02*
Y168783D01*
X94389Y161697D02*
X98720D01*
X94389Y168783D02*
X98720D01*
X116830Y134531D02*
Y138075D01*
X114665Y132366D02*
X116830Y134531D01*
X113287Y132366D02*
X114665D01*
X63484Y152248D02*
X69586D01*
X63484Y154217D02*
Y157563D01*
X63680Y157760D01*
X63287Y136697D02*
X63287Y136697D01*
X55413Y136697D02*
X59350D01*
X63287D01*
X64074Y161697D02*
Y168783D01*
X44389Y161697D02*
X48720D01*
X44389Y168783D02*
X48720D01*
X66830Y134531D02*
Y138075D01*
X64665Y132366D02*
X66830Y134531D01*
X63287Y132366D02*
X64665D01*
X75680Y164236D02*
Y168567D01*
X82680Y164236D02*
Y168567D01*
X75180Y131905D02*
Y136236D01*
X79180Y131905D02*
Y136236D01*
X75180Y119736D02*
Y124067D01*
X79180Y119736D02*
Y124067D01*
X259578Y122169D02*
Y126500D01*
X266578Y122169D02*
Y126500D01*
X631680Y237736D02*
X640180Y229736D01*
X478180Y235236D02*
X642062Y71354D01*
Y60390D02*
Y71354D01*
X613843Y228428D02*
X621483Y221236D01*
X648078Y194642D01*
X643747Y189130D02*
X644031D01*
X607472Y225406D02*
X643747Y189130D01*
X209287Y240114D02*
Y257929D01*
X206039Y261177D02*
X209287Y257929D01*
X215461Y256971D02*
X218539Y253894D01*
X215461Y256971D02*
Y267706D01*
X29267Y207831D02*
Y211793D01*
X218440Y240114D02*
X218539Y240213D01*
Y253894D01*
X101239Y262504D02*
Y268331D01*
X68637Y230262D02*
X68998D01*
X101239Y262504D01*
X55448Y246807D02*
Y305961D01*
X68656Y319169D01*
X298085D01*
X329010Y288244D02*
X566357D01*
X298085Y319169D02*
X329010Y288244D01*
X566357D02*
X627340Y227262D01*
X52486Y246807D02*
Y306110D01*
X67145Y320769D01*
X299597D01*
X329921Y290444D01*
X568347D01*
X629434Y229356D01*
X68637Y233224D02*
X88322Y252909D01*
Y258126D01*
X91751Y261555D01*
Y268331D01*
X237732Y255173D02*
Y259307D01*
X233991Y263047D02*
X237732Y259307D01*
X233991Y263047D02*
Y268559D01*
X639287Y92870D02*
X642122Y90035D01*
X653301D01*
X614306Y107634D02*
X620212D01*
X634976Y92870D02*
X639287D01*
X620212Y107634D02*
X634976Y92870D01*
X642062Y101728D02*
X643755Y100035D01*
X653301D01*
X633382Y110587D02*
X642062Y101906D01*
X611353Y110587D02*
X633382D01*
X642062Y101728D02*
Y101906D01*
X115291Y228106D02*
X123854Y236669D01*
X124050D01*
X294917Y136520D02*
X299003D01*
X310271Y80764D02*
Y125252D01*
X294917Y138488D02*
X295195Y138210D01*
X221693Y210410D02*
Y218357D01*
X211550Y228500D02*
X221693Y218357D01*
X219412Y209466D02*
X221004Y207873D01*
X219412Y209466D02*
Y217194D01*
X211058Y225547D02*
X219412Y217194D01*
X208991Y225547D02*
X211058D01*
X148755Y250055D02*
X155743Y243067D01*
X148755Y250055D02*
Y268461D01*
X221004Y207359D02*
Y207873D01*
X268393Y205999D02*
Y207555D01*
X302101Y222563D02*
X302110Y222555D01*
X516275Y280862D02*
X530968D01*
X534751Y277079D01*
X514700Y276925D02*
Y279287D01*
X516275Y280862D01*
X278775Y140457D02*
X284354D01*
X343558Y94051D02*
X353558Y84051D01*
X337810Y94051D02*
X343558D01*
X308283Y64524D02*
X337810Y94051D01*
X297889Y64524D02*
X308283D01*
X288440Y55075D02*
X297889Y64524D01*
D20*
X195555Y132760D02*
X199113D01*
X195555Y177248D02*
X199113D01*
X93898Y179134D02*
X95784Y177248D01*
X97932D01*
X144768D02*
X148326D01*
X148121Y132677D02*
X148165Y132634D01*
X144291Y132677D02*
X148121D01*
X144768Y87878D02*
X148326D01*
X196020Y87949D02*
X199346D01*
X93980Y132366D02*
X97539D01*
X93980Y87484D02*
X97539D01*
X43941Y87752D02*
X47377D01*
X43504Y132283D02*
X43587Y132366D01*
X47539D01*
X43547Y177122D02*
X47377D01*
X-6453D02*
X-3017D01*
X-6496Y132677D02*
X-2997D01*
X-6472Y87819D02*
X-2855D01*
X140684Y238736D02*
X159188D01*
X172574Y252122D01*
X234031Y243854D02*
X234074Y243898D01*
X172574Y252122D02*
X177692D01*
X184385Y258815D01*
X203314D01*
X205609Y256520D01*
X81991Y297818D02*
Y309630D01*
X77185Y293012D02*
X81991Y297818D01*
X77153Y263571D02*
X77185Y263603D01*
Y293012D01*
X86673Y263603D02*
Y293012D01*
X91479Y297818D01*
Y309630D01*
X96161Y263603D02*
Y293012D01*
X100968Y297818D01*
Y309630D01*
X105650Y263603D02*
Y293012D01*
X110456Y297818D01*
Y309630D01*
X115138Y263603D02*
Y293012D01*
X119944Y297818D01*
Y309630D01*
X124626Y263603D02*
Y293012D01*
X129432Y297818D01*
Y309630D01*
X134114Y263603D02*
Y293012D01*
X138920Y297818D01*
Y309630D01*
X143602Y263603D02*
Y293012D01*
X148409Y297818D01*
Y309630D01*
X153091Y263603D02*
Y293012D01*
X157897Y297818D01*
Y309630D01*
X162579Y263603D02*
Y293012D01*
X167385Y297818D01*
Y309630D01*
X172067Y263603D02*
Y293012D01*
X176873Y297818D01*
Y309630D01*
X181555Y263603D02*
Y293012D01*
X186361Y297818D01*
Y309630D01*
X191043Y263603D02*
Y293012D01*
X195850Y297818D01*
Y309630D01*
X200531Y263603D02*
Y293012D01*
X205338Y297818D01*
Y309630D01*
X210020Y263603D02*
Y293012D01*
X214826Y297818D01*
Y309630D01*
X219508Y263603D02*
Y293012D01*
X224314Y297818D01*
Y309630D01*
X228996Y293012D02*
X233802Y297818D01*
Y309630D01*
X238484Y264932D02*
Y293012D01*
X243291Y297818D01*
Y309630D01*
X247940Y263571D02*
X248247Y263878D01*
Y291556D01*
X252897Y296205D02*
Y309630D01*
X248247Y291556D02*
X252897Y296205D01*
X67697Y263603D02*
Y293244D01*
X68732Y294280D01*
X68964D01*
X72503Y297818D01*
Y309630D01*
X206039Y261177D02*
Y267641D01*
X205940Y267739D02*
X205973Y267706D01*
X215428Y267739D02*
X215461Y267706D01*
X215494Y267739D01*
X228996Y263603D02*
Y293012D01*
X294720Y158370D02*
X298520D01*
D21*
X231629Y57929D02*
Y93067D01*
X39897Y213420D02*
X82490Y256013D01*
X39897Y174757D02*
Y213420D01*
X38125Y172985D02*
X39897Y174757D01*
X37166Y177344D02*
Y214646D01*
X29858Y170035D02*
X37166Y177344D01*
Y214646D02*
X77124Y254604D01*
X55054Y49465D02*
X220507D01*
X29428Y75090D02*
X55054Y49465D01*
X29428Y75090D02*
Y92937D01*
X231629Y57929D02*
X236157Y53402D01*
X231397Y175878D02*
Y182366D01*
X29428Y132500D02*
Y137937D01*
X24641Y127713D02*
X29428Y132500D01*
X-10694Y127713D02*
X24641D01*
X-13351Y125055D02*
X-10694Y127713D01*
X-13351Y68362D02*
Y125055D01*
X-15951Y67285D02*
Y166058D01*
X-9611Y172398D01*
X25035D01*
X29267Y176630D01*
Y182240D01*
X79661Y177024D02*
Y182240D01*
Y177024D02*
X81432Y175252D01*
X86058D01*
X129822Y132008D02*
Y137484D01*
X125428Y127614D02*
X129822Y132008D01*
X93890Y127614D02*
X125428D01*
X90561Y124285D02*
X93890Y127614D01*
X72672Y53500D02*
X90561Y71388D01*
Y124285D01*
X86942Y72904D02*
X87830Y73791D01*
X79661Y80862D02*
Y92870D01*
Y80862D02*
X81531Y78992D01*
X130216Y176594D02*
Y182366D01*
X90783Y62752D02*
X110468Y82437D01*
X121984D01*
X125428Y85882D01*
X128480D01*
X129562Y86965D01*
Y92343D01*
X129822Y92602D01*
X-15951Y67285D02*
X52548Y-1214D01*
X143528D01*
X219818Y1433D02*
X224444Y6059D01*
X53578Y1433D02*
X219818D01*
X-13351Y68362D02*
X53578Y1433D01*
X143528Y-1214D02*
X144523Y-2209D01*
X96393Y53500D02*
X96723D01*
X126153Y82929D01*
X132648D01*
X137721Y88003D01*
X180645Y176532D02*
Y182331D01*
X180610Y182366D02*
X180645Y182331D01*
X144129Y127460D02*
Y127614D01*
X141348Y124678D02*
X144129Y127460D01*
X141348Y75474D02*
Y124678D01*
Y75474D02*
X152397Y64425D01*
X162239D01*
X173361Y53303D01*
X179168Y53402D02*
Y91555D01*
X180610Y92996D01*
X144129Y127614D02*
X175920D01*
X180448Y132142D01*
Y137752D01*
X137721Y88003D02*
Y126226D01*
X143637Y172102D02*
X176216D01*
X180645Y176532D01*
X87830Y73791D02*
Y173480D01*
X86058Y175252D02*
X87830Y173480D01*
X92653Y172201D02*
X125822D01*
X130216Y176594D01*
X80721Y265511D02*
X83104Y267894D01*
X29267Y211793D02*
X73556Y256082D01*
X29428Y162555D02*
X29858Y162984D01*
Y170035D01*
X80721Y260171D02*
Y265511D01*
X77124Y254604D02*
Y256574D01*
X80721Y260171D01*
X38125Y132437D02*
Y172985D01*
X82490Y256013D02*
X83173D01*
X29428Y123740D02*
X38125Y132437D01*
X29428Y118527D02*
Y123740D01*
X71233Y265571D02*
X73556Y267894D01*
X71233Y260821D02*
Y265571D01*
X64995Y254583D02*
X71233Y260821D01*
X79661Y207831D02*
Y229878D01*
X137721Y126226D02*
X140980Y129484D01*
Y169445D01*
X143637Y172102D01*
X129822Y118193D02*
Y124985D01*
X137721Y132885D01*
Y169864D01*
X156728Y229780D02*
X182003D01*
X196078Y243854D01*
X141176Y173319D02*
Y214228D01*
X156728Y229780D01*
X137721Y169864D02*
X141176Y173319D01*
X129822Y163075D02*
Y169474D01*
X138115Y177766D01*
X175115Y232380D02*
X186590Y243854D01*
X130216Y207957D02*
Y213110D01*
X152085Y234980D01*
X168227D01*
X177102Y243854D01*
X138115Y177766D02*
Y215891D01*
X154603Y232380D01*
X175115D01*
X180448Y163342D02*
Y168559D01*
X188814Y176925D01*
X180610Y118587D02*
X191570Y129547D01*
X188814Y176925D02*
Y215311D01*
X215054Y241551D01*
Y243854D01*
X191570Y129547D02*
Y214390D01*
X211863Y234683D01*
X218915D01*
X224542Y240311D01*
Y243854D01*
X180610Y207957D02*
Y218898D01*
X205566Y243854D01*
X225395Y267837D02*
X225428Y267870D01*
X225395Y248415D02*
Y267837D01*
Y248415D02*
X229857Y243953D01*
Y208780D02*
Y243953D01*
Y208780D02*
X231397Y207240D01*
Y132965D02*
Y137878D01*
Y132965D02*
X234976Y129386D01*
X243342D01*
X231629Y118658D02*
Y124071D01*
X232712Y125154D01*
X240980D01*
X250822Y115311D01*
X243342Y129386D02*
X256039Y116689D01*
Y9799D02*
Y18675D01*
X254306Y20408D02*
X256039Y18675D01*
X254306Y20408D02*
Y56885D01*
X256039Y58618D01*
Y116689D01*
X250822Y115311D02*
X251117D01*
X251708Y114720D01*
X79365Y230173D02*
X79365D01*
X79365D02*
X79661Y229878D01*
X244372Y267837D02*
X244405Y267870D01*
X244372Y260639D02*
Y267837D01*
Y260639D02*
X247476Y257535D01*
X231397Y163469D02*
Y168917D01*
X247476Y184996D01*
Y257535D01*
D22*
X262318Y179953D02*
Y251413D01*
X263946Y253042D01*
X263979D01*
X267680Y256743D01*
Y264236D01*
X257680Y256051D02*
X262318Y251413D01*
X257680Y256051D02*
Y263244D01*
X262318Y153370D02*
Y169953D01*
Y153370D02*
X262436Y153252D01*
X264901Y172535D02*
X279523D01*
X262318Y169953D02*
X264901Y172535D01*
X265405Y176866D02*
X279523D01*
X262318Y179953D02*
X265405Y176866D01*
X-1540Y65902D02*
X29956D01*
X30054Y66000D01*
D23*
X84449Y23854D02*
D03*
X72638D02*
D03*
X60827D02*
D03*
Y35654D02*
D03*
X72638D02*
D03*
X96260D02*
D03*
X84449D02*
D03*
X167323Y23854D02*
D03*
X155512D02*
D03*
X143701D02*
D03*
Y35654D02*
D03*
X155512D02*
D03*
X179134D02*
D03*
X167323D02*
D03*
X248031Y23854D02*
D03*
X236221D02*
D03*
X224410D02*
D03*
Y35654D02*
D03*
X236221D02*
D03*
X259842D02*
D03*
X248031D02*
D03*
X298440Y55075D02*
D03*
X288440D02*
D03*
X262318Y169953D02*
D03*
Y179953D02*
D03*
D24*
X96260Y23854D02*
D03*
X179134D02*
D03*
X259842D02*
D03*
D25*
X332889Y14720D02*
D03*
X687220Y250941D02*
D03*
X332889D02*
D03*
X687220Y14720D02*
D03*
X0Y0D02*
D03*
X669291Y311024D02*
D03*
X15748Y311024D02*
D03*
D26*
X693204Y160035D02*
D03*
X683204D02*
D03*
X693204Y170035D02*
D03*
X683204D02*
D03*
X693204Y180035D02*
D03*
X683204D02*
D03*
X693204Y190035D02*
D03*
X683204D02*
D03*
X693204Y200035D02*
D03*
X683204D02*
D03*
X693204Y210035D02*
D03*
X683204D02*
D03*
X693204Y220035D02*
D03*
X683204D02*
D03*
X693204Y230035D02*
D03*
Y135035D02*
D03*
Y115035D02*
D03*
Y145035D02*
D03*
Y105035D02*
D03*
Y125035D02*
D03*
Y75035D02*
D03*
Y85035D02*
D03*
Y65035D02*
D03*
Y45035D02*
D03*
Y55035D02*
D03*
Y35035D02*
D03*
X683204Y135035D02*
D03*
X693204Y95035D02*
D03*
X683204Y125035D02*
D03*
Y115035D02*
D03*
Y105035D02*
D03*
Y85035D02*
D03*
Y95035D02*
D03*
Y55035D02*
D03*
Y65035D02*
D03*
Y75035D02*
D03*
Y35035D02*
D03*
Y45035D02*
D03*
X353558Y94051D02*
D03*
Y104051D02*
D03*
Y114051D02*
D03*
Y124051D02*
D03*
Y134051D02*
D03*
X298224Y102417D02*
D03*
X298125Y90508D02*
D03*
X447141Y-18350D02*
D03*
X336905Y-18350D02*
D03*
X557377Y-18350D02*
D03*
X667613D02*
D03*
D27*
X683204Y230035D02*
D03*
Y145035D02*
D03*
X353558Y144051D02*
D03*
D28*
X288224Y102417D02*
D03*
X288125Y90508D02*
D03*
X437141Y-18350D02*
D03*
X326905Y-18350D02*
D03*
X547377Y-18350D02*
D03*
X657613D02*
D03*
D29*
X342520Y311024D02*
D03*
D30*
X86716Y299630D02*
D03*
X77228D02*
D03*
X96204D02*
D03*
X105692D02*
D03*
X115180D02*
D03*
X124669D02*
D03*
X134157D02*
D03*
X143645D02*
D03*
X153133D02*
D03*
X162621D02*
D03*
X172109D02*
D03*
X181598D02*
D03*
X191086D02*
D03*
X200574D02*
D03*
X210062D02*
D03*
X219550D02*
D03*
X229039D02*
D03*
X238527D02*
D03*
X248133D02*
D03*
X257621D02*
D03*
X252897Y309630D02*
D03*
X243409D02*
D03*
X233802D02*
D03*
X224314D02*
D03*
X214826D02*
D03*
X205338D02*
D03*
X195850D02*
D03*
X186361D02*
D03*
X176873D02*
D03*
X167385D02*
D03*
X157897D02*
D03*
X148409D02*
D03*
X138920D02*
D03*
X129432D02*
D03*
X119944D02*
D03*
X110456D02*
D03*
X100968D02*
D03*
X91479D02*
D03*
X72503D02*
D03*
X81991D02*
D03*
X67739Y299630D02*
D03*
X81991Y289630D02*
D03*
X91479D02*
D03*
X100968D02*
D03*
X110456D02*
D03*
X119944D02*
D03*
X129432D02*
D03*
X138920D02*
D03*
X148409D02*
D03*
X157897D02*
D03*
X167385D02*
D03*
X176873D02*
D03*
X186361D02*
D03*
X195850D02*
D03*
X205338D02*
D03*
X214826D02*
D03*
X224314D02*
D03*
X233802D02*
D03*
X243409D02*
D03*
X252897D02*
D03*
X262385D02*
D03*
D31*
X72503D02*
D03*
D32*
X290220Y299630D02*
D03*
X40220D02*
D03*
D33*
X568858Y307063D02*
D03*
X470458D02*
D03*
D34*
X498058Y301463D02*
D03*
X508858D02*
D03*
X519658D02*
D03*
X530458D02*
D03*
X541258D02*
D03*
X503458Y312663D02*
D03*
X514258D02*
D03*
X525058D02*
D03*
X535858D02*
D03*
D35*
X353558Y84051D02*
D03*
D36*
X195472Y177165D02*
D03*
Y132677D02*
D03*
X250527Y224169D02*
D03*
X268243Y224562D02*
D03*
X268243Y219445D02*
D03*
X268393Y205999D02*
D03*
Y212555D02*
D03*
X302102Y224563D02*
D03*
Y219445D02*
D03*
X302101Y214326D02*
D03*
X253283Y241886D02*
D03*
X83598Y218657D02*
D03*
X309976Y130468D02*
D03*
X301708Y133815D02*
D03*
X193869Y106917D02*
D03*
Y110461D02*
D03*
X92062Y154878D02*
D03*
Y151335D02*
D03*
X90846Y199886D02*
D03*
Y196343D02*
D03*
X41668Y154878D02*
D03*
Y151335D02*
D03*
X40291Y110390D02*
D03*
Y106846D02*
D03*
X-9942Y110457D02*
D03*
Y106913D02*
D03*
Y155457D02*
D03*
Y151913D02*
D03*
X-10103Y196216D02*
D03*
Y199760D02*
D03*
X268393Y202555D02*
D03*
X648117Y230035D02*
D03*
Y220035D02*
D03*
Y200035D02*
D03*
Y190035D02*
D03*
Y180035D02*
D03*
Y170035D02*
D03*
Y160035D02*
D03*
X504751Y277079D02*
D03*
X524751D02*
D03*
X666039Y150705D02*
D03*
X653204Y120035D02*
D03*
Y110035D02*
D03*
Y80035D02*
D03*
Y70035D02*
D03*
Y40035D02*
D03*
X653873Y150705D02*
D03*
X595704Y187535D02*
D03*
X607204Y187196D02*
D03*
X529751Y277079D02*
D03*
X534751D02*
D03*
X303184Y71216D02*
D03*
X653301Y60035D02*
D03*
Y50035D02*
D03*
X250704Y202535D02*
D03*
X329865Y94213D02*
D03*
X533598Y34799D02*
D03*
Y54554D02*
D03*
X545409Y54554D02*
D03*
Y34799D02*
D03*
X523381Y37142D02*
D03*
X488696D02*
D03*
X480074Y47142D02*
D03*
X445389Y52142D02*
D03*
X499936Y56453D02*
D03*
X513750Y60390D02*
D03*
X515881Y28732D02*
D03*
X648755Y146020D02*
D03*
Y134209D02*
D03*
X641865Y125350D02*
D03*
X631039Y140114D02*
D03*
X637732Y65936D02*
D03*
Y84371D02*
D03*
X637928Y45001D02*
D03*
X637732Y96182D02*
D03*
X636747Y128662D02*
D03*
X626476Y146020D02*
D03*
X603479Y39720D02*
D03*
X607416D02*
D03*
X539751Y277079D02*
D03*
X488696Y42142D02*
D03*
X297869Y129039D02*
D03*
Y121953D02*
D03*
X603479Y32634D02*
D03*
X278184Y125496D02*
D03*
X272672Y138488D02*
D03*
X278775Y133173D02*
D03*
X282909Y154039D02*
D03*
X275428Y152661D02*
D03*
X69424Y107634D02*
D03*
X63322Y112949D02*
D03*
X59188Y92083D02*
D03*
X44228Y117083D02*
D03*
Y124169D02*
D03*
X66668Y93461D02*
D03*
X63913Y120626D02*
D03*
X221161Y152642D02*
D03*
X215058Y157957D02*
D03*
X210924Y137091D02*
D03*
X195964Y169177D02*
D03*
X218405Y138469D02*
D03*
X215649Y165634D02*
D03*
X221393Y107831D02*
D03*
X215291Y113146D02*
D03*
X211157Y92279D02*
D03*
X196196Y117280D02*
D03*
Y124366D02*
D03*
X218637Y93657D02*
D03*
X215881Y120823D02*
D03*
X221161Y197130D02*
D03*
X215058Y202445D02*
D03*
X210924Y181579D02*
D03*
X218405Y182957D02*
D03*
X215649Y210122D02*
D03*
X19192Y107701D02*
D03*
X13090Y113016D02*
D03*
X8956Y92150D02*
D03*
X-6005Y117150D02*
D03*
Y124236D02*
D03*
X16436Y93528D02*
D03*
X13680Y120693D02*
D03*
X19192Y152701D02*
D03*
X13090Y158016D02*
D03*
X8956Y137150D02*
D03*
X-6005Y162150D02*
D03*
Y169236D02*
D03*
X16436Y138528D02*
D03*
X13680Y165693D02*
D03*
X19031Y197004D02*
D03*
X12928Y202319D02*
D03*
X8794Y181453D02*
D03*
X-6166Y206453D02*
D03*
Y213539D02*
D03*
X16275Y182831D02*
D03*
X13519Y209996D02*
D03*
X69424Y197004D02*
D03*
X63322Y202319D02*
D03*
X59188Y181453D02*
D03*
X45605Y206453D02*
D03*
X44228Y213539D02*
D03*
X66668Y182831D02*
D03*
X63913Y209996D02*
D03*
X170212Y152516D02*
D03*
X164110Y157831D02*
D03*
X159976Y136965D02*
D03*
X145015Y169051D02*
D03*
X167456Y138342D02*
D03*
X164700Y165508D02*
D03*
X170373Y107760D02*
D03*
X164271Y113075D02*
D03*
X160137Y92209D02*
D03*
X145176Y124295D02*
D03*
X167617Y93587D02*
D03*
X164861Y120752D02*
D03*
X119586Y107366D02*
D03*
X113484Y112681D02*
D03*
X109350Y91815D02*
D03*
X94389Y123902D02*
D03*
X116830Y93193D02*
D03*
X114074Y120358D02*
D03*
X170373Y197130D02*
D03*
X164271Y202445D02*
D03*
X160137Y181579D02*
D03*
X145176Y213665D02*
D03*
X167617Y182957D02*
D03*
X164861Y210122D02*
D03*
X119980Y197130D02*
D03*
X113877Y202445D02*
D03*
X109743Y181579D02*
D03*
X94783Y206579D02*
D03*
Y213665D02*
D03*
X117224Y182957D02*
D03*
X114468Y210122D02*
D03*
X119586Y152248D02*
D03*
X113484Y157563D02*
D03*
X109350Y136697D02*
D03*
X94389Y161697D02*
D03*
Y168783D02*
D03*
X116830Y138075D02*
D03*
X114074Y165240D02*
D03*
X69586Y152248D02*
D03*
X63484Y157563D02*
D03*
X59350Y136697D02*
D03*
X44389Y161697D02*
D03*
Y168783D02*
D03*
X66830Y138075D02*
D03*
X64074Y165240D02*
D03*
X91751Y256520D02*
D03*
X120216Y268331D02*
D03*
X158168D02*
D03*
X253050Y256520D02*
D03*
X262539D02*
D03*
X205609D02*
D03*
X196180Y213736D02*
D03*
X75680Y168567D02*
D03*
X82680D02*
D03*
X75180Y131905D02*
D03*
X79180D02*
D03*
X75180Y124067D02*
D03*
X79180D02*
D03*
X259578Y122169D02*
D03*
X266578D02*
D03*
X640180Y229736D02*
D03*
X631680Y237736D02*
D03*
X478180Y235236D02*
D03*
X473600Y229736D02*
D03*
X648078Y194642D02*
D03*
X644031Y189130D02*
D03*
X648117Y210035D02*
D03*
X607318Y225252D02*
D03*
X613818Y228402D02*
D03*
X206006Y267739D02*
D03*
X215494D02*
D03*
X95507Y116815D02*
D03*
X146196Y161965D02*
D03*
X146688Y117209D02*
D03*
X146393Y206579D02*
D03*
X197279Y162091D02*
D03*
X197180Y206579D02*
D03*
X129704Y256520D02*
D03*
X167657Y268331D02*
D03*
X234074Y256520D02*
D03*
X177145D02*
D03*
X91751Y268331D02*
D03*
X101239D02*
D03*
X653301Y90035D02*
D03*
X614306Y107634D02*
D03*
X653301Y100035D02*
D03*
X611353Y110587D02*
D03*
X302110Y207555D02*
D03*
Y202555D02*
D03*
X244228Y202122D02*
D03*
X298622Y158268D02*
D03*
X195866Y87795D02*
D03*
X144685D02*
D03*
X93898Y87402D02*
D03*
X43898Y87795D02*
D03*
X-6496D02*
D03*
Y132677D02*
D03*
Y177165D02*
D03*
X43504D02*
D03*
Y132283D02*
D03*
X93898D02*
D03*
Y179134D02*
D03*
X144685Y177165D02*
D03*
X144291Y132677D02*
D03*
X208071Y194095D02*
D03*
X284449Y140551D02*
D03*
X208071Y149606D02*
D03*
X208465Y104724D02*
D03*
X157677D02*
D03*
X158071Y149606D02*
D03*
Y194095D02*
D03*
X106496Y104331D02*
D03*
Y149213D02*
D03*
X106890Y194095D02*
D03*
X56496Y104331D02*
D03*
X56102Y193701D02*
D03*
X6496Y104724D02*
D03*
X6102Y149606D02*
D03*
Y194095D02*
D03*
D37*
X334646Y84646D02*
D03*
X289370Y19685D02*
D03*
X275590Y28543D02*
D03*
X143834Y238736D02*
D03*
X140684D02*
D03*
X316078Y212555D02*
D03*
X165487Y259208D02*
D03*
X143834Y252516D02*
D03*
X130015Y267476D02*
D03*
X52486Y200153D02*
D03*
X43279Y201102D02*
D03*
X153435Y110909D02*
D03*
X144228Y111858D02*
D03*
X153273Y155665D02*
D03*
X144066Y156614D02*
D03*
X153435Y200279D02*
D03*
X144228Y201228D02*
D03*
X204222Y155791D02*
D03*
X195015Y156739D02*
D03*
X204222Y200279D02*
D03*
X195015Y201228D02*
D03*
X93440Y111464D02*
D03*
X102647Y110516D02*
D03*
X60680Y52736D02*
D03*
X209287Y240114D02*
D03*
X68637Y230262D02*
D03*
Y233224D02*
D03*
X55448Y246807D02*
D03*
X627340Y227262D02*
D03*
X52486Y246807D02*
D03*
X629434Y229356D02*
D03*
X237732Y255173D02*
D03*
X233991Y268559D02*
D03*
X115291Y228106D02*
D03*
X124050Y236669D02*
D03*
X310271Y80764D02*
D03*
X312830Y75153D02*
D03*
X155743Y243067D02*
D03*
X148755Y268461D02*
D03*
X316235Y222555D02*
D03*
X316196Y217555D02*
D03*
X316196Y207555D02*
D03*
X316235Y202555D02*
D03*
X196196Y267870D02*
D03*
X186747Y267475D02*
D03*
X208991Y225547D02*
D03*
X211550Y228500D02*
D03*
X198375Y255088D02*
D03*
X186747Y255665D02*
D03*
X139503Y267476D02*
D03*
X177298D02*
D03*
X221693Y210410D02*
D03*
X221004Y207359D02*
D03*
X254070Y207240D02*
D03*
X172574Y252122D02*
D03*
X519818Y276925D02*
D03*
X514700D02*
D03*
D38*
X77153Y263571D02*
D03*
X67665D02*
D03*
X86641D02*
D03*
X96129D02*
D03*
X105617D02*
D03*
X115105D02*
D03*
X124594D02*
D03*
X134082D02*
D03*
X143570D02*
D03*
X153058D02*
D03*
X162547D02*
D03*
X172035D02*
D03*
X181523D02*
D03*
X191011D02*
D03*
X200499D02*
D03*
X209987D02*
D03*
X219476D02*
D03*
X228964D02*
D03*
X247940D02*
D03*
X257680Y263244D02*
D03*
X267680Y264236D02*
D03*
X220507Y49465D02*
D03*
X236157Y53402D02*
D03*
X231432Y175842D02*
D03*
X256039Y9799D02*
D03*
X224444Y6059D02*
D03*
X72672Y53500D02*
D03*
X86942Y72904D02*
D03*
X81531Y78992D02*
D03*
X90783Y62752D02*
D03*
X144523Y-2209D02*
D03*
X96393Y53500D02*
D03*
X173361Y53303D02*
D03*
X179168Y53402D02*
D03*
X167358Y6059D02*
D03*
X155546D02*
D03*
X84483D02*
D03*
X72672D02*
D03*
X60861D02*
D03*
X236255D02*
D03*
X248066D02*
D03*
X91570Y171807D02*
D03*
X238452Y263571D02*
D03*
X83104Y267894D02*
D03*
X73556Y256082D02*
D03*
X83173Y256013D02*
D03*
X73556Y267894D02*
D03*
X64995Y254583D02*
D03*
X177102Y243854D02*
D03*
X186590D02*
D03*
X196078D02*
D03*
X205566D02*
D03*
X224542D02*
D03*
X234031D02*
D03*
X225428Y267870D02*
D03*
X-1540Y65902D02*
D03*
X30054Y66000D02*
D03*
X251708Y114720D02*
D03*
X215054Y243854D02*
D03*
X79365Y230173D02*
D03*
X244405Y267870D02*
D03*
D39*
X218440Y240114D02*
D03*
M02*
