%FSLAX25Y25*%
%MOIN*%
G70*
G01*
G75*
G04 Layer_Physical_Order=4*
G04 Layer_Color=16711680*
%ADD10R,0.02756X0.03150*%
%ADD11R,0.11000X0.02900*%
%ADD12O,0.08661X0.02362*%
%ADD13R,0.03150X0.02756*%
%ADD14R,0.05906X0.02362*%
%ADD15R,0.05118X0.03150*%
%ADD16R,0.12598X0.07874*%
%ADD17O,0.06890X0.01181*%
%ADD18C,0.01181*%
%ADD19C,0.01000*%
%ADD20C,0.01800*%
%ADD21C,0.02000*%
%ADD22C,0.03000*%
%ADD23C,0.07874*%
G04:AMPARAMS|DCode=24|XSize=78.74mil|YSize=78.74mil|CornerRadius=19.69mil|HoleSize=0mil|Usage=FLASHONLY|Rotation=0.000|XOffset=0mil|YOffset=0mil|HoleType=Round|Shape=RoundedRectangle|*
%AMROUNDEDRECTD24*
21,1,0.07874,0.03937,0,0,0.0*
21,1,0.03937,0.07874,0,0,0.0*
1,1,0.03937,0.01969,-0.01969*
1,1,0.03937,-0.01969,-0.01969*
1,1,0.03937,-0.01969,0.01969*
1,1,0.03937,0.01969,0.01969*
%
%ADD24ROUNDEDRECTD24*%
%ADD25C,0.23622*%
%ADD26C,0.05906*%
%ADD27R,0.05906X0.05906*%
%ADD28R,0.05906X0.05906*%
%ADD29C,0.27559*%
%ADD30C,0.06299*%
%ADD31R,0.06299X0.06299*%
%ADD32C,0.16535*%
%ADD33C,0.19685*%
%ADD34C,0.07087*%
%ADD35C,0.06000*%
%ADD36C,0.02756*%
%ADD37C,0.02362*%
%ADD38C,0.03937*%
%ADD39C,0.01969*%
%ADD40C,0.04000*%
%ADD41C,0.04000*%
%ADD42C,0.00787*%
%ADD43C,0.07937*%
%ADD44C,0.15811*%
%ADD45C,0.08331*%
%ADD46C,0.16598*%
%ADD47C,0.07543*%
G04:AMPARAMS|DCode=48|XSize=95.433mil|YSize=95.433mil|CornerRadius=0mil|HoleSize=0mil|Usage=FLASHONLY|Rotation=0.000|XOffset=0mil|YOffset=0mil|HoleType=Round|Shape=Relief|Width=10mil|Gap=10mil|Entries=4|*
%AMTHD48*
7,0,0,0.09543,0.07543,0.01000,45*
%
%ADD48THD48*%
%ADD49C,0.16205*%
%ADD50C,0.17779*%
%ADD51C,0.08685*%
%ADD52C,0.16520*%
%ADD53C,0.07000*%
%ADD54C,0.05181*%
G04:AMPARAMS|DCode=55|XSize=71.811mil|YSize=71.811mil|CornerRadius=0mil|HoleSize=0mil|Usage=FLASHONLY|Rotation=0.000|XOffset=0mil|YOffset=0mil|HoleType=Round|Shape=Relief|Width=10mil|Gap=10mil|Entries=4|*
%AMTHD55*
7,0,0,0.07181,0.05181,0.01000,45*
%
%ADD55THD55*%
%ADD56C,0.05969*%
G04:AMPARAMS|DCode=57|XSize=79.685mil|YSize=79.685mil|CornerRadius=0mil|HoleSize=0mil|Usage=FLASHONLY|Rotation=0.000|XOffset=0mil|YOffset=0mil|HoleType=Round|Shape=Relief|Width=10mil|Gap=10mil|Entries=4|*
%AMTHD57*
7,0,0,0.07969,0.05969,0.01000,45*
%
%ADD57THD57*%
%ADD58C,0.01772*%
D10*
X298511Y71177D02*
D03*
Y66847D02*
D03*
X289062Y71177D02*
D03*
Y66847D02*
D03*
X224410Y49642D02*
D03*
Y45311D02*
D03*
Y9878D02*
D03*
Y14209D02*
D03*
X236221Y49642D02*
D03*
Y45311D02*
D03*
Y9878D02*
D03*
Y14209D02*
D03*
X248031Y49642D02*
D03*
Y45311D02*
D03*
Y9878D02*
D03*
Y14209D02*
D03*
X259842Y49642D02*
D03*
Y45311D02*
D03*
Y9878D02*
D03*
Y14209D02*
D03*
X143701Y49642D02*
D03*
Y45311D02*
D03*
Y9878D02*
D03*
Y14209D02*
D03*
X155512Y49642D02*
D03*
Y45311D02*
D03*
Y9878D02*
D03*
Y14209D02*
D03*
X167323Y49642D02*
D03*
Y45311D02*
D03*
Y9878D02*
D03*
Y14209D02*
D03*
X179134Y49642D02*
D03*
Y45311D02*
D03*
Y9878D02*
D03*
Y14209D02*
D03*
X60827Y49642D02*
D03*
Y45311D02*
D03*
Y9878D02*
D03*
Y14209D02*
D03*
X72638Y49642D02*
D03*
Y45311D02*
D03*
Y9878D02*
D03*
Y14209D02*
D03*
X84449Y49642D02*
D03*
Y45311D02*
D03*
Y9878D02*
D03*
Y14209D02*
D03*
X96260Y49642D02*
D03*
Y45311D02*
D03*
Y9878D02*
D03*
Y14209D02*
D03*
X72775Y263681D02*
D03*
Y259350D02*
D03*
Y275492D02*
D03*
Y271161D02*
D03*
X82263Y263681D02*
D03*
Y259350D02*
D03*
Y275492D02*
D03*
Y271161D02*
D03*
X91751Y263681D02*
D03*
Y259350D02*
D03*
Y275492D02*
D03*
Y271161D02*
D03*
X101239Y263681D02*
D03*
Y259350D02*
D03*
Y275492D02*
D03*
Y271161D02*
D03*
X110728Y263681D02*
D03*
Y259350D02*
D03*
Y275492D02*
D03*
Y271161D02*
D03*
X120216Y263681D02*
D03*
Y259350D02*
D03*
Y275492D02*
D03*
Y271161D02*
D03*
X129704Y263681D02*
D03*
Y259350D02*
D03*
Y275492D02*
D03*
Y271161D02*
D03*
X139192Y263681D02*
D03*
Y259350D02*
D03*
Y275492D02*
D03*
Y271161D02*
D03*
X148680Y263681D02*
D03*
Y259350D02*
D03*
Y275492D02*
D03*
Y271161D02*
D03*
X158168Y263681D02*
D03*
Y259350D02*
D03*
Y275492D02*
D03*
Y271161D02*
D03*
X167657Y263681D02*
D03*
Y259350D02*
D03*
Y275492D02*
D03*
Y271161D02*
D03*
X177145Y263681D02*
D03*
Y259350D02*
D03*
Y275492D02*
D03*
Y271161D02*
D03*
X186633Y263681D02*
D03*
Y259350D02*
D03*
Y275492D02*
D03*
Y271161D02*
D03*
X196121Y263681D02*
D03*
Y259350D02*
D03*
Y275492D02*
D03*
Y271161D02*
D03*
X205609Y263681D02*
D03*
Y259350D02*
D03*
Y275492D02*
D03*
Y271161D02*
D03*
X215098Y263681D02*
D03*
Y259350D02*
D03*
Y275492D02*
D03*
Y271161D02*
D03*
X224586Y263681D02*
D03*
Y259350D02*
D03*
Y275492D02*
D03*
Y271161D02*
D03*
X234074Y263681D02*
D03*
Y259350D02*
D03*
Y275492D02*
D03*
Y271161D02*
D03*
X243562Y263681D02*
D03*
Y259350D02*
D03*
Y275492D02*
D03*
Y271161D02*
D03*
X253050Y263681D02*
D03*
Y259350D02*
D03*
Y275492D02*
D03*
Y271161D02*
D03*
X262539Y263681D02*
D03*
Y259350D02*
D03*
Y275492D02*
D03*
Y271161D02*
D03*
X499751Y286409D02*
D03*
Y282079D02*
D03*
X504751Y286409D02*
D03*
Y282079D02*
D03*
X509751Y286409D02*
D03*
Y282079D02*
D03*
X514751Y286409D02*
D03*
Y282079D02*
D03*
X519751Y286409D02*
D03*
Y282079D02*
D03*
X524751Y286409D02*
D03*
Y282079D02*
D03*
X529751Y286409D02*
D03*
Y282079D02*
D03*
X534751Y286409D02*
D03*
Y282079D02*
D03*
X539751Y286409D02*
D03*
Y282079D02*
D03*
X72775Y247539D02*
D03*
Y251870D02*
D03*
X82263Y247539D02*
D03*
Y251870D02*
D03*
X91751Y247539D02*
D03*
Y251870D02*
D03*
X101239Y247539D02*
D03*
Y251870D02*
D03*
X110728Y247539D02*
D03*
Y251870D02*
D03*
X120216Y247539D02*
D03*
Y251870D02*
D03*
X129704Y247539D02*
D03*
Y251870D02*
D03*
X139192Y247539D02*
D03*
Y251870D02*
D03*
X148680Y247539D02*
D03*
Y251870D02*
D03*
X158168Y247539D02*
D03*
Y251870D02*
D03*
X167657Y247539D02*
D03*
Y251870D02*
D03*
X177145Y247539D02*
D03*
Y251870D02*
D03*
X186633Y247539D02*
D03*
Y251870D02*
D03*
X196121Y247539D02*
D03*
Y251870D02*
D03*
X205609Y247539D02*
D03*
Y251870D02*
D03*
X215098Y247539D02*
D03*
Y251870D02*
D03*
X224586Y247539D02*
D03*
Y251870D02*
D03*
X234074Y247539D02*
D03*
Y251870D02*
D03*
X243562Y247539D02*
D03*
Y251870D02*
D03*
X253050Y247539D02*
D03*
Y251870D02*
D03*
D13*
X658204Y45035D02*
D03*
X653873D02*
D03*
X658204Y55035D02*
D03*
X653873D02*
D03*
X658204Y65035D02*
D03*
X653873D02*
D03*
X658204Y75035D02*
D03*
X653873D02*
D03*
X658204Y85035D02*
D03*
X653873D02*
D03*
X658204Y95035D02*
D03*
X653873D02*
D03*
X658204Y105035D02*
D03*
X653873D02*
D03*
X658204Y115035D02*
D03*
X653873D02*
D03*
X658204Y125035D02*
D03*
X653873D02*
D03*
X658204Y135035D02*
D03*
X653873D02*
D03*
X670369Y125035D02*
D03*
X666039D02*
D03*
X670369Y135035D02*
D03*
X666039D02*
D03*
X670369Y85035D02*
D03*
X666039D02*
D03*
X670369Y95035D02*
D03*
X666039D02*
D03*
X670369Y45035D02*
D03*
X666039D02*
D03*
X670369Y55035D02*
D03*
X666039D02*
D03*
X307527Y202555D02*
D03*
X311858D02*
D03*
X307527Y212555D02*
D03*
X311858D02*
D03*
X307527Y217555D02*
D03*
X311858D02*
D03*
X307527Y222555D02*
D03*
X311858D02*
D03*
X658204Y160035D02*
D03*
X653873D02*
D03*
X658204Y170035D02*
D03*
X653873D02*
D03*
X658204Y180035D02*
D03*
X653873D02*
D03*
X658204Y190035D02*
D03*
X653873D02*
D03*
X658204Y200035D02*
D03*
X653873D02*
D03*
X658204Y210035D02*
D03*
X653873D02*
D03*
X658204Y220035D02*
D03*
X653873D02*
D03*
X658204Y230035D02*
D03*
X653873D02*
D03*
X653873Y35035D02*
D03*
X658204D02*
D03*
X666039D02*
D03*
X670369D02*
D03*
X666039Y75035D02*
D03*
X670369D02*
D03*
X666039Y115035D02*
D03*
X670369D02*
D03*
X666039Y65035D02*
D03*
X670369D02*
D03*
X666039Y105035D02*
D03*
X670369D02*
D03*
X653873Y145035D02*
D03*
X658204D02*
D03*
X666039D02*
D03*
X670369D02*
D03*
X666039Y160035D02*
D03*
X670369D02*
D03*
X666039Y170035D02*
D03*
X670369D02*
D03*
X666039Y180035D02*
D03*
X670369D02*
D03*
X666039Y190035D02*
D03*
X670369D02*
D03*
X666039Y200035D02*
D03*
X670369D02*
D03*
X666039Y210035D02*
D03*
X670369D02*
D03*
X666039Y220035D02*
D03*
X670369D02*
D03*
X666039Y230035D02*
D03*
X670369D02*
D03*
X336393Y94051D02*
D03*
X340724D02*
D03*
X336393Y104051D02*
D03*
X340724D02*
D03*
X336393Y114051D02*
D03*
X340724D02*
D03*
X336393Y124051D02*
D03*
X340724D02*
D03*
X336393Y134051D02*
D03*
X340724D02*
D03*
X336393Y144051D02*
D03*
X340724D02*
D03*
X258117Y202555D02*
D03*
X262448D02*
D03*
X258117Y212555D02*
D03*
X262448D02*
D03*
X258117Y217555D02*
D03*
X262448D02*
D03*
X311858Y207555D02*
D03*
X307527D02*
D03*
X258117D02*
D03*
X262448D02*
D03*
X258117Y222555D02*
D03*
X262448D02*
D03*
D18*
X60827Y49642D02*
Y52590D01*
X60680Y52736D02*
X60827Y52590D01*
D19*
X658204Y105035D02*
X662657Y100583D01*
X160827Y109631D02*
X164271Y113075D01*
X160827Y92898D02*
Y109631D01*
X160137Y92209D02*
X160827Y92898D01*
X275590Y9077D02*
Y28543D01*
Y69116D01*
X277652Y71177D01*
X264997Y-1517D02*
X275590Y9077D01*
X153381Y244346D02*
Y251728D01*
X145015Y235980D02*
X153381Y244346D01*
X124739Y235980D02*
X145015D01*
X124050Y236669D02*
X124739Y235980D01*
X250526Y222713D02*
Y224169D01*
X250527Y224169D01*
X236336Y227041D02*
X303128D01*
X244480Y228641D02*
X303791D01*
X268243Y222705D02*
Y224562D01*
X255176Y230241D02*
X473096D01*
X303128Y227041D02*
X304511Y225658D01*
X303791Y228641D02*
X305173Y227258D01*
X473096Y230241D02*
X473600Y229736D01*
X268393Y217555D02*
Y219295D01*
X268243Y219445D02*
X268393Y219295D01*
X268243Y222705D02*
X268393Y222555D01*
X262448D02*
X268393D01*
X219228Y244150D02*
X236336Y227041D01*
X304511Y225658D02*
X606813D01*
X607220Y225252D01*
X305173Y227258D02*
X600072D01*
X601216Y228402D01*
X613818D01*
X228676Y244445D02*
X244480Y228641D01*
X237728Y247689D02*
X255176Y230241D01*
X302101Y222563D02*
Y224563D01*
X302102Y224563D01*
X302110Y217555D02*
Y219437D01*
X302102Y219445D02*
X302110Y219437D01*
Y212555D02*
Y214318D01*
X302101Y214326D02*
X302110Y214318D01*
X165487Y259208D02*
X165630Y259350D01*
X167657D01*
X247680Y247488D02*
X253283Y241886D01*
X247680Y247488D02*
Y253000D01*
X253157Y241760D02*
X259680Y235236D01*
X143440Y252516D02*
X143834D01*
X139192Y256764D02*
X143440Y252516D01*
X139192Y256764D02*
Y259350D01*
X129621Y267476D02*
X130015D01*
X129621D02*
X129704Y267559D01*
Y271161D01*
X52486Y209199D02*
X61944Y218657D01*
X52486Y200153D02*
Y209199D01*
X61944Y218657D02*
X83598D01*
X232997Y179101D02*
X250527Y161571D01*
X204222Y179101D02*
X232997D01*
X204222Y155791D02*
Y200279D01*
X250527Y161571D02*
X282023D01*
X293440Y150154D01*
Y137949D02*
Y150154D01*
Y137949D02*
X300921Y130468D01*
X309976D01*
X153676Y83618D02*
X170570D01*
X107220D02*
X153676D01*
X153435Y83860D02*
X153676Y83618D01*
X153435Y83860D02*
Y110909D01*
X102647Y88191D02*
X107220Y83618D01*
X102647Y88191D02*
Y110516D01*
X170570Y83618D02*
X193869Y106917D01*
X-1835Y116295D02*
Y152122D01*
Y115020D02*
Y116295D01*
X-1442Y116689D01*
X17850D01*
X27692Y106846D01*
X40291D01*
X204222Y117270D02*
Y155791D01*
X193869Y106917D02*
X204222Y117270D01*
X153273Y200118D02*
X153435Y200279D01*
X153273Y155665D02*
Y200118D01*
Y155665D02*
X153435Y155504D01*
Y110909D02*
Y155504D01*
X102647Y150941D02*
Y184541D01*
Y110516D02*
Y150941D01*
X102254Y151335D02*
X102647Y150941D01*
X92062Y151335D02*
X102254D01*
X90846Y196343D02*
X102647Y184541D01*
X47377Y151335D02*
Y195045D01*
Y113933D02*
Y151335D01*
X47377Y151335D02*
X47377Y151335D01*
X41668Y151335D02*
X47377D01*
X47377Y195045D02*
X52486Y200153D01*
X40291Y106846D02*
X47377Y113933D01*
X-1835Y152122D02*
Y196216D01*
X-10103D02*
X-1835D01*
X-9942Y151913D02*
X-9733Y152122D01*
X-1835D01*
X-9942Y106913D02*
X-1835Y115020D01*
X188322Y216295D02*
X188403Y216214D01*
X205726D01*
X235937Y186003D01*
X277081D01*
X301708Y161376D01*
Y133815D02*
Y161376D01*
X188322Y201335D02*
Y216295D01*
Y156846D02*
Y201335D01*
X188429Y201228D01*
X195015D01*
X136747Y216295D02*
X188322D01*
Y116008D02*
Y156846D01*
X188429Y156739D01*
X195015D01*
X188322Y116008D02*
X193869Y110461D01*
X124936Y216295D02*
X136747D01*
Y200941D02*
Y216295D01*
X119424Y221807D02*
X124936Y216295D01*
X87535Y221807D02*
X119424D01*
X136747Y156453D02*
Y200941D01*
X137034Y201228D01*
X144228D01*
X136747Y119338D02*
Y156453D01*
X136908Y156614D01*
X144066D01*
X136747Y119338D02*
X144228Y111858D01*
X95015Y165508D02*
X97377Y167870D01*
X92259Y165508D02*
X95015D01*
X88716Y161965D02*
X92259Y165508D01*
X88716Y154878D02*
Y161965D01*
Y116188D02*
Y154878D01*
X92062D01*
X87535Y199760D02*
Y221807D01*
Y199760D02*
X87661Y199886D01*
X90846D01*
X38716Y221807D02*
X87535D01*
X88716Y116188D02*
X93440Y111464D01*
X-12859Y155272D02*
Y199760D01*
Y113374D02*
Y155272D01*
X-12674Y155457D01*
X-9942D01*
X-12859Y199760D02*
Y216689D01*
Y199760D02*
X-10103D01*
X38716Y200941D02*
Y221807D01*
Y154878D02*
Y200941D01*
X38877Y201102D01*
X43279D01*
X38716Y111965D02*
Y154878D01*
X41668D01*
X-7741Y221807D02*
X38716D01*
Y111965D02*
X40291Y110390D01*
X-12859Y216689D02*
X-7741Y221807D01*
X-12859Y113374D02*
X-9942Y110457D01*
X670369Y230035D02*
X683204D01*
X688751Y225583D02*
X693204Y230035D01*
X658204D02*
X662657Y225583D01*
X688751D01*
X662657Y215583D02*
X688751D01*
X658204Y220035D02*
X662657Y215583D01*
X688751D02*
X693204Y220035D01*
X670369D02*
X683204D01*
X662657Y205583D02*
X688751D01*
X658204Y210035D02*
X662657Y205583D01*
X688751D02*
X693204Y210035D01*
X670369D02*
X683204D01*
X662657Y195583D02*
X688751D01*
X658204Y200035D02*
X662657Y195583D01*
X688751D02*
X693204Y200035D01*
X670369D02*
X683204D01*
X662657Y185583D02*
X688751D01*
X658204Y190035D02*
X662657Y185583D01*
X688751D02*
X693204Y190035D01*
X670369D02*
X683204D01*
X662657Y175583D02*
X688751D01*
X658204Y180035D02*
X662657Y175583D01*
X688751D02*
X693204Y180035D01*
X670369D02*
X683204D01*
X662657Y165583D02*
X688751D01*
X658204Y170035D02*
X662657Y165583D01*
X688751D02*
X693204Y170035D01*
X670369D02*
X683204D01*
X662657Y155583D02*
X688751D01*
X658204Y160035D02*
X662657Y155583D01*
X688751D02*
X693204Y160035D01*
X670369D02*
X683204D01*
X670369Y145035D02*
X683204D01*
X688751Y140583D02*
X693204Y145035D01*
X658204D02*
X662657Y140583D01*
X688751D01*
X670369Y135035D02*
X683204D01*
X688751Y130583D02*
X693204Y135035D01*
X658204D02*
X662657Y130583D01*
X688751D01*
X670369Y125035D02*
X683204D01*
X688751Y120583D02*
X693204Y125035D01*
X658204D02*
X662657Y120583D01*
X688751D01*
X670369Y115035D02*
X683204D01*
X688751Y110583D02*
X693204Y115035D01*
X658204D02*
X662657Y110583D01*
X688751D01*
X670369Y105035D02*
X683204D01*
X688751Y100583D02*
X693204Y105035D01*
X662657Y100583D02*
X688751D01*
X670369Y95035D02*
X683204D01*
X688751Y90583D02*
X693204Y95035D01*
X658204D02*
X662657Y90583D01*
X688751D01*
X670369Y85035D02*
X683204D01*
X688751Y80583D02*
X693204Y85035D01*
X658204D02*
X662657Y80583D01*
X688751D01*
X670369Y75035D02*
X683204D01*
X688751Y70583D02*
X693204Y75035D01*
X658204D02*
X662657Y70583D01*
X688751D01*
X670369Y65035D02*
X683204D01*
X688751Y60583D02*
X693204Y65035D01*
X658204D02*
X662657Y60583D01*
X688751D01*
X670369Y55035D02*
X683204D01*
X688751Y50583D02*
X693204Y55035D01*
X658204D02*
X662657Y50583D01*
X688751D01*
X670369Y45035D02*
X683204D01*
X688751Y40583D02*
X693204Y45035D01*
X658204D02*
X662657Y40583D01*
X688751D01*
X670369Y35035D02*
X683204D01*
X688751Y30583D02*
X693204Y35035D01*
X658204D02*
X662657Y30583D01*
X688751D01*
X262448Y217555D02*
X268393D01*
X262448Y212555D02*
X268393D01*
X262448Y207555D02*
X268393D01*
X302110Y222555D02*
X308054D01*
X302110Y217555D02*
X308054D01*
X302110Y212555D02*
X308054D01*
X302110Y207555D02*
X308054D01*
X302110Y202555D02*
X308054D01*
X289062Y55697D02*
Y66846D01*
X288440Y55075D02*
X289062Y55697D01*
X298511D02*
Y66846D01*
X663161Y222913D02*
X666039Y220035D01*
X647003Y222913D02*
X663161D01*
X665376Y190035D02*
X666039D01*
X661596Y193815D02*
X665376Y190035D01*
X663161Y182913D02*
X666039Y180035D01*
X663161Y172913D02*
X666039Y170035D01*
X663161Y162913D02*
X666039Y160035D01*
X648117Y230035D02*
X653873D01*
X647724Y229642D02*
X648117Y230035D01*
Y220035D02*
X653873D01*
X648117Y210035D02*
X653873D01*
X648905Y193815D02*
X661596D01*
X648117Y200035D02*
X653873D01*
X649964Y182913D02*
X663161D01*
X648117Y190035D02*
X653873D01*
X626464Y196965D02*
X650515Y172913D01*
X663161D01*
X648117Y180035D02*
X653873D01*
X618621Y194965D02*
X650672Y162913D01*
X663161D01*
X648117Y170035D02*
X653873D01*
X648117Y160035D02*
X653873D01*
X498058Y301463D02*
X499751Y299770D01*
Y286409D02*
Y299770D01*
X503458Y287702D02*
X504751Y286409D01*
X503458Y287702D02*
Y312663D01*
X508858Y301463D02*
X509751Y300570D01*
Y286409D02*
Y300570D01*
X514258Y286902D02*
Y312663D01*
Y286902D02*
X514751Y286409D01*
X519658Y286502D02*
Y301463D01*
Y286502D02*
X519751Y286409D01*
X524751D02*
Y312356D01*
X525058Y312663D01*
X529751Y300756D02*
X530458Y301463D01*
X529751Y286409D02*
Y300756D01*
X534751Y286409D02*
X535858Y287516D01*
Y312663D01*
X539751Y286409D02*
Y299956D01*
X541258Y301463D01*
X504751Y277079D02*
Y282079D01*
X524751Y277079D02*
Y282079D01*
X666039Y145035D02*
Y150705D01*
X665941Y115035D02*
X666039D01*
X660941Y120035D02*
X665941Y115035D01*
X653204Y120035D02*
X660941D01*
X653204Y110035D02*
X660941D01*
X665941Y105035D01*
X653204Y80035D02*
X660941D01*
X665941Y75035D01*
X653204Y70035D02*
X660941D01*
X665941Y65035D01*
X653204Y40035D02*
X660941D01*
X665941Y35035D01*
X258098Y222535D02*
X258117Y222555D01*
X250704Y222535D02*
X258098D01*
X250704Y217535D02*
X258098D01*
X250704Y212535D02*
X258098D01*
X663561Y127513D02*
X666039Y125035D01*
X655726Y127513D02*
X663561D01*
X653873Y145035D02*
Y150705D01*
X665941Y135035D02*
X666039D01*
X658419Y142558D02*
X665941Y135035D01*
X651843Y142558D02*
X658419D01*
X529751Y277079D02*
Y282079D01*
X534751Y277079D02*
Y282079D01*
X653301Y50035D02*
X660204D01*
X665204Y45035D01*
X666039D01*
X653301Y60035D02*
X660204D01*
X665204Y55035D01*
X666039D01*
X653873Y35035D02*
Y39366D01*
X653204Y40035D02*
X653873Y39366D01*
X250704Y202535D02*
X258098D01*
X329865Y94213D02*
X336231D01*
X336393Y94051D01*
X340724D02*
X353558D01*
X340724Y104051D02*
X353558D01*
X340724Y114051D02*
X353558D01*
X340724Y124051D02*
X353558D01*
X340724Y134051D02*
X353558D01*
X340724Y144051D02*
X353558D01*
X523381Y37142D02*
X523517Y37277D01*
X553792D01*
X641865Y125350D01*
X488696Y37142D02*
X491275Y39720D01*
X553973D01*
X631039Y116786D01*
Y140114D01*
X626476Y146020D02*
X628637D01*
X636747Y128662D02*
Y137713D01*
X637732Y96182D02*
Y104484D01*
X646787Y113539D01*
X637732Y84371D02*
Y96182D01*
Y45198D02*
X637928Y45001D01*
X632648Y39720D02*
X637928Y45001D01*
X603479Y39720D02*
X632648D01*
X637732Y45198D02*
Y65936D01*
Y84371D01*
X595704Y187535D02*
X648755Y134484D01*
Y134209D02*
Y134484D01*
X648893Y134346D02*
X655726Y127513D01*
X607579Y187196D02*
X648755Y146020D01*
X607204Y187196D02*
X607579D01*
X648568Y145832D02*
X651843Y142558D01*
X628637Y146020D02*
X646787Y127871D01*
Y113539D02*
Y127871D01*
X539751Y277079D02*
Y282079D01*
X59188Y108815D02*
X63322Y112949D01*
X59188Y92083D02*
Y108815D01*
X210924Y153823D02*
X215058Y157957D01*
X210924Y137091D02*
Y153823D01*
X211157Y109012D02*
X215291Y113146D01*
X211157Y92279D02*
Y109012D01*
X8956Y153882D02*
X13090Y158016D01*
X8956Y137150D02*
Y153882D01*
X8794Y198185D02*
X12928Y202319D01*
X8794Y181453D02*
Y198185D01*
X59188D02*
X63322Y202319D01*
X59188Y181453D02*
Y198185D01*
X109350Y108547D02*
X113484Y112681D01*
X109350Y91815D02*
Y108547D01*
X109743Y198311D02*
X113877Y202445D01*
X109743Y181579D02*
Y198311D01*
X109350Y153429D02*
X113484Y157563D01*
X109350Y136697D02*
Y153429D01*
X59350D02*
X63484Y157563D01*
X59350Y136697D02*
Y153429D01*
X162286Y3749D02*
X163952Y2083D01*
X162286Y3749D02*
Y47346D01*
X160686Y2520D02*
X163124Y83D01*
X264334D01*
X162286Y47346D02*
X164582Y49642D01*
X167323D01*
X155512D02*
X158519D01*
X160686Y47475D01*
Y2520D02*
Y47475D01*
X120216Y268331D02*
Y271161D01*
X158168Y268331D02*
Y271161D01*
X640180Y229736D02*
X647003Y222913D01*
X665338Y230736D02*
X666039Y230035D01*
X662011Y230736D02*
X665338D01*
X259680Y235236D02*
X478180D01*
X253050Y247539D02*
X262854Y237736D01*
X266566D01*
X631680D01*
X660234Y232513D02*
X662011Y230736D01*
X243562Y247539D02*
X258588Y232513D01*
X660234D01*
X648078Y194642D02*
X648905Y193815D01*
X643747Y189130D02*
X644031D01*
X643747D02*
X649964Y182913D01*
X607220Y225252D02*
X607318D01*
X206006Y267739D02*
Y270764D01*
X215494Y267739D02*
Y270764D01*
X219228Y244150D02*
Y253500D01*
X209287Y236768D02*
Y240114D01*
X167657Y268331D02*
Y271161D01*
X215098Y257630D02*
X219228Y253500D01*
X215098Y257630D02*
Y259350D01*
X228676Y244445D02*
Y254439D01*
X224586Y258530D02*
X228676Y254439D01*
X224586Y258530D02*
Y259350D01*
X177145Y256520D02*
Y259350D01*
X110728Y257206D02*
Y259350D01*
Y257206D02*
X115586Y252348D01*
Y241787D02*
Y252348D01*
X101239Y257206D02*
Y259350D01*
Y257206D02*
X106098Y252348D01*
Y241787D02*
Y252348D01*
X115586Y241787D02*
X135369Y222004D01*
X106098Y241787D02*
X128381Y219504D01*
X422180Y192965D02*
X595944D01*
X653873Y135035D01*
X422180Y190965D02*
X587944D01*
X653873Y125035D01*
X422019Y190803D02*
X422180Y190965D01*
X55448Y244150D02*
X66373Y233224D01*
X52486Y244001D02*
X66224Y230262D01*
X68637D01*
X66373Y233224D02*
X68637D01*
X55448Y244150D02*
Y246807D01*
X644129Y207646D02*
X648861Y202913D01*
X644129Y207646D02*
Y210472D01*
X648861Y202913D02*
X663161D01*
X666039Y200035D01*
X627340Y227262D02*
X644129Y210472D01*
X52486Y244001D02*
Y246807D01*
X645291Y213500D02*
X662574D01*
X629434Y229356D02*
X645291Y213500D01*
X662574D02*
X666039Y210035D01*
X243562Y257118D02*
X247680Y253000D01*
X243562Y257118D02*
Y259350D01*
X237728Y247689D02*
Y255169D01*
X237732Y255173D01*
X233991Y268559D02*
X234074Y268642D01*
Y271161D01*
X298550Y71216D02*
X303184D01*
X298511Y71177D02*
X298550Y71216D01*
X272279Y68067D02*
X281407Y77195D01*
X270679Y68730D02*
X280744Y78795D01*
X272279Y8028D02*
Y68067D01*
X264334Y83D02*
X272279Y8028D01*
X270679Y8690D02*
Y68730D01*
X264071Y2083D02*
X270679Y8690D01*
X664377Y85035D02*
X664464D01*
X666039D01*
X583868Y77195D02*
X614306Y107634D01*
X659464Y90035D02*
X664464Y85035D01*
X653301Y90035D02*
X659464D01*
X664306Y95035D02*
X666039D01*
X579562Y78795D02*
X611353Y110587D01*
X659306Y100035D02*
X664306Y95035D01*
X653301Y100035D02*
X659306D01*
X163952Y2083D02*
X264071D01*
X277652Y71177D02*
X289062D01*
X204957Y-1517D02*
X264997D01*
X187829Y-18646D02*
X204957Y-1517D01*
X58991Y-18646D02*
X187829D01*
X-15812Y56157D02*
X58991Y-18646D01*
X-15812Y56157D02*
Y219937D01*
X-9513Y226236D01*
X113519D01*
X115291Y228008D01*
Y228106D01*
X148680Y256429D02*
X153381Y251728D01*
X148680Y256429D02*
Y259350D01*
X310271Y80764D02*
X310369Y80665D01*
Y78795D02*
Y80665D01*
X280744Y78795D02*
X310369D01*
X579562D01*
X312830Y75153D02*
Y76998D01*
X312633Y77195D02*
X312830Y76998D01*
X281407Y77195D02*
X312633D01*
X583868D01*
X336393Y124051D02*
Y126669D01*
X338519Y128795D01*
X358401D01*
X361058Y131453D01*
Y135587D01*
X358204Y138441D02*
X361058Y135587D01*
X329169Y138441D02*
X358204D01*
X278406Y189203D02*
X329169Y138441D01*
X221693Y210410D02*
X222810D01*
X179562Y228500D02*
X211550D01*
X163224Y244839D02*
X179562Y228500D01*
X163224Y244839D02*
Y253475D01*
X158168Y258530D02*
X163224Y253475D01*
X158168Y258530D02*
Y259350D01*
X331295Y134051D02*
X336393D01*
X277744Y187603D02*
X331295Y134051D01*
X221004Y207359D02*
X223599D01*
X173263Y225547D02*
X208991D01*
X155743Y243067D02*
X173263Y225547D01*
X148755Y268461D02*
Y271087D01*
X148680Y271161D02*
X148755Y271087D01*
X311858Y222555D02*
X316235D01*
X311858Y217555D02*
X316196D01*
X311858Y212555D02*
X316078D01*
X311858Y207555D02*
X316196D01*
X311858Y202555D02*
X316235D01*
X196121Y267945D02*
Y271161D01*
Y267945D02*
X196196Y267870D01*
X186633Y267590D02*
Y271161D01*
Y267590D02*
X186747Y267476D01*
X186437Y267166D02*
X186747Y267476D01*
X186437Y267166D02*
X186437D01*
X186747Y267475D01*
X196121Y257315D02*
Y259350D01*
Y257315D02*
X198348Y255088D01*
X198375D01*
X186633Y256567D02*
Y259350D01*
X186747Y255665D02*
X187141Y255272D01*
X139192Y267559D02*
Y271161D01*
X139109Y267476D02*
X139192Y267559D01*
X139109Y267476D02*
X139503D01*
X177145Y267630D02*
Y271161D01*
Y267630D02*
X177298Y267476D01*
X262448Y202555D02*
X268393D01*
X250526Y222713D02*
X250704Y222535D01*
Y212535D02*
Y217535D01*
X268393Y205999D02*
Y207555D01*
X302101Y222563D02*
X302110Y222555D01*
X254070Y207240D02*
X254385Y207555D01*
X258117D01*
X243355Y187603D02*
X277744D01*
X244018Y189203D02*
X278406D01*
X244680Y190803D02*
X422019D01*
X223599Y207359D02*
X243355Y187603D01*
X222810Y210410D02*
X244018Y189203D01*
X209287Y236768D02*
X216840Y229214D01*
X128381Y219504D02*
X214939D01*
X221752Y212691D01*
X245307Y196965D02*
X626464D01*
X222415Y214291D02*
X223455D01*
X244743Y193003D01*
X135369Y222004D02*
X214702D01*
X222415Y214291D01*
X221752Y212691D02*
X222792D01*
X244680Y190803D01*
X244743Y193003D02*
X422180D01*
X245044Y194965D02*
X618621D01*
X244228Y206059D02*
X250704Y212535D01*
X244228Y202122D02*
Y206059D01*
X218440Y223832D02*
Y240114D01*
Y223832D02*
X245307Y196965D01*
X216840Y223169D02*
Y229214D01*
Y223169D02*
X245044Y194965D01*
X519751Y276992D02*
Y282079D01*
Y276992D02*
X519818Y276925D01*
X514751Y276976D02*
Y282079D01*
X514700Y276925D02*
X514751Y276976D01*
X509751Y274000D02*
Y282079D01*
Y274000D02*
X512732Y271020D01*
X523692D01*
X529751Y277079D01*
X87535Y180772D02*
Y199760D01*
Y180772D02*
X97377Y170930D01*
Y167870D02*
Y170930D01*
X278775Y133173D02*
Y149906D01*
X282909Y154039D01*
X210924Y198311D02*
X215058Y202445D01*
X210924Y181579D02*
Y198311D01*
X9350Y109276D02*
X13090Y113016D01*
X9350Y92150D02*
Y109276D01*
X159976Y136965D02*
X160827Y137816D01*
Y154548D01*
X164110Y157831D01*
X160137Y181579D02*
X160827Y182269D01*
Y199001D01*
X164271Y202445D01*
D20*
X77228Y268717D02*
Y299630D01*
Y268717D02*
X82263Y263681D01*
X67739Y268717D02*
X72775Y263681D01*
X67739Y268717D02*
Y299630D01*
X86716Y268717D02*
X91751Y263681D01*
X86716Y268717D02*
Y299630D01*
X96204Y268717D02*
X101239Y263681D01*
X96204Y268717D02*
Y299630D01*
X105692Y268717D02*
X110728Y263681D01*
X105692Y268717D02*
Y299630D01*
X115180Y268717D02*
X120216Y263681D01*
X115180Y268717D02*
Y299630D01*
X124669Y268717D02*
X129704Y263681D01*
X124669Y268717D02*
Y299630D01*
X134157Y268717D02*
X139192Y263681D01*
X134157Y268717D02*
Y299630D01*
X143645Y268717D02*
X148680Y263681D01*
X143645Y268717D02*
Y299630D01*
X153133Y268717D02*
X158168Y263681D01*
X153133Y268717D02*
Y299630D01*
X162582Y268520D02*
X167617Y263484D01*
X162582Y268520D02*
Y299433D01*
X181598Y268717D02*
X186633Y263681D01*
X181598Y268717D02*
Y299630D01*
X172109Y268717D02*
X177145Y263681D01*
X172109Y268717D02*
Y299630D01*
X191086Y268717D02*
X196121Y263681D01*
X191086Y268717D02*
Y299630D01*
X200574Y268717D02*
X205609Y263681D01*
X200574Y268717D02*
Y299630D01*
X210062Y268717D02*
X215098Y263681D01*
X210062Y268717D02*
Y299630D01*
X219550Y268717D02*
X224586Y263681D01*
X219550Y268717D02*
Y299630D01*
X238527Y268717D02*
Y299630D01*
X257621Y268598D02*
Y299630D01*
X248133Y268598D02*
X253050Y263681D01*
X248133Y268598D02*
Y299630D01*
X77153Y256980D02*
X82263Y251870D01*
X77153Y256980D02*
Y263571D01*
X67665Y256980D02*
Y263571D01*
Y256980D02*
X72775Y251870D01*
X86641Y256980D02*
Y263571D01*
Y256980D02*
X91751Y251870D01*
X96129Y256980D02*
Y263571D01*
Y256980D02*
X101239Y251870D01*
X105617Y256980D02*
Y263571D01*
Y256980D02*
X110728Y251870D01*
X115105Y256980D02*
Y263571D01*
Y256980D02*
X120216Y251870D01*
X124594Y256980D02*
Y263571D01*
Y256980D02*
X129704Y251870D01*
X134082Y256980D02*
Y263571D01*
Y256980D02*
X139192Y251870D01*
X143570Y256980D02*
Y263571D01*
Y256980D02*
X148680Y251870D01*
X153058Y256980D02*
Y263571D01*
Y256980D02*
X158168Y251870D01*
X162547Y256980D02*
Y263571D01*
Y256980D02*
X167657Y251870D01*
X172035Y256980D02*
Y263571D01*
Y256980D02*
X177145Y251870D01*
X181523Y256980D02*
Y263571D01*
Y256980D02*
X186633Y251870D01*
X191011Y256980D02*
Y263571D01*
Y256980D02*
X196121Y251870D01*
X200499Y256980D02*
Y263571D01*
Y256980D02*
X205609Y251870D01*
X209987Y256980D02*
Y263571D01*
Y256980D02*
X215098Y251870D01*
X219476Y256980D02*
Y263571D01*
Y256980D02*
X224586Y251870D01*
X228964Y256980D02*
Y263571D01*
Y256980D02*
X234074Y251870D01*
X247940Y256980D02*
Y263571D01*
Y256980D02*
X253050Y251870D01*
X91751Y256520D02*
Y259350D01*
X253050Y256520D02*
Y259350D01*
X262539Y256520D02*
Y259350D01*
X205609Y256520D02*
Y259350D01*
X257621Y268598D02*
X262539Y263681D01*
Y269378D02*
Y271161D01*
Y269378D02*
X267680Y264236D01*
X205609Y271161D02*
X206006Y270764D01*
X215098Y271161D02*
X215494Y270764D01*
X167657Y275492D02*
Y289358D01*
X167385Y289630D02*
X167657Y289358D01*
X158168Y275492D02*
Y289358D01*
X157897Y289630D02*
X158168Y289358D01*
X148680Y275492D02*
Y289358D01*
X148409Y289630D02*
X148680Y289358D01*
X139192Y275492D02*
Y289358D01*
X138920Y289630D02*
X139192Y289358D01*
X129704Y275492D02*
Y289358D01*
X129432Y289630D02*
X129704Y289358D01*
X120216Y275492D02*
Y289358D01*
X119944Y289630D02*
X120216Y289358D01*
X110728Y275492D02*
Y289358D01*
X110456Y289630D02*
X110728Y289358D01*
X101239Y275492D02*
Y289358D01*
X100968Y289630D02*
X101239Y289358D01*
X91751Y275492D02*
Y289358D01*
X91479Y289630D02*
X91751Y289358D01*
X82263Y275492D02*
Y289358D01*
X81991Y289630D02*
X82263Y289358D01*
X72775Y275492D02*
Y289358D01*
X72503Y289630D02*
X72775Y289358D01*
X177145Y275492D02*
Y278073D01*
X176873Y278345D02*
X177145Y278073D01*
X176873Y278345D02*
Y289630D01*
X186633Y275492D02*
Y278073D01*
X186361Y278345D02*
X186633Y278073D01*
X186361Y278345D02*
Y289630D01*
X196121Y275492D02*
Y278073D01*
X195850Y278345D02*
X196121Y278073D01*
X195850Y278345D02*
Y289630D01*
X205609Y275492D02*
Y278073D01*
X205338Y278345D02*
X205609Y278073D01*
X205338Y278345D02*
Y289630D01*
X215098Y275492D02*
Y278073D01*
X214826Y278345D02*
X215098Y278073D01*
X214826Y278345D02*
Y289630D01*
X224586Y275492D02*
Y278073D01*
X224314Y278345D02*
X224586Y278073D01*
X224314Y278345D02*
Y289630D01*
X234074Y275492D02*
Y278073D01*
X233802Y278345D02*
X234074Y278073D01*
X233802Y278345D02*
Y289630D01*
X243562Y275492D02*
Y278073D01*
X243409Y278227D02*
X243562Y278073D01*
X243409Y278227D02*
Y289630D01*
X253050Y275492D02*
Y278073D01*
X252897Y278227D02*
X253050Y278073D01*
X252897Y278227D02*
Y289630D01*
X253050Y269185D02*
Y271161D01*
Y269185D02*
X257680Y264555D01*
Y263736D02*
Y264555D01*
X238527Y268717D02*
X243562Y263681D01*
X229039Y268717D02*
X234074Y263681D01*
X229039Y268717D02*
Y299630D01*
X129704Y256520D02*
Y259350D01*
X234074Y256520D02*
Y259350D01*
X91751Y268331D02*
Y271161D01*
X101239Y268331D02*
Y271161D01*
X238452Y258980D02*
Y263571D01*
Y258980D02*
X243562Y253870D01*
Y251870D02*
Y253870D01*
D21*
X259842Y35654D02*
Y45311D01*
X248031Y35654D02*
Y45311D01*
X236221Y35654D02*
Y45311D01*
X224410Y35654D02*
Y45311D01*
X179134Y35654D02*
Y45311D01*
X167323Y35654D02*
Y45311D01*
X155512Y35654D02*
Y45311D01*
X143701Y35654D02*
Y45311D01*
X96260Y35654D02*
Y45311D01*
X84449Y35654D02*
Y45311D01*
X72638Y35654D02*
Y45311D01*
X60827Y35654D02*
Y45311D01*
X259842Y14209D02*
Y23854D01*
X248031Y14209D02*
Y23854D01*
X236221Y14209D02*
Y23854D01*
X224410Y14209D02*
Y23854D01*
X179134Y14209D02*
Y23854D01*
X167323Y14209D02*
Y23854D01*
X155512Y14209D02*
Y23854D01*
X143701Y14209D02*
Y23854D01*
X96260Y14209D02*
Y23854D01*
X84449Y14209D02*
Y23854D01*
X72638Y14209D02*
Y23854D01*
X60827Y14209D02*
Y23854D01*
X220684Y49642D02*
X224410D01*
X220507Y49465D02*
X220684Y49642D01*
X236221D02*
Y53338D01*
X236157Y53402D02*
X236221Y53338D01*
X231432Y175842D02*
X248031Y159243D01*
Y49642D02*
Y159243D01*
X256117Y9878D02*
X259842D01*
X256039Y9799D02*
X256117Y9878D01*
X224410Y6094D02*
X224444Y6059D01*
X224410Y6094D02*
Y9878D01*
X143701Y49642D02*
X145724D01*
X149238Y46128D01*
Y2408D02*
Y46128D01*
X72672Y49676D02*
Y53500D01*
X72638Y49642D02*
X72672Y49676D01*
X86942Y72904D02*
X135468Y24378D01*
Y13047D02*
Y24378D01*
Y13047D02*
X138637Y9878D01*
X143701D01*
X81531Y78992D02*
X83499Y77024D01*
X204857D01*
X84449Y49642D02*
Y67019D01*
X77298Y74169D02*
X84449Y67019D01*
X77298Y74169D02*
Y109504D01*
X85468Y117673D01*
Y166787D01*
X91472Y172791D01*
X92869Y9878D02*
X96260D01*
X90723Y12024D02*
X92869Y9878D01*
X90723Y12024D02*
Y61335D01*
X90684Y61374D02*
X90723Y61335D01*
X90684Y61374D02*
Y62653D01*
X90783Y62752D01*
X144621Y-2209D02*
X149238Y2408D01*
X144523Y-2209D02*
X144621D01*
X96260Y49642D02*
Y53367D01*
X96393Y53500D01*
X173351Y12959D02*
X176432Y9878D01*
X179134D01*
X173361Y12969D02*
Y53303D01*
X173351Y12959D02*
X173361Y12969D01*
X204857Y77024D02*
X230153Y51728D01*
X253578Y46610D02*
X256609Y49642D01*
X259842D01*
X250822Y29779D02*
X253578Y32535D01*
Y46610D01*
X233696Y29779D02*
X250822D01*
X230153Y33323D02*
X233696Y29779D01*
X230153Y33323D02*
Y51728D01*
X179134Y49642D02*
Y53367D01*
X179168Y53402D01*
X167323Y6094D02*
Y9878D01*
Y6094D02*
X167358Y6059D01*
X155512Y6094D02*
X155546Y6059D01*
X155512Y6094D02*
Y9878D01*
X84449Y6094D02*
X84483Y6059D01*
X84449Y6094D02*
Y9878D01*
X72638Y6094D02*
X72672Y6059D01*
X72638Y6094D02*
Y9878D01*
X60827Y6094D02*
X60861Y6059D01*
X60827Y6094D02*
Y9878D01*
X236221Y6094D02*
X236255Y6059D01*
X236221Y6094D02*
Y9878D01*
X248031Y6094D02*
X248066Y6059D01*
X248031Y6094D02*
Y9878D01*
X262539Y275492D02*
Y278073D01*
X262385Y278227D02*
X262539Y278073D01*
X262385Y278227D02*
Y289630D01*
X82263Y271161D02*
X82624Y270801D01*
Y268373D02*
Y270801D01*
Y268373D02*
X83104Y267894D01*
X72775Y256863D02*
Y259350D01*
Y256863D02*
X73556Y256082D01*
X82263Y257086D02*
Y259350D01*
Y257086D02*
X83173Y256176D01*
Y256013D02*
Y256176D01*
X72775Y271161D02*
X73136Y270801D01*
Y268314D02*
Y270801D01*
Y268314D02*
X73556Y267894D01*
X64995Y244543D02*
Y254583D01*
X177145Y243898D02*
Y247539D01*
X177102Y243854D02*
X177145Y243898D01*
X186590Y243854D02*
X186633Y243898D01*
Y247539D01*
X196078Y243854D02*
X196121Y243898D01*
Y247539D01*
X205566Y243854D02*
X205609Y243898D01*
Y247539D01*
X215054Y243854D02*
X215098Y243898D01*
Y247539D01*
X224542Y243854D02*
X224586Y243898D01*
Y247539D01*
X234031Y243854D02*
X234074Y243898D01*
Y247539D01*
X224586Y268713D02*
Y271161D01*
Y268713D02*
X225428Y267870D01*
X251708Y114720D02*
X275921Y90508D01*
X288125D01*
X215098Y243898D02*
Y247539D01*
X215054Y243854D02*
X215098Y243898D01*
X79365Y230173D02*
X79365D01*
X64995Y244543D02*
X79365Y230173D01*
X243562Y268713D02*
X244405Y267870D01*
X243562Y268713D02*
Y271161D01*
D23*
X84449Y23854D02*
D03*
X72638D02*
D03*
X60827D02*
D03*
Y35654D02*
D03*
X72638D02*
D03*
X96260D02*
D03*
X84449D02*
D03*
X167323Y23854D02*
D03*
X155512D02*
D03*
X143701D02*
D03*
Y35654D02*
D03*
X155512D02*
D03*
X179134D02*
D03*
X167323D02*
D03*
X248031Y23854D02*
D03*
X236221D02*
D03*
X224410D02*
D03*
Y35654D02*
D03*
X236221D02*
D03*
X259842D02*
D03*
X248031D02*
D03*
X298440Y55075D02*
D03*
X288440D02*
D03*
X262318Y169953D02*
D03*
Y179953D02*
D03*
D24*
X96260Y23854D02*
D03*
X179134D02*
D03*
X259842D02*
D03*
D25*
X332889Y14720D02*
D03*
X687220Y250941D02*
D03*
X332889D02*
D03*
X687220Y14720D02*
D03*
X0Y0D02*
D03*
X669291Y311024D02*
D03*
X15748Y311024D02*
D03*
D26*
X693204Y160035D02*
D03*
X683204D02*
D03*
X693204Y170035D02*
D03*
X683204D02*
D03*
X693204Y180035D02*
D03*
X683204D02*
D03*
X693204Y190035D02*
D03*
X683204D02*
D03*
X693204Y200035D02*
D03*
X683204D02*
D03*
X693204Y210035D02*
D03*
X683204D02*
D03*
X693204Y220035D02*
D03*
X683204D02*
D03*
X693204Y230035D02*
D03*
Y135035D02*
D03*
Y115035D02*
D03*
Y145035D02*
D03*
Y105035D02*
D03*
Y125035D02*
D03*
Y75035D02*
D03*
Y85035D02*
D03*
Y65035D02*
D03*
Y45035D02*
D03*
Y55035D02*
D03*
Y35035D02*
D03*
X683204Y135035D02*
D03*
X693204Y95035D02*
D03*
X683204Y125035D02*
D03*
Y115035D02*
D03*
Y105035D02*
D03*
Y85035D02*
D03*
Y95035D02*
D03*
Y55035D02*
D03*
Y65035D02*
D03*
Y75035D02*
D03*
Y35035D02*
D03*
Y45035D02*
D03*
X353558Y94051D02*
D03*
Y104051D02*
D03*
Y114051D02*
D03*
Y124051D02*
D03*
Y134051D02*
D03*
X298224Y102417D02*
D03*
X298125Y90508D02*
D03*
X447141Y-18350D02*
D03*
X336905Y-18350D02*
D03*
X557377Y-18350D02*
D03*
X667613D02*
D03*
D27*
X683204Y230035D02*
D03*
Y145035D02*
D03*
X353558Y144051D02*
D03*
D28*
X288224Y102417D02*
D03*
X288125Y90508D02*
D03*
X437141Y-18350D02*
D03*
X326905Y-18350D02*
D03*
X547377Y-18350D02*
D03*
X657613D02*
D03*
D29*
X342520Y311024D02*
D03*
D30*
X86716Y299630D02*
D03*
X77228D02*
D03*
X96204D02*
D03*
X105692D02*
D03*
X115180D02*
D03*
X124669D02*
D03*
X134157D02*
D03*
X143645D02*
D03*
X153133D02*
D03*
X162621D02*
D03*
X172109D02*
D03*
X181598D02*
D03*
X191086D02*
D03*
X200574D02*
D03*
X210062D02*
D03*
X219550D02*
D03*
X229039D02*
D03*
X238527D02*
D03*
X248133D02*
D03*
X257621D02*
D03*
X252897Y309630D02*
D03*
X243409D02*
D03*
X233802D02*
D03*
X224314D02*
D03*
X214826D02*
D03*
X205338D02*
D03*
X195850D02*
D03*
X186361D02*
D03*
X176873D02*
D03*
X167385D02*
D03*
X157897D02*
D03*
X148409D02*
D03*
X138920D02*
D03*
X129432D02*
D03*
X119944D02*
D03*
X110456D02*
D03*
X100968D02*
D03*
X91479D02*
D03*
X72503D02*
D03*
X81991D02*
D03*
X67739Y299630D02*
D03*
X81991Y289630D02*
D03*
X91479D02*
D03*
X100968D02*
D03*
X110456D02*
D03*
X119944D02*
D03*
X129432D02*
D03*
X138920D02*
D03*
X148409D02*
D03*
X157897D02*
D03*
X167385D02*
D03*
X176873D02*
D03*
X186361D02*
D03*
X195850D02*
D03*
X205338D02*
D03*
X214826D02*
D03*
X224314D02*
D03*
X233802D02*
D03*
X243409D02*
D03*
X252897D02*
D03*
X262385D02*
D03*
D31*
X72503D02*
D03*
D32*
X290220Y299630D02*
D03*
X40220D02*
D03*
D33*
X568858Y307063D02*
D03*
X470458D02*
D03*
D34*
X498058Y301463D02*
D03*
X508858D02*
D03*
X519658D02*
D03*
X530458D02*
D03*
X541258D02*
D03*
X503458Y312663D02*
D03*
X514258D02*
D03*
X525058D02*
D03*
X535858D02*
D03*
D35*
X353558Y84051D02*
D03*
D36*
X195472Y177165D02*
D03*
Y132677D02*
D03*
X250527Y224169D02*
D03*
X268243Y224562D02*
D03*
X268243Y219445D02*
D03*
X268393Y205999D02*
D03*
Y212555D02*
D03*
X302102Y224563D02*
D03*
Y219445D02*
D03*
X302101Y214326D02*
D03*
X253283Y241886D02*
D03*
X83598Y218657D02*
D03*
X309976Y130468D02*
D03*
X301708Y133815D02*
D03*
X193869Y106917D02*
D03*
Y110461D02*
D03*
X92062Y154878D02*
D03*
Y151335D02*
D03*
X90846Y199886D02*
D03*
Y196343D02*
D03*
X41668Y154878D02*
D03*
Y151335D02*
D03*
X40291Y110390D02*
D03*
Y106846D02*
D03*
X-9942Y110457D02*
D03*
Y106913D02*
D03*
Y155457D02*
D03*
Y151913D02*
D03*
X-10103Y196216D02*
D03*
Y199760D02*
D03*
X268393Y202555D02*
D03*
X648117Y230035D02*
D03*
Y220035D02*
D03*
Y200035D02*
D03*
Y190035D02*
D03*
Y180035D02*
D03*
Y170035D02*
D03*
Y160035D02*
D03*
X504751Y277079D02*
D03*
X524751D02*
D03*
X666039Y150705D02*
D03*
X653204Y120035D02*
D03*
Y110035D02*
D03*
Y80035D02*
D03*
Y70035D02*
D03*
Y40035D02*
D03*
X653873Y150705D02*
D03*
X595704Y187535D02*
D03*
X607204Y187196D02*
D03*
X529751Y277079D02*
D03*
X534751D02*
D03*
X303184Y71216D02*
D03*
X653301Y60035D02*
D03*
Y50035D02*
D03*
X250704Y202535D02*
D03*
X329865Y94213D02*
D03*
X533598Y34799D02*
D03*
Y54554D02*
D03*
X545409Y54554D02*
D03*
Y34799D02*
D03*
X523381Y37142D02*
D03*
X488696D02*
D03*
X480074Y47142D02*
D03*
X445389Y52142D02*
D03*
X499936Y56453D02*
D03*
X513750Y60390D02*
D03*
X515881Y28732D02*
D03*
X648755Y146020D02*
D03*
Y134209D02*
D03*
X641865Y125350D02*
D03*
X631039Y140114D02*
D03*
X637732Y65936D02*
D03*
Y84371D02*
D03*
X637928Y45001D02*
D03*
X637732Y96182D02*
D03*
X636747Y128662D02*
D03*
X626476Y146020D02*
D03*
X603479Y39720D02*
D03*
X607416D02*
D03*
X539751Y277079D02*
D03*
X488696Y42142D02*
D03*
X297869Y129039D02*
D03*
Y121953D02*
D03*
X603479Y32634D02*
D03*
X278184Y125496D02*
D03*
X272672Y138488D02*
D03*
X278775Y133173D02*
D03*
X282909Y154039D02*
D03*
X275428Y152661D02*
D03*
X69424Y107634D02*
D03*
X63322Y112949D02*
D03*
X59188Y92083D02*
D03*
X44228Y117083D02*
D03*
Y124169D02*
D03*
X66668Y93461D02*
D03*
X63913Y120626D02*
D03*
X221161Y152642D02*
D03*
X215058Y157957D02*
D03*
X210924Y137091D02*
D03*
X195964Y169177D02*
D03*
X218405Y138469D02*
D03*
X215649Y165634D02*
D03*
X221393Y107831D02*
D03*
X215291Y113146D02*
D03*
X211157Y92279D02*
D03*
X196196Y117280D02*
D03*
Y124366D02*
D03*
X218637Y93657D02*
D03*
X215881Y120823D02*
D03*
X221161Y197130D02*
D03*
X215058Y202445D02*
D03*
X210924Y181579D02*
D03*
X218405Y182957D02*
D03*
X215649Y210122D02*
D03*
X19192Y107701D02*
D03*
X13090Y113016D02*
D03*
X8956Y92150D02*
D03*
X-6005Y117150D02*
D03*
Y124236D02*
D03*
X16436Y93528D02*
D03*
X13680Y120693D02*
D03*
X19192Y152701D02*
D03*
X13090Y158016D02*
D03*
X8956Y137150D02*
D03*
X-6005Y162150D02*
D03*
Y169236D02*
D03*
X16436Y138528D02*
D03*
X13680Y165693D02*
D03*
X19031Y197004D02*
D03*
X12928Y202319D02*
D03*
X8794Y181453D02*
D03*
X-6166Y206453D02*
D03*
Y213539D02*
D03*
X16275Y182831D02*
D03*
X13519Y209996D02*
D03*
X69424Y197004D02*
D03*
X63322Y202319D02*
D03*
X59188Y181453D02*
D03*
X45605Y206453D02*
D03*
X44228Y213539D02*
D03*
X66668Y182831D02*
D03*
X63913Y209996D02*
D03*
X170212Y152516D02*
D03*
X164110Y157831D02*
D03*
X159976Y136965D02*
D03*
X145015Y169051D02*
D03*
X167456Y138342D02*
D03*
X164700Y165508D02*
D03*
X170373Y107760D02*
D03*
X164271Y113075D02*
D03*
X160137Y92209D02*
D03*
X145176Y124295D02*
D03*
X167617Y93587D02*
D03*
X164861Y120752D02*
D03*
X119586Y107366D02*
D03*
X113484Y112681D02*
D03*
X109350Y91815D02*
D03*
X94389Y123902D02*
D03*
X116830Y93193D02*
D03*
X114074Y120358D02*
D03*
X170373Y197130D02*
D03*
X164271Y202445D02*
D03*
X160137Y181579D02*
D03*
X145176Y213665D02*
D03*
X167617Y182957D02*
D03*
X164861Y210122D02*
D03*
X119980Y197130D02*
D03*
X113877Y202445D02*
D03*
X109743Y181579D02*
D03*
X94783Y206579D02*
D03*
Y213665D02*
D03*
X117224Y182957D02*
D03*
X114468Y210122D02*
D03*
X119586Y152248D02*
D03*
X113484Y157563D02*
D03*
X109350Y136697D02*
D03*
X94389Y161697D02*
D03*
Y168783D02*
D03*
X116830Y138075D02*
D03*
X114074Y165240D02*
D03*
X69586Y152248D02*
D03*
X63484Y157563D02*
D03*
X59350Y136697D02*
D03*
X44389Y161697D02*
D03*
Y168783D02*
D03*
X66830Y138075D02*
D03*
X64074Y165240D02*
D03*
X91751Y256520D02*
D03*
X120216Y268331D02*
D03*
X158168D02*
D03*
X253050Y256520D02*
D03*
X262539D02*
D03*
X205609D02*
D03*
X196180Y213736D02*
D03*
X75680Y168567D02*
D03*
X82680D02*
D03*
X75180Y131905D02*
D03*
X79180D02*
D03*
X75180Y124067D02*
D03*
X79180D02*
D03*
X259578Y122169D02*
D03*
X266578D02*
D03*
X640180Y229736D02*
D03*
X631680Y237736D02*
D03*
X478180Y235236D02*
D03*
X473600Y229736D02*
D03*
X648078Y194642D02*
D03*
X644031Y189130D02*
D03*
X648117Y210035D02*
D03*
X607318Y225252D02*
D03*
X613818Y228402D02*
D03*
X206006Y267739D02*
D03*
X215494D02*
D03*
X95507Y116815D02*
D03*
X146196Y161965D02*
D03*
X146688Y117209D02*
D03*
X146393Y206579D02*
D03*
X197279Y162091D02*
D03*
X197180Y206579D02*
D03*
X129704Y256520D02*
D03*
X167657Y268331D02*
D03*
X234074Y256520D02*
D03*
X177145D02*
D03*
X91751Y268331D02*
D03*
X101239D02*
D03*
X653301Y90035D02*
D03*
X614306Y107634D02*
D03*
X653301Y100035D02*
D03*
X611353Y110587D02*
D03*
X302110Y207555D02*
D03*
Y202555D02*
D03*
X244228Y202122D02*
D03*
X298622Y158268D02*
D03*
X195866Y87795D02*
D03*
X144685D02*
D03*
X93898Y87402D02*
D03*
X43898Y87795D02*
D03*
X-6496D02*
D03*
Y132677D02*
D03*
Y177165D02*
D03*
X43504D02*
D03*
Y132283D02*
D03*
X93898D02*
D03*
Y179134D02*
D03*
X144685Y177165D02*
D03*
X144291Y132677D02*
D03*
X208071Y194095D02*
D03*
X284449Y140551D02*
D03*
X208071Y149606D02*
D03*
X208465Y104724D02*
D03*
X157677D02*
D03*
X158071Y149606D02*
D03*
Y194095D02*
D03*
X106496Y104331D02*
D03*
Y149213D02*
D03*
X106890Y194095D02*
D03*
X56496Y104331D02*
D03*
X56102Y193701D02*
D03*
X6496Y104724D02*
D03*
X6102Y149606D02*
D03*
Y194095D02*
D03*
D37*
X334646Y84646D02*
D03*
X289370Y19685D02*
D03*
X275590Y28543D02*
D03*
X143834Y238736D02*
D03*
X140684D02*
D03*
X316078Y212555D02*
D03*
X165487Y259208D02*
D03*
X143834Y252516D02*
D03*
X130015Y267476D02*
D03*
X52486Y200153D02*
D03*
X43279Y201102D02*
D03*
X153435Y110909D02*
D03*
X144228Y111858D02*
D03*
X153273Y155665D02*
D03*
X144066Y156614D02*
D03*
X153435Y200279D02*
D03*
X144228Y201228D02*
D03*
X204222Y155791D02*
D03*
X195015Y156739D02*
D03*
X204222Y200279D02*
D03*
X195015Y201228D02*
D03*
X93440Y111464D02*
D03*
X102647Y110516D02*
D03*
X60680Y52736D02*
D03*
X209287Y240114D02*
D03*
X68637Y230262D02*
D03*
Y233224D02*
D03*
X55448Y246807D02*
D03*
X627340Y227262D02*
D03*
X52486Y246807D02*
D03*
X629434Y229356D02*
D03*
X237732Y255173D02*
D03*
X233991Y268559D02*
D03*
X115291Y228106D02*
D03*
X124050Y236669D02*
D03*
X310271Y80764D02*
D03*
X312830Y75153D02*
D03*
X155743Y243067D02*
D03*
X148755Y268461D02*
D03*
X316235Y222555D02*
D03*
X316196Y217555D02*
D03*
X316196Y207555D02*
D03*
X316235Y202555D02*
D03*
X196196Y267870D02*
D03*
X186747Y267475D02*
D03*
X208991Y225547D02*
D03*
X211550Y228500D02*
D03*
X198375Y255088D02*
D03*
X186747Y255665D02*
D03*
X139503Y267476D02*
D03*
X177298D02*
D03*
X221693Y210410D02*
D03*
X221004Y207359D02*
D03*
X254070Y207240D02*
D03*
X172574Y252122D02*
D03*
X519818Y276925D02*
D03*
X514700D02*
D03*
D38*
X77153Y263571D02*
D03*
X67665D02*
D03*
X86641D02*
D03*
X96129D02*
D03*
X105617D02*
D03*
X115105D02*
D03*
X124594D02*
D03*
X134082D02*
D03*
X143570D02*
D03*
X153058D02*
D03*
X162547D02*
D03*
X172035D02*
D03*
X181523D02*
D03*
X191011D02*
D03*
X200499D02*
D03*
X209987D02*
D03*
X219476D02*
D03*
X228964D02*
D03*
X247940D02*
D03*
X257680Y263244D02*
D03*
X267680Y264236D02*
D03*
X220507Y49465D02*
D03*
X236157Y53402D02*
D03*
X231432Y175842D02*
D03*
X256039Y9799D02*
D03*
X224444Y6059D02*
D03*
X72672Y53500D02*
D03*
X86942Y72904D02*
D03*
X81531Y78992D02*
D03*
X90783Y62752D02*
D03*
X144523Y-2209D02*
D03*
X96393Y53500D02*
D03*
X173361Y53303D02*
D03*
X179168Y53402D02*
D03*
X167358Y6059D02*
D03*
X155546D02*
D03*
X84483D02*
D03*
X72672D02*
D03*
X60861D02*
D03*
X236255D02*
D03*
X248066D02*
D03*
X91570Y171807D02*
D03*
X238452Y263571D02*
D03*
X83104Y267894D02*
D03*
X73556Y256082D02*
D03*
X83173Y256013D02*
D03*
X73556Y267894D02*
D03*
X64995Y254583D02*
D03*
X177102Y243854D02*
D03*
X186590D02*
D03*
X196078D02*
D03*
X205566D02*
D03*
X224542D02*
D03*
X234031D02*
D03*
X225428Y267870D02*
D03*
X-1540Y65902D02*
D03*
X30054Y66000D02*
D03*
X251708Y114720D02*
D03*
X215054Y243854D02*
D03*
X79365Y230173D02*
D03*
X244405Y267870D02*
D03*
D39*
X218440Y240114D02*
D03*
D42*
X653873Y45035D02*
X658204D01*
X653873Y55035D02*
X658204D01*
X653873Y65035D02*
X658204D01*
X653873Y75035D02*
X658204D01*
X653873Y85035D02*
X658204D01*
X653873Y95035D02*
X658204D01*
X653873Y105035D02*
X658204D01*
X653873Y115035D02*
X658204D01*
X653873Y125035D02*
X658204D01*
X653873Y135035D02*
X658204D01*
X666039Y125035D02*
X670369D01*
X666039Y135035D02*
X670369D01*
X666039Y85035D02*
X670369D01*
X666039Y95035D02*
X670369D01*
X666039Y45035D02*
X670369D01*
X666039Y55035D02*
X670369D01*
X307527Y202555D02*
X311858D01*
X307527Y212555D02*
X311858D01*
X307527Y217555D02*
X311858D01*
X307527Y222555D02*
X311858D01*
X653873Y160035D02*
X658204D01*
X653873Y170035D02*
X658204D01*
X653873Y180035D02*
X658204D01*
X653873Y190035D02*
X658204D01*
X653873Y200035D02*
X658204D01*
X653873Y210035D02*
X658204D01*
X653873Y220035D02*
X658204D01*
X653873Y230035D02*
X658204D01*
X298511Y66847D02*
Y71177D01*
X289062Y66847D02*
Y71177D01*
X653873Y35035D02*
X658204D01*
X666039D02*
X670369D01*
X666039Y75035D02*
X670369D01*
X666039Y115035D02*
X670369D01*
X666039Y65035D02*
X670369D01*
X666039Y105035D02*
X670369D01*
X653873Y145035D02*
X658204D01*
X666039D02*
X670369D01*
X666039Y160035D02*
X670369D01*
X666039Y170035D02*
X670369D01*
X666039Y180035D02*
X670369D01*
X666039Y190035D02*
X670369D01*
X666039Y200035D02*
X670369D01*
X666039Y210035D02*
X670369D01*
X666039Y220035D02*
X670369D01*
X666039Y230035D02*
X670369D01*
X336393Y94051D02*
X340724D01*
X336393Y104051D02*
X340724D01*
X336393Y114051D02*
X340724D01*
X336393Y124051D02*
X340724D01*
X336393Y134051D02*
X340724D01*
X336393Y144051D02*
X340724D01*
X258117Y202555D02*
X262448D01*
X258117Y212555D02*
X262448D01*
X258117Y217555D02*
X262448D01*
X307527Y207555D02*
X311858D01*
X258117D02*
X262448D01*
X258117Y222555D02*
X262448D01*
X224410Y45311D02*
Y49642D01*
Y9878D02*
Y14209D01*
X236221Y45311D02*
Y49642D01*
Y9878D02*
Y14209D01*
X248031Y45311D02*
Y49642D01*
Y9878D02*
Y14209D01*
X259842Y45311D02*
Y49642D01*
Y9878D02*
Y14209D01*
X143701Y45311D02*
Y49642D01*
Y9878D02*
Y14209D01*
X155512Y45311D02*
Y49642D01*
Y9878D02*
Y14209D01*
X167323Y45311D02*
Y49642D01*
Y9878D02*
Y14209D01*
X179134Y45311D02*
Y49642D01*
Y9878D02*
Y14209D01*
X60827Y45311D02*
Y49642D01*
Y9878D02*
Y14209D01*
X72638Y45311D02*
Y49642D01*
Y9878D02*
Y14209D01*
X84449Y45311D02*
Y49642D01*
Y9878D02*
Y14209D01*
X96260Y45311D02*
Y49642D01*
Y9878D02*
Y14209D01*
X72775Y259350D02*
Y263681D01*
Y271161D02*
Y275492D01*
X82263Y259350D02*
Y263681D01*
Y271161D02*
Y275492D01*
X91751Y259350D02*
Y263681D01*
Y271161D02*
Y275492D01*
X101239Y259350D02*
Y263681D01*
Y271161D02*
Y275492D01*
X110728Y259350D02*
Y263681D01*
Y271161D02*
Y275492D01*
X120216Y259350D02*
Y263681D01*
Y271161D02*
Y275492D01*
X129704Y259350D02*
Y263681D01*
Y271161D02*
Y275492D01*
X139192Y259350D02*
Y263681D01*
Y271161D02*
Y275492D01*
X148680Y259350D02*
Y263681D01*
Y271161D02*
Y275492D01*
X158168Y259350D02*
Y263681D01*
Y271161D02*
Y275492D01*
X167657Y259350D02*
Y263681D01*
Y271161D02*
Y275492D01*
X177145Y259350D02*
Y263681D01*
Y271161D02*
Y275492D01*
X186633Y259350D02*
Y263681D01*
Y271161D02*
Y275492D01*
X196121Y259350D02*
Y263681D01*
Y271161D02*
Y275492D01*
X205609Y259350D02*
Y263681D01*
Y271161D02*
Y275492D01*
X215098Y259350D02*
Y263681D01*
Y271161D02*
Y275492D01*
X224586Y259350D02*
Y263681D01*
Y271161D02*
Y275492D01*
X234074Y259350D02*
Y263681D01*
Y271161D02*
Y275492D01*
X243562Y259350D02*
Y263681D01*
Y271161D02*
Y275492D01*
X253050Y259350D02*
Y263681D01*
Y271161D02*
Y275492D01*
X262539Y259350D02*
Y263681D01*
Y271161D02*
Y275492D01*
X499751Y282079D02*
Y286409D01*
X504751Y282079D02*
Y286409D01*
X509751Y282079D02*
Y286409D01*
X514751Y282079D02*
Y286409D01*
X519751Y282079D02*
Y286409D01*
X524751Y282079D02*
Y286409D01*
X529751Y282079D02*
Y286409D01*
X534751Y282079D02*
Y286409D01*
X539751Y282079D02*
Y286409D01*
X72775Y247539D02*
Y251870D01*
X82263Y247539D02*
Y251870D01*
X91751Y247539D02*
Y251870D01*
X101239Y247539D02*
Y251870D01*
X110728Y247539D02*
Y251870D01*
X120216Y247539D02*
Y251870D01*
X129704Y247539D02*
Y251870D01*
X139192Y247539D02*
Y251870D01*
X148680Y247539D02*
Y251870D01*
X158168Y247539D02*
Y251870D01*
X167657Y247539D02*
Y251870D01*
X177145Y247539D02*
Y251870D01*
X186633Y247539D02*
Y251870D01*
X196121Y247539D02*
Y251870D01*
X205609Y247539D02*
Y251870D01*
X215098Y247539D02*
Y251870D01*
X224586Y247539D02*
Y251870D01*
X234074Y247539D02*
Y251870D01*
X243562Y247539D02*
Y251870D01*
X253050Y247539D02*
Y251870D01*
D58*
X167657Y257039D02*
Y259350D01*
Y257039D02*
X172574Y252122D01*
M02*
