%FSLAX25Y25*%
%MOIN*%
G70*
G01*
G75*
G04 Layer_Color=16711935*
%ADD10R,0.02756X0.03150*%
%ADD11R,0.11000X0.02900*%
%ADD12O,0.08661X0.02362*%
%ADD13R,0.03150X0.02756*%
%ADD14R,0.05906X0.02362*%
%ADD15R,0.05118X0.03150*%
%ADD16R,0.12598X0.07874*%
%ADD17O,0.06890X0.01181*%
%ADD18C,0.01181*%
%ADD19C,0.01000*%
%ADD20C,0.01800*%
%ADD21C,0.02000*%
%ADD22C,0.03000*%
%ADD23C,0.07874*%
G04:AMPARAMS|DCode=24|XSize=78.74mil|YSize=78.74mil|CornerRadius=19.69mil|HoleSize=0mil|Usage=FLASHONLY|Rotation=0.000|XOffset=0mil|YOffset=0mil|HoleType=Round|Shape=RoundedRectangle|*
%AMROUNDEDRECTD24*
21,1,0.07874,0.03937,0,0,0.0*
21,1,0.03937,0.07874,0,0,0.0*
1,1,0.03937,0.01969,-0.01969*
1,1,0.03937,-0.01969,-0.01969*
1,1,0.03937,-0.01969,0.01969*
1,1,0.03937,0.01969,0.01969*
%
%ADD24ROUNDEDRECTD24*%
%ADD25C,0.23622*%
%ADD26C,0.05906*%
%ADD27R,0.05906X0.05906*%
%ADD28R,0.05906X0.05906*%
%ADD29C,0.27559*%
%ADD30C,0.06299*%
%ADD31R,0.06299X0.06299*%
%ADD32C,0.16535*%
%ADD33C,0.19685*%
%ADD34C,0.07087*%
%ADD35C,0.06000*%
%ADD36C,0.02756*%
%ADD37C,0.02362*%
%ADD38C,0.03937*%
%ADD39C,0.01969*%
%ADD40C,0.04000*%
%ADD41C,0.04000*%
%ADD42C,0.00787*%
%ADD43C,0.07937*%
%ADD44C,0.15811*%
%ADD45C,0.08331*%
%ADD46C,0.16598*%
%ADD47C,0.07543*%
G04:AMPARAMS|DCode=48|XSize=95.433mil|YSize=95.433mil|CornerRadius=0mil|HoleSize=0mil|Usage=FLASHONLY|Rotation=0.000|XOffset=0mil|YOffset=0mil|HoleType=Round|Shape=Relief|Width=10mil|Gap=10mil|Entries=4|*
%AMTHD48*
7,0,0,0.09543,0.07543,0.01000,45*
%
%ADD48THD48*%
%ADD49C,0.16205*%
%ADD50C,0.17779*%
%ADD51C,0.08685*%
%ADD52C,0.16520*%
%ADD53C,0.07000*%
%ADD54C,0.05181*%
G04:AMPARAMS|DCode=55|XSize=71.811mil|YSize=71.811mil|CornerRadius=0mil|HoleSize=0mil|Usage=FLASHONLY|Rotation=0.000|XOffset=0mil|YOffset=0mil|HoleType=Round|Shape=Relief|Width=10mil|Gap=10mil|Entries=4|*
%AMTHD55*
7,0,0,0.07181,0.05181,0.01000,45*
%
%ADD55THD55*%
%ADD56C,0.05969*%
G04:AMPARAMS|DCode=57|XSize=79.685mil|YSize=79.685mil|CornerRadius=0mil|HoleSize=0mil|Usage=FLASHONLY|Rotation=0.000|XOffset=0mil|YOffset=0mil|HoleType=Round|Shape=Relief|Width=10mil|Gap=10mil|Entries=4|*
%AMTHD57*
7,0,0,0.07969,0.05969,0.01000,45*
%
%ADD57THD57*%
%ADD58C,0.01772*%
%ADD59C,0.00984*%
%ADD60C,0.02362*%
%ADD61C,0.01575*%
%ADD62C,0.00394*%
%ADD63C,0.00750*%
%ADD64C,0.00500*%
%ADD65R,0.05800X0.12500*%
%ADD66R,0.02956X0.03350*%
%ADD67R,0.11200X0.03100*%
%ADD68O,0.08861X0.02562*%
%ADD69R,0.03350X0.02956*%
%ADD70R,0.06106X0.02562*%
%ADD71R,0.05318X0.03350*%
%ADD72R,0.12798X0.08074*%
%ADD73O,0.07090X0.01381*%
%ADD74C,0.08074*%
G04:AMPARAMS|DCode=75|XSize=80.74mil|YSize=80.74mil|CornerRadius=20.69mil|HoleSize=0mil|Usage=FLASHONLY|Rotation=0.000|XOffset=0mil|YOffset=0mil|HoleType=Round|Shape=RoundedRectangle|*
%AMROUNDEDRECTD75*
21,1,0.08074,0.03937,0,0,0.0*
21,1,0.03937,0.08074,0,0,0.0*
1,1,0.04137,0.01969,-0.01969*
1,1,0.04137,-0.01969,-0.01969*
1,1,0.04137,-0.01969,0.01969*
1,1,0.04137,0.01969,0.01969*
%
%ADD75ROUNDEDRECTD75*%
%ADD76C,0.00200*%
%ADD77C,0.23822*%
%ADD78C,0.06106*%
%ADD79R,0.06106X0.06106*%
%ADD80R,0.06106X0.06106*%
%ADD81C,0.27759*%
%ADD82C,0.06499*%
%ADD83R,0.06499X0.06499*%
%ADD84C,0.16735*%
%ADD85C,0.19885*%
%ADD86C,0.07287*%
%ADD87C,0.06200*%
%ADD88C,0.02562*%
%ADD89R,0.00394X0.03543*%
%ADD90R,0.03543X0.00394*%
%ADD91C,0.02956*%
D66*
X298511Y71177D02*
D03*
Y66847D02*
D03*
X289062Y71177D02*
D03*
Y66847D02*
D03*
X224410Y49642D02*
D03*
Y45311D02*
D03*
Y9878D02*
D03*
Y14209D02*
D03*
X236221Y49642D02*
D03*
Y45311D02*
D03*
Y9878D02*
D03*
Y14209D02*
D03*
X248031Y49642D02*
D03*
Y45311D02*
D03*
Y9878D02*
D03*
Y14209D02*
D03*
X259842Y49642D02*
D03*
Y45311D02*
D03*
Y9878D02*
D03*
Y14209D02*
D03*
X143701Y49642D02*
D03*
Y45311D02*
D03*
Y9878D02*
D03*
Y14209D02*
D03*
X155512Y49642D02*
D03*
Y45311D02*
D03*
Y9878D02*
D03*
Y14209D02*
D03*
X167323Y49642D02*
D03*
Y45311D02*
D03*
Y9878D02*
D03*
Y14209D02*
D03*
X179134Y49642D02*
D03*
Y45311D02*
D03*
Y9878D02*
D03*
Y14209D02*
D03*
X60827Y49642D02*
D03*
Y45311D02*
D03*
Y9878D02*
D03*
Y14209D02*
D03*
X72638Y49642D02*
D03*
Y45311D02*
D03*
Y9878D02*
D03*
Y14209D02*
D03*
X84449Y49642D02*
D03*
Y45311D02*
D03*
Y9878D02*
D03*
Y14209D02*
D03*
X96260Y49642D02*
D03*
Y45311D02*
D03*
Y9878D02*
D03*
Y14209D02*
D03*
X72775Y263681D02*
D03*
Y259350D02*
D03*
Y275492D02*
D03*
Y271161D02*
D03*
X82263Y263681D02*
D03*
Y259350D02*
D03*
Y275492D02*
D03*
Y271161D02*
D03*
X91751Y263681D02*
D03*
Y259350D02*
D03*
Y275492D02*
D03*
Y271161D02*
D03*
X101239Y263681D02*
D03*
Y259350D02*
D03*
Y275492D02*
D03*
Y271161D02*
D03*
X110728Y263681D02*
D03*
Y259350D02*
D03*
Y275492D02*
D03*
Y271161D02*
D03*
X120216Y263681D02*
D03*
Y259350D02*
D03*
Y275492D02*
D03*
Y271161D02*
D03*
X129704Y263681D02*
D03*
Y259350D02*
D03*
Y275492D02*
D03*
Y271161D02*
D03*
X139192Y263681D02*
D03*
Y259350D02*
D03*
Y275492D02*
D03*
Y271161D02*
D03*
X148680Y263681D02*
D03*
Y259350D02*
D03*
Y275492D02*
D03*
Y271161D02*
D03*
X158168Y263681D02*
D03*
Y259350D02*
D03*
Y275492D02*
D03*
Y271161D02*
D03*
X167657Y263681D02*
D03*
Y259350D02*
D03*
Y275492D02*
D03*
Y271161D02*
D03*
X177145Y263681D02*
D03*
Y259350D02*
D03*
Y275492D02*
D03*
Y271161D02*
D03*
X186633Y263681D02*
D03*
Y259350D02*
D03*
Y275492D02*
D03*
Y271161D02*
D03*
X196121Y263681D02*
D03*
Y259350D02*
D03*
Y275492D02*
D03*
Y271161D02*
D03*
X205609Y263681D02*
D03*
Y259350D02*
D03*
Y275492D02*
D03*
Y271161D02*
D03*
X215098Y263681D02*
D03*
Y259350D02*
D03*
Y275492D02*
D03*
Y271161D02*
D03*
X224586Y263681D02*
D03*
Y259350D02*
D03*
Y275492D02*
D03*
Y271161D02*
D03*
X234074Y263681D02*
D03*
Y259350D02*
D03*
Y275492D02*
D03*
Y271161D02*
D03*
X243562Y263681D02*
D03*
Y259350D02*
D03*
Y275492D02*
D03*
Y271161D02*
D03*
X253050Y263681D02*
D03*
Y259350D02*
D03*
Y275492D02*
D03*
Y271161D02*
D03*
X262539Y263681D02*
D03*
Y259350D02*
D03*
Y275492D02*
D03*
Y271161D02*
D03*
X499751Y286409D02*
D03*
Y282079D02*
D03*
X504751Y286409D02*
D03*
Y282079D02*
D03*
X509751Y286409D02*
D03*
Y282079D02*
D03*
X514751Y286409D02*
D03*
Y282079D02*
D03*
X519751Y286409D02*
D03*
Y282079D02*
D03*
X524751Y286409D02*
D03*
Y282079D02*
D03*
X529751Y286409D02*
D03*
Y282079D02*
D03*
X534751Y286409D02*
D03*
Y282079D02*
D03*
X539751Y286409D02*
D03*
Y282079D02*
D03*
X72775Y247539D02*
D03*
Y251870D02*
D03*
X82263Y247539D02*
D03*
Y251870D02*
D03*
X91751Y247539D02*
D03*
Y251870D02*
D03*
X101239Y247539D02*
D03*
Y251870D02*
D03*
X110728Y247539D02*
D03*
Y251870D02*
D03*
X120216Y247539D02*
D03*
Y251870D02*
D03*
X129704Y247539D02*
D03*
Y251870D02*
D03*
X139192Y247539D02*
D03*
Y251870D02*
D03*
X148680Y247539D02*
D03*
Y251870D02*
D03*
X158168Y247539D02*
D03*
Y251870D02*
D03*
X167657Y247539D02*
D03*
Y251870D02*
D03*
X177145Y247539D02*
D03*
Y251870D02*
D03*
X186633Y247539D02*
D03*
Y251870D02*
D03*
X196121Y247539D02*
D03*
Y251870D02*
D03*
X205609Y247539D02*
D03*
Y251870D02*
D03*
X215098Y247539D02*
D03*
Y251870D02*
D03*
X224586Y247539D02*
D03*
Y251870D02*
D03*
X234074Y247539D02*
D03*
Y251870D02*
D03*
X243562Y247539D02*
D03*
Y251870D02*
D03*
X253050Y247539D02*
D03*
Y251870D02*
D03*
D69*
X658204Y45035D02*
D03*
X653873D02*
D03*
X658204Y55035D02*
D03*
X653873D02*
D03*
X658204Y65035D02*
D03*
X653873D02*
D03*
X658204Y75035D02*
D03*
X653873D02*
D03*
X658204Y85035D02*
D03*
X653873D02*
D03*
X658204Y95035D02*
D03*
X653873D02*
D03*
X658204Y105035D02*
D03*
X653873D02*
D03*
X658204Y115035D02*
D03*
X653873D02*
D03*
X658204Y125035D02*
D03*
X653873D02*
D03*
X658204Y135035D02*
D03*
X653873D02*
D03*
X670369Y125035D02*
D03*
X666039D02*
D03*
X670369Y135035D02*
D03*
X666039D02*
D03*
X670369Y85035D02*
D03*
X666039D02*
D03*
X670369Y95035D02*
D03*
X666039D02*
D03*
X670369Y45035D02*
D03*
X666039D02*
D03*
X670369Y55035D02*
D03*
X666039D02*
D03*
X307527Y202555D02*
D03*
X311858D02*
D03*
X307527Y212555D02*
D03*
X311858D02*
D03*
X307527Y217555D02*
D03*
X311858D02*
D03*
X307527Y222555D02*
D03*
X311858D02*
D03*
X658204Y160035D02*
D03*
X653873D02*
D03*
X658204Y170035D02*
D03*
X653873D02*
D03*
X658204Y180035D02*
D03*
X653873D02*
D03*
X658204Y190035D02*
D03*
X653873D02*
D03*
X658204Y200035D02*
D03*
X653873D02*
D03*
X658204Y210035D02*
D03*
X653873D02*
D03*
X658204Y220035D02*
D03*
X653873D02*
D03*
X658204Y230035D02*
D03*
X653873D02*
D03*
X653873Y35035D02*
D03*
X658204D02*
D03*
X666039D02*
D03*
X670369D02*
D03*
X666039Y75035D02*
D03*
X670369D02*
D03*
X666039Y115035D02*
D03*
X670369D02*
D03*
X666039Y65035D02*
D03*
X670369D02*
D03*
X666039Y105035D02*
D03*
X670369D02*
D03*
X653873Y145035D02*
D03*
X658204D02*
D03*
X666039D02*
D03*
X670369D02*
D03*
X666039Y160035D02*
D03*
X670369D02*
D03*
X666039Y170035D02*
D03*
X670369D02*
D03*
X666039Y180035D02*
D03*
X670369D02*
D03*
X666039Y190035D02*
D03*
X670369D02*
D03*
X666039Y200035D02*
D03*
X670369D02*
D03*
X666039Y210035D02*
D03*
X670369D02*
D03*
X666039Y220035D02*
D03*
X670369D02*
D03*
X666039Y230035D02*
D03*
X670369D02*
D03*
X336393Y94051D02*
D03*
X340724D02*
D03*
X336393Y104051D02*
D03*
X340724D02*
D03*
X336393Y114051D02*
D03*
X340724D02*
D03*
X336393Y124051D02*
D03*
X340724D02*
D03*
X336393Y134051D02*
D03*
X340724D02*
D03*
X336393Y144051D02*
D03*
X340724D02*
D03*
X258117Y202555D02*
D03*
X262448D02*
D03*
X258117Y212555D02*
D03*
X262448D02*
D03*
X258117Y217555D02*
D03*
X262448D02*
D03*
X311858Y207555D02*
D03*
X307527D02*
D03*
X258117D02*
D03*
X262448D02*
D03*
X258117Y222555D02*
D03*
X262448D02*
D03*
D74*
X84449Y23854D02*
D03*
X72638D02*
D03*
X60827D02*
D03*
Y35654D02*
D03*
X72638D02*
D03*
X96260D02*
D03*
X84449D02*
D03*
X167323Y23854D02*
D03*
X155512D02*
D03*
X143701D02*
D03*
Y35654D02*
D03*
X155512D02*
D03*
X179134D02*
D03*
X167323D02*
D03*
X248031Y23854D02*
D03*
X236221D02*
D03*
X224410D02*
D03*
Y35654D02*
D03*
X236221D02*
D03*
X259842D02*
D03*
X248031D02*
D03*
X298440Y55075D02*
D03*
X288440D02*
D03*
X262318Y169953D02*
D03*
Y179953D02*
D03*
D75*
X96260Y23854D02*
D03*
X179134D02*
D03*
X259842D02*
D03*
D76*
X87756Y-9646D02*
D03*
X69331D02*
D03*
X170630D02*
D03*
X152205D02*
D03*
X251339D02*
D03*
X232913D02*
D03*
D77*
X332889Y14720D02*
D03*
X687220Y250941D02*
D03*
X332889D02*
D03*
X687220Y14720D02*
D03*
X0Y0D02*
D03*
X669291Y311024D02*
D03*
X15748Y311024D02*
D03*
D78*
X693204Y160035D02*
D03*
X683204D02*
D03*
X693204Y170035D02*
D03*
X683204D02*
D03*
X693204Y180035D02*
D03*
X683204D02*
D03*
X693204Y190035D02*
D03*
X683204D02*
D03*
X693204Y200035D02*
D03*
X683204D02*
D03*
X693204Y210035D02*
D03*
X683204D02*
D03*
X693204Y220035D02*
D03*
X683204D02*
D03*
X693204Y230035D02*
D03*
Y135035D02*
D03*
Y115035D02*
D03*
Y145035D02*
D03*
Y105035D02*
D03*
Y125035D02*
D03*
Y75035D02*
D03*
Y85035D02*
D03*
Y65035D02*
D03*
Y45035D02*
D03*
Y55035D02*
D03*
Y35035D02*
D03*
X683204Y135035D02*
D03*
X693204Y95035D02*
D03*
X683204Y125035D02*
D03*
Y115035D02*
D03*
Y105035D02*
D03*
Y85035D02*
D03*
Y95035D02*
D03*
Y55035D02*
D03*
Y65035D02*
D03*
Y75035D02*
D03*
Y35035D02*
D03*
Y45035D02*
D03*
X353558Y94051D02*
D03*
Y104051D02*
D03*
Y114051D02*
D03*
Y124051D02*
D03*
Y134051D02*
D03*
X298224Y102417D02*
D03*
X298125Y90508D02*
D03*
X447141Y-18350D02*
D03*
X336905Y-18350D02*
D03*
X557377Y-18350D02*
D03*
X667613D02*
D03*
D79*
X683204Y230035D02*
D03*
Y145035D02*
D03*
X353558Y144051D02*
D03*
D80*
X288224Y102417D02*
D03*
X288125Y90508D02*
D03*
X437141Y-18350D02*
D03*
X326905Y-18350D02*
D03*
X547377Y-18350D02*
D03*
X657613D02*
D03*
D81*
X342520Y311024D02*
D03*
D82*
X86716Y299630D02*
D03*
X77228D02*
D03*
X96204D02*
D03*
X105692D02*
D03*
X115180D02*
D03*
X124669D02*
D03*
X134157D02*
D03*
X143645D02*
D03*
X153133D02*
D03*
X162621D02*
D03*
X172109D02*
D03*
X181598D02*
D03*
X191086D02*
D03*
X200574D02*
D03*
X210062D02*
D03*
X219550D02*
D03*
X229039D02*
D03*
X238527D02*
D03*
X248133D02*
D03*
X257621D02*
D03*
X252897Y309630D02*
D03*
X243409D02*
D03*
X233802D02*
D03*
X224314D02*
D03*
X214826D02*
D03*
X205338D02*
D03*
X195850D02*
D03*
X186361D02*
D03*
X176873D02*
D03*
X167385D02*
D03*
X157897D02*
D03*
X148409D02*
D03*
X138920D02*
D03*
X129432D02*
D03*
X119944D02*
D03*
X110456D02*
D03*
X100968D02*
D03*
X91479D02*
D03*
X72503D02*
D03*
X81991D02*
D03*
X67739Y299630D02*
D03*
X81991Y289630D02*
D03*
X91479D02*
D03*
X100968D02*
D03*
X110456D02*
D03*
X119944D02*
D03*
X129432D02*
D03*
X138920D02*
D03*
X148409D02*
D03*
X157897D02*
D03*
X167385D02*
D03*
X176873D02*
D03*
X186361D02*
D03*
X195850D02*
D03*
X205338D02*
D03*
X214826D02*
D03*
X224314D02*
D03*
X233802D02*
D03*
X243409D02*
D03*
X252897D02*
D03*
X262385D02*
D03*
D83*
X72503D02*
D03*
D84*
X290220Y299630D02*
D03*
X40220D02*
D03*
D85*
X568858Y307063D02*
D03*
X470458D02*
D03*
D86*
X498058Y301463D02*
D03*
X508858D02*
D03*
X519658D02*
D03*
X530458D02*
D03*
X541258D02*
D03*
X503458Y312663D02*
D03*
X514258D02*
D03*
X525058D02*
D03*
X535858D02*
D03*
D87*
X353558Y84051D02*
D03*
D89*
X656039Y45035D02*
D03*
Y55035D02*
D03*
Y65035D02*
D03*
Y75035D02*
D03*
Y85035D02*
D03*
Y95035D02*
D03*
Y105035D02*
D03*
Y115035D02*
D03*
Y125035D02*
D03*
Y135035D02*
D03*
X668204Y125035D02*
D03*
Y135035D02*
D03*
Y85035D02*
D03*
Y95035D02*
D03*
Y45035D02*
D03*
Y55035D02*
D03*
X309692Y202555D02*
D03*
Y212555D02*
D03*
Y217555D02*
D03*
Y222555D02*
D03*
X656039Y160035D02*
D03*
Y170035D02*
D03*
Y180035D02*
D03*
Y190035D02*
D03*
Y200035D02*
D03*
Y210035D02*
D03*
Y220035D02*
D03*
Y230035D02*
D03*
X656039Y35035D02*
D03*
X668204D02*
D03*
Y75035D02*
D03*
Y115035D02*
D03*
Y65035D02*
D03*
Y105035D02*
D03*
X656039Y145035D02*
D03*
X668204D02*
D03*
Y160035D02*
D03*
Y170035D02*
D03*
Y180035D02*
D03*
Y190035D02*
D03*
Y200035D02*
D03*
Y210035D02*
D03*
Y220035D02*
D03*
Y230035D02*
D03*
X338558Y94051D02*
D03*
Y104051D02*
D03*
Y114051D02*
D03*
Y124051D02*
D03*
Y134051D02*
D03*
Y144051D02*
D03*
X260283Y202555D02*
D03*
Y212555D02*
D03*
Y217555D02*
D03*
X309692Y207555D02*
D03*
X260283D02*
D03*
Y222555D02*
D03*
D90*
X298511Y69012D02*
D03*
X289062D02*
D03*
X224410Y47476D02*
D03*
X224409Y12043D02*
D03*
X236221Y47476D02*
D03*
X236220Y12043D02*
D03*
X248031Y47477D02*
D03*
Y12043D02*
D03*
X259842Y47477D02*
D03*
Y12043D02*
D03*
X143701Y47477D02*
D03*
Y12043D02*
D03*
X155512Y47477D02*
D03*
Y12043D02*
D03*
X167323Y47476D02*
D03*
X167323Y12043D02*
D03*
X179134Y47476D02*
D03*
X179134Y12043D02*
D03*
X60827Y47476D02*
D03*
X60827Y12043D02*
D03*
X72638Y47476D02*
D03*
X72638Y12043D02*
D03*
X84449Y47477D02*
D03*
Y12043D02*
D03*
X96260Y47477D02*
D03*
Y12043D02*
D03*
X72775Y261516D02*
D03*
Y273327D02*
D03*
X82263Y261516D02*
D03*
Y273327D02*
D03*
X91751Y261516D02*
D03*
Y273327D02*
D03*
X101239Y261516D02*
D03*
Y273327D02*
D03*
X110728Y261516D02*
D03*
Y273327D02*
D03*
X120216Y261516D02*
D03*
Y273327D02*
D03*
X129704Y261516D02*
D03*
Y273327D02*
D03*
X139192Y261516D02*
D03*
Y273327D02*
D03*
X148680Y261516D02*
D03*
Y273327D02*
D03*
X158168Y261516D02*
D03*
Y273327D02*
D03*
X167657Y261516D02*
D03*
Y273327D02*
D03*
X177145Y261516D02*
D03*
Y273327D02*
D03*
X186633Y261516D02*
D03*
Y273327D02*
D03*
X196121Y261516D02*
D03*
Y273327D02*
D03*
X205609Y261516D02*
D03*
Y273327D02*
D03*
X215098Y261516D02*
D03*
Y273327D02*
D03*
X224586Y261516D02*
D03*
Y273327D02*
D03*
X234074Y261516D02*
D03*
Y273327D02*
D03*
X243562Y261516D02*
D03*
Y273327D02*
D03*
X253050Y261516D02*
D03*
Y273327D02*
D03*
X262539Y261516D02*
D03*
Y273327D02*
D03*
X499751Y284244D02*
D03*
X504751D02*
D03*
X509751D02*
D03*
X514751D02*
D03*
X519751D02*
D03*
X524751D02*
D03*
X529751D02*
D03*
X534751D02*
D03*
X539751D02*
D03*
X72775Y249705D02*
D03*
X82263D02*
D03*
X91751D02*
D03*
X101239D02*
D03*
X110727D02*
D03*
X120216D02*
D03*
X129704D02*
D03*
X139192D02*
D03*
X148680D02*
D03*
X158168D02*
D03*
X167657D02*
D03*
X177145D02*
D03*
X186633D02*
D03*
X196121D02*
D03*
X205609D02*
D03*
X215097D02*
D03*
X224586D02*
D03*
X234074D02*
D03*
X243562D02*
D03*
X253050D02*
D03*
D91*
X208071Y194095D02*
D03*
X158071D02*
D03*
X106890D02*
D03*
X56102Y193701D02*
D03*
X6102Y194095D02*
D03*
M02*
