%FSLAX25Y25*%
%MOIN*%
G70*
G01*
G75*
G04 Layer_Color=8388736*
%ADD10R,0.02756X0.03150*%
%ADD11R,0.11000X0.02900*%
%ADD12O,0.08661X0.02362*%
%ADD13R,0.03150X0.02756*%
%ADD14R,0.05906X0.02362*%
%ADD15R,0.05118X0.03150*%
%ADD16R,0.12598X0.07874*%
%ADD17O,0.06890X0.01181*%
%ADD18C,0.01181*%
%ADD19C,0.01000*%
%ADD20C,0.01800*%
%ADD21C,0.02000*%
%ADD22C,0.03000*%
%ADD23C,0.07874*%
G04:AMPARAMS|DCode=24|XSize=78.74mil|YSize=78.74mil|CornerRadius=19.69mil|HoleSize=0mil|Usage=FLASHONLY|Rotation=0.000|XOffset=0mil|YOffset=0mil|HoleType=Round|Shape=RoundedRectangle|*
%AMROUNDEDRECTD24*
21,1,0.07874,0.03937,0,0,0.0*
21,1,0.03937,0.07874,0,0,0.0*
1,1,0.03937,0.01969,-0.01969*
1,1,0.03937,-0.01969,-0.01969*
1,1,0.03937,-0.01969,0.01969*
1,1,0.03937,0.01969,0.01969*
%
%ADD24ROUNDEDRECTD24*%
%ADD25C,0.23622*%
%ADD26C,0.05906*%
%ADD27R,0.05906X0.05906*%
%ADD28R,0.05906X0.05906*%
%ADD29C,0.27559*%
%ADD30C,0.06299*%
%ADD31R,0.06299X0.06299*%
%ADD32C,0.16535*%
%ADD33C,0.19685*%
%ADD34C,0.07087*%
%ADD35C,0.06000*%
%ADD36C,0.02756*%
%ADD37C,0.02362*%
%ADD38C,0.03937*%
%ADD39C,0.01969*%
%ADD40C,0.04000*%
%ADD41C,0.04000*%
%ADD42C,0.00787*%
%ADD43C,0.07937*%
%ADD44C,0.15811*%
%ADD45C,0.08331*%
%ADD46C,0.16598*%
%ADD47C,0.07543*%
G04:AMPARAMS|DCode=48|XSize=95.433mil|YSize=95.433mil|CornerRadius=0mil|HoleSize=0mil|Usage=FLASHONLY|Rotation=0.000|XOffset=0mil|YOffset=0mil|HoleType=Round|Shape=Relief|Width=10mil|Gap=10mil|Entries=4|*
%AMTHD48*
7,0,0,0.09543,0.07543,0.01000,45*
%
%ADD48THD48*%
%ADD49C,0.16205*%
%ADD50C,0.17779*%
%ADD51C,0.08685*%
%ADD52C,0.16520*%
%ADD53C,0.07000*%
%ADD54C,0.05181*%
G04:AMPARAMS|DCode=55|XSize=71.811mil|YSize=71.811mil|CornerRadius=0mil|HoleSize=0mil|Usage=FLASHONLY|Rotation=0.000|XOffset=0mil|YOffset=0mil|HoleType=Round|Shape=Relief|Width=10mil|Gap=10mil|Entries=4|*
%AMTHD55*
7,0,0,0.07181,0.05181,0.01000,45*
%
%ADD55THD55*%
%ADD56C,0.05969*%
G04:AMPARAMS|DCode=57|XSize=79.685mil|YSize=79.685mil|CornerRadius=0mil|HoleSize=0mil|Usage=FLASHONLY|Rotation=0.000|XOffset=0mil|YOffset=0mil|HoleType=Round|Shape=Relief|Width=10mil|Gap=10mil|Entries=4|*
%AMTHD57*
7,0,0,0.07969,0.05969,0.01000,45*
%
%ADD57THD57*%
%ADD58C,0.01772*%
%ADD59C,0.00984*%
%ADD60C,0.02362*%
%ADD61C,0.01575*%
%ADD62C,0.00394*%
%ADD63C,0.00750*%
%ADD64C,0.00500*%
%ADD65R,0.05800X0.12500*%
%ADD66R,0.02956X0.03350*%
%ADD67R,0.11200X0.03100*%
%ADD68O,0.08861X0.02562*%
%ADD69R,0.03350X0.02956*%
%ADD70R,0.06106X0.02562*%
%ADD71R,0.05318X0.03350*%
%ADD72R,0.12798X0.08074*%
%ADD73O,0.07090X0.01381*%
%ADD74C,0.08074*%
G04:AMPARAMS|DCode=75|XSize=80.74mil|YSize=80.74mil|CornerRadius=20.69mil|HoleSize=0mil|Usage=FLASHONLY|Rotation=0.000|XOffset=0mil|YOffset=0mil|HoleType=Round|Shape=RoundedRectangle|*
%AMROUNDEDRECTD75*
21,1,0.08074,0.03937,0,0,0.0*
21,1,0.03937,0.08074,0,0,0.0*
1,1,0.04137,0.01969,-0.01969*
1,1,0.04137,-0.01969,-0.01969*
1,1,0.04137,-0.01969,0.01969*
1,1,0.04137,0.01969,0.01969*
%
%ADD75ROUNDEDRECTD75*%
%ADD76C,0.00200*%
%ADD77C,0.23822*%
%ADD78C,0.06106*%
%ADD79R,0.06106X0.06106*%
%ADD80R,0.06106X0.06106*%
%ADD81C,0.27759*%
%ADD82C,0.06499*%
%ADD83R,0.06499X0.06499*%
%ADD84C,0.16735*%
%ADD85C,0.19885*%
%ADD86C,0.07287*%
%ADD87C,0.06200*%
%ADD88C,0.02562*%
D65*
X533598Y44691D02*
D03*
X545409Y44688D02*
D03*
D66*
X289370Y28740D02*
D03*
Y24409D02*
D03*
X296260Y24409D02*
D03*
Y28740D02*
D03*
X484385Y52713D02*
D03*
Y48382D02*
D03*
X515881Y23185D02*
D03*
Y18854D02*
D03*
X278972Y158370D02*
D03*
Y154039D02*
D03*
X286846Y154039D02*
D03*
Y158370D02*
D03*
X294720Y158370D02*
D03*
Y154039D02*
D03*
X63125Y87752D02*
D03*
Y92083D02*
D03*
X55251Y92083D02*
D03*
Y87752D02*
D03*
X47377Y87752D02*
D03*
Y92083D02*
D03*
X214861Y132760D02*
D03*
Y137091D02*
D03*
X206987Y137091D02*
D03*
Y132760D02*
D03*
X199113Y132760D02*
D03*
Y137091D02*
D03*
X215094Y87949D02*
D03*
Y92279D02*
D03*
X207220Y92279D02*
D03*
Y87949D02*
D03*
X199346Y87949D02*
D03*
Y92279D02*
D03*
X214861Y177248D02*
D03*
Y181579D02*
D03*
X206987Y181579D02*
D03*
Y177248D02*
D03*
X199113Y177248D02*
D03*
Y181579D02*
D03*
X12893Y87819D02*
D03*
Y92150D02*
D03*
X5019Y92150D02*
D03*
Y87819D02*
D03*
X-2855Y87819D02*
D03*
Y92150D02*
D03*
X12893Y132819D02*
D03*
Y137150D02*
D03*
X5019Y137150D02*
D03*
Y132819D02*
D03*
X-2855Y132819D02*
D03*
Y137150D02*
D03*
X12731Y177122D02*
D03*
Y181453D02*
D03*
X4857Y181453D02*
D03*
Y177122D02*
D03*
X-3017Y177122D02*
D03*
Y181453D02*
D03*
X63125Y177122D02*
D03*
Y181453D02*
D03*
X55251Y181453D02*
D03*
Y177122D02*
D03*
X47377Y177122D02*
D03*
Y181453D02*
D03*
X163913Y132634D02*
D03*
Y136965D02*
D03*
X156039Y136965D02*
D03*
Y132634D02*
D03*
X148165Y132634D02*
D03*
Y136965D02*
D03*
X164074Y87878D02*
D03*
Y92209D02*
D03*
X156200Y92209D02*
D03*
Y87878D02*
D03*
X148326Y87878D02*
D03*
Y92209D02*
D03*
X113287Y87484D02*
D03*
Y91815D02*
D03*
X105413Y91815D02*
D03*
Y87484D02*
D03*
X97539Y87484D02*
D03*
Y91815D02*
D03*
X164074Y177248D02*
D03*
Y181579D02*
D03*
X156200Y181579D02*
D03*
Y177248D02*
D03*
X148326Y177248D02*
D03*
Y181579D02*
D03*
X113680Y177248D02*
D03*
Y181579D02*
D03*
X105806Y181579D02*
D03*
Y177248D02*
D03*
X97932Y177248D02*
D03*
Y181579D02*
D03*
X113287Y132366D02*
D03*
Y136697D02*
D03*
X105413Y136697D02*
D03*
Y132366D02*
D03*
X97539Y132366D02*
D03*
Y136697D02*
D03*
X63287Y132366D02*
D03*
Y136697D02*
D03*
X55413Y136697D02*
D03*
Y132366D02*
D03*
X47539Y132366D02*
D03*
Y136697D02*
D03*
X279523Y176866D02*
D03*
Y172535D02*
D03*
D67*
X277251Y222555D02*
D03*
X293251D02*
D03*
Y217555D02*
D03*
X277251D02*
D03*
X293251Y212555D02*
D03*
X277251D02*
D03*
X293251Y207555D02*
D03*
X277251D02*
D03*
X293251Y202555D02*
D03*
X277251D02*
D03*
D68*
X472180Y37142D02*
D03*
Y42142D02*
D03*
Y47142D02*
D03*
Y52142D02*
D03*
X453283Y37142D02*
D03*
Y42142D02*
D03*
Y47142D02*
D03*
Y52142D02*
D03*
X496590D02*
D03*
Y47142D02*
D03*
Y42142D02*
D03*
Y37142D02*
D03*
X515487Y52142D02*
D03*
Y47142D02*
D03*
Y42142D02*
D03*
Y37142D02*
D03*
D69*
X503873Y60390D02*
D03*
X508204D02*
D03*
X641078Y146020D02*
D03*
X636747D02*
D03*
X641078Y134209D02*
D03*
X636747D02*
D03*
X642062Y89917D02*
D03*
X637732D02*
D03*
X642062Y101728D02*
D03*
X637732D02*
D03*
X642062Y60390D02*
D03*
X637732D02*
D03*
X642062Y50547D02*
D03*
X637732D02*
D03*
X278184Y121953D02*
D03*
X282515D02*
D03*
X278184Y129039D02*
D03*
X282515D02*
D03*
X289208Y121953D02*
D03*
X293539D02*
D03*
X289208Y129039D02*
D03*
X293539D02*
D03*
X63913Y124169D02*
D03*
X59582D02*
D03*
X63913Y117083D02*
D03*
X59582D02*
D03*
X52889Y124169D02*
D03*
X48558D02*
D03*
X52889Y117083D02*
D03*
X48558D02*
D03*
X215649Y169177D02*
D03*
X211318D02*
D03*
X215649Y162091D02*
D03*
X211318D02*
D03*
X204625Y169177D02*
D03*
X200294D02*
D03*
X204625Y162091D02*
D03*
X200294D02*
D03*
X215881Y124366D02*
D03*
X211550D02*
D03*
X215881Y117280D02*
D03*
X211550D02*
D03*
X204857Y124366D02*
D03*
X200527D02*
D03*
X204857Y117280D02*
D03*
X200527D02*
D03*
X215649Y213665D02*
D03*
X211318D02*
D03*
X215649Y206579D02*
D03*
X211318D02*
D03*
X204625Y213665D02*
D03*
X200294D02*
D03*
X204625Y206579D02*
D03*
X200294D02*
D03*
X13680Y124236D02*
D03*
X9350D02*
D03*
X13680Y117150D02*
D03*
X9350D02*
D03*
X2657Y124236D02*
D03*
X-1674D02*
D03*
X2657Y117150D02*
D03*
X-1674D02*
D03*
X13680Y169236D02*
D03*
X9350D02*
D03*
X13680Y162150D02*
D03*
X9350D02*
D03*
X2657Y169236D02*
D03*
X-1674D02*
D03*
X2657Y162150D02*
D03*
X-1674D02*
D03*
X13519Y213539D02*
D03*
X9188D02*
D03*
X13519Y206453D02*
D03*
X9188D02*
D03*
X2495Y213539D02*
D03*
X-1835D02*
D03*
X2495Y206453D02*
D03*
X-1835D02*
D03*
X63913Y213539D02*
D03*
X59582D02*
D03*
X63913Y206453D02*
D03*
X59582D02*
D03*
X52889Y213539D02*
D03*
X48558D02*
D03*
X52889Y206453D02*
D03*
X48558D02*
D03*
X164700Y169051D02*
D03*
X160369D02*
D03*
X164700Y161965D02*
D03*
X160369D02*
D03*
X153676Y169051D02*
D03*
X149346D02*
D03*
X153676Y161965D02*
D03*
X149346D02*
D03*
X164861Y124295D02*
D03*
X160531D02*
D03*
X164861Y117209D02*
D03*
X160531D02*
D03*
X153838Y124295D02*
D03*
X149507D02*
D03*
X153838Y117209D02*
D03*
X149507D02*
D03*
X114074Y123902D02*
D03*
X109743D02*
D03*
X114074Y116815D02*
D03*
X109743D02*
D03*
X103050Y123902D02*
D03*
X98720D02*
D03*
X103050Y116815D02*
D03*
X98720D02*
D03*
X164861Y213665D02*
D03*
X160531D02*
D03*
X164861Y206579D02*
D03*
X160531D02*
D03*
X153838Y213665D02*
D03*
X149507D02*
D03*
X153838Y206579D02*
D03*
X149507D02*
D03*
X114468Y213665D02*
D03*
X110137D02*
D03*
X114468Y206579D02*
D03*
X110137D02*
D03*
X103444Y213665D02*
D03*
X99113D02*
D03*
X103444Y206579D02*
D03*
X99113D02*
D03*
X114074Y168783D02*
D03*
X109743D02*
D03*
X114074Y161697D02*
D03*
X109743D02*
D03*
X103050Y168783D02*
D03*
X98720D02*
D03*
X103050Y161697D02*
D03*
X98720D02*
D03*
X64074Y168783D02*
D03*
X59743D02*
D03*
X64074Y161697D02*
D03*
X59743D02*
D03*
X53050Y168783D02*
D03*
X48720D02*
D03*
X53050Y161697D02*
D03*
X48720D02*
D03*
D70*
X498558Y24524D02*
D03*
Y17516D02*
D03*
X505845Y21020D02*
D03*
D71*
X533598Y49007D02*
D03*
Y44676D02*
D03*
Y40346D02*
D03*
X545409Y49007D02*
D03*
Y44676D02*
D03*
Y40346D02*
D03*
D72*
X262436Y127661D02*
D03*
Y153252D02*
D03*
X79661Y118461D02*
D03*
Y92870D02*
D03*
X231397Y163469D02*
D03*
Y137878D02*
D03*
X231629Y118658D02*
D03*
Y93067D02*
D03*
X231397Y207957D02*
D03*
Y182366D02*
D03*
X29428Y118527D02*
D03*
Y92937D02*
D03*
Y163528D02*
D03*
Y137937D02*
D03*
X29267Y207831D02*
D03*
Y182240D02*
D03*
X79661Y207831D02*
D03*
Y182240D02*
D03*
X180448Y163342D02*
D03*
Y137752D02*
D03*
X180610Y118587D02*
D03*
Y92996D02*
D03*
X129822Y118193D02*
D03*
Y92602D02*
D03*
X180610Y207957D02*
D03*
Y182366D02*
D03*
X130216Y207957D02*
D03*
Y182366D02*
D03*
X129822Y163075D02*
D03*
Y137484D02*
D03*
X79822Y163075D02*
D03*
Y137484D02*
D03*
D73*
X278775Y144394D02*
D03*
Y142425D02*
D03*
Y140457D02*
D03*
Y138488D02*
D03*
Y136520D02*
D03*
X294917Y144394D02*
D03*
Y142425D02*
D03*
Y140457D02*
D03*
Y138488D02*
D03*
Y136520D02*
D03*
X63322Y101728D02*
D03*
Y103697D02*
D03*
Y105665D02*
D03*
Y107634D02*
D03*
Y109602D02*
D03*
X47180Y101728D02*
D03*
Y103697D02*
D03*
Y105665D02*
D03*
Y107634D02*
D03*
Y109602D02*
D03*
X215058Y146736D02*
D03*
Y148705D02*
D03*
Y150673D02*
D03*
Y152642D02*
D03*
Y154610D02*
D03*
X198917Y146736D02*
D03*
Y148705D02*
D03*
Y150673D02*
D03*
Y152642D02*
D03*
Y154610D02*
D03*
X215291Y101925D02*
D03*
Y103894D02*
D03*
Y105862D02*
D03*
Y107831D02*
D03*
Y109799D02*
D03*
X199149Y101925D02*
D03*
Y103894D02*
D03*
Y105862D02*
D03*
Y107831D02*
D03*
Y109799D02*
D03*
X215058Y191224D02*
D03*
Y193193D02*
D03*
Y195161D02*
D03*
Y197130D02*
D03*
Y199098D02*
D03*
X198917Y191224D02*
D03*
Y193193D02*
D03*
Y195161D02*
D03*
Y197130D02*
D03*
Y199098D02*
D03*
X13090Y101795D02*
D03*
Y103764D02*
D03*
Y105732D02*
D03*
Y107701D02*
D03*
Y109669D02*
D03*
X-3052Y101795D02*
D03*
Y103764D02*
D03*
Y105732D02*
D03*
Y107701D02*
D03*
Y109669D02*
D03*
X13090Y146795D02*
D03*
Y148764D02*
D03*
Y150732D02*
D03*
Y152701D02*
D03*
Y154669D02*
D03*
X-3052Y146795D02*
D03*
Y148764D02*
D03*
Y150732D02*
D03*
Y152701D02*
D03*
Y154669D02*
D03*
X12928Y191098D02*
D03*
Y193067D02*
D03*
Y195035D02*
D03*
Y197004D02*
D03*
Y198972D02*
D03*
X-3213Y191098D02*
D03*
Y193067D02*
D03*
Y195035D02*
D03*
Y197004D02*
D03*
Y198972D02*
D03*
X63322Y191098D02*
D03*
Y193067D02*
D03*
Y195035D02*
D03*
Y197004D02*
D03*
Y198972D02*
D03*
X47180Y191098D02*
D03*
Y193067D02*
D03*
Y195035D02*
D03*
Y197004D02*
D03*
Y198972D02*
D03*
X164110Y146610D02*
D03*
Y148579D02*
D03*
Y150547D02*
D03*
Y152516D02*
D03*
Y154484D02*
D03*
X147968Y146610D02*
D03*
Y148579D02*
D03*
Y150547D02*
D03*
Y152516D02*
D03*
Y154484D02*
D03*
X164271Y101854D02*
D03*
Y103823D02*
D03*
Y105791D02*
D03*
Y107760D02*
D03*
Y109728D02*
D03*
X148129Y101854D02*
D03*
Y103823D02*
D03*
Y105791D02*
D03*
Y107760D02*
D03*
Y109728D02*
D03*
X113484Y101461D02*
D03*
Y103429D02*
D03*
Y105398D02*
D03*
Y107366D02*
D03*
Y109335D02*
D03*
X97342Y101461D02*
D03*
Y103429D02*
D03*
Y105398D02*
D03*
Y107366D02*
D03*
Y109335D02*
D03*
X164271Y191224D02*
D03*
Y193193D02*
D03*
Y195161D02*
D03*
Y197130D02*
D03*
Y199098D02*
D03*
X148129Y191224D02*
D03*
Y193193D02*
D03*
Y195161D02*
D03*
Y197130D02*
D03*
Y199098D02*
D03*
X113877Y191224D02*
D03*
Y193193D02*
D03*
Y195161D02*
D03*
Y197130D02*
D03*
Y199098D02*
D03*
X97736Y191224D02*
D03*
Y193193D02*
D03*
Y195161D02*
D03*
Y197130D02*
D03*
Y199098D02*
D03*
X113484Y146343D02*
D03*
Y148311D02*
D03*
Y150279D02*
D03*
Y152248D02*
D03*
Y154217D02*
D03*
X97342Y146343D02*
D03*
Y148311D02*
D03*
Y150279D02*
D03*
Y152248D02*
D03*
Y154217D02*
D03*
X63484Y146343D02*
D03*
Y148311D02*
D03*
Y150279D02*
D03*
Y152248D02*
D03*
Y154217D02*
D03*
X47342Y146343D02*
D03*
Y148311D02*
D03*
Y150279D02*
D03*
Y152248D02*
D03*
Y154217D02*
D03*
D74*
X84449Y23854D02*
D03*
X72638D02*
D03*
X60827D02*
D03*
Y35654D02*
D03*
X72638D02*
D03*
X96260D02*
D03*
X84449D02*
D03*
X167323Y23854D02*
D03*
X155512D02*
D03*
X143701D02*
D03*
Y35654D02*
D03*
X155512D02*
D03*
X179134D02*
D03*
X167323D02*
D03*
X248031Y23854D02*
D03*
X236221D02*
D03*
X224410D02*
D03*
Y35654D02*
D03*
X236221D02*
D03*
X259842D02*
D03*
X248031D02*
D03*
X298440Y55075D02*
D03*
X288440D02*
D03*
X262318Y169953D02*
D03*
Y179953D02*
D03*
D75*
X96260Y23854D02*
D03*
X179134D02*
D03*
X259842D02*
D03*
D76*
X87756Y-9646D02*
D03*
X69331D02*
D03*
X170630D02*
D03*
X152205D02*
D03*
X251339D02*
D03*
X232913D02*
D03*
D77*
X332889Y14720D02*
D03*
X687220Y250941D02*
D03*
X332889D02*
D03*
X687220Y14720D02*
D03*
X0Y0D02*
D03*
X669291Y311024D02*
D03*
X15748Y311024D02*
D03*
D78*
X693204Y160035D02*
D03*
X683204D02*
D03*
X693204Y170035D02*
D03*
X683204D02*
D03*
X693204Y180035D02*
D03*
X683204D02*
D03*
X693204Y190035D02*
D03*
X683204D02*
D03*
X693204Y200035D02*
D03*
X683204D02*
D03*
X693204Y210035D02*
D03*
X683204D02*
D03*
X693204Y220035D02*
D03*
X683204D02*
D03*
X693204Y230035D02*
D03*
Y135035D02*
D03*
Y115035D02*
D03*
Y145035D02*
D03*
Y105035D02*
D03*
Y125035D02*
D03*
Y75035D02*
D03*
Y85035D02*
D03*
Y65035D02*
D03*
Y45035D02*
D03*
Y55035D02*
D03*
Y35035D02*
D03*
X683204Y135035D02*
D03*
X693204Y95035D02*
D03*
X683204Y125035D02*
D03*
Y115035D02*
D03*
Y105035D02*
D03*
Y85035D02*
D03*
Y95035D02*
D03*
Y55035D02*
D03*
Y65035D02*
D03*
Y75035D02*
D03*
Y35035D02*
D03*
Y45035D02*
D03*
X353558Y94051D02*
D03*
Y104051D02*
D03*
Y114051D02*
D03*
Y124051D02*
D03*
Y134051D02*
D03*
X298224Y102417D02*
D03*
X298125Y90508D02*
D03*
X447141Y-18350D02*
D03*
X336905Y-18350D02*
D03*
X557377Y-18350D02*
D03*
X667613D02*
D03*
D79*
X683204Y230035D02*
D03*
Y145035D02*
D03*
X353558Y144051D02*
D03*
D80*
X288224Y102417D02*
D03*
X288125Y90508D02*
D03*
X437141Y-18350D02*
D03*
X326905Y-18350D02*
D03*
X547377Y-18350D02*
D03*
X657613D02*
D03*
D81*
X342520Y311024D02*
D03*
D82*
X86716Y299630D02*
D03*
X77228D02*
D03*
X96204D02*
D03*
X105692D02*
D03*
X115180D02*
D03*
X124669D02*
D03*
X134157D02*
D03*
X143645D02*
D03*
X153133D02*
D03*
X162621D02*
D03*
X172109D02*
D03*
X181598D02*
D03*
X191086D02*
D03*
X200574D02*
D03*
X210062D02*
D03*
X219550D02*
D03*
X229039D02*
D03*
X238527D02*
D03*
X248133D02*
D03*
X257621D02*
D03*
X252897Y309630D02*
D03*
X243409D02*
D03*
X233802D02*
D03*
X224314D02*
D03*
X214826D02*
D03*
X205338D02*
D03*
X195850D02*
D03*
X186361D02*
D03*
X176873D02*
D03*
X167385D02*
D03*
X157897D02*
D03*
X148409D02*
D03*
X138920D02*
D03*
X129432D02*
D03*
X119944D02*
D03*
X110456D02*
D03*
X100968D02*
D03*
X91479D02*
D03*
X72503D02*
D03*
X81991D02*
D03*
X67739Y299630D02*
D03*
X81991Y289630D02*
D03*
X91479D02*
D03*
X100968D02*
D03*
X110456D02*
D03*
X119944D02*
D03*
X129432D02*
D03*
X138920D02*
D03*
X148409D02*
D03*
X157897D02*
D03*
X167385D02*
D03*
X176873D02*
D03*
X186361D02*
D03*
X195850D02*
D03*
X205338D02*
D03*
X214826D02*
D03*
X224314D02*
D03*
X233802D02*
D03*
X243409D02*
D03*
X252897D02*
D03*
X262385D02*
D03*
D83*
X72503D02*
D03*
D84*
X290220Y299630D02*
D03*
X40220D02*
D03*
D85*
X568858Y307063D02*
D03*
X470458D02*
D03*
D86*
X498058Y301463D02*
D03*
X508858D02*
D03*
X519658D02*
D03*
X530458D02*
D03*
X541258D02*
D03*
X503458Y312663D02*
D03*
X514258D02*
D03*
X525058D02*
D03*
X535858D02*
D03*
D87*
X353558Y84051D02*
D03*
D88*
X334646Y84646D02*
D03*
X289370Y19685D02*
D03*
X275590Y28543D02*
D03*
X165487Y259208D02*
D03*
X143834Y252516D02*
D03*
X52486Y200153D02*
D03*
X43279Y201102D02*
D03*
X153435Y110909D02*
D03*
X144228Y111858D02*
D03*
X153273Y155665D02*
D03*
X144066Y156614D02*
D03*
X153435Y200279D02*
D03*
X144228Y201228D02*
D03*
X204222Y155791D02*
D03*
X195015Y156739D02*
D03*
X204222Y200279D02*
D03*
X195015Y201228D02*
D03*
X93440Y111464D02*
D03*
X102647Y110516D02*
D03*
X514700Y276925D02*
D03*
M02*
