%FSLAX25Y25*%
%MOIN*%
G70*
G01*
G75*
G04 Layer_Color=49087*
%ADD10R,0.02756X0.03150*%
%ADD11R,0.11000X0.02900*%
%ADD12O,0.08661X0.02362*%
%ADD13R,0.03150X0.02756*%
%ADD14R,0.05906X0.02362*%
%ADD15R,0.05118X0.03150*%
%ADD16R,0.12598X0.07874*%
%ADD17O,0.06890X0.01181*%
%ADD18C,0.01181*%
%ADD19C,0.01000*%
%ADD20C,0.01800*%
%ADD21C,0.02000*%
%ADD22C,0.03000*%
%ADD23C,0.07874*%
G04:AMPARAMS|DCode=24|XSize=78.74mil|YSize=78.74mil|CornerRadius=19.69mil|HoleSize=0mil|Usage=FLASHONLY|Rotation=0.000|XOffset=0mil|YOffset=0mil|HoleType=Round|Shape=RoundedRectangle|*
%AMROUNDEDRECTD24*
21,1,0.07874,0.03937,0,0,0.0*
21,1,0.03937,0.07874,0,0,0.0*
1,1,0.03937,0.01969,-0.01969*
1,1,0.03937,-0.01969,-0.01969*
1,1,0.03937,-0.01969,0.01969*
1,1,0.03937,0.01969,0.01969*
%
%ADD24ROUNDEDRECTD24*%
%ADD25C,0.23622*%
%ADD26C,0.05906*%
%ADD27R,0.05906X0.05906*%
%ADD28R,0.05906X0.05906*%
%ADD29C,0.27559*%
%ADD30C,0.06299*%
%ADD31R,0.06299X0.06299*%
%ADD32C,0.16535*%
%ADD33C,0.19685*%
%ADD34C,0.07087*%
%ADD35C,0.06000*%
%ADD36C,0.02756*%
%ADD37C,0.02362*%
%ADD38C,0.03937*%
%ADD39C,0.01969*%
%ADD40C,0.04000*%
%ADD41C,0.04000*%
%ADD42C,0.00787*%
%ADD43C,0.07937*%
%ADD44C,0.15811*%
%ADD45C,0.08331*%
%ADD46C,0.16598*%
%ADD47C,0.07543*%
G04:AMPARAMS|DCode=48|XSize=95.433mil|YSize=95.433mil|CornerRadius=0mil|HoleSize=0mil|Usage=FLASHONLY|Rotation=0.000|XOffset=0mil|YOffset=0mil|HoleType=Round|Shape=Relief|Width=10mil|Gap=10mil|Entries=4|*
%AMTHD48*
7,0,0,0.09543,0.07543,0.01000,45*
%
%ADD48THD48*%
%ADD49C,0.16205*%
%ADD50C,0.17779*%
%ADD51C,0.08685*%
%ADD52C,0.16520*%
%ADD53C,0.07000*%
%ADD54C,0.05181*%
G04:AMPARAMS|DCode=55|XSize=71.811mil|YSize=71.811mil|CornerRadius=0mil|HoleSize=0mil|Usage=FLASHONLY|Rotation=0.000|XOffset=0mil|YOffset=0mil|HoleType=Round|Shape=Relief|Width=10mil|Gap=10mil|Entries=4|*
%AMTHD55*
7,0,0,0.07181,0.05181,0.01000,45*
%
%ADD55THD55*%
%ADD56C,0.05969*%
G04:AMPARAMS|DCode=57|XSize=79.685mil|YSize=79.685mil|CornerRadius=0mil|HoleSize=0mil|Usage=FLASHONLY|Rotation=0.000|XOffset=0mil|YOffset=0mil|HoleType=Round|Shape=Relief|Width=10mil|Gap=10mil|Entries=4|*
%AMTHD57*
7,0,0,0.07969,0.05969,0.01000,45*
%
%ADD57THD57*%
%ADD58C,0.01772*%
%ADD59C,0.00984*%
%ADD60C,0.02362*%
%ADD61C,0.01575*%
%ADD62C,0.00394*%
%ADD63C,0.00750*%
%ADD64C,0.00500*%
G36*
X233280Y247206D02*
X233401D01*
X233543Y247184D01*
X233696Y247162D01*
X233860Y247129D01*
X234013Y247085D01*
X234034Y247075D01*
X234078Y247064D01*
X234155Y247031D01*
X234253Y246987D01*
X234373Y246933D01*
X234483Y246878D01*
X234603Y246801D01*
X234723Y246714D01*
X234734Y246703D01*
X234767Y246670D01*
X234821Y246616D01*
X234887Y246550D01*
X234963Y246462D01*
X235040Y246364D01*
X235117Y246244D01*
X235182Y246113D01*
X235193Y246102D01*
X235215Y246047D01*
X235237Y245982D01*
X235269Y245883D01*
X235302Y245763D01*
X235335Y245621D01*
X235346Y245468D01*
X235357Y245293D01*
Y245271D01*
Y245205D01*
X235346Y245118D01*
X235335Y244998D01*
X235302Y244856D01*
X235269Y244692D01*
X235215Y244528D01*
X235138Y244364D01*
X235127Y244342D01*
X235095Y244287D01*
X235051Y244211D01*
X234985Y244102D01*
X234898Y243970D01*
X234800Y243839D01*
X234679Y243686D01*
X234548Y243533D01*
X234526Y243511D01*
X234483Y243468D01*
X234406Y243391D01*
X234297Y243293D01*
X234176Y243173D01*
X234023Y243031D01*
X233860Y242888D01*
X233674Y242746D01*
X233652Y242724D01*
X233586Y242681D01*
X233488Y242604D01*
X233346Y242506D01*
X233193Y242386D01*
X233007Y242244D01*
X232810Y242101D01*
X232592Y241948D01*
Y241927D01*
X232657D01*
X232712Y241937D01*
X232854D01*
X233029Y241948D01*
X233226Y241959D01*
X233444D01*
X233674Y241970D01*
X235860D01*
Y241074D01*
X230996D01*
Y241708D01*
X231007Y241719D01*
X231029Y241730D01*
X231062Y241763D01*
X231116Y241795D01*
X231182Y241850D01*
X231258Y241905D01*
X231433Y242036D01*
X231641Y242189D01*
X231859Y242353D01*
X232329Y242703D01*
X232340Y242713D01*
X232362Y242724D01*
X232384Y242746D01*
X232428Y242779D01*
X232548Y242877D01*
X232690Y242987D01*
X232854Y243129D01*
X233029Y243282D01*
X233204Y243435D01*
X233379Y243599D01*
X233401Y243621D01*
X233455Y243675D01*
X233532Y243752D01*
X233630Y243861D01*
X233750Y243992D01*
X233860Y244134D01*
X233980Y244276D01*
X234078Y244429D01*
X234089Y244451D01*
X234122Y244495D01*
X234166Y244583D01*
X234209Y244681D01*
X234253Y244801D01*
X234297Y244943D01*
X234330Y245085D01*
X234341Y245238D01*
Y245249D01*
Y245260D01*
Y245326D01*
X234319Y245424D01*
X234297Y245544D01*
X234253Y245687D01*
X234188Y245829D01*
X234100Y245960D01*
X233980Y246080D01*
X233969Y246091D01*
X233914Y246124D01*
X233838Y246178D01*
X233717Y246233D01*
X233575Y246277D01*
X233401Y246331D01*
X233204Y246364D01*
X232963Y246375D01*
X232876D01*
X232788Y246364D01*
X232668Y246353D01*
X232515Y246331D01*
X232362Y246309D01*
X232187Y246266D01*
X232012Y246222D01*
X231991Y246211D01*
X231936Y246200D01*
X231838Y246167D01*
X231717Y246135D01*
X231575Y246080D01*
X231422Y246014D01*
X231247Y245949D01*
X231062Y245872D01*
Y246692D01*
X231083Y246703D01*
X231127Y246725D01*
X231204Y246768D01*
X231313Y246812D01*
X231433Y246867D01*
X231586Y246933D01*
X231761Y246998D01*
X231947Y247053D01*
X231958D01*
X231969Y247064D01*
X232001D01*
X232034Y247075D01*
X232144Y247107D01*
X232286Y247140D01*
X232460Y247162D01*
X232657Y247195D01*
X232876Y247206D01*
X233105Y247217D01*
X233193D01*
X233280Y247206D01*
D02*
G37*
G36*
X247052Y241970D02*
X248692D01*
Y241074D01*
X244068D01*
Y241970D01*
X246079D01*
Y246014D01*
X243806Y245304D01*
Y246211D01*
X246211Y247053D01*
X247052D01*
Y241970D01*
D02*
G37*
G36*
X167055Y247206D02*
X167176D01*
X167318Y247184D01*
X167471Y247162D01*
X167635Y247129D01*
X167788Y247085D01*
X167810Y247075D01*
X167853Y247064D01*
X167930Y247031D01*
X168028Y246987D01*
X168148Y246933D01*
X168258Y246878D01*
X168378Y246801D01*
X168498Y246714D01*
X168509Y246703D01*
X168542Y246670D01*
X168596Y246616D01*
X168662Y246550D01*
X168739Y246462D01*
X168815Y246364D01*
X168892Y246244D01*
X168957Y246113D01*
X168968Y246102D01*
X168990Y246047D01*
X169012Y245982D01*
X169045Y245883D01*
X169078Y245763D01*
X169110Y245621D01*
X169121Y245468D01*
X169132Y245293D01*
Y245271D01*
Y245205D01*
X169121Y245118D01*
X169110Y244998D01*
X169078Y244856D01*
X169045Y244692D01*
X168990Y244528D01*
X168913Y244364D01*
X168903Y244342D01*
X168870Y244287D01*
X168826Y244211D01*
X168761Y244102D01*
X168673Y243970D01*
X168575Y243839D01*
X168454Y243686D01*
X168323Y243533D01*
X168301Y243511D01*
X168258Y243468D01*
X168181Y243391D01*
X168072Y243293D01*
X167952Y243173D01*
X167799Y243031D01*
X167635Y242888D01*
X167449Y242746D01*
X167427Y242724D01*
X167361Y242681D01*
X167263Y242604D01*
X167121Y242506D01*
X166968Y242386D01*
X166782Y242244D01*
X166585Y242101D01*
X166367Y241948D01*
Y241927D01*
X166432D01*
X166487Y241937D01*
X166629D01*
X166804Y241948D01*
X167001Y241959D01*
X167219D01*
X167449Y241970D01*
X169635D01*
Y241074D01*
X164771D01*
Y241708D01*
X164782Y241719D01*
X164804Y241730D01*
X164837Y241763D01*
X164891Y241795D01*
X164957Y241850D01*
X165033Y241905D01*
X165208Y242036D01*
X165416Y242189D01*
X165635Y242353D01*
X166104Y242703D01*
X166115Y242713D01*
X166137Y242724D01*
X166159Y242746D01*
X166203Y242779D01*
X166323Y242877D01*
X166465Y242987D01*
X166629Y243129D01*
X166804Y243282D01*
X166979Y243435D01*
X167154Y243599D01*
X167176Y243621D01*
X167230Y243675D01*
X167307Y243752D01*
X167405Y243861D01*
X167525Y243992D01*
X167635Y244134D01*
X167755Y244276D01*
X167853Y244429D01*
X167864Y244451D01*
X167897Y244495D01*
X167941Y244583D01*
X167984Y244681D01*
X168028Y244801D01*
X168072Y244943D01*
X168105Y245085D01*
X168116Y245238D01*
Y245249D01*
Y245260D01*
Y245326D01*
X168094Y245424D01*
X168072Y245544D01*
X168028Y245687D01*
X167963Y245829D01*
X167875Y245960D01*
X167755Y246080D01*
X167744Y246091D01*
X167689Y246124D01*
X167613Y246178D01*
X167493Y246233D01*
X167350Y246277D01*
X167176Y246331D01*
X166979Y246364D01*
X166738Y246375D01*
X166651D01*
X166564Y246364D01*
X166443Y246353D01*
X166290Y246331D01*
X166137Y246309D01*
X165962Y246266D01*
X165787Y246222D01*
X165766Y246211D01*
X165711Y246200D01*
X165613Y246167D01*
X165492Y246135D01*
X165350Y246080D01*
X165197Y246014D01*
X165022Y245949D01*
X164837Y245872D01*
Y246692D01*
X164858Y246703D01*
X164902Y246725D01*
X164979Y246768D01*
X165088Y246812D01*
X165208Y246867D01*
X165361Y246933D01*
X165536Y246998D01*
X165722Y247053D01*
X165733D01*
X165744Y247064D01*
X165777D01*
X165809Y247075D01*
X165919Y247107D01*
X166061Y247140D01*
X166236Y247162D01*
X166432Y247195D01*
X166651Y247206D01*
X166881Y247217D01*
X166968D01*
X167055Y247206D01*
D02*
G37*
G36*
X240155D02*
X240319Y247184D01*
X240505Y247162D01*
X240691Y247118D01*
X240898Y247053D01*
X241095Y246976D01*
X241106D01*
X241117Y246965D01*
X241183Y246933D01*
X241281Y246878D01*
X241401Y246801D01*
X241532Y246703D01*
X241674Y246594D01*
X241817Y246462D01*
X241959Y246309D01*
X241970Y246288D01*
X242013Y246233D01*
X242079Y246146D01*
X242155Y246025D01*
X242243Y245872D01*
X242330Y245708D01*
X242407Y245512D01*
X242483Y245304D01*
Y245293D01*
X242494Y245282D01*
X242505Y245249D01*
X242516Y245205D01*
X242538Y245085D01*
X242582Y244932D01*
X242615Y244746D01*
X242636Y244539D01*
X242658Y244309D01*
X242669Y244058D01*
Y244047D01*
Y244025D01*
Y243992D01*
Y243949D01*
Y243883D01*
X242658Y243817D01*
X242647Y243653D01*
X242625Y243457D01*
X242593Y243249D01*
X242549Y243031D01*
X242483Y242812D01*
Y242801D01*
X242472Y242790D01*
X242461Y242757D01*
X242451Y242713D01*
X242407Y242604D01*
X242341Y242473D01*
X242265Y242309D01*
X242177Y242145D01*
X242068Y241970D01*
X241937Y241806D01*
X241926Y241785D01*
X241871Y241741D01*
X241795Y241664D01*
X241696Y241566D01*
X241576Y241467D01*
X241423Y241358D01*
X241259Y241249D01*
X241073Y241150D01*
X241052Y241140D01*
X240986Y241118D01*
X240877Y241074D01*
X240745Y241041D01*
X240571Y240998D01*
X240374Y240954D01*
X240155Y240932D01*
X239926Y240921D01*
X239816D01*
X239685Y240932D01*
X239532Y240954D01*
X239346Y240976D01*
X239150Y241019D01*
X238942Y241074D01*
X238745Y241150D01*
X238734D01*
X238723Y241161D01*
X238658Y241194D01*
X238560Y241249D01*
X238450Y241325D01*
X238308Y241413D01*
X238166Y241533D01*
X238024Y241664D01*
X237882Y241806D01*
X237871Y241828D01*
X237827Y241883D01*
X237762Y241970D01*
X237685Y242091D01*
X237598Y242244D01*
X237510Y242407D01*
X237434Y242604D01*
X237357Y242812D01*
Y242823D01*
X237346Y242834D01*
Y242866D01*
X237335Y242910D01*
X237302Y243031D01*
X237270Y243183D01*
X237237Y243369D01*
X237215Y243577D01*
X237193Y243817D01*
X237182Y244058D01*
Y244069D01*
Y244091D01*
Y244124D01*
Y244178D01*
X237193Y244233D01*
Y244298D01*
X237204Y244473D01*
X237226Y244659D01*
X237259Y244867D01*
X237302Y245085D01*
X237357Y245304D01*
Y245315D01*
X237368Y245326D01*
X237379Y245359D01*
X237390Y245402D01*
X237434Y245512D01*
X237499Y245643D01*
X237565Y245807D01*
X237663Y245971D01*
X237772Y246146D01*
X237893Y246309D01*
X237915Y246331D01*
X237958Y246375D01*
X238035Y246462D01*
X238133Y246550D01*
X238264Y246659D01*
X238406Y246768D01*
X238570Y246878D01*
X238756Y246976D01*
X238767D01*
X238778Y246987D01*
X238811Y246998D01*
X238844Y247009D01*
X238953Y247053D01*
X239095Y247096D01*
X239270Y247140D01*
X239467Y247184D01*
X239685Y247206D01*
X239926Y247217D01*
X240035D01*
X240155Y247206D01*
D02*
G37*
G36*
X144146Y248572D02*
X141337D01*
Y241074D01*
X140310D01*
Y248572D01*
X137490D01*
Y249501D01*
X144146D01*
Y248572D01*
D02*
G37*
G36*
X157262Y238145D02*
X156300D01*
X157579Y241183D01*
X155218Y247053D01*
X156191D01*
X158049Y242353D01*
X158093D01*
X160006Y247053D01*
X160978D01*
X157262Y238145D01*
D02*
G37*
G36*
X363402Y27291D02*
X363598D01*
X363817Y27269D01*
X364068Y27258D01*
X364331Y27237D01*
X364888Y27171D01*
X365161Y27127D01*
X365435Y27073D01*
X365697Y27007D01*
X365937Y26941D01*
X366156Y26854D01*
X366342Y26756D01*
X366353Y26745D01*
X366385Y26734D01*
X366429Y26701D01*
X366484Y26657D01*
X366560Y26592D01*
X366637Y26515D01*
X366713Y26428D01*
X366801Y26329D01*
X366888Y26209D01*
X366965Y26067D01*
X367052Y25914D01*
X367118Y25750D01*
X367172Y25564D01*
X367216Y25368D01*
X367249Y25149D01*
X367260Y24908D01*
Y24897D01*
Y24854D01*
Y24799D01*
Y24723D01*
X367249Y24624D01*
Y24515D01*
X367227Y24274D01*
X367194Y24012D01*
X367150Y23761D01*
X367129Y23641D01*
X367096Y23531D01*
X367052Y23433D01*
X367008Y23346D01*
X366998Y23335D01*
X366965Y23291D01*
X366910Y23236D01*
X366833Y23160D01*
X366713Y23072D01*
X366571Y22985D01*
X366374Y22886D01*
X366265Y22843D01*
X366145Y22799D01*
X366156D01*
X366189Y22788D01*
X366232D01*
X366298Y22777D01*
X366374Y22755D01*
X366462Y22733D01*
X366659Y22690D01*
X366877Y22613D01*
X367096Y22515D01*
X367303Y22395D01*
X367402Y22329D01*
X367478Y22253D01*
X367489Y22242D01*
X367500Y22231D01*
X367522Y22198D01*
X367566Y22154D01*
X367599Y22088D01*
X367642Y22023D01*
X367697Y21936D01*
X367741Y21837D01*
X367795Y21728D01*
X367839Y21597D01*
X367883Y21455D01*
X367927Y21302D01*
X367959Y21127D01*
X367981Y20941D01*
X367992Y20744D01*
X368003Y20526D01*
Y20504D01*
Y20460D01*
Y20383D01*
X367992Y20274D01*
X367981Y20154D01*
X367959Y20001D01*
X367927Y19848D01*
X367894Y19673D01*
X367850Y19498D01*
X367795Y19312D01*
X367730Y19137D01*
X367642Y18962D01*
X367544Y18788D01*
X367435Y18624D01*
X367303Y18482D01*
X367150Y18350D01*
X367140Y18339D01*
X367107Y18329D01*
X367063Y18296D01*
X366986Y18252D01*
X366888Y18208D01*
X366768Y18154D01*
X366626Y18088D01*
X366451Y18034D01*
X366265Y17979D01*
X366047Y17913D01*
X365795Y17859D01*
X365522Y17815D01*
X365227Y17771D01*
X364888Y17749D01*
X364538Y17728D01*
X364145Y17717D01*
X352351D01*
Y27302D01*
X363238D01*
X363402Y27291D01*
D02*
G37*
G36*
X373501Y19640D02*
X382092D01*
Y17717D01*
X370145D01*
Y27302D01*
X373501D01*
Y19640D01*
D02*
G37*
G36*
X148496Y247206D02*
X148540D01*
X148606Y247195D01*
Y246266D01*
X148409D01*
X148321Y246255D01*
X148212D01*
X148103Y246244D01*
X147851Y246200D01*
X147840D01*
X147797Y246189D01*
X147731Y246178D01*
X147655Y246156D01*
X147556Y246124D01*
X147447Y246091D01*
X147228Y246003D01*
X147218Y245992D01*
X147174Y245982D01*
X147119Y245949D01*
X147054Y245916D01*
X146966Y245872D01*
X146879Y245818D01*
X146693Y245687D01*
X146682Y245675D01*
X146660Y245654D01*
X146616Y245610D01*
X146562Y245566D01*
X146496Y245501D01*
X146431Y245424D01*
X146310Y245238D01*
Y241074D01*
X145337D01*
Y247053D01*
X146081D01*
X146277Y246102D01*
X146288D01*
X146299Y246113D01*
X146321Y246146D01*
X146343Y246189D01*
X146387Y246244D01*
X146507Y246375D01*
X146649Y246528D01*
X146660Y246539D01*
X146682Y246561D01*
X146726Y246605D01*
X146791Y246648D01*
X146857Y246703D01*
X146933Y246768D01*
X147119Y246889D01*
X147130Y246900D01*
X147163Y246911D01*
X147218Y246943D01*
X147294Y246976D01*
X147381Y247020D01*
X147480Y247053D01*
X147698Y247129D01*
X147709D01*
X147753Y247140D01*
X147819Y247162D01*
X147906Y247173D01*
X148004Y247195D01*
X148114Y247206D01*
X148365Y247217D01*
X148452D01*
X148496Y247206D01*
D02*
G37*
G36*
X182500Y241074D02*
X181472D01*
Y245140D01*
Y245162D01*
Y245205D01*
Y245282D01*
Y245391D01*
Y245522D01*
Y245687D01*
X181483Y245872D01*
Y246080D01*
Y246309D01*
X181494Y246561D01*
X181505Y246823D01*
Y247107D01*
X181516Y247403D01*
X181527Y247709D01*
X181549Y248036D01*
X181560Y248364D01*
X181505D01*
Y248353D01*
X181483Y248310D01*
X181461Y248244D01*
X181428Y248146D01*
X181385Y248036D01*
X181330Y247905D01*
X181275Y247763D01*
X181221Y247599D01*
X181155Y247424D01*
X181079Y247249D01*
X180937Y246867D01*
X180773Y246473D01*
X180620Y246102D01*
X178499Y241074D01*
X178029D01*
X175909Y246102D01*
Y246113D01*
X175887Y246146D01*
X175865Y246211D01*
X175832Y246288D01*
X175788Y246375D01*
X175745Y246495D01*
X175690Y246626D01*
X175636Y246779D01*
X175570Y246933D01*
X175493Y247107D01*
X175428Y247293D01*
X175351Y247490D01*
X175187Y247916D01*
X175023Y248364D01*
X174969D01*
Y248342D01*
Y248288D01*
X174980Y248189D01*
Y248069D01*
X174991Y247916D01*
X175002Y247730D01*
X175012Y247523D01*
X175023Y247304D01*
Y247064D01*
X175034Y246801D01*
X175045Y246539D01*
X175056Y246266D01*
X175067Y245697D01*
Y245140D01*
Y241074D01*
X174040D01*
Y249501D01*
X175515D01*
X177494Y244725D01*
Y244714D01*
X177505Y244692D01*
X177526Y244637D01*
X177559Y244583D01*
X177592Y244495D01*
X177625Y244408D01*
X177668Y244298D01*
X177723Y244167D01*
X177778Y244036D01*
X177832Y243883D01*
X177898Y243719D01*
X177964Y243544D01*
X178095Y243173D01*
X178248Y242757D01*
X178280D01*
Y242768D01*
X178302Y242812D01*
X178324Y242877D01*
X178357Y242965D01*
X178390Y243074D01*
X178434Y243194D01*
X178488Y243337D01*
X178543Y243479D01*
X178663Y243796D01*
X178783Y244124D01*
X178914Y244440D01*
X178980Y244594D01*
X179035Y244725D01*
X181013Y249501D01*
X182500D01*
Y241074D01*
D02*
G37*
G36*
X151819Y247206D02*
X151906Y247195D01*
X152114Y247173D01*
X152344Y247140D01*
X152595Y247075D01*
X152836Y246998D01*
X153065Y246889D01*
X153076D01*
X153087Y246878D01*
X153163Y246834D01*
X153262Y246758D01*
X153382Y246659D01*
X153524Y246539D01*
X153655Y246397D01*
X153786Y246222D01*
X153896Y246036D01*
Y246025D01*
X153918Y246003D01*
X153928Y245960D01*
X153950Y245905D01*
X153972Y245840D01*
X153994Y245763D01*
X154038Y245588D01*
Y245577D01*
X154049Y245544D01*
Y245501D01*
X154060Y245435D01*
X154071Y245359D01*
Y245271D01*
X154081Y245063D01*
Y241074D01*
X153262D01*
X153152Y241730D01*
X153131D01*
Y241719D01*
X153109Y241708D01*
X153043Y241631D01*
X152956Y241533D01*
X152824Y241424D01*
X152814Y241413D01*
X152792Y241402D01*
X152748Y241369D01*
X152704Y241336D01*
X152639Y241303D01*
X152562Y241260D01*
X152398Y241172D01*
X152387D01*
X152355Y241150D01*
X152311Y241140D01*
X152245Y241107D01*
X152169Y241085D01*
X152081Y241052D01*
X151885Y240998D01*
X151874D01*
X151841Y240987D01*
X151775Y240976D01*
X151699Y240965D01*
X151611Y240943D01*
X151513Y240932D01*
X151283Y240921D01*
X151207D01*
X151130Y240932D01*
X151021Y240943D01*
X150901Y240954D01*
X150759Y240976D01*
X150628Y241008D01*
X150486Y241052D01*
X150475Y241063D01*
X150431Y241074D01*
X150354Y241107D01*
X150278Y241140D01*
X150180Y241194D01*
X150070Y241260D01*
X149961Y241336D01*
X149863Y241424D01*
X149852Y241435D01*
X149819Y241467D01*
X149775Y241522D01*
X149709Y241599D01*
X149644Y241686D01*
X149578Y241785D01*
X149513Y241894D01*
X149458Y242025D01*
X149447Y242047D01*
X149436Y242091D01*
X149414Y242167D01*
X149392Y242265D01*
X149360Y242386D01*
X149338Y242528D01*
X149327Y242681D01*
X149316Y242845D01*
Y242866D01*
Y242921D01*
X149327Y243009D01*
X149338Y243118D01*
X149349Y243238D01*
X149382Y243369D01*
X149414Y243511D01*
X149469Y243642D01*
X149480Y243653D01*
X149502Y243697D01*
X149535Y243763D01*
X149589Y243850D01*
X149655Y243938D01*
X149731Y244036D01*
X149819Y244134D01*
X149917Y244233D01*
X149928Y244244D01*
X149972Y244276D01*
X150037Y244320D01*
X150114Y244375D01*
X150223Y244440D01*
X150332Y244506D01*
X150475Y244561D01*
X150617Y244615D01*
X150639Y244626D01*
X150693Y244637D01*
X150770Y244659D01*
X150879Y244692D01*
X151010Y244714D01*
X151163Y244736D01*
X151338Y244746D01*
X151513Y244757D01*
X151590D01*
X151688Y244746D01*
X151797D01*
X151928Y244736D01*
X152081Y244714D01*
X152376Y244670D01*
X152398D01*
X152442Y244659D01*
X152518Y244637D01*
X152617Y244615D01*
X152715Y244594D01*
X152836Y244561D01*
X153076Y244484D01*
X153109D01*
Y244900D01*
Y244910D01*
Y244943D01*
Y244987D01*
Y245042D01*
X153098Y245184D01*
X153076Y245326D01*
Y245337D01*
X153065Y245359D01*
Y245391D01*
X153054Y245446D01*
X153021Y245555D01*
X152967Y245665D01*
X152956Y245675D01*
X152934Y245719D01*
X152901Y245774D01*
X152836Y245840D01*
X152770Y245916D01*
X152672Y245992D01*
X152573Y246080D01*
X152442Y246156D01*
X152431Y246167D01*
X152376Y246189D01*
X152300Y246222D01*
X152191Y246266D01*
X152049Y246299D01*
X151885Y246331D01*
X151688Y246353D01*
X151469Y246364D01*
X151305D01*
X151196Y246353D01*
X151065Y246342D01*
X150923Y246331D01*
X150617Y246277D01*
X150595D01*
X150551Y246266D01*
X150475Y246244D01*
X150365Y246211D01*
X150245Y246178D01*
X150114Y246146D01*
X149819Y246047D01*
Y246856D01*
X149830D01*
X149852Y246867D01*
X149873Y246889D01*
X149917Y246900D01*
X150037Y246943D01*
X150180Y246998D01*
X150190D01*
X150212Y247009D01*
X150256Y247020D01*
X150311Y247042D01*
X150453Y247075D01*
X150606Y247107D01*
X150617D01*
X150649Y247118D01*
X150693Y247129D01*
X150748Y247140D01*
X150824Y247151D01*
X150901Y247162D01*
X151087Y247184D01*
X151098D01*
X151130Y247195D01*
X151185D01*
X151240Y247206D01*
X151316D01*
X151404Y247217D01*
X151742D01*
X151819Y247206D01*
D02*
G37*
G36*
X241127Y252953D02*
X237236D01*
X235520Y255259D01*
X227061D01*
X225366Y252953D01*
X221453D01*
X228667Y262538D01*
X233946D01*
X241127Y252953D01*
D02*
G37*
G36*
X256681Y260593D02*
X250812D01*
Y252953D01*
X247489D01*
Y260593D01*
X241608D01*
Y262538D01*
X256681D01*
Y260593D01*
D02*
G37*
G36*
X202151Y260636D02*
X191210D01*
Y258866D01*
X201801D01*
Y256942D01*
X191210D01*
Y254876D01*
X202151D01*
Y252953D01*
X187888D01*
Y262538D01*
X202151D01*
Y260636D01*
D02*
G37*
G36*
X148835Y262527D02*
X149031D01*
X149250Y262506D01*
X149501Y262495D01*
X149764Y262473D01*
X150321Y262407D01*
X150594Y262364D01*
X150868Y262309D01*
X151130Y262243D01*
X151370Y262178D01*
X151589Y262090D01*
X151775Y261992D01*
X151786Y261981D01*
X151819Y261970D01*
X151862Y261937D01*
X151917Y261894D01*
X151993Y261828D01*
X152070Y261751D01*
X152146Y261664D01*
X152234Y261566D01*
X152321Y261445D01*
X152398Y261303D01*
X152485Y261150D01*
X152551Y260986D01*
X152605Y260801D01*
X152649Y260604D01*
X152682Y260385D01*
X152693Y260145D01*
Y260134D01*
Y260090D01*
Y260035D01*
Y259959D01*
X152682Y259860D01*
Y259751D01*
X152660Y259511D01*
X152627Y259248D01*
X152584Y258997D01*
X152562Y258877D01*
X152529Y258768D01*
X152485Y258669D01*
X152442Y258582D01*
X152430Y258571D01*
X152398Y258527D01*
X152343Y258472D01*
X152267Y258396D01*
X152146Y258308D01*
X152004Y258221D01*
X151807Y258123D01*
X151698Y258079D01*
X151578Y258035D01*
X151589D01*
X151622Y258024D01*
X151665D01*
X151731Y258013D01*
X151807Y257992D01*
X151895Y257970D01*
X152092Y257926D01*
X152310Y257849D01*
X152529Y257751D01*
X152737Y257631D01*
X152835Y257565D01*
X152911Y257489D01*
X152922Y257478D01*
X152933Y257467D01*
X152955Y257434D01*
X152999Y257390D01*
X153032Y257325D01*
X153075Y257259D01*
X153130Y257172D01*
X153174Y257073D01*
X153228Y256964D01*
X153272Y256833D01*
X153316Y256691D01*
X153360Y256538D01*
X153392Y256363D01*
X153414Y256177D01*
X153425Y255980D01*
X153436Y255762D01*
Y255740D01*
Y255696D01*
Y255620D01*
X153425Y255510D01*
X153414Y255390D01*
X153392Y255237D01*
X153360Y255084D01*
X153327Y254909D01*
X153283Y254734D01*
X153228Y254549D01*
X153163Y254374D01*
X153075Y254199D01*
X152977Y254024D01*
X152868Y253860D01*
X152737Y253718D01*
X152584Y253587D01*
X152573Y253576D01*
X152540Y253565D01*
X152496Y253532D01*
X152420Y253488D01*
X152321Y253445D01*
X152201Y253390D01*
X152059Y253324D01*
X151884Y253270D01*
X151698Y253215D01*
X151480Y253150D01*
X151228Y253095D01*
X150955Y253051D01*
X150660Y253007D01*
X150321Y252986D01*
X149971Y252964D01*
X149578Y252953D01*
X137784D01*
Y262538D01*
X148671D01*
X148835Y262527D01*
D02*
G37*
G36*
X158934Y254876D02*
X167525D01*
Y252953D01*
X155578D01*
Y262538D01*
X158934D01*
Y254876D01*
D02*
G37*
G36*
X185712Y256363D02*
Y256341D01*
Y256276D01*
X185702Y256177D01*
X185690Y256057D01*
X185680Y255893D01*
X185647Y255718D01*
X185614Y255521D01*
X185559Y255314D01*
X185494Y255095D01*
X185417Y254876D01*
X185319Y254647D01*
X185199Y254428D01*
X185057Y254221D01*
X184893Y254024D01*
X184707Y253849D01*
X184488Y253696D01*
X184477Y253685D01*
X184434Y253663D01*
X184357Y253630D01*
X184248Y253576D01*
X184106Y253521D01*
X183931Y253467D01*
X183723Y253390D01*
X183472Y253324D01*
X183188Y253259D01*
X182860Y253193D01*
X182499Y253128D01*
X182095Y253073D01*
X181646Y253018D01*
X181406Y252996D01*
X181155Y252986D01*
X180892Y252975D01*
X180619Y252964D01*
X180335Y252953D01*
X174881D01*
X174804Y252964D01*
X174597D01*
X174345Y252975D01*
X174061Y252996D01*
X173744Y253018D01*
X173405Y253051D01*
X173056Y253095D01*
X172695Y253150D01*
X172323Y253204D01*
X171973Y253281D01*
X171624Y253379D01*
X171307Y253477D01*
X171012Y253598D01*
X170749Y253740D01*
X170738Y253751D01*
X170695Y253772D01*
X170629Y253827D01*
X170553Y253893D01*
X170454Y253980D01*
X170345Y254089D01*
X170225Y254210D01*
X170104Y254363D01*
X169984Y254538D01*
X169864Y254723D01*
X169755Y254942D01*
X169656Y255183D01*
X169580Y255434D01*
X169514Y255718D01*
X169470Y256035D01*
X169459Y256363D01*
Y262538D01*
X172793D01*
Y256581D01*
Y256571D01*
Y256538D01*
Y256483D01*
X172804Y256418D01*
X172815Y256341D01*
X172826Y256243D01*
X172881Y256035D01*
X172957Y255816D01*
X173012Y255696D01*
X173066Y255587D01*
X173143Y255488D01*
X173230Y255390D01*
X173329Y255303D01*
X173449Y255226D01*
X173460D01*
X173482Y255215D01*
X173526Y255193D01*
X173580Y255171D01*
X173657Y255150D01*
X173744Y255117D01*
X173864Y255084D01*
X173995Y255051D01*
X174148Y255018D01*
X174323Y254986D01*
X174509Y254953D01*
X174728Y254931D01*
X174968Y254909D01*
X175231Y254887D01*
X175526Y254876D01*
X179592D01*
X179701Y254887D01*
X179843D01*
X179996Y254898D01*
X180160Y254909D01*
X180335Y254920D01*
X180717Y254964D01*
X181089Y255029D01*
X181275Y255073D01*
X181439Y255117D01*
X181592Y255171D01*
X181723Y255237D01*
X181734D01*
X181756Y255259D01*
X181789Y255281D01*
X181821Y255314D01*
X181931Y255401D01*
X181985Y255467D01*
X182051Y255543D01*
X182116Y255631D01*
X182171Y255729D01*
X182226Y255838D01*
X182280Y255959D01*
X182313Y256101D01*
X182346Y256254D01*
X182368Y256418D01*
X182379Y256592D01*
Y262538D01*
X185712D01*
Y256363D01*
D02*
G37*
G36*
X192424Y246495D02*
X192435D01*
X192446Y246506D01*
X192490Y246550D01*
X192566Y246616D01*
X192654Y246692D01*
X192763Y246768D01*
X192894Y246856D01*
X193036Y246943D01*
X193189Y247020D01*
X193211Y247031D01*
X193266Y247053D01*
X193353Y247085D01*
X193473Y247118D01*
X193615Y247151D01*
X193779Y247184D01*
X193965Y247206D01*
X194162Y247217D01*
X194260D01*
X194326Y247206D01*
X194402D01*
X194501Y247195D01*
X194708Y247151D01*
X194719D01*
X194763Y247140D01*
X194818Y247129D01*
X194894Y247107D01*
X194982Y247075D01*
X195080Y247042D01*
X195288Y246954D01*
X195299Y246943D01*
X195331Y246933D01*
X195397Y246900D01*
X195463Y246856D01*
X195550Y246812D01*
X195637Y246747D01*
X195834Y246594D01*
X195845Y246583D01*
X195878Y246550D01*
X195932Y246506D01*
X195998Y246441D01*
X196075Y246353D01*
X196151Y246255D01*
X196228Y246146D01*
X196304Y246025D01*
X196315Y246014D01*
X196337Y245971D01*
X196381Y245894D01*
X196424Y245807D01*
X196479Y245687D01*
X196534Y245555D01*
X196588Y245402D01*
X196632Y245227D01*
X196643Y245205D01*
X196654Y245151D01*
X196676Y245053D01*
X196698Y244921D01*
X196719Y244768D01*
X196730Y244583D01*
X196752Y244386D01*
Y244167D01*
Y244156D01*
Y244134D01*
Y244091D01*
Y244025D01*
X196741Y243949D01*
Y243872D01*
X196719Y243675D01*
X196698Y243446D01*
X196654Y243194D01*
X196599Y242954D01*
X196523Y242713D01*
Y242703D01*
X196512Y242692D01*
X196501Y242659D01*
X196479Y242615D01*
X196435Y242495D01*
X196359Y242353D01*
X196271Y242200D01*
X196173Y242025D01*
X196053Y241861D01*
X195922Y241697D01*
X195900Y241675D01*
X195856Y241631D01*
X195779Y241566D01*
X195681Y241478D01*
X195550Y241380D01*
X195408Y241282D01*
X195244Y241194D01*
X195069Y241107D01*
X195047Y241096D01*
X194992Y241074D01*
X194894Y241052D01*
X194774Y241019D01*
X194621Y240976D01*
X194457Y240954D01*
X194271Y240932D01*
X194085Y240921D01*
X194020D01*
X193954Y240932D01*
X193856D01*
X193757Y240943D01*
X193637Y240965D01*
X193408Y241019D01*
X193397D01*
X193364Y241030D01*
X193298Y241052D01*
X193233Y241085D01*
X193069Y241150D01*
X192905Y241238D01*
X192894Y241249D01*
X192872Y241260D01*
X192839Y241293D01*
X192796Y241325D01*
X192686Y241413D01*
X192577Y241511D01*
Y241522D01*
X192555Y241533D01*
X192511Y241599D01*
X192457Y241664D01*
X192413Y241741D01*
X192391D01*
X192183Y241074D01*
X191451D01*
Y250190D01*
X192424D01*
Y246495D01*
D02*
G37*
G36*
X201026Y247206D02*
X201179Y247184D01*
X201365Y247162D01*
X201561Y247118D01*
X201769Y247064D01*
X201966Y246987D01*
X201977D01*
X201988Y246976D01*
X202053Y246943D01*
X202152Y246889D01*
X202283Y246823D01*
X202425Y246725D01*
X202567Y246616D01*
X202720Y246484D01*
X202862Y246342D01*
X202884Y246320D01*
X202928Y246266D01*
X202993Y246178D01*
X203070Y246058D01*
X203168Y245916D01*
X203256Y245752D01*
X203354Y245555D01*
X203430Y245348D01*
Y245337D01*
X203441Y245326D01*
X203452Y245293D01*
X203463Y245249D01*
X203474Y245195D01*
X203496Y245129D01*
X203529Y244965D01*
X203562Y244779D01*
X203594Y244561D01*
X203616Y244320D01*
X203627Y244058D01*
Y244047D01*
Y244025D01*
Y243992D01*
Y243938D01*
X203616Y243872D01*
Y243807D01*
X203605Y243632D01*
X203573Y243435D01*
X203540Y243216D01*
X203485Y242987D01*
X203419Y242768D01*
Y242757D01*
X203409Y242746D01*
X203398Y242713D01*
X203387Y242670D01*
X203343Y242561D01*
X203277Y242429D01*
X203190Y242276D01*
X203102Y242101D01*
X202982Y241937D01*
X202851Y241774D01*
X202829Y241752D01*
X202786Y241708D01*
X202709Y241631D01*
X202600Y241544D01*
X202469Y241446D01*
X202316Y241336D01*
X202141Y241238D01*
X201955Y241140D01*
X201944D01*
X201933Y241129D01*
X201868Y241107D01*
X201758Y241074D01*
X201616Y241030D01*
X201441Y240987D01*
X201244Y240954D01*
X201037Y240932D01*
X200796Y240921D01*
X200687D01*
X200556Y240932D01*
X200403Y240954D01*
X200217Y240976D01*
X200009Y241008D01*
X199802Y241063D01*
X199605Y241140D01*
X199594D01*
X199583Y241150D01*
X199518Y241183D01*
X199419Y241238D01*
X199299Y241303D01*
X199157Y241391D01*
X199004Y241500D01*
X198851Y241631D01*
X198709Y241774D01*
X198698Y241795D01*
X198643Y241850D01*
X198577Y241937D01*
X198501Y242058D01*
X198403Y242200D01*
X198315Y242364D01*
X198217Y242561D01*
X198140Y242768D01*
Y242779D01*
X198129Y242790D01*
X198118Y242823D01*
X198108Y242866D01*
X198097Y242921D01*
X198086Y242987D01*
X198053Y243151D01*
X198009Y243337D01*
X197987Y243555D01*
X197966Y243796D01*
X197954Y244058D01*
Y244069D01*
Y244091D01*
Y244124D01*
Y244178D01*
X197966Y244244D01*
Y244309D01*
X197976Y244484D01*
X197998Y244681D01*
X198042Y244900D01*
X198086Y245129D01*
X198151Y245348D01*
Y245359D01*
X198162Y245370D01*
X198173Y245402D01*
X198184Y245446D01*
X198239Y245555D01*
X198293Y245687D01*
X198381Y245850D01*
X198479Y246014D01*
X198589Y246178D01*
X198720Y246342D01*
X198741Y246364D01*
X198785Y246408D01*
X198862Y246484D01*
X198971Y246583D01*
X199102Y246681D01*
X199255Y246790D01*
X199430Y246889D01*
X199616Y246987D01*
X199627D01*
X199638Y246998D01*
X199671Y247009D01*
X199703Y247020D01*
X199813Y247064D01*
X199955Y247107D01*
X200130Y247140D01*
X200326Y247184D01*
X200545Y247206D01*
X200785Y247217D01*
X200895D01*
X201026Y247206D01*
D02*
G37*
G36*
X187243D02*
X187396Y247184D01*
X187582Y247162D01*
X187779Y247118D01*
X187986Y247064D01*
X188183Y246987D01*
X188194D01*
X188205Y246976D01*
X188270Y246943D01*
X188369Y246889D01*
X188500Y246823D01*
X188642Y246725D01*
X188784Y246616D01*
X188937Y246484D01*
X189079Y246342D01*
X189101Y246320D01*
X189145Y246266D01*
X189210Y246178D01*
X189287Y246058D01*
X189385Y245916D01*
X189473Y245752D01*
X189571Y245555D01*
X189648Y245348D01*
Y245337D01*
X189659Y245326D01*
X189670Y245293D01*
X189681Y245249D01*
X189691Y245195D01*
X189713Y245129D01*
X189746Y244965D01*
X189779Y244779D01*
X189812Y244561D01*
X189833Y244320D01*
X189845Y244058D01*
Y244047D01*
Y244025D01*
Y243992D01*
Y243938D01*
X189833Y243872D01*
Y243807D01*
X189823Y243632D01*
X189790Y243435D01*
X189757Y243216D01*
X189702Y242987D01*
X189637Y242768D01*
Y242757D01*
X189626Y242746D01*
X189615Y242713D01*
X189604Y242670D01*
X189560Y242561D01*
X189495Y242429D01*
X189407Y242276D01*
X189320Y242101D01*
X189200Y241937D01*
X189068Y241774D01*
X189047Y241752D01*
X189003Y241708D01*
X188926Y241631D01*
X188817Y241544D01*
X188686Y241446D01*
X188533Y241336D01*
X188358Y241238D01*
X188172Y241140D01*
X188161D01*
X188150Y241129D01*
X188085Y241107D01*
X187975Y241074D01*
X187833Y241030D01*
X187659Y240987D01*
X187462Y240954D01*
X187254Y240932D01*
X187014Y240921D01*
X186904D01*
X186773Y240932D01*
X186620Y240954D01*
X186434Y240976D01*
X186227Y241008D01*
X186019Y241063D01*
X185822Y241140D01*
X185811D01*
X185800Y241150D01*
X185735Y241183D01*
X185636Y241238D01*
X185516Y241303D01*
X185374Y241391D01*
X185221Y241500D01*
X185068Y241631D01*
X184926Y241774D01*
X184915Y241795D01*
X184860Y241850D01*
X184795Y241937D01*
X184718Y242058D01*
X184620Y242200D01*
X184532Y242364D01*
X184434Y242561D01*
X184358Y242768D01*
Y242779D01*
X184347Y242790D01*
X184336Y242823D01*
X184325Y242866D01*
X184314Y242921D01*
X184303Y242987D01*
X184270Y243151D01*
X184226Y243337D01*
X184205Y243555D01*
X184183Y243796D01*
X184172Y244058D01*
Y244069D01*
Y244091D01*
Y244124D01*
Y244178D01*
X184183Y244244D01*
Y244309D01*
X184194Y244484D01*
X184215Y244681D01*
X184259Y244900D01*
X184303Y245129D01*
X184369Y245348D01*
Y245359D01*
X184379Y245370D01*
X184390Y245402D01*
X184401Y245446D01*
X184456Y245555D01*
X184511Y245687D01*
X184598Y245850D01*
X184696Y246014D01*
X184806Y246178D01*
X184937Y246342D01*
X184959Y246364D01*
X185003Y246408D01*
X185079Y246484D01*
X185188Y246583D01*
X185319Y246681D01*
X185473Y246790D01*
X185647Y246889D01*
X185833Y246987D01*
X185844D01*
X185855Y246998D01*
X185888Y247009D01*
X185921Y247020D01*
X186030Y247064D01*
X186172Y247107D01*
X186347Y247140D01*
X186544Y247184D01*
X186762Y247206D01*
X187003Y247217D01*
X187112D01*
X187243Y247206D01*
D02*
G37*
G36*
X215595Y262527D02*
X215683D01*
X215901Y262516D01*
X216152Y262506D01*
X216426Y262484D01*
X216732Y262451D01*
X217038Y262418D01*
X217355Y262374D01*
X217683Y262320D01*
X218000Y262254D01*
X218317Y262178D01*
X218612Y262090D01*
X218896Y261992D01*
X219147Y261872D01*
X219158Y261861D01*
X219202Y261839D01*
X219268Y261806D01*
X219344Y261751D01*
X219442Y261675D01*
X219552Y261587D01*
X219661Y261489D01*
X219781Y261369D01*
X219901Y261227D01*
X220011Y261074D01*
X220120Y260910D01*
X220218Y260724D01*
X220295Y260527D01*
X220360Y260309D01*
X220404Y260068D01*
X220415Y259817D01*
X216819D01*
Y259828D01*
Y259839D01*
Y259893D01*
X216797Y259970D01*
X216775Y260079D01*
X216732Y260177D01*
X216677Y260287D01*
X216590Y260385D01*
X216480Y260462D01*
X216469Y260473D01*
X216415Y260494D01*
X216371Y260505D01*
X216327Y260516D01*
X216262Y260538D01*
X216185Y260549D01*
X216098Y260571D01*
X215999Y260582D01*
X215890Y260593D01*
X215770Y260615D01*
X215628Y260626D01*
X215475D01*
X215300Y260636D01*
X209365D01*
X209299Y260626D01*
X209223D01*
X209048Y260615D01*
X208851Y260593D01*
X208654Y260549D01*
X208458Y260505D01*
X208283Y260440D01*
X208261Y260429D01*
X208217Y260407D01*
X208152Y260352D01*
X208075Y260287D01*
X207999Y260188D01*
X207933Y260057D01*
X207889Y259915D01*
X207868Y259729D01*
Y259718D01*
Y259707D01*
X207878Y259642D01*
X207889Y259555D01*
X207922Y259445D01*
X207977Y259336D01*
X208053Y259216D01*
X208163Y259117D01*
X208316Y259041D01*
X208327D01*
X208381Y259019D01*
X208469Y259008D01*
X208589Y258986D01*
X208753Y258964D01*
X208840Y258953D01*
X208950Y258942D01*
X209070Y258931D01*
X209201D01*
X209343Y258921D01*
X209496D01*
X215683Y258746D01*
X215923D01*
X216098Y258735D01*
X216316D01*
X216557Y258724D01*
X216819Y258702D01*
X217103Y258680D01*
X217388Y258658D01*
X217694Y258625D01*
X217989Y258582D01*
X218273Y258538D01*
X218546Y258483D01*
X218808Y258418D01*
X219038Y258341D01*
X219235Y258254D01*
X219246Y258243D01*
X219289Y258221D01*
X219344Y258188D01*
X219421Y258134D01*
X219508Y258057D01*
X219617Y257970D01*
X219716Y257860D01*
X219836Y257729D01*
X219945Y257576D01*
X220055Y257401D01*
X220153Y257205D01*
X220240Y256986D01*
X220317Y256746D01*
X220371Y256483D01*
X220415Y256188D01*
X220426Y255860D01*
Y255838D01*
Y255795D01*
X220415Y255707D01*
Y255609D01*
X220393Y255478D01*
X220371Y255335D01*
X220339Y255171D01*
X220295Y254997D01*
X220240Y254811D01*
X220164Y254625D01*
X220087Y254439D01*
X219978Y254253D01*
X219858Y254079D01*
X219716Y253915D01*
X219552Y253762D01*
X219366Y253620D01*
X219355Y253609D01*
X219311Y253587D01*
X219257Y253554D01*
X219158Y253521D01*
X219049Y253467D01*
X218896Y253412D01*
X218721Y253346D01*
X218524Y253292D01*
X218284Y253226D01*
X218021Y253160D01*
X217726Y253106D01*
X217388Y253062D01*
X217027Y253018D01*
X216633Y252986D01*
X216207Y252964D01*
X215737Y252953D01*
X208567D01*
X208392Y252964D01*
X208185Y252975D01*
X207944Y252986D01*
X207671Y253007D01*
X207387Y253029D01*
X207091Y253062D01*
X206785Y253106D01*
X206479Y253160D01*
X206184Y253226D01*
X205900Y253292D01*
X205627Y253379D01*
X205386Y253477D01*
X205168Y253587D01*
X205157Y253598D01*
X205124Y253620D01*
X205069Y253652D01*
X205004Y253707D01*
X204927Y253783D01*
X204840Y253871D01*
X204742Y253969D01*
X204654Y254089D01*
X204556Y254232D01*
X204457Y254385D01*
X204370Y254549D01*
X204293Y254745D01*
X204228Y254942D01*
X204173Y255171D01*
X204140Y255412D01*
X204129Y255674D01*
X207529Y255663D01*
Y255652D01*
X207540Y255609D01*
X207551Y255543D01*
X207583Y255467D01*
X207638Y255368D01*
X207715Y255281D01*
X207824Y255183D01*
X207977Y255095D01*
X207999Y255084D01*
X208064Y255062D01*
X208163Y255029D01*
X208294Y254986D01*
X208469Y254942D01*
X208676Y254909D01*
X208906Y254887D01*
X209168Y254876D01*
X214939D01*
X215038Y254887D01*
X215147D01*
X215267Y254898D01*
X215398D01*
X215671Y254920D01*
X215945Y254964D01*
X216207Y255008D01*
X216327Y255040D01*
X216426Y255073D01*
X216437D01*
X216448Y255084D01*
X216502Y255117D01*
X216590Y255171D01*
X216688Y255248D01*
X216775Y255346D01*
X216863Y255488D01*
X216917Y255642D01*
X216939Y255740D01*
Y255838D01*
Y255849D01*
Y255860D01*
X216929Y255926D01*
X216917Y256024D01*
X216885Y256144D01*
X216830Y256264D01*
X216754Y256396D01*
X216644Y256516D01*
X216491Y256614D01*
X216480D01*
X216469Y256625D01*
X216437Y256636D01*
X216393Y256658D01*
X216327Y256680D01*
X216251Y256702D01*
X216163Y256734D01*
X216065Y256756D01*
X215945Y256778D01*
X215803Y256811D01*
X215650Y256833D01*
X215486Y256855D01*
X215289Y256877D01*
X215092Y256888D01*
X214863Y256898D01*
X214622D01*
X209267Y257051D01*
X208884D01*
X208775Y257062D01*
X208534D01*
X208261Y257073D01*
X207955Y257084D01*
X207627Y257106D01*
X207299Y257128D01*
X206960Y257161D01*
X206622Y257194D01*
X206294Y257237D01*
X205988Y257292D01*
X205714Y257347D01*
X205463Y257423D01*
X205354Y257456D01*
X205255Y257500D01*
X205244Y257511D01*
X205201Y257522D01*
X205146Y257565D01*
X205069Y257609D01*
X204982Y257675D01*
X204884Y257762D01*
X204785Y257860D01*
X204676Y257992D01*
X204567Y258123D01*
X204468Y258287D01*
X204370Y258472D01*
X204282Y258680D01*
X204206Y258910D01*
X204151Y259161D01*
X204108Y259445D01*
X204097Y259751D01*
Y259773D01*
Y259817D01*
X204108Y259893D01*
X204118Y260003D01*
X204129Y260123D01*
X204162Y260265D01*
X204195Y260418D01*
X204239Y260593D01*
X204304Y260768D01*
X204381Y260943D01*
X204468Y261128D01*
X204578Y261303D01*
X204709Y261467D01*
X204862Y261631D01*
X205048Y261773D01*
X205244Y261904D01*
X205255Y261915D01*
X205299Y261937D01*
X205364Y261959D01*
X205463Y262003D01*
X205594Y262047D01*
X205758Y262101D01*
X205944Y262167D01*
X206162Y262221D01*
X206414Y262276D01*
X206698Y262342D01*
X207015Y262396D01*
X207376Y262440D01*
X207758Y262484D01*
X208173Y262516D01*
X208633Y262527D01*
X209124Y262538D01*
X215508D01*
X215595Y262527D01*
D02*
G37*
G36*
X251610Y247206D02*
X251752Y247195D01*
X251927Y247173D01*
X252102Y247151D01*
X252288Y247107D01*
X252473Y247053D01*
X252484D01*
X252495Y247042D01*
X252550Y247020D01*
X252648Y246987D01*
X252758Y246933D01*
X252878Y246867D01*
X253020Y246790D01*
X253151Y246692D01*
X253282Y246583D01*
X253293Y246572D01*
X253337Y246528D01*
X253392Y246473D01*
X253468Y246386D01*
X253544Y246288D01*
X253632Y246167D01*
X253708Y246025D01*
X253785Y245883D01*
X253796Y245861D01*
X253818Y245818D01*
X253840Y245730D01*
X253883Y245621D01*
X253916Y245490D01*
X253938Y245348D01*
X253960Y245173D01*
X253971Y244998D01*
Y244987D01*
Y244943D01*
Y244878D01*
X253960Y244801D01*
X253949Y244703D01*
X253938Y244604D01*
X253894Y244375D01*
Y244364D01*
X253883Y244320D01*
X253861Y244266D01*
X253840Y244200D01*
X253796Y244112D01*
X253752Y244014D01*
X253643Y243817D01*
X253632Y243807D01*
X253610Y243774D01*
X253577Y243719D01*
X253523Y243664D01*
X253457Y243588D01*
X253380Y243511D01*
X253293Y243435D01*
X253195Y243358D01*
X253184Y243347D01*
X253151Y243326D01*
X253085Y243293D01*
X253009Y243249D01*
X252911Y243194D01*
X252801Y243140D01*
X252670Y243085D01*
X252528Y243041D01*
Y243009D01*
X252539D01*
X252583Y242998D01*
X252648Y242987D01*
X252736Y242976D01*
X252823Y242954D01*
X252932Y242921D01*
X253162Y242845D01*
X253173Y242834D01*
X253217Y242823D01*
X253271Y242790D01*
X253348Y242746D01*
X253424Y242692D01*
X253523Y242626D01*
X253610Y242549D01*
X253697Y242462D01*
X253708Y242451D01*
X253741Y242418D01*
X253785Y242364D01*
X253840Y242298D01*
X253894Y242211D01*
X253960Y242112D01*
X254025Y241992D01*
X254080Y241861D01*
X254091Y241850D01*
X254102Y241795D01*
X254124Y241730D01*
X254157Y241631D01*
X254189Y241500D01*
X254211Y241358D01*
X254222Y241205D01*
X254233Y241030D01*
Y241019D01*
Y241008D01*
Y240976D01*
Y240932D01*
X254222Y240823D01*
X254211Y240681D01*
X254189Y240517D01*
X254146Y240342D01*
X254102Y240167D01*
X254036Y239981D01*
X254025Y239959D01*
X254004Y239904D01*
X253949Y239817D01*
X253894Y239708D01*
X253807Y239577D01*
X253708Y239445D01*
X253588Y239303D01*
X253457Y239172D01*
X253435Y239161D01*
X253392Y239118D01*
X253315Y239052D01*
X253206Y238986D01*
X253064Y238899D01*
X252911Y238811D01*
X252725Y238735D01*
X252528Y238658D01*
X252517D01*
X252506Y238648D01*
X252473Y238637D01*
X252430Y238626D01*
X252309Y238604D01*
X252156Y238571D01*
X251971Y238527D01*
X251752Y238506D01*
X251501Y238484D01*
X251238Y238473D01*
X251151D01*
X251052Y238484D01*
X250921D01*
X250779Y238494D01*
X250615Y238516D01*
X250266Y238571D01*
X250244D01*
X250189Y238593D01*
X250101Y238615D01*
X249992Y238648D01*
X249861Y238680D01*
X249730Y238724D01*
X249446Y238844D01*
Y239675D01*
X249468Y239664D01*
X249522Y239642D01*
X249610Y239609D01*
X249730Y239577D01*
X249861Y239522D01*
X250014Y239478D01*
X250331Y239402D01*
X250353D01*
X250408Y239391D01*
X250495Y239380D01*
X250604Y239358D01*
X250735Y239347D01*
X250878Y239325D01*
X251173Y239314D01*
X251271D01*
X251380Y239325D01*
X251512Y239336D01*
X251664Y239347D01*
X251829Y239380D01*
X251981Y239413D01*
X252134Y239456D01*
X252156Y239467D01*
X252200Y239478D01*
X252277Y239511D01*
X252364Y239555D01*
X252462Y239609D01*
X252561Y239675D01*
X252670Y239752D01*
X252758Y239839D01*
X252768Y239850D01*
X252801Y239883D01*
X252845Y239926D01*
X252889Y239992D01*
X252954Y240068D01*
X253009Y240167D01*
X253064Y240265D01*
X253107Y240374D01*
Y240385D01*
X253129Y240429D01*
X253140Y240484D01*
X253162Y240571D01*
X253184Y240659D01*
X253195Y240768D01*
X253217Y241008D01*
Y241019D01*
Y241041D01*
Y241085D01*
X253206Y241140D01*
Y241205D01*
X253184Y241282D01*
X253151Y241457D01*
X253085Y241653D01*
X252987Y241839D01*
X252932Y241937D01*
X252856Y242025D01*
X252779Y242101D01*
X252681Y242178D01*
X252670D01*
X252659Y242189D01*
X252626Y242211D01*
X252583Y242233D01*
X252528Y242265D01*
X252462Y242298D01*
X252386Y242331D01*
X252298Y242364D01*
X252200Y242396D01*
X252080Y242429D01*
X251960Y242462D01*
X251829Y242495D01*
X251676Y242517D01*
X251522Y242539D01*
X251348Y242549D01*
X250506D01*
Y243391D01*
X250987D01*
X251085Y243402D01*
X251216D01*
X251359Y243424D01*
X251512Y243446D01*
X251664Y243468D01*
X251818Y243511D01*
X251839Y243522D01*
X251883Y243533D01*
X251960Y243566D01*
X252047Y243599D01*
X252146Y243642D01*
X252255Y243708D01*
X252364Y243774D01*
X252462Y243850D01*
X252473Y243861D01*
X252506Y243894D01*
X252550Y243938D01*
X252605Y243992D01*
X252659Y244069D01*
X252725Y244156D01*
X252779Y244255D01*
X252834Y244353D01*
X252845Y244364D01*
X252856Y244408D01*
X252878Y244462D01*
X252900Y244539D01*
X252922Y244637D01*
X252932Y244746D01*
X252954Y244867D01*
Y244987D01*
Y244998D01*
Y245053D01*
X252943Y245118D01*
Y245205D01*
X252922Y245293D01*
X252900Y245402D01*
X252867Y245512D01*
X252823Y245610D01*
X252812Y245621D01*
X252801Y245654D01*
X252768Y245697D01*
X252725Y245763D01*
X252615Y245905D01*
X252462Y246036D01*
X252451Y246047D01*
X252419Y246069D01*
X252375Y246091D01*
X252320Y246135D01*
X252244Y246178D01*
X252146Y246211D01*
X252047Y246255D01*
X251938Y246288D01*
X251927D01*
X251883Y246299D01*
X251829Y246320D01*
X251752Y246331D01*
X251654Y246353D01*
X251544Y246364D01*
X251293Y246375D01*
X251140D01*
X251031Y246364D01*
X250899Y246353D01*
X250746Y246331D01*
X250429Y246266D01*
X250408D01*
X250353Y246244D01*
X250266Y246222D01*
X250156Y246200D01*
X250025Y246156D01*
X249883Y246113D01*
X249577Y246003D01*
Y246834D01*
X249588D01*
X249599Y246845D01*
X249664Y246867D01*
X249763Y246900D01*
X249894Y246954D01*
X250047Y246998D01*
X250211Y247042D01*
X250386Y247096D01*
X250561Y247129D01*
X250583D01*
X250637Y247140D01*
X250725Y247162D01*
X250845Y247173D01*
X250965Y247195D01*
X251107Y247206D01*
X251391Y247217D01*
X251490D01*
X251610Y247206D01*
D02*
G37*
G36*
X429682Y5838D02*
X428490D01*
Y7062D01*
X429682D01*
Y5838D01*
D02*
G37*
G36*
X434272Y8855D02*
X436535Y5838D01*
X435474D01*
X433726Y8220D01*
X433704D01*
X431977Y5838D01*
X430917D01*
X433179Y8876D01*
X431004Y11817D01*
X432075D01*
X433726Y9510D01*
X433747D01*
X435376Y11817D01*
X436447D01*
X434272Y8855D01*
D02*
G37*
G36*
X399569Y11970D02*
X399668Y11959D01*
X399777Y11937D01*
X400029Y11882D01*
X400039D01*
X400083Y11860D01*
X400160Y11838D01*
X400236Y11806D01*
X400335Y11762D01*
X400444Y11707D01*
X400564Y11642D01*
X400673Y11554D01*
X400684Y11543D01*
X400728Y11511D01*
X400783Y11456D01*
X400848Y11390D01*
X400936Y11292D01*
X401012Y11183D01*
X401100Y11051D01*
X401176Y10909D01*
X401187Y10887D01*
X401209Y10833D01*
X401242Y10745D01*
X401274Y10625D01*
X401307Y10461D01*
X401340Y10286D01*
X401362Y10068D01*
X401373Y9838D01*
Y5838D01*
X400400D01*
Y9674D01*
Y9696D01*
Y9740D01*
Y9816D01*
X400389Y9904D01*
X400378Y10013D01*
X400367Y10122D01*
X400345Y10232D01*
X400313Y10341D01*
Y10352D01*
X400302Y10385D01*
X400280Y10439D01*
X400247Y10505D01*
X400171Y10647D01*
X400061Y10789D01*
X400050Y10800D01*
X400029Y10822D01*
X399996Y10855D01*
X399952Y10887D01*
X399832Y10975D01*
X399668Y11051D01*
X399657D01*
X399635Y11062D01*
X399580Y11084D01*
X399526Y11095D01*
X399449Y11117D01*
X399373Y11128D01*
X399176Y11139D01*
X399089D01*
X398990Y11128D01*
X398859Y11106D01*
X398706Y11073D01*
X398553Y11019D01*
X398378Y10953D01*
X398214Y10855D01*
X398192Y10844D01*
X398138Y10800D01*
X398061Y10734D01*
X397963Y10647D01*
X397843Y10538D01*
X397711Y10407D01*
X397580Y10254D01*
X397449Y10079D01*
Y5838D01*
X396476D01*
Y9674D01*
Y9696D01*
Y9740D01*
Y9816D01*
X396465Y9904D01*
X396454Y10013D01*
X396443Y10122D01*
X396422Y10232D01*
X396389Y10341D01*
Y10352D01*
X396378Y10385D01*
X396356Y10439D01*
X396323Y10505D01*
X396247Y10647D01*
X396137Y10789D01*
X396127Y10800D01*
X396105Y10822D01*
X396072Y10855D01*
X396028Y10887D01*
X395908Y10975D01*
X395744Y11051D01*
X395733D01*
X395711Y11062D01*
X395656Y11084D01*
X395602Y11095D01*
X395525Y11117D01*
X395449Y11128D01*
X395252Y11139D01*
X395165D01*
X395066Y11128D01*
X394935Y11106D01*
X394793Y11073D01*
X394629Y11019D01*
X394465Y10953D01*
X394301Y10855D01*
X394279Y10844D01*
X394225Y10800D01*
X394148Y10734D01*
X394050Y10647D01*
X393930Y10538D01*
X393798Y10407D01*
X393667Y10254D01*
X393536Y10079D01*
Y5838D01*
X392563D01*
Y11817D01*
X393318D01*
X393503Y10986D01*
X393525D01*
X393536Y10997D01*
X393558Y11019D01*
X393591Y11062D01*
X393634Y11117D01*
X393744Y11237D01*
X393875Y11368D01*
X393886Y11379D01*
X393908Y11401D01*
X393951Y11434D01*
X394006Y11478D01*
X394137Y11576D01*
X394301Y11685D01*
X394312Y11696D01*
X394345Y11707D01*
X394389Y11740D01*
X394454Y11762D01*
X394531Y11806D01*
X394629Y11838D01*
X394826Y11904D01*
X394837D01*
X394880Y11915D01*
X394935Y11926D01*
X395012Y11948D01*
X395099Y11959D01*
X395208Y11970D01*
X395438Y11981D01*
X395547D01*
X395667Y11959D01*
X395831Y11937D01*
X395995Y11904D01*
X396181Y11838D01*
X396367Y11762D01*
X396542Y11653D01*
X396564Y11642D01*
X396618Y11598D01*
X396695Y11521D01*
X396793Y11423D01*
X396902Y11292D01*
X397023Y11150D01*
X397132Y10975D01*
X397230Y10778D01*
X397252D01*
Y10789D01*
X397274Y10800D01*
X397329Y10866D01*
X397405Y10975D01*
X397515Y11095D01*
X397657Y11237D01*
X397810Y11379D01*
X397974Y11521D01*
X398159Y11653D01*
X398170D01*
X398181Y11664D01*
X398214Y11685D01*
X398247Y11707D01*
X398356Y11762D01*
X398498Y11817D01*
X398684Y11882D01*
X398881Y11926D01*
X399110Y11970D01*
X399362Y11981D01*
X399482D01*
X399569Y11970D01*
D02*
G37*
G36*
X374649Y4275D02*
X373720D01*
X376114Y14265D01*
X377043D01*
X374649Y4275D01*
D02*
G37*
G36*
X388421Y11970D02*
X388574Y11948D01*
X388760Y11926D01*
X388956Y11882D01*
X389164Y11827D01*
X389361Y11751D01*
X389372D01*
X389383Y11740D01*
X389448Y11707D01*
X389547Y11653D01*
X389678Y11587D01*
X389820Y11489D01*
X389962Y11379D01*
X390115Y11248D01*
X390257Y11106D01*
X390279Y11084D01*
X390323Y11029D01*
X390388Y10942D01*
X390465Y10822D01*
X390563Y10680D01*
X390651Y10516D01*
X390749Y10319D01*
X390825Y10111D01*
Y10101D01*
X390836Y10090D01*
X390847Y10057D01*
X390858Y10013D01*
X390869Y9958D01*
X390891Y9893D01*
X390924Y9729D01*
X390957Y9543D01*
X390989Y9324D01*
X391011Y9084D01*
X391022Y8822D01*
Y8811D01*
Y8789D01*
Y8756D01*
Y8701D01*
X391011Y8636D01*
Y8570D01*
X391000Y8395D01*
X390967Y8199D01*
X390935Y7980D01*
X390880Y7750D01*
X390814Y7532D01*
Y7521D01*
X390804Y7510D01*
X390793Y7477D01*
X390782Y7434D01*
X390738Y7324D01*
X390672Y7193D01*
X390585Y7040D01*
X390497Y6865D01*
X390377Y6701D01*
X390246Y6537D01*
X390224Y6515D01*
X390180Y6472D01*
X390104Y6395D01*
X389995Y6308D01*
X389864Y6209D01*
X389711Y6100D01*
X389536Y6002D01*
X389350Y5903D01*
X389339D01*
X389328Y5892D01*
X389262Y5871D01*
X389153Y5838D01*
X389011Y5794D01*
X388836Y5750D01*
X388639Y5718D01*
X388432Y5696D01*
X388191Y5685D01*
X388082D01*
X387951Y5696D01*
X387798Y5718D01*
X387612Y5739D01*
X387404Y5772D01*
X387197Y5827D01*
X387000Y5903D01*
X386989D01*
X386978Y5914D01*
X386912Y5947D01*
X386814Y6002D01*
X386694Y6067D01*
X386552Y6155D01*
X386399Y6264D01*
X386246Y6395D01*
X386104Y6537D01*
X386093Y6559D01*
X386038Y6614D01*
X385972Y6701D01*
X385896Y6821D01*
X385798Y6964D01*
X385710Y7128D01*
X385612Y7324D01*
X385535Y7532D01*
Y7543D01*
X385524Y7554D01*
X385513Y7587D01*
X385503Y7630D01*
X385492Y7685D01*
X385481Y7750D01*
X385448Y7914D01*
X385404Y8100D01*
X385382Y8319D01*
X385360Y8559D01*
X385349Y8822D01*
Y8833D01*
Y8855D01*
Y8887D01*
Y8942D01*
X385360Y9008D01*
Y9073D01*
X385371Y9248D01*
X385393Y9445D01*
X385437Y9663D01*
X385481Y9893D01*
X385546Y10111D01*
Y10122D01*
X385557Y10133D01*
X385568Y10166D01*
X385579Y10210D01*
X385634Y10319D01*
X385688Y10450D01*
X385776Y10614D01*
X385874Y10778D01*
X385983Y10942D01*
X386115Y11106D01*
X386136Y11128D01*
X386180Y11172D01*
X386257Y11248D01*
X386366Y11347D01*
X386497Y11445D01*
X386650Y11554D01*
X386825Y11653D01*
X387011Y11751D01*
X387022D01*
X387033Y11762D01*
X387066Y11773D01*
X387098Y11784D01*
X387208Y11827D01*
X387350Y11871D01*
X387525Y11904D01*
X387721Y11948D01*
X387940Y11970D01*
X388180Y11981D01*
X388290D01*
X388421Y11970D01*
D02*
G37*
G36*
X424053D02*
X424173D01*
X424315Y11948D01*
X424468Y11926D01*
X424632Y11893D01*
X424785Y11849D01*
X424807Y11838D01*
X424851Y11827D01*
X424927Y11795D01*
X425025Y11751D01*
X425146Y11696D01*
X425255Y11642D01*
X425375Y11565D01*
X425495Y11478D01*
X425506Y11467D01*
X425539Y11434D01*
X425594Y11379D01*
X425659Y11314D01*
X425736Y11226D01*
X425812Y11128D01*
X425889Y11008D01*
X425954Y10876D01*
X425965Y10866D01*
X425987Y10811D01*
X426009Y10745D01*
X426042Y10647D01*
X426075Y10527D01*
X426107Y10385D01*
X426118Y10232D01*
X426129Y10057D01*
Y10035D01*
Y9969D01*
X426118Y9882D01*
X426107Y9762D01*
X426075Y9620D01*
X426042Y9456D01*
X425987Y9292D01*
X425911Y9128D01*
X425900Y9106D01*
X425867Y9051D01*
X425823Y8975D01*
X425758Y8865D01*
X425670Y8734D01*
X425572Y8603D01*
X425452Y8450D01*
X425320Y8297D01*
X425299Y8275D01*
X425255Y8231D01*
X425178Y8155D01*
X425069Y8057D01*
X424949Y7936D01*
X424796Y7794D01*
X424632Y7652D01*
X424446Y7510D01*
X424424Y7488D01*
X424359Y7445D01*
X424260Y7368D01*
X424118Y7270D01*
X423965Y7149D01*
X423779Y7007D01*
X423583Y6865D01*
X423364Y6712D01*
Y6690D01*
X423430D01*
X423484Y6701D01*
X423626D01*
X423801Y6712D01*
X423998Y6723D01*
X424217D01*
X424446Y6734D01*
X426632D01*
Y5838D01*
X421768D01*
Y6472D01*
X421779Y6483D01*
X421801Y6494D01*
X421834Y6526D01*
X421888Y6559D01*
X421954Y6614D01*
X422031Y6668D01*
X422205Y6800D01*
X422413Y6953D01*
X422632Y7117D01*
X423102Y7466D01*
X423113Y7477D01*
X423135Y7488D01*
X423156Y7510D01*
X423200Y7543D01*
X423320Y7641D01*
X423462Y7750D01*
X423626Y7893D01*
X423801Y8046D01*
X423976Y8199D01*
X424151Y8363D01*
X424173Y8384D01*
X424228Y8439D01*
X424304Y8516D01*
X424402Y8625D01*
X424523Y8756D01*
X424632Y8898D01*
X424752Y9040D01*
X424851Y9193D01*
X424861Y9215D01*
X424894Y9259D01*
X424938Y9346D01*
X424982Y9445D01*
X425025Y9565D01*
X425069Y9707D01*
X425102Y9849D01*
X425113Y10002D01*
Y10013D01*
Y10024D01*
Y10090D01*
X425091Y10188D01*
X425069Y10308D01*
X425025Y10450D01*
X424960Y10592D01*
X424872Y10723D01*
X424752Y10844D01*
X424741Y10855D01*
X424686Y10887D01*
X424610Y10942D01*
X424490Y10997D01*
X424348Y11040D01*
X424173Y11095D01*
X423976Y11128D01*
X423736Y11139D01*
X423648D01*
X423561Y11128D01*
X423441Y11117D01*
X423287Y11095D01*
X423135Y11073D01*
X422960Y11029D01*
X422785Y10986D01*
X422763Y10975D01*
X422708Y10964D01*
X422610Y10931D01*
X422490Y10898D01*
X422347Y10844D01*
X422194Y10778D01*
X422020Y10713D01*
X421834Y10636D01*
Y11456D01*
X421856Y11467D01*
X421899Y11489D01*
X421976Y11532D01*
X422085Y11576D01*
X422205Y11631D01*
X422359Y11696D01*
X422533Y11762D01*
X422719Y11817D01*
X422730D01*
X422741Y11827D01*
X422774D01*
X422807Y11838D01*
X422916Y11871D01*
X423058Y11904D01*
X423233Y11926D01*
X423430Y11959D01*
X423648Y11970D01*
X423878Y11981D01*
X423965D01*
X424053Y11970D01*
D02*
G37*
G36*
X410259D02*
X410357Y11959D01*
X410467Y11937D01*
X410718Y11882D01*
X410729D01*
X410773Y11860D01*
X410849Y11838D01*
X410926Y11806D01*
X411024Y11762D01*
X411133Y11707D01*
X411254Y11642D01*
X411363Y11554D01*
X411374Y11543D01*
X411417Y11511D01*
X411472Y11456D01*
X411538Y11390D01*
X411625Y11292D01*
X411702Y11183D01*
X411789Y11051D01*
X411866Y10909D01*
X411877Y10887D01*
X411898Y10833D01*
X411931Y10745D01*
X411964Y10625D01*
X411997Y10461D01*
X412030Y10286D01*
X412051Y10068D01*
X412062Y9838D01*
Y5838D01*
X411090D01*
Y9674D01*
Y9696D01*
Y9740D01*
Y9816D01*
X411079Y9904D01*
X411068Y10013D01*
X411057Y10122D01*
X411035Y10232D01*
X411002Y10341D01*
Y10352D01*
X410991Y10385D01*
X410969Y10439D01*
X410937Y10505D01*
X410860Y10647D01*
X410751Y10789D01*
X410740Y10800D01*
X410718Y10822D01*
X410685Y10855D01*
X410641Y10887D01*
X410521Y10975D01*
X410357Y11051D01*
X410346D01*
X410324Y11062D01*
X410270Y11084D01*
X410215Y11095D01*
X410139Y11117D01*
X410062Y11128D01*
X409866Y11139D01*
X409778D01*
X409680Y11128D01*
X409549Y11106D01*
X409396Y11073D01*
X409242Y11019D01*
X409068Y10953D01*
X408904Y10855D01*
X408882Y10844D01*
X408827Y10800D01*
X408751Y10734D01*
X408652Y10647D01*
X408532Y10538D01*
X408401Y10407D01*
X408270Y10254D01*
X408139Y10079D01*
Y5838D01*
X407166D01*
Y9674D01*
Y9696D01*
Y9740D01*
Y9816D01*
X407155Y9904D01*
X407144Y10013D01*
X407133Y10122D01*
X407111Y10232D01*
X407078Y10341D01*
Y10352D01*
X407067Y10385D01*
X407046Y10439D01*
X407013Y10505D01*
X406936Y10647D01*
X406827Y10789D01*
X406816Y10800D01*
X406794Y10822D01*
X406761Y10855D01*
X406718Y10887D01*
X406597Y10975D01*
X406433Y11051D01*
X406423D01*
X406401Y11062D01*
X406346Y11084D01*
X406291Y11095D01*
X406215Y11117D01*
X406138Y11128D01*
X405942Y11139D01*
X405854D01*
X405756Y11128D01*
X405625Y11106D01*
X405482Y11073D01*
X405319Y11019D01*
X405155Y10953D01*
X404991Y10855D01*
X404969Y10844D01*
X404914Y10800D01*
X404838Y10734D01*
X404739Y10647D01*
X404619Y10538D01*
X404488Y10407D01*
X404357Y10254D01*
X404226Y10079D01*
Y5838D01*
X403253D01*
Y11817D01*
X404007D01*
X404193Y10986D01*
X404215D01*
X404226Y10997D01*
X404247Y11019D01*
X404280Y11062D01*
X404324Y11117D01*
X404433Y11237D01*
X404564Y11368D01*
X404575Y11379D01*
X404597Y11401D01*
X404641Y11434D01*
X404696Y11478D01*
X404827Y11576D01*
X404991Y11685D01*
X405002Y11696D01*
X405034Y11707D01*
X405078Y11740D01*
X405144Y11762D01*
X405220Y11806D01*
X405319Y11838D01*
X405515Y11904D01*
X405526D01*
X405570Y11915D01*
X405625Y11926D01*
X405701Y11948D01*
X405789Y11959D01*
X405898Y11970D01*
X406127Y11981D01*
X406237D01*
X406357Y11959D01*
X406521Y11937D01*
X406685Y11904D01*
X406871Y11838D01*
X407057Y11762D01*
X407231Y11653D01*
X407253Y11642D01*
X407308Y11598D01*
X407384Y11521D01*
X407483Y11423D01*
X407592Y11292D01*
X407712Y11150D01*
X407822Y10975D01*
X407920Y10778D01*
X407942D01*
Y10789D01*
X407964Y10800D01*
X408018Y10866D01*
X408095Y10975D01*
X408204Y11095D01*
X408346Y11237D01*
X408499Y11379D01*
X408663Y11521D01*
X408849Y11653D01*
X408860D01*
X408871Y11664D01*
X408904Y11685D01*
X408936Y11707D01*
X409046Y11762D01*
X409188Y11817D01*
X409374Y11882D01*
X409570Y11926D01*
X409800Y11970D01*
X410051Y11981D01*
X410172D01*
X410259Y11970D01*
D02*
G37*
G36*
X371348Y14407D02*
X371436D01*
X371621Y14385D01*
X371665D01*
X371720Y14374D01*
X371785D01*
X371938Y14352D01*
X372113Y14320D01*
X372124D01*
X372157Y14309D01*
X372201D01*
X372255Y14298D01*
X372397Y14265D01*
X372551Y14232D01*
X372561D01*
X372583Y14221D01*
X372627Y14210D01*
X372671Y14199D01*
X372791Y14155D01*
X372911Y14112D01*
Y13205D01*
X372889Y13216D01*
X372846Y13227D01*
X372758Y13248D01*
X372660Y13281D01*
X372529Y13314D01*
X372387Y13347D01*
X372223Y13379D01*
X372059Y13412D01*
X372037D01*
X371982Y13423D01*
X371895Y13445D01*
X371774Y13456D01*
X371643Y13478D01*
X371490Y13489D01*
X371326Y13500D01*
X371031D01*
X370966Y13489D01*
X370900D01*
X370725Y13467D01*
X370517Y13445D01*
X370299Y13401D01*
X370058Y13347D01*
X369829Y13270D01*
X369818D01*
X369807Y13259D01*
X369774Y13248D01*
X369730Y13227D01*
X369610Y13183D01*
X369468Y13106D01*
X369293Y13008D01*
X369118Y12899D01*
X368933Y12756D01*
X368758Y12604D01*
X368736Y12582D01*
X368681Y12527D01*
X368594Y12429D01*
X368495Y12308D01*
X368375Y12144D01*
X368255Y11959D01*
X368146Y11751D01*
X368036Y11511D01*
Y11500D01*
X368025Y11478D01*
X368015Y11445D01*
X367993Y11390D01*
X367982Y11336D01*
X367960Y11259D01*
X367938Y11172D01*
X367916Y11073D01*
X367862Y10844D01*
X367829Y10592D01*
X367796Y10297D01*
X367785Y9980D01*
Y9969D01*
Y9937D01*
Y9893D01*
Y9838D01*
X367796Y9762D01*
Y9674D01*
X367818Y9466D01*
X367840Y9226D01*
X367883Y8975D01*
X367949Y8723D01*
X368025Y8472D01*
Y8461D01*
X368036Y8439D01*
X368047Y8406D01*
X368069Y8363D01*
X368124Y8253D01*
X368200Y8100D01*
X368299Y7936D01*
X368419Y7762D01*
X368561Y7576D01*
X368714Y7412D01*
X368736Y7390D01*
X368791Y7346D01*
X368889Y7270D01*
X369020Y7182D01*
X369173Y7084D01*
X369359Y6974D01*
X369556Y6887D01*
X369785Y6800D01*
X369796D01*
X369818Y6789D01*
X369851Y6778D01*
X369895Y6767D01*
X369960Y6756D01*
X370026Y6734D01*
X370200Y6701D01*
X370408Y6668D01*
X370649Y6636D01*
X370900Y6614D01*
X371184Y6603D01*
X371326D01*
X371468Y6614D01*
X371632Y6625D01*
X371676D01*
X371720Y6636D01*
X371785D01*
X371851Y6647D01*
X371938Y6657D01*
X372113Y6679D01*
X372124D01*
X372157Y6690D01*
X372201Y6701D01*
X372266Y6712D01*
X372408Y6745D01*
X372572Y6778D01*
X372583D01*
X372616Y6789D01*
X372660Y6800D01*
X372714Y6811D01*
X372846Y6854D01*
X372988Y6898D01*
Y5980D01*
X372966Y5969D01*
X372922Y5958D01*
X372846Y5936D01*
X372736Y5903D01*
X372605Y5860D01*
X372463Y5827D01*
X372288Y5794D01*
X372113Y5761D01*
X372091D01*
X372026Y5750D01*
X371938Y5739D01*
X371807Y5728D01*
X371654Y5707D01*
X371490Y5696D01*
X371304Y5685D01*
X370933D01*
X370834Y5696D01*
X370736D01*
X370616Y5707D01*
X370485Y5718D01*
X370190Y5750D01*
X369873Y5805D01*
X369556Y5871D01*
X369239Y5969D01*
X369228D01*
X369206Y5980D01*
X369162Y6002D01*
X369108Y6024D01*
X369031Y6056D01*
X368954Y6089D01*
X368769Y6188D01*
X368550Y6308D01*
X368320Y6450D01*
X368091Y6614D01*
X367872Y6811D01*
X367862Y6821D01*
X367851Y6832D01*
X367818Y6865D01*
X367785Y6909D01*
X367741Y6964D01*
X367687Y7029D01*
X367566Y7182D01*
X367435Y7379D01*
X367293Y7609D01*
X367162Y7860D01*
X367042Y8144D01*
Y8155D01*
X367031Y8177D01*
X367020Y8220D01*
X366998Y8286D01*
X366976Y8363D01*
X366954Y8450D01*
X366932Y8548D01*
X366911Y8669D01*
X366878Y8800D01*
X366856Y8931D01*
X366812Y9237D01*
X366779Y9576D01*
X366769Y9937D01*
Y9947D01*
Y9980D01*
Y10035D01*
Y10101D01*
X366779Y10188D01*
Y10286D01*
X366790Y10407D01*
X366801Y10527D01*
X366845Y10811D01*
X366889Y11117D01*
X366965Y11423D01*
X367064Y11740D01*
Y11751D01*
X367074Y11773D01*
X367096Y11817D01*
X367118Y11882D01*
X367151Y11948D01*
X367184Y12035D01*
X367282Y12232D01*
X367402Y12450D01*
X367555Y12691D01*
X367730Y12931D01*
X367927Y13161D01*
X367938Y13172D01*
X367949Y13183D01*
X367982Y13216D01*
X368025Y13259D01*
X368080Y13303D01*
X368146Y13369D01*
X368310Y13500D01*
X368506Y13642D01*
X368747Y13795D01*
X369009Y13948D01*
X369293Y14079D01*
X369304D01*
X369326Y14090D01*
X369370Y14112D01*
X369435Y14134D01*
X369512Y14155D01*
X369599Y14188D01*
X369709Y14221D01*
X369818Y14254D01*
X369949Y14276D01*
X370091Y14309D01*
X370397Y14363D01*
X370736Y14407D01*
X371097Y14418D01*
X371261D01*
X371348Y14407D01*
D02*
G37*
G36*
X382486D02*
X382573D01*
X382759Y14385D01*
X382803D01*
X382857Y14374D01*
X382923D01*
X383076Y14352D01*
X383251Y14320D01*
X383262D01*
X383295Y14309D01*
X383338D01*
X383393Y14298D01*
X383535Y14265D01*
X383688Y14232D01*
X383699D01*
X383721Y14221D01*
X383765Y14210D01*
X383808Y14199D01*
X383929Y14155D01*
X384049Y14112D01*
Y13205D01*
X384027Y13216D01*
X383983Y13227D01*
X383896Y13248D01*
X383797Y13281D01*
X383666Y13314D01*
X383524Y13347D01*
X383360Y13379D01*
X383196Y13412D01*
X383174D01*
X383120Y13423D01*
X383032Y13445D01*
X382912Y13456D01*
X382781Y13478D01*
X382628Y13489D01*
X382464Y13500D01*
X382169D01*
X382103Y13489D01*
X382038D01*
X381863Y13467D01*
X381655Y13445D01*
X381436Y13401D01*
X381196Y13347D01*
X380967Y13270D01*
X380956D01*
X380945Y13259D01*
X380912Y13248D01*
X380868Y13227D01*
X380748Y13183D01*
X380606Y13106D01*
X380431Y13008D01*
X380256Y12899D01*
X380070Y12756D01*
X379895Y12604D01*
X379873Y12582D01*
X379819Y12527D01*
X379731Y12429D01*
X379633Y12308D01*
X379513Y12144D01*
X379393Y11959D01*
X379283Y11751D01*
X379174Y11511D01*
Y11500D01*
X379163Y11478D01*
X379152Y11445D01*
X379130Y11390D01*
X379119Y11336D01*
X379098Y11259D01*
X379076Y11172D01*
X379054Y11073D01*
X378999Y10844D01*
X378966Y10592D01*
X378934Y10297D01*
X378923Y9980D01*
Y9969D01*
Y9937D01*
Y9893D01*
Y9838D01*
X378934Y9762D01*
Y9674D01*
X378955Y9466D01*
X378977Y9226D01*
X379021Y8975D01*
X379087Y8723D01*
X379163Y8472D01*
Y8461D01*
X379174Y8439D01*
X379185Y8406D01*
X379207Y8363D01*
X379261Y8253D01*
X379338Y8100D01*
X379436Y7936D01*
X379557Y7762D01*
X379699Y7576D01*
X379852Y7412D01*
X379873Y7390D01*
X379928Y7346D01*
X380027Y7270D01*
X380158Y7182D01*
X380311Y7084D01*
X380497Y6974D01*
X380693Y6887D01*
X380923Y6800D01*
X380934D01*
X380956Y6789D01*
X380988Y6778D01*
X381032Y6767D01*
X381098Y6756D01*
X381163Y6734D01*
X381338Y6701D01*
X381546Y6668D01*
X381786Y6636D01*
X382038Y6614D01*
X382322Y6603D01*
X382464D01*
X382606Y6614D01*
X382770Y6625D01*
X382814D01*
X382857Y6636D01*
X382923D01*
X382989Y6647D01*
X383076Y6657D01*
X383251Y6679D01*
X383262D01*
X383295Y6690D01*
X383338Y6701D01*
X383404Y6712D01*
X383546Y6745D01*
X383710Y6778D01*
X383721D01*
X383754Y6789D01*
X383797Y6800D01*
X383852Y6811D01*
X383983Y6854D01*
X384125Y6898D01*
Y5980D01*
X384103Y5969D01*
X384060Y5958D01*
X383983Y5936D01*
X383874Y5903D01*
X383743Y5860D01*
X383601Y5827D01*
X383426Y5794D01*
X383251Y5761D01*
X383229D01*
X383163Y5750D01*
X383076Y5739D01*
X382945Y5728D01*
X382792Y5707D01*
X382628Y5696D01*
X382442Y5685D01*
X382070D01*
X381972Y5696D01*
X381874D01*
X381753Y5707D01*
X381622Y5718D01*
X381327Y5750D01*
X381010Y5805D01*
X380693Y5871D01*
X380376Y5969D01*
X380365D01*
X380344Y5980D01*
X380300Y6002D01*
X380245Y6024D01*
X380169Y6056D01*
X380092Y6089D01*
X379906Y6188D01*
X379688Y6308D01*
X379458Y6450D01*
X379229Y6614D01*
X379010Y6811D01*
X378999Y6821D01*
X378988Y6832D01*
X378955Y6865D01*
X378923Y6909D01*
X378879Y6964D01*
X378824Y7029D01*
X378704Y7182D01*
X378573Y7379D01*
X378431Y7609D01*
X378300Y7860D01*
X378179Y8144D01*
Y8155D01*
X378169Y8177D01*
X378157Y8220D01*
X378136Y8286D01*
X378114Y8363D01*
X378092Y8450D01*
X378070Y8548D01*
X378048Y8669D01*
X378015Y8800D01*
X377994Y8931D01*
X377950Y9237D01*
X377917Y9576D01*
X377906Y9937D01*
Y9947D01*
Y9980D01*
Y10035D01*
Y10101D01*
X377917Y10188D01*
Y10286D01*
X377928Y10407D01*
X377939Y10527D01*
X377983Y10811D01*
X378026Y11117D01*
X378103Y11423D01*
X378201Y11740D01*
Y11751D01*
X378212Y11773D01*
X378234Y11817D01*
X378256Y11882D01*
X378289Y11948D01*
X378322Y12035D01*
X378420Y12232D01*
X378540Y12450D01*
X378693Y12691D01*
X378868Y12931D01*
X379065Y13161D01*
X379076Y13172D01*
X379087Y13183D01*
X379119Y13216D01*
X379163Y13259D01*
X379218Y13303D01*
X379283Y13369D01*
X379447Y13500D01*
X379644Y13642D01*
X379885Y13795D01*
X380147Y13948D01*
X380431Y14079D01*
X380442D01*
X380464Y14090D01*
X380507Y14112D01*
X380573Y14134D01*
X380650Y14155D01*
X380737Y14188D01*
X380846Y14221D01*
X380956Y14254D01*
X381087Y14276D01*
X381229Y14309D01*
X381535Y14363D01*
X381874Y14407D01*
X382234Y14418D01*
X382398D01*
X382486Y14407D01*
D02*
G37*
G36*
X269503Y224366D02*
Y228303D01*
X273440D01*
X269503Y224366D01*
D02*
G37*
G36*
X416041Y11970D02*
X416183Y11959D01*
X416336Y11937D01*
X416664Y11882D01*
X416686D01*
X416740Y11860D01*
X416817Y11838D01*
X416926Y11817D01*
X417046Y11784D01*
X417167Y11740D01*
X417440Y11642D01*
Y10822D01*
X417429Y10833D01*
X417374Y10844D01*
X417298Y10876D01*
X417210Y10909D01*
X417090Y10942D01*
X416970Y10975D01*
X416686Y11051D01*
X416664D01*
X416620Y11062D01*
X416544Y11084D01*
X416445Y11095D01*
X416325Y11117D01*
X416194Y11128D01*
X415910Y11150D01*
X415790D01*
X415713Y11139D01*
X415615Y11128D01*
X415527Y11117D01*
X415331Y11073D01*
X415319D01*
X415287Y11062D01*
X415243Y11051D01*
X415188Y11029D01*
X415057Y10964D01*
X414926Y10876D01*
X414915D01*
X414904Y10855D01*
X414839Y10800D01*
X414773Y10702D01*
X414708Y10592D01*
Y10581D01*
X414697Y10560D01*
X414686Y10527D01*
X414675Y10483D01*
X414653Y10363D01*
X414642Y10221D01*
Y10210D01*
Y10177D01*
X414653Y10133D01*
Y10079D01*
X414686Y9947D01*
X414740Y9816D01*
Y9805D01*
X414762Y9794D01*
X414817Y9729D01*
X414904Y9641D01*
X415024Y9565D01*
X415035D01*
X415057Y9554D01*
X415090Y9532D01*
X415145Y9510D01*
X415265Y9456D01*
X415429Y9401D01*
X415440D01*
X415473Y9390D01*
X415516Y9379D01*
X415571Y9368D01*
X415647Y9346D01*
X415724Y9335D01*
X415910Y9292D01*
X415921D01*
X415964Y9281D01*
X416030Y9259D01*
X416117Y9248D01*
X416216Y9215D01*
X416325Y9193D01*
X416544Y9128D01*
X416555D01*
X416598Y9117D01*
X416653Y9095D01*
X416729Y9062D01*
X416817Y9018D01*
X416904Y8975D01*
X417101Y8855D01*
X417112Y8844D01*
X417145Y8822D01*
X417189Y8778D01*
X417254Y8723D01*
X417320Y8647D01*
X417385Y8559D01*
X417451Y8461D01*
X417517Y8352D01*
X417527Y8341D01*
X417538Y8297D01*
X417571Y8231D01*
X417604Y8133D01*
X417626Y8024D01*
X417659Y7882D01*
X417669Y7729D01*
X417680Y7554D01*
Y7532D01*
Y7477D01*
X417669Y7390D01*
X417659Y7281D01*
X417637Y7160D01*
X417604Y7018D01*
X417560Y6876D01*
X417495Y6745D01*
X417484Y6734D01*
X417462Y6690D01*
X417418Y6625D01*
X417364Y6537D01*
X417298Y6450D01*
X417210Y6352D01*
X417112Y6253D01*
X417003Y6155D01*
X416992Y6144D01*
X416948Y6122D01*
X416883Y6078D01*
X416784Y6024D01*
X416675Y5969D01*
X416544Y5914D01*
X416402Y5860D01*
X416238Y5805D01*
X416216D01*
X416161Y5783D01*
X416063Y5772D01*
X415943Y5750D01*
X415801Y5728D01*
X415636Y5707D01*
X415451Y5696D01*
X415254Y5685D01*
X415134D01*
X415057Y5696D01*
X414959D01*
X414860Y5707D01*
X414653Y5728D01*
X414642D01*
X414609Y5739D01*
X414554D01*
X414500Y5750D01*
X414347Y5772D01*
X414183Y5805D01*
X414172D01*
X414150Y5816D01*
X414117Y5827D01*
X414063Y5838D01*
X413953Y5871D01*
X413833Y5903D01*
X413822D01*
X413811Y5914D01*
X413757Y5947D01*
X413680Y5980D01*
X413603Y6013D01*
Y6832D01*
X413625Y6821D01*
X413669Y6811D01*
X413735Y6778D01*
X413833Y6745D01*
X413942Y6712D01*
X414063Y6668D01*
X414325Y6592D01*
X414347D01*
X414391Y6581D01*
X414467Y6570D01*
X414565Y6559D01*
X414686Y6537D01*
X414828Y6526D01*
X414970Y6515D01*
X415254D01*
X415341Y6526D01*
X415440D01*
X415549Y6537D01*
X415757Y6570D01*
X415768D01*
X415801Y6581D01*
X415855Y6603D01*
X415921Y6614D01*
X416085Y6679D01*
X416238Y6756D01*
X416249Y6767D01*
X416270Y6778D01*
X416314Y6811D01*
X416358Y6843D01*
X416456Y6942D01*
X416555Y7073D01*
Y7084D01*
X416576Y7106D01*
X416587Y7149D01*
X416609Y7193D01*
X416631Y7259D01*
X416642Y7335D01*
X416664Y7499D01*
Y7510D01*
Y7543D01*
Y7587D01*
X416653Y7641D01*
X416620Y7783D01*
X416555Y7914D01*
Y7925D01*
X416533Y7947D01*
X416489Y8013D01*
X416402Y8100D01*
X416292Y8188D01*
X416281D01*
X416259Y8210D01*
X416227Y8231D01*
X416183Y8253D01*
X416063Y8308D01*
X415910Y8363D01*
X415899D01*
X415877Y8374D01*
X415833Y8384D01*
X415768Y8406D01*
X415702Y8417D01*
X415626Y8439D01*
X415451Y8483D01*
X415440D01*
X415396Y8494D01*
X415331Y8516D01*
X415254Y8538D01*
X415156Y8559D01*
X415046Y8581D01*
X414806Y8647D01*
X414795D01*
X414751Y8669D01*
X414686Y8691D01*
X414609Y8712D01*
X414522Y8756D01*
X414423Y8800D01*
X414216Y8909D01*
X414205Y8920D01*
X414172Y8942D01*
X414128Y8986D01*
X414063Y9029D01*
X413997Y9106D01*
X413920Y9182D01*
X413855Y9270D01*
X413789Y9379D01*
X413778Y9390D01*
X413767Y9434D01*
X413735Y9499D01*
X413713Y9587D01*
X413680Y9696D01*
X413647Y9827D01*
X413636Y9969D01*
X413625Y10133D01*
Y10144D01*
Y10155D01*
Y10210D01*
X413636Y10297D01*
X413647Y10407D01*
X413669Y10538D01*
X413691Y10669D01*
X413735Y10811D01*
X413789Y10942D01*
X413800Y10953D01*
X413822Y10997D01*
X413855Y11062D01*
X413910Y11150D01*
X413975Y11237D01*
X414063Y11336D01*
X414150Y11434D01*
X414248Y11521D01*
X414259Y11532D01*
X414303Y11554D01*
X414358Y11598D01*
X414445Y11653D01*
X414543Y11707D01*
X414664Y11762D01*
X414784Y11817D01*
X414926Y11860D01*
X414948Y11871D01*
X414992Y11882D01*
X415068Y11904D01*
X415167Y11926D01*
X415287Y11948D01*
X415429Y11959D01*
X415582Y11981D01*
X415921D01*
X416041Y11970D01*
D02*
G37*
G36*
X362856Y14407D02*
X363019D01*
X363216Y14385D01*
X363424Y14363D01*
X363643Y14330D01*
X363861Y14287D01*
X363872D01*
X363883Y14276D01*
X363916D01*
X363960Y14265D01*
X364069Y14232D01*
X364222Y14199D01*
X364386Y14145D01*
X364561Y14090D01*
X364932Y13948D01*
Y12997D01*
X364921D01*
X364910Y13008D01*
X364845Y13030D01*
X364736Y13073D01*
X364604Y13128D01*
X364440Y13183D01*
X364255Y13237D01*
X364058Y13292D01*
X363850Y13347D01*
X363839D01*
X363828Y13358D01*
X363795D01*
X363752Y13369D01*
X363643Y13390D01*
X363490Y13423D01*
X363315Y13445D01*
X363118Y13467D01*
X362888Y13489D01*
X362659Y13500D01*
X362484D01*
X362375Y13489D01*
X362244Y13478D01*
X362101Y13456D01*
X361959Y13423D01*
X361828Y13390D01*
X361817D01*
X361773Y13369D01*
X361708Y13347D01*
X361620Y13314D01*
X361533Y13270D01*
X361435Y13227D01*
X361238Y13095D01*
X361227Y13084D01*
X361205Y13062D01*
X361161Y13019D01*
X361107Y12964D01*
X361052Y12899D01*
X360997Y12822D01*
X360943Y12735D01*
X360899Y12636D01*
Y12625D01*
X360877Y12593D01*
X360866Y12527D01*
X360844Y12461D01*
X360823Y12363D01*
X360812Y12265D01*
X360790Y12144D01*
Y12024D01*
Y12013D01*
Y11959D01*
X360801Y11893D01*
X360812Y11806D01*
X360823Y11707D01*
X360855Y11609D01*
X360888Y11511D01*
X360932Y11412D01*
X360943Y11401D01*
X360965Y11368D01*
X360997Y11325D01*
X361041Y11270D01*
X361096Y11204D01*
X361172Y11139D01*
X361336Y11008D01*
X361347Y10997D01*
X361380Y10986D01*
X361435Y10953D01*
X361511Y10920D01*
X361599Y10876D01*
X361697Y10833D01*
X361927Y10756D01*
X361937D01*
X361981Y10745D01*
X362058Y10723D01*
X362145Y10702D01*
X362244Y10669D01*
X362364Y10636D01*
X362626Y10571D01*
X362648D01*
X362714Y10549D01*
X362812Y10527D01*
X362932Y10494D01*
X363074Y10450D01*
X363238Y10407D01*
X363588Y10297D01*
X363599D01*
X363610Y10286D01*
X363664Y10275D01*
X363763Y10243D01*
X363872Y10199D01*
X364003Y10144D01*
X364156Y10068D01*
X364298Y9991D01*
X364440Y9904D01*
X364462Y9893D01*
X364506Y9860D01*
X364571Y9805D01*
X364659Y9729D01*
X364746Y9630D01*
X364856Y9521D01*
X364954Y9390D01*
X365041Y9237D01*
X365053Y9215D01*
X365074Y9161D01*
X365118Y9073D01*
X365162Y8953D01*
X365195Y8800D01*
X365238Y8625D01*
X365260Y8417D01*
X365271Y8188D01*
Y8177D01*
Y8155D01*
Y8122D01*
Y8078D01*
X365260Y7958D01*
X365238Y7805D01*
X365206Y7619D01*
X365162Y7434D01*
X365107Y7237D01*
X365020Y7051D01*
X365009Y7029D01*
X364976Y6974D01*
X364921Y6887D01*
X364845Y6778D01*
X364746Y6657D01*
X364626Y6526D01*
X364484Y6395D01*
X364331Y6275D01*
X364309Y6264D01*
X364255Y6231D01*
X364156Y6177D01*
X364036Y6111D01*
X363883Y6035D01*
X363708Y5969D01*
X363511Y5892D01*
X363293Y5838D01*
X363282D01*
X363271Y5827D01*
X363238D01*
X363194Y5816D01*
X363129Y5805D01*
X363063Y5794D01*
X362910Y5761D01*
X362714Y5728D01*
X362495Y5707D01*
X362244Y5696D01*
X361981Y5685D01*
X361861D01*
X361773Y5696D01*
X361675D01*
X361566Y5707D01*
X361314Y5728D01*
X361303D01*
X361260Y5739D01*
X361194Y5750D01*
X361107Y5761D01*
X361008Y5772D01*
X360899Y5794D01*
X360659Y5838D01*
X360648D01*
X360604Y5849D01*
X360549Y5860D01*
X360473Y5881D01*
X360385Y5903D01*
X360298Y5925D01*
X360101Y5991D01*
X360090D01*
X360057Y6002D01*
X360014Y6024D01*
X359959Y6045D01*
X359828Y6100D01*
X359697Y6166D01*
Y7106D01*
X359708D01*
X359740Y7084D01*
X359784Y7062D01*
X359850Y7029D01*
X359926Y6996D01*
X360014Y6964D01*
X360210Y6887D01*
X360221D01*
X360265Y6876D01*
X360320Y6854D01*
X360385Y6832D01*
X360473Y6811D01*
X360571Y6789D01*
X360790Y6734D01*
X360801D01*
X360844Y6723D01*
X360899Y6712D01*
X360986Y6701D01*
X361074Y6679D01*
X361172Y6668D01*
X361402Y6636D01*
X361456D01*
X361511Y6625D01*
X361599D01*
X361686Y6614D01*
X361784D01*
X361981Y6603D01*
X362145D01*
X362254Y6614D01*
X362386D01*
X362528Y6636D01*
X362823Y6668D01*
X362845D01*
X362888Y6679D01*
X362965Y6701D01*
X363063Y6734D01*
X363173Y6767D01*
X363293Y6811D01*
X363522Y6920D01*
X363533Y6931D01*
X363577Y6953D01*
X363632Y6996D01*
X363697Y7051D01*
X363774Y7117D01*
X363850Y7193D01*
X363938Y7292D01*
X364003Y7401D01*
X364014Y7412D01*
X364036Y7455D01*
X364058Y7521D01*
X364102Y7609D01*
X364134Y7718D01*
X364156Y7849D01*
X364178Y8002D01*
X364189Y8166D01*
Y8188D01*
Y8231D01*
X364178Y8297D01*
X364167Y8384D01*
X364145Y8483D01*
X364123Y8581D01*
X364080Y8680D01*
X364025Y8778D01*
X364014Y8789D01*
X363992Y8822D01*
X363960Y8865D01*
X363916Y8920D01*
X363861Y8986D01*
X363785Y9062D01*
X363708Y9128D01*
X363610Y9193D01*
X363599Y9204D01*
X363566Y9226D01*
X363511Y9248D01*
X363446Y9292D01*
X363358Y9324D01*
X363260Y9368D01*
X363140Y9412D01*
X363019Y9456D01*
X363009D01*
X362965Y9477D01*
X362888Y9488D01*
X362801Y9521D01*
X362702Y9543D01*
X362582Y9576D01*
X362309Y9641D01*
X362287Y9652D01*
X362222Y9663D01*
X362134Y9685D01*
X362014Y9718D01*
X361861Y9751D01*
X361708Y9794D01*
X361358Y9893D01*
X361336Y9904D01*
X361282Y9915D01*
X361194Y9947D01*
X361074Y9991D01*
X360943Y10057D01*
X360801Y10122D01*
X360659Y10199D01*
X360517Y10286D01*
X360506Y10297D01*
X360451Y10330D01*
X360385Y10385D01*
X360309Y10461D01*
X360210Y10560D01*
X360112Y10669D01*
X360014Y10789D01*
X359926Y10931D01*
X359915Y10953D01*
X359893Y11008D01*
X359861Y11095D01*
X359817Y11215D01*
X359773Y11357D01*
X359740Y11532D01*
X359719Y11729D01*
X359708Y11948D01*
Y11959D01*
Y11981D01*
Y12013D01*
Y12057D01*
X359719Y12177D01*
X359740Y12330D01*
X359762Y12505D01*
X359806Y12691D01*
X359861Y12877D01*
X359937Y13052D01*
Y13062D01*
X359948Y13073D01*
X359981Y13128D01*
X360036Y13216D01*
X360101Y13325D01*
X360189Y13445D01*
X360298Y13576D01*
X360429Y13697D01*
X360571Y13817D01*
X360593Y13828D01*
X360648Y13871D01*
X360724Y13926D01*
X360834Y13992D01*
X360976Y14057D01*
X361129Y14134D01*
X361303Y14210D01*
X361489Y14265D01*
X361500D01*
X361511Y14276D01*
X361544D01*
X361577Y14287D01*
X361686Y14309D01*
X361828Y14341D01*
X361992Y14374D01*
X362189Y14396D01*
X362397Y14407D01*
X362615Y14418D01*
X362790D01*
X362856Y14407D01*
D02*
G37*
G36*
X356636D02*
X356724D01*
X356910Y14385D01*
X356953D01*
X357008Y14374D01*
X357074D01*
X357227Y14352D01*
X357401Y14320D01*
X357412D01*
X357445Y14309D01*
X357489D01*
X357544Y14298D01*
X357686Y14265D01*
X357839Y14232D01*
X357850D01*
X357872Y14221D01*
X357915Y14210D01*
X357959Y14199D01*
X358079Y14155D01*
X358199Y14112D01*
Y13205D01*
X358177Y13216D01*
X358134Y13227D01*
X358046Y13248D01*
X357948Y13281D01*
X357817Y13314D01*
X357675Y13347D01*
X357511Y13379D01*
X357347Y13412D01*
X357325D01*
X357270Y13423D01*
X357183Y13445D01*
X357063Y13456D01*
X356931Y13478D01*
X356779Y13489D01*
X356614Y13500D01*
X356319D01*
X356254Y13489D01*
X356188D01*
X356013Y13467D01*
X355806Y13445D01*
X355587Y13401D01*
X355347Y13347D01*
X355117Y13270D01*
X355106D01*
X355095Y13259D01*
X355062Y13248D01*
X355019Y13227D01*
X354899Y13183D01*
X354756Y13106D01*
X354581Y13008D01*
X354407Y12899D01*
X354221Y12756D01*
X354046Y12604D01*
X354024Y12582D01*
X353970Y12527D01*
X353882Y12429D01*
X353784Y12308D01*
X353663Y12144D01*
X353543Y11959D01*
X353434Y11751D01*
X353325Y11511D01*
Y11500D01*
X353314Y11478D01*
X353303Y11445D01*
X353281Y11390D01*
X353270Y11336D01*
X353248Y11259D01*
X353226Y11172D01*
X353204Y11073D01*
X353150Y10844D01*
X353117Y10592D01*
X353084Y10297D01*
X353073Y9980D01*
Y9969D01*
Y9937D01*
Y9893D01*
Y9838D01*
X353084Y9762D01*
Y9674D01*
X353106Y9466D01*
X353128Y9226D01*
X353172Y8975D01*
X353237Y8723D01*
X353314Y8472D01*
Y8461D01*
X353325Y8439D01*
X353335Y8406D01*
X353357Y8363D01*
X353412Y8253D01*
X353488Y8100D01*
X353587Y7936D01*
X353707Y7762D01*
X353849Y7576D01*
X354002Y7412D01*
X354024Y7390D01*
X354079Y7346D01*
X354177Y7270D01*
X354308Y7182D01*
X354461Y7084D01*
X354647Y6974D01*
X354844Y6887D01*
X355073Y6800D01*
X355084D01*
X355106Y6789D01*
X355139Y6778D01*
X355183Y6767D01*
X355248Y6756D01*
X355314Y6734D01*
X355489Y6701D01*
X355696Y6668D01*
X355937Y6636D01*
X356188Y6614D01*
X356472Y6603D01*
X356614D01*
X356757Y6614D01*
X356921Y6625D01*
X356964D01*
X357008Y6636D01*
X357074D01*
X357139Y6647D01*
X357227Y6657D01*
X357401Y6679D01*
X357412D01*
X357445Y6690D01*
X357489Y6701D01*
X357555Y6712D01*
X357697Y6745D01*
X357860Y6778D01*
X357872D01*
X357904Y6789D01*
X357948Y6800D01*
X358003Y6811D01*
X358134Y6854D01*
X358276Y6898D01*
Y5980D01*
X358254Y5969D01*
X358210Y5958D01*
X358134Y5936D01*
X358025Y5903D01*
X357893Y5860D01*
X357751Y5827D01*
X357576Y5794D01*
X357401Y5761D01*
X357380D01*
X357314Y5750D01*
X357227Y5739D01*
X357095Y5728D01*
X356942Y5707D01*
X356779Y5696D01*
X356593Y5685D01*
X356221D01*
X356123Y5696D01*
X356024D01*
X355904Y5707D01*
X355773Y5718D01*
X355478Y5750D01*
X355161Y5805D01*
X354844Y5871D01*
X354527Y5969D01*
X354516D01*
X354494Y5980D01*
X354450Y6002D01*
X354396Y6024D01*
X354319Y6056D01*
X354243Y6089D01*
X354057Y6188D01*
X353838Y6308D01*
X353609Y6450D01*
X353379Y6614D01*
X353161Y6811D01*
X353150Y6821D01*
X353139Y6832D01*
X353106Y6865D01*
X353073Y6909D01*
X353029Y6964D01*
X352975Y7029D01*
X352855Y7182D01*
X352723Y7379D01*
X352581Y7609D01*
X352450Y7860D01*
X352330Y8144D01*
Y8155D01*
X352319Y8177D01*
X352308Y8220D01*
X352286Y8286D01*
X352264Y8363D01*
X352242Y8450D01*
X352221Y8548D01*
X352199Y8669D01*
X352166Y8800D01*
X352144Y8931D01*
X352100Y9237D01*
X352068Y9576D01*
X352057Y9937D01*
Y9947D01*
Y9980D01*
Y10035D01*
Y10101D01*
X352068Y10188D01*
Y10286D01*
X352079Y10407D01*
X352090Y10527D01*
X352133Y10811D01*
X352177Y11117D01*
X352253Y11423D01*
X352352Y11740D01*
Y11751D01*
X352363Y11773D01*
X352385Y11817D01*
X352407Y11882D01*
X352439Y11948D01*
X352472Y12035D01*
X352570Y12232D01*
X352691Y12450D01*
X352844Y12691D01*
X353018Y12931D01*
X353215Y13161D01*
X353226Y13172D01*
X353237Y13183D01*
X353270Y13216D01*
X353314Y13259D01*
X353368Y13303D01*
X353434Y13369D01*
X353598Y13500D01*
X353795Y13642D01*
X354035Y13795D01*
X354297Y13948D01*
X354581Y14079D01*
X354592D01*
X354614Y14090D01*
X354658Y14112D01*
X354724Y14134D01*
X354800Y14155D01*
X354888Y14188D01*
X354997Y14221D01*
X355106Y14254D01*
X355237Y14276D01*
X355379Y14309D01*
X355685Y14363D01*
X356024Y14407D01*
X356385Y14418D01*
X356549D01*
X356636Y14407D01*
D02*
G37*
G36*
X471248Y25357D02*
X465378D01*
Y17717D01*
X462056D01*
Y25357D01*
X456175D01*
Y27302D01*
X471248D01*
Y25357D01*
D02*
G37*
G36*
X400279Y21127D02*
Y21105D01*
Y21039D01*
X400268Y20941D01*
X400257Y20821D01*
X400246Y20657D01*
X400214Y20482D01*
X400181Y20285D01*
X400126Y20077D01*
X400061Y19859D01*
X399984Y19640D01*
X399886Y19411D01*
X399766Y19192D01*
X399623Y18984D01*
X399460Y18788D01*
X399274Y18613D01*
X399055Y18460D01*
X399044Y18449D01*
X399001Y18427D01*
X398924Y18394D01*
X398815Y18339D01*
X398673Y18285D01*
X398498Y18230D01*
X398290Y18154D01*
X398039Y18088D01*
X397755Y18023D01*
X397427Y17957D01*
X397066Y17891D01*
X396661Y17837D01*
X396213Y17782D01*
X395973Y17760D01*
X395722Y17749D01*
X395459Y17738D01*
X395186Y17728D01*
X394902Y17717D01*
X389448D01*
X389371Y17728D01*
X389163D01*
X388912Y17738D01*
X388628Y17760D01*
X388311Y17782D01*
X387972Y17815D01*
X387622Y17859D01*
X387262Y17913D01*
X386890Y17968D01*
X386540Y18044D01*
X386191Y18143D01*
X385874Y18241D01*
X385578Y18361D01*
X385316Y18504D01*
X385305Y18514D01*
X385262Y18536D01*
X385196Y18591D01*
X385119Y18656D01*
X385021Y18744D01*
X384912Y18853D01*
X384791Y18973D01*
X384671Y19127D01*
X384551Y19301D01*
X384431Y19487D01*
X384321Y19706D01*
X384223Y19946D01*
X384147Y20198D01*
X384081Y20482D01*
X384037Y20799D01*
X384026Y21127D01*
Y27302D01*
X387360D01*
Y21345D01*
Y21334D01*
Y21302D01*
Y21247D01*
X387371Y21181D01*
X387382Y21105D01*
X387393Y21007D01*
X387448Y20799D01*
X387524Y20580D01*
X387579Y20460D01*
X387633Y20351D01*
X387710Y20252D01*
X387797Y20154D01*
X387896Y20066D01*
X388016Y19990D01*
X388027D01*
X388049Y19979D01*
X388092Y19957D01*
X388147Y19935D01*
X388224Y19914D01*
X388311Y19881D01*
X388431Y19848D01*
X388562Y19815D01*
X388715Y19782D01*
X388890Y19749D01*
X389076Y19717D01*
X389295Y19695D01*
X389535Y19673D01*
X389797Y19651D01*
X390093Y19640D01*
X394159D01*
X394268Y19651D01*
X394410D01*
X394563Y19662D01*
X394727Y19673D01*
X394902Y19684D01*
X395284Y19728D01*
X395656Y19793D01*
X395842Y19837D01*
X396006Y19881D01*
X396159Y19935D01*
X396290Y20001D01*
X396301D01*
X396323Y20023D01*
X396356Y20045D01*
X396388Y20077D01*
X396498Y20165D01*
X396552Y20230D01*
X396618Y20307D01*
X396683Y20394D01*
X396738Y20493D01*
X396793Y20602D01*
X396847Y20722D01*
X396880Y20864D01*
X396913Y21017D01*
X396935Y21181D01*
X396946Y21356D01*
Y27302D01*
X400279D01*
Y21127D01*
D02*
G37*
G36*
X455694Y17717D02*
X451803D01*
X450087Y20023D01*
X441628D01*
X439933Y17717D01*
X436020D01*
X443234Y27302D01*
X448513D01*
X455694Y17717D01*
D02*
G37*
G36*
X430162Y27291D02*
X430249D01*
X430468Y27280D01*
X430719Y27269D01*
X430993Y27248D01*
X431299Y27215D01*
X431605Y27182D01*
X431922Y27138D01*
X432250Y27084D01*
X432567Y27018D01*
X432884Y26941D01*
X433179Y26854D01*
X433463Y26756D01*
X433714Y26635D01*
X433725Y26625D01*
X433769Y26603D01*
X433834Y26570D01*
X433911Y26515D01*
X434009Y26439D01*
X434119Y26351D01*
X434228Y26253D01*
X434348Y26133D01*
X434468Y25991D01*
X434578Y25837D01*
X434687Y25674D01*
X434785Y25488D01*
X434862Y25291D01*
X434927Y25072D01*
X434971Y24832D01*
X434982Y24581D01*
X431386D01*
Y24591D01*
Y24602D01*
Y24657D01*
X431364Y24734D01*
X431342Y24843D01*
X431299Y24941D01*
X431244Y25051D01*
X431157Y25149D01*
X431047Y25225D01*
X431036Y25236D01*
X430982Y25258D01*
X430938Y25269D01*
X430894Y25280D01*
X430829Y25302D01*
X430752Y25313D01*
X430665Y25335D01*
X430566Y25346D01*
X430457Y25357D01*
X430337Y25379D01*
X430195Y25389D01*
X430042D01*
X429867Y25400D01*
X423932D01*
X423866Y25389D01*
X423790D01*
X423615Y25379D01*
X423418Y25357D01*
X423221Y25313D01*
X423025Y25269D01*
X422850Y25204D01*
X422828Y25193D01*
X422784Y25171D01*
X422719Y25116D01*
X422642Y25051D01*
X422566Y24952D01*
X422500Y24821D01*
X422456Y24679D01*
X422434Y24493D01*
Y24482D01*
Y24471D01*
X422445Y24406D01*
X422456Y24318D01*
X422489Y24209D01*
X422544Y24100D01*
X422620Y23979D01*
X422730Y23881D01*
X422883Y23805D01*
X422893D01*
X422948Y23783D01*
X423036Y23772D01*
X423156Y23750D01*
X423320Y23728D01*
X423407Y23717D01*
X423517Y23706D01*
X423637Y23695D01*
X423768D01*
X423910Y23684D01*
X424063D01*
X430249Y23509D01*
X430490D01*
X430665Y23498D01*
X430883D01*
X431124Y23488D01*
X431386Y23466D01*
X431670Y23444D01*
X431954Y23422D01*
X432261Y23389D01*
X432556Y23346D01*
X432840Y23302D01*
X433113Y23247D01*
X433375Y23181D01*
X433605Y23105D01*
X433802Y23018D01*
X433813Y23007D01*
X433856Y22985D01*
X433911Y22952D01*
X433987Y22897D01*
X434075Y22821D01*
X434184Y22733D01*
X434283Y22624D01*
X434403Y22493D01*
X434512Y22340D01*
X434621Y22165D01*
X434720Y21968D01*
X434807Y21750D01*
X434884Y21509D01*
X434938Y21247D01*
X434982Y20952D01*
X434993Y20624D01*
Y20602D01*
Y20558D01*
X434982Y20471D01*
Y20372D01*
X434960Y20241D01*
X434938Y20099D01*
X434906Y19935D01*
X434862Y19760D01*
X434807Y19575D01*
X434731Y19389D01*
X434654Y19203D01*
X434545Y19017D01*
X434425Y18842D01*
X434283Y18678D01*
X434119Y18525D01*
X433933Y18383D01*
X433922Y18372D01*
X433878Y18350D01*
X433823Y18318D01*
X433725Y18285D01*
X433616Y18230D01*
X433463Y18176D01*
X433288Y18110D01*
X433091Y18055D01*
X432851Y17990D01*
X432588Y17924D01*
X432293Y17870D01*
X431954Y17826D01*
X431594Y17782D01*
X431200Y17749D01*
X430774Y17728D01*
X430304Y17717D01*
X423134D01*
X422959Y17728D01*
X422751Y17738D01*
X422511Y17749D01*
X422238Y17771D01*
X421953Y17793D01*
X421658Y17826D01*
X421352Y17870D01*
X421046Y17924D01*
X420751Y17990D01*
X420467Y18055D01*
X420194Y18143D01*
X419953Y18241D01*
X419735Y18350D01*
X419724Y18361D01*
X419691Y18383D01*
X419636Y18416D01*
X419571Y18471D01*
X419494Y18547D01*
X419407Y18635D01*
X419309Y18733D01*
X419221Y18853D01*
X419123Y18995D01*
X419024Y19148D01*
X418937Y19312D01*
X418860Y19509D01*
X418795Y19706D01*
X418740Y19935D01*
X418707Y20176D01*
X418696Y20438D01*
X422096Y20427D01*
Y20416D01*
X422107Y20372D01*
X422118Y20307D01*
X422150Y20230D01*
X422205Y20132D01*
X422281Y20045D01*
X422391Y19946D01*
X422544Y19859D01*
X422566Y19848D01*
X422631Y19826D01*
X422730Y19793D01*
X422861Y19749D01*
X423036Y19706D01*
X423243Y19673D01*
X423473Y19651D01*
X423735Y19640D01*
X429506D01*
X429604Y19651D01*
X429714D01*
X429834Y19662D01*
X429965D01*
X430238Y19684D01*
X430512Y19728D01*
X430774Y19771D01*
X430894Y19804D01*
X430993Y19837D01*
X431004D01*
X431014Y19848D01*
X431069Y19881D01*
X431157Y19935D01*
X431255Y20012D01*
X431342Y20110D01*
X431430Y20252D01*
X431485Y20405D01*
X431506Y20504D01*
Y20602D01*
Y20613D01*
Y20624D01*
X431495Y20689D01*
X431485Y20788D01*
X431452Y20908D01*
X431397Y21028D01*
X431320Y21159D01*
X431211Y21280D01*
X431058Y21378D01*
X431047D01*
X431036Y21389D01*
X431004Y21400D01*
X430960Y21422D01*
X430894Y21444D01*
X430818Y21465D01*
X430730Y21498D01*
X430632Y21520D01*
X430512Y21542D01*
X430370Y21575D01*
X430217Y21597D01*
X430053Y21619D01*
X429856Y21640D01*
X429659Y21651D01*
X429430Y21662D01*
X429189D01*
X423834Y21815D01*
X423451D01*
X423342Y21826D01*
X423101D01*
X422828Y21837D01*
X422522Y21848D01*
X422194Y21870D01*
X421866Y21892D01*
X421527Y21925D01*
X421188Y21957D01*
X420860Y22001D01*
X420554Y22056D01*
X420281Y22110D01*
X420030Y22187D01*
X419920Y22220D01*
X419822Y22263D01*
X419811Y22274D01*
X419768Y22285D01*
X419713Y22329D01*
X419636Y22373D01*
X419549Y22438D01*
X419451Y22526D01*
X419352Y22624D01*
X419243Y22755D01*
X419134Y22886D01*
X419035Y23050D01*
X418937Y23236D01*
X418849Y23444D01*
X418773Y23673D01*
X418718Y23925D01*
X418675Y24209D01*
X418664Y24515D01*
Y24537D01*
Y24581D01*
X418675Y24657D01*
X418685Y24766D01*
X418696Y24887D01*
X418729Y25029D01*
X418762Y25182D01*
X418806Y25357D01*
X418871Y25532D01*
X418948Y25706D01*
X419035Y25892D01*
X419144Y26067D01*
X419276Y26231D01*
X419429Y26395D01*
X419615Y26537D01*
X419811Y26668D01*
X419822Y26679D01*
X419866Y26701D01*
X419932Y26723D01*
X420030Y26767D01*
X420161Y26810D01*
X420325Y26865D01*
X420511Y26930D01*
X420729Y26985D01*
X420981Y27040D01*
X421265Y27105D01*
X421582Y27160D01*
X421943Y27204D01*
X422325Y27248D01*
X422741Y27280D01*
X423200Y27291D01*
X423691Y27302D01*
X430075D01*
X430162Y27291D01*
D02*
G37*
G36*
X416718Y25400D02*
X405777D01*
Y23630D01*
X416368D01*
Y21706D01*
X405777D01*
Y19640D01*
X416718D01*
Y17717D01*
X402454D01*
Y27302D01*
X416718D01*
Y25400D01*
D02*
G37*
%LPC*%
G36*
X446010Y25510D02*
X445847D01*
X443081Y21946D01*
X448645D01*
X446010Y25510D01*
D02*
G37*
G36*
X231444Y260746D02*
X231280D01*
X228514Y257183D01*
X234078D01*
X231444Y260746D01*
D02*
G37*
G36*
X363052Y21772D02*
X355707D01*
Y19640D01*
X363139D01*
X363216Y19651D01*
X363292D01*
X363467Y19673D01*
X363664Y19706D01*
X363872Y19749D01*
X364068Y19804D01*
X364232Y19892D01*
X364254Y19903D01*
X364298Y19946D01*
X364363Y20012D01*
X364440Y20099D01*
X364505Y20220D01*
X364571Y20372D01*
X364615Y20558D01*
X364637Y20766D01*
Y20777D01*
Y20788D01*
X364626Y20853D01*
X364615Y20952D01*
X364582Y21072D01*
X364538Y21203D01*
X364462Y21334D01*
X364352Y21444D01*
X364210Y21542D01*
X364189Y21553D01*
X364134Y21575D01*
X364035Y21619D01*
X363893Y21662D01*
X363707Y21695D01*
X363598Y21717D01*
X363478Y21739D01*
X363347Y21750D01*
X363205Y21761D01*
X363052Y21772D01*
D02*
G37*
G36*
X148485Y257008D02*
X141140D01*
Y254876D01*
X148572D01*
X148649Y254887D01*
X148725D01*
X148900Y254909D01*
X149097Y254942D01*
X149305Y254986D01*
X149501Y255040D01*
X149665Y255128D01*
X149687Y255139D01*
X149731Y255183D01*
X149796Y255248D01*
X149873Y255335D01*
X149938Y255456D01*
X150004Y255609D01*
X150048Y255795D01*
X150070Y256002D01*
Y256013D01*
Y256024D01*
X150059Y256090D01*
X150048Y256188D01*
X150015Y256308D01*
X149971Y256439D01*
X149895Y256571D01*
X149785Y256680D01*
X149643Y256778D01*
X149621Y256789D01*
X149567Y256811D01*
X149469Y256855D01*
X149326Y256898D01*
X149141Y256931D01*
X149031Y256953D01*
X148911Y256975D01*
X148780Y256986D01*
X148638Y256997D01*
X148485Y257008D01*
D02*
G37*
G36*
X187003Y246386D02*
X186937D01*
X186861Y246375D01*
X186762Y246364D01*
X186653Y246342D01*
X186533Y246320D01*
X186401Y246277D01*
X186270Y246222D01*
X186259Y246211D01*
X186216Y246189D01*
X186150Y246156D01*
X186074Y246113D01*
X185986Y246047D01*
X185888Y245971D01*
X185789Y245883D01*
X185691Y245774D01*
X185680Y245763D01*
X185647Y245719D01*
X185604Y245654D01*
X185560Y245577D01*
X185494Y245468D01*
X185429Y245337D01*
X185374Y245195D01*
X185319Y245042D01*
Y245020D01*
X185298Y244965D01*
X185276Y244878D01*
X185254Y244757D01*
X185232Y244615D01*
X185210Y244451D01*
X185199Y244266D01*
X185188Y244058D01*
Y244047D01*
Y244036D01*
Y243970D01*
X185199Y243861D01*
X185210Y243730D01*
X185221Y243577D01*
X185243Y243413D01*
X185276Y243238D01*
X185319Y243074D01*
X185330Y243052D01*
X185341Y243009D01*
X185374Y242921D01*
X185418Y242823D01*
X185473Y242713D01*
X185527Y242593D01*
X185604Y242473D01*
X185691Y242353D01*
X185702Y242342D01*
X185735Y242309D01*
X185789Y242254D01*
X185855Y242189D01*
X185942Y242112D01*
X186041Y242036D01*
X186150Y241970D01*
X186270Y241905D01*
X186281Y241894D01*
X186325Y241883D01*
X186401Y241861D01*
X186489Y241828D01*
X186598Y241795D01*
X186729Y241774D01*
X186861Y241763D01*
X187014Y241752D01*
X187079D01*
X187156Y241763D01*
X187254Y241774D01*
X187363Y241785D01*
X187484Y241817D01*
X187615Y241850D01*
X187735Y241905D01*
X187746Y241916D01*
X187790Y241937D01*
X187855Y241970D01*
X187932Y242014D01*
X188019Y242080D01*
X188118Y242156D01*
X188205Y242254D01*
X188303Y242353D01*
X188314Y242364D01*
X188347Y242407D01*
X188391Y242473D01*
X188445Y242549D01*
X188511Y242659D01*
X188577Y242779D01*
X188631Y242921D01*
X188686Y243074D01*
X188697Y243096D01*
X188708Y243151D01*
X188730Y243238D01*
X188762Y243358D01*
X188784Y243511D01*
X188806Y243675D01*
X188817Y243861D01*
X188828Y244058D01*
Y244069D01*
Y244080D01*
Y244112D01*
Y244156D01*
X188817Y244255D01*
X188806Y244386D01*
X188795Y244539D01*
X188773Y244714D01*
X188730Y244878D01*
X188686Y245042D01*
X188675Y245063D01*
X188664Y245118D01*
X188631Y245195D01*
X188587Y245293D01*
X188533Y245413D01*
X188467Y245533D01*
X188391Y245654D01*
X188303Y245774D01*
X188292Y245785D01*
X188260Y245818D01*
X188205Y245872D01*
X188139Y245938D01*
X188052Y246014D01*
X187954Y246091D01*
X187844Y246156D01*
X187724Y246222D01*
X187713Y246233D01*
X187669Y246244D01*
X187604Y246277D01*
X187516Y246309D01*
X187407Y246331D01*
X187287Y246364D01*
X187145Y246375D01*
X187003Y246386D01*
D02*
G37*
G36*
X388180Y11150D02*
X388115D01*
X388038Y11139D01*
X387940Y11128D01*
X387831Y11106D01*
X387710Y11084D01*
X387579Y11040D01*
X387448Y10986D01*
X387437Y10975D01*
X387393Y10953D01*
X387328Y10920D01*
X387251Y10876D01*
X387164Y10811D01*
X387066Y10734D01*
X386967Y10647D01*
X386869Y10538D01*
X386858Y10527D01*
X386825Y10483D01*
X386781Y10418D01*
X386738Y10341D01*
X386672Y10232D01*
X386606Y10101D01*
X386552Y9958D01*
X386497Y9805D01*
Y9783D01*
X386475Y9729D01*
X386453Y9641D01*
X386432Y9521D01*
X386410Y9379D01*
X386388Y9215D01*
X386377Y9029D01*
X386366Y8822D01*
Y8811D01*
Y8800D01*
Y8734D01*
X386377Y8625D01*
X386388Y8494D01*
X386399Y8341D01*
X386421Y8177D01*
X386453Y8002D01*
X386497Y7838D01*
X386508Y7816D01*
X386519Y7772D01*
X386552Y7685D01*
X386596Y7587D01*
X386650Y7477D01*
X386705Y7357D01*
X386781Y7237D01*
X386869Y7117D01*
X386880Y7106D01*
X386912Y7073D01*
X386967Y7018D01*
X387033Y6953D01*
X387120Y6876D01*
X387218Y6800D01*
X387328Y6734D01*
X387448Y6668D01*
X387459Y6657D01*
X387503Y6647D01*
X387579Y6625D01*
X387667Y6592D01*
X387776Y6559D01*
X387907Y6537D01*
X388038Y6526D01*
X388191Y6515D01*
X388257D01*
X388333Y6526D01*
X388432Y6537D01*
X388541Y6548D01*
X388661Y6581D01*
X388792Y6614D01*
X388913Y6668D01*
X388924Y6679D01*
X388967Y6701D01*
X389033Y6734D01*
X389109Y6778D01*
X389197Y6843D01*
X389295Y6920D01*
X389383Y7018D01*
X389481Y7117D01*
X389492Y7128D01*
X389525Y7171D01*
X389568Y7237D01*
X389623Y7313D01*
X389689Y7423D01*
X389754Y7543D01*
X389809Y7685D01*
X389864Y7838D01*
X389875Y7860D01*
X389885Y7914D01*
X389907Y8002D01*
X389940Y8122D01*
X389962Y8275D01*
X389984Y8439D01*
X389995Y8625D01*
X390006Y8822D01*
Y8833D01*
Y8844D01*
Y8876D01*
Y8920D01*
X389995Y9018D01*
X389984Y9150D01*
X389973Y9303D01*
X389951Y9477D01*
X389907Y9641D01*
X389864Y9805D01*
X389853Y9827D01*
X389842Y9882D01*
X389809Y9958D01*
X389765Y10057D01*
X389711Y10177D01*
X389645Y10297D01*
X389568Y10418D01*
X389481Y10538D01*
X389470Y10549D01*
X389437Y10581D01*
X389383Y10636D01*
X389317Y10702D01*
X389230Y10778D01*
X389131Y10855D01*
X389022Y10920D01*
X388902Y10986D01*
X388891Y10997D01*
X388847Y11008D01*
X388781Y11040D01*
X388694Y11073D01*
X388585Y11095D01*
X388464Y11128D01*
X388322Y11139D01*
X388180Y11150D01*
D02*
G37*
G36*
X362494Y25400D02*
X355707D01*
Y23695D01*
X362636D01*
X362768Y23706D01*
X362931Y23717D01*
X363106Y23739D01*
X363281Y23772D01*
X363456Y23816D01*
X363598Y23870D01*
X363609Y23881D01*
X363653Y23903D01*
X363707Y23947D01*
X363773Y24023D01*
X363839Y24111D01*
X363893Y24231D01*
X363937Y24362D01*
X363948Y24537D01*
Y24559D01*
Y24613D01*
X363926Y24690D01*
X363904Y24788D01*
X363861Y24897D01*
X363795Y25007D01*
X363697Y25105D01*
X363576Y25193D01*
X363555Y25204D01*
X363511Y25225D01*
X363423Y25258D01*
X363303Y25302D01*
X363150Y25335D01*
X362964Y25368D01*
X362746Y25389D01*
X362494Y25400D01*
D02*
G37*
G36*
X151644Y243927D02*
X151546D01*
X151436Y243916D01*
X151294Y243894D01*
X151141Y243861D01*
X150977Y243807D01*
X150824Y243741D01*
X150682Y243653D01*
X150671Y243642D01*
X150628Y243610D01*
X150573Y243544D01*
X150507Y243457D01*
X150442Y243337D01*
X150387Y243205D01*
X150343Y243041D01*
X150332Y242845D01*
Y242834D01*
Y242801D01*
Y242746D01*
X150343Y242681D01*
X150365Y242517D01*
X150420Y242353D01*
Y242342D01*
X150442Y242320D01*
X150453Y242276D01*
X150486Y242233D01*
X150562Y242123D01*
X150660Y242014D01*
X150671D01*
X150693Y241992D01*
X150715Y241970D01*
X150759Y241937D01*
X150879Y241872D01*
X151021Y241817D01*
X151032D01*
X151054Y241806D01*
X151098Y241795D01*
X151152Y241785D01*
X151218Y241774D01*
X151294Y241763D01*
X151469Y241752D01*
X151578D01*
X151666Y241763D01*
X151753Y241774D01*
X151852Y241785D01*
X152049Y241839D01*
X152059D01*
X152092Y241850D01*
X152147Y241872D01*
X152213Y241894D01*
X152366Y241959D01*
X152529Y242047D01*
X152540Y242058D01*
X152562Y242069D01*
X152606Y242091D01*
X152650Y242123D01*
X152770Y242211D01*
X152879Y242298D01*
X152890Y242309D01*
X152901Y242320D01*
X152967Y242375D01*
X153043Y242440D01*
X153109Y242506D01*
Y243697D01*
X153098D01*
X153065Y243708D01*
X152999Y243730D01*
X152923Y243741D01*
X152836Y243763D01*
X152726Y243785D01*
X152595Y243817D01*
X152464Y243839D01*
X152442D01*
X152398Y243850D01*
X152322Y243861D01*
X152223Y243883D01*
X152103Y243894D01*
X151961Y243905D01*
X151808Y243916D01*
X151644Y243927D01*
D02*
G37*
G36*
X239926Y246386D02*
X239860D01*
X239784Y246375D01*
X239685Y246364D01*
X239576Y246342D01*
X239456Y246320D01*
X239325Y246277D01*
X239204Y246222D01*
X239193Y246211D01*
X239150Y246189D01*
X239095Y246156D01*
X239019Y246102D01*
X238931Y246036D01*
X238844Y245960D01*
X238745Y245861D01*
X238658Y245752D01*
X238647Y245741D01*
X238625Y245697D01*
X238581Y245632D01*
X238527Y245555D01*
X238472Y245446D01*
X238417Y245315D01*
X238363Y245173D01*
X238308Y245020D01*
Y244998D01*
X238286Y244943D01*
X238275Y244856D01*
X238253Y244736D01*
X238232Y244594D01*
X238221Y244429D01*
X238199Y244255D01*
Y244058D01*
Y244047D01*
Y244036D01*
Y243970D01*
X238210Y243861D01*
Y243741D01*
X238232Y243588D01*
X238253Y243424D01*
X238275Y243249D01*
X238319Y243085D01*
X238330Y243063D01*
X238341Y243020D01*
X238374Y242932D01*
X238406Y242834D01*
X238450Y242724D01*
X238516Y242604D01*
X238581Y242484D01*
X238658Y242364D01*
X238669Y242353D01*
X238702Y242320D01*
X238745Y242265D01*
X238811Y242200D01*
X238887Y242123D01*
X238986Y242047D01*
X239095Y241970D01*
X239204Y241905D01*
X239215Y241894D01*
X239259Y241883D01*
X239325Y241861D01*
X239423Y241828D01*
X239521Y241795D01*
X239652Y241774D01*
X239784Y241763D01*
X239926Y241752D01*
X239991D01*
X240068Y241763D01*
X240166Y241774D01*
X240276Y241785D01*
X240396Y241817D01*
X240516Y241850D01*
X240636Y241905D01*
X240647Y241916D01*
X240691Y241937D01*
X240756Y241970D01*
X240833Y242025D01*
X240909Y242091D01*
X241008Y242167D01*
X241095Y242254D01*
X241183Y242364D01*
X241194Y242375D01*
X241215Y242418D01*
X241259Y242484D01*
X241314Y242561D01*
X241369Y242670D01*
X241423Y242790D01*
X241478Y242932D01*
X241532Y243085D01*
X241543Y243107D01*
X241554Y243162D01*
X241576Y243249D01*
X241598Y243369D01*
X241620Y243511D01*
X241631Y243675D01*
X241653Y243861D01*
Y244058D01*
Y244069D01*
Y244080D01*
Y244145D01*
X241642Y244255D01*
Y244375D01*
X241620Y244528D01*
X241598Y244692D01*
X241565Y244856D01*
X241522Y245020D01*
Y245042D01*
X241500Y245096D01*
X241467Y245173D01*
X241434Y245271D01*
X241379Y245391D01*
X241325Y245512D01*
X241248Y245632D01*
X241172Y245752D01*
X241161Y245763D01*
X241128Y245807D01*
X241084Y245861D01*
X241019Y245927D01*
X240942Y246003D01*
X240855Y246080D01*
X240745Y246156D01*
X240636Y246222D01*
X240625Y246233D01*
X240581Y246244D01*
X240516Y246277D01*
X240428Y246309D01*
X240319Y246331D01*
X240199Y246364D01*
X240068Y246375D01*
X239926Y246386D01*
D02*
G37*
G36*
X147927Y260636D02*
X141140D01*
Y258931D01*
X148070D01*
X148201Y258942D01*
X148365Y258953D01*
X148539Y258975D01*
X148714Y259008D01*
X148889Y259052D01*
X149031Y259106D01*
X149042Y259117D01*
X149086Y259139D01*
X149141Y259183D01*
X149206Y259259D01*
X149272Y259347D01*
X149326Y259467D01*
X149370Y259598D01*
X149381Y259773D01*
Y259795D01*
Y259850D01*
X149359Y259926D01*
X149337Y260024D01*
X149294Y260134D01*
X149228Y260243D01*
X149130Y260341D01*
X149010Y260429D01*
X148988Y260440D01*
X148944Y260462D01*
X148856Y260494D01*
X148736Y260538D01*
X148583Y260571D01*
X148397Y260604D01*
X148179Y260626D01*
X147927Y260636D01*
D02*
G37*
G36*
X193987Y246375D02*
X193910D01*
X193823Y246364D01*
X193703Y246353D01*
X193572Y246331D01*
X193430Y246288D01*
X193277Y246244D01*
X193123Y246178D01*
X193102Y246167D01*
X193058Y246146D01*
X192981Y246102D01*
X192894Y246047D01*
X192785Y245982D01*
X192664Y245894D01*
X192544Y245796D01*
X192424Y245687D01*
Y242561D01*
X192435Y242539D01*
X192490Y242484D01*
X192555Y242396D01*
X192654Y242298D01*
X192664Y242287D01*
X192675Y242276D01*
X192708Y242244D01*
X192752Y242211D01*
X192850Y242123D01*
X192981Y242036D01*
X192992D01*
X193014Y242014D01*
X193058Y241992D01*
X193113Y241970D01*
X193178Y241937D01*
X193255Y241894D01*
X193419Y241828D01*
X193430D01*
X193462Y241817D01*
X193517Y241806D01*
X193582Y241795D01*
X193659Y241774D01*
X193746Y241763D01*
X193954Y241752D01*
X194031D01*
X194107Y241763D01*
X194217Y241774D01*
X194337Y241795D01*
X194457Y241817D01*
X194588Y241861D01*
X194719Y241916D01*
X194730Y241927D01*
X194774Y241948D01*
X194840Y241992D01*
X194916Y242047D01*
X195003Y242112D01*
X195102Y242189D01*
X195189Y242287D01*
X195277Y242396D01*
X195288Y242407D01*
X195309Y242451D01*
X195353Y242517D01*
X195408Y242604D01*
X195463Y242713D01*
X195517Y242845D01*
X195572Y242987D01*
X195615Y243140D01*
X195626Y243162D01*
X195637Y243216D01*
X195659Y243304D01*
X195681Y243424D01*
X195703Y243555D01*
X195714Y243719D01*
X195736Y243905D01*
Y244091D01*
Y244102D01*
Y244124D01*
Y244156D01*
Y244211D01*
X195725Y244342D01*
X195714Y244506D01*
X195692Y244681D01*
X195659Y244878D01*
X195615Y245063D01*
X195561Y245238D01*
X195550Y245260D01*
X195528Y245315D01*
X195495Y245391D01*
X195451Y245490D01*
X195386Y245599D01*
X195309Y245719D01*
X195233Y245829D01*
X195135Y245927D01*
X195124Y245938D01*
X195091Y245971D01*
X195036Y246014D01*
X194971Y246069D01*
X194883Y246124D01*
X194785Y246178D01*
X194686Y246233D01*
X194577Y246277D01*
X194566D01*
X194523Y246288D01*
X194468Y246309D01*
X194391Y246331D01*
X194304Y246342D01*
X194205Y246364D01*
X193987Y246375D01*
D02*
G37*
G36*
X200785Y246386D02*
X200720D01*
X200643Y246375D01*
X200545Y246364D01*
X200436Y246342D01*
X200315Y246320D01*
X200184Y246277D01*
X200053Y246222D01*
X200042Y246211D01*
X199998Y246189D01*
X199933Y246156D01*
X199856Y246113D01*
X199769Y246047D01*
X199671Y245971D01*
X199572Y245883D01*
X199474Y245774D01*
X199463Y245763D01*
X199430Y245719D01*
X199386Y245654D01*
X199343Y245577D01*
X199277Y245468D01*
X199212Y245337D01*
X199157Y245195D01*
X199102Y245042D01*
Y245020D01*
X199080Y244965D01*
X199058Y244878D01*
X199037Y244757D01*
X199015Y244615D01*
X198993Y244451D01*
X198982Y244266D01*
X198971Y244058D01*
Y244047D01*
Y244036D01*
Y243970D01*
X198982Y243861D01*
X198993Y243730D01*
X199004Y243577D01*
X199026Y243413D01*
X199058Y243238D01*
X199102Y243074D01*
X199113Y243052D01*
X199124Y243009D01*
X199157Y242921D01*
X199200Y242823D01*
X199255Y242713D01*
X199310Y242593D01*
X199386Y242473D01*
X199474Y242353D01*
X199485Y242342D01*
X199518Y242309D01*
X199572Y242254D01*
X199638Y242189D01*
X199725Y242112D01*
X199824Y242036D01*
X199933Y241970D01*
X200053Y241905D01*
X200064Y241894D01*
X200108Y241883D01*
X200184Y241861D01*
X200272Y241828D01*
X200381Y241795D01*
X200512Y241774D01*
X200643Y241763D01*
X200796Y241752D01*
X200862D01*
X200938Y241763D01*
X201037Y241774D01*
X201146Y241785D01*
X201266Y241817D01*
X201397Y241850D01*
X201518Y241905D01*
X201529Y241916D01*
X201572Y241937D01*
X201638Y241970D01*
X201714Y242014D01*
X201802Y242080D01*
X201900Y242156D01*
X201988Y242254D01*
X202086Y242353D01*
X202097Y242364D01*
X202130Y242407D01*
X202173Y242473D01*
X202228Y242549D01*
X202294Y242659D01*
X202359Y242779D01*
X202414Y242921D01*
X202469Y243074D01*
X202480Y243096D01*
X202490Y243151D01*
X202512Y243238D01*
X202545Y243358D01*
X202567Y243511D01*
X202589Y243675D01*
X202600Y243861D01*
X202611Y244058D01*
Y244069D01*
Y244080D01*
Y244112D01*
Y244156D01*
X202600Y244255D01*
X202589Y244386D01*
X202578Y244539D01*
X202556Y244714D01*
X202512Y244878D01*
X202469Y245042D01*
X202458Y245063D01*
X202447Y245118D01*
X202414Y245195D01*
X202370Y245293D01*
X202316Y245413D01*
X202250Y245533D01*
X202173Y245654D01*
X202086Y245774D01*
X202075Y245785D01*
X202042Y245818D01*
X201988Y245872D01*
X201922Y245938D01*
X201835Y246014D01*
X201736Y246091D01*
X201627Y246156D01*
X201507Y246222D01*
X201496Y246233D01*
X201452Y246244D01*
X201386Y246277D01*
X201299Y246309D01*
X201190Y246331D01*
X201070Y246364D01*
X200927Y246375D01*
X200785Y246386D01*
D02*
G37*
%LPD*%
D18*
X130600Y250917D02*
G03*
X130600Y250917I-24606J0D01*
G01*
D19*
X115945Y-32646D02*
Y13354D01*
X41142D02*
X115945D01*
X41142Y-32646D02*
Y13354D01*
Y-32646D02*
X115945D01*
X198819D02*
Y13354D01*
X124016D02*
X198819D01*
X124016Y-32646D02*
Y13354D01*
Y-32646D02*
X198819D01*
X279528D02*
Y13354D01*
X204724D02*
X279528D01*
X204724Y-32646D02*
Y13354D01*
Y-32646D02*
X279528D01*
X673204Y99035D02*
X678204D01*
X698204D02*
X703204D01*
X698204Y49035D02*
X703204D01*
X673204D02*
X678204D01*
X28605Y344630D02*
X301834D01*
X28605Y283882D02*
X301834D01*
Y344630D01*
X28605Y283882D02*
Y344630D01*
X264700Y104365D02*
X265700Y105364D01*
X267699D01*
X268699Y104365D01*
Y103365D01*
X267699Y102365D01*
X266699D01*
X267699D01*
X268699Y101365D01*
Y100366D01*
X267699Y99366D01*
X265700D01*
X264700Y100366D01*
X270698Y105364D02*
Y101365D01*
X272697Y99366D01*
X274697Y101365D01*
Y105364D01*
X276696Y104365D02*
X277696Y105364D01*
X279695D01*
X280695Y104365D01*
Y103365D01*
X279695Y102365D01*
X278696D01*
X279695D01*
X280695Y101365D01*
Y100366D01*
X279695Y99366D01*
X277696D01*
X276696Y100366D01*
X268699Y93160D02*
X264700D01*
Y90161D01*
X266699Y91160D01*
X267699D01*
X268699Y90161D01*
Y88161D01*
X267699Y87161D01*
X265700D01*
X264700Y88161D01*
X270698Y93160D02*
Y89161D01*
X272697Y87161D01*
X274697Y89161D01*
Y93160D01*
X276696Y92160D02*
X277696Y93160D01*
X279695D01*
X280695Y92160D01*
Y88161D01*
X279695Y87161D01*
X277696D01*
X276696Y88161D01*
Y92160D01*
X661204Y233033D02*
X665203D01*
X663203D01*
Y227035D01*
X667202Y233033D02*
X671201Y227035D01*
Y233033D02*
X667202Y227035D01*
X673200D02*
X675199D01*
X674200D01*
Y233033D01*
X673200Y232034D01*
X659204Y223033D02*
X663203D01*
X661203D01*
Y217035D01*
X665202Y223033D02*
X669201Y217035D01*
Y223033D02*
X665202Y217035D01*
X675199D02*
X671200D01*
X675199Y221034D01*
Y222034D01*
X674199Y223033D01*
X672200D01*
X671200Y222034D01*
X661204Y207035D02*
Y213034D01*
X664203D01*
X665203Y212034D01*
Y210034D01*
X664203Y209035D01*
X661204D01*
X663203D02*
X665203Y207035D01*
X667202Y213034D02*
X671201Y207035D01*
Y213034D02*
X667202Y207035D01*
X673200D02*
X675199D01*
X674200D01*
Y213034D01*
X673200Y212034D01*
X659204Y197035D02*
Y203033D01*
X662203D01*
X663203Y202034D01*
Y200034D01*
X662203Y199035D01*
X659204D01*
X661203D02*
X663203Y197035D01*
X665202Y203033D02*
X669201Y197035D01*
Y203033D02*
X665202Y197035D01*
X675199D02*
X671200D01*
X675199Y201034D01*
Y202034D01*
X674199Y203033D01*
X672200D01*
X671200Y202034D01*
X653203Y192034D02*
X652203Y193034D01*
X650204D01*
X649204Y192034D01*
Y188035D01*
X650204Y187035D01*
X652203D01*
X653203Y188035D01*
Y190034D01*
X651203D01*
X655202Y186036D02*
X659201D01*
X661200Y193034D02*
X665199D01*
X663199D01*
Y187035D01*
X667198Y193034D02*
X671197Y187035D01*
Y193034D02*
X667198Y187035D01*
X673196D02*
X675196D01*
X674196D01*
Y193034D01*
X673196Y192034D01*
X651203Y182034D02*
X650203Y183034D01*
X648204D01*
X647204Y182034D01*
Y178035D01*
X648204Y177035D01*
X650203D01*
X651203Y178035D01*
Y180034D01*
X649203D01*
X653202Y176036D02*
X657201D01*
X659200Y183034D02*
X663199D01*
X661199D01*
Y177035D01*
X665198Y183034D02*
X669197Y177035D01*
Y183034D02*
X665198Y177035D01*
X675195D02*
X671196D01*
X675195Y181034D01*
Y182034D01*
X674195Y183034D01*
X672196D01*
X671196Y182034D01*
X653203Y172034D02*
X652203Y173033D01*
X650204D01*
X649204Y172034D01*
Y168035D01*
X650204Y167035D01*
X652203D01*
X653203Y168035D01*
Y170035D01*
X651203D01*
X655202Y166036D02*
X659201D01*
X661200Y167035D02*
Y173033D01*
X664199D01*
X665199Y172034D01*
Y170035D01*
X664199Y169035D01*
X661200D01*
X663199D02*
X665199Y167035D01*
X667198Y173033D02*
X671197Y167035D01*
Y173033D02*
X667198Y167035D01*
X673196D02*
X675196D01*
X674196D01*
Y173033D01*
X673196Y172034D01*
X651203Y162034D02*
X650203Y163033D01*
X648204D01*
X647204Y162034D01*
Y158035D01*
X648204Y157035D01*
X650203D01*
X651203Y158035D01*
Y160035D01*
X649203D01*
X653202Y156036D02*
X657201D01*
X659200Y157035D02*
Y163033D01*
X662199D01*
X663199Y162034D01*
Y160035D01*
X662199Y159035D01*
X659200D01*
X661199D02*
X663199Y157035D01*
X665198Y163033D02*
X669197Y157035D01*
Y163033D02*
X665198Y157035D01*
X675195D02*
X671196D01*
X675195Y161034D01*
Y162034D01*
X674195Y163033D01*
X672196D01*
X671196Y162034D01*
X333088Y117549D02*
X329090D01*
Y114550D01*
X331089Y115550D01*
X332089D01*
X333088Y114550D01*
Y112551D01*
X332089Y111551D01*
X330089D01*
X329090Y112551D01*
X335088Y117549D02*
Y113550D01*
X337087Y111551D01*
X339087Y113550D01*
Y117549D01*
X341086Y116550D02*
X342086Y117549D01*
X344085D01*
X345085Y116550D01*
Y112551D01*
X344085Y111551D01*
X342086D01*
X341086Y112551D01*
Y116550D01*
X333088Y106550D02*
X332089Y107549D01*
X330089D01*
X329090Y106550D01*
Y102551D01*
X330089Y101551D01*
X332089D01*
X333088Y102551D01*
X335088Y107549D02*
X339087D01*
X337087D01*
Y101551D01*
X345085Y106550D02*
X344085Y107549D01*
X342086D01*
X341086Y106550D01*
Y105550D01*
X342086Y104550D01*
X344085D01*
X345085Y103551D01*
Y102551D01*
X344085Y101551D01*
X342086D01*
X341086Y102551D01*
X333088Y96550D02*
X332089Y97549D01*
X330089D01*
X329090Y96550D01*
Y92551D01*
X330089Y91551D01*
X332089D01*
X333088Y92551D01*
Y94550D01*
X331089D01*
X335088Y91551D02*
Y97549D01*
X339087Y91551D01*
Y97549D01*
X341086D02*
Y91551D01*
X344085D01*
X345085Y92551D01*
Y96550D01*
X344085Y97549D01*
X341086D01*
X329090Y147549D02*
Y141551D01*
X332089D01*
X333088Y142551D01*
Y146550D01*
X332089Y147549D01*
X329090D01*
X335088D02*
X339087D01*
X337087D01*
Y141551D01*
X341086D02*
Y147549D01*
X344085D01*
X345085Y146550D01*
Y144550D01*
X344085Y143551D01*
X341086D01*
X343085D02*
X345085Y141551D01*
X329090Y131551D02*
Y137549D01*
X332089D01*
X333088Y136550D01*
Y134550D01*
X332089Y133551D01*
X329090D01*
X331089D02*
X333088Y131551D01*
X335088Y137549D02*
X339087Y131551D01*
Y137549D02*
X335088Y131551D01*
X341086Y137549D02*
X343085D01*
X342086D01*
Y131551D01*
X341086D01*
X343085D01*
X329090Y127549D02*
X333088D01*
X331089D01*
Y121551D01*
X335088Y127549D02*
X339087Y121551D01*
Y127549D02*
X335088Y121551D01*
X344085Y127549D02*
X342086D01*
X341086Y126550D01*
Y122551D01*
X342086Y121551D01*
X344085D01*
X345085Y122551D01*
Y126550D01*
X344085Y127549D01*
X346590Y-22287D02*
X348589D01*
X347589D01*
Y-16289D01*
X346590Y-17289D01*
X351588Y-16289D02*
Y-22287D01*
X353588Y-20288D01*
X355587Y-22287D01*
Y-16289D01*
X357586D02*
X359586D01*
X358586D01*
Y-22287D01*
X357586D01*
X359586D01*
X362585D02*
Y-16289D01*
X365584D01*
X366583Y-17289D01*
Y-19288D01*
X365584Y-20288D01*
X362585D01*
X364584D02*
X366583Y-22287D01*
X372581Y-16289D02*
X368583D01*
Y-22287D01*
X372581D01*
X368583Y-19288D02*
X370582D01*
X456826Y-22287D02*
X458825D01*
X457826D01*
Y-16289D01*
X456826Y-17289D01*
X461824Y-16289D02*
Y-22287D01*
X463824Y-20288D01*
X465823Y-22287D01*
Y-16289D01*
X467822D02*
X469822D01*
X468822D01*
Y-22287D01*
X467822D01*
X469822D01*
X472821D02*
Y-16289D01*
X475820D01*
X476820Y-17289D01*
Y-19288D01*
X475820Y-20288D01*
X472821D01*
X474820D02*
X476820Y-22287D01*
X482818Y-16289D02*
X478819D01*
Y-22287D01*
X482818D01*
X478819Y-19288D02*
X480818D01*
X567062Y-22287D02*
X569062D01*
X568062D01*
Y-16289D01*
X567062Y-17289D01*
X572061Y-16289D02*
Y-22287D01*
X574060Y-20288D01*
X576059Y-22287D01*
Y-16289D01*
X578059D02*
X580058D01*
X579058D01*
Y-22287D01*
X578059D01*
X580058D01*
X583057D02*
Y-16289D01*
X586056D01*
X587056Y-17289D01*
Y-19288D01*
X586056Y-20288D01*
X583057D01*
X585056D02*
X587056Y-22287D01*
X593054Y-16289D02*
X589055D01*
Y-22287D01*
X593054D01*
X589055Y-19288D02*
X591054D01*
X677298Y-22287D02*
X679298D01*
X678298D01*
Y-16289D01*
X677298Y-17289D01*
X682297Y-16289D02*
Y-22287D01*
X684296Y-20288D01*
X686296Y-22287D01*
Y-16289D01*
X688295D02*
X690294D01*
X689294D01*
Y-22287D01*
X688295D01*
X690294D01*
X693293D02*
Y-16289D01*
X696292D01*
X697292Y-17289D01*
Y-19288D01*
X696292Y-20288D01*
X693293D01*
X695293D02*
X697292Y-22287D01*
X703290Y-16289D02*
X699291D01*
Y-22287D01*
X703290D01*
X699291Y-19288D02*
X701291D01*
D42*
X89612Y273255D02*
G03*
X89130Y229156I26224J-22339D01*
G01*
X90287Y279144D02*
G03*
X90287Y222689I40313J-28227D01*
G01*
X281117Y42083D02*
X282535D01*
X281117Y68067D02*
X284169D01*
X281117Y42083D02*
Y68067D01*
X281806Y42083D02*
Y68067D01*
X304346Y42083D02*
Y68067D01*
X282535Y42083D02*
X304346D01*
X282535D02*
Y68067D01*
X304346D01*
X698204Y155035D02*
Y235035D01*
X678204Y155035D02*
Y235035D01*
X698204D01*
Y30035D02*
Y150035D01*
X678204Y30035D02*
X698204D01*
X678204D02*
Y150035D01*
X348558Y89051D02*
Y149051D01*
X358558Y89051D02*
Y149051D01*
X348558D02*
X358558D01*
X348558Y89051D02*
X358558D01*
X678204Y150016D02*
X698204D01*
X678204Y155035D02*
X698204D01*
X313204Y270626D02*
X706905D01*
Y-4965D02*
Y270626D01*
X313204Y-4965D02*
X706905D01*
X313204D02*
Y270626D01*
X21787Y274957D02*
X42323D01*
Y223776D02*
Y274957D01*
X21787Y223776D02*
X42323D01*
X21787D02*
Y274957D01*
X13913Y240508D02*
Y254287D01*
X-4788D02*
X13913D01*
X-4788Y240508D02*
Y254287D01*
Y240508D02*
X13913D01*
X17850Y223776D02*
Y237555D01*
X9976D02*
X17850D01*
X9976Y223776D02*
Y237555D01*
Y223776D02*
X17850D01*
X8007D02*
Y237555D01*
X133D02*
X8007D01*
X133Y223776D02*
Y237555D01*
Y223776D02*
X8007D01*
X-1835D02*
Y237555D01*
X-9709D02*
X-1835D01*
X-9709Y223776D02*
Y237555D01*
Y223776D02*
X-1835D01*
X6039Y257240D02*
X19818D01*
Y265114D01*
X6039D02*
X19818D01*
X6039Y257240D02*
Y265114D01*
Y267083D02*
X19818D01*
Y274957D01*
X6039D02*
X19818D01*
X6039Y267083D02*
Y274957D01*
X-11678Y267083D02*
X2102D01*
Y274957D01*
X-11678D02*
X2102D01*
X-11678Y267083D02*
Y274957D01*
Y257240D02*
Y265114D01*
X2102D01*
Y257240D02*
Y265114D01*
X-11678Y257240D02*
X2102D01*
X283224Y107417D02*
X303224D01*
X283224Y97417D02*
Y107417D01*
Y97417D02*
X303224D01*
Y107417D01*
X283125Y95508D02*
X303125D01*
X283125Y85508D02*
Y95508D01*
Y85508D02*
X303125D01*
Y95508D01*
X466275Y34799D02*
Y54484D01*
X459188Y34799D02*
Y54484D01*
Y34799D02*
X466275D01*
X459188Y54484D02*
X466275D01*
X432141Y-13350D02*
X452141D01*
X432141Y-23350D02*
Y-13350D01*
Y-23350D02*
X452141D01*
Y-13350D01*
X321905Y-13350D02*
X341905D01*
X321905Y-23350D02*
Y-13350D01*
Y-23350D02*
X341905D01*
Y-13350D01*
X542377Y-13350D02*
X562377D01*
X542377Y-23350D02*
Y-13350D01*
Y-23350D02*
X562377D01*
Y-13350D01*
X652613D02*
X672613D01*
X652613Y-23350D02*
Y-13350D01*
Y-23350D02*
X672613D01*
Y-13350D01*
X502495Y34799D02*
Y54484D01*
X509582Y34799D02*
Y54484D01*
X502495D02*
X509582D01*
X502495Y34799D02*
X509582D01*
X503283Y26925D02*
X504857D01*
Y23776D02*
Y26925D01*
X503283Y15114D02*
X504857D01*
Y18264D01*
X262436Y120181D02*
X272279D01*
Y160732D01*
X252594D02*
X272279D01*
X252594Y120181D02*
Y160732D01*
Y120181D02*
X262436D01*
X69818Y125941D02*
X79661D01*
X69818Y85390D02*
Y125941D01*
Y85390D02*
X89503D01*
Y125941D01*
X79661D02*
X89503D01*
X221554Y170949D02*
X231397D01*
X221554Y130398D02*
Y170949D01*
Y130398D02*
X241239D01*
Y170949D01*
X231397D02*
X241239D01*
X221787Y126138D02*
X231629D01*
X221787Y85587D02*
Y126138D01*
Y85587D02*
X241472D01*
Y126138D01*
X231629D02*
X241472D01*
X221554Y215437D02*
X231397D01*
X221554Y174886D02*
Y215437D01*
Y174886D02*
X241239D01*
Y215437D01*
X231397D02*
X241239D01*
X19586Y126008D02*
X29428D01*
X19586Y85457D02*
Y126008D01*
Y85457D02*
X39271D01*
Y126008D01*
X29428D02*
X39271D01*
X19586Y171008D02*
X29428D01*
X19586Y130457D02*
Y171008D01*
Y130457D02*
X39271D01*
Y171008D01*
X29428D02*
X39271D01*
X19424Y215311D02*
X29267D01*
X19424Y174760D02*
Y215311D01*
Y174760D02*
X39109D01*
Y215311D01*
X29267D02*
X39109D01*
X69818D02*
X79661D01*
X69818Y174760D02*
Y215311D01*
Y174760D02*
X89503D01*
Y215311D01*
X79661D02*
X89503D01*
X170606Y170823D02*
X180448D01*
X170606Y130272D02*
Y170823D01*
Y130272D02*
X190291D01*
Y170823D01*
X180448D02*
X190291D01*
X170767Y126067D02*
X180610D01*
X170767Y85516D02*
Y126067D01*
Y85516D02*
X190452D01*
Y126067D01*
X180610D02*
X190452D01*
X119980Y125673D02*
X129822D01*
X119980Y85122D02*
Y125673D01*
Y85122D02*
X139665D01*
Y125673D01*
X129822D02*
X139665D01*
X170767Y215437D02*
X180610D01*
X170767Y174886D02*
Y215437D01*
Y174886D02*
X190452D01*
Y215437D01*
X180610D02*
X190452D01*
X120373D02*
X130216D01*
X120373Y174886D02*
Y215437D01*
Y174886D02*
X140058D01*
Y215437D01*
X130216D02*
X140058D01*
X119980Y170555D02*
X129822D01*
X119980Y130004D02*
Y170555D01*
Y130004D02*
X139665D01*
Y170555D01*
X129822D02*
X139665D01*
X69980D02*
X79822D01*
X69980Y130004D02*
Y170555D01*
Y130004D02*
X89665D01*
Y170555D01*
X79822D02*
X89665D01*
X283794Y134354D02*
Y146559D01*
X289897Y134354D02*
Y146559D01*
X283794D02*
X289897D01*
X283794Y134354D02*
X289897D01*
X58302Y99563D02*
Y111768D01*
X52200Y99563D02*
Y111768D01*
Y99563D02*
X58302D01*
X52200Y111768D02*
X58302D01*
X210039Y144571D02*
Y156776D01*
X203936Y144571D02*
Y156776D01*
Y144571D02*
X210039D01*
X203936Y156776D02*
X210039D01*
X210271Y99760D02*
Y111965D01*
X204169Y99760D02*
Y111965D01*
Y99760D02*
X210271D01*
X204169Y111965D02*
X210271D01*
X210039Y189059D02*
Y201264D01*
X203936Y189059D02*
Y201264D01*
Y189059D02*
X210039D01*
X203936Y201264D02*
X210039D01*
X8070Y99630D02*
Y111835D01*
X1968Y99630D02*
Y111835D01*
Y99630D02*
X8070D01*
X1968Y111835D02*
X8070D01*
Y144630D02*
Y156835D01*
X1968Y144630D02*
Y156835D01*
Y144630D02*
X8070D01*
X1968Y156835D02*
X8070D01*
X7909Y188933D02*
Y201138D01*
X1806Y188933D02*
Y201138D01*
Y188933D02*
X7909D01*
X1806Y201138D02*
X7909D01*
X58302Y188933D02*
Y201138D01*
X52200Y188933D02*
Y201138D01*
Y188933D02*
X58302D01*
X52200Y201138D02*
X58302D01*
X159090Y144445D02*
Y156650D01*
X152987Y144445D02*
Y156650D01*
Y144445D02*
X159090D01*
X152987Y156650D02*
X159090D01*
X159251Y99689D02*
Y111894D01*
X153149Y99689D02*
Y111894D01*
Y99689D02*
X159251D01*
X153149Y111894D02*
X159251D01*
X108464Y99295D02*
Y111500D01*
X102361Y99295D02*
Y111500D01*
Y99295D02*
X108464D01*
X102361Y111500D02*
X108464D01*
X159251Y189059D02*
Y201264D01*
X153149Y189059D02*
Y201264D01*
Y189059D02*
X159251D01*
X153149Y201264D02*
X159251D01*
X108858Y189059D02*
Y201264D01*
X102755Y189059D02*
Y201264D01*
Y189059D02*
X108858D01*
X102755Y201264D02*
X108858D01*
X108464Y144177D02*
Y156382D01*
X102361Y144177D02*
Y156382D01*
Y144177D02*
X108464D01*
X102361Y156382D02*
X108464D01*
X58464Y144177D02*
Y156382D01*
X52361Y144177D02*
Y156382D01*
Y144177D02*
X58464D01*
X52361Y156382D02*
X58464D01*
X249326Y164047D02*
X275310D01*
X249326D02*
Y185858D01*
X275310D01*
Y164047D02*
Y185858D01*
D59*
X472673Y33795D02*
G03*
X472673Y33795I-492J0D01*
G01*
X497082Y55488D02*
G03*
X497082Y55488I-492J0D01*
G01*
X499050Y27870D02*
G03*
X499050Y27870I-492J0D01*
G01*
X279267Y147150D02*
G03*
X279267Y147150I-492J0D01*
G01*
X63814Y98972D02*
G03*
X63814Y98972I-492J0D01*
G01*
X215550Y143980D02*
G03*
X215550Y143980I-492J0D01*
G01*
X215783Y99169D02*
G03*
X215783Y99169I-492J0D01*
G01*
X215550Y188469D02*
G03*
X215550Y188469I-492J0D01*
G01*
X13582Y99039D02*
G03*
X13582Y99039I-492J0D01*
G01*
Y144039D02*
G03*
X13582Y144039I-492J0D01*
G01*
X13420Y188342D02*
G03*
X13420Y188342I-492J0D01*
G01*
X63814D02*
G03*
X63814Y188342I-492J0D01*
G01*
X164602Y143854D02*
G03*
X164602Y143854I-492J0D01*
G01*
X164763Y99098D02*
G03*
X164763Y99098I-492J0D01*
G01*
X113976Y98705D02*
G03*
X113976Y98705I-492J0D01*
G01*
X164763Y188469D02*
G03*
X164763Y188469I-492J0D01*
G01*
X114369D02*
G03*
X114369Y188469I-492J0D01*
G01*
X113976Y143587D02*
G03*
X113976Y143587I-492J0D01*
G01*
X63976D02*
G03*
X63976Y143587I-492J0D01*
G01*
D60*
X463519Y38736D02*
G03*
X463519Y38736I-1181J0D01*
G01*
X507613Y50547D02*
G03*
X507613Y50547I-1181J0D01*
G01*
D61*
X105994Y250917D02*
X123041Y241074D01*
X105994Y250917D02*
Y270602D01*
X88946Y241074D02*
X105994Y231231D01*
X123041Y241074D01*
X105994Y270602D02*
X123041Y260759D01*
X88946D02*
X105994Y270602D01*
X123041Y241074D02*
Y260759D01*
X88946Y241074D02*
Y260759D01*
Y241074D02*
X105994Y250917D01*
D62*
X269503Y224366D02*
X273440Y228303D01*
X269503D02*
X300999D01*
Y196807D02*
Y228303D01*
X269503Y196807D02*
X300999D01*
X269503D02*
Y228303D01*
X458658Y294563D02*
X580658D01*
Y344563D01*
X458658D02*
X580658D01*
X458658Y294563D02*
Y344563D01*
D63*
X291339Y6890D02*
X287340D01*
Y8889D01*
X288006Y9556D01*
X289339D01*
X290006Y8889D01*
Y6890D01*
Y8223D02*
X291339Y9556D01*
Y10888D02*
Y12221D01*
Y11555D01*
X287340D01*
X288006Y10888D01*
X290672Y14221D02*
X291339Y14887D01*
Y16220D01*
X290672Y16886D01*
X288006D01*
X287340Y16220D01*
Y14887D01*
X288006Y14221D01*
X288673D01*
X289339Y14887D01*
Y16886D01*
X298228Y6890D02*
X294230D01*
Y8889D01*
X294896Y9556D01*
X296229D01*
X296895Y8889D01*
Y6890D01*
Y8223D02*
X298228Y9556D01*
Y10888D02*
Y12221D01*
Y11555D01*
X294230D01*
X294896Y10888D01*
Y14221D02*
X294230Y14887D01*
Y16220D01*
X294896Y16886D01*
X295563D01*
X296229Y16220D01*
X296895Y16886D01*
X297562D01*
X298228Y16220D01*
Y14887D01*
X297562Y14221D01*
X296895D01*
X296229Y14887D01*
X295563Y14221D01*
X294896D01*
X296229Y14887D02*
Y16220D01*
X44062Y47740D02*
X42729D01*
X43395D01*
Y44408D01*
X42729Y43742D01*
X42063D01*
X41396Y44408D01*
X45395Y47074D02*
X46061Y47740D01*
X47394D01*
X48061Y47074D01*
Y46407D01*
X47394Y45741D01*
X48061Y45075D01*
Y44408D01*
X47394Y43742D01*
X46061D01*
X45395Y44408D01*
Y45075D01*
X46061Y45741D01*
X45395Y46407D01*
Y47074D01*
X46061Y45741D02*
X47394D01*
X126962Y47740D02*
X125629D01*
X126295D01*
Y44408D01*
X125629Y43742D01*
X124962D01*
X124296Y44408D01*
X128295D02*
X128961Y43742D01*
X130294D01*
X130961Y44408D01*
Y47074D01*
X130294Y47740D01*
X128961D01*
X128295Y47074D01*
Y46407D01*
X128961Y45741D01*
X130961D01*
X207662Y47740D02*
X206329D01*
X206995D01*
Y44408D01*
X206329Y43742D01*
X205662D01*
X204996Y44408D01*
X208995Y43742D02*
X210328D01*
X209661D01*
Y47740D01*
X208995Y47074D01*
X212327D02*
X212994Y47740D01*
X214326D01*
X214993Y47074D01*
Y44408D01*
X214326Y43742D01*
X212994D01*
X212327Y44408D01*
Y47074D01*
X290487Y280924D02*
X293153D01*
X291820D01*
Y276925D01*
X294486D02*
Y280924D01*
X296485D01*
X297152Y280258D01*
Y278924D01*
X296485Y278258D01*
X294486D01*
X295819D02*
X297152Y276925D01*
X301151D02*
X298485D01*
X301151Y279591D01*
Y280258D01*
X300484Y280924D01*
X299151D01*
X298485Y280258D01*
X252846Y192735D02*
X251513D01*
X252180D01*
Y189403D01*
X251513Y188736D01*
X250847D01*
X250180Y189403D01*
X254179Y188736D02*
X255512D01*
X254845D01*
Y192735D01*
X254179Y192069D01*
X571850Y292385D02*
X574516D01*
X573183D01*
Y288386D01*
X575849D02*
Y292385D01*
X577848D01*
X578515Y291718D01*
Y290385D01*
X577848Y289719D01*
X575849D01*
X577182D02*
X578515Y288386D01*
X579848D02*
X581181D01*
X580514D01*
Y292385D01*
X579848Y291718D01*
X498862Y9875D02*
Y12541D01*
X498195Y13207D01*
X496863D01*
X496196Y12541D01*
Y9875D01*
X496863Y9209D01*
X498195D01*
X497529Y10542D02*
X498862Y9209D01*
X498195D02*
X498862Y9875D01*
X500195Y9209D02*
X501528D01*
X500861D01*
Y13207D01*
X500195Y12541D01*
X277180Y181236D02*
Y185235D01*
X279180D01*
X279846Y184569D01*
Y183236D01*
X279180Y182569D01*
X277180D01*
X278513D02*
X279846Y181236D01*
X281179D02*
X282512D01*
X281845D01*
Y185235D01*
X281179Y184569D01*
X626117Y58421D02*
Y62420D01*
X628117D01*
X628783Y61753D01*
Y60421D01*
X628117Y59754D01*
X626117D01*
X627450D02*
X628783Y58421D01*
X632782D02*
X630116D01*
X632782Y61087D01*
Y61753D01*
X632115Y62420D01*
X630783D01*
X630116Y61753D01*
X626117Y48579D02*
Y52577D01*
X628117D01*
X628783Y51911D01*
Y50578D01*
X628117Y49912D01*
X626117D01*
X627450D02*
X628783Y48579D01*
X630116Y51911D02*
X630783Y52577D01*
X632115D01*
X632782Y51911D01*
Y51244D01*
X632115Y50578D01*
X631449D01*
X632115D01*
X632782Y49912D01*
Y49245D01*
X632115Y48579D01*
X630783D01*
X630116Y49245D01*
X626117Y99760D02*
Y103759D01*
X628117D01*
X628783Y103092D01*
Y101759D01*
X628117Y101093D01*
X626117D01*
X627450D02*
X628783Y99760D01*
X632115D02*
Y103759D01*
X630116Y101759D01*
X632782D01*
X626117Y87219D02*
Y91218D01*
X628117D01*
X628783Y90552D01*
Y89219D01*
X628117Y88552D01*
X626117D01*
X627450D02*
X628783Y87219D01*
X632782Y91218D02*
X630116D01*
Y89219D01*
X631449Y89885D01*
X632115D01*
X632782Y89219D01*
Y87886D01*
X632115Y87219D01*
X630783D01*
X630116Y87886D01*
X625133Y144051D02*
Y148050D01*
X627132D01*
X627799Y147383D01*
Y146051D01*
X627132Y145384D01*
X625133D01*
X626466D02*
X627799Y144051D01*
X631798Y148050D02*
X630465Y147383D01*
X629132Y146051D01*
Y144718D01*
X629798Y144051D01*
X631131D01*
X631798Y144718D01*
Y145384D01*
X631131Y146051D01*
X629132D01*
X624936Y132437D02*
Y136436D01*
X626936D01*
X627602Y135769D01*
Y134436D01*
X626936Y133770D01*
X624936D01*
X626269D02*
X627602Y132437D01*
X628935Y136436D02*
X631601D01*
Y135769D01*
X628935Y133104D01*
Y132437D01*
X492259Y62420D02*
Y59088D01*
X492926Y58421D01*
X494258D01*
X494925Y59088D01*
Y62420D01*
X496258Y58421D02*
X497591D01*
X496924D01*
Y62420D01*
X496258Y61753D01*
X448496Y62440D02*
Y59108D01*
X449162Y58442D01*
X450495D01*
X451162Y59108D01*
Y62440D01*
X455161Y58442D02*
X452495D01*
X455161Y61107D01*
Y61774D01*
X454494Y62440D01*
X453161D01*
X452495Y61774D01*
X535628Y63630D02*
Y64962D01*
Y64296D01*
X532296D01*
X531629Y64962D01*
Y65629D01*
X532296Y66295D01*
X531629Y62297D02*
X535628D01*
Y60297D01*
X534961Y59631D01*
X533629D01*
X532962Y60297D01*
Y62297D01*
X531629Y58298D02*
Y56965D01*
Y57631D01*
X535628D01*
X534961Y58298D01*
X547439Y63630D02*
Y64962D01*
Y64296D01*
X544107D01*
X543440Y64962D01*
Y65629D01*
X544107Y66295D01*
X543440Y62297D02*
X547439D01*
Y60297D01*
X546772Y59631D01*
X545439D01*
X544773Y60297D01*
Y62297D01*
X543440Y55632D02*
Y58298D01*
X546106Y55632D01*
X546772D01*
X547439Y56299D01*
Y57631D01*
X546772Y58298D01*
X519531Y61753D02*
X518865Y62420D01*
X517532D01*
X516865Y61753D01*
Y59088D01*
X517532Y58421D01*
X518865D01*
X519531Y59088D01*
X520864Y58421D02*
X522197D01*
X521530D01*
Y62420D01*
X520864Y61753D01*
X478479Y58421D02*
Y62420D01*
X480479D01*
X481145Y61753D01*
Y60421D01*
X480479Y59754D01*
X478479D01*
X479812D02*
X481145Y58421D01*
X482478Y61753D02*
X483145Y62420D01*
X484478D01*
X485144Y61753D01*
Y61087D01*
X484478Y60421D01*
X485144Y59754D01*
Y59088D01*
X484478Y58421D01*
X483145D01*
X482478Y59088D01*
Y59754D01*
X483145Y60421D01*
X482478Y61087D01*
Y61753D01*
X483145Y60421D02*
X484478D01*
X513913Y9209D02*
Y13207D01*
X515912D01*
X516578Y12541D01*
Y11208D01*
X515912Y10542D01*
X513913D01*
X515245D02*
X516578Y9209D01*
X517911Y9875D02*
X518578Y9209D01*
X519911D01*
X520577Y9875D01*
Y12541D01*
X519911Y13207D01*
X518578D01*
X517911Y12541D01*
Y11874D01*
X518578Y11208D01*
X520577D01*
X287115Y39432D02*
X284449D01*
Y35433D01*
X287115D01*
X284449Y37432D02*
X285782D01*
X288447Y39432D02*
X289780D01*
X289114D01*
Y35433D01*
X288447D01*
X289780D01*
X291780D02*
Y39432D01*
X294446Y35433D01*
Y39432D01*
X295778D02*
X298444D01*
X297111D01*
Y35433D01*
X299777Y38765D02*
X300444Y39432D01*
X301777D01*
X302443Y38765D01*
Y36099D01*
X301777Y35433D01*
X300444D01*
X299777Y36099D01*
Y38765D01*
X656496Y-27528D02*
X659162D01*
X657829Y-26195D02*
Y-28861D01*
X546260Y-27528D02*
X548926D01*
X547593Y-26195D02*
Y-28861D01*
X436024Y-27528D02*
X438689D01*
X437357Y-26195D02*
Y-28861D01*
X325787Y-27528D02*
X328453D01*
X327120Y-26195D02*
Y-28861D01*
X286417Y111251D02*
X289083D01*
X287750Y112584D02*
Y109918D01*
X673204Y143035D02*
X674537D01*
X673870D01*
Y147034D01*
X673204Y146368D01*
X671204Y93035D02*
X672537D01*
X671870D01*
Y97034D01*
X671204Y96368D01*
X674536Y93035D02*
X675869D01*
X675203D01*
Y97034D01*
X674536Y96368D01*
X672870Y43035D02*
X670204D01*
X672870Y45701D01*
Y46368D01*
X672203Y47034D01*
X670870D01*
X670204Y46368D01*
X674203Y43035D02*
X675535D01*
X674869D01*
Y47034D01*
X674203Y46368D01*
X-19552Y228697D02*
X-23551D01*
Y230696D01*
X-22884Y231363D01*
X-21551D01*
X-20885Y230696D01*
Y228697D01*
X-19552Y232696D02*
X-23551D01*
X-22218Y234029D01*
X-23551Y235361D01*
X-19552D01*
X-23551Y240693D02*
Y243359D01*
Y242026D01*
X-19552D01*
X-23551Y247358D02*
Y244692D01*
X-19552D01*
Y247358D01*
X-21551Y244692D02*
Y246025D01*
X-19552Y248690D02*
X-23551D01*
X-22218Y250023D01*
X-23551Y251356D01*
X-19552D01*
Y252689D02*
X-23551D01*
Y254689D01*
X-22884Y255355D01*
X-21551D01*
X-20885Y254689D01*
Y252689D01*
X-23551Y256688D02*
X-19552D01*
Y259354D01*
Y260686D02*
X-22218D01*
X-23551Y262019D01*
X-22218Y263352D01*
X-19552D01*
X-21551D01*
Y260686D01*
X-23551Y264685D02*
Y267351D01*
Y266018D01*
X-19552D01*
X-23551Y271350D02*
Y268684D01*
X-19552D01*
Y271350D01*
X-21551Y268684D02*
Y270017D01*
X34449Y245079D02*
X30450D01*
Y247078D01*
X31117Y247744D01*
X32449D01*
X33116Y247078D01*
Y245079D01*
Y246412D02*
X34449Y247744D01*
Y249077D02*
Y250410D01*
Y249744D01*
X30450D01*
X31117Y249077D01*
Y252410D02*
X30450Y253076D01*
Y254409D01*
X31117Y255076D01*
X31783D01*
X32449Y254409D01*
Y253743D01*
Y254409D01*
X33116Y255076D01*
X33782D01*
X34449Y254409D01*
Y253076D01*
X33782Y252410D01*
X2040Y244445D02*
X5372D01*
X6039Y245111D01*
Y246444D01*
X5372Y247111D01*
X2040D01*
X2706Y248444D02*
X2040Y249110D01*
Y250443D01*
X2706Y251109D01*
X3373D01*
X4039Y250443D01*
Y249777D01*
Y250443D01*
X4706Y251109D01*
X5372D01*
X6039Y250443D01*
Y249110D01*
X5372Y248444D01*
X15881Y225744D02*
X11882D01*
Y227743D01*
X12549Y228410D01*
X13882D01*
X14548Y227743D01*
Y225744D01*
Y227077D02*
X15881Y228410D01*
Y229743D02*
Y231076D01*
Y230409D01*
X11882D01*
X12549Y229743D01*
X15881Y233075D02*
Y234408D01*
Y233741D01*
X11882D01*
X12549Y233075D01*
X6039Y225744D02*
X2040D01*
Y227743D01*
X2706Y228410D01*
X4039D01*
X4706Y227743D01*
Y225744D01*
Y227077D02*
X6039Y228410D01*
Y229743D02*
Y231076D01*
Y230409D01*
X2040D01*
X2706Y229743D01*
Y233075D02*
X2040Y233741D01*
Y235074D01*
X2706Y235741D01*
X5372D01*
X6039Y235074D01*
Y233741D01*
X5372Y233075D01*
X2706D01*
X-3804Y225744D02*
X-7803D01*
Y227743D01*
X-7136Y228410D01*
X-5803D01*
X-5137Y227743D01*
Y225744D01*
Y227077D02*
X-3804Y228410D01*
Y229743D02*
Y231076D01*
Y230409D01*
X-7803D01*
X-7136Y229743D01*
X-3804Y235741D02*
Y233075D01*
X-6470Y235741D01*
X-7136D01*
X-7803Y235074D01*
Y233741D01*
X-7136Y233075D01*
X8007Y259209D02*
Y263207D01*
X10006D01*
X10673Y262541D01*
Y261208D01*
X10006Y260542D01*
X8007D01*
X9340D02*
X10673Y259209D01*
X12006D02*
X13339D01*
X12672D01*
Y263207D01*
X12006Y262541D01*
X15338Y263207D02*
X18004D01*
Y262541D01*
X15338Y259875D01*
Y259209D01*
X8007Y269051D02*
Y273050D01*
X10006D01*
X10673Y272383D01*
Y271051D01*
X10006Y270384D01*
X8007D01*
X9340D02*
X10673Y269051D01*
X12006D02*
X13339D01*
X12672D01*
Y273050D01*
X12006Y272383D01*
X18004Y273050D02*
X15338D01*
Y271051D01*
X16671Y271717D01*
X17337D01*
X18004Y271051D01*
Y269718D01*
X17337Y269051D01*
X16004D01*
X15338Y269718D01*
X-9709Y269051D02*
Y273050D01*
X-7710D01*
X-7044Y272383D01*
Y271051D01*
X-7710Y270384D01*
X-9709D01*
X-8377D02*
X-7044Y269051D01*
X-5711D02*
X-4378D01*
X-5044D01*
Y273050D01*
X-5711Y272383D01*
X-379Y269051D02*
Y273050D01*
X-2379Y271051D01*
X287D01*
X-9709Y259209D02*
Y263207D01*
X-7710D01*
X-7044Y262541D01*
Y261208D01*
X-7710Y260542D01*
X-9709D01*
X-8377D02*
X-7044Y259209D01*
X-5711D02*
X-4378D01*
X-5044D01*
Y263207D01*
X-5711Y262541D01*
X287Y263207D02*
X-1046Y262541D01*
X-2379Y261208D01*
Y259875D01*
X-1712Y259209D01*
X-379D01*
X287Y259875D01*
Y260542D01*
X-379Y261208D01*
X-2379D01*
D64*
X551259Y46969D02*
X552259D01*
X551759D01*
Y49968D01*
X551259Y49468D01*
Y41469D02*
X551759Y41968D01*
X552759D01*
X553258Y41469D01*
Y39469D01*
X552759Y38969D01*
X551759D01*
X551259Y39469D01*
Y41469D01*
M02*
