%FSLAX25Y25*%
%MOIN*%
G70*
G01*
G75*
G04 Layer_Physical_Order=2*
G04 Layer_Color=32768*
%ADD10R,0.02756X0.03150*%
%ADD11R,0.11000X0.02900*%
%ADD12O,0.08661X0.02362*%
%ADD13R,0.03150X0.02756*%
%ADD14R,0.05906X0.02362*%
%ADD15R,0.05118X0.03150*%
%ADD16R,0.12598X0.07874*%
%ADD17O,0.06890X0.01181*%
%ADD18C,0.01181*%
%ADD19C,0.01000*%
%ADD20C,0.01800*%
%ADD21C,0.02000*%
%ADD22C,0.03000*%
%ADD23C,0.07874*%
G04:AMPARAMS|DCode=24|XSize=78.74mil|YSize=78.74mil|CornerRadius=19.69mil|HoleSize=0mil|Usage=FLASHONLY|Rotation=0.000|XOffset=0mil|YOffset=0mil|HoleType=Round|Shape=RoundedRectangle|*
%AMROUNDEDRECTD24*
21,1,0.07874,0.03937,0,0,0.0*
21,1,0.03937,0.07874,0,0,0.0*
1,1,0.03937,0.01969,-0.01969*
1,1,0.03937,-0.01969,-0.01969*
1,1,0.03937,-0.01969,0.01969*
1,1,0.03937,0.01969,0.01969*
%
%ADD24ROUNDEDRECTD24*%
%ADD25C,0.23622*%
%ADD26C,0.05906*%
%ADD27R,0.05906X0.05906*%
%ADD28R,0.05906X0.05906*%
%ADD29C,0.27559*%
%ADD30C,0.06299*%
%ADD31R,0.06299X0.06299*%
%ADD32C,0.16535*%
%ADD33C,0.19685*%
%ADD34C,0.07087*%
%ADD35C,0.06000*%
%ADD36C,0.02756*%
%ADD37C,0.02362*%
%ADD38C,0.03937*%
%ADD39C,0.01969*%
%ADD40C,0.04000*%
%ADD41C,0.04000*%
%ADD42C,0.00787*%
%ADD43C,0.07937*%
%ADD44C,0.15811*%
%ADD45C,0.08331*%
%ADD46C,0.16598*%
%ADD47C,0.07543*%
G04:AMPARAMS|DCode=48|XSize=95.433mil|YSize=95.433mil|CornerRadius=0mil|HoleSize=0mil|Usage=FLASHONLY|Rotation=0.000|XOffset=0mil|YOffset=0mil|HoleType=Round|Shape=Relief|Width=10mil|Gap=10mil|Entries=4|*
%AMTHD48*
7,0,0,0.09543,0.07543,0.01000,45*
%
%ADD48THD48*%
%ADD49C,0.16205*%
%ADD50C,0.17779*%
%ADD51C,0.08685*%
%ADD52C,0.16520*%
%ADD53C,0.07000*%
%ADD54C,0.05181*%
G04:AMPARAMS|DCode=55|XSize=71.811mil|YSize=71.811mil|CornerRadius=0mil|HoleSize=0mil|Usage=FLASHONLY|Rotation=0.000|XOffset=0mil|YOffset=0mil|HoleType=Round|Shape=Relief|Width=10mil|Gap=10mil|Entries=4|*
%AMTHD55*
7,0,0,0.07181,0.05181,0.01000,45*
%
%ADD55THD55*%
%ADD56C,0.05969*%
G04:AMPARAMS|DCode=57|XSize=79.685mil|YSize=79.685mil|CornerRadius=0mil|HoleSize=0mil|Usage=FLASHONLY|Rotation=0.000|XOffset=0mil|YOffset=0mil|HoleType=Round|Shape=Relief|Width=10mil|Gap=10mil|Entries=4|*
%AMTHD57*
7,0,0,0.07969,0.05969,0.01000,45*
%
%ADD57THD57*%
D40*
X-35485Y-32677D02*
G03*
X-35433Y-32729I52J0D01*
G01*
X720472D02*
G03*
X720524Y-32677I0J52D01*
G01*
Y307087D02*
G03*
X688978Y338634I-31548J0D01*
G01*
D02*
G03*
X688976Y338634I-1J-31548D01*
G01*
X688978D02*
G03*
X688976Y338634I-1J-52D01*
G01*
X-3937D02*
G03*
X-35485Y307087I0J-31548D01*
G01*
X-35433Y-32729D02*
X720472D01*
X720524Y-32677D02*
Y307087D01*
X688976Y338634D02*
X688978D01*
X-3937Y338634D02*
X688976D01*
X-35485Y307087D02*
X-35485Y307087D01*
Y-32677D02*
Y307087D01*
D41*
X688976Y338634D02*
D03*
D42*
X308204Y80075D02*
Y196906D01*
X243204Y235035D02*
X720524D01*
X612338Y-32729D02*
Y75153D01*
Y80075D01*
X308204D02*
X612338D01*
X87680Y223776D02*
X243204D01*
X87680Y164370D02*
Y223776D01*
X72180Y164370D02*
X87680D01*
X72180D02*
Y235035D01*
X244180D01*
X253972Y128697D02*
X271491D01*
Y58736D02*
Y128697D01*
X66865Y58736D02*
X271491D01*
X66865Y2236D02*
Y58736D01*
X53578Y2236D02*
X66865D01*
X53578Y69736D02*
X253972D01*
Y128697D01*
X243204Y196906D02*
Y223776D01*
Y196906D02*
X308204D01*
X163322Y263047D02*
Y276335D01*
X44228D02*
X163322D01*
X26806Y61866D02*
Y69736D01*
Y61866D02*
X53176D01*
X26806Y69736D02*
X53578D01*
X53176Y61866D02*
X53578D01*
Y2236D02*
Y61866D01*
X-28016Y276335D02*
X44228D01*
X-28016Y69740D02*
Y276335D01*
Y69740D02*
X1708D01*
Y61866D02*
Y69740D01*
X-35202Y61866D02*
X1708D01*
X179562Y252122D02*
X182023Y254583D01*
X174247Y252122D02*
X179562D01*
X163322Y263047D02*
X174247Y252122D01*
X183614Y243165D02*
X187968D01*
X182023Y254583D02*
Y266000D01*
X166472Y281551D02*
X182023Y266000D01*
X-35485Y281551D02*
X166472D01*
D43*
X84449Y23854D02*
D03*
X96260D02*
D03*
X72638D02*
D03*
X60827D02*
D03*
Y35654D02*
D03*
X72638D02*
D03*
X96260D02*
D03*
X84449D02*
D03*
X167323Y23854D02*
D03*
X179134D02*
D03*
X155512D02*
D03*
X143701D02*
D03*
Y35654D02*
D03*
X155512D02*
D03*
X179134D02*
D03*
X167323D02*
D03*
X248031Y23854D02*
D03*
X259842D02*
D03*
X236221D02*
D03*
X224410D02*
D03*
Y35654D02*
D03*
X236221D02*
D03*
X259842D02*
D03*
X248031D02*
D03*
D44*
X87756Y-9646D02*
D03*
X69331D02*
D03*
X170630D02*
D03*
X152205D02*
D03*
X251339D02*
D03*
X232913D02*
D03*
D45*
X298440Y55075D02*
D03*
X288440D02*
D03*
X262318Y169953D02*
D03*
Y179953D02*
D03*
D46*
X332889Y14720D02*
D03*
X687220Y250941D02*
D03*
X332889D02*
D03*
X687220Y14720D02*
D03*
D47*
X693204Y160035D02*
D03*
X683204D02*
D03*
X693204Y170035D02*
D03*
X683204D02*
D03*
X693204Y180035D02*
D03*
X683204D02*
D03*
X693204Y190035D02*
D03*
X683204D02*
D03*
X693204Y200035D02*
D03*
X683204D02*
D03*
X693204Y210035D02*
D03*
X683204D02*
D03*
X693204Y220035D02*
D03*
X683204D02*
D03*
X693204Y230035D02*
D03*
X683204D02*
D03*
X693204Y135035D02*
D03*
Y115035D02*
D03*
Y145035D02*
D03*
Y105035D02*
D03*
Y125035D02*
D03*
Y75035D02*
D03*
Y85035D02*
D03*
Y65035D02*
D03*
Y45035D02*
D03*
Y55035D02*
D03*
Y35035D02*
D03*
X683204Y135035D02*
D03*
X693204Y95035D02*
D03*
X683204Y125035D02*
D03*
Y115035D02*
D03*
Y145035D02*
D03*
Y105035D02*
D03*
Y85035D02*
D03*
Y95035D02*
D03*
Y55035D02*
D03*
Y65035D02*
D03*
Y75035D02*
D03*
Y35035D02*
D03*
Y45035D02*
D03*
X353558Y94051D02*
D03*
Y104051D02*
D03*
Y114051D02*
D03*
Y124051D02*
D03*
Y134051D02*
D03*
Y144051D02*
D03*
X298224Y102417D02*
D03*
X298125Y90508D02*
D03*
X288125D02*
D03*
X447141Y-18350D02*
D03*
X437141D02*
D03*
X336905Y-18350D02*
D03*
X326905D02*
D03*
X557377Y-18350D02*
D03*
X547377D02*
D03*
X667613D02*
D03*
X657613D02*
D03*
D48*
X288224Y102417D02*
D03*
D49*
X0Y0D02*
D03*
X669291Y311024D02*
D03*
X15748Y311024D02*
D03*
D50*
X342520D02*
D03*
D51*
X86716Y299630D02*
D03*
X77228D02*
D03*
X96204D02*
D03*
X105692D02*
D03*
X115180D02*
D03*
X124669D02*
D03*
X134157D02*
D03*
X143645D02*
D03*
X153133D02*
D03*
X162621D02*
D03*
X172109D02*
D03*
X181598D02*
D03*
X191086D02*
D03*
X200574D02*
D03*
X210062D02*
D03*
X219550D02*
D03*
X229039D02*
D03*
X238527D02*
D03*
X248133D02*
D03*
X257621D02*
D03*
X252897Y309630D02*
D03*
X243409D02*
D03*
X233802D02*
D03*
X224314D02*
D03*
X214826D02*
D03*
X205338D02*
D03*
X195850D02*
D03*
X186361D02*
D03*
X176873D02*
D03*
X167385D02*
D03*
X157897D02*
D03*
X148409D02*
D03*
X138920D02*
D03*
X129432D02*
D03*
X119944D02*
D03*
X110456D02*
D03*
X100968D02*
D03*
X91479D02*
D03*
X72503D02*
D03*
X81991D02*
D03*
X67739Y299630D02*
D03*
X81991Y289630D02*
D03*
X72503D02*
D03*
X91479D02*
D03*
X100968D02*
D03*
X110456D02*
D03*
X119944D02*
D03*
X129432D02*
D03*
X138920D02*
D03*
X148409D02*
D03*
X157897D02*
D03*
X167385D02*
D03*
X176873D02*
D03*
X186361D02*
D03*
X195850D02*
D03*
X205338D02*
D03*
X214826D02*
D03*
X224314D02*
D03*
X233802D02*
D03*
X243409D02*
D03*
X252897D02*
D03*
X262385D02*
D03*
X498058Y301463D02*
D03*
X508858D02*
D03*
X519658D02*
D03*
X530458D02*
D03*
X541258D02*
D03*
X503458Y312663D02*
D03*
X514258D02*
D03*
X525058D02*
D03*
X535858D02*
D03*
D52*
X290220Y299630D02*
D03*
X40220D02*
D03*
X568858Y307063D02*
D03*
X470458D02*
D03*
D53*
X353558Y84051D02*
D03*
D54*
X195472Y177165D02*
D03*
Y132677D02*
D03*
X289370Y19685D02*
D03*
X275590Y28543D02*
D03*
X143834Y238736D02*
D03*
X140684D02*
D03*
X268243Y224562D02*
D03*
X268243Y219445D02*
D03*
X268393Y205999D02*
D03*
Y212555D02*
D03*
X316078D02*
D03*
X302102Y224563D02*
D03*
Y219445D02*
D03*
X302101Y214326D02*
D03*
X165487Y259208D02*
D03*
X253283Y241886D02*
D03*
X143834Y252516D02*
D03*
X130015Y267476D02*
D03*
X83598Y218657D02*
D03*
X309976Y130468D02*
D03*
X301708Y133815D02*
D03*
X193869Y106917D02*
D03*
Y110461D02*
D03*
X52486Y200153D02*
D03*
X43279Y201102D02*
D03*
X153435Y110909D02*
D03*
X144228Y111858D02*
D03*
X153273Y155665D02*
D03*
X144066Y156614D02*
D03*
X153435Y200279D02*
D03*
X144228Y201228D02*
D03*
X204222Y155791D02*
D03*
X195015Y156739D02*
D03*
X204222Y200279D02*
D03*
X195015Y201228D02*
D03*
X93440Y111464D02*
D03*
X102647Y110516D02*
D03*
X92062Y154878D02*
D03*
Y151335D02*
D03*
X90846Y199886D02*
D03*
Y196343D02*
D03*
X41668Y154878D02*
D03*
Y151335D02*
D03*
X40291Y110390D02*
D03*
Y106846D02*
D03*
X-9942Y110457D02*
D03*
Y106913D02*
D03*
Y155457D02*
D03*
Y151913D02*
D03*
X-10103Y196216D02*
D03*
Y199760D02*
D03*
X268393Y202555D02*
D03*
X648117Y230035D02*
D03*
Y220035D02*
D03*
Y200035D02*
D03*
Y190035D02*
D03*
Y180035D02*
D03*
Y170035D02*
D03*
Y160035D02*
D03*
X504751Y277079D02*
D03*
X524751D02*
D03*
X653204Y120035D02*
D03*
Y80035D02*
D03*
Y40035D02*
D03*
X595704Y187535D02*
D03*
X607204Y187196D02*
D03*
X529751Y277079D02*
D03*
X534751D02*
D03*
X303184Y71216D02*
D03*
X653301Y60035D02*
D03*
Y50035D02*
D03*
X250704Y202535D02*
D03*
X329865Y94213D02*
D03*
X533598Y34799D02*
D03*
X545409Y34799D02*
D03*
X523381Y37142D02*
D03*
X488696D02*
D03*
X480074Y47142D02*
D03*
X445389Y52142D02*
D03*
X513750Y60390D02*
D03*
X648755Y146020D02*
D03*
Y134209D02*
D03*
X641865Y125350D02*
D03*
X631039Y140114D02*
D03*
X637732Y65936D02*
D03*
Y84371D02*
D03*
X637928Y45001D02*
D03*
X637732Y96182D02*
D03*
X636747Y128662D02*
D03*
X626476Y146020D02*
D03*
X488696Y42142D02*
D03*
X603479Y32634D02*
D03*
X278184Y125496D02*
D03*
X272672Y138488D02*
D03*
X278775Y133173D02*
D03*
X282909Y154039D02*
D03*
X275428Y152661D02*
D03*
X69424Y107634D02*
D03*
X63322Y112949D02*
D03*
X59188Y92083D02*
D03*
X66668Y93461D02*
D03*
X63913Y120626D02*
D03*
X221161Y152642D02*
D03*
X215058Y157957D02*
D03*
X210924Y137091D02*
D03*
X218405Y138469D02*
D03*
X215649Y165634D02*
D03*
X221393Y107831D02*
D03*
X215291Y113146D02*
D03*
X211157Y92279D02*
D03*
X218637Y93657D02*
D03*
X215881Y120823D02*
D03*
X221161Y197130D02*
D03*
X215058Y202445D02*
D03*
X210924Y181579D02*
D03*
X218405Y182957D02*
D03*
X215649Y210122D02*
D03*
X19192Y107701D02*
D03*
X13090Y113016D02*
D03*
X8956Y92150D02*
D03*
X16436Y93528D02*
D03*
X13680Y120693D02*
D03*
X19192Y152701D02*
D03*
X13090Y158016D02*
D03*
X8956Y137150D02*
D03*
X16436Y138528D02*
D03*
X13680Y165693D02*
D03*
X19031Y197004D02*
D03*
X12928Y202319D02*
D03*
X8794Y181453D02*
D03*
X16275Y182831D02*
D03*
X13519Y209996D02*
D03*
X69424Y197004D02*
D03*
X63322Y202319D02*
D03*
X59188Y181453D02*
D03*
X66668Y182831D02*
D03*
X63913Y209996D02*
D03*
X170212Y152516D02*
D03*
X164110Y157831D02*
D03*
X159976Y136965D02*
D03*
X167456Y138342D02*
D03*
X164700Y165508D02*
D03*
X170373Y107760D02*
D03*
X164271Y113075D02*
D03*
X160137Y92209D02*
D03*
X167617Y93587D02*
D03*
X164861Y120752D02*
D03*
X119586Y107366D02*
D03*
X113484Y112681D02*
D03*
X109350Y91815D02*
D03*
X116830Y93193D02*
D03*
X114074Y120358D02*
D03*
X170373Y197130D02*
D03*
X164271Y202445D02*
D03*
X160137Y181579D02*
D03*
X167617Y182957D02*
D03*
X164861Y210122D02*
D03*
X119980Y197130D02*
D03*
X113877Y202445D02*
D03*
X109743Y181579D02*
D03*
X117224Y182957D02*
D03*
X114468Y210122D02*
D03*
X119586Y152248D02*
D03*
X113484Y157563D02*
D03*
X109350Y136697D02*
D03*
X116830Y138075D02*
D03*
X114074Y165240D02*
D03*
X69586Y152248D02*
D03*
X63484Y157563D02*
D03*
X59350Y136697D02*
D03*
X66830Y138075D02*
D03*
X64074Y165240D02*
D03*
X91751Y256520D02*
D03*
X120216Y268331D02*
D03*
X158168D02*
D03*
X253050Y256520D02*
D03*
X262539D02*
D03*
X205609D02*
D03*
X640180Y229736D02*
D03*
X631680Y237736D02*
D03*
X478180Y235236D02*
D03*
X473600Y229736D02*
D03*
X648078Y194642D02*
D03*
X644031Y189130D02*
D03*
X648117Y210035D02*
D03*
X607318Y225252D02*
D03*
X613818Y228402D02*
D03*
X209287Y240114D02*
D03*
X206006Y267739D02*
D03*
X215494D02*
D03*
X234074Y256520D02*
D03*
X68637Y230262D02*
D03*
Y233224D02*
D03*
X91751Y268331D02*
D03*
X101239D02*
D03*
X55448Y246807D02*
D03*
X627340Y227262D02*
D03*
X52486Y246807D02*
D03*
X629434Y229356D02*
D03*
X237732Y255173D02*
D03*
X233991Y268559D02*
D03*
X653301Y90035D02*
D03*
X614306Y107634D02*
D03*
X653301Y100035D02*
D03*
X611353Y110587D02*
D03*
X115291Y228106D02*
D03*
X124050Y236669D02*
D03*
X310271Y80764D02*
D03*
X312830Y75153D02*
D03*
X155743Y243067D02*
D03*
X148755Y268461D02*
D03*
X316235Y222555D02*
D03*
X316196Y217555D02*
D03*
X316196Y207555D02*
D03*
X316235Y202555D02*
D03*
X196196Y267870D02*
D03*
X186747Y267475D02*
D03*
X208991Y225547D02*
D03*
X211550Y228500D02*
D03*
X198375Y255088D02*
D03*
X186747Y255665D02*
D03*
X139503Y267476D02*
D03*
X177298D02*
D03*
X302110Y207555D02*
D03*
Y202555D02*
D03*
X221693Y210410D02*
D03*
X221004Y207359D02*
D03*
X254070Y207240D02*
D03*
X218440Y240114D02*
D03*
X244228Y202122D02*
D03*
X172574Y252122D02*
D03*
X514700Y276925D02*
D03*
X298622Y158268D02*
D03*
X195866Y87795D02*
D03*
X144685D02*
D03*
X93898Y87402D02*
D03*
X43898Y87795D02*
D03*
X-6496D02*
D03*
Y132677D02*
D03*
Y177165D02*
D03*
X43504D02*
D03*
Y132283D02*
D03*
X93898D02*
D03*
Y179134D02*
D03*
X144685Y177165D02*
D03*
X144291Y132677D02*
D03*
D55*
X334646Y84646D02*
D03*
X250527Y224169D02*
D03*
X666039Y150705D02*
D03*
X653204Y110035D02*
D03*
Y70035D02*
D03*
X653873Y150705D02*
D03*
X533598Y54554D02*
D03*
X545409Y54554D02*
D03*
X499936Y56453D02*
D03*
X515881Y28732D02*
D03*
X603479Y39720D02*
D03*
X607416D02*
D03*
X539751Y277079D02*
D03*
X297869Y129039D02*
D03*
Y121953D02*
D03*
X44228Y117083D02*
D03*
Y124169D02*
D03*
X195964Y169177D02*
D03*
X196196Y117280D02*
D03*
Y124366D02*
D03*
X-6005Y117150D02*
D03*
Y124236D02*
D03*
Y162150D02*
D03*
Y169236D02*
D03*
X-6166Y206453D02*
D03*
Y213539D02*
D03*
X45605Y206453D02*
D03*
X44228Y213539D02*
D03*
X145015Y169051D02*
D03*
X145176Y124295D02*
D03*
X94389Y123902D02*
D03*
X145176Y213665D02*
D03*
X94783Y206579D02*
D03*
Y213665D02*
D03*
X94389Y161697D02*
D03*
Y168783D02*
D03*
X44389Y161697D02*
D03*
Y168783D02*
D03*
X60680Y52736D02*
D03*
X196180Y213736D02*
D03*
X75680Y168567D02*
D03*
X82680D02*
D03*
X75180Y131905D02*
D03*
X79180D02*
D03*
X75180Y124067D02*
D03*
X79180D02*
D03*
X259578Y122169D02*
D03*
X266578D02*
D03*
X95507Y116815D02*
D03*
X146196Y161965D02*
D03*
X146688Y117209D02*
D03*
X146393Y206579D02*
D03*
X197279Y162091D02*
D03*
X197180Y206579D02*
D03*
X129704Y256520D02*
D03*
X167657Y268331D02*
D03*
X177145Y256520D02*
D03*
X519818Y276925D02*
D03*
X208071Y194095D02*
D03*
X284449Y140551D02*
D03*
X208071Y149606D02*
D03*
X208465Y104724D02*
D03*
X157677D02*
D03*
X158071Y149606D02*
D03*
Y194095D02*
D03*
X106496Y104331D02*
D03*
Y149213D02*
D03*
X106890Y194095D02*
D03*
X56496Y104331D02*
D03*
X56102Y193701D02*
D03*
X6496Y104724D02*
D03*
X6102Y149606D02*
D03*
Y194095D02*
D03*
D56*
X77153Y263571D02*
D03*
X67665D02*
D03*
X86641D02*
D03*
X96129D02*
D03*
X105617D02*
D03*
X115105D02*
D03*
X124594D02*
D03*
X134082D02*
D03*
X143570D02*
D03*
X153058D02*
D03*
X162547D02*
D03*
X172035D02*
D03*
X181523D02*
D03*
X191011D02*
D03*
X200499D02*
D03*
X209987D02*
D03*
X219476D02*
D03*
X228964D02*
D03*
X247940D02*
D03*
X257680Y263244D02*
D03*
X267680Y264236D02*
D03*
X220507Y49465D02*
D03*
X236157Y53402D02*
D03*
X231432Y175842D02*
D03*
X256039Y9799D02*
D03*
X224444Y6059D02*
D03*
X72672Y53500D02*
D03*
X86942Y72904D02*
D03*
X81531Y78992D02*
D03*
X90783Y62752D02*
D03*
X144523Y-2209D02*
D03*
X96393Y53500D02*
D03*
X173361Y53303D02*
D03*
X179168Y53402D02*
D03*
X167358Y6059D02*
D03*
X155546D02*
D03*
X84483D02*
D03*
X72672D02*
D03*
X236255D02*
D03*
X248066D02*
D03*
X91570Y171807D02*
D03*
X238452Y263571D02*
D03*
X83104Y267894D02*
D03*
X73556Y256082D02*
D03*
X83173Y256013D02*
D03*
X73556Y267894D02*
D03*
X64995Y254583D02*
D03*
X177102Y243854D02*
D03*
X186590D02*
D03*
X196078D02*
D03*
X205566D02*
D03*
X224542D02*
D03*
X234031D02*
D03*
X225428Y267870D02*
D03*
X251708Y114720D02*
D03*
X215054Y243854D02*
D03*
X79365Y230173D02*
D03*
X244405Y267870D02*
D03*
D57*
X60861Y6059D02*
D03*
X-1540Y65902D02*
D03*
X30054Y66000D02*
D03*
M02*
