%FSLAX25Y25*%
%MOIN*%
G70*
G01*
G75*
G04 Layer_Color=8421504*
%ADD10C,0.04000*%
G04:AMPARAMS|DCode=11|XSize=9.84mil|YSize=61.02mil|CornerRadius=0mil|HoleSize=0mil|Usage=FLASHONLY|Rotation=45.000|XOffset=0mil|YOffset=0mil|HoleType=Round|Shape=Round|*
%AMOVALD11*
21,1,0.05118,0.00984,0.00000,0.00000,135.0*
1,1,0.00984,0.01810,-0.01810*
1,1,0.00984,-0.01810,0.01810*
%
%ADD11OVALD11*%

G04:AMPARAMS|DCode=12|XSize=9.84mil|YSize=61.02mil|CornerRadius=0mil|HoleSize=0mil|Usage=FLASHONLY|Rotation=315.000|XOffset=0mil|YOffset=0mil|HoleType=Round|Shape=Round|*
%AMOVALD12*
21,1,0.05118,0.00984,0.00000,0.00000,45.0*
1,1,0.00984,-0.01810,-0.01810*
1,1,0.00984,0.01810,0.01810*
%
%ADD12OVALD12*%

%ADD13R,0.04528X0.05709*%
%ADD14R,0.05315X0.06102*%
%ADD15R,0.04134X0.05512*%
%ADD16R,0.03347X0.05118*%
%ADD17R,0.05118X0.06102*%
%ADD18O,0.02362X0.08661*%
%ADD19R,0.04528X0.03937*%
%ADD20R,0.03740X0.05315*%
%ADD21R,0.07500X0.04300*%
%ADD22R,0.03500X0.03900*%
%ADD23R,0.05709X0.04528*%
%ADD24R,0.05118X0.03347*%
%ADD25R,0.09449X0.02992*%
%ADD26R,0.07500X0.02800*%
%ADD27R,0.02800X0.07500*%
%ADD28O,0.07480X0.02362*%
%ADD29C,0.00800*%
%ADD30C,0.01600*%
%ADD31C,0.00787*%
%ADD32C,0.27559*%
%ADD33C,0.18740*%
%ADD34R,0.06654X0.06654*%
%ADD35C,0.06654*%
%ADD36C,0.07000*%
%ADD37R,0.07000X0.07000*%
%ADD38C,0.11500*%
%ADD39C,0.01800*%
%ADD40C,0.04000*%
%ADD41C,0.16598*%
G04:AMPARAMS|DCode=42|XSize=185.197mil|YSize=185.197mil|CornerRadius=0mil|HoleSize=0mil|Usage=FLASHONLY|Rotation=0.000|XOffset=0mil|YOffset=0mil|HoleType=Round|Shape=Relief|Width=10mil|Gap=10mil|Entries=4|*
%AMTHD42*
7,0,0,0.18520,0.16520,0.01000,45*
%
%ADD42THD42*%
%ADD43C,0.08291*%
G04:AMPARAMS|DCode=44|XSize=102.913mil|YSize=102.913mil|CornerRadius=0mil|HoleSize=0mil|Usage=FLASHONLY|Rotation=0.000|XOffset=0mil|YOffset=0mil|HoleType=Round|Shape=Relief|Width=10mil|Gap=10mil|Entries=4|*
%AMTHD44*
7,0,0,0.10291,0.08291,0.01000,45*
%
%ADD44THD44*%
%ADD45C,0.08700*%
G04:AMPARAMS|DCode=46|XSize=107mil|YSize=107mil|CornerRadius=0mil|HoleSize=0mil|Usage=FLASHONLY|Rotation=0.000|XOffset=0mil|YOffset=0mil|HoleType=Round|Shape=Relief|Width=10mil|Gap=10mil|Entries=4|*
%AMTHD46*
7,0,0,0.10700,0.08700,0.01000,45*
%
%ADD46THD46*%
%ADD47C,0.12000*%
G04:AMPARAMS|DCode=48|XSize=140mil|YSize=140mil|CornerRadius=0mil|HoleSize=0mil|Usage=FLASHONLY|Rotation=0.000|XOffset=0mil|YOffset=0mil|HoleType=Round|Shape=Relief|Width=10mil|Gap=10mil|Entries=4|*
%AMTHD48*
7,0,0,0.14000,0.12000,0.01000,45*
%
%ADD48THD48*%
G04:AMPARAMS|DCode=49|XSize=68mil|YSize=68mil|CornerRadius=0mil|HoleSize=0mil|Usage=FLASHONLY|Rotation=0.000|XOffset=0mil|YOffset=0mil|HoleType=Round|Shape=Relief|Width=10mil|Gap=10mil|Entries=4|*
%AMTHD49*
7,0,0,0.06800,0.04800,0.01000,45*
%
%ADD49THD49*%
%ADD50C,0.04800*%
%ADD51C,0.16520*%
%ADD52C,0.00984*%
%ADD53C,0.02362*%
%ADD54C,0.01000*%
%ADD55C,0.01575*%
%ADD56C,0.01969*%
%ADD57C,0.03000*%
%ADD58C,0.00200*%
%ADD59C,0.00591*%
D11*
X191909Y220510D02*
D03*
X190517Y219118D02*
D03*
X189125Y217726D02*
D03*
X187733Y216334D02*
D03*
X186341Y214942D02*
D03*
X184949Y213550D02*
D03*
X183557Y212158D02*
D03*
X182165Y210766D02*
D03*
X180773Y209374D02*
D03*
X179382Y207982D02*
D03*
X177990Y206590D02*
D03*
X176598Y205198D02*
D03*
X175206Y203806D02*
D03*
X173814Y202414D02*
D03*
X172422Y201023D02*
D03*
X171030Y199631D02*
D03*
X169638Y198239D02*
D03*
X168246Y196847D02*
D03*
X166854Y195455D02*
D03*
X165462Y194063D02*
D03*
X164070Y192671D02*
D03*
X162678Y191279D02*
D03*
X161286Y189887D02*
D03*
X159894Y188495D02*
D03*
X158502Y187103D02*
D03*
X157110Y185711D02*
D03*
X155719Y184319D02*
D03*
X154326Y182927D02*
D03*
X152935Y181535D02*
D03*
X151543Y180143D02*
D03*
X150151Y178752D02*
D03*
X148759Y177360D02*
D03*
X147367Y175968D02*
D03*
X145975Y174576D02*
D03*
X144583Y173184D02*
D03*
X143191Y171792D02*
D03*
X201792Y113191D02*
D03*
X203184Y114583D02*
D03*
X204576Y115975D02*
D03*
X205968Y117367D02*
D03*
X207360Y118759D02*
D03*
X208752Y120151D02*
D03*
X210143Y121543D02*
D03*
X211535Y122935D02*
D03*
X212927Y124327D02*
D03*
X214319Y125718D02*
D03*
X215711Y127110D02*
D03*
X217103Y128502D02*
D03*
X218495Y129894D02*
D03*
X219887Y131286D02*
D03*
X221279Y132678D02*
D03*
X222671Y134070D02*
D03*
X224063Y135462D02*
D03*
X225455Y136854D02*
D03*
X226847Y138246D02*
D03*
X228239Y139638D02*
D03*
X229631Y141030D02*
D03*
X231023Y142422D02*
D03*
X232415Y143814D02*
D03*
X233806Y145206D02*
D03*
X235198Y146598D02*
D03*
X236590Y147990D02*
D03*
X237982Y149381D02*
D03*
X239374Y150774D02*
D03*
X240766Y152165D02*
D03*
X242158Y153557D02*
D03*
X243550Y154949D02*
D03*
X244942Y156341D02*
D03*
X246334Y157733D02*
D03*
X247726Y159125D02*
D03*
X249118Y160517D02*
D03*
X250510Y161909D02*
D03*
D12*
X143191D02*
D03*
X144583Y160517D02*
D03*
X145975Y159125D02*
D03*
X147367Y157733D02*
D03*
X148759Y156341D02*
D03*
X150151Y154949D02*
D03*
X151543Y153557D02*
D03*
X152935Y152165D02*
D03*
X154326Y150774D02*
D03*
X155719Y149381D02*
D03*
X157110Y147990D02*
D03*
X158502Y146598D02*
D03*
X159894Y145206D02*
D03*
X161286Y143814D02*
D03*
X162678Y142422D02*
D03*
X164070Y141030D02*
D03*
X165462Y139638D02*
D03*
X166854Y138246D02*
D03*
X168246Y136854D02*
D03*
X169638Y135462D02*
D03*
X171030Y134070D02*
D03*
X172422Y132678D02*
D03*
X173814Y131286D02*
D03*
X175206Y129894D02*
D03*
X176598Y128502D02*
D03*
X177990Y127110D02*
D03*
X179382Y125718D02*
D03*
X180773Y124327D02*
D03*
X182165Y122935D02*
D03*
X183557Y121543D02*
D03*
X184949Y120151D02*
D03*
X186341Y118759D02*
D03*
X187733Y117367D02*
D03*
X189125Y115975D02*
D03*
X190517Y114583D02*
D03*
X191909Y113191D02*
D03*
X250510Y171792D02*
D03*
X249118Y173184D02*
D03*
X247726Y174576D02*
D03*
X246334Y175968D02*
D03*
X244942Y177360D02*
D03*
X243550Y178752D02*
D03*
X242158Y180143D02*
D03*
X240766Y181535D02*
D03*
X239374Y182927D02*
D03*
X237982Y184319D02*
D03*
X236590Y185711D02*
D03*
X235198Y187103D02*
D03*
X233806Y188495D02*
D03*
X232415Y189887D02*
D03*
X231023Y191279D02*
D03*
X229631Y192671D02*
D03*
X228239Y194063D02*
D03*
X226847Y195455D02*
D03*
X225455Y196847D02*
D03*
X224063Y198239D02*
D03*
X222671Y199631D02*
D03*
X221279Y201023D02*
D03*
X219887Y202414D02*
D03*
X218495Y203806D02*
D03*
X217103Y205198D02*
D03*
X215711Y206590D02*
D03*
X214319Y207982D02*
D03*
X212927Y209374D02*
D03*
X211535Y210766D02*
D03*
X210143Y212158D02*
D03*
X208752Y213550D02*
D03*
X207360Y214942D02*
D03*
X205968Y216334D02*
D03*
X204576Y217726D02*
D03*
X203184Y219118D02*
D03*
X201792Y220510D02*
D03*
D13*
X260457Y145000D02*
D03*
X267543D02*
D03*
X74543Y165000D02*
D03*
X67457D02*
D03*
X67457Y147000D02*
D03*
X74543D02*
D03*
Y131000D02*
D03*
X67457D02*
D03*
X91457Y132000D02*
D03*
X98543D02*
D03*
X91457Y123000D02*
D03*
X98543D02*
D03*
X109457Y171000D02*
D03*
X116543D02*
D03*
Y161000D02*
D03*
X109457D02*
D03*
X111457Y142000D02*
D03*
X118543D02*
D03*
X146457Y227000D02*
D03*
X153543D02*
D03*
X120457Y193000D02*
D03*
X127543D02*
D03*
X123457Y214000D02*
D03*
X130543D02*
D03*
X260457Y152000D02*
D03*
X267543D02*
D03*
X224457Y82000D02*
D03*
X231543D02*
D03*
X208457Y81000D02*
D03*
X215543D02*
D03*
X194457D02*
D03*
X201543D02*
D03*
X201457Y99000D02*
D03*
X208543D02*
D03*
D14*
X89063Y252000D02*
D03*
X96937D02*
D03*
X262063Y346000D02*
D03*
X269937D02*
D03*
X269063Y45000D02*
D03*
X276937D02*
D03*
X305063D02*
D03*
X312937D02*
D03*
X224063Y73000D02*
D03*
X231937D02*
D03*
X224063Y91000D02*
D03*
X231937D02*
D03*
D15*
X89260Y291000D02*
D03*
X96740D02*
D03*
X91260Y165000D02*
D03*
X98740D02*
D03*
X91260Y149000D02*
D03*
X98740D02*
D03*
X91260Y141000D02*
D03*
X98740D02*
D03*
D16*
X91654Y185000D02*
D03*
X98347D02*
D03*
X67654Y194000D02*
D03*
X74347D02*
D03*
X67654Y204000D02*
D03*
X74347D02*
D03*
X67654Y214500D02*
D03*
X74347D02*
D03*
X67654Y139000D02*
D03*
X74347D02*
D03*
X208653Y90000D02*
D03*
X215347D02*
D03*
D17*
X218642Y30350D02*
D03*
Y61650D02*
D03*
X236358Y30350D02*
D03*
Y61650D02*
D03*
X186142Y30350D02*
D03*
Y61650D02*
D03*
X203858Y30350D02*
D03*
Y61650D02*
D03*
D18*
X85500Y263551D02*
D03*
Y282449D02*
D03*
X95500Y263551D02*
D03*
X90500D02*
D03*
X100500D02*
D03*
X90500Y282449D02*
D03*
X95500D02*
D03*
X100500D02*
D03*
D19*
X66374Y156000D02*
D03*
X75626D02*
D03*
X117374Y205000D02*
D03*
X126626D02*
D03*
X191374Y90000D02*
D03*
X200626D02*
D03*
D20*
X91850Y157000D02*
D03*
X98150D02*
D03*
X111850Y133000D02*
D03*
X118150D02*
D03*
D21*
X109000Y113079D02*
D03*
Y122921D02*
D03*
D22*
X124900Y161000D02*
D03*
Y169500D02*
D03*
X131000D02*
D03*
Y161000D02*
D03*
D23*
X124000Y108457D02*
D03*
Y115543D02*
D03*
X143000D02*
D03*
Y108457D02*
D03*
X152000Y108457D02*
D03*
Y115543D02*
D03*
X161000D02*
D03*
Y108457D02*
D03*
X170000Y115543D02*
D03*
Y108457D02*
D03*
X133957Y200457D02*
D03*
Y207543D02*
D03*
X168000Y240457D02*
D03*
Y247543D02*
D03*
X176000Y240457D02*
D03*
Y247543D02*
D03*
X245000Y206457D02*
D03*
Y213543D02*
D03*
X260000Y206457D02*
D03*
Y213543D02*
D03*
D24*
X133000Y108653D02*
D03*
Y115347D02*
D03*
X117000Y210653D02*
D03*
Y217347D02*
D03*
D25*
X98677Y209000D02*
D03*
X83323D02*
D03*
X98677Y214000D02*
D03*
Y204000D02*
D03*
Y199000D02*
D03*
X83323Y214000D02*
D03*
Y204000D02*
D03*
Y199000D02*
D03*
X98677Y194000D02*
D03*
X83323D02*
D03*
D26*
X236000Y286000D02*
D03*
Y291000D02*
D03*
Y296000D02*
D03*
Y311000D02*
D03*
Y301000D02*
D03*
Y306000D02*
D03*
Y316000D02*
D03*
X288000Y286000D02*
D03*
Y291000D02*
D03*
Y306000D02*
D03*
Y296000D02*
D03*
Y301000D02*
D03*
Y311000D02*
D03*
Y316000D02*
D03*
D27*
X242000Y280000D02*
D03*
X252000D02*
D03*
X247000D02*
D03*
Y322000D02*
D03*
X242000D02*
D03*
X252000D02*
D03*
X272000Y280000D02*
D03*
X277000D02*
D03*
X257000D02*
D03*
X267000D02*
D03*
X262000D02*
D03*
X282000D02*
D03*
X272000Y322000D02*
D03*
X277000D02*
D03*
X257000D02*
D03*
X267000D02*
D03*
X262000D02*
D03*
X282000D02*
D03*
D28*
X299748Y54500D02*
D03*
Y59500D02*
D03*
Y64500D02*
D03*
Y69500D02*
D03*
X318252Y54500D02*
D03*
Y64500D02*
D03*
Y59500D02*
D03*
Y69500D02*
D03*
X263748Y54500D02*
D03*
Y59500D02*
D03*
Y64500D02*
D03*
Y69500D02*
D03*
X282252Y54500D02*
D03*
Y64500D02*
D03*
Y59500D02*
D03*
Y69500D02*
D03*
M02*
