%FSLAX25Y25*%
%MOIN*%
G70*
G01*
G75*
G04 Layer_Color=16711935*
%ADD10C,0.04000*%
G04:AMPARAMS|DCode=11|XSize=9.84mil|YSize=61.02mil|CornerRadius=0mil|HoleSize=0mil|Usage=FLASHONLY|Rotation=45.000|XOffset=0mil|YOffset=0mil|HoleType=Round|Shape=Round|*
%AMOVALD11*
21,1,0.05118,0.00984,0.00000,0.00000,135.0*
1,1,0.00984,0.01810,-0.01810*
1,1,0.00984,-0.01810,0.01810*
%
%ADD11OVALD11*%

G04:AMPARAMS|DCode=12|XSize=9.84mil|YSize=61.02mil|CornerRadius=0mil|HoleSize=0mil|Usage=FLASHONLY|Rotation=315.000|XOffset=0mil|YOffset=0mil|HoleType=Round|Shape=Round|*
%AMOVALD12*
21,1,0.05118,0.00984,0.00000,0.00000,45.0*
1,1,0.00984,-0.01810,-0.01810*
1,1,0.00984,0.01810,0.01810*
%
%ADD12OVALD12*%

%ADD13R,0.04528X0.05709*%
%ADD14R,0.05315X0.06102*%
%ADD15R,0.04134X0.05512*%
%ADD16R,0.03347X0.05118*%
%ADD17R,0.05118X0.06102*%
%ADD18O,0.02362X0.08661*%
%ADD19R,0.04528X0.03937*%
%ADD20R,0.03740X0.05315*%
%ADD21R,0.07500X0.04300*%
%ADD22R,0.03500X0.03900*%
%ADD23R,0.05709X0.04528*%
%ADD24R,0.05118X0.03347*%
%ADD25R,0.09449X0.02992*%
%ADD26R,0.07500X0.02800*%
%ADD27R,0.02800X0.07500*%
%ADD28O,0.07480X0.02362*%
%ADD29C,0.00800*%
%ADD30C,0.01600*%
%ADD31C,0.00787*%
%ADD32C,0.27559*%
%ADD33C,0.18740*%
%ADD34R,0.06654X0.06654*%
%ADD35C,0.06654*%
%ADD36C,0.07000*%
%ADD37R,0.07000X0.07000*%
%ADD38C,0.11500*%
%ADD39C,0.01800*%
%ADD40C,0.04000*%
%ADD41C,0.16598*%
G04:AMPARAMS|DCode=42|XSize=185.197mil|YSize=185.197mil|CornerRadius=0mil|HoleSize=0mil|Usage=FLASHONLY|Rotation=0.000|XOffset=0mil|YOffset=0mil|HoleType=Round|Shape=Relief|Width=10mil|Gap=10mil|Entries=4|*
%AMTHD42*
7,0,0,0.18520,0.16520,0.01000,45*
%
%ADD42THD42*%
%ADD43C,0.08291*%
G04:AMPARAMS|DCode=44|XSize=102.913mil|YSize=102.913mil|CornerRadius=0mil|HoleSize=0mil|Usage=FLASHONLY|Rotation=0.000|XOffset=0mil|YOffset=0mil|HoleType=Round|Shape=Relief|Width=10mil|Gap=10mil|Entries=4|*
%AMTHD44*
7,0,0,0.10291,0.08291,0.01000,45*
%
%ADD44THD44*%
%ADD45C,0.08700*%
G04:AMPARAMS|DCode=46|XSize=107mil|YSize=107mil|CornerRadius=0mil|HoleSize=0mil|Usage=FLASHONLY|Rotation=0.000|XOffset=0mil|YOffset=0mil|HoleType=Round|Shape=Relief|Width=10mil|Gap=10mil|Entries=4|*
%AMTHD46*
7,0,0,0.10700,0.08700,0.01000,45*
%
%ADD46THD46*%
%ADD47C,0.12000*%
G04:AMPARAMS|DCode=48|XSize=140mil|YSize=140mil|CornerRadius=0mil|HoleSize=0mil|Usage=FLASHONLY|Rotation=0.000|XOffset=0mil|YOffset=0mil|HoleType=Round|Shape=Relief|Width=10mil|Gap=10mil|Entries=4|*
%AMTHD48*
7,0,0,0.14000,0.12000,0.01000,45*
%
%ADD48THD48*%
G04:AMPARAMS|DCode=49|XSize=68mil|YSize=68mil|CornerRadius=0mil|HoleSize=0mil|Usage=FLASHONLY|Rotation=0.000|XOffset=0mil|YOffset=0mil|HoleType=Round|Shape=Relief|Width=10mil|Gap=10mil|Entries=4|*
%AMTHD49*
7,0,0,0.06800,0.04800,0.01000,45*
%
%ADD49THD49*%
%ADD50C,0.04800*%
%ADD51C,0.16520*%
%ADD52C,0.00984*%
%ADD53C,0.02362*%
%ADD54C,0.01000*%
%ADD55C,0.01575*%
%ADD56C,0.01969*%
%ADD57C,0.03000*%
%ADD58C,0.00200*%
%ADD59C,0.00591*%
G04:AMPARAMS|DCode=60|XSize=17.84mil|YSize=69.02mil|CornerRadius=0mil|HoleSize=0mil|Usage=FLASHONLY|Rotation=45.000|XOffset=0mil|YOffset=0mil|HoleType=Round|Shape=Round|*
%AMOVALD60*
21,1,0.05118,0.01784,0.00000,0.00000,135.0*
1,1,0.01784,0.01810,-0.01810*
1,1,0.01784,-0.01810,0.01810*
%
%ADD60OVALD60*%

G04:AMPARAMS|DCode=61|XSize=17.84mil|YSize=69.02mil|CornerRadius=0mil|HoleSize=0mil|Usage=FLASHONLY|Rotation=315.000|XOffset=0mil|YOffset=0mil|HoleType=Round|Shape=Round|*
%AMOVALD61*
21,1,0.05118,0.01784,0.00000,0.00000,45.0*
1,1,0.01784,-0.01810,-0.01810*
1,1,0.01784,0.01810,0.01810*
%
%ADD61OVALD61*%

%ADD62R,0.05328X0.06509*%
%ADD63R,0.06115X0.06902*%
%ADD64R,0.04934X0.06312*%
%ADD65R,0.04147X0.05918*%
%ADD66R,0.05918X0.06902*%
%ADD67O,0.03162X0.09461*%
%ADD68R,0.05328X0.04737*%
%ADD69R,0.04540X0.06115*%
%ADD70R,0.08300X0.05100*%
%ADD71R,0.04300X0.04700*%
%ADD72R,0.06509X0.05328*%
%ADD73R,0.05918X0.04147*%
%ADD74R,0.10249X0.03792*%
%ADD75R,0.08300X0.03600*%
%ADD76R,0.03600X0.08300*%
%ADD77O,0.08280X0.03162*%
%ADD78C,0.28359*%
%ADD79C,0.19540*%
%ADD80R,0.07453X0.07453*%
%ADD81C,0.07453*%
%ADD82C,0.07800*%
%ADD83R,0.07800X0.07800*%
%ADD84C,0.12300*%
%ADD85C,0.02600*%
D78*
X18110Y20472D02*
D03*
X33071Y357874D02*
D03*
X323228D02*
D03*
X333071Y20472D02*
D03*
D79*
X160252Y314768D02*
D03*
X61827D02*
D03*
D80*
X89075Y309165D02*
D03*
D81*
X94528Y320346D02*
D03*
X99980Y309165D02*
D03*
X105433Y320346D02*
D03*
X110886Y309165D02*
D03*
X116339Y320346D02*
D03*
X121791Y309165D02*
D03*
X127244Y320346D02*
D03*
X132697Y309165D02*
D03*
D82*
X315000Y310000D02*
D03*
X325000D02*
D03*
X315000Y300000D02*
D03*
X325000D02*
D03*
X315000Y290000D02*
D03*
X325000D02*
D03*
X315000Y280000D02*
D03*
X325000D02*
D03*
X315000Y270000D02*
D03*
X325000D02*
D03*
X315000Y260000D02*
D03*
X325000D02*
D03*
X315000Y250000D02*
D03*
X325000D02*
D03*
X315000Y240000D02*
D03*
X325000D02*
D03*
X315000Y230000D02*
D03*
X325000D02*
D03*
X315000Y220000D02*
D03*
X325000D02*
D03*
X315000Y210000D02*
D03*
X325000D02*
D03*
X315000Y200000D02*
D03*
X325000D02*
D03*
X315000Y190000D02*
D03*
X325000D02*
D03*
X315000Y180000D02*
D03*
X325000D02*
D03*
X315000Y170000D02*
D03*
X325000D02*
D03*
X315000Y160000D02*
D03*
X325000D02*
D03*
X315000Y150000D02*
D03*
X325000D02*
D03*
X315000Y140000D02*
D03*
X325000D02*
D03*
X315000Y130000D02*
D03*
X325000D02*
D03*
X315000Y120000D02*
D03*
X30000D02*
D03*
Y110000D02*
D03*
Y130000D02*
D03*
Y170000D02*
D03*
Y90000D02*
D03*
Y100000D02*
D03*
Y160000D02*
D03*
Y140000D02*
D03*
Y150000D02*
D03*
Y200000D02*
D03*
Y180000D02*
D03*
Y190000D02*
D03*
Y230000D02*
D03*
Y210000D02*
D03*
Y220000D02*
D03*
Y260000D02*
D03*
Y240000D02*
D03*
Y250000D02*
D03*
Y270000D02*
D03*
Y280000D02*
D03*
X40000Y100000D02*
D03*
Y130000D02*
D03*
Y110000D02*
D03*
Y120000D02*
D03*
Y160000D02*
D03*
Y140000D02*
D03*
Y150000D02*
D03*
Y170000D02*
D03*
Y180000D02*
D03*
Y220000D02*
D03*
Y190000D02*
D03*
Y210000D02*
D03*
Y230000D02*
D03*
Y250000D02*
D03*
Y200000D02*
D03*
Y240000D02*
D03*
Y280000D02*
D03*
Y260000D02*
D03*
Y270000D02*
D03*
D83*
X325000Y120000D02*
D03*
X40000Y90000D02*
D03*
D84*
X179500Y334000D02*
D03*
X198000Y322200D02*
D03*
Y345800D02*
D03*
D85*
X62000Y147000D02*
D03*
X191102Y274102D02*
D03*
X188839Y271839D02*
D03*
X186576Y269576D02*
D03*
X184314Y267314D02*
D03*
X182051Y265051D02*
D03*
X179788Y262788D02*
D03*
X177525Y260525D02*
D03*
X175263Y258263D02*
D03*
X173000Y256000D02*
D03*
X81000Y143000D02*
D03*
X80000Y131000D02*
D03*
X79000Y169000D02*
D03*
X62000D02*
D03*
X272000Y331000D02*
D03*
X267000D02*
D03*
X81000Y284000D02*
D03*
X136500Y160500D02*
D03*
X139000Y158000D02*
D03*
X136500Y155500D02*
D03*
X107000Y141000D02*
D03*
X238000Y85000D02*
D03*
X205000Y73000D02*
D03*
X187000Y82000D02*
D03*
X215000Y99000D02*
D03*
X242000Y331000D02*
D03*
X247000D02*
D03*
X252000D02*
D03*
X257000D02*
D03*
X262000D02*
D03*
X106500Y214000D02*
D03*
X56251Y188500D02*
D03*
X134000Y214000D02*
D03*
X150000Y219000D02*
D03*
X269000Y39000D02*
D03*
X277000D02*
D03*
X305000D02*
D03*
X210038Y130000D02*
D03*
X235000Y157000D02*
D03*
X277000Y331000D02*
D03*
X230000Y311000D02*
D03*
X259000Y73000D02*
D03*
X248000Y77000D02*
D03*
X262000Y82000D02*
D03*
X288000Y54000D02*
D03*
X325000Y66000D02*
D03*
X230000Y206000D02*
D03*
X256000Y170000D02*
D03*
X63500Y214500D02*
D03*
X107000Y194000D02*
D03*
X239000Y73000D02*
D03*
X154000Y219000D02*
D03*
X211000Y142000D02*
D03*
X282000Y331000D02*
D03*
X188000Y128000D02*
D03*
X168000Y252000D02*
D03*
X166000Y230000D02*
D03*
X184000Y203000D02*
D03*
X235000Y161000D02*
D03*
X256000Y163000D02*
D03*
X288000Y73000D02*
D03*
X189000Y133000D02*
D03*
X193000Y127000D02*
D03*
X170000Y122000D02*
D03*
X262000Y352000D02*
D03*
X270000D02*
D03*
X232000Y211000D02*
D03*
X232806Y207800D02*
D03*
X259000Y172000D02*
D03*
X254000Y180000D02*
D03*
X266000Y79000D02*
D03*
X95000Y247000D02*
D03*
X261000Y160000D02*
D03*
X267000Y177000D02*
D03*
X313000Y39000D02*
D03*
X225000Y60000D02*
D03*
X179000Y30000D02*
D03*
X210000D02*
D03*
X225000D02*
D03*
X210000Y62000D02*
D03*
X291000Y56000D02*
D03*
X293000Y62000D02*
D03*
X232000Y154000D02*
D03*
X225000Y146000D02*
D03*
X221000Y143000D02*
D03*
X218000Y140000D02*
D03*
X166000Y122053D02*
D03*
X184343Y133000D02*
D03*
X125000Y199000D02*
D03*
X89000Y247000D02*
D03*
X217000Y229000D02*
D03*
X213000Y228000D02*
D03*
X209000Y227000D02*
D03*
X205000Y226000D02*
D03*
X226000Y187000D02*
D03*
X221000Y230000D02*
D03*
X270000D02*
D03*
X267000Y233000D02*
D03*
X264000Y236000D02*
D03*
X261000Y239000D02*
D03*
Y243000D02*
D03*
X255000Y153000D02*
D03*
Y191000D02*
D03*
X265000Y158000D02*
D03*
X262000Y173820D02*
D03*
X320000Y108000D02*
D03*
X282000Y270500D02*
D03*
X286000Y274000D02*
D03*
X279000Y291000D02*
D03*
X281000Y315000D02*
D03*
Y311000D02*
D03*
Y306000D02*
D03*
Y301000D02*
D03*
X85000Y142000D02*
D03*
X235000Y175000D02*
D03*
X245000Y221000D02*
D03*
X263000Y220000D02*
D03*
X253000Y211000D02*
D03*
Y219000D02*
D03*
X244000Y200000D02*
D03*
X245000Y188000D02*
D03*
X62000Y190000D02*
D03*
X63654Y200000D02*
D03*
X140000Y203000D02*
D03*
X170600Y209206D02*
D03*
X167000Y212000D02*
D03*
X164000Y206000D02*
D03*
Y202000D02*
D03*
X202000Y123000D02*
D03*
X167000Y95000D02*
D03*
X171000Y143000D02*
D03*
X141000Y181000D02*
D03*
X35000Y165000D02*
D03*
X153000Y173000D02*
D03*
X141000Y184000D02*
D03*
X143000Y189000D02*
D03*
X106500Y204000D02*
D03*
Y199000D02*
D03*
X160607Y177607D02*
D03*
X164000Y178000D02*
D03*
X165000Y182000D02*
D03*
X169000Y186000D02*
D03*
X171690Y188690D02*
D03*
X85000Y158000D02*
D03*
Y168000D02*
D03*
X85000Y132000D02*
D03*
X85000Y123000D02*
D03*
X118000Y128000D02*
D03*
X113000D02*
D03*
X83154Y181000D02*
D03*
X68000Y188000D02*
D03*
X103000Y170000D02*
D03*
X136000Y173000D02*
D03*
X104000Y108000D02*
D03*
X119000Y116000D02*
D03*
Y107000D02*
D03*
X134000Y103000D02*
D03*
X150000Y121000D02*
D03*
X143000Y102000D02*
D03*
X158000Y121000D02*
D03*
X159000Y103000D02*
D03*
M02*
