%FSLAX25Y25*%
%MOIN*%
G70*
G01*
G75*
G04 Layer_Physical_Order=1*
G04 Layer_Color=61183*
%ADD10C,0.04000*%
G04:AMPARAMS|DCode=11|XSize=9.84mil|YSize=61.02mil|CornerRadius=0mil|HoleSize=0mil|Usage=FLASHONLY|Rotation=45.000|XOffset=0mil|YOffset=0mil|HoleType=Round|Shape=Round|*
%AMOVALD11*
21,1,0.05118,0.00984,0.00000,0.00000,135.0*
1,1,0.00984,0.01810,-0.01810*
1,1,0.00984,-0.01810,0.01810*
%
%ADD11OVALD11*%

G04:AMPARAMS|DCode=12|XSize=9.84mil|YSize=61.02mil|CornerRadius=0mil|HoleSize=0mil|Usage=FLASHONLY|Rotation=315.000|XOffset=0mil|YOffset=0mil|HoleType=Round|Shape=Round|*
%AMOVALD12*
21,1,0.05118,0.00984,0.00000,0.00000,45.0*
1,1,0.00984,-0.01810,-0.01810*
1,1,0.00984,0.01810,0.01810*
%
%ADD12OVALD12*%

%ADD13R,0.04528X0.05709*%
%ADD14R,0.05315X0.06102*%
%ADD15R,0.04134X0.05512*%
%ADD16R,0.03347X0.05118*%
%ADD17R,0.05118X0.06102*%
%ADD18O,0.02362X0.08661*%
%ADD19R,0.04528X0.03937*%
%ADD20R,0.03740X0.05315*%
%ADD21R,0.07500X0.04300*%
%ADD22R,0.03500X0.03900*%
%ADD23R,0.05709X0.04528*%
%ADD24R,0.05118X0.03347*%
%ADD25R,0.09449X0.02992*%
%ADD26R,0.07500X0.02800*%
%ADD27R,0.02800X0.07500*%
%ADD28O,0.07480X0.02362*%
%ADD29C,0.00800*%
%ADD30C,0.01600*%
%ADD31C,0.00787*%
%ADD32C,0.27559*%
%ADD33C,0.18740*%
%ADD34R,0.06654X0.06654*%
%ADD35C,0.06654*%
%ADD36C,0.07000*%
%ADD37R,0.07000X0.07000*%
%ADD38C,0.11500*%
%ADD39C,0.01800*%
D10*
X196850Y225312D02*
D03*
Y108389D02*
D03*
X340000Y370000D02*
D03*
X15000Y45000D02*
D03*
Y370000D02*
D03*
D11*
X191909Y220510D02*
D03*
X190517Y219118D02*
D03*
X189125Y217726D02*
D03*
X187733Y216334D02*
D03*
X186341Y214942D02*
D03*
X184949Y213550D02*
D03*
X183557Y212158D02*
D03*
X182165Y210766D02*
D03*
X180773Y209374D02*
D03*
X179382Y207982D02*
D03*
X177990Y206590D02*
D03*
X176598Y205198D02*
D03*
X175206Y203806D02*
D03*
X173814Y202414D02*
D03*
X172422Y201023D02*
D03*
X171030Y199631D02*
D03*
X169638Y198239D02*
D03*
X168246Y196847D02*
D03*
X166854Y195455D02*
D03*
X165462Y194063D02*
D03*
X164070Y192671D02*
D03*
X162678Y191279D02*
D03*
X161286Y189887D02*
D03*
X159894Y188495D02*
D03*
X158502Y187103D02*
D03*
X157110Y185711D02*
D03*
X155719Y184319D02*
D03*
X154326Y182927D02*
D03*
X152935Y181535D02*
D03*
X151543Y180143D02*
D03*
X150151Y178752D02*
D03*
X148759Y177360D02*
D03*
X147367Y175968D02*
D03*
X145975Y174576D02*
D03*
X144583Y173184D02*
D03*
X143191Y171792D02*
D03*
X201792Y113191D02*
D03*
X203184Y114583D02*
D03*
X204576Y115975D02*
D03*
X205968Y117367D02*
D03*
X207360Y118759D02*
D03*
X208752Y120151D02*
D03*
X210143Y121543D02*
D03*
X211535Y122935D02*
D03*
X212927Y124327D02*
D03*
X214319Y125718D02*
D03*
X215711Y127110D02*
D03*
X217103Y128502D02*
D03*
X218495Y129894D02*
D03*
X219887Y131286D02*
D03*
X221279Y132678D02*
D03*
X222671Y134070D02*
D03*
X224063Y135462D02*
D03*
X225455Y136854D02*
D03*
X226847Y138246D02*
D03*
X228239Y139638D02*
D03*
X229631Y141030D02*
D03*
X231023Y142422D02*
D03*
X232415Y143814D02*
D03*
X233806Y145206D02*
D03*
X235198Y146598D02*
D03*
X236590Y147990D02*
D03*
X237982Y149381D02*
D03*
X239374Y150774D02*
D03*
X240766Y152165D02*
D03*
X242158Y153557D02*
D03*
X243550Y154949D02*
D03*
X244942Y156341D02*
D03*
X246334Y157733D02*
D03*
X247726Y159125D02*
D03*
X249118Y160517D02*
D03*
X250510Y161909D02*
D03*
D12*
X143191D02*
D03*
X144583Y160517D02*
D03*
X145975Y159125D02*
D03*
X147367Y157733D02*
D03*
X148759Y156341D02*
D03*
X150151Y154949D02*
D03*
X151543Y153557D02*
D03*
X152935Y152165D02*
D03*
X154326Y150774D02*
D03*
X155719Y149381D02*
D03*
X157110Y147990D02*
D03*
X158502Y146598D02*
D03*
X159894Y145206D02*
D03*
X161286Y143814D02*
D03*
X162678Y142422D02*
D03*
X164070Y141030D02*
D03*
X165462Y139638D02*
D03*
X166854Y138246D02*
D03*
X168246Y136854D02*
D03*
X169638Y135462D02*
D03*
X171030Y134070D02*
D03*
X172422Y132678D02*
D03*
X173814Y131286D02*
D03*
X175206Y129894D02*
D03*
X176598Y128502D02*
D03*
X177990Y127110D02*
D03*
X179382Y125718D02*
D03*
X180773Y124327D02*
D03*
X182165Y122935D02*
D03*
X183557Y121543D02*
D03*
X184949Y120151D02*
D03*
X186341Y118759D02*
D03*
X187733Y117367D02*
D03*
X189125Y115975D02*
D03*
X190517Y114583D02*
D03*
X191909Y113191D02*
D03*
X250510Y171792D02*
D03*
X249118Y173184D02*
D03*
X247726Y174576D02*
D03*
X246334Y175968D02*
D03*
X244942Y177360D02*
D03*
X243550Y178752D02*
D03*
X242158Y180143D02*
D03*
X240766Y181535D02*
D03*
X239374Y182927D02*
D03*
X237982Y184319D02*
D03*
X236590Y185711D02*
D03*
X235198Y187103D02*
D03*
X233806Y188495D02*
D03*
X232415Y189887D02*
D03*
X231023Y191279D02*
D03*
X229631Y192671D02*
D03*
X228239Y194063D02*
D03*
X226847Y195455D02*
D03*
X225455Y196847D02*
D03*
X224063Y198239D02*
D03*
X222671Y199631D02*
D03*
X221279Y201023D02*
D03*
X219887Y202414D02*
D03*
X218495Y203806D02*
D03*
X217103Y205198D02*
D03*
X215711Y206590D02*
D03*
X214319Y207982D02*
D03*
X212927Y209374D02*
D03*
X211535Y210766D02*
D03*
X210143Y212158D02*
D03*
X208752Y213550D02*
D03*
X207360Y214942D02*
D03*
X205968Y216334D02*
D03*
X204576Y217726D02*
D03*
X203184Y219118D02*
D03*
X201792Y220510D02*
D03*
D13*
X260457Y145000D02*
D03*
X267543D02*
D03*
X74543Y165000D02*
D03*
X67457D02*
D03*
X67457Y147000D02*
D03*
X74543D02*
D03*
Y131000D02*
D03*
X67457D02*
D03*
X91457Y132000D02*
D03*
X98543D02*
D03*
X91457Y123000D02*
D03*
X98543D02*
D03*
X109457Y171000D02*
D03*
X116543D02*
D03*
Y161000D02*
D03*
X109457D02*
D03*
X111457Y142000D02*
D03*
X118543D02*
D03*
X146457Y227000D02*
D03*
X153543D02*
D03*
X120457Y193000D02*
D03*
X127543D02*
D03*
X123457Y214000D02*
D03*
X130543D02*
D03*
X260457Y152000D02*
D03*
X267543D02*
D03*
X224457Y82000D02*
D03*
X231543D02*
D03*
X208457Y81000D02*
D03*
X215543D02*
D03*
X194457D02*
D03*
X201543D02*
D03*
X201457Y99000D02*
D03*
X208543D02*
D03*
D14*
X89063Y252000D02*
D03*
X96937D02*
D03*
X262063Y346000D02*
D03*
X269937D02*
D03*
X269063Y45000D02*
D03*
X276937D02*
D03*
X305063D02*
D03*
X312937D02*
D03*
X224063Y73000D02*
D03*
X231937D02*
D03*
X224063Y91000D02*
D03*
X231937D02*
D03*
D15*
X89260Y291000D02*
D03*
X96740D02*
D03*
X91260Y165000D02*
D03*
X98740D02*
D03*
X91260Y149000D02*
D03*
X98740D02*
D03*
X91260Y141000D02*
D03*
X98740D02*
D03*
D16*
X91654Y185000D02*
D03*
X98347D02*
D03*
X67654Y194000D02*
D03*
X74347D02*
D03*
X67654Y204000D02*
D03*
X74347D02*
D03*
X67654Y214500D02*
D03*
X74347D02*
D03*
X67654Y139000D02*
D03*
X74347D02*
D03*
X208653Y90000D02*
D03*
X215347D02*
D03*
D17*
X218642Y30350D02*
D03*
Y61650D02*
D03*
X236358Y30350D02*
D03*
Y61650D02*
D03*
X186142Y30350D02*
D03*
Y61650D02*
D03*
X203858Y30350D02*
D03*
Y61650D02*
D03*
D18*
X85500Y263551D02*
D03*
Y282449D02*
D03*
X95500Y263551D02*
D03*
X90500D02*
D03*
X100500D02*
D03*
X90500Y282449D02*
D03*
X95500D02*
D03*
X100500D02*
D03*
D19*
X66374Y156000D02*
D03*
X75626D02*
D03*
X117374Y205000D02*
D03*
X126626D02*
D03*
X191374Y90000D02*
D03*
X200626D02*
D03*
D20*
X91850Y157000D02*
D03*
X98150D02*
D03*
X111850Y133000D02*
D03*
X118150D02*
D03*
D21*
X109000Y113079D02*
D03*
Y122921D02*
D03*
D22*
X124900Y161000D02*
D03*
Y169500D02*
D03*
X131000D02*
D03*
Y161000D02*
D03*
D23*
X124000Y108457D02*
D03*
Y115543D02*
D03*
X143000D02*
D03*
Y108457D02*
D03*
X152000Y108457D02*
D03*
Y115543D02*
D03*
X161000D02*
D03*
Y108457D02*
D03*
X170000Y115543D02*
D03*
Y108457D02*
D03*
X133957Y200457D02*
D03*
Y207543D02*
D03*
X168000Y240457D02*
D03*
Y247543D02*
D03*
X176000Y240457D02*
D03*
Y247543D02*
D03*
X245000Y206457D02*
D03*
Y213543D02*
D03*
X260000Y206457D02*
D03*
Y213543D02*
D03*
D24*
X133000Y108653D02*
D03*
Y115347D02*
D03*
X117000Y210653D02*
D03*
Y217347D02*
D03*
D25*
X98677Y209000D02*
D03*
X83323D02*
D03*
X98677Y214000D02*
D03*
Y204000D02*
D03*
Y199000D02*
D03*
X83323Y214000D02*
D03*
Y204000D02*
D03*
Y199000D02*
D03*
X98677Y194000D02*
D03*
X83323D02*
D03*
D26*
X236000Y286000D02*
D03*
Y291000D02*
D03*
Y296000D02*
D03*
Y311000D02*
D03*
Y301000D02*
D03*
Y306000D02*
D03*
Y316000D02*
D03*
X288000Y286000D02*
D03*
Y291000D02*
D03*
Y306000D02*
D03*
Y296000D02*
D03*
Y301000D02*
D03*
Y311000D02*
D03*
Y316000D02*
D03*
D27*
X242000Y280000D02*
D03*
X252000D02*
D03*
X247000D02*
D03*
Y322000D02*
D03*
X242000D02*
D03*
X252000D02*
D03*
X272000Y280000D02*
D03*
X277000D02*
D03*
X257000D02*
D03*
X267000D02*
D03*
X262000D02*
D03*
X282000D02*
D03*
X272000Y322000D02*
D03*
X277000D02*
D03*
X257000D02*
D03*
X267000D02*
D03*
X262000D02*
D03*
X282000D02*
D03*
D28*
X299748Y54500D02*
D03*
Y59500D02*
D03*
Y64500D02*
D03*
Y69500D02*
D03*
X318252Y54500D02*
D03*
Y64500D02*
D03*
Y59500D02*
D03*
Y69500D02*
D03*
X263748Y54500D02*
D03*
Y59500D02*
D03*
Y64500D02*
D03*
Y69500D02*
D03*
X282252Y54500D02*
D03*
Y64500D02*
D03*
Y59500D02*
D03*
Y69500D02*
D03*
D29*
X204000Y104880D02*
Y110983D01*
X201792Y113191D02*
X204000Y110983D01*
X201792Y99165D02*
Y102672D01*
X204000Y104880D01*
X67000Y147000D02*
X67457Y146543D01*
X62000Y147000D02*
X67000D01*
X67457Y146543D02*
Y147000D01*
X62000Y147000D02*
X62000Y147000D01*
X176000Y240457D02*
X176000Y240457D01*
Y234000D02*
Y240457D01*
X168000Y217463D02*
X174600Y210863D01*
X168000Y217463D02*
Y232000D01*
X172000Y215726D02*
X176200Y211526D01*
X172000Y215726D02*
Y230000D01*
X176000Y234000D01*
X189654Y233719D02*
Y267346D01*
X187424Y269576D02*
X189654Y267346D01*
X186576Y269576D02*
X187424D01*
X191254Y233057D02*
Y269424D01*
X188839Y271839D02*
X191254Y269424D01*
X192854Y232394D02*
Y272350D01*
X191102Y274102D02*
X192854Y272350D01*
X190400Y229940D02*
X192854Y232394D01*
X190400Y228035D02*
Y229940D01*
X190000Y227635D02*
X190400Y228035D01*
X190000Y222419D02*
Y227635D01*
Y222419D02*
X191909Y220510D01*
X180054Y237696D02*
Y250304D01*
X188800Y230602D02*
X191254Y233057D01*
X188077Y221558D02*
X190517Y219118D01*
X188800Y228698D02*
Y230602D01*
X188077Y227975D02*
X188800Y228698D01*
X188077Y221558D02*
Y227975D01*
X187200Y231265D02*
X189654Y233719D01*
X187200Y229361D02*
Y231265D01*
X186477Y220374D02*
X189125Y217726D01*
X186477Y228638D02*
X187200Y229361D01*
X186477Y220374D02*
Y228638D01*
X185600Y231928D02*
X188054Y234382D01*
X185600Y230024D02*
Y231928D01*
X184877Y219190D02*
X187733Y216334D01*
X184877Y229300D02*
X185600Y230024D01*
X184877Y219190D02*
Y229300D01*
X186454Y235045D02*
Y260648D01*
X184000Y232591D02*
X186454Y235045D01*
X184000Y230686D02*
Y232591D01*
X183277Y218006D02*
X186341Y214942D01*
X183277Y229963D02*
X184000Y230686D01*
X183277Y218006D02*
Y229963D01*
X182400Y233253D02*
X184854Y235708D01*
X182400Y231349D02*
Y233253D01*
X181677Y216823D02*
X184949Y213550D01*
X181677Y230626D02*
X182400Y231349D01*
X181677Y216823D02*
Y230626D01*
X183254Y236370D02*
Y254797D01*
X180800Y233916D02*
X183254Y236370D01*
X180800Y232012D02*
Y233916D01*
X180077Y215639D02*
X183557Y212158D01*
X180077Y231289D02*
X180800Y232012D01*
X180077Y215639D02*
Y231289D01*
X179200Y234579D02*
X181654Y237033D01*
X179200Y232675D02*
Y234579D01*
X178477Y214455D02*
X182165Y210766D01*
X178477Y231951D02*
X179200Y232675D01*
X178477Y214455D02*
Y231951D01*
X177600Y235242D02*
X180054Y237696D01*
X177600Y233337D02*
Y235242D01*
X176877Y213271D02*
X180773Y209374D01*
X176877Y232614D02*
X177600Y233337D01*
X176877Y213271D02*
Y232614D01*
X184314Y267314D02*
X188054Y263573D01*
Y234382D02*
Y263573D01*
X182051Y265051D02*
X186454Y260648D01*
X179788Y262788D02*
X184854Y257722D01*
Y235708D02*
Y257722D01*
X177525Y260525D02*
X183254Y254797D01*
X175263Y258263D02*
X181654Y251871D01*
Y237033D02*
Y251871D01*
X173000Y256000D02*
X177993Y251007D01*
X179351D01*
X180054Y250304D01*
X174600Y209980D02*
Y210863D01*
X173000Y208796D02*
Y210200D01*
X163600Y219600D02*
X173000Y210200D01*
X163600Y219600D02*
Y243143D01*
X82400Y135400D02*
X84035Y137035D01*
X82400Y127400D02*
Y135400D01*
X80000Y131000D02*
X80000Y131000D01*
Y125000D02*
X82400Y127400D01*
X74543Y131000D02*
X80000D01*
X75000Y165000D02*
X79000Y169000D01*
X74543Y165000D02*
X75000D01*
X62000Y169000D02*
X66000Y165000D01*
X67457D01*
X66374Y156000D02*
X67457Y157083D01*
Y165000D01*
X74543Y147000D02*
X78626Y151083D01*
X74347Y146803D02*
X74543Y147000D01*
X78626Y151083D02*
Y153000D01*
X102000D01*
X75626Y156000D02*
X78626Y153000D01*
X74347Y139000D02*
Y146803D01*
X64000Y125000D02*
X80000D01*
X57000Y132000D02*
X64000Y125000D01*
X57000Y132000D02*
Y148000D01*
X84035Y137035D02*
X126035D01*
X78000Y108000D02*
X104000D01*
X55400Y130600D02*
X78000Y108000D01*
X55400Y130600D02*
Y144600D01*
X88000Y95000D02*
X167000D01*
X47000Y136000D02*
X88000Y95000D01*
X47000Y136000D02*
Y143000D01*
X45000Y145000D02*
X47000Y143000D01*
X35000Y145000D02*
X45000D01*
X126035Y137035D02*
X131400Y142400D01*
X186231Y127000D02*
X188000D01*
X182165Y122935D02*
X186231Y127000D01*
X252597Y177600D02*
X257400D01*
X260606Y174394D01*
X246334Y175968D02*
X250366Y180000D01*
X254000D01*
X196000Y291000D02*
X236000D01*
X160000Y255000D02*
X196000Y291000D01*
X160000Y209525D02*
Y255000D01*
X158000Y256000D02*
X198000Y296000D01*
X158000Y209263D02*
Y256000D01*
Y209263D02*
X159000Y208263D01*
X198000Y296000D02*
X236000D01*
X227121Y190161D02*
X229631Y192671D01*
X226458Y190161D02*
X227121D01*
X90500Y282449D02*
Y291760D01*
X160000Y199343D02*
X161779Y197565D01*
X272000Y322000D02*
Y331000D01*
X267000Y322000D02*
Y331000D01*
X170600Y208412D02*
X175206Y203806D01*
X164744Y197565D02*
X166854Y195455D01*
X161779Y197565D02*
X164744D01*
X164661Y206000D02*
X171030Y199631D01*
X166000Y202000D02*
X169638Y198362D01*
X165928Y199165D02*
X168246Y196847D01*
X81000Y284000D02*
X82551Y282449D01*
X85500D01*
Y263551D02*
Y265068D01*
X100500Y263551D02*
X100794D01*
X89063Y252000D02*
X90500Y253437D01*
X161300Y138260D02*
X164070Y141030D01*
X127500Y190500D02*
X139400Y178600D01*
X143551Y177000D02*
X145975Y174576D01*
X142473Y175293D02*
X144583Y173184D01*
X127337Y175293D02*
X142473D01*
X127500Y190500D02*
Y194957D01*
X117000Y217346D02*
X120346Y214000D01*
X126626Y205000D02*
X131169Y200457D01*
X133957D01*
X127543Y195000D02*
X128000Y195457D01*
X127500Y194957D02*
X127543Y195000D01*
X117413Y198043D02*
X120457Y195000D01*
X169638Y135462D02*
X172176Y138000D01*
X142350Y155500D02*
X145975Y159125D01*
X136500Y155500D02*
X142350D01*
X102000Y153000D02*
X103600Y151400D01*
X136500Y160500D02*
X139416D01*
X139000Y158000D02*
X139282D01*
X143191Y161909D01*
X142634Y153000D02*
X147367Y157733D01*
X143818Y151400D02*
X148759Y156341D01*
X145001Y149800D02*
X150151Y154949D01*
X146185Y148200D02*
X151543Y153557D01*
X131899Y160500D02*
X143191Y171792D01*
X81000Y140000D02*
X82000Y139000D01*
X88760D01*
X90760Y141000D01*
X85240Y142000D02*
X91240Y148000D01*
X91260D01*
X146769Y146000D02*
X152935Y152165D01*
X147553Y144000D02*
X154327Y150773D01*
X121358Y146000D02*
X146769D01*
X120543Y144000D02*
X147553D01*
X107000Y141000D02*
X108000Y142000D01*
X111457D01*
X118543D02*
X120543Y144000D01*
X121304Y146054D02*
X121358Y146000D01*
X114054Y146054D02*
X121304D01*
X111457Y143457D02*
X114054Y146054D01*
X111457Y142000D02*
Y143457D01*
X131400Y142400D02*
X148737D01*
X132063Y140800D02*
X149921D01*
X151105Y139200D02*
X158502Y146598D01*
X132725Y139200D02*
X151105D01*
X125263Y134000D02*
X132063Y140800D01*
X152289Y137600D02*
X159894Y145206D01*
X119000Y134000D02*
X125263D01*
X149921Y140800D02*
X157110Y147990D01*
X148737Y142400D02*
X155718Y149382D01*
X154200Y194189D02*
X159894Y188495D01*
X113198Y223990D02*
Y224017D01*
X155800Y195373D02*
X161286Y189887D01*
X56251Y188500D02*
Y188527D01*
X144583Y160583D02*
X146662Y162662D01*
X144583Y160517D02*
Y160583D01*
X146662Y162662D02*
X146693D01*
Y164419D01*
X145701Y165411D02*
X146693Y164419D01*
X144300Y165411D02*
X145701D01*
X139416Y160527D02*
X144300Y165411D01*
X139416Y160500D02*
Y160527D01*
X125600Y154600D02*
X130500Y159500D01*
X118900Y154600D02*
X125600D01*
X98740Y148000D02*
X100540Y149800D01*
X98240Y141000D02*
X100347D01*
X107547Y148200D01*
X102150Y158000D02*
X104536D01*
X109536Y153000D01*
X249118Y173184D02*
X249184D01*
X232000Y91000D02*
X238000Y85000D01*
X231543Y73394D02*
Y82000D01*
X224457D02*
X224850Y82394D01*
X224500Y91150D02*
Y96051D01*
X201543Y76457D02*
X205000Y73000D01*
X201543Y76457D02*
Y81000D01*
X215150D02*
X215346Y81197D01*
X187000Y82000D02*
X189083Y84083D01*
X191374D01*
X194457Y81000D01*
X191374Y84083D02*
Y90000D01*
X201457Y94000D02*
Y99000D01*
Y90831D02*
Y94000D01*
X205654D02*
X208654Y91000D01*
X201457Y94000D02*
X205654D01*
X200626Y90000D02*
X201457Y90831D01*
X209043Y99000D02*
X215000D01*
X208543D02*
X209043D01*
X203184Y114583D02*
X209043Y108723D01*
X201792Y99165D02*
X201957Y99000D01*
X169638Y198239D02*
Y198362D01*
X242000Y322000D02*
Y331000D01*
X247000Y322000D02*
Y331000D01*
X252000Y322000D02*
Y331000D01*
X257000Y322000D02*
Y331000D01*
X262000Y322000D02*
Y331000D01*
X99177Y214000D02*
X106500D01*
X83154Y193331D02*
X83823Y194000D01*
X217103Y205198D02*
X217114D01*
X224500Y91150D02*
X224650Y91000D01*
X204576Y115975D02*
X224500Y96051D01*
X224063Y198239D02*
X224081D01*
X130500Y159500D02*
Y160500D01*
X160600Y201006D02*
X162441Y199165D01*
X160000Y209525D02*
X160600Y208925D01*
X281326Y69500D02*
X282252D01*
X276937Y39063D02*
X277000Y39000D01*
X210038Y130000D02*
X214319Y125718D01*
X277000Y322000D02*
Y331000D01*
X238715Y157000D02*
X242158Y153557D01*
X237148Y153000D02*
X239374Y150773D01*
X230000Y311000D02*
X236000D01*
X305000Y39000D02*
X305063Y39063D01*
X311000Y46937D02*
X312937Y45000D01*
X304006Y36600D02*
X313994D01*
X315400Y38006D01*
Y38083D01*
X316794Y39478D01*
Y48548D01*
X313312Y52031D02*
X316794Y48548D01*
X313312Y52031D02*
Y55486D01*
X262822Y64500D02*
X263748D01*
X256000Y71322D02*
X262822Y64500D01*
X256000Y71322D02*
Y79000D01*
X297500Y69500D02*
X299748D01*
X259000Y73000D02*
X260248D01*
X263748Y69500D01*
X262822Y59500D02*
X263748D01*
X248000Y74322D02*
X262822Y59500D01*
X248000Y74322D02*
Y77000D01*
X285000Y82000D02*
X297500Y69500D01*
X262000Y82000D02*
X285000D01*
X296500Y59500D02*
X299748D01*
X291000Y49606D02*
X304006Y36600D01*
X282252Y59500D02*
X286500D01*
X291000Y49606D02*
Y55000D01*
X282252Y54500D02*
X287500D01*
X288000Y54000D01*
X286500Y59500D02*
X288000Y58000D01*
X282252Y64500D02*
X285500D01*
X318252D02*
X323500D01*
X325000Y66000D01*
X250510Y161909D02*
X252419Y160000D01*
X250510Y171792D02*
X254208D01*
X226847Y195455D02*
X230998Y199606D01*
X228239Y194063D02*
X232182Y198006D01*
X222671Y199631D02*
X229325Y206284D01*
X229609Y206000D01*
X230000D01*
X224081Y198239D02*
X228842Y203000D01*
X222309Y140000D02*
X225455Y136854D01*
X218495Y203806D02*
Y203889D01*
X229631Y192671D02*
X233366Y196406D01*
X247726Y174576D02*
X250744Y177594D01*
X254208Y171792D02*
X256000Y170000D01*
X176200Y211164D02*
X179382Y207982D01*
X78000Y173000D02*
X83154Y178154D01*
X63500Y214500D02*
X67654D01*
X99177Y194000D02*
X107000D01*
X231937Y73000D02*
X239000D01*
X162900Y137076D02*
X165462Y139638D01*
X250673Y150009D02*
Y150610D01*
X183557Y121533D02*
Y121543D01*
X184949Y120151D02*
X187799Y123000D01*
X282000Y322000D02*
Y331000D01*
X183557Y121543D02*
X187000Y124985D01*
X189985D01*
X192000Y127000D01*
X188000D02*
Y128000D01*
X179382Y125718D02*
X184000Y130337D01*
X179887Y112305D02*
X186341Y118759D01*
X179887Y100233D02*
Y112305D01*
X163812Y84158D02*
X179887Y100233D01*
X183087Y109937D02*
X189125Y115975D01*
X183087Y98908D02*
Y109937D01*
X164400Y80220D02*
X183087Y98908D01*
X184687Y108753D02*
X190517Y114583D01*
X184687Y98245D02*
Y108753D01*
X164695Y78252D02*
X184687Y98245D01*
X81748Y78252D02*
X164695D01*
X186675Y107957D02*
X191909Y113191D01*
X186287Y107957D02*
X186675D01*
X186287Y97582D02*
Y107957D01*
X164989Y76283D02*
X186287Y97582D01*
X73717Y76283D02*
X164989D01*
X173000Y208796D02*
X176598Y205198D01*
X176200Y211164D02*
Y211526D01*
X163600Y243143D02*
X168000Y247543D01*
X176000D01*
X211535Y210766D02*
X252000Y251231D01*
X210143Y212158D02*
X247000Y249015D01*
X208752Y213550D02*
X242000Y246799D01*
X218495Y203889D02*
X260006Y245400D01*
X214319Y207982D02*
X262000Y255663D01*
Y280000D01*
X212927Y209374D02*
X257000Y253447D01*
Y280000D01*
X252000Y251231D02*
Y280000D01*
X247000Y249015D02*
Y280000D01*
X242000Y246799D02*
Y280000D01*
X89780Y80220D02*
X164400D01*
X154327Y150773D02*
X156836Y153283D01*
X176598Y128502D02*
Y128598D01*
X179000Y131000D01*
X242283Y159000D02*
X250673Y150610D01*
X235000Y157000D02*
X238715D01*
X237499Y161000D02*
X243550Y154949D01*
X235000Y161000D02*
X237499D01*
X242283Y159000D02*
Y160283D01*
X179382Y207982D02*
X182000Y205364D01*
Y205000D02*
Y205364D01*
X246334Y157733D02*
X254067Y150000D01*
X259457D01*
X255419Y163000D02*
X256000D01*
X257402Y160000D02*
X261000D01*
X249118Y160517D02*
X251819Y157815D01*
X255218D01*
X257402Y160000D01*
X250636Y156215D02*
X255880D01*
X256665Y157000D01*
X247726Y159125D02*
X250636Y156215D01*
X285500Y64500D02*
X288000Y67000D01*
Y73000D01*
X285394Y79000D02*
X290400Y73994D01*
X256000Y79000D02*
X285394D01*
X319000Y39000D02*
Y53752D01*
X318252Y54500D02*
X319000Y53752D01*
X282252Y54500D02*
X302752Y34000D01*
X189000Y132553D02*
Y133000D01*
X180773Y124327D02*
X189000Y132553D01*
X187799Y123000D02*
X194000D01*
X211000Y140000D01*
Y142000D01*
X161000Y121256D02*
X172422Y132678D01*
X175000Y124121D02*
X177990Y127110D01*
X166000Y123473D02*
X173814Y131286D01*
X170000Y122000D02*
Y124689D01*
X175206Y129894D01*
X173000Y120000D02*
Y124905D01*
X176598Y128502D01*
X221279Y201023D02*
X231256Y211000D01*
X232000D01*
X233366Y196406D02*
X236012D01*
X259000Y172000D02*
Y173000D01*
X249118Y173184D02*
X251934Y176000D01*
X256000D01*
X259000Y173000D01*
X228842Y203000D02*
X231552D01*
X232806Y204254D01*
Y207800D01*
X133957Y213957D02*
X133957Y213957D01*
X133913Y214000D02*
X133957Y213957D01*
X224850Y82394D02*
Y91000D01*
X117413Y198043D02*
Y211000D01*
X130500Y160500D02*
X131899D01*
X118000Y133000D02*
X119000Y134000D01*
X252419Y160000D02*
X255419Y163000D01*
X112701Y128299D02*
Y134000D01*
X252419Y160000D02*
X255419Y163000D01*
X234180Y291000D02*
X236000D01*
X130500Y160500D02*
X131899D01*
X120346Y214000D02*
X123850D01*
X215346Y81197D02*
Y91000D01*
X224850Y82394D02*
Y91000D01*
X231150D02*
X232000D01*
X205000Y73000D02*
X224850D01*
X209043Y99000D02*
Y108723D01*
X201543Y81000D02*
X208850D01*
X133913Y214000D02*
X133957Y213957D01*
X130150Y214000D02*
X133913D01*
X244942Y177360D02*
X251582Y184000D01*
X254000D01*
X261000Y177000D01*
X225000Y143000D02*
X228362Y139638D01*
X256000Y79000D02*
X266000D01*
X100794Y256206D02*
Y263551D01*
X112000Y251788D02*
Y270949D01*
X100500Y282449D02*
X112000Y270949D01*
X105000Y255000D02*
Y271000D01*
X102000Y274000D02*
X105000Y271000D01*
X91000Y274000D02*
X102000D01*
X86000Y269000D02*
X91000Y274000D01*
X86000Y264051D02*
Y269000D01*
X85500Y263551D02*
X86000Y264051D01*
X275000Y46937D02*
X276937Y45000D01*
X95500Y282449D02*
Y291760D01*
X260606Y174394D02*
X261426D01*
X260006Y245400D02*
X260089D01*
X259457Y150000D02*
X260457Y151000D01*
X259457Y153000D02*
X260457Y152000D01*
X267543Y144000D02*
Y151729D01*
X261000Y177000D02*
X267000D01*
X315500Y69500D02*
X318252D01*
X302752Y34000D02*
X314000D01*
X319000Y39000D01*
X313312Y55486D02*
X317326Y59500D01*
X318252D01*
X312937Y39063D02*
X313000Y39000D01*
X219992Y60000D02*
X225000D01*
X218642Y58650D02*
X219992Y60000D01*
X186642Y58150D02*
X194892Y66400D01*
X237400D01*
X243000Y84000D02*
X258400Y99400D01*
X243000Y72000D02*
Y84000D01*
X237400Y66400D02*
X243000Y72000D01*
X179000Y30000D02*
X187000D01*
X186642Y30358D02*
X187000Y30000D01*
X186642Y30358D02*
Y58150D01*
X204358Y30000D02*
Y31000D01*
Y30000D02*
X210000D01*
X218642D02*
X225000D01*
X244600Y83337D02*
X259063Y97800D01*
X244600Y68600D02*
Y83337D01*
X236358Y30350D02*
Y61650D01*
X237004Y61004D02*
X244600Y68600D01*
X235350Y30350D02*
X236358D01*
X229000Y24000D02*
X235350Y30350D01*
X151000Y24000D02*
X229000D01*
X125000Y50000D02*
X151000Y24000D01*
X203858Y61650D02*
X209650D01*
X210000Y62000D01*
X296500Y64500D02*
X299748D01*
X290400Y70600D02*
Y73994D01*
Y70600D02*
X296500Y64500D01*
X288000Y58000D02*
X291000Y55000D01*
X288000Y58000D02*
X290000Y56000D01*
X291000D01*
X294000Y62000D02*
X296500Y59500D01*
X293000Y62000D02*
X294000D01*
X236148Y154000D02*
X237148Y153000D01*
X232000Y154000D02*
X236148D01*
X225000Y143000D02*
Y146000D01*
X222093Y143000D02*
X226847Y138246D01*
X221000Y143000D02*
X222093D01*
X218000Y140000D02*
X222309D01*
X166000Y122053D02*
Y123473D01*
X184000Y130337D02*
X184343Y130680D01*
Y133000D01*
X125000Y198457D02*
X128000Y195457D01*
X125000Y198457D02*
Y199000D01*
X121000Y191000D02*
Y193000D01*
Y191000D02*
X135000Y177000D01*
X141917D01*
X141976Y177059D01*
X142971D01*
X143030Y177000D01*
X143551D01*
X139400Y178600D02*
X141254D01*
X141420Y178766D01*
X144569D01*
X147367Y175968D01*
X152217Y185037D02*
X154327Y182927D01*
X215711Y206590D02*
X267000Y257879D01*
Y280000D01*
X217103Y205198D02*
X272000Y260095D01*
X260089Y245400D02*
X277000Y262311D01*
Y280000D01*
X311000Y290000D02*
X315000D01*
X207360Y214942D02*
X221000Y228582D01*
X311000Y295000D02*
X320000D01*
X325000Y300000D01*
X205968Y216334D02*
X217000Y227366D01*
Y229000D01*
X311000Y300000D02*
X315000D01*
X204576Y217726D02*
X213000Y226150D01*
Y228000D01*
X311000Y305000D02*
X320000D01*
X325000Y310000D01*
X203184Y219118D02*
X209000Y224934D01*
Y227000D01*
X311000Y310000D02*
X315000D01*
X201792Y220510D02*
X205000Y223718D01*
Y226000D01*
X295600Y289600D02*
X311000Y305000D01*
X297200Y286200D02*
X311000Y300000D01*
X298800Y282800D02*
X311000Y295000D01*
X300400Y279400D02*
X311000Y290000D01*
X302000Y276000D02*
X311000Y285000D01*
X303600Y272600D02*
X311000Y280000D01*
Y285000D02*
X320000D01*
X325000Y290000D01*
X219887Y202415D02*
Y202544D01*
X243343Y226000D01*
X311000Y280000D02*
X315000D01*
X225455Y196847D02*
X229814Y201206D01*
X233152D01*
X236176Y204230D01*
Y216570D01*
X243606Y224000D01*
X320000Y275000D02*
X325000Y280000D01*
X226000Y187000D02*
X226744D01*
X231023Y191279D01*
X232415Y189887D02*
X240000Y197473D01*
X221000Y228582D02*
Y230000D01*
X270000D02*
Y241212D01*
X267000Y233000D02*
Y240475D01*
X264000Y236000D02*
Y239737D01*
X261000Y243000D02*
X294000Y276000D01*
Y293000D01*
X302000Y270949D02*
Y276000D01*
X270353Y226000D02*
X272400Y228047D01*
X270616Y224000D02*
X274000Y227384D01*
X303600Y270286D02*
Y272600D01*
X271279Y222400D02*
X275600Y226721D01*
X307839Y270000D02*
X315000D01*
X310576Y275000D02*
X320000D01*
X272400Y228047D02*
Y241349D01*
X274000Y227384D02*
Y240686D01*
X275600Y226721D02*
Y240024D01*
X277200Y226059D02*
Y239361D01*
X255000Y153000D02*
X259457D01*
X250673Y150009D02*
X256682Y144000D01*
X260457D01*
X261000Y239000D02*
X295600Y273600D01*
Y289600D01*
X264000Y239737D02*
X297200Y272937D01*
Y286200D01*
X267000Y240475D02*
X298800Y272274D01*
Y282800D01*
X270000Y241212D02*
X300400Y271612D01*
Y279400D01*
X272400Y241349D02*
X302000Y270949D01*
X274000Y240686D02*
X303600Y270286D01*
X275600Y240024D02*
X310576Y275000D01*
X277200Y239361D02*
X307839Y270000D01*
X265000Y200000D02*
X279000Y214000D01*
X259000Y190000D02*
X266314D01*
X279000Y214000D02*
Y233000D01*
X311000Y265000D01*
X243550Y178752D02*
X250799Y186000D01*
X258000D01*
X260000Y188000D02*
X266576D01*
X258000Y186000D02*
X260000Y188000D01*
X320000Y235000D02*
X325000Y240000D01*
X242158Y180143D02*
X247798Y185784D01*
Y185798D01*
X250000Y188000D02*
X257000D01*
X247798Y185798D02*
X250000Y188000D01*
X257000D02*
X259000Y190000D01*
X237271Y177271D02*
Y179019D01*
X237265Y179025D02*
X237271Y179019D01*
X237265Y179025D02*
Y180427D01*
X237271Y180433D01*
Y180824D01*
X239374Y182927D01*
X255000Y191000D02*
X257000D01*
X258000Y192000D01*
X320000Y245000D02*
X325000Y250000D01*
X237982Y184319D02*
Y184376D01*
X236590Y185711D02*
X236711D01*
X320000Y255000D02*
X325000Y260000D01*
X249000Y200000D02*
X265000D01*
X311000Y265000D02*
X320000D01*
X325000Y270000D01*
X308263Y260000D02*
X315000D01*
X306000Y255000D02*
X320000D01*
X303263Y250000D02*
X315000D01*
X300525Y245000D02*
X320000D01*
X297788Y240000D02*
X315000D01*
X280600Y213337D02*
Y232337D01*
X308263Y260000D01*
X265263Y198000D02*
X280600Y213337D01*
X282200Y212674D02*
Y231200D01*
X306000Y255000D01*
X265526Y196000D02*
X282200Y212674D01*
X283800Y212012D02*
Y230537D01*
X303263Y250000D01*
X265788Y194000D02*
X283800Y212012D01*
X266051Y192000D02*
X285400Y211349D01*
Y229874D01*
X300525Y245000D01*
X287000Y210686D02*
Y229212D01*
X297788Y240000D01*
X266314Y190000D02*
X287000Y210686D01*
X288600Y210024D02*
Y228549D01*
X258000Y192000D02*
X266051D01*
X266576Y188000D02*
X288600Y210024D01*
X267543Y152000D02*
Y154457D01*
X265000Y157000D02*
X267543Y154457D01*
X256665Y157000D02*
X265000D01*
X208752Y120151D02*
X225902Y103000D01*
X311000Y140000D02*
X315000D01*
X207360Y118759D02*
X225118Y101000D01*
X320000Y135000D02*
X325000Y140000D01*
X270000Y139000D02*
X272000Y141000D01*
X250364Y137000D02*
X270263D01*
X274000Y140737D01*
X249580Y135000D02*
X270526D01*
X276000Y140474D01*
Y185000D01*
X248796Y133000D02*
X270788D01*
X278000Y140212D01*
X271051Y131000D02*
X280000Y139949D01*
Y179000D01*
X247228Y129000D02*
X271314D01*
X282000Y139686D01*
X271576Y127000D02*
X284000Y139424D01*
Y173000D01*
X245660Y125000D02*
X271839D01*
X286000Y139161D01*
X272102Y123000D02*
X288000Y138898D01*
Y167000D01*
X235741Y121000D02*
X272365D01*
X290000Y138635D01*
X272627Y119000D02*
X292000Y138373D01*
Y161000D01*
X234173Y117000D02*
X272890D01*
X294000Y138110D01*
X273153Y115000D02*
X296000Y137847D01*
Y155000D01*
X232606Y113000D02*
X273416D01*
X298000Y137584D01*
X273678Y111000D02*
X300000Y137322D01*
Y149000D01*
X228254Y109000D02*
X273941D01*
X302000Y137059D01*
X304000Y136796D02*
Y143000D01*
X288600Y228549D02*
X295051Y235000D01*
X261426Y174394D02*
X262000Y173820D01*
X295051Y235000D02*
X320000D01*
X306000Y142000D02*
X309000Y145000D01*
X320000D01*
X304000Y143000D02*
X311000Y150000D01*
X302000Y137059D02*
Y146000D01*
X311000Y155000D01*
X300000Y149000D02*
X311000Y160000D01*
X298000Y137584D02*
Y152000D01*
X311000Y165000D01*
X296000Y155000D02*
X311000Y170000D01*
X294000Y138110D02*
Y158000D01*
X311000Y175000D01*
X292000Y161000D02*
X311000Y180000D01*
X290000Y138635D02*
Y164000D01*
X311000Y185000D01*
X288000Y167000D02*
X311000Y190000D01*
X286000Y139161D02*
Y170000D01*
X311000Y195000D01*
X284000Y173000D02*
X311000Y200000D01*
X282000Y139686D02*
Y176000D01*
X311000Y205000D01*
X280000Y179000D02*
X311000Y210000D01*
X278000Y140212D02*
Y182000D01*
X311000Y215000D01*
X276000Y185000D02*
X311000Y220000D01*
X274000Y140737D02*
Y188000D01*
X311000Y225000D01*
X272000Y141000D02*
Y191000D01*
X311000Y230000D01*
X210143Y121543D02*
X226686Y105000D01*
X320000Y145000D02*
X325000Y150000D01*
X211535Y122935D02*
X227470Y107000D01*
X311000Y150000D02*
X315000D01*
X212927Y124327D02*
X228254Y109000D01*
X311000Y155000D02*
X320000D01*
X325000Y160000D01*
X215711Y127110D02*
X231822Y111000D01*
X311000Y160000D02*
X315000D01*
X217103Y128502D02*
X232606Y113000D01*
X311000Y165000D02*
X320000D01*
X325000Y170000D01*
X218495Y129894D02*
X233389Y115000D01*
X311000Y170000D02*
X315000D01*
X219887Y131286D02*
X234173Y117000D01*
X311000Y175000D02*
X320000D01*
X325000Y180000D01*
X221279Y132678D02*
X234957Y119000D01*
X311000Y180000D02*
X315000D01*
X222671Y134070D02*
X235741Y121000D01*
X311000Y185000D02*
X320000D01*
X325000Y190000D01*
X224063Y135462D02*
X236525Y123000D01*
X311000Y190000D02*
X315000D01*
X229631Y141030D02*
X245660Y125000D01*
X311000Y195000D02*
X320000D01*
X325000Y200000D01*
X311000D02*
X315000D01*
X232415Y143814D02*
X247228Y129000D01*
X311000Y205000D02*
X320000D01*
X325000Y210000D01*
X233806Y145206D02*
X248012Y131000D01*
X311000Y210000D02*
X315000D01*
X235198Y146598D02*
X248796Y133000D01*
X311000Y215000D02*
X320000D01*
X325000Y220000D01*
X236590Y147990D02*
X249580Y135000D01*
X311000Y220000D02*
X315000D01*
X237982Y149382D02*
X250364Y137000D01*
X311000Y225000D02*
X320000D01*
X325000Y230000D01*
X253932Y139000D02*
X270000D01*
X240766Y152165D02*
X253932Y139000D01*
X311000Y230000D02*
X315000D01*
X248012Y131000D02*
X271051D01*
X236525Y123000D02*
X272102D01*
X234957Y119000D02*
X272627D01*
X233389Y115000D02*
X273153D01*
X231822Y111000D02*
X273678D01*
X307600Y135871D02*
Y136600D01*
X311000Y140000D01*
X258400Y99400D02*
X304400D01*
X325000Y120000D01*
X227470Y107000D02*
X274204D01*
X304000Y136796D01*
X225902Y103000D02*
X274729D01*
X307600Y135871D01*
X259063Y97800D02*
X309800D01*
X320000Y108000D01*
X41500Y188500D02*
X56251D01*
X40000Y190000D02*
X41500Y188500D01*
Y178500D02*
X58846D01*
X40000Y180000D02*
X41500Y178500D01*
X43000Y173000D02*
X78000D01*
X40000Y170000D02*
X43000Y173000D01*
X30000Y140000D02*
X35000Y135000D01*
X45000D01*
X30000Y130000D02*
X35000Y125000D01*
X45000D01*
X77780Y92220D01*
X45000Y115000D02*
X71648Y88352D01*
X35000Y115000D02*
X45000D01*
X30000Y120000D02*
X35000Y115000D01*
X30000Y110000D02*
X35000Y105000D01*
X45000D01*
X63617Y86383D01*
X45000Y135000D02*
X82989Y97011D01*
X95842Y84158D02*
X163812D01*
X82989Y97011D02*
X95842Y84158D01*
X77780Y92220D02*
X89780Y80220D01*
X71648Y88352D02*
X81748Y78252D01*
X63617Y86383D02*
X73717Y76283D01*
X70000Y50000D02*
X125000D01*
X35000Y85000D02*
X70000Y50000D01*
X35000Y85000D02*
Y95000D01*
X40000Y100000D01*
X294000Y293000D02*
X311000Y310000D01*
X286000Y284000D02*
X288000Y286000D01*
X272000Y260095D02*
Y280000D01*
X282000Y270500D02*
Y280000D01*
X286000Y274000D02*
Y284000D01*
X279000Y291000D02*
X288000D01*
X287000Y315000D02*
X288000Y316000D01*
X281000Y315000D02*
X287000D01*
Y310000D02*
X288000Y311000D01*
X286000D02*
X287000Y310000D01*
X281000Y311000D02*
X286000D01*
X281000Y306000D02*
X288000D01*
X281000Y301000D02*
X288000D01*
X81000Y140000D02*
Y143000D01*
X235000Y175000D02*
X237271Y177271D01*
X244000Y221000D02*
X245000D01*
X244000D02*
X245400Y222400D01*
X250263Y194000D02*
X265788D01*
X250000Y196000D02*
X265526D01*
X249263Y198000D02*
X265263D01*
X243343Y226000D02*
X270353D01*
X243606Y224000D02*
X270616D01*
X245400Y222400D02*
X271279D01*
X262600Y220000D02*
X263000D01*
X271941Y220800D02*
X277200Y226059D01*
X262600Y220000D02*
X263400Y220800D01*
X271941D01*
X258457Y213543D02*
X260000D01*
X253000Y219000D02*
X258457Y213543D01*
X247543Y213543D02*
X253000Y219000D01*
X238543Y213543D02*
X247543D01*
X237776Y212776D02*
X238543Y213543D01*
X243800Y206457D02*
X248457D01*
X253000Y211000D01*
X249228Y203228D02*
X256772D01*
X260000Y206457D01*
X248000Y202000D02*
X249228Y203228D01*
X236012Y196406D02*
X240006Y200400D01*
X241606Y202000D01*
X237776Y203567D02*
Y212776D01*
X230998Y199606D02*
X233814D01*
X237776Y203567D01*
X232182Y198006D02*
X235349D01*
X243800Y206457D01*
X240766Y181535D02*
X245000Y185769D01*
X233806Y188495D02*
X242312Y197000D01*
X246000D01*
X249000Y200000D01*
X242527D02*
X244000D01*
X241606Y202000D02*
X242606D01*
X243006Y202400D01*
X244994D01*
X245394Y202000D01*
X248000D01*
X240000Y197473D02*
X242527Y200000D01*
X247400Y193400D02*
X250000Y196000D01*
X237982Y184376D02*
X245406Y191800D01*
X248063D01*
X245903Y193566D02*
X246069Y193400D01*
X247400D01*
X246428Y195166D02*
X249263Y198000D01*
X243261Y195166D02*
X246428D01*
X244566Y193566D02*
X245903D01*
X248063Y191800D02*
X250263Y194000D01*
X236711Y185711D02*
X244566Y193566D01*
X235198Y187103D02*
X243261Y195166D01*
X245000Y185769D02*
Y188000D01*
X250744Y177594D02*
X250916Y177766D01*
X252431D01*
X252597Y177600D01*
X94000Y218000D02*
X107208D01*
X113198Y223990D01*
X92000Y210400D02*
Y216000D01*
X94000Y218000D01*
X194000Y286000D02*
X236000D01*
X162000Y211444D02*
Y254000D01*
X194000Y286000D01*
X157400Y196557D02*
X162678Y191279D01*
X62000Y190000D02*
X63654D01*
X67654Y194000D01*
X90600Y209000D02*
X92000Y210400D01*
X63654Y200000D02*
X67654Y204000D01*
X79346Y199000D02*
X83823D01*
X74346Y211346D02*
Y212654D01*
Y200346D02*
Y204000D01*
X83823D01*
X74346Y212654D02*
X78000Y209000D01*
X90600D01*
X58500Y218500D02*
X79323D01*
X83823Y214000D01*
X133957Y200457D02*
X137457D01*
X140000Y203000D01*
X174600Y209980D02*
X177990Y206590D01*
X170600Y208412D02*
Y209206D01*
X154200Y194189D02*
Y198355D01*
Y202800D01*
X100794Y256206D02*
X154200Y202800D01*
X155800Y195373D02*
Y204200D01*
X105000Y255000D02*
X155800Y204200D01*
X157400Y196557D02*
Y206388D01*
X112000Y251788D02*
X157400Y206388D01*
X159000Y200343D02*
X161779Y197565D01*
X159000Y200343D02*
Y208263D01*
X160600Y201006D02*
Y208925D01*
X167000Y209228D02*
X173814Y202415D01*
X167000Y209228D02*
Y212000D01*
X162000Y211444D02*
X172422Y201023D01*
X162441Y199165D02*
X165928D01*
X164000Y206000D02*
X164661D01*
X164000Y202000D02*
X166000D01*
X203485Y119850D02*
X205968Y117367D01*
X203485Y119850D02*
Y121515D01*
X202000Y123000D02*
X203485Y121515D01*
X30000Y150000D02*
X35000Y145000D01*
X45000Y160000D02*
X57000Y148000D01*
X40000Y160000D02*
X45000D01*
X169638Y135462D02*
X171088Y136912D01*
X168246Y136854D02*
Y136899D01*
X171000Y139653D01*
Y143000D01*
X45000Y155000D02*
X55400Y144600D01*
X35000Y155000D02*
X45000D01*
X30000Y160000D02*
X35000Y155000D01*
X141000Y181000D02*
X141902D01*
X147902Y181000D02*
X150151Y178752D01*
X141902Y181000D02*
X147902Y181000D01*
X147686Y184000D02*
X151543Y180143D01*
X148470Y186000D02*
X152935Y181535D01*
X138000Y197685D02*
X142100Y201785D01*
Y210900D01*
X58846Y178500D02*
X79346Y199000D01*
X148254Y189000D02*
X154326Y182927D01*
X35000Y203000D02*
X37000Y205000D01*
X45000D01*
X58500Y218500D01*
X40000Y200000D02*
X45000D01*
X35000Y165000D02*
Y203000D01*
X148759Y177360D02*
X153000Y173118D01*
Y173000D02*
Y173118D01*
X141000Y184000D02*
X147686D01*
X138000Y191000D02*
Y197685D01*
Y191000D02*
X143000Y186000D01*
X148470D01*
X143000Y189000D02*
X148254D01*
X99177Y204000D02*
X106500D01*
X99177Y199000D02*
X106500D01*
X160607Y177607D02*
X161000Y178000D01*
Y179000D01*
X158159Y181841D02*
Y181879D01*
X155719Y184319D02*
X158159Y181879D01*
Y181841D02*
X161000Y179000D01*
X164000Y178000D02*
Y178784D01*
X159551Y183233D02*
X164000Y178784D01*
X157110Y185711D02*
X159551Y183271D01*
Y183233D02*
Y183271D01*
X163784Y181784D02*
X164000Y182000D01*
X160943Y184625D02*
X163784Y181784D01*
X158502Y187103D02*
X160943Y184663D01*
X164000Y182000D02*
X165000D01*
X160943Y184625D02*
Y184663D01*
X169000Y186000D02*
Y187000D01*
X169352Y187352D01*
X166510Y190193D02*
X169352Y187352D01*
X166510Y190193D02*
Y190231D01*
X164070Y192671D02*
X166510Y190231D01*
X167902Y191585D02*
X170797Y188690D01*
X171690D01*
X167902Y191585D02*
Y191622D01*
X165462Y194063D02*
X167902Y191622D01*
X113198Y224017D02*
X128983D01*
X142100Y210900D01*
X85000Y158000D02*
X91850D01*
X85000Y168000D02*
X86000D01*
X102150Y158000D02*
Y161591D01*
X98740Y165000D02*
X102150Y161591D01*
X98150Y158000D02*
X102150D01*
X86000Y168000D02*
X89880Y164120D01*
X91260Y165500D01*
X85000Y132000D02*
X91457D01*
X91457Y123000D02*
X91457Y123000D01*
X85000Y123000D02*
X91457D01*
X118000Y128000D02*
Y133000D01*
X112701Y128299D02*
X113000Y128000D01*
X133458Y137600D02*
X152289D01*
X98543Y123000D02*
X108701Y112843D01*
X98677Y185331D02*
Y194000D01*
X98347Y185000D02*
X98677Y185331D01*
X83154Y185000D02*
X91654D01*
X83154D02*
Y193331D01*
Y178154D02*
Y181000D01*
Y185000D01*
X56251Y188527D02*
X66724Y199000D01*
X73000D01*
X74346Y200346D01*
X45000Y200000D02*
X54000Y209000D01*
X72000D01*
X74346Y211346D01*
X124900Y169500D02*
Y172857D01*
X118043Y169500D02*
X124900D01*
X116543Y170000D02*
X117043Y169500D01*
X117500Y156000D02*
Y160957D01*
Y156000D02*
X118900Y154600D01*
X107547Y148200D02*
X146185D01*
X100540Y149800D02*
X145001D01*
X103600Y151400D02*
X143818D01*
X109536Y153000D02*
X142634D01*
X103000Y170000D02*
X107000Y166000D01*
X103000Y170000D02*
X108457D01*
X109457Y171000D01*
Y161000D02*
Y163543D01*
X107000Y166000D02*
X109457Y163543D01*
X124900Y161000D02*
Y162100D01*
X107000Y166000D02*
X120000D01*
X121000Y161000D02*
X124900D01*
X121000D02*
Y165000D01*
X120000Y166000D02*
X121000Y165000D01*
X124900Y172857D02*
X127337Y175293D01*
X131000Y169500D02*
X132500D01*
X136000Y173000D01*
X110429Y114571D02*
X133458Y137600D01*
X109000Y114079D02*
X109937D01*
X108701Y112843D02*
X109937Y114079D01*
X112500Y124000D02*
X112650Y123850D01*
X112500Y124000D02*
X117525D01*
X132725Y139200D01*
X99000Y133000D02*
X100000D01*
X109150Y123850D01*
X112650D01*
X125000Y120000D02*
X138000Y133000D01*
X125000Y120000D02*
X125000Y120000D01*
Y115543D02*
Y120000D01*
X119457Y115543D02*
X125000D01*
X120457Y108457D02*
X125000D01*
X119000Y107000D02*
X120457Y108457D01*
X138000Y133000D02*
X156040D01*
X161300Y138260D01*
X157224Y131400D02*
X162900Y137076D01*
X145400Y131400D02*
X157224D01*
X134000Y120000D02*
X145400Y131400D01*
X134000Y115347D02*
Y120000D01*
Y103000D02*
Y108653D01*
X157608Y129000D02*
X166854Y138246D01*
X148000Y129000D02*
X157608D01*
X138000Y119000D02*
X148000Y129000D01*
X119000Y116000D02*
X119457Y115543D01*
X173000Y120000D02*
X175000Y118000D01*
Y110000D02*
Y118000D01*
X173457Y108457D02*
X175000Y110000D01*
X170000Y108457D02*
X173457D01*
X175000Y120263D02*
Y124121D01*
Y120263D02*
X176600Y118663D01*
Y107600D02*
Y118663D01*
X173000Y104000D02*
X176600Y107600D01*
X165457Y104000D02*
X173000D01*
X161000Y108457D02*
X165457Y104000D01*
X138000Y109000D02*
Y119000D01*
Y109000D02*
X139000Y108000D01*
X142543D01*
X143000Y108457D01*
X138000Y106000D02*
Y109000D01*
Y106000D02*
X140000Y104000D01*
X147543D02*
X152000Y108457D01*
X161176Y127000D02*
X169638Y135462D01*
X151000Y127000D02*
X161176D01*
X143000Y119000D02*
X151000Y127000D01*
X143000Y119000D02*
X143000Y119000D01*
Y115543D02*
Y119000D01*
X158000Y125000D02*
X161960D01*
X152000Y119000D02*
X158000Y125000D01*
X152000Y115543D02*
Y119000D01*
X161960Y125000D02*
X171030Y134070D01*
X150000Y117543D02*
X152000Y115543D01*
X150000Y117543D02*
Y121000D01*
X143000Y102000D02*
Y104000D01*
X140000D02*
X143000D01*
X147543D01*
X161000Y115543D02*
Y121256D01*
X161000Y115543D02*
X161000Y115543D01*
X161000Y115543D02*
X170000D01*
X158000Y118543D02*
X161000Y115543D01*
X158000Y118543D02*
Y121000D01*
X159000Y106457D02*
X161000Y108457D01*
X159000Y103000D02*
Y106457D01*
X311000Y135000D02*
X320000D01*
X225118Y101000D02*
X277000D01*
X311000Y135000D01*
X306000Y136533D02*
Y142000D01*
X226686Y105000D02*
X274467D01*
X306000Y136533D01*
X246444Y127000D02*
X271576D01*
X231023Y142422D02*
X246444Y127000D01*
D30*
X166000Y230000D02*
X168000Y232000D01*
X208176Y174000D02*
X228566D01*
X207869D02*
X208176D01*
X207869D02*
Y179131D01*
X208176Y174000D02*
X224337Y190161D01*
X226458D01*
X228566Y174000D02*
X242283Y160283D01*
X95500Y258500D02*
Y263551D01*
Y258500D02*
X96937Y257063D01*
Y252000D02*
Y257063D01*
X90500Y253437D02*
Y263551D01*
X133957Y207543D02*
Y213957D01*
X147850Y221150D02*
Y225000D01*
Y221150D02*
X150000Y219000D01*
X269063Y39063D02*
Y49185D01*
X263748Y54500D02*
X269063Y49185D01*
X276937Y39063D02*
Y45000D01*
X312937Y39063D02*
Y45000D01*
X305063Y39063D02*
Y49185D01*
X299748Y54500D02*
X305063Y49185D01*
X168000Y247543D02*
Y252000D01*
Y232000D02*
Y240457D01*
X154150Y219150D02*
Y225000D01*
X179000Y131000D02*
X180000Y132000D01*
Y133000D01*
X175000Y138000D02*
X180000Y133000D01*
X182000Y205000D02*
X184000Y203000D01*
X207869Y179131D01*
X280760Y69500D02*
X281326D01*
X311000Y46937D02*
Y65000D01*
X250000Y346000D02*
X262063D01*
X227000Y323000D02*
X250000Y346000D01*
X227000Y308000D02*
Y323000D01*
Y308000D02*
X229000Y306000D01*
X236000D01*
X269937Y346000D02*
X274000D01*
X262063D02*
Y350937D01*
X269937Y346000D02*
Y350937D01*
X275000Y46937D02*
Y63740D01*
X280760Y69500D01*
X95000Y250063D02*
X96937Y252000D01*
X95000Y247000D02*
Y250063D01*
X311000Y65000D02*
X315500Y69500D01*
X89000Y247000D02*
Y251937D01*
X288000Y296000D02*
X294000D01*
X274000Y346000D02*
X297000Y323000D01*
X294000Y296000D02*
X297000Y299000D01*
Y323000D01*
X156836Y153283D02*
X165717D01*
X175000Y144000D01*
X172176Y138000D02*
X175000D01*
Y140824D02*
Y144000D01*
X172176Y138000D02*
X175000Y140824D01*
X208176Y174000D01*
D31*
X67457Y131000D02*
X67654Y131197D01*
Y139000D01*
X102346Y320346D02*
X105433D01*
X95000Y313000D02*
X102346Y320346D01*
X95000Y305000D02*
Y313000D01*
X89260Y299260D02*
X95000Y305000D01*
X89260Y291000D02*
Y299260D01*
X99000Y293260D02*
Y309165D01*
X96740Y291000D02*
X99000Y293260D01*
D32*
X18110Y20472D02*
D03*
X33071Y357874D02*
D03*
X323228D02*
D03*
X333071Y20472D02*
D03*
D33*
X160252Y314768D02*
D03*
X61827D02*
D03*
D34*
X89075Y309165D02*
D03*
D35*
X94528Y320346D02*
D03*
X99980Y309165D02*
D03*
X105433Y320346D02*
D03*
X110886Y309165D02*
D03*
X116339Y320346D02*
D03*
X121791Y309165D02*
D03*
X127244Y320346D02*
D03*
X132697Y309165D02*
D03*
D36*
X315000Y310000D02*
D03*
X325000D02*
D03*
X315000Y300000D02*
D03*
X325000D02*
D03*
X315000Y290000D02*
D03*
X325000D02*
D03*
X315000Y280000D02*
D03*
X325000D02*
D03*
X315000Y270000D02*
D03*
X325000D02*
D03*
X315000Y260000D02*
D03*
X325000D02*
D03*
X315000Y250000D02*
D03*
X325000D02*
D03*
X315000Y240000D02*
D03*
X325000D02*
D03*
X315000Y230000D02*
D03*
X325000D02*
D03*
X315000Y220000D02*
D03*
X325000D02*
D03*
X315000Y210000D02*
D03*
X325000D02*
D03*
X315000Y200000D02*
D03*
X325000D02*
D03*
X315000Y190000D02*
D03*
X325000D02*
D03*
X315000Y180000D02*
D03*
X325000D02*
D03*
X315000Y170000D02*
D03*
X325000D02*
D03*
X315000Y160000D02*
D03*
X325000D02*
D03*
X315000Y150000D02*
D03*
X325000D02*
D03*
X315000Y140000D02*
D03*
X325000D02*
D03*
X315000Y130000D02*
D03*
X325000D02*
D03*
X315000Y120000D02*
D03*
X30000D02*
D03*
Y110000D02*
D03*
Y130000D02*
D03*
Y170000D02*
D03*
Y90000D02*
D03*
Y100000D02*
D03*
Y160000D02*
D03*
Y140000D02*
D03*
Y150000D02*
D03*
Y200000D02*
D03*
Y180000D02*
D03*
Y190000D02*
D03*
Y230000D02*
D03*
Y210000D02*
D03*
Y220000D02*
D03*
Y260000D02*
D03*
Y240000D02*
D03*
Y250000D02*
D03*
Y270000D02*
D03*
Y280000D02*
D03*
X40000Y100000D02*
D03*
Y130000D02*
D03*
Y110000D02*
D03*
Y120000D02*
D03*
Y160000D02*
D03*
Y140000D02*
D03*
Y150000D02*
D03*
Y170000D02*
D03*
Y180000D02*
D03*
Y220000D02*
D03*
Y190000D02*
D03*
Y210000D02*
D03*
Y230000D02*
D03*
Y250000D02*
D03*
Y200000D02*
D03*
Y240000D02*
D03*
Y280000D02*
D03*
Y260000D02*
D03*
Y270000D02*
D03*
D37*
X325000Y120000D02*
D03*
X40000Y90000D02*
D03*
D38*
X179500Y334000D02*
D03*
X198000Y322200D02*
D03*
Y345800D02*
D03*
D39*
X62000Y147000D02*
D03*
X191102Y274102D02*
D03*
X188839Y271839D02*
D03*
X186576Y269576D02*
D03*
X184314Y267314D02*
D03*
X182051Y265051D02*
D03*
X179788Y262788D02*
D03*
X177525Y260525D02*
D03*
X175263Y258263D02*
D03*
X173000Y256000D02*
D03*
X81000Y143000D02*
D03*
X80000Y131000D02*
D03*
X79000Y169000D02*
D03*
X62000D02*
D03*
X272000Y331000D02*
D03*
X267000D02*
D03*
X81000Y284000D02*
D03*
X136500Y160500D02*
D03*
X139000Y158000D02*
D03*
X136500Y155500D02*
D03*
X107000Y141000D02*
D03*
X238000Y85000D02*
D03*
X205000Y73000D02*
D03*
X187000Y82000D02*
D03*
X215000Y99000D02*
D03*
X242000Y331000D02*
D03*
X247000D02*
D03*
X252000D02*
D03*
X257000D02*
D03*
X262000D02*
D03*
X106500Y214000D02*
D03*
X56251Y188500D02*
D03*
X134000Y214000D02*
D03*
X150000Y219000D02*
D03*
X269000Y39000D02*
D03*
X277000D02*
D03*
X305000D02*
D03*
X210038Y130000D02*
D03*
X235000Y157000D02*
D03*
X277000Y331000D02*
D03*
X230000Y311000D02*
D03*
X259000Y73000D02*
D03*
X248000Y77000D02*
D03*
X262000Y82000D02*
D03*
X288000Y54000D02*
D03*
X325000Y66000D02*
D03*
X230000Y206000D02*
D03*
X256000Y170000D02*
D03*
X63500Y214500D02*
D03*
X107000Y194000D02*
D03*
X239000Y73000D02*
D03*
X154000Y219000D02*
D03*
X211000Y142000D02*
D03*
X282000Y331000D02*
D03*
X188000Y128000D02*
D03*
X168000Y252000D02*
D03*
X166000Y230000D02*
D03*
X184000Y203000D02*
D03*
X235000Y161000D02*
D03*
X256000Y163000D02*
D03*
X288000Y73000D02*
D03*
X189000Y133000D02*
D03*
X193000Y127000D02*
D03*
X170000Y122000D02*
D03*
X262000Y352000D02*
D03*
X270000D02*
D03*
X232000Y211000D02*
D03*
X232806Y207800D02*
D03*
X259000Y172000D02*
D03*
X254000Y180000D02*
D03*
X266000Y79000D02*
D03*
X95000Y247000D02*
D03*
X261000Y160000D02*
D03*
X267000Y177000D02*
D03*
X313000Y39000D02*
D03*
X225000Y60000D02*
D03*
X179000Y30000D02*
D03*
X210000D02*
D03*
X225000D02*
D03*
X210000Y62000D02*
D03*
X291000Y56000D02*
D03*
X293000Y62000D02*
D03*
X232000Y154000D02*
D03*
X225000Y146000D02*
D03*
X221000Y143000D02*
D03*
X218000Y140000D02*
D03*
X166000Y122053D02*
D03*
X184343Y133000D02*
D03*
X125000Y199000D02*
D03*
X89000Y247000D02*
D03*
X217000Y229000D02*
D03*
X213000Y228000D02*
D03*
X209000Y227000D02*
D03*
X205000Y226000D02*
D03*
X226000Y187000D02*
D03*
X221000Y230000D02*
D03*
X270000D02*
D03*
X267000Y233000D02*
D03*
X264000Y236000D02*
D03*
X261000Y239000D02*
D03*
Y243000D02*
D03*
X255000Y153000D02*
D03*
Y191000D02*
D03*
X265000Y158000D02*
D03*
X262000Y173820D02*
D03*
X320000Y108000D02*
D03*
X282000Y270500D02*
D03*
X286000Y274000D02*
D03*
X279000Y291000D02*
D03*
X281000Y315000D02*
D03*
Y311000D02*
D03*
Y306000D02*
D03*
Y301000D02*
D03*
X85000Y142000D02*
D03*
X235000Y175000D02*
D03*
X245000Y221000D02*
D03*
X263000Y220000D02*
D03*
X253000Y211000D02*
D03*
Y219000D02*
D03*
X244000Y200000D02*
D03*
X245000Y188000D02*
D03*
X62000Y190000D02*
D03*
X63654Y200000D02*
D03*
X140000Y203000D02*
D03*
X170600Y209206D02*
D03*
X167000Y212000D02*
D03*
X164000Y206000D02*
D03*
Y202000D02*
D03*
X202000Y123000D02*
D03*
X167000Y95000D02*
D03*
X171000Y143000D02*
D03*
X141000Y181000D02*
D03*
X35000Y165000D02*
D03*
X153000Y173000D02*
D03*
X141000Y184000D02*
D03*
X143000Y189000D02*
D03*
X106500Y204000D02*
D03*
Y199000D02*
D03*
X160607Y177607D02*
D03*
X164000Y178000D02*
D03*
X165000Y182000D02*
D03*
X169000Y186000D02*
D03*
X171690Y188690D02*
D03*
X85000Y158000D02*
D03*
Y168000D02*
D03*
X85000Y132000D02*
D03*
X85000Y123000D02*
D03*
X118000Y128000D02*
D03*
X113000D02*
D03*
X83154Y181000D02*
D03*
X68000Y188000D02*
D03*
X103000Y170000D02*
D03*
X136000Y173000D02*
D03*
X104000Y108000D02*
D03*
X119000Y116000D02*
D03*
Y107000D02*
D03*
X134000Y103000D02*
D03*
X150000Y121000D02*
D03*
X143000Y102000D02*
D03*
X158000Y121000D02*
D03*
X159000Y103000D02*
D03*
M02*
