%FSLAX25Y25*%
%MOIN*%
G70*
G01*
G75*
G04 Layer_Color=8421504*
%ADD10R,0.07000X0.07000*%
%ADD11C,0.06000*%
%ADD12R,0.07000X0.07000*%
%ADD13R,0.06850X0.06850*%
%ADD14R,0.02756X0.03543*%
%ADD15R,0.03543X0.02756*%
%ADD16R,0.02362X0.01969*%
%ADD17R,0.03740X0.03347*%
%ADD18R,0.01969X0.02362*%
%ADD19R,0.14600X0.14600*%
%ADD20R,0.01102X0.03347*%
%ADD21R,0.03347X0.01102*%
%ADD22R,0.02362X0.03347*%
%ADD23R,0.03150X0.03543*%
%ADD24R,0.10630X0.06299*%
%ADD25R,0.03543X0.03150*%
%ADD26R,0.06850X0.06850*%
%ADD27R,0.05906X0.05906*%
%ADD28R,0.00394X0.00394*%
%ADD29R,0.02520X0.01102*%
%ADD30R,0.09016X0.03504*%
%ADD31R,0.03740X0.03740*%
%ADD32R,0.01024X0.03152*%
%ADD33R,0.01555X0.01969*%
%ADD34R,0.00906X0.02953*%
%ADD35R,0.02953X0.00906*%
%ADD36R,0.03740X0.03740*%
%ADD37R,0.01969X0.01575*%
%ADD38R,0.01575X0.01969*%
%ADD39R,0.06299X0.10630*%
%ADD40R,0.05906X0.05906*%
%ADD41R,0.00394X0.00394*%
%ADD42R,0.01102X0.02520*%
%ADD43R,0.01969X0.01555*%
%ADD44R,0.03152X0.01024*%
%ADD45R,0.03504X0.09016*%
%ADD46C,0.02000*%
%ADD47C,0.01800*%
%ADD48C,0.00800*%
%ADD49C,0.01200*%
%ADD50C,0.01000*%
%ADD51C,0.04000*%
%ADD52C,0.02500*%
%ADD53C,0.01600*%
%ADD54C,0.01400*%
%ADD55C,0.03000*%
%ADD56C,0.03500*%
%ADD57R,0.08000X0.04000*%
%ADD58R,0.06127X0.02573*%
%ADD59R,0.02300X0.05200*%
%ADD60R,0.11500X0.03000*%
%ADD61R,0.22500X0.04500*%
%ADD62R,0.06500X0.07500*%
%ADD63R,0.10500X0.12500*%
%ADD64R,0.09500X0.14000*%
%ADD65R,0.02500X0.03000*%
%ADD66R,0.00532X0.00500*%
%ADD67R,0.01300X0.01400*%
%ADD68R,0.00469X0.00500*%
%ADD69R,0.01500X0.01432*%
%ADD70R,0.01102X0.02520*%
%ADD71R,0.11000X0.07500*%
%ADD72R,0.30764X0.02754*%
%ADD73R,0.06000X0.03747*%
%ADD74R,0.24764X0.03746*%
%ADD75R,0.15000X0.10600*%
%ADD76R,0.07000X0.15000*%
%ADD77R,0.40000X0.14000*%
%ADD78R,0.21500X0.25500*%
%ADD79R,0.34000X0.08500*%
%ADD80R,0.06000X0.14000*%
%ADD81R,0.18736X0.08500*%
%ADD82R,0.18000X0.07000*%
%ADD83R,0.09000X0.04500*%
%ADD84R,0.05197X0.05197*%
%ADD85R,0.04500X0.09000*%
%ADD86R,0.07000X0.18000*%
%ADD87R,0.08500X0.18736*%
%ADD88R,0.14000X0.06000*%
%ADD89R,0.03746X0.06000*%
%ADD90R,0.08500X0.34000*%
%ADD91R,0.25500X0.21500*%
%ADD92R,0.14000X0.40000*%
%ADD93R,0.15000X0.07000*%
%ADD94R,0.10600X0.15000*%
%ADD95R,0.03746X0.24764*%
%ADD96R,0.02754X0.30764*%
%ADD97R,0.02300X0.05100*%
%ADD98R,0.02520X0.01102*%
%ADD99R,0.07500X0.11000*%
%ADD100R,0.00958X0.00358*%
%ADD101R,0.04000X0.03142*%
%ADD102R,0.03500X0.04000*%
%ADD103C,0.07000*%
%ADD104C,0.02000*%
%ADD105C,0.03000*%
%ADD106C,0.01000*%
%ADD107C,0.00800*%
%ADD108C,0.04000*%
%ADD109C,0.01299*%
%ADD110C,0.05000*%
%ADD111C,0.09200*%
%ADD112C,0.08200*%
%ADD113C,0.05000*%
%ADD114C,0.05500*%
%ADD115C,0.04800*%
%ADD116C,0.05299*%
%ADD117C,0.00984*%
%ADD118C,0.00787*%
%ADD119C,0.00600*%
%ADD120C,0.00200*%
%ADD121C,0.00100*%
%ADD122C,0.00500*%
%ADD123R,0.00100X0.00100*%
G36*
X306381Y388250D02*
X303231D01*
Y389156D01*
X306381D01*
Y388250D01*
D02*
G37*
G36*
X321555Y387694D02*
X320150D01*
X319594Y388250D01*
Y389450D01*
X320150Y390006D01*
X321555D01*
Y387694D01*
D02*
G37*
G36*
X318806Y389450D02*
Y388250D01*
X318250Y387694D01*
X317051D01*
X316494Y388250D01*
Y389450D01*
X317051Y390006D01*
X318250D01*
X318806Y389450D01*
D02*
G37*
G36*
X325869Y388250D02*
X322719D01*
Y389156D01*
X325869D01*
Y388250D01*
D02*
G37*
G36*
X309506Y391351D02*
X308949Y390794D01*
X307545D01*
Y392755D01*
X309506D01*
Y391351D01*
D02*
G37*
G36*
X325869Y390218D02*
X322719D01*
Y391124D01*
X325869D01*
Y390218D01*
D02*
G37*
G36*
X306381D02*
X303231D01*
Y391124D01*
X306381D01*
Y390218D01*
D02*
G37*
G36*
Y386281D02*
X303231D01*
Y387187D01*
X306381D01*
Y386281D01*
D02*
G37*
G36*
X321555Y384594D02*
X320150D01*
X319594Y385151D01*
Y386350D01*
X320150Y386906D01*
X321555D01*
Y384594D01*
D02*
G37*
G36*
X318806Y386350D02*
Y385151D01*
X318250Y384594D01*
X317051D01*
X316494Y385151D01*
Y386350D01*
X317051Y386906D01*
X318250D01*
X318806Y386350D01*
D02*
G37*
G36*
X325869Y386281D02*
X322719D01*
Y387187D01*
X325869D01*
Y386281D01*
D02*
G37*
G36*
X315706Y389450D02*
Y388250D01*
X315149Y387694D01*
X313950D01*
X313394Y388250D01*
Y389450D01*
X313950Y390006D01*
X315149D01*
X315706Y389450D01*
D02*
G37*
G36*
X312606D02*
Y388250D01*
X312050Y387694D01*
X310851D01*
X310294Y388250D01*
Y389450D01*
X310851Y390006D01*
X312050D01*
X312606Y389450D01*
D02*
G37*
G36*
X309506D02*
Y388250D01*
X308949Y387694D01*
X307545D01*
Y390006D01*
X308949D01*
X309506Y389450D01*
D02*
G37*
G36*
X314018Y393919D02*
X313113D01*
Y397069D01*
X314018D01*
Y393919D01*
D02*
G37*
G36*
X312049D02*
X311144D01*
Y397069D01*
X312049D01*
Y393919D01*
D02*
G37*
G36*
X310080D02*
X309175D01*
Y397069D01*
X310080D01*
Y393919D01*
D02*
G37*
G36*
X315987D02*
X315082D01*
Y397069D01*
X315987D01*
Y393919D01*
D02*
G37*
G36*
X321894D02*
X320989D01*
Y397069D01*
X321894D01*
Y393919D01*
D02*
G37*
G36*
X319925D02*
X319020D01*
Y397069D01*
X319925D01*
Y393919D01*
D02*
G37*
G36*
X317956D02*
X317051D01*
Y397069D01*
X317956D01*
Y393919D01*
D02*
G37*
G36*
X318806Y391351D02*
X318250Y390794D01*
X317051D01*
X316494Y391351D01*
Y392755D01*
X318806D01*
Y391351D01*
D02*
G37*
G36*
X315706D02*
X315149Y390794D01*
X313950D01*
X313394Y391351D01*
Y392755D01*
X315706D01*
Y391351D01*
D02*
G37*
G36*
X312606D02*
X312050Y390794D01*
X310851D01*
X310294Y391351D01*
Y392755D01*
X312606D01*
Y391351D01*
D02*
G37*
G36*
X321555Y390794D02*
X320150D01*
X319594Y391351D01*
Y392755D01*
X321555D01*
Y390794D01*
D02*
G37*
G36*
X308111Y393919D02*
X307206D01*
Y397069D01*
X308111D01*
Y393919D01*
D02*
G37*
G36*
X325869Y392187D02*
X322719D01*
Y393092D01*
X325869D01*
Y392187D01*
D02*
G37*
G36*
X306381D02*
X303231D01*
Y393092D01*
X306381D01*
Y392187D01*
D02*
G37*
G36*
X315706Y386350D02*
Y385151D01*
X315149Y384594D01*
X313950D01*
X313394Y385151D01*
Y386350D01*
X313950Y386906D01*
X315149D01*
X315706Y386350D01*
D02*
G37*
G36*
X325869Y378408D02*
X322719D01*
Y379313D01*
X325869D01*
Y378408D01*
D02*
G37*
G36*
X306381D02*
X303231D01*
Y379313D01*
X306381D01*
Y378408D01*
D02*
G37*
G36*
X321894Y374431D02*
X320989D01*
Y377581D01*
X321894D01*
Y374431D01*
D02*
G37*
G36*
X309506Y380150D02*
Y378745D01*
X307545D01*
Y380706D01*
X308949D01*
X309506Y380150D01*
D02*
G37*
G36*
X318806D02*
Y378745D01*
X316494D01*
Y380150D01*
X317051Y380706D01*
X318250D01*
X318806Y380150D01*
D02*
G37*
G36*
X315706D02*
Y378745D01*
X313394D01*
Y380150D01*
X313950Y380706D01*
X315149D01*
X315706Y380150D01*
D02*
G37*
G36*
X312606D02*
Y378745D01*
X310294D01*
Y380150D01*
X310851Y380706D01*
X312050D01*
X312606Y380150D01*
D02*
G37*
G36*
X312049Y374431D02*
X311144D01*
Y377581D01*
X312049D01*
Y374431D01*
D02*
G37*
G36*
X310080D02*
X309175D01*
Y377581D01*
X310080D01*
Y374431D01*
D02*
G37*
G36*
X308111D02*
X307206D01*
Y377581D01*
X308111D01*
Y374431D01*
D02*
G37*
G36*
X314018D02*
X313113D01*
Y377581D01*
X314018D01*
Y374431D01*
D02*
G37*
G36*
X319925D02*
X319020D01*
Y377581D01*
X319925D01*
Y374431D01*
D02*
G37*
G36*
X317956D02*
X317051D01*
Y377581D01*
X317956D01*
Y374431D01*
D02*
G37*
G36*
X315987D02*
X315082D01*
Y377581D01*
X315987D01*
Y374431D01*
D02*
G37*
G36*
X325869Y382345D02*
X322719D01*
Y383250D01*
X325869D01*
Y382345D01*
D02*
G37*
G36*
X306381D02*
X303231D01*
Y383250D01*
X306381D01*
Y382345D01*
D02*
G37*
G36*
X321555Y381494D02*
X320150D01*
X319594Y382050D01*
Y383249D01*
X320150Y383806D01*
X321555D01*
Y381494D01*
D02*
G37*
G36*
X306381Y384313D02*
X303231D01*
Y385219D01*
X306381D01*
Y384313D01*
D02*
G37*
G36*
X312606Y386350D02*
Y385151D01*
X312050Y384594D01*
X310851D01*
X310294Y385151D01*
Y386350D01*
X310851Y386906D01*
X312050D01*
X312606Y386350D01*
D02*
G37*
G36*
X309506D02*
Y385151D01*
X308949Y384594D01*
X307545D01*
Y386906D01*
X308949D01*
X309506Y386350D01*
D02*
G37*
G36*
X325869Y384313D02*
X322719D01*
Y385219D01*
X325869D01*
Y384313D01*
D02*
G37*
G36*
Y380376D02*
X322719D01*
Y381281D01*
X325869D01*
Y380376D01*
D02*
G37*
G36*
X306381D02*
X303231D01*
Y381281D01*
X306381D01*
Y380376D01*
D02*
G37*
G36*
X321555Y378745D02*
X319594D01*
Y380150D01*
X320150Y380706D01*
X321555D01*
Y378745D01*
D02*
G37*
G36*
X309506Y383249D02*
Y382050D01*
X308949Y381494D01*
X307545D01*
Y383806D01*
X308949D01*
X309506Y383249D01*
D02*
G37*
G36*
X318806D02*
Y382050D01*
X318250Y381494D01*
X317051D01*
X316494Y382050D01*
Y383249D01*
X317051Y383806D01*
X318250D01*
X318806Y383249D01*
D02*
G37*
G36*
X315706D02*
Y382050D01*
X315149Y381494D01*
X313950D01*
X313394Y382050D01*
Y383249D01*
X313950Y383806D01*
X315149D01*
X315706Y383249D01*
D02*
G37*
G36*
X312606D02*
Y382050D01*
X312050Y381494D01*
X310851D01*
X310294Y382050D01*
Y383249D01*
X310851Y383806D01*
X312050D01*
X312606Y383249D01*
D02*
G37*
G36*
X306557Y548750D02*
X303408D01*
Y549655D01*
X306557D01*
Y548750D01*
D02*
G37*
G36*
X321732Y548194D02*
X320327D01*
X319771Y548750D01*
Y549950D01*
X320327Y550506D01*
X321732D01*
Y548194D01*
D02*
G37*
G36*
X318983Y549950D02*
Y548750D01*
X318426Y548194D01*
X317227D01*
X316670Y548750D01*
Y549950D01*
X317227Y550506D01*
X318426D01*
X318983Y549950D01*
D02*
G37*
G36*
X326046Y548750D02*
X322896D01*
Y549655D01*
X326046D01*
Y548750D01*
D02*
G37*
G36*
X309683Y551851D02*
X309126Y551294D01*
X307722D01*
Y553255D01*
X309683D01*
Y551851D01*
D02*
G37*
G36*
X326046Y550718D02*
X322896D01*
Y551624D01*
X326046D01*
Y550718D01*
D02*
G37*
G36*
X306557D02*
X303408D01*
Y551624D01*
X306557D01*
Y550718D01*
D02*
G37*
G36*
Y546781D02*
X303408D01*
Y547687D01*
X306557D01*
Y546781D01*
D02*
G37*
G36*
X321732Y545094D02*
X320327D01*
X319771Y545650D01*
Y546849D01*
X320327Y547406D01*
X321732D01*
Y545094D01*
D02*
G37*
G36*
X318983Y546849D02*
Y545650D01*
X318426Y545094D01*
X317227D01*
X316670Y545650D01*
Y546849D01*
X317227Y547406D01*
X318426D01*
X318983Y546849D01*
D02*
G37*
G36*
X326046Y546781D02*
X322896D01*
Y547687D01*
X326046D01*
Y546781D01*
D02*
G37*
G36*
X315883Y549950D02*
Y548750D01*
X315326Y548194D01*
X314127D01*
X313570Y548750D01*
Y549950D01*
X314127Y550506D01*
X315326D01*
X315883Y549950D01*
D02*
G37*
G36*
X312783D02*
Y548750D01*
X312226Y548194D01*
X311027D01*
X310471Y548750D01*
Y549950D01*
X311027Y550506D01*
X312226D01*
X312783Y549950D01*
D02*
G37*
G36*
X309683D02*
Y548750D01*
X309126Y548194D01*
X307722D01*
Y550506D01*
X309126D01*
X309683Y549950D01*
D02*
G37*
G36*
X314195Y554419D02*
X313289D01*
Y557569D01*
X314195D01*
Y554419D01*
D02*
G37*
G36*
X312226D02*
X311320D01*
Y557569D01*
X312226D01*
Y554419D01*
D02*
G37*
G36*
X310257D02*
X309351D01*
Y557569D01*
X310257D01*
Y554419D01*
D02*
G37*
G36*
X316164D02*
X315259D01*
Y557569D01*
X316164D01*
Y554419D01*
D02*
G37*
G36*
X322071D02*
X321165D01*
Y557569D01*
X322071D01*
Y554419D01*
D02*
G37*
G36*
X320102D02*
X319197D01*
Y557569D01*
X320102D01*
Y554419D01*
D02*
G37*
G36*
X318133D02*
X317228D01*
Y557569D01*
X318133D01*
Y554419D01*
D02*
G37*
G36*
X318983Y551851D02*
X318426Y551294D01*
X317227D01*
X316670Y551851D01*
Y553255D01*
X318983D01*
Y551851D01*
D02*
G37*
G36*
X315883D02*
X315326Y551294D01*
X314127D01*
X313570Y551851D01*
Y553255D01*
X315883D01*
Y551851D01*
D02*
G37*
G36*
X312783D02*
X312226Y551294D01*
X311027D01*
X310471Y551851D01*
Y553255D01*
X312783D01*
Y551851D01*
D02*
G37*
G36*
X321732Y551294D02*
X320327D01*
X319771Y551851D01*
Y553255D01*
X321732D01*
Y551294D01*
D02*
G37*
G36*
X308288Y554419D02*
X307382D01*
Y557569D01*
X308288D01*
Y554419D01*
D02*
G37*
G36*
X326046Y552687D02*
X322896D01*
Y553592D01*
X326046D01*
Y552687D01*
D02*
G37*
G36*
X306557D02*
X303408D01*
Y553592D01*
X306557D01*
Y552687D01*
D02*
G37*
G36*
X315883Y546849D02*
Y545650D01*
X315326Y545094D01*
X314127D01*
X313570Y545650D01*
Y546849D01*
X314127Y547406D01*
X315326D01*
X315883Y546849D01*
D02*
G37*
G36*
X326046Y538907D02*
X322896D01*
Y539813D01*
X326046D01*
Y538907D01*
D02*
G37*
G36*
X306557D02*
X303408D01*
Y539813D01*
X306557D01*
Y538907D01*
D02*
G37*
G36*
X322071Y534931D02*
X321165D01*
Y538081D01*
X322071D01*
Y534931D01*
D02*
G37*
G36*
X309683Y540650D02*
Y539245D01*
X307722D01*
Y541206D01*
X309126D01*
X309683Y540650D01*
D02*
G37*
G36*
X318983D02*
Y539245D01*
X316670D01*
Y540650D01*
X317227Y541206D01*
X318426D01*
X318983Y540650D01*
D02*
G37*
G36*
X315883D02*
Y539245D01*
X313570D01*
Y540650D01*
X314127Y541206D01*
X315326D01*
X315883Y540650D01*
D02*
G37*
G36*
X312783D02*
Y539245D01*
X310471D01*
Y540650D01*
X311027Y541206D01*
X312226D01*
X312783Y540650D01*
D02*
G37*
G36*
X312226Y534931D02*
X311320D01*
Y538081D01*
X312226D01*
Y534931D01*
D02*
G37*
G36*
X310257D02*
X309351D01*
Y538081D01*
X310257D01*
Y534931D01*
D02*
G37*
G36*
X308288D02*
X307382D01*
Y538081D01*
X308288D01*
Y534931D01*
D02*
G37*
G36*
X314195D02*
X313289D01*
Y538081D01*
X314195D01*
Y534931D01*
D02*
G37*
G36*
X320102D02*
X319197D01*
Y538081D01*
X320102D01*
Y534931D01*
D02*
G37*
G36*
X318133D02*
X317228D01*
Y538081D01*
X318133D01*
Y534931D01*
D02*
G37*
G36*
X316164D02*
X315259D01*
Y538081D01*
X316164D01*
Y534931D01*
D02*
G37*
G36*
X326046Y542844D02*
X322896D01*
Y543750D01*
X326046D01*
Y542844D01*
D02*
G37*
G36*
X306557D02*
X303408D01*
Y543750D01*
X306557D01*
Y542844D01*
D02*
G37*
G36*
X321732Y541994D02*
X320327D01*
X319771Y542551D01*
Y543750D01*
X320327Y544306D01*
X321732D01*
Y541994D01*
D02*
G37*
G36*
X306557Y544813D02*
X303408D01*
Y545718D01*
X306557D01*
Y544813D01*
D02*
G37*
G36*
X312783Y546849D02*
Y545650D01*
X312226Y545094D01*
X311027D01*
X310471Y545650D01*
Y546849D01*
X311027Y547406D01*
X312226D01*
X312783Y546849D01*
D02*
G37*
G36*
X309683D02*
Y545650D01*
X309126Y545094D01*
X307722D01*
Y547406D01*
X309126D01*
X309683Y546849D01*
D02*
G37*
G36*
X326046Y544813D02*
X322896D01*
Y545718D01*
X326046D01*
Y544813D01*
D02*
G37*
G36*
Y540876D02*
X322896D01*
Y541782D01*
X326046D01*
Y540876D01*
D02*
G37*
G36*
X306557D02*
X303408D01*
Y541782D01*
X306557D01*
Y540876D01*
D02*
G37*
G36*
X321732Y539245D02*
X319771D01*
Y540650D01*
X320327Y541206D01*
X321732D01*
Y539245D01*
D02*
G37*
G36*
X309683Y543750D02*
Y542551D01*
X309126Y541994D01*
X307722D01*
Y544306D01*
X309126D01*
X309683Y543750D01*
D02*
G37*
G36*
X318983D02*
Y542551D01*
X318426Y541994D01*
X317227D01*
X316670Y542551D01*
Y543750D01*
X317227Y544306D01*
X318426D01*
X318983Y543750D01*
D02*
G37*
G36*
X315883D02*
Y542551D01*
X315326Y541994D01*
X314127D01*
X313570Y542551D01*
Y543750D01*
X314127Y544306D01*
X315326D01*
X315883Y543750D01*
D02*
G37*
G36*
X312783D02*
Y542551D01*
X312226Y541994D01*
X311027D01*
X310471Y542551D01*
Y543750D01*
X311027Y544306D01*
X312226D01*
X312783Y543750D01*
D02*
G37*
D10*
X314205Y498752D02*
D03*
X336205D02*
D03*
Y476752D02*
D03*
X314205D02*
D03*
X391272Y499638D02*
D03*
X413272D02*
D03*
Y477638D02*
D03*
X391272D02*
D03*
X314008Y461646D02*
D03*
X336008D02*
D03*
Y439646D02*
D03*
X314008D02*
D03*
X374619Y575960D02*
D03*
X396619D02*
D03*
Y553960D02*
D03*
X374619D02*
D03*
D11*
X325205Y487752D02*
D03*
X402272Y488638D02*
D03*
X325008Y450646D02*
D03*
X402740Y450819D02*
D03*
X385619Y564960D02*
D03*
X385446Y642692D02*
D03*
X422552Y642495D02*
D03*
X423438Y565428D02*
D03*
X359053Y334861D02*
D03*
X519225Y338025D02*
D03*
X396300Y376300D02*
D03*
X386527Y529750D02*
D03*
X492154Y460261D02*
D03*
X490154Y591961D02*
D03*
D12*
X391740Y439819D02*
D03*
Y461819D02*
D03*
X413740D02*
D03*
Y439819D02*
D03*
X396446Y653692D02*
D03*
Y631692D02*
D03*
X374446D02*
D03*
Y653692D02*
D03*
X433552Y653495D02*
D03*
Y631495D02*
D03*
X411552D02*
D03*
Y653495D02*
D03*
X434438Y576428D02*
D03*
Y554428D02*
D03*
X412438D02*
D03*
Y576428D02*
D03*
D13*
X348129Y323936D02*
D03*
Y345786D02*
D03*
X369978D02*
D03*
Y323936D02*
D03*
X508300Y327100D02*
D03*
Y348950D02*
D03*
X530150D02*
D03*
Y327100D02*
D03*
X481228Y449336D02*
D03*
Y471186D02*
D03*
X503079D02*
D03*
Y449336D02*
D03*
X479228Y581036D02*
D03*
Y602886D02*
D03*
X501079D02*
D03*
Y581036D02*
D03*
D14*
X236144Y413297D02*
D03*
X242050D02*
D03*
X236321Y573797D02*
D03*
X242227D02*
D03*
D15*
X239097Y370750D02*
D03*
Y364844D02*
D03*
X239274Y531250D02*
D03*
Y525345D02*
D03*
D16*
X348518Y373250D02*
D03*
X344582D02*
D03*
X290581Y405250D02*
D03*
X294518D02*
D03*
X290581Y395250D02*
D03*
X294518D02*
D03*
X290581Y383250D02*
D03*
X294518D02*
D03*
X294518Y379250D02*
D03*
X290581D02*
D03*
X331255Y401900D02*
D03*
X335192D02*
D03*
X338082Y393750D02*
D03*
X342019D02*
D03*
X338082Y397250D02*
D03*
X342019D02*
D03*
X331082Y358250D02*
D03*
X335018D02*
D03*
X342019Y381950D02*
D03*
X338082D02*
D03*
X338082Y389250D02*
D03*
X342019D02*
D03*
X358581Y366250D02*
D03*
X362519D02*
D03*
X338519Y369750D02*
D03*
X342456D02*
D03*
X330550Y369750D02*
D03*
X334487D02*
D03*
X230529Y405997D02*
D03*
X234466D02*
D03*
X231966Y372497D02*
D03*
X228029D02*
D03*
X234629Y360297D02*
D03*
X238566D02*
D03*
X338082Y378550D02*
D03*
X342019D02*
D03*
X342019Y385750D02*
D03*
X338082D02*
D03*
X362519Y369750D02*
D03*
X358581D02*
D03*
X346582Y369750D02*
D03*
X350518D02*
D03*
X342518Y366250D02*
D03*
X338581D02*
D03*
X353519Y383750D02*
D03*
X349582D02*
D03*
X331082Y361750D02*
D03*
X335018D02*
D03*
X348695Y533750D02*
D03*
X344758D02*
D03*
X290758Y565750D02*
D03*
X294695D02*
D03*
X290758Y555750D02*
D03*
X294695D02*
D03*
X290758Y543750D02*
D03*
X294695D02*
D03*
X294695Y539750D02*
D03*
X290758D02*
D03*
X331432Y562400D02*
D03*
X335368D02*
D03*
X338032Y554000D02*
D03*
X341968D02*
D03*
X338032Y558000D02*
D03*
X341968D02*
D03*
X331258Y518750D02*
D03*
X335195D02*
D03*
X342195Y542450D02*
D03*
X338258D02*
D03*
X338032Y549700D02*
D03*
X341968D02*
D03*
X358758Y526750D02*
D03*
X362695D02*
D03*
X338695Y530250D02*
D03*
X342632D02*
D03*
X330727Y530250D02*
D03*
X334664D02*
D03*
X230705Y566497D02*
D03*
X234643D02*
D03*
X232142Y532997D02*
D03*
X228205D02*
D03*
X234805Y520797D02*
D03*
X238742D02*
D03*
X338258Y539050D02*
D03*
X342195D02*
D03*
X342195Y546250D02*
D03*
X338258D02*
D03*
X362695Y530250D02*
D03*
X358758D02*
D03*
X346758Y530250D02*
D03*
X350695D02*
D03*
X342695Y526750D02*
D03*
X338758D02*
D03*
X353695Y544250D02*
D03*
X349758D02*
D03*
X331258Y522250D02*
D03*
X335195D02*
D03*
D17*
X298550Y410278D02*
D03*
X304259D02*
D03*
Y405750D02*
D03*
X298550D02*
D03*
X298727Y570778D02*
D03*
X304435D02*
D03*
Y566250D02*
D03*
X298727D02*
D03*
D18*
X314050Y406781D02*
D03*
Y410718D02*
D03*
X300873Y419187D02*
D03*
Y415250D02*
D03*
X304550Y419187D02*
D03*
Y415250D02*
D03*
X310550Y410718D02*
D03*
Y406781D02*
D03*
X320550Y410718D02*
D03*
X320550Y406781D02*
D03*
X325050Y410718D02*
D03*
Y406781D02*
D03*
X329550Y410718D02*
D03*
Y406781D02*
D03*
X313550Y367218D02*
D03*
Y363281D02*
D03*
X310050Y367218D02*
D03*
Y363281D02*
D03*
X322550Y367218D02*
D03*
Y363281D02*
D03*
X340023Y361769D02*
D03*
Y357832D02*
D03*
X344623Y361668D02*
D03*
Y357732D02*
D03*
X354550Y369719D02*
D03*
Y365781D02*
D03*
X326050Y369719D02*
D03*
Y365781D02*
D03*
X334450Y385819D02*
D03*
Y381881D02*
D03*
X246223Y386169D02*
D03*
Y382231D02*
D03*
X319050Y367218D02*
D03*
Y363281D02*
D03*
X314227Y567281D02*
D03*
Y571218D02*
D03*
X301050Y579687D02*
D03*
Y575750D02*
D03*
X304727Y579687D02*
D03*
Y575750D02*
D03*
X310727Y571218D02*
D03*
Y567281D02*
D03*
X320727Y571218D02*
D03*
X320727Y567281D02*
D03*
X325227Y571218D02*
D03*
Y567281D02*
D03*
X329727Y571218D02*
D03*
Y567281D02*
D03*
X313727Y527718D02*
D03*
Y523781D02*
D03*
X310227Y527718D02*
D03*
Y523781D02*
D03*
X322727Y527718D02*
D03*
Y523781D02*
D03*
X340200Y522268D02*
D03*
Y518331D02*
D03*
X344800Y522168D02*
D03*
Y518231D02*
D03*
X354727Y530219D02*
D03*
Y526281D02*
D03*
X326227Y530219D02*
D03*
Y526281D02*
D03*
X334627Y546318D02*
D03*
Y542381D02*
D03*
X319227Y527718D02*
D03*
Y523781D02*
D03*
X246400Y546668D02*
D03*
Y542732D02*
D03*
D19*
X314550Y385750D02*
D03*
D20*
X307659Y395494D02*
D03*
X309628D02*
D03*
X311596D02*
D03*
X313565D02*
D03*
X315534D02*
D03*
X317503D02*
D03*
X319473D02*
D03*
X321442D02*
D03*
Y376006D02*
D03*
X319473D02*
D03*
X317503D02*
D03*
X315534D02*
D03*
X313565D02*
D03*
X311596D02*
D03*
X309628D02*
D03*
X307659D02*
D03*
X307835Y555994D02*
D03*
X309804D02*
D03*
X311773D02*
D03*
X313742D02*
D03*
X315711D02*
D03*
X317680D02*
D03*
X319649D02*
D03*
X321618D02*
D03*
Y536506D02*
D03*
X319649D02*
D03*
X317680D02*
D03*
D21*
X324294Y392640D02*
D03*
Y390671D02*
D03*
Y388703D02*
D03*
Y386734D02*
D03*
Y384766D02*
D03*
Y382797D02*
D03*
Y380829D02*
D03*
Y378860D02*
D03*
X304806D02*
D03*
Y380829D02*
D03*
Y382797D02*
D03*
Y384766D02*
D03*
Y386734D02*
D03*
Y388703D02*
D03*
Y390671D02*
D03*
Y392640D02*
D03*
X324471Y553140D02*
D03*
Y551171D02*
D03*
Y549203D02*
D03*
Y547234D02*
D03*
Y545266D02*
D03*
Y543297D02*
D03*
Y541329D02*
D03*
Y539360D02*
D03*
X304983D02*
D03*
Y541329D02*
D03*
Y543297D02*
D03*
Y545266D02*
D03*
Y547234D02*
D03*
Y549203D02*
D03*
Y551171D02*
D03*
Y553140D02*
D03*
D22*
X239785Y379320D02*
D03*
X232304D02*
D03*
Y388769D02*
D03*
X236045D02*
D03*
X239785D02*
D03*
X239961Y539820D02*
D03*
X232481D02*
D03*
Y549269D02*
D03*
X236221D02*
D03*
X239961D02*
D03*
D23*
X237479Y354200D02*
D03*
X231967D02*
D03*
X418244Y376300D02*
D03*
X423756D02*
D03*
X473008Y377547D02*
D03*
X478520D02*
D03*
X437544Y376700D02*
D03*
X443056D02*
D03*
X480520Y369547D02*
D03*
X475008D02*
D03*
X475744Y395800D02*
D03*
X481256D02*
D03*
X475910Y565261D02*
D03*
X470398D02*
D03*
X467398Y517261D02*
D03*
X472909D02*
D03*
X467398Y525761D02*
D03*
X472909D02*
D03*
X467398Y534761D02*
D03*
X472909D02*
D03*
X458898Y565261D02*
D03*
X464409D02*
D03*
X473898Y489261D02*
D03*
X479410D02*
D03*
X473898Y495761D02*
D03*
X479410D02*
D03*
X473898Y502261D02*
D03*
X479410D02*
D03*
X458898Y557761D02*
D03*
X464409D02*
D03*
X492898D02*
D03*
X498410D02*
D03*
X487409Y557761D02*
D03*
X481898D02*
D03*
X507909Y494761D02*
D03*
X502398D02*
D03*
X511898Y494761D02*
D03*
X517410D02*
D03*
X511898Y501261D02*
D03*
X517410D02*
D03*
X511898Y519261D02*
D03*
X517410D02*
D03*
X504398Y526261D02*
D03*
X509909D02*
D03*
X493898Y502761D02*
D03*
X499409D02*
D03*
X237656Y514700D02*
D03*
X232144D02*
D03*
D24*
X443000Y365587D02*
D03*
Y353776D02*
D03*
D25*
X423000Y362056D02*
D03*
Y356544D02*
D03*
X471000Y353544D02*
D03*
Y359056D02*
D03*
X462500Y353544D02*
D03*
Y359056D02*
D03*
X453500Y353544D02*
D03*
Y359056D02*
D03*
X423000Y345044D02*
D03*
Y350556D02*
D03*
X499000Y360044D02*
D03*
Y365556D02*
D03*
X492500Y360044D02*
D03*
Y365556D02*
D03*
X486000Y360044D02*
D03*
Y365556D02*
D03*
X430500Y345044D02*
D03*
Y350556D02*
D03*
Y379044D02*
D03*
Y384556D02*
D03*
X430500Y373556D02*
D03*
Y368044D02*
D03*
X493500Y394056D02*
D03*
Y388544D02*
D03*
X493500Y398044D02*
D03*
Y403556D02*
D03*
X487000Y398044D02*
D03*
Y403556D02*
D03*
X469000Y398044D02*
D03*
Y403556D02*
D03*
X462000Y390544D02*
D03*
Y396056D02*
D03*
X485500Y380044D02*
D03*
Y385556D02*
D03*
X490154Y570017D02*
D03*
Y564505D02*
D03*
X491400Y515253D02*
D03*
Y509742D02*
D03*
X490554Y550717D02*
D03*
Y545205D02*
D03*
X483400Y507742D02*
D03*
Y513253D02*
D03*
X509654Y512517D02*
D03*
Y507005D02*
D03*
D26*
X407225Y365375D02*
D03*
X385375D02*
D03*
Y387225D02*
D03*
X407225D02*
D03*
X375602Y540675D02*
D03*
X397452D02*
D03*
Y518825D02*
D03*
X375602D02*
D03*
D27*
X460146Y376876D02*
D03*
D28*
X457193Y372152D02*
D03*
X459161D02*
D03*
X461130Y371955D02*
D03*
X463098D02*
D03*
X457193Y382191D02*
D03*
X459161D02*
D03*
X461130D02*
D03*
X463098Y381994D02*
D03*
D29*
X465264Y379829D02*
D03*
Y377860D02*
D03*
Y375892D02*
D03*
X465264Y373923D02*
D03*
X455027Y379829D02*
D03*
Y377860D02*
D03*
Y375892D02*
D03*
Y373923D02*
D03*
D30*
X360016Y432988D02*
D03*
X371000Y425114D02*
D03*
X360016Y448736D02*
D03*
X371000Y440862D02*
D03*
D31*
X375008Y462358D02*
D03*
X380716D02*
D03*
X352961Y473874D02*
D03*
X347252D02*
D03*
X352961Y465016D02*
D03*
X347252D02*
D03*
X380618Y467969D02*
D03*
X374909D02*
D03*
Y456059D02*
D03*
X380618D02*
D03*
X414875Y587377D02*
D03*
X409166D02*
D03*
X428556Y622515D02*
D03*
X434265D02*
D03*
D32*
X360874Y458813D02*
D03*
X362921D02*
D03*
X364968D02*
D03*
X360874Y467870D02*
D03*
X362921D02*
D03*
X364968D02*
D03*
D33*
X346661Y451138D02*
D03*
Y443657D02*
D03*
X349220D02*
D03*
X351780D02*
D03*
X349220Y451138D02*
D03*
X351780D02*
D03*
D34*
X362016Y479386D02*
D03*
X360047D02*
D03*
X358079D02*
D03*
X362016Y489819D02*
D03*
X360047D02*
D03*
X358079D02*
D03*
X417532Y612968D02*
D03*
X419501D02*
D03*
X421469D02*
D03*
X417532Y602535D02*
D03*
X419599Y602495D02*
D03*
X421469Y602535D02*
D03*
D35*
X354732Y482732D02*
D03*
Y484701D02*
D03*
Y486669D02*
D03*
X365165Y482732D02*
D03*
X365205Y484799D02*
D03*
X365165Y486669D02*
D03*
X414186Y605684D02*
D03*
Y607653D02*
D03*
Y609621D02*
D03*
X424619Y605684D02*
D03*
Y607653D02*
D03*
Y609621D02*
D03*
D36*
X345185Y493756D02*
D03*
Y499465D02*
D03*
X380323Y480075D02*
D03*
Y474366D02*
D03*
X390859Y592791D02*
D03*
Y587082D02*
D03*
X402769D02*
D03*
Y592791D02*
D03*
X399816Y614739D02*
D03*
Y620448D02*
D03*
X408674Y614739D02*
D03*
Y620448D02*
D03*
X397158Y592692D02*
D03*
Y586983D02*
D03*
D37*
X346721Y459654D02*
D03*
Y456110D02*
D03*
X378221Y611641D02*
D03*
Y608098D02*
D03*
D38*
X356059Y443421D02*
D03*
X359602D02*
D03*
X394454Y620979D02*
D03*
X390910D02*
D03*
D39*
X479441Y545261D02*
D03*
X467630D02*
D03*
D40*
X490730Y528116D02*
D03*
D41*
X486005Y531069D02*
D03*
Y529100D02*
D03*
X485808Y527132D02*
D03*
Y525163D02*
D03*
X496044Y531069D02*
D03*
Y529100D02*
D03*
Y527132D02*
D03*
X495848Y525163D02*
D03*
D42*
X493682Y522998D02*
D03*
X491714D02*
D03*
X489745D02*
D03*
X487777Y522998D02*
D03*
X493682Y533234D02*
D03*
X491714D02*
D03*
X489745D02*
D03*
X487777D02*
D03*
D43*
X385938Y621039D02*
D03*
X378457D02*
D03*
Y618479D02*
D03*
Y615920D02*
D03*
X385938Y618479D02*
D03*
Y615920D02*
D03*
D44*
X393613Y606826D02*
D03*
Y604779D02*
D03*
Y602732D02*
D03*
X402670Y606826D02*
D03*
Y604779D02*
D03*
Y602732D02*
D03*
D45*
X369288Y599684D02*
D03*
X361414Y588700D02*
D03*
X385036Y599684D02*
D03*
X377162Y588700D02*
D03*
D70*
X461130Y371758D02*
D03*
X457193Y371758D02*
D03*
X459161D02*
D03*
X463098Y371758D02*
D03*
X457193Y381994D02*
D03*
X461130Y381994D02*
D03*
X459161Y381994D02*
D03*
X463098Y381994D02*
D03*
D98*
X485611Y527132D02*
D03*
X485611Y531068D02*
D03*
Y529100D02*
D03*
X485611Y525163D02*
D03*
X495848Y531068D02*
D03*
X495848Y527132D02*
D03*
X495848Y529100D02*
D03*
X495848Y525163D02*
D03*
D123*
X314727Y546250D02*
D03*
M02*
