%FSLAX25Y25*%
%MOIN*%
G70*
G01*
G75*
G04 Layer_Color=255*
%ADD10R,0.07000X0.07000*%
%ADD11C,0.06000*%
%ADD12R,0.07000X0.07000*%
%ADD13R,0.06850X0.06850*%
%ADD14R,0.02756X0.03543*%
%ADD15R,0.03543X0.02756*%
%ADD16R,0.02362X0.01969*%
%ADD17R,0.03740X0.03347*%
%ADD18R,0.01969X0.02362*%
%ADD19R,0.14600X0.14600*%
%ADD20R,0.01102X0.03347*%
%ADD21R,0.03347X0.01102*%
%ADD22R,0.02362X0.03347*%
%ADD23R,0.03150X0.03543*%
%ADD24R,0.10630X0.06299*%
%ADD25R,0.03543X0.03150*%
%ADD26R,0.06850X0.06850*%
%ADD27R,0.05906X0.05906*%
%ADD28R,0.00394X0.00394*%
%ADD29R,0.02520X0.01102*%
%ADD30R,0.09016X0.03504*%
%ADD31R,0.03740X0.03740*%
%ADD32R,0.01024X0.03152*%
%ADD33R,0.01555X0.01969*%
%ADD34R,0.00906X0.02953*%
%ADD35R,0.02953X0.00906*%
%ADD36R,0.03740X0.03740*%
%ADD37R,0.01969X0.01575*%
%ADD38R,0.01575X0.01969*%
%ADD39R,0.06299X0.10630*%
%ADD40R,0.05906X0.05906*%
%ADD41R,0.00394X0.00394*%
%ADD42R,0.01102X0.02520*%
%ADD43R,0.01969X0.01555*%
%ADD44R,0.03152X0.01024*%
%ADD45R,0.03504X0.09016*%
%ADD46C,0.02000*%
%ADD47C,0.01800*%
%ADD48C,0.00800*%
%ADD49C,0.01200*%
%ADD50C,0.01000*%
%ADD51C,0.04000*%
%ADD52C,0.02500*%
%ADD53C,0.01600*%
%ADD54C,0.01400*%
%ADD55C,0.03000*%
%ADD56C,0.03500*%
%ADD57R,0.08000X0.04000*%
%ADD58R,0.06127X0.02573*%
%ADD59R,0.02300X0.05200*%
%ADD60R,0.11500X0.03000*%
%ADD61R,0.22500X0.04500*%
%ADD62R,0.06500X0.07500*%
%ADD63R,0.10500X0.12500*%
%ADD64R,0.09500X0.14000*%
%ADD65R,0.02500X0.03000*%
%ADD66R,0.00532X0.00500*%
%ADD67R,0.01300X0.01400*%
%ADD68R,0.00469X0.00500*%
%ADD69R,0.01500X0.01432*%
%ADD70R,0.01102X0.02520*%
%ADD71R,0.11000X0.07500*%
%ADD72R,0.30764X0.02754*%
%ADD73R,0.06000X0.03747*%
%ADD74R,0.24764X0.03746*%
%ADD75R,0.15000X0.10600*%
%ADD76R,0.07000X0.15000*%
%ADD77R,0.40000X0.14000*%
%ADD78R,0.21500X0.25500*%
%ADD79R,0.34000X0.08500*%
%ADD80R,0.06000X0.14000*%
%ADD81R,0.18736X0.08500*%
%ADD82R,0.18000X0.07000*%
%ADD83R,0.09000X0.04500*%
%ADD84R,0.05197X0.05197*%
%ADD85R,0.04500X0.09000*%
%ADD86R,0.07000X0.18000*%
%ADD87R,0.08500X0.18736*%
%ADD88R,0.14000X0.06000*%
%ADD89R,0.03746X0.06000*%
%ADD90R,0.08500X0.34000*%
%ADD91R,0.25500X0.21500*%
%ADD92R,0.14000X0.40000*%
%ADD93R,0.15000X0.07000*%
%ADD94R,0.10600X0.15000*%
%ADD95R,0.03746X0.24764*%
%ADD96R,0.02754X0.30764*%
%ADD97R,0.02300X0.05100*%
%ADD98R,0.02520X0.01102*%
%ADD99R,0.07500X0.11000*%
%ADD100R,0.00958X0.00358*%
%ADD101R,0.04000X0.03142*%
%ADD102R,0.03500X0.04000*%
%ADD103C,0.07000*%
%ADD104C,0.02000*%
%ADD105C,0.03000*%
%ADD106C,0.01000*%
%ADD107C,0.00800*%
%ADD108C,0.04000*%
%ADD109C,0.01299*%
%ADD110C,0.05000*%
%ADD111C,0.09200*%
%ADD112C,0.08200*%
%ADD113C,0.05000*%
%ADD114C,0.05500*%
%ADD115C,0.04800*%
%ADD116C,0.05299*%
D10*
X255097Y463297D02*
D03*
X437264Y408923D02*
D03*
X441777Y504498D02*
D03*
X451777D02*
D03*
X255597Y623797D02*
D03*
D12*
X483700Y327500D02*
D03*
X522777Y550998D02*
D03*
D103*
X483700Y337500D02*
D03*
X265097Y323297D02*
D03*
Y333297D02*
D03*
Y343297D02*
D03*
Y353297D02*
D03*
Y363297D02*
D03*
Y373297D02*
D03*
Y383297D02*
D03*
Y393297D02*
D03*
Y403297D02*
D03*
Y413297D02*
D03*
Y423297D02*
D03*
Y433297D02*
D03*
Y443297D02*
D03*
Y453297D02*
D03*
Y463297D02*
D03*
X255097Y323297D02*
D03*
Y333297D02*
D03*
Y343297D02*
D03*
Y353297D02*
D03*
Y363297D02*
D03*
Y373297D02*
D03*
Y383297D02*
D03*
Y393297D02*
D03*
Y403297D02*
D03*
Y413297D02*
D03*
Y423297D02*
D03*
Y433297D02*
D03*
Y443297D02*
D03*
Y453297D02*
D03*
X427264Y408923D02*
D03*
X522777Y560998D02*
D03*
X265597Y483797D02*
D03*
Y493797D02*
D03*
Y503797D02*
D03*
Y513797D02*
D03*
Y523797D02*
D03*
Y533797D02*
D03*
Y543797D02*
D03*
Y553797D02*
D03*
Y563797D02*
D03*
Y573797D02*
D03*
Y583797D02*
D03*
Y593797D02*
D03*
Y603797D02*
D03*
Y613797D02*
D03*
Y623797D02*
D03*
X255597Y483797D02*
D03*
Y493797D02*
D03*
Y503797D02*
D03*
Y513797D02*
D03*
Y523797D02*
D03*
Y533797D02*
D03*
Y543797D02*
D03*
Y553797D02*
D03*
Y563797D02*
D03*
Y573797D02*
D03*
Y583797D02*
D03*
Y593797D02*
D03*
Y603797D02*
D03*
Y613797D02*
D03*
D104*
X319200Y390400D02*
D03*
Y387300D02*
D03*
Y384200D02*
D03*
Y381100D02*
D03*
X316100Y390400D02*
D03*
Y387300D02*
D03*
Y384200D02*
D03*
Y381100D02*
D03*
X313000Y390400D02*
D03*
Y387300D02*
D03*
Y384200D02*
D03*
Y381100D02*
D03*
X309900Y390400D02*
D03*
Y387300D02*
D03*
Y384200D02*
D03*
Y381100D02*
D03*
X319377Y550900D02*
D03*
Y547800D02*
D03*
Y544700D02*
D03*
Y541600D02*
D03*
X316277Y550900D02*
D03*
Y547800D02*
D03*
Y544700D02*
D03*
Y541600D02*
D03*
X313177Y550900D02*
D03*
Y547800D02*
D03*
Y544700D02*
D03*
Y541600D02*
D03*
X310077Y550900D02*
D03*
Y547800D02*
D03*
Y544700D02*
D03*
Y541600D02*
D03*
M02*
