%FSLAX25Y25*%
%MOIN*%
G70*
G01*
G75*
G04 Layer_Color=16711935*
%ADD10R,0.07000X0.07000*%
%ADD11C,0.06000*%
%ADD12R,0.07000X0.07000*%
%ADD13R,0.06850X0.06850*%
%ADD14R,0.02756X0.03543*%
%ADD15R,0.03543X0.02756*%
%ADD16R,0.02362X0.01969*%
%ADD17R,0.03740X0.03347*%
%ADD18R,0.01969X0.02362*%
%ADD19R,0.14600X0.14600*%
%ADD20R,0.01102X0.03347*%
%ADD21R,0.03347X0.01102*%
%ADD22R,0.02362X0.03347*%
%ADD23R,0.03150X0.03543*%
%ADD24R,0.10630X0.06299*%
%ADD25R,0.03543X0.03150*%
%ADD26R,0.06850X0.06850*%
%ADD27R,0.05906X0.05906*%
%ADD28R,0.00394X0.00394*%
%ADD29R,0.02520X0.01102*%
%ADD30R,0.09016X0.03504*%
%ADD31R,0.03740X0.03740*%
%ADD32R,0.01024X0.03152*%
%ADD33R,0.01555X0.01969*%
%ADD34R,0.00906X0.02953*%
%ADD35R,0.02953X0.00906*%
%ADD36R,0.03740X0.03740*%
%ADD37R,0.01969X0.01575*%
%ADD38R,0.01575X0.01969*%
%ADD39R,0.06299X0.10630*%
%ADD40R,0.05906X0.05906*%
%ADD41R,0.00394X0.00394*%
%ADD42R,0.01102X0.02520*%
%ADD43R,0.01969X0.01555*%
%ADD44R,0.03152X0.01024*%
%ADD45R,0.03504X0.09016*%
%ADD46C,0.02000*%
%ADD47C,0.01800*%
%ADD48C,0.00800*%
%ADD49C,0.01200*%
%ADD50C,0.01000*%
%ADD51C,0.04000*%
%ADD52C,0.02500*%
%ADD53C,0.01600*%
%ADD54C,0.01400*%
%ADD55C,0.03000*%
%ADD56C,0.03500*%
%ADD57R,0.08000X0.04000*%
%ADD58R,0.06127X0.02573*%
%ADD59R,0.02300X0.05200*%
%ADD60R,0.11500X0.03000*%
%ADD61R,0.22500X0.04500*%
%ADD62R,0.06500X0.07500*%
%ADD63R,0.10500X0.12500*%
%ADD64R,0.09500X0.14000*%
%ADD65R,0.02500X0.03000*%
%ADD66R,0.00532X0.00500*%
%ADD67R,0.01300X0.01400*%
%ADD68R,0.00469X0.00500*%
%ADD69R,0.01500X0.01432*%
%ADD70R,0.01102X0.02520*%
%ADD71R,0.11000X0.07500*%
%ADD72R,0.30764X0.02754*%
%ADD73R,0.06000X0.03747*%
%ADD74R,0.24764X0.03746*%
%ADD75R,0.15000X0.10600*%
%ADD76R,0.07000X0.15000*%
%ADD77R,0.40000X0.14000*%
%ADD78R,0.21500X0.25500*%
%ADD79R,0.34000X0.08500*%
%ADD80R,0.06000X0.14000*%
%ADD81R,0.18736X0.08500*%
%ADD82R,0.18000X0.07000*%
%ADD83R,0.09000X0.04500*%
%ADD84R,0.05197X0.05197*%
%ADD85R,0.04500X0.09000*%
%ADD86R,0.07000X0.18000*%
%ADD87R,0.08500X0.18736*%
%ADD88R,0.14000X0.06000*%
%ADD89R,0.03746X0.06000*%
%ADD90R,0.08500X0.34000*%
%ADD91R,0.25500X0.21500*%
%ADD92R,0.14000X0.40000*%
%ADD93R,0.15000X0.07000*%
%ADD94R,0.10600X0.15000*%
%ADD95R,0.03746X0.24764*%
%ADD96R,0.02754X0.30764*%
%ADD97R,0.02300X0.05100*%
%ADD98R,0.02520X0.01102*%
%ADD99R,0.07500X0.11000*%
%ADD100R,0.00958X0.00358*%
%ADD101R,0.04000X0.03142*%
%ADD102R,0.03500X0.04000*%
%ADD103C,0.07000*%
%ADD104C,0.02000*%
%ADD105C,0.03000*%
%ADD106C,0.01000*%
%ADD107C,0.00800*%
%ADD108C,0.04000*%
%ADD109C,0.01299*%
%ADD110C,0.05000*%
%ADD111C,0.09200*%
%ADD112C,0.08200*%
%ADD113C,0.05000*%
%ADD114C,0.05500*%
%ADD115C,0.04800*%
%ADD116C,0.05299*%
%ADD117C,0.00984*%
%ADD118C,0.00787*%
%ADD119C,0.00600*%
%ADD120C,0.00200*%
%ADD121C,0.00100*%
%ADD122C,0.00500*%
%ADD123R,0.00100X0.00100*%
%ADD124R,0.07800X0.07800*%
%ADD125C,0.06800*%
%ADD126R,0.07800X0.07800*%
%ADD127R,0.07650X0.07650*%
%ADD128R,0.03556X0.04343*%
%ADD129R,0.04343X0.03556*%
%ADD130R,0.03162X0.02769*%
%ADD131R,0.04540X0.04147*%
%ADD132R,0.02769X0.03162*%
%ADD133R,0.01902X0.04147*%
%ADD134R,0.04147X0.01902*%
%ADD135R,0.03162X0.04147*%
%ADD136R,0.03950X0.04343*%
%ADD137R,0.11430X0.07099*%
%ADD138R,0.04343X0.03950*%
%ADD139R,0.07650X0.07650*%
%ADD140R,0.06706X0.06706*%
%ADD141R,0.02913X0.01496*%
%ADD142R,0.09816X0.04304*%
%ADD143R,0.04540X0.04540*%
%ADD144R,0.01824X0.03952*%
%ADD145R,0.02355X0.02769*%
%ADD146R,0.01706X0.03753*%
%ADD147R,0.03753X0.01706*%
%ADD148R,0.04540X0.04540*%
%ADD149R,0.02769X0.02375*%
%ADD150R,0.02375X0.02769*%
%ADD151R,0.07099X0.11430*%
%ADD152R,0.06706X0.06706*%
%ADD153R,0.01496X0.02913*%
%ADD154R,0.02769X0.02355*%
%ADD155R,0.03952X0.01824*%
%ADD156R,0.04304X0.09816*%
%ADD157R,0.01496X0.02913*%
%ADD158R,0.05997X0.05997*%
%ADD159R,0.02913X0.01496*%
%ADD160C,0.07800*%
%ADD161C,0.02800*%
%ADD162C,0.03800*%
%ADD163C,0.01800*%
%ADD164C,0.01600*%
%ADD165C,0.02099*%
D115*
X421764Y341547D02*
D03*
X427764D02*
D03*
X433764D02*
D03*
X439764D02*
D03*
X445764D02*
D03*
X451764D02*
D03*
X457764D02*
D03*
X455400Y530498D02*
D03*
Y536498D02*
D03*
Y542498D02*
D03*
Y548498D02*
D03*
Y554498D02*
D03*
Y560498D02*
D03*
Y566498D02*
D03*
D124*
X255097Y463297D02*
D03*
X437264Y408923D02*
D03*
X441777Y504498D02*
D03*
X451777D02*
D03*
X255597Y623797D02*
D03*
D126*
X483700Y327500D02*
D03*
X522777Y550998D02*
D03*
D160*
X483700Y337500D02*
D03*
X265097Y323297D02*
D03*
Y333297D02*
D03*
Y343297D02*
D03*
Y353297D02*
D03*
Y363297D02*
D03*
Y373297D02*
D03*
Y383297D02*
D03*
Y393297D02*
D03*
Y403297D02*
D03*
Y413297D02*
D03*
Y423297D02*
D03*
Y433297D02*
D03*
Y443297D02*
D03*
Y453297D02*
D03*
Y463297D02*
D03*
X255097Y323297D02*
D03*
Y333297D02*
D03*
Y343297D02*
D03*
Y353297D02*
D03*
Y363297D02*
D03*
Y373297D02*
D03*
Y383297D02*
D03*
Y393297D02*
D03*
Y403297D02*
D03*
Y413297D02*
D03*
Y423297D02*
D03*
Y433297D02*
D03*
Y443297D02*
D03*
Y453297D02*
D03*
X427264Y408923D02*
D03*
X522777Y560998D02*
D03*
X265597Y483797D02*
D03*
Y493797D02*
D03*
Y503797D02*
D03*
Y513797D02*
D03*
Y523797D02*
D03*
Y533797D02*
D03*
Y543797D02*
D03*
Y553797D02*
D03*
Y563797D02*
D03*
Y573797D02*
D03*
Y583797D02*
D03*
Y593797D02*
D03*
Y603797D02*
D03*
Y613797D02*
D03*
Y623797D02*
D03*
X255597Y483797D02*
D03*
Y493797D02*
D03*
Y503797D02*
D03*
Y513797D02*
D03*
Y523797D02*
D03*
Y533797D02*
D03*
Y543797D02*
D03*
Y553797D02*
D03*
Y563797D02*
D03*
Y573797D02*
D03*
Y583797D02*
D03*
Y593797D02*
D03*
Y603797D02*
D03*
Y613797D02*
D03*
D161*
X319200Y390400D02*
D03*
Y387300D02*
D03*
Y384200D02*
D03*
Y381100D02*
D03*
X316100Y390400D02*
D03*
Y387300D02*
D03*
Y384200D02*
D03*
Y381100D02*
D03*
X313000Y390400D02*
D03*
Y387300D02*
D03*
Y384200D02*
D03*
Y381100D02*
D03*
X309900Y390400D02*
D03*
Y387300D02*
D03*
Y384200D02*
D03*
Y381100D02*
D03*
X319377Y550900D02*
D03*
Y547800D02*
D03*
Y544700D02*
D03*
Y541600D02*
D03*
X316277Y550900D02*
D03*
Y547800D02*
D03*
Y544700D02*
D03*
Y541600D02*
D03*
X313177Y550900D02*
D03*
Y547800D02*
D03*
Y544700D02*
D03*
Y541600D02*
D03*
X310077Y550900D02*
D03*
Y547800D02*
D03*
Y544700D02*
D03*
Y541600D02*
D03*
X304723Y423700D02*
D03*
X301223D02*
D03*
X322223Y359200D02*
D03*
X317723D02*
D03*
X308723D02*
D03*
X313223D02*
D03*
X317323Y410300D02*
D03*
Y407800D02*
D03*
X312723Y418700D02*
D03*
X316723D02*
D03*
X320723D02*
D03*
X324723D02*
D03*
X328723D02*
D03*
X320723Y415200D02*
D03*
X325023Y415000D02*
D03*
X314223Y415200D02*
D03*
X276723Y386700D02*
D03*
X274723Y374700D02*
D03*
X279723D02*
D03*
Y378700D02*
D03*
X274723D02*
D03*
Y382700D02*
D03*
X279723D02*
D03*
X345550Y389250D02*
D03*
X329523Y415000D02*
D03*
X339550Y399750D02*
D03*
X235997Y394497D02*
D03*
Y391497D02*
D03*
Y397997D02*
D03*
X287050Y395250D02*
D03*
X322550Y371250D02*
D03*
X348723Y361750D02*
D03*
X344550Y353718D02*
D03*
X354550Y360750D02*
D03*
X340050Y353718D02*
D03*
X345519Y378550D02*
D03*
X346050Y393750D02*
D03*
X332550Y407750D02*
D03*
X305550Y401750D02*
D03*
X294578Y409778D02*
D03*
X287050Y405250D02*
D03*
X301550Y398250D02*
D03*
X294550Y398750D02*
D03*
X307050Y365250D02*
D03*
X316082Y367750D02*
D03*
X294550Y386250D02*
D03*
X286550Y379250D02*
D03*
Y383250D02*
D03*
X310550Y415187D02*
D03*
X272960Y333497D02*
D03*
X506261Y384146D02*
D03*
X505261Y387647D02*
D03*
X502761Y384146D02*
D03*
X499261D02*
D03*
X493500Y413800D02*
D03*
X487000D02*
D03*
X469000D02*
D03*
X482264Y414046D02*
D03*
X478264D02*
D03*
X473264D02*
D03*
Y409047D02*
D03*
X478264D02*
D03*
X482264D02*
D03*
X470500Y382800D02*
D03*
X458000Y357300D02*
D03*
X489000Y350300D02*
D03*
X495500D02*
D03*
X486000Y353800D02*
D03*
X492500D02*
D03*
X499000D02*
D03*
X423000Y367300D02*
D03*
X469000Y408800D02*
D03*
X487000D02*
D03*
X493500D02*
D03*
X482256Y388800D02*
D03*
X501500Y388300D02*
D03*
X430500Y391800D02*
D03*
Y360800D02*
D03*
X471000Y373300D02*
D03*
X352500Y458800D02*
D03*
X381701Y434504D02*
D03*
X378748Y450252D02*
D03*
X365756Y442772D02*
D03*
X369988Y460882D02*
D03*
X354043Y440606D02*
D03*
X353300Y455400D02*
D03*
X375598Y478303D02*
D03*
X377961Y493756D02*
D03*
X373827Y493559D02*
D03*
X369102D02*
D03*
X358079Y474071D02*
D03*
X356110Y453008D02*
D03*
X359850Y448776D02*
D03*
X369299Y471807D02*
D03*
X386228Y468362D02*
D03*
X358200Y469300D02*
D03*
X350205Y480764D02*
D03*
X355126Y490606D02*
D03*
X350205Y488638D02*
D03*
X355126Y494543D02*
D03*
X321268Y476925D02*
D03*
X329142D02*
D03*
X321268Y498579D02*
D03*
X329142D02*
D03*
X314181Y455567D02*
D03*
X335835D02*
D03*
Y445724D02*
D03*
X314281Y446224D02*
D03*
X406209Y499465D02*
D03*
X398335D02*
D03*
X406209Y477811D02*
D03*
X398335D02*
D03*
X391913Y445898D02*
D03*
X413567D02*
D03*
Y455740D02*
D03*
X391913D02*
D03*
X273137Y493997D02*
D03*
X310727Y575687D02*
D03*
X286727Y543750D02*
D03*
Y539750D02*
D03*
X294727Y546750D02*
D03*
X316258Y528250D02*
D03*
X307227Y525750D02*
D03*
X294727Y559250D02*
D03*
X301727Y558750D02*
D03*
X287227Y565750D02*
D03*
X294754Y570278D02*
D03*
X305727Y562250D02*
D03*
X332727Y568250D02*
D03*
X345696Y539050D02*
D03*
X340227Y514219D02*
D03*
X354727Y521250D02*
D03*
X344727Y514219D02*
D03*
X348900Y522250D02*
D03*
X322727Y531750D02*
D03*
X287227Y555750D02*
D03*
X487153Y517261D02*
D03*
X236174Y558497D02*
D03*
Y551997D02*
D03*
Y554997D02*
D03*
X474653Y557761D02*
D03*
X505653D02*
D03*
X502153Y486761D02*
D03*
X502654Y506005D02*
D03*
X522653Y494761D02*
D03*
Y501261D02*
D03*
Y519261D02*
D03*
X481153Y565261D02*
D03*
X467654Y489261D02*
D03*
Y495761D02*
D03*
Y502261D02*
D03*
X464153Y492761D02*
D03*
Y499261D02*
D03*
X471153Y530261D02*
D03*
X496654Y517761D02*
D03*
X329700Y575500D02*
D03*
X279900Y543200D02*
D03*
X274900D02*
D03*
Y539200D02*
D03*
X279900D02*
D03*
Y535200D02*
D03*
X274900D02*
D03*
X314400Y575700D02*
D03*
X325200Y575500D02*
D03*
X320900Y575700D02*
D03*
X328900Y579200D02*
D03*
X324900D02*
D03*
X320900D02*
D03*
X316900D02*
D03*
X312900D02*
D03*
X522900Y505998D02*
D03*
Y509998D02*
D03*
Y514998D02*
D03*
X527900D02*
D03*
Y509998D02*
D03*
Y505998D02*
D03*
X527654Y519261D02*
D03*
Y501261D02*
D03*
Y494761D02*
D03*
X317500Y568300D02*
D03*
Y570800D02*
D03*
X390540Y575787D02*
D03*
Y554133D02*
D03*
X380698D02*
D03*
Y575787D02*
D03*
X412611Y569365D02*
D03*
Y561491D02*
D03*
X434265Y569365D02*
D03*
Y561491D02*
D03*
X381024Y653419D02*
D03*
X380524Y631865D02*
D03*
X390367D02*
D03*
Y653519D02*
D03*
X433379Y638558D02*
D03*
Y646432D02*
D03*
X411725Y638558D02*
D03*
Y646432D02*
D03*
X429343Y612574D02*
D03*
X423438Y617495D02*
D03*
X425406Y612574D02*
D03*
X415564Y617495D02*
D03*
X404100Y609500D02*
D03*
X403162Y581472D02*
D03*
X406607Y598401D02*
D03*
X383576Y607850D02*
D03*
X387808Y611590D02*
D03*
X408871Y609621D02*
D03*
X428359Y598598D02*
D03*
Y593873D02*
D03*
X428556Y589739D02*
D03*
X413103Y592102D02*
D03*
X390200Y614400D02*
D03*
X375406Y613657D02*
D03*
X395682Y597712D02*
D03*
X377572Y601944D02*
D03*
X385052Y588952D02*
D03*
X369304Y585999D02*
D03*
X393600Y615200D02*
D03*
X313400Y519700D02*
D03*
X308900D02*
D03*
X317900D02*
D03*
X322400D02*
D03*
X301400Y584200D02*
D03*
X304900D02*
D03*
X498000Y489000D02*
D03*
Y485500D02*
D03*
X501500Y483000D02*
D03*
X498000Y482000D02*
D03*
X345727Y549750D02*
D03*
X341000Y561500D02*
D03*
X347000Y558000D02*
D03*
Y554000D02*
D03*
X346000Y399500D02*
D03*
D162*
X355467Y323936D02*
D03*
X348129Y338448D02*
D03*
X362640Y323936D02*
D03*
X369978Y338448D02*
D03*
X224723Y354200D02*
D03*
X236097Y338797D02*
D03*
X240597D02*
D03*
X236097Y342797D02*
D03*
X240597D02*
D03*
Y346797D02*
D03*
X236097D02*
D03*
X229097Y361797D02*
D03*
X223997Y372497D02*
D03*
X224997Y405997D02*
D03*
X507000Y370300D02*
D03*
X413976Y353776D02*
D03*
X408764Y349547D02*
D03*
Y353547D02*
D03*
X402764Y353776D02*
D03*
Y353547D02*
D03*
Y349547D02*
D03*
X385375Y379886D02*
D03*
X515639Y327100D02*
D03*
X399886Y387225D02*
D03*
X508300Y341611D02*
D03*
X522811Y327100D02*
D03*
X530150Y341611D02*
D03*
X385375Y372714D02*
D03*
X399225Y365923D02*
D03*
X420264Y407923D02*
D03*
X414264D02*
D03*
X408264D02*
D03*
X402264D02*
D03*
X396264D02*
D03*
Y401923D02*
D03*
X402264D02*
D03*
X408264D02*
D03*
X414264D02*
D03*
X420264D02*
D03*
X426264D02*
D03*
X452264Y407923D02*
D03*
X446264D02*
D03*
X440264Y401923D02*
D03*
X446264D02*
D03*
X452264D02*
D03*
Y395923D02*
D03*
X446264D02*
D03*
X440264D02*
D03*
Y389923D02*
D03*
X446264D02*
D03*
X452264D02*
D03*
X455264Y329923D02*
D03*
Y326423D02*
D03*
X460764D02*
D03*
Y329923D02*
D03*
X466764D02*
D03*
Y326423D02*
D03*
X472264D02*
D03*
Y329923D02*
D03*
X477764D02*
D03*
Y326423D02*
D03*
X453500Y347800D02*
D03*
X462500Y348300D02*
D03*
X471000Y348300D02*
D03*
X503000Y404300D02*
D03*
Y400300D02*
D03*
Y396300D02*
D03*
X507000Y362300D02*
D03*
Y366300D02*
D03*
X225174Y566497D02*
D03*
X224174Y532997D02*
D03*
X229274Y522297D02*
D03*
X236274Y507297D02*
D03*
X240774D02*
D03*
Y503297D02*
D03*
X236274D02*
D03*
X240774Y499297D02*
D03*
X236274D02*
D03*
X480154Y481261D02*
D03*
X476154D02*
D03*
X510153Y485261D02*
D03*
X514153D02*
D03*
X518153D02*
D03*
X462153Y517261D02*
D03*
X462154Y525761D02*
D03*
X461654Y534761D02*
D03*
X440277Y510498D02*
D03*
X443777D02*
D03*
Y515998D02*
D03*
X440277D02*
D03*
Y521498D02*
D03*
X443777D02*
D03*
Y527498D02*
D03*
X440277D02*
D03*
Y532998D02*
D03*
X443777D02*
D03*
X503777Y535998D02*
D03*
Y541998D02*
D03*
Y547998D02*
D03*
X509777D02*
D03*
Y541998D02*
D03*
Y535998D02*
D03*
X515777D02*
D03*
Y541998D02*
D03*
Y547998D02*
D03*
X521777Y541998D02*
D03*
Y535998D02*
D03*
X515777Y561998D02*
D03*
Y567998D02*
D03*
Y573998D02*
D03*
Y579998D02*
D03*
Y585998D02*
D03*
Y591998D02*
D03*
X521777D02*
D03*
Y585998D02*
D03*
Y579998D02*
D03*
Y573998D02*
D03*
Y567998D02*
D03*
X479777Y589036D02*
D03*
X486567Y602886D02*
D03*
X503079Y463848D02*
D03*
X495740Y449336D02*
D03*
X481228Y463848D02*
D03*
X501079Y588375D02*
D03*
X382940Y518825D02*
D03*
X397452Y526164D02*
D03*
Y533336D02*
D03*
X382215Y541200D02*
D03*
X488567Y449336D02*
D03*
X493740Y602886D02*
D03*
X224900Y514700D02*
D03*
X463400Y585498D02*
D03*
X467400D02*
D03*
X467630D02*
D03*
X467400Y579498D02*
D03*
X463400D02*
D03*
X467630Y574285D02*
D03*
X484154Y481261D02*
D03*
D164*
X293597Y373297D02*
D03*
X293774Y533797D02*
D03*
X488761Y530084D02*
D03*
X490730D02*
D03*
X492698D02*
D03*
Y528116D02*
D03*
X490730D02*
D03*
X488761D02*
D03*
Y526147D02*
D03*
X490730D02*
D03*
X492698D02*
D03*
X458177Y378844D02*
D03*
X460146D02*
D03*
X462114D02*
D03*
Y376876D02*
D03*
X460146D02*
D03*
X458177D02*
D03*
Y374907D02*
D03*
X460146D02*
D03*
X462114D02*
D03*
D165*
X361347Y483402D02*
D03*
Y486000D02*
D03*
D03*
X358748D02*
D03*
Y483402D02*
D03*
X418202Y606354D02*
D03*
X420800D02*
D03*
D03*
Y608952D02*
D03*
X418202D02*
D03*
M02*
