%FSLAX25Y25*%
%MOIN*%
G70*
G01*
G75*
%ADD10R,0.07000X0.07000*%
%ADD11C,0.06000*%
%ADD12R,0.07000X0.07000*%
%ADD13R,0.06850X0.06850*%
%ADD14R,0.02756X0.03543*%
%ADD15R,0.03543X0.02756*%
%ADD16R,0.02362X0.01969*%
%ADD17R,0.03740X0.03347*%
%ADD18R,0.01969X0.02362*%
%ADD19R,0.14600X0.14600*%
%ADD20R,0.01102X0.03347*%
%ADD21R,0.03347X0.01102*%
%ADD22R,0.02362X0.03347*%
%ADD23R,0.03150X0.03543*%
%ADD24R,0.10630X0.06299*%
%ADD25R,0.03543X0.03150*%
%ADD26R,0.06850X0.06850*%
%ADD27R,0.05906X0.05906*%
%ADD28R,0.00394X0.00394*%
%ADD29R,0.02520X0.01102*%
%ADD30R,0.09016X0.03504*%
%ADD31R,0.03740X0.03740*%
%ADD32R,0.01024X0.03152*%
%ADD33R,0.01555X0.01969*%
%ADD34R,0.00906X0.02953*%
%ADD35R,0.02953X0.00906*%
%ADD36R,0.03740X0.03740*%
%ADD37R,0.01969X0.01575*%
%ADD38R,0.01575X0.01969*%
%ADD39R,0.06299X0.10630*%
%ADD40R,0.05906X0.05906*%
%ADD41R,0.00394X0.00394*%
%ADD42R,0.01102X0.02520*%
%ADD43R,0.01969X0.01555*%
%ADD44R,0.03152X0.01024*%
%ADD45R,0.03504X0.09016*%
%ADD46C,0.02000*%
%ADD47C,0.01800*%
%ADD48C,0.00800*%
%ADD49C,0.01200*%
%ADD50C,0.01000*%
%ADD51C,0.04000*%
%ADD52C,0.02500*%
%ADD53C,0.01600*%
%ADD54C,0.01400*%
%ADD55C,0.03000*%
%ADD56C,0.03500*%
%ADD57R,0.08000X0.04000*%
%ADD58R,0.06127X0.02573*%
%ADD59R,0.02300X0.05200*%
%ADD60R,0.11500X0.03000*%
%ADD61R,0.22500X0.04500*%
%ADD62R,0.06500X0.07500*%
%ADD63R,0.10500X0.12500*%
%ADD64R,0.09500X0.14000*%
%ADD65R,0.02500X0.03000*%
%ADD66R,0.00532X0.00500*%
%ADD67R,0.01300X0.01400*%
%ADD68R,0.00469X0.00500*%
%ADD69R,0.01500X0.01432*%
%ADD70R,0.01102X0.02520*%
%ADD71R,0.11000X0.07500*%
%ADD72R,0.30764X0.02754*%
%ADD73R,0.06000X0.03747*%
%ADD74R,0.24764X0.03746*%
%ADD75R,0.15000X0.10600*%
%ADD76R,0.07000X0.15000*%
%ADD77R,0.40000X0.14000*%
%ADD78R,0.21500X0.25500*%
%ADD79R,0.34000X0.08500*%
%ADD80R,0.06000X0.14000*%
%ADD81R,0.18736X0.08500*%
%ADD82R,0.18000X0.07000*%
%ADD83R,0.09000X0.04500*%
%ADD84R,0.05197X0.05197*%
%ADD85R,0.04500X0.09000*%
%ADD86R,0.07000X0.18000*%
%ADD87R,0.08500X0.18736*%
%ADD88R,0.14000X0.06000*%
%ADD89R,0.03746X0.06000*%
%ADD90R,0.08500X0.34000*%
%ADD91R,0.25500X0.21500*%
%ADD92R,0.14000X0.40000*%
%ADD93R,0.15000X0.07000*%
%ADD94R,0.10600X0.15000*%
%ADD95R,0.03746X0.24764*%
%ADD96R,0.02754X0.30764*%
%ADD97R,0.02300X0.05100*%
%ADD98R,0.02520X0.01102*%
%ADD99R,0.07500X0.11000*%
%ADD100R,0.00958X0.00358*%
%ADD101R,0.04000X0.03142*%
%ADD102R,0.03500X0.04000*%
%ADD103C,0.07000*%
%ADD104C,0.02000*%
%ADD105C,0.03000*%
%ADD106C,0.01000*%
%ADD107C,0.00800*%
%ADD108C,0.04000*%
%ADD109C,0.01299*%
%ADD110C,0.05000*%
%ADD111C,0.09200*%
%ADD112C,0.08200*%
%ADD113C,0.05000*%
%ADD114C,0.05500*%
%ADD115C,0.04800*%
%ADD116C,0.05299*%
%ADD117C,0.00984*%
%ADD118C,0.00787*%
%ADD119C,0.00600*%
%ADD120C,0.00200*%
%ADD121C,0.00100*%
%ADD122C,0.00500*%
G36*
X312347Y398167D02*
X310846D01*
Y399167D01*
X312347D01*
Y398167D01*
D02*
G37*
G36*
X327967Y384016D02*
X326967D01*
Y385516D01*
X327967D01*
Y384016D01*
D02*
G37*
G36*
X310378Y372333D02*
X308877D01*
Y373333D01*
X310378D01*
Y372333D01*
D02*
G37*
G36*
X312523Y558667D02*
X311023D01*
Y559667D01*
X312523D01*
Y558667D01*
D02*
G37*
G36*
X328144Y544516D02*
X327144D01*
Y546016D01*
X328144D01*
Y544516D01*
D02*
G37*
G36*
X310554Y532833D02*
X309054D01*
Y533833D01*
X310554D01*
Y532833D01*
D02*
G37*
D50*
X257597Y468297D02*
G03*
X262597Y468297I2500J0D01*
G01*
X258097Y628797D02*
G03*
X263097Y628797I2500J0D01*
G01*
X262597Y318297D02*
Y468297D01*
X257597Y318297D02*
X262597D01*
X257597D02*
Y468297D01*
X262597D01*
X257597D02*
X262597D01*
X263097Y478797D02*
Y628797D01*
X258097Y478797D02*
X263097D01*
X258097D02*
Y628797D01*
X263097D01*
X258097D02*
X263097D01*
X353600Y454900D02*
X357599D01*
X359598Y455900D02*
X361597D01*
X360598D01*
Y461898D01*
X359598Y460898D01*
X535498Y482000D02*
Y480001D01*
Y481000D01*
X529500D01*
Y482000D01*
Y480001D01*
X535498Y477002D02*
Y473003D01*
Y475002D01*
X529500D01*
Y471004D02*
Y469004D01*
Y470004D01*
X535498D01*
X534498Y471004D01*
X528500Y466005D02*
Y462007D01*
X534498Y456008D02*
X535498Y457008D01*
Y459007D01*
X534498Y460007D01*
X533499D01*
X532499Y459007D01*
Y457008D01*
X531499Y456008D01*
X530500D01*
X529500Y457008D01*
Y459007D01*
X530500Y460007D01*
X534498Y450010D02*
X535498Y451010D01*
Y453009D01*
X534498Y454009D01*
X533499D01*
X532499Y453009D01*
Y451010D01*
X531499Y450010D01*
X530500D01*
X529500Y451010D01*
Y453009D01*
X530500Y454009D01*
X528500Y448011D02*
Y444012D01*
X534498Y438014D02*
X535498Y439014D01*
Y441013D01*
X534498Y442013D01*
X530500D01*
X529500Y441013D01*
Y439014D01*
X530500Y438014D01*
X535498Y433016D02*
Y435015D01*
X534498Y436015D01*
X530500D01*
X529500Y435015D01*
Y433016D01*
X530500Y432016D01*
X534498D01*
X535498Y433016D01*
X529500Y430017D02*
X535498D01*
X533499Y428018D01*
X535498Y426018D01*
X529500D01*
X534498Y420020D02*
X535498Y421020D01*
Y423019D01*
X534498Y424019D01*
X533499D01*
X532499Y423019D01*
Y421020D01*
X531499Y420020D01*
X530500D01*
X529500Y421020D01*
Y423019D01*
X530500Y424019D01*
X528500Y418021D02*
Y414022D01*
X535498Y412023D02*
Y408024D01*
Y410023D01*
X529500D01*
Y406025D02*
X535498D01*
Y403026D01*
X534498Y402026D01*
X532499D01*
X531499Y403026D01*
Y406025D01*
Y404025D02*
X529500Y402026D01*
Y400027D02*
X535498D01*
Y397027D01*
X534498Y396028D01*
X532499D01*
X531499Y397027D01*
Y400027D01*
X529500Y394028D02*
X533499D01*
X535498Y392029D01*
X533499Y390030D01*
X529500D01*
X532499D01*
Y394028D01*
X534498Y384032D02*
X535498Y385031D01*
Y387031D01*
X534498Y388030D01*
X533499D01*
X532499Y387031D01*
Y385031D01*
X531499Y384032D01*
X530500D01*
X529500Y385031D01*
Y387031D01*
X530500Y388030D01*
X535498Y382032D02*
X529500D01*
X531499Y380033D01*
X529500Y378034D01*
X535498D01*
X528500Y376034D02*
Y372036D01*
X529500Y370036D02*
X535498D01*
Y367037D01*
X534498Y366038D01*
X532499D01*
X531499Y367037D01*
Y370036D01*
Y368037D02*
X529500Y366038D01*
X534498Y364038D02*
X535498Y363038D01*
Y361039D01*
X534498Y360039D01*
X533499D01*
X532499Y361039D01*
Y362039D01*
Y361039D01*
X531499Y360039D01*
X530500D01*
X529500Y361039D01*
Y363038D01*
X530500Y364038D01*
X226000Y661998D02*
Y657000D01*
X227000Y656000D01*
X228999D01*
X229999Y657000D01*
Y661998D01*
X231998D02*
X235997D01*
X233997D01*
Y656000D01*
X237996D02*
Y659999D01*
X239996Y661998D01*
X241995Y659999D01*
Y656000D01*
Y658999D01*
X237996D01*
X243994Y661998D02*
X247993D01*
X245993D01*
Y656000D01*
X259989Y660998D02*
X258989Y661998D01*
X256990D01*
X255990Y660998D01*
Y659999D01*
X256990Y658999D01*
X258989D01*
X259989Y657999D01*
Y657000D01*
X258989Y656000D01*
X256990D01*
X255990Y657000D01*
X261988Y654001D02*
Y659999D01*
X264987D01*
X265987Y658999D01*
Y657000D01*
X264987Y656000D01*
X261988D01*
X268986Y659999D02*
X270985D01*
X271985Y658999D01*
Y656000D01*
X268986D01*
X267986Y657000D01*
X268986Y657999D01*
X271985D01*
X277983Y659999D02*
X274984D01*
X273985Y658999D01*
Y657000D01*
X274984Y656000D01*
X277983D01*
X282982D02*
X280982D01*
X279982Y657000D01*
Y658999D01*
X280982Y659999D01*
X282982D01*
X283981Y658999D01*
Y657999D01*
X279982D01*
X295977Y660998D02*
X294978Y661998D01*
X292978D01*
X291979Y660998D01*
Y659999D01*
X292978Y658999D01*
X294978D01*
X295977Y657999D01*
Y657000D01*
X294978Y656000D01*
X292978D01*
X291979Y657000D01*
X297977Y659999D02*
Y657000D01*
X298976Y656000D01*
X301975D01*
Y655000D01*
X300976Y654001D01*
X299976D01*
X301975Y656000D02*
Y659999D01*
X303975Y656000D02*
X306974D01*
X307974Y657000D01*
X306974Y657999D01*
X304975D01*
X303975Y658999D01*
X304975Y659999D01*
X307974D01*
X310972Y660998D02*
Y659999D01*
X309973D01*
X311972D01*
X310972D01*
Y657000D01*
X311972Y656000D01*
X317970D02*
X315971D01*
X314971Y657000D01*
Y658999D01*
X315971Y659999D01*
X317970D01*
X318970Y658999D01*
Y657999D01*
X314971D01*
X320969Y656000D02*
Y659999D01*
X321969D01*
X322969Y658999D01*
Y656000D01*
Y658999D01*
X323968Y659999D01*
X324968Y658999D01*
Y656000D01*
X326967D02*
X329966D01*
X330966Y657000D01*
X329966Y657999D01*
X327967D01*
X326967Y658999D01*
X327967Y659999D01*
X330966D01*
X226000Y644500D02*
Y650498D01*
X229999Y644500D01*
Y650498D01*
X232998Y648499D02*
X234997D01*
X235997Y647499D01*
Y644500D01*
X232998D01*
X231998Y645500D01*
X232998Y646499D01*
X235997D01*
X241995Y649498D02*
X240995Y650498D01*
X238996D01*
X237996Y649498D01*
Y648499D01*
X238996Y647499D01*
X240995D01*
X241995Y646499D01*
Y645500D01*
X240995Y644500D01*
X238996D01*
X237996Y645500D01*
X244994Y649498D02*
Y648499D01*
X243994D01*
X245993D01*
X244994D01*
Y645500D01*
X245993Y644500D01*
X248993Y650498D02*
Y649498D01*
X250992Y647499D01*
X252991Y649498D01*
Y650498D01*
X250992Y647499D02*
Y644500D01*
X254991Y647499D02*
X258989D01*
X260989Y644500D02*
X262988D01*
X261988D01*
Y650498D01*
X260989Y649498D01*
D117*
X243623Y388769D02*
G03*
X243623Y388769I-492J0D01*
G01*
X243800Y549269D02*
G03*
X243800Y549269I-492J0D01*
G01*
D118*
X319280Y502319D02*
X331130D01*
X310638Y481827D02*
Y493677D01*
X319280Y473185D02*
X331130D01*
X339772Y481827D02*
Y493677D01*
X396346Y503205D02*
X408197D01*
X387705Y482713D02*
Y494563D01*
X396346Y474071D02*
X408197D01*
X416839Y482713D02*
Y494563D01*
X319083Y465213D02*
X330933D01*
X310441Y444721D02*
Y456571D01*
X319083Y436079D02*
X330933D01*
X339575Y444721D02*
Y456571D01*
X388173Y444894D02*
Y456744D01*
X396815Y436252D02*
X408665D01*
X417307Y444894D02*
Y456744D01*
X396815Y465386D02*
X408665D01*
X379694Y579527D02*
X391544D01*
X371052Y559035D02*
Y570885D01*
X379694Y550393D02*
X391544D01*
X400186Y559035D02*
Y570885D01*
X400013Y636767D02*
Y648617D01*
X379521Y657259D02*
X391371D01*
X370879Y636767D02*
Y648617D01*
X379521Y628125D02*
X391371D01*
X437119Y636570D02*
Y648420D01*
X416627Y657062D02*
X428477D01*
X407985Y636570D02*
Y648420D01*
X416627Y627928D02*
X428477D01*
X438005Y559503D02*
Y571353D01*
X417513Y579995D02*
X429363D01*
X408871Y559503D02*
Y571353D01*
X417513Y550861D02*
X429363D01*
X493700Y322500D02*
Y342500D01*
X488700D02*
X493700D01*
X488700Y322500D02*
X493700D01*
X488700D02*
Y342500D01*
X493700Y325833D02*
X507033D01*
X508700Y327500D01*
X507033Y329167D02*
X508700Y327500D01*
X493700Y329167D02*
X507033D01*
X493700Y335833D02*
X507033D01*
X508700Y337500D01*
X507033Y339167D02*
X508700Y337500D01*
X493700Y339167D02*
X507033D01*
X344487Y328936D02*
Y340787D01*
X353128Y320294D02*
X364979D01*
X373621Y328936D02*
Y340787D01*
X353128Y349428D02*
X364979D01*
X238310Y414675D02*
X239885D01*
X238310Y411919D02*
X239885D01*
X240475Y367010D02*
Y368585D01*
X237719Y367010D02*
Y368585D01*
X325459Y363419D02*
X326641D01*
X333859Y379519D02*
X335040D01*
X344381Y377959D02*
Y379140D01*
X335719Y385159D02*
Y386341D01*
X356219Y369160D02*
Y370341D01*
X352881Y369159D02*
Y370340D01*
X336219Y365659D02*
Y366841D01*
X347219Y383159D02*
Y384341D01*
X229942Y382470D02*
X242147D01*
X229942Y385619D02*
X242147D01*
X229942Y382470D02*
Y385619D01*
X242147Y382470D02*
Y385619D01*
X422264Y418923D02*
X442264D01*
X422264Y413923D02*
Y418923D01*
X442264Y413923D02*
Y418923D01*
X422264Y413923D02*
X442264D01*
X438930Y418923D02*
Y432257D01*
X437264Y433923D02*
X438930Y432257D01*
X435597D02*
X437264Y433923D01*
X435597Y418923D02*
Y432257D01*
X428930Y418923D02*
Y432257D01*
X427264Y433923D02*
X428930Y432257D01*
X425597D02*
X427264Y433923D01*
X425597Y418923D02*
Y432257D01*
X504658Y332100D02*
Y343950D01*
X513300Y323458D02*
X525150D01*
X533792Y332100D02*
Y343950D01*
X513300Y352592D02*
X525150D01*
X390375Y361733D02*
X402225D01*
X410867Y370375D02*
Y382225D01*
X390375Y390867D02*
X402225D01*
X381733Y370375D02*
Y382225D01*
X238487Y575175D02*
X240061D01*
X238487Y572419D02*
X240061D01*
X240652Y527510D02*
Y529085D01*
X237896Y527510D02*
Y529085D01*
X380602Y544317D02*
X392452D01*
X371960Y523825D02*
Y535675D01*
X380602Y515183D02*
X392452D01*
X401094Y523825D02*
Y535675D01*
X477587Y454336D02*
Y466187D01*
X486228Y445694D02*
X498079D01*
X506720Y454336D02*
Y466187D01*
X486228Y474828D02*
X498079D01*
X475587Y586036D02*
Y597887D01*
X484228Y577394D02*
X496079D01*
X504720Y586036D02*
Y597887D01*
X484228Y606528D02*
X496079D01*
X325636Y523919D02*
X326817D01*
X334036Y540019D02*
X335217D01*
X344557Y538459D02*
Y539641D01*
X335896Y545659D02*
Y546841D01*
X356396Y529660D02*
Y530841D01*
X353058Y529659D02*
Y530840D01*
X336396Y526159D02*
Y527341D01*
X347396Y543659D02*
Y544841D01*
X230119Y542970D02*
X242324D01*
X230119Y546119D02*
X242324D01*
X230119Y542970D02*
Y546119D01*
X242324Y542970D02*
Y546119D01*
X436777Y494498D02*
X456777D01*
Y499498D01*
X436777Y494498D02*
Y499498D01*
X456777D01*
X440110Y481164D02*
Y494498D01*
Y481164D02*
X441777Y479498D01*
X443443Y481164D01*
X443443Y481164D02*
Y494498D01*
X450110Y481164D02*
Y494498D01*
Y481164D02*
X451777Y479498D01*
X453443Y481164D01*
Y494498D01*
X532777Y545998D02*
Y565998D01*
X527777D02*
X532777D01*
X527777Y545998D02*
X532777D01*
X527777D02*
Y565998D01*
X532777Y549331D02*
X546110D01*
X547777Y550998D01*
X546110Y552664D02*
X547777Y550998D01*
X532777Y552664D02*
X546110D01*
X532777Y559331D02*
X546110D01*
X547777Y560998D01*
X546110Y562664D02*
X547777Y560998D01*
X532777Y562664D02*
X546110D01*
D119*
X323303Y374700D02*
X325600D01*
X303500D02*
Y376999D01*
Y394501D02*
Y396800D01*
X323303D02*
X325600D01*
Y374700D02*
Y376999D01*
X303500Y374700D02*
X305797D01*
X325600Y394501D02*
Y396800D01*
X303500D02*
X305797D01*
X323479Y535200D02*
X325777D01*
X303677D02*
Y537499D01*
Y555001D02*
Y557300D01*
X323479D02*
X325777D01*
Y535200D02*
Y537499D01*
X303677Y535200D02*
X305974D01*
X325777Y555001D02*
Y557300D01*
X303677D02*
X305974D01*
D120*
X456000Y649300D02*
X542400D01*
X452800Y633300D02*
X469200D01*
X490200D02*
X499400D01*
X524600D02*
X529400D01*
X456200Y649900D02*
X542400D01*
X456200Y649700D02*
X542400D01*
X456200Y649500D02*
X542400D01*
X456000Y649100D02*
X542400D01*
X456000Y648900D02*
X542400D01*
X525200Y646300D02*
X542400D01*
X524800Y646100D02*
X542200D01*
X524600Y645900D02*
X542000D01*
X524400Y645700D02*
X541800D01*
X524200Y645500D02*
X541600D01*
X524000Y645300D02*
X541200D01*
X523800Y645100D02*
X541000D01*
X523600Y644900D02*
X540800D01*
X523200Y644700D02*
X540600D01*
X523000Y644500D02*
X540400D01*
X522800Y644300D02*
X540200D01*
X522600Y644100D02*
X540000D01*
X522400Y643900D02*
X539600D01*
X522200Y643700D02*
X539400D01*
X522000Y643500D02*
X539200D01*
X521800Y643300D02*
X539000D01*
X521400Y643100D02*
X538800D01*
X521200Y642900D02*
X538600D01*
X521000Y642700D02*
X538400D01*
X520800Y642500D02*
X538200D01*
X497200Y640500D02*
X504400D01*
X497000Y640300D02*
X504200D01*
X496800Y640100D02*
X515400D01*
X496600Y639900D02*
X515400D01*
X496400Y639700D02*
X515200D01*
X496200Y639500D02*
X515200D01*
X496000Y639300D02*
X507800D01*
X495800Y639100D02*
X507600D01*
X495600Y638900D02*
X507200D01*
X495600Y638700D02*
X507000D01*
X495400Y638500D02*
X506600D01*
X495200Y638300D02*
X506400D01*
X495000Y638100D02*
X506000D01*
X494800Y637900D02*
X505800D01*
X494600Y637700D02*
X505600D01*
X494400Y637500D02*
X505200D01*
X494200Y637300D02*
X505000D01*
X494000Y637100D02*
X504600D01*
X493800Y636900D02*
X504400D01*
X493600Y636700D02*
X504000D01*
X493400Y636500D02*
X503800D01*
X493200Y636300D02*
X503600D01*
X493000Y636100D02*
X503200D01*
X492800Y635900D02*
X503000D01*
X492600Y635700D02*
X502600D01*
X492400Y635500D02*
X502400D01*
X464800Y635300D02*
X471200D01*
X492200D02*
X502200D01*
X525200D02*
X530200D01*
X463600Y635100D02*
X471000D01*
X492000D02*
X501800D01*
X525200D02*
X530000D01*
X452200Y634900D02*
X471000D01*
X491800D02*
X501600D01*
X525200D02*
X530000D01*
X452200Y634700D02*
X470800D01*
X491600D02*
X501400D01*
X525000D02*
X530000D01*
X452400Y634500D02*
X470600D01*
X491400D02*
X501000D01*
X525000D02*
X529800D01*
X452400Y634300D02*
X470400D01*
X491200D02*
X500800D01*
X525000D02*
X529800D01*
X452400Y634100D02*
X470200D01*
X491000D02*
X500400D01*
X524800D02*
X529800D01*
X452600Y633900D02*
X470000D01*
X490800D02*
X500200D01*
X524800D02*
X529600D01*
X452600Y633700D02*
X469800D01*
X490600D02*
X499800D01*
X524800D02*
X529600D01*
X452800Y633500D02*
X469600D01*
X490400D02*
X499600D01*
X524600D02*
X529400D01*
X453000Y633100D02*
X469000D01*
X490000D02*
X499000D01*
X524600D02*
X529400D01*
X453200Y632900D02*
X468600D01*
X489800D02*
X498800D01*
X524400D02*
X529200D01*
X453400Y632700D02*
X468400D01*
X489600D02*
X498600D01*
X524400D02*
X529200D01*
X453600Y632500D02*
X468000D01*
X489400D02*
X498200D01*
X524200D02*
X529200D01*
X454000Y632300D02*
X467600D01*
X489200D02*
X498000D01*
X454400Y632100D02*
X467200D01*
X489000D02*
X497800D01*
X454800Y631900D02*
X466600D01*
X488800D02*
X497400D01*
X455200Y631700D02*
X466000D01*
X488600D02*
X497200D01*
X456000Y631500D02*
X465200D01*
X450600Y628900D02*
X539600D01*
X450400Y628700D02*
X539600D01*
X450400Y628500D02*
X539600D01*
X450400Y628300D02*
X539600D01*
X450400Y628100D02*
X539600D01*
X450400Y627900D02*
X539600D01*
X450400Y627700D02*
X539600D01*
X469000Y641300D02*
X473800D01*
X481800D02*
X486800D01*
X482400Y625300D02*
X488400D01*
X474600Y617300D02*
X477400D01*
X514000Y657300D02*
X518800D01*
X498000Y641300D02*
X505200D01*
X505800D02*
X515600D01*
X509000Y633300D02*
X513800D01*
X453200Y639500D02*
X458000D01*
X453200Y639300D02*
X458000D01*
X453200Y639100D02*
X458000D01*
X453000Y638900D02*
X457800D01*
X453000Y638700D02*
X457800D01*
X452800Y638500D02*
X457800D01*
X452800Y638300D02*
X457600D01*
X452800Y638100D02*
X457600D01*
X452600Y637900D02*
X457400D01*
X452600Y637700D02*
X457400D01*
X452600Y637500D02*
X457400D01*
X452400Y637300D02*
X457400D01*
X452400Y637100D02*
X457200D01*
X452400Y636900D02*
X457200D01*
X452400Y636700D02*
X457200D01*
X452200Y636500D02*
X457200D01*
X452200Y636300D02*
X457200D01*
X452200Y636100D02*
X457400D01*
X452200Y635900D02*
X457400D01*
X452200Y635700D02*
X457600D01*
X452200Y635500D02*
X458000D01*
X452200Y635300D02*
X458600D01*
X452200Y635100D02*
X460200D01*
X456800Y631300D02*
X464200D01*
X458600Y631100D02*
X462800D01*
X479600Y646300D02*
X496800D01*
X479400Y646100D02*
X496600D01*
X479200Y645900D02*
X496400D01*
X478800Y645700D02*
X496200D01*
X478600Y645500D02*
X496000D01*
X478400Y645300D02*
X495800D01*
X478200Y645100D02*
X495600D01*
X478000Y644900D02*
X495200D01*
X477800Y644700D02*
X495000D01*
X477600Y644500D02*
X494800D01*
X477200Y644300D02*
X494600D01*
X477000Y644100D02*
X494400D01*
X476800Y643900D02*
X494200D01*
X476600Y643700D02*
X494000D01*
X476400Y643500D02*
X493600D01*
X476200Y643300D02*
X493400D01*
X476000Y643100D02*
X493200D01*
X475800Y642900D02*
X493000D01*
X475400Y642700D02*
X492800D01*
X475200Y642500D02*
X492600D01*
X469200Y642300D02*
X474200D01*
X482200D02*
X487000D01*
X469200Y642100D02*
X474000D01*
X482200D02*
X487000D01*
X469200Y641900D02*
X474000D01*
X482000D02*
X487000D01*
X469000Y641700D02*
X474000D01*
X482000D02*
X486800D01*
X469000Y641500D02*
X473800D01*
X482000D02*
X486800D01*
X468800Y641100D02*
X473800D01*
X481800D02*
X486600D01*
X468800Y640900D02*
X473600D01*
X481800D02*
X486600D01*
X468800Y640700D02*
X473600D01*
X481600D02*
X486400D01*
X468600Y640500D02*
X473600D01*
X481600D02*
X486400D01*
X468600Y640300D02*
X473400D01*
X481600D02*
X486400D01*
X468600Y640100D02*
X473400D01*
X481400D02*
X486200D01*
X468400Y639900D02*
X473200D01*
X481400D02*
X486200D01*
X468400Y639700D02*
X473200D01*
X481200D02*
X486200D01*
X468200Y639500D02*
X473200D01*
X481200D02*
X486000D01*
X468200Y639300D02*
X473000D01*
X481200D02*
X486000D01*
X468200Y639100D02*
X473000D01*
X481000D02*
X486000D01*
X468000Y638900D02*
X473000D01*
X481000D02*
X485800D01*
X468000Y638700D02*
X472800D01*
X481000D02*
X485800D01*
X468000Y638500D02*
X472800D01*
X480800D02*
X485800D01*
X467800Y638300D02*
X472800D01*
X480800D02*
X485600D01*
X467800Y638100D02*
X472600D01*
X480800D02*
X485600D01*
X467800Y637900D02*
X472600D01*
X480600D02*
X485600D01*
X467600Y637700D02*
X472600D01*
X480600D02*
X485400D01*
X467600Y637500D02*
X472400D01*
X480600D02*
X485400D01*
X467400Y637300D02*
X472400D01*
X480400D02*
X485200D01*
X467400Y637100D02*
X472200D01*
X480400D02*
X485200D01*
X467200Y636900D02*
X472200D01*
X480400D02*
X485200D01*
X467200Y636700D02*
X472000D01*
X467000Y636500D02*
X472000D01*
X466800Y636300D02*
X471800D01*
X466600Y636100D02*
X471800D01*
X466400Y635900D02*
X471600D01*
X466000Y635700D02*
X471600D01*
X465600Y635500D02*
X471400D01*
X488400Y631500D02*
X496800D01*
X488200Y631300D02*
X496600D01*
X488000Y631100D02*
X496400D01*
X487800Y630900D02*
X496000D01*
X487600Y630700D02*
X495800D01*
X487400Y630500D02*
X495400D01*
X487200Y630300D02*
X495200D01*
X487000Y630100D02*
X495000D01*
X486800Y629900D02*
X494600D01*
X486600Y629700D02*
X494400D01*
X486400Y629500D02*
X494200D01*
X486200Y629300D02*
X493800D01*
X486000Y629100D02*
X493600D01*
X484600Y627500D02*
X491400D01*
X484400Y627300D02*
X491200D01*
X484200Y627100D02*
X490800D01*
X484000Y626900D02*
X490600D01*
X483800Y626700D02*
X490400D01*
X483600Y626500D02*
X490000D01*
X483400Y626300D02*
X489800D01*
X483200Y626100D02*
X489600D01*
X483000Y625900D02*
X489200D01*
X482800Y625700D02*
X489000D01*
X482600Y625500D02*
X488800D01*
X482200Y625100D02*
X488200D01*
X482000Y624900D02*
X488000D01*
X481800Y624700D02*
X487600D01*
X481600Y624500D02*
X487400D01*
X481400Y624300D02*
X487000D01*
X481200Y624100D02*
X486800D01*
X481000Y623900D02*
X486600D01*
X480800Y623700D02*
X486200D01*
X480600Y623500D02*
X486000D01*
X480400Y623300D02*
X485800D01*
X480200Y623100D02*
X485400D01*
X480000Y622900D02*
X485200D01*
X477200Y619900D02*
X481000D01*
X477000Y619700D02*
X480800D01*
X476800Y619500D02*
X480600D01*
X476600Y619300D02*
X480200D01*
X476400Y619100D02*
X480000D01*
X476200Y618900D02*
X479800D01*
X476000Y618700D02*
X479400D01*
X475800Y618500D02*
X479200D01*
X475600Y618300D02*
X478800D01*
X475400Y618100D02*
X478600D01*
X475200Y617900D02*
X478400D01*
X475000Y617700D02*
X478000D01*
X474800Y617500D02*
X477800D01*
X474400Y617100D02*
X477200D01*
X469200Y611700D02*
X469600D01*
X517200Y660500D02*
X519400D01*
X517000Y660300D02*
X519400D01*
X516800Y660100D02*
X519400D01*
X516600Y659900D02*
X519400D01*
X516400Y659700D02*
X519400D01*
X516200Y659500D02*
X519200D01*
X516000Y659300D02*
X519200D01*
X515800Y659100D02*
X519200D01*
X515600Y658900D02*
X519200D01*
X515400Y658700D02*
X519200D01*
X515200Y658500D02*
X519000D01*
X515000Y658300D02*
X519000D01*
X514800Y658100D02*
X519000D01*
X514600Y657900D02*
X519000D01*
X514400Y657700D02*
X519000D01*
X514200Y657500D02*
X518800D01*
X513800Y657100D02*
X518800D01*
X513600Y656900D02*
X518800D01*
X513400Y656700D02*
X518800D01*
X513200Y656500D02*
X518600D01*
X513000Y656300D02*
X518600D01*
X512800Y656100D02*
X518600D01*
X512600Y655900D02*
X518600D01*
X512400Y655700D02*
X518600D01*
X512200Y655500D02*
X518600D01*
X512000Y655300D02*
X518400D01*
X511800Y655100D02*
X518400D01*
X511600Y654900D02*
X518400D01*
X511400Y654700D02*
X518400D01*
X511200Y654500D02*
X518400D01*
X511000Y654300D02*
X518200D01*
X510800Y654100D02*
X518200D01*
X510600Y653900D02*
X518200D01*
X510400Y653700D02*
X518200D01*
X510200Y653500D02*
X518200D01*
X510000Y653300D02*
X518000D01*
X509800Y653100D02*
X518000D01*
X509600Y652900D02*
X518000D01*
X509400Y652700D02*
X518000D01*
X509200Y652500D02*
X518000D01*
X509000Y652300D02*
X517800D01*
X508800Y652100D02*
X517800D01*
X508600Y651900D02*
X517800D01*
X508400Y651700D02*
X517800D01*
X508200Y651500D02*
X517800D01*
X508000Y651300D02*
X517600D01*
X507800Y651100D02*
X517600D01*
X507600Y650900D02*
X517600D01*
X507400Y650700D02*
X517600D01*
X507200Y650500D02*
X517600D01*
X507000Y650300D02*
X517400D01*
X507000Y650100D02*
X517400D01*
X505600Y648700D02*
X517200D01*
X505200Y648500D02*
X517200D01*
X505000Y648300D02*
X517000D01*
X504800Y648100D02*
X517000D01*
X504600Y647900D02*
X517000D01*
X504400Y647700D02*
X517000D01*
X504200Y647500D02*
X517000D01*
X504000Y647300D02*
X516800D01*
X503800Y647100D02*
X516800D01*
X503600Y646900D02*
X516800D01*
X503400Y646700D02*
X516800D01*
X503200Y646500D02*
X510600D01*
X503000Y646300D02*
X510400D01*
X502800Y646100D02*
X510200D01*
X502600Y645900D02*
X510000D01*
X502400Y645700D02*
X509800D01*
X502200Y645500D02*
X509600D01*
X502000Y645300D02*
X509400D01*
X501800Y645100D02*
X509200D01*
X501200Y644500D02*
X508600D01*
X501000Y644300D02*
X508400D01*
X500800Y644100D02*
X508200D01*
X500600Y643900D02*
X508000D01*
X500400Y643700D02*
X507800D01*
X500200Y643500D02*
X507600D01*
X500000Y643300D02*
X507400D01*
X508800D02*
X509400D01*
X499800Y643100D02*
X507200D01*
X508400D02*
X509400D01*
X499600Y642900D02*
X507000D01*
X508200D02*
X509400D01*
X499400Y642700D02*
X506800D01*
X507800D02*
X509400D01*
X499200Y642500D02*
X506600D01*
X507600D02*
X509600D01*
X499000Y642300D02*
X506400D01*
X507200D02*
X509600D01*
X498800Y642100D02*
X506200D01*
X507000D02*
X509600D01*
X498600Y641900D02*
X506000D01*
X506800D02*
X509600D01*
X498400Y641700D02*
X505600D01*
X506400D02*
X515800D01*
X498200Y641500D02*
X505400D01*
X506200D02*
X515600D01*
X497800Y641100D02*
X505000D01*
X505600D02*
X515600D01*
X497600Y640900D02*
X504800D01*
X505200D02*
X515600D01*
X497400Y640700D02*
X504600D01*
X505000D02*
X515400D01*
X504600Y640500D02*
X515400D01*
X504400Y640300D02*
X515400D01*
X508000Y639300D02*
X515200D01*
X508000Y639100D02*
X515200D01*
X508000Y638900D02*
X515000D01*
X508000Y638700D02*
X515000D01*
X508200Y638500D02*
X515000D01*
X508200Y638300D02*
X515000D01*
X508200Y638100D02*
X515000D01*
X508200Y637900D02*
X514800D01*
X508200Y637700D02*
X514800D01*
X508200Y637500D02*
X514800D01*
X508400Y637300D02*
X514800D01*
X508400Y637100D02*
X514600D01*
X508400Y636900D02*
X514600D01*
X508400Y636700D02*
X514600D01*
X508400Y636500D02*
X514600D01*
X508600Y636300D02*
X514600D01*
X508600Y636100D02*
X514400D01*
X508600Y635900D02*
X514400D01*
X508600Y635700D02*
X514400D01*
X508600Y635500D02*
X514400D01*
X508600Y635300D02*
X514200D01*
X508800Y635100D02*
X514200D01*
X508800Y634900D02*
X514200D01*
X508800Y634700D02*
X514200D01*
X508800Y634500D02*
X514000D01*
X508800Y634300D02*
X514000D01*
X509000Y634100D02*
X514000D01*
X509000Y633900D02*
X514000D01*
X509000Y633700D02*
X513800D01*
X509000Y633500D02*
X513800D01*
X509200Y633100D02*
X513800D01*
X509200Y632900D02*
X513600D01*
X509200Y632700D02*
X513600D01*
X509200Y632500D02*
X513600D01*
X509200Y632300D02*
X513600D01*
X524200D02*
X529000D01*
X509200Y632100D02*
X513400D01*
X524200D02*
X529000D01*
X524000Y631900D02*
X529000D01*
X524000Y631700D02*
X528800D01*
X524000Y631500D02*
X528800D01*
X523800Y631300D02*
X528800D01*
X453800Y641300D02*
X458800D01*
X479000Y633300D02*
X483800D01*
X510600Y625300D02*
X511600D01*
X527400Y641300D02*
X532200D01*
X455600Y646300D02*
X460400D01*
X455600Y646100D02*
X460400D01*
X455600Y645900D02*
X460400D01*
X455400Y645700D02*
X460200D01*
X455400Y645500D02*
X460200D01*
X455400Y645300D02*
X460200D01*
X455200Y645100D02*
X460000D01*
X455200Y644900D02*
X460000D01*
X455000Y644700D02*
X460000D01*
X455000Y644500D02*
X459800D01*
X455000Y644300D02*
X459800D01*
X454800Y644100D02*
X459800D01*
X454800Y643900D02*
X459600D01*
X454800Y643700D02*
X459600D01*
X454600Y643500D02*
X459400D01*
X454600Y643300D02*
X459400D01*
X454600Y643100D02*
X459400D01*
X454400Y642900D02*
X459200D01*
X454400Y642700D02*
X459200D01*
X454400Y642500D02*
X459200D01*
X454200Y642300D02*
X459000D01*
X454200Y642100D02*
X459000D01*
X454200Y641900D02*
X459000D01*
X454000Y641700D02*
X458800D01*
X454000Y641500D02*
X458800D01*
X453800Y641100D02*
X458600D01*
X453800Y640900D02*
X458600D01*
X453600Y640700D02*
X458400D01*
X453600Y640500D02*
X458400D01*
X453600Y640300D02*
X458400D01*
X453400Y640100D02*
X458200D01*
X453400Y639900D02*
X458200D01*
X453400Y639700D02*
X458200D01*
X470600Y646300D02*
X475600D01*
X470600Y646100D02*
X475400D01*
X470600Y645900D02*
X475400D01*
X470400Y645700D02*
X475400D01*
X470400Y645500D02*
X475200D01*
X470400Y645300D02*
X475200D01*
X470200Y645100D02*
X475200D01*
X470200Y644900D02*
X475000D01*
X470200Y644700D02*
X475000D01*
X470000Y644500D02*
X475000D01*
X470000Y644300D02*
X474800D01*
X470000Y644100D02*
X474800D01*
X469800Y643900D02*
X474800D01*
X469800Y643700D02*
X474600D01*
X469800Y643500D02*
X474600D01*
X469600Y643300D02*
X474400D01*
X469600Y643100D02*
X474400D01*
X469400Y642900D02*
X474400D01*
X469400Y642700D02*
X474200D01*
X469400Y642500D02*
X474200D01*
Y616900D02*
X477000D01*
X474000Y616700D02*
X476600D01*
X473800Y616500D02*
X476400D01*
X473600Y616300D02*
X476000D01*
X473400Y616100D02*
X475800D01*
X473200Y615900D02*
X475600D01*
X473000Y615700D02*
X475200D01*
X472800Y615500D02*
X475000D01*
X472600Y615300D02*
X474600D01*
X472400Y615100D02*
X474400D01*
X472200Y614900D02*
X474200D01*
X472000Y614700D02*
X473800D01*
X471800Y614500D02*
X473600D01*
X471600Y614300D02*
X473200D01*
X471400Y614100D02*
X473000D01*
X471200Y613900D02*
X472800D01*
X471000Y613700D02*
X472400D01*
X470800Y613500D02*
X472200D01*
X470600Y613300D02*
X471800D01*
X470400Y613100D02*
X471600D01*
X470200Y612900D02*
X471400D01*
X470000Y612700D02*
X471000D01*
X469800Y612500D02*
X470800D01*
X469600Y612300D02*
X470400D01*
X469400Y612100D02*
X470200D01*
X469400Y611900D02*
X469800D01*
X480200Y636700D02*
X485000D01*
X480200Y636500D02*
X485000D01*
X480000Y636300D02*
X485000D01*
X480000Y636100D02*
X484800D01*
X480000Y635900D02*
X484800D01*
X479800Y635700D02*
X484800D01*
X479800Y635500D02*
X484600D01*
X479800Y635300D02*
X484600D01*
X479600Y635100D02*
X484600D01*
X479600Y634900D02*
X484400D01*
X479600Y634700D02*
X484400D01*
X479400Y634500D02*
X484200D01*
X479400Y634300D02*
X484200D01*
X479400Y634100D02*
X484200D01*
X479200Y633900D02*
X484000D01*
X479200Y633700D02*
X484000D01*
X479200Y633500D02*
X484000D01*
X479000Y633100D02*
X483800D01*
X478800Y632900D02*
X483800D01*
X478800Y632700D02*
X483600D01*
X478800Y632500D02*
X483600D01*
X478600Y632300D02*
X483600D01*
X478600Y632100D02*
X483400D01*
X478600Y631900D02*
X483400D01*
X478400Y631700D02*
X483400D01*
X478400Y631500D02*
X483200D01*
X478400Y631300D02*
X483200D01*
X479800Y622700D02*
X485000D01*
X479600Y622500D02*
X484600D01*
X479400Y622300D02*
X484400D01*
X479200Y622100D02*
X484000D01*
X479000Y621900D02*
X483800D01*
X479000Y621700D02*
X483600D01*
X478800Y621500D02*
X483200D01*
X478600Y621300D02*
X483000D01*
X478400Y621100D02*
X482800D01*
X478200Y620900D02*
X482400D01*
X478000Y620700D02*
X482200D01*
X477800Y620500D02*
X482000D01*
X477600Y620300D02*
X481600D01*
X477400Y620100D02*
X481400D01*
X501600Y644900D02*
X509000D01*
X501400Y644700D02*
X508800D01*
X510800Y646500D02*
X516800D01*
X510800Y646300D02*
X516600D01*
X510800Y646100D02*
X516600D01*
X510600Y645900D02*
X516600D01*
X510600Y645700D02*
X516600D01*
X510600Y645500D02*
X516600D01*
X510600Y645300D02*
X516400D01*
X510600Y645100D02*
X516400D01*
X510400Y644900D02*
X516400D01*
X510400Y644700D02*
X516400D01*
X510400Y644500D02*
X516400D01*
X510400Y644300D02*
X516200D01*
X510400Y644100D02*
X516200D01*
X510200Y643900D02*
X516200D01*
X510200Y643700D02*
X516200D01*
X510200Y643500D02*
X516200D01*
X510200Y643300D02*
X516000D01*
X510200Y643100D02*
X516000D01*
X510000Y642900D02*
X516000D01*
X510000Y642700D02*
X516000D01*
X510000Y642500D02*
X515800D01*
X510000Y642300D02*
X515800D01*
X510000Y642100D02*
X515800D01*
X509800Y641900D02*
X515800D01*
X509400Y631900D02*
X513400D01*
X509400Y631700D02*
X513400D01*
X509400Y631500D02*
X513400D01*
X509400Y631300D02*
X513200D01*
X509400Y631100D02*
X513200D01*
X509600Y630900D02*
X513200D01*
X509600Y630700D02*
X513200D01*
X509600Y630500D02*
X513000D01*
X509600Y630300D02*
X513000D01*
X509600Y630100D02*
X513000D01*
X509800Y629900D02*
X513000D01*
X509800Y629700D02*
X512800D01*
X509800Y629500D02*
X512800D01*
X509800Y629300D02*
X512800D01*
X509800Y629100D02*
X512600D01*
X510200Y627500D02*
X512200D01*
X510200Y627300D02*
X512200D01*
X510200Y627100D02*
X512200D01*
X510400Y626900D02*
X512200D01*
X510400Y626700D02*
X512000D01*
X510400Y626500D02*
X512000D01*
X510400Y626300D02*
X512000D01*
X510600Y626100D02*
X512000D01*
X510600Y625900D02*
X511800D01*
X510600Y625700D02*
X511800D01*
X510600Y625500D02*
X511800D01*
X510800Y625100D02*
X511600D01*
X510800Y624900D02*
X511600D01*
X510800Y624700D02*
X511600D01*
X510800Y624500D02*
X511400D01*
X511000Y624300D02*
X511400D01*
X511000Y624100D02*
X511400D01*
X519400Y662700D02*
X519800D01*
X519200Y662500D02*
X519800D01*
X519000Y662300D02*
X519800D01*
X518800Y662100D02*
X519800D01*
X518600Y661900D02*
X519800D01*
X518400Y661700D02*
X519600D01*
X518200Y661500D02*
X519600D01*
X518000Y661300D02*
X519600D01*
X517800Y661100D02*
X519600D01*
X517600Y660900D02*
X519600D01*
X517400Y660700D02*
X519400D01*
X527800Y642300D02*
X532600D01*
X527600Y642100D02*
X532600D01*
X527600Y641900D02*
X532400D01*
X527600Y641700D02*
X532400D01*
X527400Y641500D02*
X532400D01*
X527400Y641100D02*
X532200D01*
X527200Y640900D02*
X532200D01*
X527200Y640700D02*
X532000D01*
X527200Y640500D02*
X532000D01*
X527000Y640300D02*
X532000D01*
X527000Y640100D02*
X531800D01*
X527000Y639900D02*
X531800D01*
X526800Y639700D02*
X531600D01*
X526800Y639500D02*
X531600D01*
X526600Y639300D02*
X531600D01*
X526600Y639100D02*
X531400D01*
X526600Y638900D02*
X531400D01*
X526400Y638700D02*
X531400D01*
X526400Y638500D02*
X531200D01*
X526400Y638300D02*
X531200D01*
X526200Y638100D02*
X531200D01*
X526200Y637900D02*
X531000D01*
X526200Y637700D02*
X531000D01*
X526000Y637500D02*
X531000D01*
X526000Y637300D02*
X530800D01*
X526000Y637100D02*
X530800D01*
X525800Y636900D02*
X530600D01*
X525800Y636700D02*
X530600D01*
X525800Y636500D02*
X530600D01*
X525600Y636300D02*
X530400D01*
X525600Y636100D02*
X530400D01*
X525400Y635900D02*
X530400D01*
X525400Y635700D02*
X530200D01*
X525400Y635500D02*
X530200D01*
D121*
X385333Y464016D02*
X385250Y464100D01*
X385083D01*
X385000Y464016D01*
Y463683D01*
X385083Y463600D01*
X385250D01*
X385333Y463683D01*
X385833Y463600D02*
X385500D01*
X385833Y463933D01*
Y464016D01*
X385750Y464100D01*
X385583D01*
X385500Y464016D01*
X386000Y463517D02*
X386333D01*
X386500Y463600D02*
X386666D01*
X386583D01*
Y464100D01*
X386500Y464016D01*
X386916Y463517D02*
X387249D01*
X387416Y463600D02*
X387582D01*
X387499D01*
Y464100D01*
X387416Y464016D01*
X368953Y464949D02*
Y464532D01*
X369036Y464449D01*
X369203D01*
X369286Y464532D01*
Y464949D01*
X369453Y464449D02*
Y464949D01*
X369703D01*
X369786Y464865D01*
Y464699D01*
X369703Y464615D01*
X369453D01*
X370286Y464865D02*
X370202Y464949D01*
X370036D01*
X369952Y464865D01*
Y464532D01*
X370036Y464449D01*
X370202D01*
X370286Y464532D01*
Y464699D01*
X370119D01*
X370785Y464449D02*
X370452D01*
X370785Y464782D01*
Y464865D01*
X370702Y464949D01*
X370536D01*
X370452Y464865D01*
X371285Y464449D02*
X370952D01*
X371285Y464782D01*
Y464865D01*
X371202Y464949D01*
X371035D01*
X370952Y464865D01*
X371452Y464449D02*
X371619D01*
X371535D01*
Y464949D01*
X371452Y464865D01*
X372118Y464449D02*
Y464949D01*
X371868Y464699D01*
X372202D01*
X372368Y464949D02*
X372702D01*
X372535D01*
Y464449D01*
X372868Y464949D02*
Y464449D01*
X373118D01*
X373201Y464532D01*
Y464615D01*
X373118Y464699D01*
X372868D01*
X373118D01*
X373201Y464782D01*
Y464865D01*
X373118Y464949D01*
X372868D01*
X373368Y464365D02*
X373701D01*
X373868Y464449D02*
X374035D01*
X373951D01*
Y464949D01*
X373868Y464865D01*
X363333Y491023D02*
X363250Y491106D01*
X363083D01*
X363000Y491023D01*
Y490940D01*
X363083Y490856D01*
X363250D01*
X363333Y490773D01*
Y490690D01*
X363250Y490606D01*
X363083D01*
X363000Y490690D01*
X363500Y491106D02*
Y490606D01*
Y490773D01*
X363833Y491106D01*
X363583Y490856D01*
X363833Y490606D01*
X364000Y491106D02*
Y491023D01*
X364166Y490856D01*
X364333Y491023D01*
Y491106D01*
X364166Y490856D02*
Y490606D01*
X364499D02*
X364666D01*
X364583D01*
Y491106D01*
X364499Y491023D01*
X364916D02*
X364999Y491106D01*
X365166D01*
X365249Y491023D01*
Y490940D01*
X365166Y490856D01*
X365083D01*
X365166D01*
X365249Y490773D01*
Y490690D01*
X365166Y490606D01*
X364999D01*
X364916Y490690D01*
X365749Y490606D02*
X365416D01*
X365749Y490940D01*
Y491023D01*
X365666Y491106D01*
X365499D01*
X365416Y491023D01*
X365916Y490690D02*
X365999Y490606D01*
X366166D01*
X366249Y490690D01*
Y491023D01*
X366166Y491106D01*
X365999D01*
X365916Y491023D01*
Y490940D01*
X365999Y490856D01*
X366249D01*
X366416Y490690D02*
X366499Y490606D01*
X366666D01*
X366749Y490690D01*
Y491023D01*
X366666Y491106D01*
X366499D01*
X366416Y491023D01*
Y490940D01*
X366499Y490856D01*
X366749D01*
X366915D02*
X367249D01*
X367415Y491023D02*
X367499Y491106D01*
X367665D01*
X367748Y491023D01*
Y490940D01*
X367665Y490856D01*
X367582D01*
X367665D01*
X367748Y490773D01*
Y490690D01*
X367665Y490606D01*
X367499D01*
X367415Y490690D01*
X368248Y490606D02*
X367915D01*
X368248Y490940D01*
Y491023D01*
X368165Y491106D01*
X367998D01*
X367915Y491023D01*
X368415Y491106D02*
X368582D01*
X368498D01*
Y490606D01*
X368415D01*
X368582D01*
X368831Y491106D02*
Y490606D01*
X369165D01*
X369665Y491106D02*
X369331D01*
Y490856D01*
X369498D01*
X369331D01*
Y490606D01*
X369831Y490523D02*
X370164D01*
X370331Y490606D02*
X370498D01*
X370414D01*
Y491106D01*
X370331Y491023D01*
X344733Y496816D02*
X344650Y496900D01*
X344483D01*
X344400Y496816D01*
Y496483D01*
X344483Y496400D01*
X344650D01*
X344733Y496483D01*
X344900Y496900D02*
X345233D01*
Y496816D01*
X344900Y496483D01*
Y496400D01*
X345400Y496317D02*
X345733D01*
X345900Y496400D02*
X346066D01*
X345983D01*
Y496900D01*
X345900Y496816D01*
X346316Y496317D02*
X346649D01*
X346816Y496400D02*
X346983D01*
X346899D01*
Y496900D01*
X346816Y496816D01*
X349633Y474117D02*
X349550Y474200D01*
X349383D01*
X349300Y474117D01*
Y473783D01*
X349383Y473700D01*
X349550D01*
X349633Y473783D01*
X350133Y474200D02*
X349966Y474117D01*
X349800Y473950D01*
Y473783D01*
X349883Y473700D01*
X350050D01*
X350133Y473783D01*
Y473867D01*
X350050Y473950D01*
X349800D01*
X350300Y473617D02*
X350633D01*
X350799Y473700D02*
X350966D01*
X350883D01*
Y474200D01*
X350799Y474117D01*
X351216Y473617D02*
X351549D01*
X351716Y473700D02*
X351883D01*
X351799D01*
Y474200D01*
X351716Y474117D01*
X357633Y466716D02*
X357550Y466800D01*
X357383D01*
X357300Y466716D01*
Y466383D01*
X357383Y466300D01*
X357550D01*
X357633Y466383D01*
X358133Y466800D02*
X357800D01*
Y466550D01*
X357966Y466633D01*
X358050D01*
X358133Y466550D01*
Y466383D01*
X358050Y466300D01*
X357883D01*
X357800Y466383D01*
X358300Y466217D02*
X358633D01*
X358800Y466300D02*
X358966D01*
X358883D01*
Y466800D01*
X358800Y466716D01*
X359216Y466217D02*
X359549D01*
X359716Y466300D02*
X359882D01*
X359799D01*
Y466800D01*
X359716Y466716D01*
X379833Y477417D02*
X379750Y477500D01*
X379583D01*
X379500Y477417D01*
Y477083D01*
X379583Y477000D01*
X379750D01*
X379833Y477083D01*
X380250Y477000D02*
Y477500D01*
X380000Y477250D01*
X380333D01*
X380500Y476917D02*
X380833D01*
X380999Y477000D02*
X381166D01*
X381083D01*
Y477500D01*
X380999Y477417D01*
X381416Y476917D02*
X381749D01*
X381916Y477000D02*
X382083D01*
X381999D01*
Y477500D01*
X381916Y477417D01*
X385233Y469717D02*
X385150Y469800D01*
X384983D01*
X384900Y469717D01*
Y469383D01*
X384983Y469300D01*
X385150D01*
X385233Y469383D01*
X385400Y469717D02*
X385483Y469800D01*
X385650D01*
X385733Y469717D01*
Y469633D01*
X385650Y469550D01*
X385566D01*
X385650D01*
X385733Y469467D01*
Y469383D01*
X385650Y469300D01*
X385483D01*
X385400Y469383D01*
X385900Y469217D02*
X386233D01*
X386400Y469300D02*
X386566D01*
X386483D01*
Y469800D01*
X386400Y469717D01*
X386816Y469217D02*
X387149D01*
X387316Y469300D02*
X387483D01*
X387399D01*
Y469800D01*
X387316Y469717D01*
X385333Y457817D02*
X385250Y457900D01*
X385083D01*
X385000Y457817D01*
Y457483D01*
X385083Y457400D01*
X385250D01*
X385333Y457483D01*
X385500Y457400D02*
X385666D01*
X385583D01*
Y457900D01*
X385500Y457817D01*
X385916Y457317D02*
X386250D01*
X386416Y457400D02*
X386583D01*
X386500D01*
Y457900D01*
X386416Y457817D01*
X386833Y457317D02*
X387166D01*
X387333Y457400D02*
X387499D01*
X387416D01*
Y457900D01*
X387333Y457817D01*
X353900Y459100D02*
Y459600D01*
X354150D01*
X354233Y459516D01*
Y459350D01*
X354150Y459267D01*
X353900D01*
X354067D02*
X354233Y459100D01*
X354650D02*
X354483D01*
X354400Y459183D01*
Y459350D01*
X354483Y459433D01*
X354650D01*
X354733Y459350D01*
Y459267D01*
X354400D01*
X354900Y459100D02*
X355150D01*
X355233Y459183D01*
X355150Y459267D01*
X354983D01*
X354900Y459350D01*
X354983Y459433D01*
X355233D01*
X355399Y459100D02*
X355566D01*
X355483D01*
Y459600D01*
X355399Y459516D01*
X355816Y459017D02*
X356149D01*
X356316Y459100D02*
X356483D01*
X356399D01*
Y459600D01*
X356316Y459516D01*
X364900Y444700D02*
Y445200D01*
X365150D01*
X365233Y445117D01*
Y444950D01*
X365150Y444867D01*
X364900D01*
X365067D02*
X365233Y444700D01*
X365650D02*
X365483D01*
X365400Y444783D01*
Y444950D01*
X365483Y445033D01*
X365650D01*
X365733Y444950D01*
Y444867D01*
X365400D01*
X365900Y444700D02*
X366150D01*
X366233Y444783D01*
X366150Y444867D01*
X365983D01*
X365900Y444950D01*
X365983Y445033D01*
X366233D01*
X366733Y444700D02*
X366400D01*
X366733Y445033D01*
Y445117D01*
X366649Y445200D01*
X366483D01*
X366400Y445117D01*
X366899Y444617D02*
X367233D01*
X367399Y444700D02*
X367566D01*
X367482D01*
Y445200D01*
X367399Y445117D01*
X377316Y609611D02*
Y610111D01*
X377566D01*
X377649Y610028D01*
Y609861D01*
X377566Y609778D01*
X377316D01*
X377482D02*
X377649Y609611D01*
X378065D02*
X377899D01*
X377816Y609694D01*
Y609861D01*
X377899Y609944D01*
X378065D01*
X378149Y609861D01*
Y609778D01*
X377816D01*
X378315Y609611D02*
X378565D01*
X378649Y609694D01*
X378565Y609778D01*
X378399D01*
X378315Y609861D01*
X378399Y609944D01*
X378649D01*
X379149Y609611D02*
X378815D01*
X379149Y609944D01*
Y610028D01*
X379065Y610111D01*
X378899D01*
X378815Y610028D01*
X391816Y620711D02*
Y621211D01*
X392066D01*
X392149Y621128D01*
Y620961D01*
X392066Y620878D01*
X391816D01*
X391982D02*
X392149Y620711D01*
X392565D02*
X392399D01*
X392316Y620794D01*
Y620961D01*
X392399Y621044D01*
X392565D01*
X392649Y620961D01*
Y620878D01*
X392316D01*
X392815Y620711D02*
X393065D01*
X393149Y620794D01*
X393065Y620878D01*
X392899D01*
X392815Y620961D01*
X392899Y621044D01*
X393149D01*
X393315Y620711D02*
X393482D01*
X393399D01*
Y621211D01*
X393315Y621128D01*
X390849Y590128D02*
X390766Y590211D01*
X390599D01*
X390516Y590128D01*
Y589794D01*
X390599Y589711D01*
X390766D01*
X390849Y589794D01*
X391016Y589711D02*
X391182D01*
X391099D01*
Y590211D01*
X391016Y590128D01*
X391432Y589628D02*
X391765D01*
X391932Y589711D02*
X392099D01*
X392015D01*
Y590211D01*
X391932Y590128D01*
X402649D02*
X402566Y590211D01*
X402399D01*
X402316Y590128D01*
Y589794D01*
X402399Y589711D01*
X402566D01*
X402649Y589794D01*
X402816Y590128D02*
X402899Y590211D01*
X403065D01*
X403149Y590128D01*
Y590044D01*
X403065Y589961D01*
X402982D01*
X403065D01*
X403149Y589878D01*
Y589794D01*
X403065Y589711D01*
X402899D01*
X402816Y589794D01*
X403315Y589628D02*
X403649D01*
X403815Y589711D02*
X403982D01*
X403899D01*
Y590211D01*
X403815Y590128D01*
X411949Y587528D02*
X411866Y587611D01*
X411699D01*
X411616Y587528D01*
Y587194D01*
X411699Y587111D01*
X411866D01*
X411949Y587194D01*
X412365Y587111D02*
Y587611D01*
X412116Y587361D01*
X412449D01*
X412615Y587028D02*
X412949D01*
X413115Y587111D02*
X413282D01*
X413199D01*
Y587611D01*
X413115Y587528D01*
X399749Y617728D02*
X399666Y617811D01*
X399499D01*
X399416Y617728D01*
Y617394D01*
X399499Y617311D01*
X399666D01*
X399749Y617394D01*
X400249Y617811D02*
X399916D01*
Y617561D01*
X400082Y617644D01*
X400166D01*
X400249Y617561D01*
Y617394D01*
X400166Y617311D01*
X399999D01*
X399916Y617394D01*
X400415Y617228D02*
X400749D01*
X400915Y617311D02*
X401082D01*
X400999D01*
Y617811D01*
X400915Y617728D01*
X408549D02*
X408466Y617811D01*
X408299D01*
X408216Y617728D01*
Y617394D01*
X408299Y617311D01*
X408466D01*
X408549Y617394D01*
X409049Y617811D02*
X408882Y617728D01*
X408716Y617561D01*
Y617394D01*
X408799Y617311D01*
X408965D01*
X409049Y617394D01*
Y617478D01*
X408965Y617561D01*
X408716D01*
X409215Y617228D02*
X409549D01*
X409715Y617311D02*
X409882D01*
X409799D01*
Y617811D01*
X409715Y617728D01*
X431349Y622727D02*
X431266Y622811D01*
X431099D01*
X431016Y622727D01*
Y622394D01*
X431099Y622311D01*
X431266D01*
X431349Y622394D01*
X431516Y622811D02*
X431849D01*
Y622727D01*
X431516Y622394D01*
Y622311D01*
X432015Y622228D02*
X432349D01*
X432515Y622311D02*
X432682D01*
X432599D01*
Y622811D01*
X432515Y622727D01*
X425823Y604367D02*
X425906Y604450D01*
Y604617D01*
X425823Y604700D01*
X425739D01*
X425656Y604617D01*
Y604450D01*
X425573Y604367D01*
X425490D01*
X425406Y604450D01*
Y604617D01*
X425490Y604700D01*
X425906Y604200D02*
X425406D01*
X425573D01*
X425906Y603867D01*
X425656Y604117D01*
X425406Y603867D01*
X425906Y603700D02*
X425823D01*
X425656Y603534D01*
X425823Y603367D01*
X425906D01*
X425656Y603534D02*
X425406D01*
Y603200D02*
Y603034D01*
Y603117D01*
X425906D01*
X425823Y603200D01*
Y602784D02*
X425906Y602701D01*
Y602534D01*
X425823Y602451D01*
X425739D01*
X425656Y602534D01*
Y602617D01*
Y602534D01*
X425573Y602451D01*
X425490D01*
X425406Y602534D01*
Y602701D01*
X425490Y602784D01*
X425406Y601951D02*
Y602284D01*
X425739Y601951D01*
X425823D01*
X425906Y602034D01*
Y602201D01*
X425823Y602284D01*
X425490Y601784D02*
X425406Y601701D01*
Y601534D01*
X425490Y601451D01*
X425823D01*
X425906Y601534D01*
Y601701D01*
X425823Y601784D01*
X425739D01*
X425656Y601701D01*
Y601451D01*
X425490Y601284D02*
X425406Y601201D01*
Y601034D01*
X425490Y600951D01*
X425823D01*
X425906Y601034D01*
Y601201D01*
X425823Y601284D01*
X425739D01*
X425656Y601201D01*
Y600951D01*
Y600785D02*
Y600451D01*
X425823Y600285D02*
X425906Y600201D01*
Y600035D01*
X425823Y599952D01*
X425739D01*
X425656Y600035D01*
Y600118D01*
Y600035D01*
X425573Y599952D01*
X425490D01*
X425406Y600035D01*
Y600201D01*
X425490Y600285D01*
X425406Y599452D02*
Y599785D01*
X425739Y599452D01*
X425823D01*
X425906Y599535D01*
Y599702D01*
X425823Y599785D01*
X425906Y599285D02*
Y599119D01*
Y599202D01*
X425406D01*
Y599285D01*
Y599119D01*
X425906Y598869D02*
X425406D01*
Y598535D01*
X425906Y598035D02*
Y598369D01*
X425656D01*
Y598202D01*
Y598369D01*
X425406D01*
X398249Y606747D02*
X397832D01*
X397749Y606664D01*
Y606497D01*
X397832Y606414D01*
X398249D01*
X397749Y606247D02*
X398249D01*
Y605998D01*
X398165Y605914D01*
X397999D01*
X397915Y605998D01*
Y606247D01*
X398165Y605414D02*
X398249Y605498D01*
Y605664D01*
X398165Y605748D01*
X397832D01*
X397749Y605664D01*
Y605498D01*
X397832Y605414D01*
X397999D01*
Y605581D01*
X397749Y604915D02*
Y605248D01*
X398082Y604915D01*
X398165D01*
X398249Y604998D01*
Y605164D01*
X398165Y605248D01*
X397749Y604415D02*
Y604748D01*
X398082Y604415D01*
X398165D01*
X398249Y604498D01*
Y604665D01*
X398165Y604748D01*
X397749Y604248D02*
Y604081D01*
Y604165D01*
X398249D01*
X398165Y604248D01*
X397749Y603582D02*
X398249D01*
X397999Y603831D01*
Y603498D01*
X398249Y603332D02*
Y602998D01*
Y603165D01*
X397749D01*
X398249Y602832D02*
X397749D01*
Y602582D01*
X397832Y602499D01*
X397915D01*
X397999Y602582D01*
Y602832D01*
Y602582D01*
X398082Y602499D01*
X398165D01*
X398249Y602582D01*
Y602832D01*
X397049Y590028D02*
X396966Y590111D01*
X396799D01*
X396716Y590028D01*
Y589694D01*
X396799Y589611D01*
X396966D01*
X397049Y589694D01*
X397549Y589611D02*
X397216D01*
X397549Y589944D01*
Y590028D01*
X397465Y590111D01*
X397299D01*
X397216Y590028D01*
X397715Y589528D02*
X398049D01*
X398215Y589611D02*
X398382D01*
X398299D01*
Y590111D01*
X398215Y590028D01*
D122*
X424599Y463100D02*
Y461434D01*
Y462267D01*
X422100D01*
Y460601D02*
X424599D01*
Y459351D01*
X424183Y458935D01*
X423350D01*
X422933Y459351D01*
Y460601D01*
Y459768D02*
X422100Y458935D01*
Y458102D02*
X423766D01*
X424599Y457269D01*
X423766Y456435D01*
X422100D01*
X423350D01*
Y458102D01*
X422100Y455602D02*
X424599D01*
X422100Y453936D01*
X424599D01*
X424183Y451437D02*
X424599Y451854D01*
Y452687D01*
X424183Y453103D01*
X423766D01*
X423350Y452687D01*
Y451854D01*
X422933Y451437D01*
X422516D01*
X422100Y451854D01*
Y452687D01*
X422516Y453103D01*
X424599Y448105D02*
Y447272D01*
Y447688D01*
X422100D01*
Y448105D01*
Y447272D01*
Y446022D02*
X424599D01*
X422100Y444356D01*
X424599D01*
X421684Y443523D02*
Y441857D01*
X422100Y441024D02*
Y440191D01*
Y440607D01*
X424599D01*
X424183Y441024D01*
X305900Y444200D02*
X303401D01*
Y445450D01*
X303817Y445866D01*
X304650D01*
X305067Y445450D01*
Y444200D01*
Y445033D02*
X305900Y445866D01*
X303401Y448365D02*
Y446699D01*
X304650D01*
Y447532D01*
Y446699D01*
X305900D01*
X303817Y450865D02*
X303401Y450448D01*
Y449615D01*
X303817Y449198D01*
X305484D01*
X305900Y449615D01*
Y450448D01*
X305484Y450865D01*
X306316Y451698D02*
Y453364D01*
X305900Y454197D02*
Y455030D01*
Y454613D01*
X303401D01*
X303817Y454197D01*
X306400Y480700D02*
X303901D01*
Y481950D01*
X304317Y482366D01*
X305150D01*
X305567Y481950D01*
Y480700D01*
X306400Y483199D02*
X304734D01*
X303901Y484032D01*
X304734Y484865D01*
X306400D01*
X305150D01*
Y483199D01*
X303901Y489447D02*
Y488614D01*
X304317Y488198D01*
X305983D01*
X306400Y488614D01*
Y489447D01*
X305983Y489864D01*
X304317D01*
X303901Y489447D01*
Y490697D02*
X305983D01*
X306400Y491113D01*
Y491946D01*
X305983Y492363D01*
X303901D01*
Y493196D02*
Y494862D01*
Y494029D01*
X306400D01*
X306817Y495695D02*
Y497361D01*
X306400Y498194D02*
Y499027D01*
Y498611D01*
X303901D01*
X304317Y498194D01*
X421600Y498400D02*
X424099D01*
Y497150D01*
X423683Y496734D01*
X422850D01*
X422433Y497150D01*
Y498400D01*
X421600Y495901D02*
X423266D01*
X424099Y495068D01*
X423266Y494235D01*
X421600D01*
X422850D01*
Y495901D01*
X424099Y490902D02*
Y490069D01*
Y490486D01*
X421600D01*
Y490902D01*
Y490069D01*
Y488820D02*
X424099D01*
X421600Y487154D01*
X424099D01*
X421183Y486321D02*
Y484654D01*
X421600Y483821D02*
Y482988D01*
Y483405D01*
X424099D01*
X423683Y483821D01*
X441100Y571400D02*
X443599D01*
Y570150D01*
X443183Y569734D01*
X442350D01*
X441933Y570150D01*
Y571400D01*
X441100Y568901D02*
X442766D01*
X443599Y568068D01*
X442766Y567235D01*
X441100D01*
X442350D01*
Y568901D01*
X443599Y563902D02*
Y563069D01*
Y563486D01*
X441100D01*
Y563902D01*
Y563069D01*
Y561820D02*
X443599D01*
X441100Y560154D01*
X443599D01*
X441100Y646000D02*
X443599D01*
Y644750D01*
X443183Y644334D01*
X442350D01*
X441933Y644750D01*
Y646000D01*
X441100Y643501D02*
X442766D01*
X443599Y642668D01*
X442766Y641835D01*
X441100D01*
X442350D01*
Y643501D01*
X443599Y637253D02*
Y638086D01*
X443183Y638502D01*
X441516D01*
X441100Y638086D01*
Y637253D01*
X441516Y636836D01*
X443183D01*
X443599Y637253D01*
Y636003D02*
X441516D01*
X441100Y635587D01*
Y634754D01*
X441516Y634337D01*
X443599D01*
Y633504D02*
Y631838D01*
Y632671D01*
X441100D01*
X359000Y645000D02*
X361499D01*
Y643750D01*
X361083Y643334D01*
X360250D01*
X359833Y643750D01*
Y645000D01*
Y644167D02*
X359000Y643334D01*
X361499Y640835D02*
Y642501D01*
X360250D01*
Y641668D01*
Y642501D01*
X359000D01*
X361083Y638336D02*
X361499Y638752D01*
Y639585D01*
X361083Y640002D01*
X359417D01*
X359000Y639585D01*
Y638752D01*
X359417Y638336D01*
X368499Y568600D02*
Y566934D01*
Y567767D01*
X366000D01*
Y566101D02*
X368499D01*
Y564851D01*
X368083Y564435D01*
X367250D01*
X366833Y564851D01*
Y566101D01*
Y565268D02*
X366000Y564435D01*
Y563602D02*
X367666D01*
X368499Y562769D01*
X367666Y561936D01*
X366000D01*
X367250D01*
Y563602D01*
X366000Y561102D02*
X368499D01*
X366000Y559436D01*
X368499D01*
X368083Y556937D02*
X368499Y557354D01*
Y558187D01*
X368083Y558603D01*
X367666D01*
X367250Y558187D01*
Y557354D01*
X366833Y556937D01*
X366417D01*
X366000Y557354D01*
Y558187D01*
X366417Y558603D01*
X368499Y553605D02*
Y552772D01*
Y553188D01*
X366000D01*
Y553605D01*
Y552772D01*
Y551522D02*
X368499D01*
X366000Y549856D01*
X368499D01*
M02*
