%FSLAX25Y25*%
%MOIN*%
G70*
G01*
G75*
G04 Layer_Physical_Order=1*
G04 Layer_Color=255*
%ADD10O,0.08661X0.02362*%
%ADD11R,0.03543X0.05118*%
%ADD12R,0.02362X0.05512*%
%ADD13R,0.05118X0.03543*%
%ADD14R,0.04921X0.05906*%
%ADD15R,0.02362X0.05906*%
%ADD16C,0.00100*%
%ADD17C,0.01000*%
%ADD18C,0.07874*%
%ADD19C,0.06500*%
%ADD20C,0.00098*%
%ADD21C,0.18740*%
%ADD22R,0.06654X0.06654*%
%ADD23C,0.06654*%
%ADD24C,0.09843*%
%ADD25R,0.05906X0.05906*%
%ADD26C,0.05906*%
%ADD27C,0.23622*%
%ADD28C,0.11811*%
%ADD29C,0.02362*%
%ADD30C,0.05000*%
D10*
X240425Y35953D02*
D03*
Y40953D02*
D03*
Y45953D02*
D03*
Y50953D02*
D03*
X221528Y35953D02*
D03*
Y40953D02*
D03*
Y45953D02*
D03*
Y50953D02*
D03*
X139748Y34587D02*
D03*
Y29587D02*
D03*
Y24587D02*
D03*
Y19587D02*
D03*
X158646Y34587D02*
D03*
Y29587D02*
D03*
Y24587D02*
D03*
Y19587D02*
D03*
D11*
X148524Y62894D02*
D03*
X157972D02*
D03*
X134055Y62992D02*
D03*
X124606D02*
D03*
D12*
X100492Y40650D02*
D03*
X103642D02*
D03*
X106791D02*
D03*
X100394Y25000D02*
D03*
X103543D02*
D03*
X106693D02*
D03*
D13*
X200984Y19685D02*
D03*
Y29134D02*
D03*
X186417Y19587D02*
D03*
Y29035D02*
D03*
D14*
X172197Y29508D02*
D03*
Y19665D02*
D03*
D15*
X201772Y61224D02*
D03*
X205276Y53937D02*
D03*
X198268D02*
D03*
D16*
X188976Y10827D02*
X661417D01*
X763779Y32480D02*
Y96457D01*
X742126Y10827D02*
X763779Y32480D01*
X108268Y10827D02*
X742126D01*
X86614Y32480D02*
X108268Y10827D01*
X86614Y96457D02*
X763779D01*
D17*
X279528Y33465D02*
Y42323D01*
X265524Y56327D02*
X279528Y42323D01*
Y18701D02*
X319087D01*
X343024Y42638D01*
X107283Y62992D02*
X123819D01*
X124606D01*
X104331Y65945D02*
X107283Y62992D01*
X95472Y65945D02*
X104331Y65945D01*
X166339Y19685D02*
X200984D01*
X259476Y56327D02*
X265524D01*
X110630Y26969D02*
Y31496D01*
Y38976D01*
X158646Y34587D02*
Y62894D01*
X157972D02*
X158646D01*
X166240D01*
X172244Y68898D01*
X187008D01*
X326665Y52219D02*
Y53819D01*
Y52219D02*
X329672Y49213D01*
X328425Y42638D02*
X332118D01*
X134055Y62992D02*
Y67126D01*
X329672Y49213D02*
X343068D01*
X347674Y53819D01*
X348476D01*
X118012Y49114D02*
X118110Y49213D01*
X158646Y19587D02*
X158744Y19685D01*
X166339D01*
X155372Y40494D02*
Y55258D01*
X153543Y57087D02*
X155372Y55258D01*
X150591Y57087D02*
X153543D01*
X148524Y59153D02*
X150591Y57087D01*
X148524Y59153D02*
Y62894D01*
X126969Y57087D02*
Y59368D01*
X130593Y62992D01*
X134055D01*
X100394Y25000D02*
X100492Y25098D01*
Y40650D01*
X109252Y40354D02*
X110630Y38976D01*
X107087Y40354D02*
X109252D01*
X106791Y40650D02*
X107087Y40354D01*
X106693Y25000D02*
X108661D01*
X110630Y26969D01*
X205276Y40905D02*
Y53937D01*
X199803Y35433D02*
X205276Y40905D01*
X199803Y30315D02*
Y35433D01*
Y30315D02*
X200984Y29134D01*
X186417Y29035D02*
Y37795D01*
X198268Y49646D01*
X186417Y25984D02*
Y29035D01*
X158646Y24587D02*
X185020D01*
X186417Y25984D01*
X103543Y21260D02*
Y25000D01*
X133484Y24587D02*
X139748D01*
X112106Y45965D02*
X133484Y24587D01*
X124213Y50122D02*
X139748Y34587D01*
X124213Y50122D02*
Y62598D01*
X336545Y47065D02*
X349502D01*
X332118Y42638D02*
X336545Y47065D01*
X349502D02*
X353929Y42638D01*
X122244Y42913D02*
X135571Y29587D01*
X139748D01*
X165157Y50787D02*
X190748D01*
X164764Y50394D02*
X165157Y50787D01*
X130512Y51181D02*
X151772D01*
X201772Y61224D02*
X205902D01*
X212795Y54331D01*
X221528Y50953D02*
X228378D01*
X233378Y45953D01*
X240425D01*
X146653Y34252D02*
X151398Y29508D01*
X146653Y34252D02*
Y44488D01*
X124606Y62992D02*
Y70461D01*
X123819Y62992D02*
X124213Y62598D01*
X198268Y49646D02*
Y53937D01*
X240425Y45276D02*
X241102Y45953D01*
X103543Y21260D02*
X105217Y19587D01*
X139748D01*
X103642Y40650D02*
Y44980D01*
X104626Y45965D02*
X112106D01*
X103642Y44980D02*
X104626Y45965D01*
X100492Y40650D02*
Y46260D01*
X101919Y47687D01*
X96457Y53150D02*
X101919Y47687D01*
X95472Y53150D02*
X96457D01*
X103347Y49114D02*
X118012D01*
X101919Y47687D02*
X103347Y49114D01*
X259476Y38752D02*
Y46327D01*
Y38752D02*
X279528Y18701D01*
X241102Y45953D02*
X259102D01*
X259476Y46327D01*
X254102Y50953D02*
X259476Y56327D01*
X151555Y24587D02*
X158646D01*
X149606Y22638D02*
X151555Y24587D01*
X149606Y14764D02*
Y22638D01*
Y14764D02*
X151575Y12795D01*
X205709D01*
X231299Y38386D02*
Y39370D01*
X240425Y50953D02*
X249016D01*
X254102D01*
X172197Y29508D02*
Y39323D01*
X172244Y39370D01*
X151398Y29508D02*
X172197D01*
X217291Y50953D02*
X221528D01*
X211614Y45276D02*
X217291Y50953D01*
X308071Y62992D02*
X328425Y42638D01*
X208661Y62992D02*
X308071D01*
X202756Y68898D02*
X208661Y62992D01*
X187008Y68898D02*
X202756D01*
X187008Y68898D02*
X187008Y68898D01*
X314539Y65945D02*
X326665Y53819D01*
X208661Y65945D02*
X314539D01*
X198819Y75787D02*
X208661Y65945D01*
X148524Y62894D02*
Y75689D01*
X148622Y75787D01*
X198819D01*
X142618Y75689D02*
X148524D01*
X134055Y67126D02*
X142618Y75689D01*
X124606Y70461D02*
X131533Y77387D01*
X199482D01*
X208956Y67913D01*
X337571D01*
Y53819D02*
Y67913D01*
X354331D01*
X359382Y62862D01*
Y53819D02*
Y62862D01*
X212598Y19685D02*
X220307Y11977D01*
X630087D01*
X637795Y19685D01*
X205709Y12795D02*
X212598Y19685D01*
X231299Y38386D01*
D18*
X563189Y69882D02*
X600787Y32283D01*
Y32283D02*
X728346D01*
X518701Y69882D02*
X563189D01*
X512882Y64063D02*
X518701Y69882D01*
X512882Y53819D02*
Y64063D01*
X728346Y32283D02*
Y48228D01*
D19*
X501976Y53819D02*
Y68906D01*
X515748Y82677D01*
X576772D01*
X610236Y49213D01*
X708661D01*
Y63976D01*
D20*
X86614Y32480D02*
Y96457D01*
D21*
X452783Y48228D02*
D03*
X551169D02*
D03*
X299284D02*
D03*
X397669D02*
D03*
D22*
X523787Y53819D02*
D03*
X370287D02*
D03*
D23*
X518335Y42638D02*
D03*
X512882Y53819D02*
D03*
X507429Y42638D02*
D03*
X501976Y53819D02*
D03*
X496524Y42638D02*
D03*
X491071Y53819D02*
D03*
X485618Y42638D02*
D03*
X480165Y53819D02*
D03*
X364835Y42638D02*
D03*
X359382Y53819D02*
D03*
X353929Y42638D02*
D03*
X348476Y53819D02*
D03*
X343024Y42638D02*
D03*
X337571Y53819D02*
D03*
X332118Y42638D02*
D03*
X326665Y53819D02*
D03*
D24*
X578740Y22638D02*
D03*
X95472Y53150D02*
D03*
X279528Y18701D02*
D03*
Y33465D02*
D03*
X187008Y68898D02*
D03*
X95472Y65945D02*
D03*
X637795Y19685D02*
D03*
D25*
X259476Y46327D02*
D03*
D26*
Y56327D02*
D03*
D27*
X622047Y82874D02*
D03*
X228346D02*
D03*
D28*
X728346Y32283D02*
D03*
X115157Y83661D02*
D03*
Y71850D02*
D03*
X728346Y48228D02*
D03*
X708661Y49213D02*
D03*
Y63976D02*
D03*
D29*
X118110Y49213D02*
D03*
X166339Y19685D02*
D03*
X155372Y40494D02*
D03*
X126969Y57087D02*
D03*
X110630Y31496D02*
D03*
D30*
X122244Y42913D02*
D03*
X190748Y50787D02*
D03*
X164764Y50394D02*
D03*
X151772Y51181D02*
D03*
X130512D02*
D03*
X212795Y54331D02*
D03*
X146653Y44488D02*
D03*
X231299Y39370D02*
D03*
X249016Y50953D02*
D03*
X172244Y39370D02*
D03*
X211614Y45276D02*
D03*
M02*
