M48
;Layer_Color=9474304
;FILE_FORMAT=2:5
INCH,LZ
;TYPE=PLATED
T1F00S00C0.01575
T2F00S00C0.02800
T3F00S00C0.03543
T4F00S00C0.04291
T5F00S00C0.06299
T6F00S00C0.07087
T7F00S00C0.12835
T8F00S00C0.13780
%
T01
X011063Y0031496
X0166339Y0019685
X0155372Y0040494
X0126969Y0057087
X011811Y0049213
T02
X0172244Y003937
X0164764Y0050394
X0190748Y0050787
X0212795Y0054331
X0211614Y0045276
X0231299Y003937
X0249016Y0050953
X0151772Y0051181
X0146653Y0044488
X0130512Y0051181
X0122244Y0042913
T03
X0259476Y0046327
Y0056327
T04
X0485618Y0042638
X0496524
X0507429
X0518335
X0523787Y0053819
X0512882
X0501976
X0491071
X0480165
X0370287
X0359382
X0348476
X0337571
X0326665
X0332118Y0042638
X0343024
X0353929
X0364835
T05
X0279528Y0018701
Y0033465
X057874Y0022638
X0637795Y0019685
X0187008Y0068898
X0095472Y0065945
Y005315
T06
X0728346Y0032283
Y0048228
X0708661Y0049213
Y0063976
X0115157Y007185
Y0083661
T07
X0551169Y0048228
X0452783
X0397669
X0299284
T08
X0622047Y0082874
X0228346
M30
