%FSLAX25Y25*%
%MOIN*%
G70*
G01*
G75*
G04 Layer_Color=8388736*
%ADD10O,0.08661X0.02362*%
%ADD11R,0.03543X0.05118*%
%ADD12R,0.02362X0.05512*%
%ADD13R,0.05118X0.03543*%
%ADD14R,0.04921X0.05906*%
%ADD15R,0.02362X0.05906*%
%ADD16C,0.00100*%
%ADD17C,0.01000*%
%ADD18C,0.07874*%
%ADD19C,0.06500*%
%ADD20C,0.00098*%
%ADD21C,0.18740*%
%ADD22R,0.06654X0.06654*%
%ADD23C,0.06654*%
%ADD24C,0.09843*%
%ADD25R,0.05906X0.05906*%
%ADD26C,0.05906*%
%ADD27C,0.23622*%
%ADD28C,0.11811*%
%ADD29C,0.02362*%
%ADD30C,0.05000*%
%ADD31C,0.00984*%
%ADD32C,0.02362*%
%ADD33C,0.00787*%
%ADD34C,0.00591*%
%ADD35O,0.09461X0.03162*%
%ADD36R,0.04343X0.05918*%
%ADD37R,0.05918X0.04343*%
%ADD38R,0.05721X0.06706*%
%ADD39R,0.03162X0.06706*%
%ADD40C,0.19540*%
%ADD41R,0.07453X0.07453*%
%ADD42C,0.07453*%
%ADD43C,0.10642*%
%ADD44R,0.06706X0.06706*%
%ADD45C,0.06706*%
%ADD46C,0.24422*%
%ADD47C,0.12611*%
%ADD48C,0.03162*%
%ADD49C,0.05800*%
G36*
X108268Y21850D02*
X98819D01*
Y28150D01*
X108268D01*
Y21850D01*
D02*
G37*
G36*
X108366Y37500D02*
X98917D01*
Y43799D01*
X108366D01*
Y37500D01*
D02*
G37*
D16*
X188976Y10827D02*
X661417D01*
X763779Y32480D02*
Y96457D01*
X742126Y10827D02*
X763779Y32480D01*
X108268Y10827D02*
X742126D01*
X86614Y32480D02*
X108268Y10827D01*
X86614Y96457D02*
X763779D01*
D20*
X86614Y32480D02*
Y96457D01*
D35*
X240425Y35953D02*
D03*
Y40953D02*
D03*
Y45953D02*
D03*
Y50953D02*
D03*
X221528Y35953D02*
D03*
Y40953D02*
D03*
Y45953D02*
D03*
Y50953D02*
D03*
X139748Y34587D02*
D03*
Y29587D02*
D03*
Y24587D02*
D03*
Y19587D02*
D03*
X158646Y34587D02*
D03*
Y29587D02*
D03*
Y24587D02*
D03*
Y19587D02*
D03*
D36*
X148524Y62894D02*
D03*
X157972D02*
D03*
X134055Y62992D02*
D03*
X124606D02*
D03*
D37*
X200984Y19685D02*
D03*
Y29134D02*
D03*
X186417Y19587D02*
D03*
Y29035D02*
D03*
D38*
X172197Y29508D02*
D03*
Y19665D02*
D03*
D39*
X201772Y61224D02*
D03*
X205276Y53937D02*
D03*
X198268D02*
D03*
D40*
X452783Y48228D02*
D03*
X551169D02*
D03*
X299284D02*
D03*
X397669D02*
D03*
D41*
X523787Y53819D02*
D03*
X370287D02*
D03*
D42*
X518335Y42638D02*
D03*
X512882Y53819D02*
D03*
X507429Y42638D02*
D03*
X501976Y53819D02*
D03*
X496524Y42638D02*
D03*
X491071Y53819D02*
D03*
X485618Y42638D02*
D03*
X480165Y53819D02*
D03*
X364835Y42638D02*
D03*
X359382Y53819D02*
D03*
X353929Y42638D02*
D03*
X348476Y53819D02*
D03*
X343024Y42638D02*
D03*
X337571Y53819D02*
D03*
X332118Y42638D02*
D03*
X326665Y53819D02*
D03*
D43*
X578740Y22638D02*
D03*
X95472Y53150D02*
D03*
X279528Y18701D02*
D03*
Y33465D02*
D03*
X187008Y68898D02*
D03*
X95472Y65945D02*
D03*
X637795Y19685D02*
D03*
D44*
X259476Y46327D02*
D03*
D45*
Y56327D02*
D03*
D46*
X622047Y82874D02*
D03*
X228346D02*
D03*
D47*
X728346Y32283D02*
D03*
X115157Y83661D02*
D03*
Y71850D02*
D03*
X728346Y48228D02*
D03*
X708661Y49213D02*
D03*
Y63976D02*
D03*
D48*
X118110Y49213D02*
D03*
X166339Y19685D02*
D03*
X155372Y40494D02*
D03*
X126969Y57087D02*
D03*
X110630Y31496D02*
D03*
D49*
X122244Y42913D02*
D03*
X190748Y50787D02*
D03*
X164764Y50394D02*
D03*
X151772Y51181D02*
D03*
X130512D02*
D03*
X212795Y54331D02*
D03*
X146653Y44488D02*
D03*
X231299Y39370D02*
D03*
X249016Y50953D02*
D03*
X172244Y39370D02*
D03*
X211614Y45276D02*
D03*
M02*
