%FSLAX42Y42*%
%MOMM*%
G71*
G01*
G75*
G04 Layer_Color=8421504*
%ADD10C,1.00*%
%ADD11R,1.05X1.30*%
%ADD12R,1.30X1.05*%
%ADD13O,0.60X2.20*%
%ADD14C,0.25*%
%ADD15R,1.50X1.50*%
%ADD16C,1.50*%
%ADD17C,3.81*%
%ADD18C,0.61*%
%ADD19C,0.76*%
%ADD20C,0.25*%
%ADD21C,0.20*%
%ADD22C,0.20*%
%ADD23C,0.15*%
D10*
X19600Y900D02*
D03*
X1100Y400D02*
D03*
X1200Y6900D02*
D03*
D11*
X10160Y5400D02*
D03*
X9925D02*
D03*
X7525Y5649D02*
D03*
X7760D02*
D03*
X1350Y5901D02*
D03*
X1115D02*
D03*
X1350Y6176D02*
D03*
X1115D02*
D03*
X1350Y6426D02*
D03*
X1115D02*
D03*
X1350Y6651D02*
D03*
X1115D02*
D03*
X7760Y5400D02*
D03*
X7525D02*
D03*
X4715Y5900D02*
D03*
X4950D02*
D03*
X7115Y5925D02*
D03*
X7350D02*
D03*
X9515D02*
D03*
X9750D02*
D03*
X11915Y5900D02*
D03*
X12150D02*
D03*
X14340Y5925D02*
D03*
X14575D02*
D03*
X16715Y5925D02*
D03*
X16950D02*
D03*
X19115Y5925D02*
D03*
X19350D02*
D03*
X1360Y5400D02*
D03*
X1125D02*
D03*
X2960D02*
D03*
X2725D02*
D03*
X2315Y5925D02*
D03*
X2550D02*
D03*
X2725Y5924D02*
D03*
X2960D02*
D03*
X5150Y5899D02*
D03*
X5385D02*
D03*
X14750Y5674D02*
D03*
X14985D02*
D03*
X9925Y5924D02*
D03*
X10160D02*
D03*
X12325Y5899D02*
D03*
X12560D02*
D03*
X14750Y5924D02*
D03*
X14985D02*
D03*
X17125D02*
D03*
X17360D02*
D03*
X19525D02*
D03*
X19760D02*
D03*
X1125Y5649D02*
D03*
X1360D02*
D03*
X7525Y5924D02*
D03*
X7760D02*
D03*
X5150Y5649D02*
D03*
X5385D02*
D03*
X2725Y5674D02*
D03*
X2960D02*
D03*
X5385Y5400D02*
D03*
X5150D02*
D03*
X9925Y5649D02*
D03*
X10160D02*
D03*
X19525Y5674D02*
D03*
X19760D02*
D03*
X19760Y5400D02*
D03*
X19525D02*
D03*
X17125Y5649D02*
D03*
X17360D02*
D03*
X17360Y5400D02*
D03*
X17125D02*
D03*
X14985Y5425D02*
D03*
X14750D02*
D03*
X12325Y5649D02*
D03*
X12560D02*
D03*
X12560Y5400D02*
D03*
X12325D02*
D03*
D12*
X4324Y5840D02*
D03*
Y6075D02*
D03*
X18676Y3625D02*
D03*
Y3860D02*
D03*
X6701Y6085D02*
D03*
Y5850D02*
D03*
X4876Y6525D02*
D03*
Y6760D02*
D03*
X18926Y3625D02*
D03*
Y3860D02*
D03*
D13*
X4120Y6215D02*
D03*
X3993D02*
D03*
X3866D02*
D03*
X3739D02*
D03*
X3612D02*
D03*
X3485D02*
D03*
X3358D02*
D03*
X3231D02*
D03*
X4120Y5735D02*
D03*
X3993D02*
D03*
X3866D02*
D03*
X3739D02*
D03*
X3612D02*
D03*
X3485D02*
D03*
X3358D02*
D03*
X3231D02*
D03*
X5631D02*
D03*
X5758D02*
D03*
X5885D02*
D03*
X6012D02*
D03*
X6139D02*
D03*
X6266D02*
D03*
X6393D02*
D03*
X6520D02*
D03*
X5631Y6215D02*
D03*
X5758D02*
D03*
X5885D02*
D03*
X6012D02*
D03*
X6139D02*
D03*
X6266D02*
D03*
X6393D02*
D03*
X6520D02*
D03*
M02*
