%FSLAX42Y42*%
%MOMM*%
G71*
G01*
G75*
G04 Layer_Physical_Order=1*
G04 Layer_Color=255*
%ADD10C,1.00*%
%ADD11R,1.05X1.30*%
%ADD12R,1.30X1.05*%
%ADD13O,0.60X2.20*%
%ADD14C,0.25*%
%ADD15R,1.50X1.50*%
%ADD16C,1.50*%
%ADD17C,3.81*%
%ADD18C,0.61*%
D10*
X19600Y900D02*
D03*
X1100Y400D02*
D03*
X1200Y6900D02*
D03*
D11*
X10160Y5400D02*
D03*
X9925D02*
D03*
X7525Y5649D02*
D03*
X7760D02*
D03*
X1350Y5901D02*
D03*
X1115D02*
D03*
X1350Y6176D02*
D03*
X1115D02*
D03*
X1350Y6426D02*
D03*
X1115D02*
D03*
X1350Y6651D02*
D03*
X1115D02*
D03*
X7760Y5400D02*
D03*
X7525D02*
D03*
X4715Y5900D02*
D03*
X4950D02*
D03*
X7115Y5925D02*
D03*
X7350D02*
D03*
X9515D02*
D03*
X9750D02*
D03*
X11915Y5900D02*
D03*
X12150D02*
D03*
X14340Y5925D02*
D03*
X14575D02*
D03*
X16715Y5925D02*
D03*
X16950D02*
D03*
X19115Y5925D02*
D03*
X19350D02*
D03*
X1360Y5400D02*
D03*
X1125D02*
D03*
X2960D02*
D03*
X2725D02*
D03*
X2315Y5925D02*
D03*
X2550D02*
D03*
X2725Y5924D02*
D03*
X2960D02*
D03*
X5150Y5899D02*
D03*
X5385D02*
D03*
X14750Y5674D02*
D03*
X14985D02*
D03*
X9925Y5924D02*
D03*
X10160D02*
D03*
X12325Y5899D02*
D03*
X12560D02*
D03*
X14750Y5924D02*
D03*
X14985D02*
D03*
X17125D02*
D03*
X17360D02*
D03*
X19525D02*
D03*
X19760D02*
D03*
X1125Y5649D02*
D03*
X1360D02*
D03*
X7525Y5924D02*
D03*
X7760D02*
D03*
X5150Y5649D02*
D03*
X5385D02*
D03*
X2725Y5674D02*
D03*
X2960D02*
D03*
X5385Y5400D02*
D03*
X5150D02*
D03*
X9925Y5649D02*
D03*
X10160D02*
D03*
X19525Y5674D02*
D03*
X19760D02*
D03*
X19760Y5400D02*
D03*
X19525D02*
D03*
X17125Y5649D02*
D03*
X17360D02*
D03*
X17360Y5400D02*
D03*
X17125D02*
D03*
X14985Y5425D02*
D03*
X14750D02*
D03*
X12325Y5649D02*
D03*
X12560D02*
D03*
X12560Y5400D02*
D03*
X12325D02*
D03*
D12*
X4324Y5840D02*
D03*
Y6075D02*
D03*
X18676Y3625D02*
D03*
Y3860D02*
D03*
X6701Y6085D02*
D03*
Y5850D02*
D03*
X4876Y6525D02*
D03*
Y6760D02*
D03*
X18926Y3625D02*
D03*
Y3860D02*
D03*
D13*
X4120Y6215D02*
D03*
X3993D02*
D03*
X3866D02*
D03*
X3739D02*
D03*
X3612D02*
D03*
X3485D02*
D03*
X3358D02*
D03*
X3231D02*
D03*
X4120Y5735D02*
D03*
X3993D02*
D03*
X3866D02*
D03*
X3739D02*
D03*
X3612D02*
D03*
X3485D02*
D03*
X3358D02*
D03*
X3231D02*
D03*
X5631D02*
D03*
X5758D02*
D03*
X5885D02*
D03*
X6012D02*
D03*
X6139D02*
D03*
X6266D02*
D03*
X6393D02*
D03*
X6520D02*
D03*
X5631Y6215D02*
D03*
X5758D02*
D03*
X5885D02*
D03*
X6012D02*
D03*
X6139D02*
D03*
X6266D02*
D03*
X6393D02*
D03*
X6520D02*
D03*
D14*
X6350Y5325D02*
X6400D01*
X6459Y5630D02*
X6539Y5550D01*
X6279Y5595D02*
X6473Y5400D01*
X6332Y5618D02*
X6458Y5492D01*
X6558D01*
X6459Y5630D02*
Y5668D01*
X6393Y5735D02*
X6459Y5668D01*
X6332Y5618D02*
Y5668D01*
X6266Y5735D02*
X6332Y5668D01*
X6240Y5595D02*
X6279D01*
X6205Y5630D02*
X6240Y5595D01*
X6205Y5630D02*
Y5668D01*
X6139Y5735D02*
X6205Y5668D01*
X6078Y5597D02*
Y5668D01*
X6012Y5735D02*
X6078Y5668D01*
Y5597D02*
X6350Y5325D01*
X5951Y5595D02*
X6297Y5248D01*
X5951Y5595D02*
Y5668D01*
X6297Y5248D02*
X7319D01*
X5605Y5875D02*
X6565D01*
X5594Y5925D02*
X6554D01*
X6585Y5735D02*
X6701Y5850D01*
X6520Y5735D02*
X6585D01*
X5570Y5840D02*
X5605Y5875D01*
X5527Y5858D02*
X5594Y5925D01*
X6565Y5875D02*
X6623Y5933D01*
X6554Y5925D02*
X6631Y6002D01*
X6623Y5933D02*
X7107D01*
X6631Y6002D02*
X6854D01*
X7278Y5400D02*
X7525D01*
X7319Y5248D02*
X7424Y5143D01*
X7213D02*
X7275D01*
X7187Y5100D02*
X7213Y5125D01*
X7760Y5400D02*
Y5649D01*
X7424Y5143D02*
X9675D01*
X5824Y5630D02*
X6354Y5100D01*
X7187D01*
X5885Y5735D02*
X5951Y5668D01*
X5824Y5630D02*
Y5668D01*
X5758Y5735D02*
X5824Y5668D01*
X3485Y5510D02*
Y5735D01*
X4533Y5774D02*
X4574Y5733D01*
X4533Y5774D02*
Y5811D01*
Y5868D01*
X4324Y6075D02*
X4475D01*
X4479Y5923D02*
X4533Y5868D01*
X3231Y5831D02*
X3366Y5966D01*
X4649D02*
X4715Y5900D01*
X3358Y5808D02*
X3473Y5923D01*
X4574Y5733D02*
X4630D01*
X4602Y5802D02*
X5473D01*
X5475Y5800D01*
X4630Y5733D02*
X4654Y5757D01*
X5493D01*
X5570Y5834D01*
X4120Y5735D02*
X4195D01*
X5085Y5943D02*
X5110Y5918D01*
X5015Y5943D02*
X5085D01*
X4990Y5918D02*
X5015Y5943D01*
X5570Y5834D02*
Y5840D01*
X5475Y5800D02*
X5527Y5852D01*
Y5858D01*
X7997Y5925D02*
X9515D01*
X6854Y6002D02*
X6872Y6020D01*
X7415D01*
X7416Y6020D01*
X7618D01*
X7732Y6133D01*
X7789D01*
X7997Y5925D01*
X7350D02*
X7525D01*
X6701Y6085D02*
X6840D01*
X6701Y6075D02*
Y6085D01*
X18926Y3625D02*
X19269D01*
X18676D02*
X18926D01*
X19269D02*
X19275Y3619D01*
X11300Y5900D02*
X11915D01*
X11342Y5144D02*
X11711Y4775D01*
X11272Y5144D02*
X11342D01*
X11360Y5187D02*
X11510Y5038D01*
X11254Y5187D02*
X11360D01*
X11231Y5103D02*
X11272Y5144D01*
X11188Y5121D02*
X11254Y5187D01*
X11188Y5085D02*
Y5121D01*
X11510Y5038D02*
X12826D01*
X10750Y4525D02*
X11300Y5075D01*
X11140Y5038D02*
X11188Y5085D01*
X11231Y5067D02*
Y5103D01*
X10939Y4775D02*
X11231Y5067D01*
X4624Y5038D02*
X11140D01*
X4660Y4775D02*
X10939D01*
X4783Y4525D02*
X10750D01*
X11711Y4775D02*
X12625D01*
X3678Y5630D02*
X4783Y4525D01*
X3678Y5630D02*
Y5668D01*
X3612Y5735D02*
X3678Y5668D01*
X3805Y5630D02*
X4660Y4775D01*
X14125Y5925D02*
X14340D01*
X13019Y5092D02*
X13074Y5038D01*
X13019Y5092D02*
Y5128D01*
X12978Y5169D02*
X13019Y5128D01*
X12922Y5169D02*
X12978D01*
X12881Y5128D02*
X12922Y5169D01*
X12881Y5092D02*
Y5128D01*
X12826Y5038D02*
X12881Y5092D01*
X12625Y4775D02*
X12950Y5100D01*
X13074Y5038D02*
X18228D01*
X3805Y5630D02*
Y5668D01*
X3739Y5735D02*
X3805Y5668D01*
X3866Y5685D02*
X4550Y5000D01*
X3866Y5685D02*
Y5735D01*
X4024Y5638D02*
X4624Y5038D01*
X3993Y5638D02*
Y5735D01*
X4875Y5143D02*
X5293D01*
X16575Y5925D02*
X16715D01*
X7107Y5933D02*
X7115Y5925D01*
X6701Y5850D02*
X6850D01*
X5110Y5899D02*
X5150D01*
X4951D02*
X4990D01*
X3358Y5735D02*
Y5808D01*
X3231Y5735D02*
Y5831D01*
Y6120D02*
X3275Y6075D01*
X3231Y6120D02*
Y6215D01*
X18228Y5038D02*
X19115Y5925D01*
X19350D02*
X19525D01*
X5293Y5143D02*
X5631Y5481D01*
X4875Y5397D02*
X5147D01*
X5631Y5481D02*
Y5735D01*
X14985Y5425D02*
Y5674D01*
X5385Y5400D02*
Y5649D01*
X5147Y5397D02*
X5150Y5400D01*
X5750Y6400D02*
X5758Y6392D01*
Y6215D02*
Y6392D01*
X4875Y6525D02*
X4876Y6525D01*
X4875Y6200D02*
Y6525D01*
X2400Y6375D02*
X3300D01*
X2315Y6290D02*
X2400Y6375D01*
X3300D02*
X3358Y6317D01*
X1360Y5400D02*
Y5649D01*
X5941Y6784D02*
X6139Y6586D01*
X5083Y6733D02*
X5134Y6784D01*
X5941D01*
X6139Y6215D02*
Y6586D01*
X5083Y6732D02*
Y6733D01*
X4877Y6525D02*
X5083Y6732D01*
X4876Y6525D02*
X4877D01*
X4676Y6725D02*
X4876Y6525D01*
X3925Y6725D02*
X4676D01*
X3739Y6538D02*
X3925Y6725D01*
X3850Y6500D02*
X3862D01*
X3739Y6215D02*
Y6538D01*
X3866Y6215D02*
Y6497D01*
X4120Y6215D02*
Y6581D01*
X4100Y6600D02*
X4120Y6581D01*
X3862Y6500D02*
X3866Y6497D01*
X6266Y6215D02*
Y6491D01*
X6393Y6215D02*
Y6558D01*
X6012Y6215D02*
Y6389D01*
X3612Y6215D02*
Y6414D01*
X2315Y5925D02*
Y6290D01*
X3358Y6215D02*
Y6317D01*
X3475Y6700D02*
X3485Y6691D01*
Y6215D02*
Y6691D01*
X5885Y6215D02*
Y6716D01*
X6520Y6631D02*
X6525Y6625D01*
X4324Y6075D02*
Y6075D01*
X5631Y6144D02*
Y6215D01*
Y6144D02*
X5700Y6075D01*
X2960Y5924D02*
Y6065D01*
X4876Y6760D02*
X5015D01*
X5385Y5899D02*
Y6075D01*
X10160Y5924D02*
Y6065D01*
X12560Y5899D02*
Y6035D01*
X14985Y5924D02*
Y6065D01*
X17360Y5924D02*
Y6090D01*
X19760Y5924D02*
Y6090D01*
X4950Y5900D02*
X4951Y5899D01*
X7525Y5925D02*
X7525Y5924D01*
X9925Y5925D02*
X9925Y5924D01*
X9750Y5925D02*
X9925D01*
X12325Y5900D02*
X12325Y5899D01*
X12150Y5900D02*
X12325D01*
X14750Y5925D02*
X14750Y5924D01*
X14575Y5925D02*
X14750D01*
X17125Y5925D02*
X17125Y5924D01*
X16950Y5925D02*
X17125D01*
X19525Y5925D02*
X19525Y5924D01*
X19760Y5674D02*
X19760Y5674D01*
X19760Y5425D02*
Y5674D01*
X19275Y5397D02*
X19497D01*
X17360Y5649D02*
X17360Y5649D01*
X17360Y5400D02*
Y5649D01*
X16875Y5397D02*
X16878Y5400D01*
X17125D01*
X14985Y5674D02*
X14985Y5674D01*
X14722Y5397D02*
X14750Y5425D01*
X14475Y5397D02*
X14722D01*
X12560Y5649D02*
X12560Y5649D01*
X12560Y5400D02*
Y5649D01*
X12075Y5397D02*
X12078Y5400D01*
X12325D01*
X10160Y5624D02*
X10160Y5624D01*
X10160Y5400D02*
Y5624D01*
X9675Y5397D02*
X9678Y5400D01*
X9925D01*
X7760Y5649D02*
X7760Y5649D01*
X7275Y5397D02*
X7278Y5400D01*
X5385Y5649D02*
X5385Y5649D01*
X2960Y5674D02*
X2960Y5674D01*
X2960Y5400D02*
Y5674D01*
X1350Y5901D02*
X1499D01*
X1360Y5400D02*
X1360Y5400D01*
X1125Y5676D02*
X1350Y5901D01*
X1125Y5649D02*
Y5676D01*
X2724Y5925D02*
X2725Y5924D01*
X2550Y5925D02*
X2724D01*
X2475Y5397D02*
X2478Y5400D01*
X2725D01*
X1098Y6667D02*
X1115Y6651D01*
X875Y6667D02*
X1098D01*
X1102Y6413D02*
X1115Y6426D01*
X875Y6413D02*
X1102D01*
X1098Y6159D02*
X1115Y6176D01*
X875Y6159D02*
X1098D01*
X875Y5905D02*
X879Y5901D01*
X1115D01*
X875Y5397D02*
X878Y5400D01*
X1125D01*
X18942Y4127D02*
X19275D01*
X18676Y3860D02*
X18942Y4127D01*
X18926Y3860D02*
X19262D01*
X19275Y3873D01*
X15868Y6150D02*
X16875Y5143D01*
X13518Y6100D02*
X14475Y5143D01*
X4195Y5735D02*
X4312Y5852D01*
X7213Y5125D02*
Y5143D01*
X19497Y5397D02*
X19525Y5425D01*
X3993Y5638D02*
X4024D01*
X5110Y5899D02*
Y5918D01*
X4990Y5899D02*
Y5918D01*
X5700Y6075D02*
X6701D01*
X3275D02*
X4324D01*
X1350Y5901D02*
Y6651D01*
X3993Y6215D02*
Y6568D01*
X6520Y6215D02*
Y6631D01*
X3366Y5966D02*
X4649D01*
X3473Y5923D02*
X4479D01*
X4324Y5840D02*
X4465D01*
X6558Y5492D02*
X6575Y5475D01*
X6539Y5550D02*
X6650D01*
X6473Y5400D02*
X6500D01*
X7760Y5924D02*
Y6065D01*
X5150Y5649D02*
X5250Y5550D01*
Y5525D02*
Y5550D01*
X7525Y5649D02*
X7625Y5550D01*
Y5525D02*
Y5550D01*
X9925Y5649D02*
X10050Y5525D01*
X10050D01*
X12325Y5649D02*
X12450Y5525D01*
X12450D01*
X14750Y5674D02*
X14875Y5550D01*
X14875D01*
X17125Y5649D02*
X17225Y5550D01*
Y5525D02*
Y5550D01*
X19525Y5674D02*
X19625Y5575D01*
Y5550D02*
Y5575D01*
X2837Y5563D02*
X2838D01*
X2725Y5674D02*
X2837Y5563D01*
D15*
X19275Y825D02*
D03*
X2475D02*
D03*
X4875D02*
D03*
X7275D02*
D03*
X9675D02*
D03*
X12075D02*
D03*
X14475D02*
D03*
X16875D02*
D03*
X875D02*
D03*
D16*
X19275Y1079D02*
D03*
Y1333D02*
D03*
Y1587D02*
D03*
Y1841D02*
D03*
Y2095D02*
D03*
Y2349D02*
D03*
Y2603D02*
D03*
Y2857D02*
D03*
Y3111D02*
D03*
Y3365D02*
D03*
Y3619D02*
D03*
Y3873D02*
D03*
Y4127D02*
D03*
Y4381D02*
D03*
Y4635D02*
D03*
Y4889D02*
D03*
Y5143D02*
D03*
Y5397D02*
D03*
Y5651D02*
D03*
X2475Y1079D02*
D03*
Y1333D02*
D03*
Y1587D02*
D03*
Y1841D02*
D03*
Y2095D02*
D03*
Y2349D02*
D03*
Y2603D02*
D03*
Y2857D02*
D03*
Y3111D02*
D03*
Y3365D02*
D03*
Y3619D02*
D03*
Y3873D02*
D03*
Y4127D02*
D03*
Y4381D02*
D03*
Y4635D02*
D03*
Y4889D02*
D03*
Y5143D02*
D03*
Y5397D02*
D03*
Y5651D02*
D03*
X4875Y1079D02*
D03*
Y1333D02*
D03*
Y1587D02*
D03*
Y1841D02*
D03*
Y2095D02*
D03*
Y2349D02*
D03*
Y2603D02*
D03*
Y2857D02*
D03*
Y3111D02*
D03*
Y3365D02*
D03*
Y3619D02*
D03*
Y3873D02*
D03*
Y4127D02*
D03*
Y4381D02*
D03*
Y4635D02*
D03*
Y4889D02*
D03*
Y5143D02*
D03*
Y5397D02*
D03*
Y5651D02*
D03*
X7275Y1079D02*
D03*
Y1333D02*
D03*
Y1587D02*
D03*
Y1841D02*
D03*
Y2095D02*
D03*
Y2349D02*
D03*
Y2603D02*
D03*
Y2857D02*
D03*
Y3111D02*
D03*
Y3365D02*
D03*
Y3619D02*
D03*
Y3873D02*
D03*
Y4127D02*
D03*
Y4381D02*
D03*
Y4635D02*
D03*
Y4889D02*
D03*
Y5143D02*
D03*
Y5397D02*
D03*
Y5651D02*
D03*
X9675Y1079D02*
D03*
Y1333D02*
D03*
Y1587D02*
D03*
Y1841D02*
D03*
Y2095D02*
D03*
Y2349D02*
D03*
Y2603D02*
D03*
Y2857D02*
D03*
Y3111D02*
D03*
Y3365D02*
D03*
Y3619D02*
D03*
Y3873D02*
D03*
Y4127D02*
D03*
Y4381D02*
D03*
Y4635D02*
D03*
Y4889D02*
D03*
Y5143D02*
D03*
Y5397D02*
D03*
Y5651D02*
D03*
X12075Y1079D02*
D03*
Y1333D02*
D03*
Y1587D02*
D03*
Y1841D02*
D03*
Y2095D02*
D03*
Y2349D02*
D03*
Y2603D02*
D03*
Y2857D02*
D03*
Y3111D02*
D03*
Y3365D02*
D03*
Y3619D02*
D03*
Y3873D02*
D03*
Y4127D02*
D03*
Y4381D02*
D03*
Y4635D02*
D03*
Y4889D02*
D03*
Y5143D02*
D03*
Y5397D02*
D03*
Y5651D02*
D03*
X14475Y1079D02*
D03*
Y1333D02*
D03*
Y1587D02*
D03*
Y1841D02*
D03*
Y2095D02*
D03*
Y2349D02*
D03*
Y2603D02*
D03*
Y2857D02*
D03*
Y3111D02*
D03*
Y3365D02*
D03*
Y3619D02*
D03*
Y3873D02*
D03*
Y4127D02*
D03*
Y4381D02*
D03*
Y4635D02*
D03*
Y4889D02*
D03*
Y5143D02*
D03*
Y5397D02*
D03*
Y5651D02*
D03*
X16875Y1079D02*
D03*
Y1333D02*
D03*
Y1587D02*
D03*
Y1841D02*
D03*
Y2095D02*
D03*
Y2349D02*
D03*
Y2603D02*
D03*
Y2857D02*
D03*
Y3111D02*
D03*
Y3365D02*
D03*
Y3619D02*
D03*
Y3873D02*
D03*
Y4127D02*
D03*
Y4381D02*
D03*
Y4635D02*
D03*
Y4889D02*
D03*
Y5143D02*
D03*
Y5397D02*
D03*
Y5651D02*
D03*
X875Y6667D02*
D03*
Y6413D02*
D03*
Y6159D02*
D03*
Y5905D02*
D03*
Y5651D02*
D03*
Y5397D02*
D03*
Y5143D02*
D03*
Y4889D02*
D03*
Y4635D02*
D03*
Y4381D02*
D03*
Y4127D02*
D03*
Y3873D02*
D03*
Y3619D02*
D03*
Y3365D02*
D03*
Y3111D02*
D03*
Y2857D02*
D03*
Y2603D02*
D03*
Y2349D02*
D03*
Y2095D02*
D03*
Y1841D02*
D03*
Y1587D02*
D03*
Y1333D02*
D03*
Y1079D02*
D03*
D17*
X500Y6900D02*
D03*
X6900D02*
D03*
X13300D02*
D03*
X19700D02*
D03*
Y500D02*
D03*
X13300D02*
D03*
X6900D02*
D03*
X500D02*
D03*
D18*
X6400Y5325D02*
D03*
X3485Y5510D02*
D03*
X4475Y6075D02*
D03*
X4602Y5802D02*
D03*
X11300Y5900D02*
D03*
Y5075D02*
D03*
X14125Y5925D02*
D03*
X12950Y5100D02*
D03*
X4550Y5000D02*
D03*
X16575Y5925D02*
D03*
X6850Y5850D02*
D03*
X5750Y6400D02*
D03*
X4875Y6200D02*
D03*
X3850Y6500D02*
D03*
X3975Y6550D02*
D03*
X6012Y6389D02*
D03*
X3612Y6414D02*
D03*
X5885Y6716D02*
D03*
X6393Y6558D02*
D03*
X6525Y6625D02*
D03*
X6266Y6491D02*
D03*
X3475Y6700D02*
D03*
X4100Y6600D02*
D03*
X6840Y6085D02*
D03*
X2960Y6065D02*
D03*
X5015Y6760D02*
D03*
X5385Y6075D02*
D03*
X10160Y6065D02*
D03*
X12560Y6035D02*
D03*
X14985Y6065D02*
D03*
X17360Y6090D02*
D03*
X19760D02*
D03*
X1499Y5901D02*
D03*
X15868Y6150D02*
D03*
X13518Y6100D02*
D03*
X4465Y5840D02*
D03*
X6575Y5475D02*
D03*
X6650Y5550D02*
D03*
X6500Y5400D02*
D03*
X7760Y6065D02*
D03*
X5250Y5525D02*
D03*
X7625D02*
D03*
X10050D02*
D03*
X12450D02*
D03*
X14875Y5550D02*
D03*
X17225Y5525D02*
D03*
X19625Y5550D02*
D03*
X2838Y5563D02*
D03*
M02*
