%FSLAX42Y42*%
%MOMM*%
G71*
G01*
G75*
G04 Layer_Color=16711935*
%ADD10C,1.00*%
%ADD11R,1.05X1.30*%
%ADD12R,1.30X1.05*%
%ADD13O,0.60X2.20*%
%ADD14C,0.25*%
%ADD15R,1.50X1.50*%
%ADD16C,1.50*%
%ADD17C,3.81*%
%ADD18C,0.61*%
%ADD19C,0.76*%
%ADD20C,0.25*%
%ADD21C,0.20*%
%ADD22C,0.20*%
%ADD23C,0.15*%
%ADD24C,1.20*%
%ADD25R,1.25X1.50*%
%ADD26R,1.50X1.25*%
%ADD27O,0.80X2.40*%
%ADD28R,1.70X1.70*%
%ADD29C,1.70*%
%ADD30C,4.01*%
%ADD31C,0.81*%
D28*
X19275Y825D02*
D03*
X2475D02*
D03*
X4875D02*
D03*
X7275D02*
D03*
X9675D02*
D03*
X12075D02*
D03*
X14475D02*
D03*
X16875D02*
D03*
X875D02*
D03*
D29*
X19275Y1079D02*
D03*
Y1333D02*
D03*
Y1587D02*
D03*
Y1841D02*
D03*
Y2095D02*
D03*
Y2349D02*
D03*
Y2603D02*
D03*
Y2857D02*
D03*
Y3111D02*
D03*
Y3365D02*
D03*
Y3619D02*
D03*
Y3873D02*
D03*
Y4127D02*
D03*
Y4381D02*
D03*
Y4635D02*
D03*
Y4889D02*
D03*
Y5143D02*
D03*
Y5397D02*
D03*
Y5651D02*
D03*
X2475Y1079D02*
D03*
Y1333D02*
D03*
Y1587D02*
D03*
Y1841D02*
D03*
Y2095D02*
D03*
Y2349D02*
D03*
Y2603D02*
D03*
Y2857D02*
D03*
Y3111D02*
D03*
Y3365D02*
D03*
Y3619D02*
D03*
Y3873D02*
D03*
Y4127D02*
D03*
Y4381D02*
D03*
Y4635D02*
D03*
Y4889D02*
D03*
Y5143D02*
D03*
Y5397D02*
D03*
Y5651D02*
D03*
X4875Y1079D02*
D03*
Y1333D02*
D03*
Y1587D02*
D03*
Y1841D02*
D03*
Y2095D02*
D03*
Y2349D02*
D03*
Y2603D02*
D03*
Y2857D02*
D03*
Y3111D02*
D03*
Y3365D02*
D03*
Y3619D02*
D03*
Y3873D02*
D03*
Y4127D02*
D03*
Y4381D02*
D03*
Y4635D02*
D03*
Y4889D02*
D03*
Y5143D02*
D03*
Y5397D02*
D03*
Y5651D02*
D03*
X7275Y1079D02*
D03*
Y1333D02*
D03*
Y1587D02*
D03*
Y1841D02*
D03*
Y2095D02*
D03*
Y2349D02*
D03*
Y2603D02*
D03*
Y2857D02*
D03*
Y3111D02*
D03*
Y3365D02*
D03*
Y3619D02*
D03*
Y3873D02*
D03*
Y4127D02*
D03*
Y4381D02*
D03*
Y4635D02*
D03*
Y4889D02*
D03*
Y5143D02*
D03*
Y5397D02*
D03*
Y5651D02*
D03*
X9675Y1079D02*
D03*
Y1333D02*
D03*
Y1587D02*
D03*
Y1841D02*
D03*
Y2095D02*
D03*
Y2349D02*
D03*
Y2603D02*
D03*
Y2857D02*
D03*
Y3111D02*
D03*
Y3365D02*
D03*
Y3619D02*
D03*
Y3873D02*
D03*
Y4127D02*
D03*
Y4381D02*
D03*
Y4635D02*
D03*
Y4889D02*
D03*
Y5143D02*
D03*
Y5397D02*
D03*
Y5651D02*
D03*
X12075Y1079D02*
D03*
Y1333D02*
D03*
Y1587D02*
D03*
Y1841D02*
D03*
Y2095D02*
D03*
Y2349D02*
D03*
Y2603D02*
D03*
Y2857D02*
D03*
Y3111D02*
D03*
Y3365D02*
D03*
Y3619D02*
D03*
Y3873D02*
D03*
Y4127D02*
D03*
Y4381D02*
D03*
Y4635D02*
D03*
Y4889D02*
D03*
Y5143D02*
D03*
Y5397D02*
D03*
Y5651D02*
D03*
X14475Y1079D02*
D03*
Y1333D02*
D03*
Y1587D02*
D03*
Y1841D02*
D03*
Y2095D02*
D03*
Y2349D02*
D03*
Y2603D02*
D03*
Y2857D02*
D03*
Y3111D02*
D03*
Y3365D02*
D03*
Y3619D02*
D03*
Y3873D02*
D03*
Y4127D02*
D03*
Y4381D02*
D03*
Y4635D02*
D03*
Y4889D02*
D03*
Y5143D02*
D03*
Y5397D02*
D03*
Y5651D02*
D03*
X16875Y1079D02*
D03*
Y1333D02*
D03*
Y1587D02*
D03*
Y1841D02*
D03*
Y2095D02*
D03*
Y2349D02*
D03*
Y2603D02*
D03*
Y2857D02*
D03*
Y3111D02*
D03*
Y3365D02*
D03*
Y3619D02*
D03*
Y3873D02*
D03*
Y4127D02*
D03*
Y4381D02*
D03*
Y4635D02*
D03*
Y4889D02*
D03*
Y5143D02*
D03*
Y5397D02*
D03*
Y5651D02*
D03*
X875Y6667D02*
D03*
Y6413D02*
D03*
Y6159D02*
D03*
Y5905D02*
D03*
Y5651D02*
D03*
Y5397D02*
D03*
Y5143D02*
D03*
Y4889D02*
D03*
Y4635D02*
D03*
Y4381D02*
D03*
Y4127D02*
D03*
Y3873D02*
D03*
Y3619D02*
D03*
Y3365D02*
D03*
Y3111D02*
D03*
Y2857D02*
D03*
Y2603D02*
D03*
Y2349D02*
D03*
Y2095D02*
D03*
Y1841D02*
D03*
Y1587D02*
D03*
Y1333D02*
D03*
Y1079D02*
D03*
D30*
X500Y6900D02*
D03*
X6900D02*
D03*
X13300D02*
D03*
X19700D02*
D03*
Y500D02*
D03*
X13300D02*
D03*
X6900D02*
D03*
X500D02*
D03*
D31*
X6400Y5325D02*
D03*
X3485Y5510D02*
D03*
X4475Y6075D02*
D03*
X4602Y5802D02*
D03*
X11300Y5900D02*
D03*
Y5075D02*
D03*
X14125Y5925D02*
D03*
X12950Y5100D02*
D03*
X4550Y5000D02*
D03*
X16575Y5925D02*
D03*
X6850Y5850D02*
D03*
X5750Y6400D02*
D03*
X4875Y6200D02*
D03*
X3850Y6500D02*
D03*
X3975Y6550D02*
D03*
X6012Y6389D02*
D03*
X3612Y6414D02*
D03*
X5885Y6716D02*
D03*
X6393Y6558D02*
D03*
X6525Y6625D02*
D03*
X6266Y6491D02*
D03*
X3475Y6700D02*
D03*
X4100Y6600D02*
D03*
X6840Y6085D02*
D03*
X2960Y6065D02*
D03*
X5015Y6760D02*
D03*
X5385Y6075D02*
D03*
X10160Y6065D02*
D03*
X12560Y6035D02*
D03*
X14985Y6065D02*
D03*
X17360Y6090D02*
D03*
X19760D02*
D03*
X1499Y5901D02*
D03*
X15868Y6150D02*
D03*
X13518Y6100D02*
D03*
X4465Y5840D02*
D03*
X6575Y5475D02*
D03*
X6650Y5550D02*
D03*
X6500Y5400D02*
D03*
X7760Y6065D02*
D03*
X5250Y5525D02*
D03*
X7625D02*
D03*
X10050D02*
D03*
X12450D02*
D03*
X14875Y5550D02*
D03*
X17225Y5525D02*
D03*
X19625Y5550D02*
D03*
X2838Y5563D02*
D03*
M02*
