%FSLAX42Y42*%
%MOMM*%
G71*
G01*
G75*
%ADD10C,1.00*%
%ADD11R,1.05X1.30*%
%ADD12R,1.30X1.05*%
%ADD13O,0.60X2.20*%
%ADD14C,0.25*%
%ADD15R,1.50X1.50*%
%ADD16C,1.50*%
%ADD17C,3.81*%
%ADD18C,0.61*%
%ADD19C,0.76*%
%ADD20C,0.25*%
%ADD21C,0.20*%
%ADD22C,0.20*%
%ADD23C,0.15*%
%ADD24C,1.20*%
%ADD25R,1.25X1.50*%
%ADD26R,1.50X1.25*%
%ADD27O,0.80X2.40*%
%ADD28R,1.70X1.70*%
%ADD29C,1.70*%
%ADD30C,4.01*%
%ADD31C,0.81*%
%ADD32C,0.10*%
%ADD33C,0.08*%
%ADD34C,0.38*%
%ADD35C,0.41*%
%ADD36C,0.13*%
D36*
X19224Y825D02*
X19326D01*
X19275Y774D02*
Y876D01*
X19224Y1079D02*
X19326D01*
X19275Y1028D02*
Y1130D01*
X19224Y1333D02*
X19326D01*
X19275Y1282D02*
Y1384D01*
X19224Y1587D02*
X19326D01*
X19275Y1536D02*
Y1638D01*
X19224Y1841D02*
X19326D01*
X19275Y1790D02*
Y1892D01*
X19224Y2095D02*
X19326D01*
X19275Y2044D02*
Y2146D01*
X19224Y2349D02*
X19326D01*
X19275Y2298D02*
Y2400D01*
X19224Y2603D02*
X19326D01*
X19275Y2552D02*
Y2654D01*
X19224Y2857D02*
X19326D01*
X19275Y2806D02*
Y2908D01*
X19224Y3111D02*
X19326D01*
X19275Y3060D02*
Y3162D01*
X19224Y3365D02*
X19326D01*
X19275Y3314D02*
Y3416D01*
X19224Y3619D02*
X19326D01*
X19275Y3568D02*
Y3670D01*
X19224Y3873D02*
X19326D01*
X19275Y3822D02*
Y3924D01*
X19224Y4127D02*
X19326D01*
X19275Y4076D02*
Y4178D01*
X19224Y4381D02*
X19326D01*
X19275Y4330D02*
Y4432D01*
X19224Y4635D02*
X19326D01*
X19275Y4584D02*
Y4686D01*
X19224Y4889D02*
X19326D01*
X19275Y4838D02*
Y4940D01*
X19224Y5143D02*
X19326D01*
X19275Y5092D02*
Y5194D01*
X19224Y5397D02*
X19326D01*
X19275Y5346D02*
Y5448D01*
X19224Y5651D02*
X19326D01*
X19275Y5600D02*
Y5702D01*
X2424Y825D02*
X2526D01*
X2475Y774D02*
Y876D01*
X2424Y1079D02*
X2526D01*
X2475Y1028D02*
Y1130D01*
X2424Y1333D02*
X2526D01*
X2475Y1282D02*
Y1384D01*
X2424Y1587D02*
X2526D01*
X2475Y1536D02*
Y1638D01*
X2424Y1841D02*
X2526D01*
X2475Y1790D02*
Y1892D01*
X2424Y2095D02*
X2526D01*
X2475Y2044D02*
Y2146D01*
X2424Y2349D02*
X2526D01*
X2475Y2298D02*
Y2400D01*
X2424Y2603D02*
X2526D01*
X2475Y2552D02*
Y2654D01*
X2424Y2857D02*
X2526D01*
X2475Y2806D02*
Y2908D01*
X2424Y3111D02*
X2526D01*
X2475Y3060D02*
Y3162D01*
X2424Y3365D02*
X2526D01*
X2475Y3314D02*
Y3416D01*
X2424Y3619D02*
X2526D01*
X2475Y3568D02*
Y3670D01*
X2424Y3873D02*
X2526D01*
X2475Y3822D02*
Y3924D01*
X2424Y4127D02*
X2526D01*
X2475Y4076D02*
Y4178D01*
X2424Y4381D02*
X2526D01*
X2475Y4330D02*
Y4432D01*
X2424Y4635D02*
X2526D01*
X2475Y4584D02*
Y4686D01*
X2424Y4889D02*
X2526D01*
X2475Y4838D02*
Y4940D01*
X2424Y5143D02*
X2526D01*
X2475Y5092D02*
Y5194D01*
X2424Y5397D02*
X2526D01*
X2475Y5346D02*
Y5448D01*
X2424Y5651D02*
X2526D01*
X2475Y5600D02*
Y5702D01*
X4824Y825D02*
X4926D01*
X4875Y774D02*
Y876D01*
X4824Y1079D02*
X4926D01*
X4875Y1028D02*
Y1130D01*
X4824Y1333D02*
X4926D01*
X4875Y1282D02*
Y1384D01*
X4824Y1587D02*
X4926D01*
X4875Y1536D02*
Y1638D01*
X4824Y1841D02*
X4926D01*
X4875Y1790D02*
Y1892D01*
X4824Y2095D02*
X4926D01*
X4875Y2044D02*
Y2146D01*
X4824Y2349D02*
X4926D01*
X4875Y2298D02*
Y2400D01*
X4824Y2603D02*
X4926D01*
X4875Y2552D02*
Y2654D01*
X4824Y2857D02*
X4926D01*
X4875Y2806D02*
Y2908D01*
X4824Y3111D02*
X4926D01*
X4875Y3060D02*
Y3162D01*
X4824Y3365D02*
X4926D01*
X4875Y3314D02*
Y3416D01*
X4824Y3619D02*
X4926D01*
X4875Y3568D02*
Y3670D01*
X4824Y3873D02*
X4926D01*
X4875Y3822D02*
Y3924D01*
X4824Y4127D02*
X4926D01*
X4875Y4076D02*
Y4178D01*
X4824Y4381D02*
X4926D01*
X4875Y4330D02*
Y4432D01*
X4824Y4635D02*
X4926D01*
X4875Y4584D02*
Y4686D01*
X4824Y4889D02*
X4926D01*
X4875Y4838D02*
Y4940D01*
X4824Y5143D02*
X4926D01*
X4875Y5092D02*
Y5194D01*
X4824Y5397D02*
X4926D01*
X4875Y5346D02*
Y5448D01*
X4824Y5651D02*
X4926D01*
X4875Y5600D02*
Y5702D01*
X7224Y825D02*
X7326D01*
X7275Y774D02*
Y876D01*
X7224Y1079D02*
X7326D01*
X7275Y1028D02*
Y1130D01*
X7224Y1333D02*
X7326D01*
X7275Y1282D02*
Y1384D01*
X7224Y1587D02*
X7326D01*
X7275Y1536D02*
Y1638D01*
X7224Y1841D02*
X7326D01*
X7275Y1790D02*
Y1892D01*
X7224Y2095D02*
X7326D01*
X7275Y2044D02*
Y2146D01*
X7224Y2349D02*
X7326D01*
X7275Y2298D02*
Y2400D01*
X7224Y2603D02*
X7326D01*
X7275Y2552D02*
Y2654D01*
X7224Y2857D02*
X7326D01*
X7275Y2806D02*
Y2908D01*
X7224Y3111D02*
X7326D01*
X7275Y3060D02*
Y3162D01*
X7224Y3365D02*
X7326D01*
X7275Y3314D02*
Y3416D01*
X7224Y3619D02*
X7326D01*
X7275Y3568D02*
Y3670D01*
X7224Y3873D02*
X7326D01*
X7275Y3822D02*
Y3924D01*
X7224Y4127D02*
X7326D01*
X7275Y4076D02*
Y4178D01*
X7224Y4381D02*
X7326D01*
X7275Y4330D02*
Y4432D01*
X7224Y4635D02*
X7326D01*
X7275Y4584D02*
Y4686D01*
X7224Y4889D02*
X7326D01*
X7275Y4838D02*
Y4940D01*
X7224Y5143D02*
X7326D01*
X7275Y5092D02*
Y5194D01*
X7224Y5397D02*
X7326D01*
X7275Y5346D02*
Y5448D01*
X7224Y5651D02*
X7326D01*
X7275Y5600D02*
Y5702D01*
X9624Y825D02*
X9726D01*
X9675Y774D02*
Y876D01*
X9624Y1079D02*
X9726D01*
X9675Y1028D02*
Y1130D01*
X9624Y1333D02*
X9726D01*
X9675Y1282D02*
Y1384D01*
X9624Y1587D02*
X9726D01*
X9675Y1536D02*
Y1638D01*
X9624Y1841D02*
X9726D01*
X9675Y1790D02*
Y1892D01*
X9624Y2095D02*
X9726D01*
X9675Y2044D02*
Y2146D01*
X9624Y2349D02*
X9726D01*
X9675Y2298D02*
Y2400D01*
X9624Y2603D02*
X9726D01*
X9675Y2552D02*
Y2654D01*
X9624Y2857D02*
X9726D01*
X9675Y2806D02*
Y2908D01*
X9624Y3111D02*
X9726D01*
X9675Y3060D02*
Y3162D01*
X9624Y3365D02*
X9726D01*
X9675Y3314D02*
Y3416D01*
X9624Y3619D02*
X9726D01*
X9675Y3568D02*
Y3670D01*
X9624Y3873D02*
X9726D01*
X9675Y3822D02*
Y3924D01*
X9624Y4127D02*
X9726D01*
X9675Y4076D02*
Y4178D01*
X9624Y4381D02*
X9726D01*
X9675Y4330D02*
Y4432D01*
X9624Y4635D02*
X9726D01*
X9675Y4584D02*
Y4686D01*
X9624Y4889D02*
X9726D01*
X9675Y4838D02*
Y4940D01*
X9624Y5143D02*
X9726D01*
X9675Y5092D02*
Y5194D01*
X9624Y5397D02*
X9726D01*
X9675Y5346D02*
Y5448D01*
X9624Y5651D02*
X9726D01*
X9675Y5600D02*
Y5702D01*
X12024Y825D02*
X12126D01*
X12075Y774D02*
Y876D01*
X12024Y1079D02*
X12126D01*
X12075Y1028D02*
Y1130D01*
X12024Y1333D02*
X12126D01*
X12075Y1282D02*
Y1384D01*
X12024Y1587D02*
X12126D01*
X12075Y1536D02*
Y1638D01*
X12024Y1841D02*
X12126D01*
X12075Y1790D02*
Y1892D01*
X12024Y2095D02*
X12126D01*
X12075Y2044D02*
Y2146D01*
X12024Y2349D02*
X12126D01*
X12075Y2298D02*
Y2400D01*
X12024Y2603D02*
X12126D01*
X12075Y2552D02*
Y2654D01*
X12024Y2857D02*
X12126D01*
X12075Y2806D02*
Y2908D01*
X12024Y3111D02*
X12126D01*
X12075Y3060D02*
Y3162D01*
X12024Y3365D02*
X12126D01*
X12075Y3314D02*
Y3416D01*
X12024Y3619D02*
X12126D01*
X12075Y3568D02*
Y3670D01*
X12024Y3873D02*
X12126D01*
X12075Y3822D02*
Y3924D01*
X12024Y4127D02*
X12126D01*
X12075Y4076D02*
Y4178D01*
X12024Y4381D02*
X12126D01*
X12075Y4330D02*
Y4432D01*
X12024Y4635D02*
X12126D01*
X12075Y4584D02*
Y4686D01*
X12024Y4889D02*
X12126D01*
X12075Y4838D02*
Y4940D01*
X12024Y5143D02*
X12126D01*
X12075Y5092D02*
Y5194D01*
X12024Y5397D02*
X12126D01*
X12075Y5346D02*
Y5448D01*
X12024Y5651D02*
X12126D01*
X12075Y5600D02*
Y5702D01*
X14424Y825D02*
X14526D01*
X14475Y774D02*
Y876D01*
X14424Y1079D02*
X14526D01*
X14475Y1028D02*
Y1130D01*
X14424Y1333D02*
X14526D01*
X14475Y1282D02*
Y1384D01*
X14424Y1587D02*
X14526D01*
X14475Y1536D02*
Y1638D01*
X14424Y1841D02*
X14526D01*
X14475Y1790D02*
Y1892D01*
X14424Y2095D02*
X14526D01*
X14475Y2044D02*
Y2146D01*
X14424Y2349D02*
X14526D01*
X14475Y2298D02*
Y2400D01*
X14424Y2603D02*
X14526D01*
X14475Y2552D02*
Y2654D01*
X14424Y2857D02*
X14526D01*
X14475Y2806D02*
Y2908D01*
X14424Y3111D02*
X14526D01*
X14475Y3060D02*
Y3162D01*
X14424Y3365D02*
X14526D01*
X14475Y3314D02*
Y3416D01*
X14424Y3619D02*
X14526D01*
X14475Y3568D02*
Y3670D01*
X14424Y3873D02*
X14526D01*
X14475Y3822D02*
Y3924D01*
X14424Y4127D02*
X14526D01*
X14475Y4076D02*
Y4178D01*
X14424Y4381D02*
X14526D01*
X14475Y4330D02*
Y4432D01*
X14424Y4635D02*
X14526D01*
X14475Y4584D02*
Y4686D01*
X14424Y4889D02*
X14526D01*
X14475Y4838D02*
Y4940D01*
X14424Y5143D02*
X14526D01*
X14475Y5092D02*
Y5194D01*
X14424Y5397D02*
X14526D01*
X14475Y5346D02*
Y5448D01*
X14424Y5651D02*
X14526D01*
X14475Y5600D02*
Y5702D01*
X16824Y825D02*
X16926D01*
X16875Y774D02*
Y876D01*
X16824Y1079D02*
X16926D01*
X16875Y1028D02*
Y1130D01*
X16824Y1333D02*
X16926D01*
X16875Y1282D02*
Y1384D01*
X16824Y1587D02*
X16926D01*
X16875Y1536D02*
Y1638D01*
X16824Y1841D02*
X16926D01*
X16875Y1790D02*
Y1892D01*
X16824Y2095D02*
X16926D01*
X16875Y2044D02*
Y2146D01*
X16824Y2349D02*
X16926D01*
X16875Y2298D02*
Y2400D01*
X16824Y2603D02*
X16926D01*
X16875Y2552D02*
Y2654D01*
X16824Y2857D02*
X16926D01*
X16875Y2806D02*
Y2908D01*
X16824Y3111D02*
X16926D01*
X16875Y3060D02*
Y3162D01*
X16824Y3365D02*
X16926D01*
X16875Y3314D02*
Y3416D01*
X16824Y3619D02*
X16926D01*
X16875Y3568D02*
Y3670D01*
X16824Y3873D02*
X16926D01*
X16875Y3822D02*
Y3924D01*
X16824Y4127D02*
X16926D01*
X16875Y4076D02*
Y4178D01*
X16824Y4381D02*
X16926D01*
X16875Y4330D02*
Y4432D01*
X16824Y4635D02*
X16926D01*
X16875Y4584D02*
Y4686D01*
X16824Y4889D02*
X16926D01*
X16875Y4838D02*
Y4940D01*
X16824Y5143D02*
X16926D01*
X16875Y5092D02*
Y5194D01*
X16824Y5397D02*
X16926D01*
X16875Y5346D02*
Y5448D01*
X16824Y5651D02*
X16926D01*
X16875Y5600D02*
Y5702D01*
X824Y825D02*
X926D01*
X875Y774D02*
Y876D01*
X824Y6667D02*
X926D01*
X875Y6616D02*
Y6718D01*
X824Y6413D02*
X926D01*
X875Y6362D02*
Y6464D01*
X824Y6159D02*
X926D01*
X875Y6108D02*
Y6210D01*
X824Y5905D02*
X926D01*
X875Y5854D02*
Y5956D01*
X824Y5651D02*
X926D01*
X875Y5600D02*
Y5702D01*
X824Y5397D02*
X926D01*
X875Y5346D02*
Y5448D01*
X824Y5143D02*
X926D01*
X875Y5092D02*
Y5194D01*
X824Y4889D02*
X926D01*
X875Y4838D02*
Y4940D01*
X824Y4635D02*
X926D01*
X875Y4584D02*
Y4686D01*
X824Y4381D02*
X926D01*
X875Y4330D02*
Y4432D01*
X824Y4127D02*
X926D01*
X875Y4076D02*
Y4178D01*
X824Y3873D02*
X926D01*
X875Y3822D02*
Y3924D01*
X824Y3619D02*
X926D01*
X875Y3568D02*
Y3670D01*
X824Y3365D02*
X926D01*
X875Y3314D02*
Y3416D01*
X824Y3111D02*
X926D01*
X875Y3060D02*
Y3162D01*
X824Y2857D02*
X926D01*
X875Y2806D02*
Y2908D01*
X824Y2603D02*
X926D01*
X875Y2552D02*
Y2654D01*
X824Y2349D02*
X926D01*
X875Y2298D02*
Y2400D01*
X824Y2095D02*
X926D01*
X875Y2044D02*
Y2146D01*
X824Y1841D02*
X926D01*
X875Y1790D02*
Y1892D01*
X824Y1587D02*
X926D01*
X875Y1536D02*
Y1638D01*
X824Y1333D02*
X926D01*
X875Y1282D02*
Y1384D01*
X824Y1079D02*
X926D01*
X875Y1028D02*
Y1130D01*
X310Y6900D02*
X691D01*
X500Y6710D02*
Y7091D01*
X6709Y6900D02*
X7090D01*
X6900Y6710D02*
Y7091D01*
X13110Y6900D02*
X13491D01*
X13300Y6710D02*
Y7091D01*
X19509Y6900D02*
X19890D01*
X19700Y6710D02*
Y7091D01*
X19509Y500D02*
X19890D01*
X19700Y310D02*
Y691D01*
X13110Y500D02*
X13491D01*
X13300Y310D02*
Y691D01*
X6709Y500D02*
X7090D01*
X6900Y310D02*
Y691D01*
X310Y500D02*
X691D01*
X500Y310D02*
Y691D01*
X6385Y5325D02*
X6415D01*
X6400Y5310D02*
Y5340D01*
X3469Y5510D02*
X3500D01*
X3485Y5494D02*
Y5525D01*
X4460Y6075D02*
X4490D01*
X4475Y6060D02*
Y6090D01*
X4587Y5802D02*
X4617D01*
X4602Y5787D02*
Y5817D01*
X11285Y5900D02*
X11315D01*
X11300Y5885D02*
Y5915D01*
X11285Y5075D02*
X11315D01*
X11300Y5060D02*
Y5090D01*
X14110Y5925D02*
X14140D01*
X14125Y5910D02*
Y5940D01*
X12935Y5100D02*
X12965D01*
X12950Y5085D02*
Y5115D01*
X4535Y5000D02*
X4565D01*
X4550Y4985D02*
Y5015D01*
X16560Y5925D02*
X16590D01*
X16575Y5910D02*
Y5940D01*
X6835Y5850D02*
X6865D01*
X6850Y5835D02*
Y5865D01*
X5735Y6400D02*
X5765D01*
X5750Y6385D02*
Y6415D01*
X4860Y6200D02*
X4890D01*
X4875Y6185D02*
Y6215D01*
X3835Y6500D02*
X3865D01*
X3850Y6485D02*
Y6515D01*
X3960Y6550D02*
X3990D01*
X3975Y6535D02*
Y6565D01*
X5996Y6389D02*
X6027D01*
X6012Y6373D02*
Y6404D01*
X3596Y6414D02*
X3627D01*
X3612Y6398D02*
Y6429D01*
X5869Y6716D02*
X5900D01*
X5885Y6700D02*
Y6731D01*
X6377Y6558D02*
X6408D01*
X6393Y6542D02*
Y6573D01*
X6510Y6625D02*
X6540D01*
X6525Y6610D02*
Y6640D01*
X6250Y6491D02*
X6281D01*
X6266Y6475D02*
Y6506D01*
X3460Y6700D02*
X3490D01*
X3475Y6685D02*
Y6715D01*
X4085Y6600D02*
X4115D01*
X4100Y6585D02*
Y6615D01*
X6825Y6085D02*
X6855D01*
X6840Y6070D02*
Y6100D01*
X2945Y6065D02*
X2976D01*
X2960Y6049D02*
Y6080D01*
X5000Y6760D02*
X5030D01*
X5015Y6745D02*
Y6775D01*
X5370Y6075D02*
X5400D01*
X5385Y6060D02*
Y6090D01*
X10145Y6065D02*
X10175D01*
X10160Y6050D02*
Y6080D01*
X12545Y6035D02*
X12575D01*
X12560Y6020D02*
Y6050D01*
X14970Y6065D02*
X15000D01*
X14985Y6050D02*
Y6080D01*
X17345Y6090D02*
X17375D01*
X17360Y6075D02*
Y6105D01*
X19745Y6090D02*
X19775D01*
X19760Y6075D02*
Y6105D01*
X1484Y5901D02*
X1515D01*
X1499Y5885D02*
Y5916D01*
X15853Y6150D02*
X15883D01*
X15868Y6135D02*
Y6165D01*
X13503Y6100D02*
X13533D01*
X13518Y6085D02*
Y6115D01*
X4450Y5840D02*
X4480D01*
X4465Y5825D02*
Y5855D01*
X6560Y5475D02*
X6590D01*
X6575Y5460D02*
Y5490D01*
X6635Y5550D02*
X6665D01*
X6650Y5535D02*
Y5565D01*
X6485Y5400D02*
X6515D01*
X6500Y5385D02*
Y5415D01*
X7745Y6065D02*
X7775D01*
X7760Y6050D02*
Y6080D01*
X5235Y5525D02*
X5265D01*
X5250Y5510D02*
Y5540D01*
X7610Y5525D02*
X7640D01*
X7625Y5510D02*
Y5540D01*
X10035Y5525D02*
X10065D01*
X10050Y5510D02*
Y5540D01*
X12435Y5525D02*
X12465D01*
X12450Y5510D02*
Y5540D01*
X14860Y5550D02*
X14890D01*
X14875Y5535D02*
Y5565D01*
X17210Y5525D02*
X17240D01*
X17225Y5510D02*
Y5540D01*
X19610Y5550D02*
X19640D01*
X19625Y5535D02*
Y5565D01*
X2822Y5563D02*
X2853D01*
X2838Y5547D02*
Y5578D01*
M02*
