%FSLAX42Y42*%
%MOMM*%
G71*
G01*
G75*
G04 Layer_Physical_Order=2*
G04 Layer_Color=36540*
%ADD10C,1.00*%
%ADD11R,1.05X1.30*%
%ADD12R,1.30X1.05*%
%ADD13O,0.60X2.20*%
%ADD14C,0.25*%
%ADD15R,1.50X1.50*%
%ADD16C,1.50*%
%ADD17C,3.81*%
%ADD18C,0.61*%
%ADD19C,0.76*%
G36*
X833Y2738D02*
X836Y2737D01*
Y2723D01*
X812Y2713D01*
X785Y2693D01*
X765Y2666D01*
X752Y2636D01*
X748Y2603D01*
X752Y2570D01*
X765Y2540D01*
X785Y2513D01*
X812Y2493D01*
X842Y2480D01*
X875Y2476D01*
X908Y2480D01*
X938Y2493D01*
X965Y2513D01*
X985Y2540D01*
X998Y2570D01*
X1002Y2603D01*
X998Y2636D01*
X985Y2666D01*
X965Y2693D01*
X938Y2713D01*
X924Y2719D01*
X921Y2734D01*
X926Y2738D01*
X2433D01*
X2436Y2737D01*
Y2723D01*
X2412Y2713D01*
X2385Y2693D01*
X2365Y2666D01*
X2352Y2636D01*
X2348Y2603D01*
X2352Y2570D01*
X2365Y2540D01*
X2385Y2513D01*
X2412Y2493D01*
X2442Y2480D01*
X2475Y2476D01*
X2508Y2480D01*
X2538Y2493D01*
X2565Y2513D01*
X2585Y2540D01*
X2598Y2570D01*
X2602Y2603D01*
X2598Y2636D01*
X2585Y2666D01*
X2565Y2693D01*
X2538Y2713D01*
X2524Y2719D01*
X2521Y2734D01*
X2526Y2738D01*
X4833D01*
X4836Y2737D01*
Y2723D01*
X4812Y2713D01*
X4785Y2693D01*
X4765Y2666D01*
X4752Y2636D01*
X4748Y2603D01*
X4752Y2570D01*
X4765Y2540D01*
X4785Y2513D01*
X4812Y2493D01*
X4842Y2480D01*
X4875Y2476D01*
X4908Y2480D01*
X4938Y2493D01*
X4965Y2513D01*
X4985Y2540D01*
X4998Y2570D01*
X5002Y2603D01*
X4998Y2636D01*
X4985Y2666D01*
X4965Y2693D01*
X4938Y2713D01*
X4924Y2719D01*
X4921Y2734D01*
X4926Y2738D01*
X7233D01*
X7236Y2737D01*
Y2723D01*
X7212Y2713D01*
X7185Y2693D01*
X7165Y2666D01*
X7152Y2636D01*
X7148Y2603D01*
X7152Y2570D01*
X7165Y2540D01*
X7185Y2513D01*
X7212Y2493D01*
X7242Y2480D01*
X7275Y2476D01*
X7308Y2480D01*
X7338Y2493D01*
X7365Y2513D01*
X7385Y2540D01*
X7398Y2570D01*
X7402Y2603D01*
X7398Y2636D01*
X7385Y2666D01*
X7365Y2693D01*
X7338Y2713D01*
X7324Y2719D01*
X7321Y2734D01*
X7326Y2738D01*
X9633D01*
X9636Y2737D01*
Y2723D01*
X9612Y2713D01*
X9585Y2693D01*
X9565Y2666D01*
X9552Y2636D01*
X9548Y2603D01*
X9552Y2570D01*
X9565Y2540D01*
X9585Y2513D01*
X9612Y2493D01*
X9642Y2480D01*
X9675Y2476D01*
X9708Y2480D01*
X9738Y2493D01*
X9765Y2513D01*
X9785Y2540D01*
X9798Y2570D01*
X9802Y2603D01*
X9798Y2636D01*
X9785Y2666D01*
X9765Y2693D01*
X9738Y2713D01*
X9724Y2719D01*
X9721Y2734D01*
X9726Y2738D01*
X12033Y2738D01*
X12036Y2737D01*
Y2723D01*
X12012Y2713D01*
X11985Y2693D01*
X11965Y2666D01*
X11952Y2636D01*
X11948Y2603D01*
X11952Y2570D01*
X11965Y2540D01*
X11985Y2513D01*
X12012Y2493D01*
X12042Y2480D01*
X12075Y2476D01*
X12108Y2480D01*
X12138Y2493D01*
X12165Y2513D01*
X12185Y2540D01*
X12198Y2570D01*
X12202Y2603D01*
X12198Y2636D01*
X12185Y2666D01*
X12165Y2693D01*
X12138Y2713D01*
X12124Y2719D01*
X12121Y2734D01*
X12126Y2738D01*
X14433D01*
X14436Y2737D01*
Y2723D01*
X14412Y2713D01*
X14385Y2693D01*
X14365Y2666D01*
X14352Y2636D01*
X14348Y2603D01*
X14352Y2570D01*
X14365Y2540D01*
X14385Y2513D01*
X14412Y2493D01*
X14442Y2480D01*
X14475Y2476D01*
X14508Y2480D01*
X14538Y2493D01*
X14565Y2513D01*
X14585Y2540D01*
X14598Y2570D01*
X14602Y2603D01*
X14598Y2636D01*
X14585Y2666D01*
X14565Y2693D01*
X14538Y2713D01*
X14524Y2719D01*
X14521Y2734D01*
X14526Y2738D01*
X16833D01*
X16836Y2737D01*
Y2723D01*
X16812Y2713D01*
X16785Y2693D01*
X16765Y2666D01*
X16752Y2636D01*
X16748Y2603D01*
X16752Y2570D01*
X16765Y2540D01*
X16785Y2513D01*
X16812Y2493D01*
X16842Y2480D01*
X16875Y2476D01*
X16908Y2480D01*
X16938Y2493D01*
X16965Y2513D01*
X16985Y2540D01*
X16998Y2570D01*
X17002Y2603D01*
X16998Y2636D01*
X16985Y2666D01*
X16965Y2693D01*
X16938Y2713D01*
X16924Y2719D01*
X16921Y2734D01*
X16926Y2738D01*
X19233D01*
X19236Y2737D01*
Y2723D01*
X19212Y2713D01*
X19185Y2693D01*
X19165Y2666D01*
X19152Y2636D01*
X19148Y2603D01*
X19152Y2570D01*
X19165Y2540D01*
X19185Y2513D01*
X19212Y2493D01*
X19242Y2480D01*
X19275Y2476D01*
X19308Y2480D01*
X19338Y2493D01*
X19365Y2513D01*
X19385Y2540D01*
X19387Y2545D01*
X19400Y2543D01*
Y2247D01*
X19391Y2238D01*
X19301D01*
X19300Y2251D01*
X19301Y2251D01*
X19326Y2261D01*
X19347Y2277D01*
X19363Y2298D01*
X19373Y2323D01*
X19375Y2336D01*
X19175D01*
X19177Y2323D01*
X19187Y2298D01*
X19203Y2277D01*
X19224Y2261D01*
X19249Y2251D01*
X19250Y2251D01*
X19249Y2238D01*
X16901D01*
X16900Y2251D01*
X16901Y2251D01*
X16926Y2261D01*
X16947Y2277D01*
X16963Y2298D01*
X16973Y2323D01*
X16975Y2336D01*
X16775D01*
X16777Y2323D01*
X16787Y2298D01*
X16803Y2277D01*
X16824Y2261D01*
X16849Y2251D01*
X16850Y2251D01*
X16849Y2238D01*
X14501Y2238D01*
X14500Y2251D01*
X14501Y2251D01*
X14526Y2261D01*
X14547Y2277D01*
X14563Y2298D01*
X14573Y2323D01*
X14575Y2336D01*
X14375D01*
X14377Y2323D01*
X14387Y2298D01*
X14403Y2277D01*
X14424Y2261D01*
X14449Y2251D01*
X14450Y2251D01*
X14449Y2238D01*
X12101D01*
X12100Y2251D01*
X12101Y2251D01*
X12126Y2261D01*
X12147Y2277D01*
X12163Y2298D01*
X12173Y2323D01*
X12175Y2336D01*
X11975D01*
X11977Y2323D01*
X11987Y2298D01*
X12003Y2277D01*
X12024Y2261D01*
X12049Y2251D01*
X12050Y2251D01*
X12049Y2238D01*
X9701D01*
X9700Y2251D01*
X9701Y2251D01*
X9726Y2261D01*
X9747Y2277D01*
X9763Y2298D01*
X9773Y2323D01*
X9775Y2336D01*
X9575D01*
X9577Y2323D01*
X9587Y2298D01*
X9603Y2277D01*
X9624Y2261D01*
X9649Y2251D01*
X9650Y2251D01*
X9649Y2238D01*
X7301D01*
X7300Y2251D01*
X7301Y2251D01*
X7326Y2261D01*
X7347Y2277D01*
X7363Y2298D01*
X7373Y2323D01*
X7375Y2336D01*
X7175D01*
X7177Y2323D01*
X7187Y2298D01*
X7203Y2277D01*
X7224Y2261D01*
X7249Y2251D01*
X7250Y2251D01*
X7249Y2238D01*
X4901Y2238D01*
X4900Y2251D01*
X4901Y2251D01*
X4926Y2261D01*
X4947Y2277D01*
X4963Y2298D01*
X4973Y2323D01*
X4975Y2336D01*
X4775D01*
X4777Y2323D01*
X4787Y2298D01*
X4803Y2277D01*
X4824Y2261D01*
X4849Y2251D01*
X4850Y2251D01*
X4849Y2238D01*
X2501D01*
X2500Y2251D01*
X2501Y2251D01*
X2526Y2261D01*
X2547Y2277D01*
X2563Y2298D01*
X2573Y2323D01*
X2575Y2336D01*
X2375D01*
X2377Y2323D01*
X2387Y2298D01*
X2403Y2277D01*
X2424Y2261D01*
X2449Y2251D01*
X2450Y2251D01*
X2449Y2238D01*
X901D01*
X900Y2251D01*
X901Y2251D01*
X926Y2261D01*
X947Y2277D01*
X963Y2298D01*
X973Y2323D01*
X975Y2336D01*
X775D01*
X777Y2323D01*
X787Y2298D01*
X803Y2277D01*
X824Y2261D01*
X849Y2251D01*
X850Y2251D01*
X849Y2238D01*
X650D01*
Y2729D01*
X659Y2738D01*
X833D01*
D02*
G37*
G36*
X19486Y7026D02*
X19470Y6995D01*
X19456Y6949D01*
X19451Y6900D01*
X19456Y6851D01*
X19470Y6805D01*
X19493Y6762D01*
X19524Y6724D01*
X19562Y6693D01*
X19605Y6670D01*
X19651Y6656D01*
X19700Y6651D01*
X19749Y6656D01*
X19795Y6670D01*
X19838Y6693D01*
X19864Y6714D01*
X19875Y6708D01*
X19875Y3278D01*
X19347D01*
X19343Y3290D01*
X19347Y3293D01*
X19363Y3314D01*
X19373Y3339D01*
X19375Y3352D01*
X19175D01*
X19177Y3339D01*
X19187Y3314D01*
X19203Y3293D01*
X19207Y3290D01*
X19203Y3278D01*
X16947D01*
X16943Y3290D01*
X16947Y3293D01*
X16963Y3314D01*
X16973Y3339D01*
X16975Y3352D01*
X16775D01*
X16777Y3339D01*
X16787Y3314D01*
X16803Y3293D01*
X16807Y3290D01*
X16803Y3278D01*
X14547Y3278D01*
X14543Y3290D01*
X14547Y3293D01*
X14563Y3314D01*
X14573Y3339D01*
X14575Y3352D01*
X14375D01*
X14377Y3339D01*
X14387Y3314D01*
X14403Y3293D01*
X14407Y3290D01*
X14403Y3278D01*
X12147D01*
X12143Y3290D01*
X12147Y3293D01*
X12163Y3314D01*
X12173Y3339D01*
X12175Y3352D01*
X11975D01*
X11977Y3339D01*
X11987Y3314D01*
X12003Y3293D01*
X12007Y3290D01*
X12003Y3278D01*
X9747D01*
X9743Y3290D01*
X9747Y3293D01*
X9763Y3314D01*
X9773Y3339D01*
X9775Y3352D01*
X9575D01*
X9577Y3339D01*
X9587Y3314D01*
X9603Y3293D01*
X9607Y3290D01*
X9603Y3278D01*
X7347D01*
X7343Y3290D01*
X7347Y3293D01*
X7363Y3314D01*
X7373Y3339D01*
X7375Y3352D01*
X7175D01*
X7177Y3339D01*
X7187Y3314D01*
X7203Y3293D01*
X7207Y3290D01*
X7203Y3278D01*
X4947Y3278D01*
X4943Y3290D01*
X4947Y3293D01*
X4963Y3314D01*
X4973Y3339D01*
X4975Y3352D01*
X4775D01*
X4777Y3339D01*
X4787Y3314D01*
X4803Y3293D01*
X4807Y3290D01*
X4803Y3278D01*
X2547D01*
X2543Y3290D01*
X2547Y3293D01*
X2563Y3314D01*
X2573Y3339D01*
X2575Y3352D01*
X2375D01*
X2377Y3339D01*
X2387Y3314D01*
X2403Y3293D01*
X2407Y3290D01*
X2403Y3278D01*
X947D01*
X943Y3290D01*
X947Y3293D01*
X963Y3314D01*
X973Y3339D01*
X975Y3352D01*
X775D01*
X777Y3339D01*
X787Y3314D01*
X803Y3293D01*
X807Y3290D01*
X803Y3278D01*
X662D01*
X653Y3287D01*
X653Y6705D01*
X676Y6724D01*
X707Y6762D01*
X730Y6805D01*
X744Y6851D01*
X749Y6900D01*
X744Y6949D01*
X730Y6995D01*
X714Y7026D01*
X721Y7038D01*
X6679Y7038D01*
X6686Y7026D01*
X6670Y6995D01*
X6656Y6949D01*
X6651Y6900D01*
X6656Y6851D01*
X6670Y6805D01*
X6693Y6762D01*
X6724Y6724D01*
X6762Y6693D01*
X6805Y6670D01*
X6851Y6656D01*
X6900Y6651D01*
X6949Y6656D01*
X6995Y6670D01*
X7038Y6693D01*
X7076Y6724D01*
X7107Y6762D01*
X7130Y6805D01*
X7144Y6851D01*
X7149Y6900D01*
X7144Y6949D01*
X7130Y6995D01*
X7114Y7026D01*
X7121Y7038D01*
X13079Y7038D01*
X13086Y7026D01*
X13070Y6995D01*
X13056Y6949D01*
X13051Y6900D01*
X13056Y6851D01*
X13070Y6805D01*
X13093Y6762D01*
X13124Y6724D01*
X13162Y6693D01*
X13205Y6670D01*
X13251Y6656D01*
X13300Y6651D01*
X13349Y6656D01*
X13395Y6670D01*
X13438Y6693D01*
X13476Y6724D01*
X13507Y6762D01*
X13530Y6805D01*
X13544Y6851D01*
X13549Y6900D01*
X13544Y6949D01*
X13530Y6995D01*
X13514Y7026D01*
X13521Y7038D01*
X19479Y7038D01*
X19486Y7026D01*
D02*
G37*
G36*
X795Y1700D02*
X799Y1687D01*
X785Y1677D01*
X765Y1650D01*
X752Y1620D01*
X748Y1587D01*
X752Y1554D01*
X765Y1524D01*
X785Y1497D01*
X812Y1477D01*
X836Y1467D01*
Y1453D01*
X812Y1443D01*
X785Y1423D01*
X765Y1396D01*
X752Y1366D01*
X748Y1333D01*
X752Y1300D01*
X765Y1270D01*
X785Y1243D01*
X812Y1223D01*
X842Y1210D01*
X875Y1206D01*
X908Y1210D01*
X938Y1223D01*
X965Y1243D01*
X985Y1270D01*
X998Y1300D01*
X1002Y1333D01*
X998Y1366D01*
X985Y1396D01*
X965Y1423D01*
X938Y1443D01*
X914Y1453D01*
Y1467D01*
X938Y1477D01*
X965Y1497D01*
X985Y1524D01*
X998Y1554D01*
X1002Y1587D01*
X998Y1620D01*
X985Y1650D01*
X965Y1677D01*
X951Y1687D01*
X955Y1700D01*
X2395D01*
X2399Y1687D01*
X2385Y1677D01*
X2365Y1650D01*
X2352Y1620D01*
X2348Y1587D01*
X2352Y1554D01*
X2365Y1524D01*
X2385Y1497D01*
X2412Y1477D01*
X2436Y1467D01*
Y1453D01*
X2412Y1443D01*
X2385Y1423D01*
X2365Y1396D01*
X2352Y1366D01*
X2348Y1333D01*
X2352Y1300D01*
X2365Y1270D01*
X2385Y1243D01*
X2412Y1223D01*
X2442Y1210D01*
X2475Y1206D01*
X2508Y1210D01*
X2538Y1223D01*
X2565Y1243D01*
X2585Y1270D01*
X2598Y1300D01*
X2602Y1333D01*
X2598Y1366D01*
X2585Y1396D01*
X2565Y1423D01*
X2538Y1443D01*
X2514Y1453D01*
Y1467D01*
X2538Y1477D01*
X2565Y1497D01*
X2585Y1524D01*
X2598Y1554D01*
X2602Y1587D01*
X2598Y1620D01*
X2585Y1650D01*
X2565Y1677D01*
X2551Y1687D01*
X2555Y1700D01*
X4795D01*
X4799Y1687D01*
X4785Y1677D01*
X4765Y1650D01*
X4752Y1620D01*
X4748Y1587D01*
X4752Y1554D01*
X4765Y1524D01*
X4785Y1497D01*
X4812Y1477D01*
X4836Y1467D01*
Y1453D01*
X4812Y1443D01*
X4785Y1423D01*
X4765Y1396D01*
X4752Y1366D01*
X4748Y1333D01*
X4752Y1300D01*
X4765Y1270D01*
X4785Y1243D01*
X4812Y1223D01*
X4842Y1210D01*
X4875Y1206D01*
X4908Y1210D01*
X4938Y1223D01*
X4965Y1243D01*
X4985Y1270D01*
X4998Y1300D01*
X5002Y1333D01*
X4998Y1366D01*
X4985Y1396D01*
X4965Y1423D01*
X4938Y1443D01*
X4914Y1453D01*
Y1467D01*
X4938Y1477D01*
X4965Y1497D01*
X4985Y1524D01*
X4998Y1554D01*
X5002Y1587D01*
X4998Y1620D01*
X4985Y1650D01*
X4965Y1677D01*
X4951Y1687D01*
X4955Y1700D01*
X7195D01*
X7199Y1687D01*
X7185Y1677D01*
X7165Y1650D01*
X7152Y1620D01*
X7148Y1587D01*
X7152Y1554D01*
X7165Y1524D01*
X7185Y1497D01*
X7212Y1477D01*
X7236Y1467D01*
Y1453D01*
X7212Y1443D01*
X7185Y1423D01*
X7165Y1396D01*
X7152Y1366D01*
X7148Y1333D01*
X7152Y1300D01*
X7165Y1270D01*
X7185Y1243D01*
X7212Y1223D01*
X7242Y1210D01*
X7275Y1206D01*
X7308Y1210D01*
X7338Y1223D01*
X7365Y1243D01*
X7385Y1270D01*
X7398Y1300D01*
X7402Y1333D01*
X7398Y1366D01*
X7385Y1396D01*
X7365Y1423D01*
X7338Y1443D01*
X7314Y1453D01*
Y1467D01*
X7338Y1477D01*
X7365Y1497D01*
X7385Y1524D01*
X7398Y1554D01*
X7402Y1587D01*
X7398Y1620D01*
X7385Y1650D01*
X7365Y1677D01*
X7351Y1687D01*
X7355Y1700D01*
X9595D01*
X9599Y1687D01*
X9585Y1677D01*
X9565Y1650D01*
X9552Y1620D01*
X9548Y1587D01*
X9552Y1554D01*
X9565Y1524D01*
X9585Y1497D01*
X9612Y1477D01*
X9636Y1467D01*
Y1453D01*
X9612Y1443D01*
X9585Y1423D01*
X9565Y1396D01*
X9552Y1366D01*
X9548Y1333D01*
X9552Y1300D01*
X9565Y1270D01*
X9585Y1243D01*
X9612Y1223D01*
X9642Y1210D01*
X9675Y1206D01*
X9708Y1210D01*
X9738Y1223D01*
X9765Y1243D01*
X9785Y1270D01*
X9798Y1300D01*
X9802Y1333D01*
X9798Y1366D01*
X9785Y1396D01*
X9765Y1423D01*
X9738Y1443D01*
X9714Y1453D01*
Y1467D01*
X9738Y1477D01*
X9765Y1497D01*
X9785Y1524D01*
X9798Y1554D01*
X9802Y1587D01*
X9798Y1620D01*
X9785Y1650D01*
X9765Y1677D01*
X9751Y1687D01*
X9755Y1700D01*
X11995Y1700D01*
X11999Y1687D01*
X11985Y1677D01*
X11965Y1650D01*
X11952Y1620D01*
X11948Y1587D01*
X11952Y1554D01*
X11965Y1524D01*
X11985Y1497D01*
X12012Y1477D01*
X12036Y1467D01*
Y1453D01*
X12012Y1443D01*
X11985Y1423D01*
X11965Y1396D01*
X11952Y1366D01*
X11948Y1333D01*
X11952Y1300D01*
X11965Y1270D01*
X11985Y1243D01*
X12012Y1223D01*
X12042Y1210D01*
X12075Y1206D01*
X12108Y1210D01*
X12138Y1223D01*
X12165Y1243D01*
X12185Y1270D01*
X12198Y1300D01*
X12202Y1333D01*
X12198Y1366D01*
X12185Y1396D01*
X12165Y1423D01*
X12138Y1443D01*
X12114Y1453D01*
Y1467D01*
X12138Y1477D01*
X12165Y1497D01*
X12185Y1524D01*
X12198Y1554D01*
X12202Y1587D01*
X12198Y1620D01*
X12185Y1650D01*
X12165Y1677D01*
X12151Y1687D01*
X12155Y1700D01*
X14395D01*
X14399Y1687D01*
X14385Y1677D01*
X14365Y1650D01*
X14352Y1620D01*
X14348Y1587D01*
X14352Y1554D01*
X14365Y1524D01*
X14385Y1497D01*
X14412Y1477D01*
X14436Y1467D01*
Y1453D01*
X14412Y1443D01*
X14385Y1423D01*
X14365Y1396D01*
X14352Y1366D01*
X14348Y1333D01*
X14352Y1300D01*
X14365Y1270D01*
X14385Y1243D01*
X14412Y1223D01*
X14442Y1210D01*
X14475Y1206D01*
X14508Y1210D01*
X14538Y1223D01*
X14565Y1243D01*
X14585Y1270D01*
X14598Y1300D01*
X14602Y1333D01*
X14598Y1366D01*
X14585Y1396D01*
X14565Y1423D01*
X14538Y1443D01*
X14514Y1453D01*
Y1467D01*
X14538Y1477D01*
X14565Y1497D01*
X14585Y1524D01*
X14598Y1554D01*
X14602Y1587D01*
X14598Y1620D01*
X14585Y1650D01*
X14565Y1677D01*
X14551Y1687D01*
X14555Y1700D01*
X16795D01*
X16799Y1687D01*
X16785Y1677D01*
X16765Y1650D01*
X16752Y1620D01*
X16748Y1587D01*
X16752Y1554D01*
X16765Y1524D01*
X16785Y1497D01*
X16812Y1477D01*
X16836Y1467D01*
Y1453D01*
X16812Y1443D01*
X16785Y1423D01*
X16765Y1396D01*
X16752Y1366D01*
X16748Y1333D01*
X16752Y1300D01*
X16765Y1270D01*
X16785Y1243D01*
X16812Y1223D01*
X16842Y1210D01*
X16875Y1206D01*
X16908Y1210D01*
X16938Y1223D01*
X16965Y1243D01*
X16985Y1270D01*
X16998Y1300D01*
X17002Y1333D01*
X16998Y1366D01*
X16985Y1396D01*
X16965Y1423D01*
X16938Y1443D01*
X16914Y1453D01*
Y1467D01*
X16938Y1477D01*
X16965Y1497D01*
X16985Y1524D01*
X16998Y1554D01*
X17002Y1587D01*
X16998Y1620D01*
X16985Y1650D01*
X16965Y1677D01*
X16951Y1687D01*
X16955Y1700D01*
X19195D01*
X19199Y1687D01*
X19185Y1677D01*
X19165Y1650D01*
X19152Y1620D01*
X19148Y1587D01*
X19152Y1554D01*
X19165Y1524D01*
X19185Y1497D01*
X19212Y1477D01*
X19236Y1467D01*
Y1453D01*
X19212Y1443D01*
X19185Y1423D01*
X19165Y1396D01*
X19152Y1366D01*
X19148Y1333D01*
X19152Y1300D01*
X19165Y1270D01*
X19185Y1243D01*
X19212Y1223D01*
X19242Y1210D01*
X19275Y1206D01*
X19308Y1210D01*
X19338Y1223D01*
X19365Y1243D01*
X19385Y1270D01*
X19387Y1275D01*
X19400Y1273D01*
Y709D01*
X19391Y700D01*
X13447D01*
X13438Y707D01*
X13395Y730D01*
X13349Y744D01*
X13300Y749D01*
X13251Y744D01*
X13205Y730D01*
X13162Y707D01*
X13153Y700D01*
X7047Y700D01*
X7038Y707D01*
X6995Y730D01*
X6949Y744D01*
X6900Y749D01*
X6851Y744D01*
X6805Y730D01*
X6762Y707D01*
X6753Y700D01*
X650D01*
Y1691D01*
X659Y1700D01*
X795D01*
D02*
G37*
%LPC*%
G36*
X12062Y1179D02*
X12049Y1177D01*
X12024Y1167D01*
X12003Y1151D01*
X11987Y1130D01*
X11977Y1105D01*
X11975Y1092D01*
X12062D01*
Y1179D01*
D02*
G37*
G36*
X12088D02*
Y1092D01*
X12175D01*
X12173Y1105D01*
X12163Y1130D01*
X12147Y1151D01*
X12126Y1167D01*
X12101Y1177D01*
X12088Y1179D01*
D02*
G37*
G36*
X9688D02*
Y1092D01*
X9775D01*
X9773Y1105D01*
X9763Y1130D01*
X9747Y1151D01*
X9726Y1167D01*
X9701Y1177D01*
X9688Y1179D01*
D02*
G37*
G36*
X7288D02*
Y1092D01*
X7375D01*
X7373Y1105D01*
X7363Y1130D01*
X7347Y1151D01*
X7326Y1167D01*
X7301Y1177D01*
X7288Y1179D01*
D02*
G37*
G36*
X9662D02*
X9649Y1177D01*
X9624Y1167D01*
X9603Y1151D01*
X9587Y1130D01*
X9577Y1105D01*
X9575Y1092D01*
X9662D01*
Y1179D01*
D02*
G37*
G36*
X14462D02*
X14449Y1177D01*
X14424Y1167D01*
X14403Y1151D01*
X14387Y1130D01*
X14377Y1105D01*
X14375Y1092D01*
X14462D01*
Y1179D01*
D02*
G37*
G36*
X19262D02*
X19249Y1177D01*
X19224Y1167D01*
X19203Y1151D01*
X19187Y1130D01*
X19177Y1105D01*
X19175Y1092D01*
X19262D01*
Y1179D01*
D02*
G37*
G36*
X19288D02*
Y1092D01*
X19375D01*
X19373Y1105D01*
X19363Y1130D01*
X19347Y1151D01*
X19326Y1167D01*
X19301Y1177D01*
X19288Y1179D01*
D02*
G37*
G36*
X16888D02*
Y1092D01*
X16975D01*
X16973Y1105D01*
X16963Y1130D01*
X16947Y1151D01*
X16926Y1167D01*
X16901Y1177D01*
X16888Y1179D01*
D02*
G37*
G36*
X14488D02*
Y1092D01*
X14575D01*
X14573Y1105D01*
X14563Y1130D01*
X14547Y1151D01*
X14526Y1167D01*
X14501Y1177D01*
X14488Y1179D01*
D02*
G37*
G36*
X16862D02*
X16849Y1177D01*
X16824Y1167D01*
X16803Y1151D01*
X16787Y1130D01*
X16777Y1105D01*
X16775Y1092D01*
X16862D01*
Y1179D01*
D02*
G37*
G36*
X19262Y1066D02*
X19175D01*
X19177Y1053D01*
X19187Y1028D01*
X19203Y1007D01*
X19224Y991D01*
X19249Y981D01*
X19262Y979D01*
Y1066D01*
D02*
G37*
G36*
X19375D02*
X19288D01*
Y979D01*
X19301Y981D01*
X19326Y991D01*
X19347Y1007D01*
X19363Y1028D01*
X19373Y1053D01*
X19375Y1066D01*
D02*
G37*
G36*
X862Y1179D02*
X849Y1177D01*
X824Y1167D01*
X803Y1151D01*
X787Y1130D01*
X777Y1105D01*
X775Y1092D01*
X862D01*
Y1179D01*
D02*
G37*
G36*
X14575Y1066D02*
X14488D01*
Y979D01*
X14501Y981D01*
X14526Y991D01*
X14547Y1007D01*
X14563Y1028D01*
X14573Y1053D01*
X14575Y1066D01*
D02*
G37*
G36*
X16862D02*
X16775D01*
X16777Y1053D01*
X16787Y1028D01*
X16803Y1007D01*
X16824Y991D01*
X16849Y981D01*
X16862Y979D01*
Y1066D01*
D02*
G37*
G36*
X16975D02*
X16888D01*
Y979D01*
X16901Y981D01*
X16926Y991D01*
X16947Y1007D01*
X16963Y1028D01*
X16973Y1053D01*
X16975Y1066D01*
D02*
G37*
G36*
X4862Y1179D02*
X4849Y1177D01*
X4824Y1167D01*
X4803Y1151D01*
X4787Y1130D01*
X4777Y1105D01*
X4775Y1092D01*
X4862D01*
Y1179D01*
D02*
G37*
G36*
X4888D02*
Y1092D01*
X4975D01*
X4973Y1105D01*
X4963Y1130D01*
X4947Y1151D01*
X4926Y1167D01*
X4901Y1177D01*
X4888Y1179D01*
D02*
G37*
G36*
X7262D02*
X7249Y1177D01*
X7224Y1167D01*
X7203Y1151D01*
X7187Y1130D01*
X7177Y1105D01*
X7175Y1092D01*
X7262D01*
Y1179D01*
D02*
G37*
G36*
X888D02*
Y1092D01*
X975D01*
X973Y1105D01*
X963Y1130D01*
X947Y1151D01*
X926Y1167D01*
X901Y1177D01*
X888Y1179D01*
D02*
G37*
G36*
X2462D02*
X2449Y1177D01*
X2424Y1167D01*
X2403Y1151D01*
X2387Y1130D01*
X2377Y1105D01*
X2375Y1092D01*
X2462D01*
Y1179D01*
D02*
G37*
G36*
X2488D02*
Y1092D01*
X2575D01*
X2573Y1105D01*
X2563Y1130D01*
X2547Y1151D01*
X2526Y1167D01*
X2501Y1177D01*
X2488Y1179D01*
D02*
G37*
G36*
X862Y2449D02*
X849Y2447D01*
X824Y2437D01*
X803Y2421D01*
X787Y2400D01*
X777Y2375D01*
X775Y2362D01*
X862D01*
Y2449D01*
D02*
G37*
G36*
X19262D02*
X19249Y2447D01*
X19224Y2437D01*
X19203Y2421D01*
X19187Y2400D01*
X19177Y2375D01*
X19175Y2362D01*
X19262D01*
Y2449D01*
D02*
G37*
G36*
X19288D02*
Y2362D01*
X19375D01*
X19373Y2375D01*
X19363Y2400D01*
X19347Y2421D01*
X19326Y2437D01*
X19301Y2447D01*
X19288Y2449D01*
D02*
G37*
G36*
X862Y3465D02*
X849Y3463D01*
X824Y3453D01*
X803Y3437D01*
X787Y3416D01*
X777Y3391D01*
X775Y3378D01*
X862D01*
Y3465D01*
D02*
G37*
G36*
X14488Y2449D02*
Y2362D01*
X14575D01*
X14573Y2375D01*
X14563Y2400D01*
X14547Y2421D01*
X14526Y2437D01*
X14501Y2447D01*
X14488Y2449D01*
D02*
G37*
G36*
X16862D02*
X16849Y2447D01*
X16824Y2437D01*
X16803Y2421D01*
X16787Y2400D01*
X16777Y2375D01*
X16775Y2362D01*
X16862D01*
Y2449D01*
D02*
G37*
G36*
X16888D02*
Y2362D01*
X16975D01*
X16973Y2375D01*
X16963Y2400D01*
X16947Y2421D01*
X16926Y2437D01*
X16901Y2447D01*
X16888Y2449D01*
D02*
G37*
G36*
X4862Y3465D02*
X4849Y3463D01*
X4824Y3453D01*
X4803Y3437D01*
X4787Y3416D01*
X4777Y3391D01*
X4775Y3378D01*
X4862D01*
Y3465D01*
D02*
G37*
G36*
X4888D02*
Y3378D01*
X4975D01*
X4973Y3391D01*
X4963Y3416D01*
X4947Y3437D01*
X4926Y3453D01*
X4901Y3463D01*
X4888Y3465D01*
D02*
G37*
G36*
X7262D02*
X7249Y3463D01*
X7224Y3453D01*
X7203Y3437D01*
X7187Y3416D01*
X7177Y3391D01*
X7175Y3378D01*
X7262D01*
Y3465D01*
D02*
G37*
G36*
X888D02*
Y3378D01*
X975D01*
X973Y3391D01*
X963Y3416D01*
X947Y3437D01*
X926Y3453D01*
X901Y3463D01*
X888Y3465D01*
D02*
G37*
G36*
X2462D02*
X2449Y3463D01*
X2424Y3453D01*
X2403Y3437D01*
X2387Y3416D01*
X2377Y3391D01*
X2375Y3378D01*
X2462D01*
Y3465D01*
D02*
G37*
G36*
X2488D02*
Y3378D01*
X2575D01*
X2573Y3391D01*
X2563Y3416D01*
X2547Y3437D01*
X2526Y3453D01*
X2501Y3463D01*
X2488Y3465D01*
D02*
G37*
G36*
X4862Y2449D02*
X4849Y2447D01*
X4824Y2437D01*
X4803Y2421D01*
X4787Y2400D01*
X4777Y2375D01*
X4775Y2362D01*
X4862D01*
Y2449D01*
D02*
G37*
G36*
X4888D02*
Y2362D01*
X4975D01*
X4973Y2375D01*
X4963Y2400D01*
X4947Y2421D01*
X4926Y2437D01*
X4901Y2447D01*
X4888Y2449D01*
D02*
G37*
G36*
X7262D02*
X7249Y2447D01*
X7224Y2437D01*
X7203Y2421D01*
X7187Y2400D01*
X7177Y2375D01*
X7175Y2362D01*
X7262D01*
Y2449D01*
D02*
G37*
G36*
X888D02*
Y2362D01*
X975D01*
X973Y2375D01*
X963Y2400D01*
X947Y2421D01*
X926Y2437D01*
X901Y2447D01*
X888Y2449D01*
D02*
G37*
G36*
X2462D02*
X2449Y2447D01*
X2424Y2437D01*
X2403Y2421D01*
X2387Y2400D01*
X2377Y2375D01*
X2375Y2362D01*
X2462D01*
Y2449D01*
D02*
G37*
G36*
X2488D02*
Y2362D01*
X2575D01*
X2573Y2375D01*
X2563Y2400D01*
X2547Y2421D01*
X2526Y2437D01*
X2501Y2447D01*
X2488Y2449D01*
D02*
G37*
G36*
X12062D02*
X12049Y2447D01*
X12024Y2437D01*
X12003Y2421D01*
X11987Y2400D01*
X11977Y2375D01*
X11975Y2362D01*
X12062D01*
Y2449D01*
D02*
G37*
G36*
X12088D02*
Y2362D01*
X12175D01*
X12173Y2375D01*
X12163Y2400D01*
X12147Y2421D01*
X12126Y2437D01*
X12101Y2447D01*
X12088Y2449D01*
D02*
G37*
G36*
X14462D02*
X14449Y2447D01*
X14424Y2437D01*
X14403Y2421D01*
X14387Y2400D01*
X14377Y2375D01*
X14375Y2362D01*
X14462D01*
Y2449D01*
D02*
G37*
G36*
X7288D02*
Y2362D01*
X7375D01*
X7373Y2375D01*
X7363Y2400D01*
X7347Y2421D01*
X7326Y2437D01*
X7301Y2447D01*
X7288Y2449D01*
D02*
G37*
G36*
X9662D02*
X9649Y2447D01*
X9624Y2437D01*
X9603Y2421D01*
X9587Y2400D01*
X9577Y2375D01*
X9575Y2362D01*
X9662D01*
Y2449D01*
D02*
G37*
G36*
X9688D02*
Y2362D01*
X9775D01*
X9773Y2375D01*
X9763Y2400D01*
X9747Y2421D01*
X9726Y2437D01*
X9701Y2447D01*
X9688Y2449D01*
D02*
G37*
G36*
X16975Y812D02*
X16888D01*
Y725D01*
X16975D01*
Y812D01*
D02*
G37*
G36*
X19262D02*
X19175D01*
Y725D01*
X19262D01*
Y812D01*
D02*
G37*
G36*
X19375D02*
X19288D01*
Y725D01*
X19375D01*
Y812D01*
D02*
G37*
G36*
X14462D02*
X14375D01*
Y725D01*
X14462D01*
Y812D01*
D02*
G37*
G36*
X14575D02*
X14488D01*
Y725D01*
X14575D01*
Y812D01*
D02*
G37*
G36*
X16862D02*
X16775D01*
Y725D01*
X16862D01*
Y812D01*
D02*
G37*
G36*
X2575Y925D02*
X2488D01*
Y838D01*
X2575D01*
Y925D01*
D02*
G37*
G36*
X4862D02*
X4775D01*
Y838D01*
X4862D01*
Y925D01*
D02*
G37*
G36*
X4975D02*
X4888D01*
Y838D01*
X4975D01*
Y925D01*
D02*
G37*
G36*
X862D02*
X775D01*
Y838D01*
X862D01*
Y925D01*
D02*
G37*
G36*
X975D02*
X888D01*
Y838D01*
X975D01*
Y925D01*
D02*
G37*
G36*
X2462D02*
X2375D01*
Y838D01*
X2462D01*
Y925D01*
D02*
G37*
G36*
X2575Y812D02*
X2488D01*
Y725D01*
X2575D01*
Y812D01*
D02*
G37*
G36*
X4862D02*
X4775D01*
Y725D01*
X4862D01*
Y812D01*
D02*
G37*
G36*
X4975D02*
X4888D01*
Y725D01*
X4975D01*
Y812D01*
D02*
G37*
G36*
X862D02*
X775D01*
Y725D01*
X862D01*
Y812D01*
D02*
G37*
G36*
X975D02*
X888D01*
Y725D01*
X975D01*
Y812D01*
D02*
G37*
G36*
X2462D02*
X2375D01*
Y725D01*
X2462D01*
Y812D01*
D02*
G37*
G36*
X9775D02*
X9688D01*
Y725D01*
X9775D01*
Y812D01*
D02*
G37*
G36*
X12062D02*
X11975D01*
Y725D01*
X12062D01*
Y812D01*
D02*
G37*
G36*
X12175D02*
X12088D01*
Y725D01*
X12175D01*
Y812D01*
D02*
G37*
G36*
X7262D02*
X7175D01*
Y725D01*
X7262D01*
Y812D01*
D02*
G37*
G36*
X7375D02*
X7288D01*
Y725D01*
X7375D01*
Y812D01*
D02*
G37*
G36*
X9662D02*
X9575D01*
Y725D01*
X9662D01*
Y812D01*
D02*
G37*
G36*
X7262Y925D02*
X7175D01*
Y838D01*
X7262D01*
Y925D01*
D02*
G37*
G36*
X4862Y1066D02*
X4775D01*
X4777Y1053D01*
X4787Y1028D01*
X4803Y1007D01*
X4824Y991D01*
X4849Y981D01*
X4862Y979D01*
Y1066D01*
D02*
G37*
G36*
X4975D02*
X4888D01*
Y979D01*
X4901Y981D01*
X4926Y991D01*
X4947Y1007D01*
X4963Y1028D01*
X4973Y1053D01*
X4975Y1066D01*
D02*
G37*
G36*
X7262D02*
X7175D01*
X7177Y1053D01*
X7187Y1028D01*
X7203Y1007D01*
X7224Y991D01*
X7249Y981D01*
X7262Y979D01*
Y1066D01*
D02*
G37*
G36*
X975D02*
X888D01*
Y979D01*
X901Y981D01*
X926Y991D01*
X947Y1007D01*
X963Y1028D01*
X973Y1053D01*
X975Y1066D01*
D02*
G37*
G36*
X2462D02*
X2375D01*
X2377Y1053D01*
X2387Y1028D01*
X2403Y1007D01*
X2424Y991D01*
X2449Y981D01*
X2462Y979D01*
Y1066D01*
D02*
G37*
G36*
X2575D02*
X2488D01*
Y979D01*
X2501Y981D01*
X2526Y991D01*
X2547Y1007D01*
X2563Y1028D01*
X2573Y1053D01*
X2575Y1066D01*
D02*
G37*
G36*
X12062D02*
X11975D01*
X11977Y1053D01*
X11987Y1028D01*
X12003Y1007D01*
X12024Y991D01*
X12049Y981D01*
X12062Y979D01*
Y1066D01*
D02*
G37*
G36*
X12175D02*
X12088D01*
Y979D01*
X12101Y981D01*
X12126Y991D01*
X12147Y1007D01*
X12163Y1028D01*
X12173Y1053D01*
X12175Y1066D01*
D02*
G37*
G36*
X14462D02*
X14375D01*
X14377Y1053D01*
X14387Y1028D01*
X14403Y1007D01*
X14424Y991D01*
X14449Y981D01*
X14462Y979D01*
Y1066D01*
D02*
G37*
G36*
X7375D02*
X7288D01*
Y979D01*
X7301Y981D01*
X7326Y991D01*
X7347Y1007D01*
X7363Y1028D01*
X7373Y1053D01*
X7375Y1066D01*
D02*
G37*
G36*
X9662D02*
X9575D01*
X9577Y1053D01*
X9587Y1028D01*
X9603Y1007D01*
X9624Y991D01*
X9649Y981D01*
X9662Y979D01*
Y1066D01*
D02*
G37*
G36*
X9775D02*
X9688D01*
Y979D01*
X9701Y981D01*
X9726Y991D01*
X9747Y1007D01*
X9763Y1028D01*
X9773Y1053D01*
X9775Y1066D01*
D02*
G37*
G36*
X12062Y925D02*
X11975D01*
Y838D01*
X12062D01*
Y925D01*
D02*
G37*
G36*
X12175D02*
X12088D01*
Y838D01*
X12175D01*
Y925D01*
D02*
G37*
G36*
X14462D02*
X14375D01*
Y838D01*
X14462D01*
Y925D01*
D02*
G37*
G36*
X7375D02*
X7288D01*
Y838D01*
X7375D01*
Y925D01*
D02*
G37*
G36*
X9662D02*
X9575D01*
Y838D01*
X9662D01*
Y925D01*
D02*
G37*
G36*
X9775D02*
X9688D01*
Y838D01*
X9775D01*
Y925D01*
D02*
G37*
G36*
X19262D02*
X19175D01*
Y838D01*
X19262D01*
Y925D01*
D02*
G37*
G36*
X19375D02*
X19288D01*
Y838D01*
X19375D01*
Y925D01*
D02*
G37*
G36*
X862Y1066D02*
X775D01*
X777Y1053D01*
X787Y1028D01*
X803Y1007D01*
X824Y991D01*
X849Y981D01*
X862Y979D01*
Y1066D01*
D02*
G37*
G36*
X14575Y925D02*
X14488D01*
Y838D01*
X14575D01*
Y925D01*
D02*
G37*
G36*
X16862D02*
X16775D01*
Y838D01*
X16862D01*
Y925D01*
D02*
G37*
G36*
X16975D02*
X16888D01*
Y838D01*
X16975D01*
Y925D01*
D02*
G37*
G36*
X1512Y5955D02*
Y5913D01*
X1554D01*
X1552Y5922D01*
X1540Y5941D01*
X1521Y5953D01*
X1512Y5955D01*
D02*
G37*
G36*
X12560Y6117D02*
X12539Y6114D01*
X12519Y6106D01*
X12502Y6093D01*
X12489Y6076D01*
X12481Y6056D01*
X12478Y6035D01*
X12481Y6014D01*
X12489Y5994D01*
X12502Y5977D01*
X12519Y5964D01*
X12539Y5956D01*
X12560Y5953D01*
X12581Y5956D01*
X12601Y5964D01*
X12618Y5977D01*
X12631Y5994D01*
X12639Y6014D01*
X12642Y6035D01*
X12639Y6056D01*
X12631Y6076D01*
X12618Y6093D01*
X12601Y6106D01*
X12581Y6114D01*
X12560Y6117D01*
D02*
G37*
G36*
X2960Y6147D02*
X2939Y6144D01*
X2919Y6136D01*
X2902Y6123D01*
X2889Y6106D01*
X2881Y6086D01*
X2878Y6065D01*
X2881Y6043D01*
X2889Y6024D01*
X2902Y6007D01*
X2919Y5994D01*
X2939Y5985D01*
X2960Y5983D01*
X2982Y5985D01*
X3001Y5994D01*
X3018Y6007D01*
X3031Y6024D01*
X3040Y6043D01*
X3042Y6065D01*
X3040Y6086D01*
X3031Y6106D01*
X3018Y6123D01*
X3001Y6136D01*
X2982Y6144D01*
X2960Y6147D01*
D02*
G37*
G36*
X1487Y5888D02*
X1445D01*
X1447Y5879D01*
X1459Y5860D01*
X1478Y5848D01*
X1487Y5846D01*
Y5888D01*
D02*
G37*
G36*
X1554D02*
X1512D01*
Y5846D01*
X1521Y5848D01*
X1540Y5860D01*
X1552Y5879D01*
X1554Y5888D01*
D02*
G37*
G36*
X1487Y5955D02*
X1478Y5953D01*
X1459Y5941D01*
X1447Y5922D01*
X1445Y5913D01*
X1487D01*
Y5955D01*
D02*
G37*
G36*
X5385Y6157D02*
X5364Y6154D01*
X5344Y6146D01*
X5327Y6133D01*
X5314Y6116D01*
X5306Y6096D01*
X5303Y6075D01*
X5306Y6054D01*
X5314Y6034D01*
X5327Y6017D01*
X5344Y6004D01*
X5364Y5996D01*
X5385Y5993D01*
X5406Y5996D01*
X5426Y6004D01*
X5443Y6017D01*
X5456Y6034D01*
X5464Y6054D01*
X5467Y6075D01*
X5464Y6096D01*
X5456Y6116D01*
X5443Y6133D01*
X5426Y6146D01*
X5406Y6154D01*
X5385Y6157D01*
D02*
G37*
G36*
X17360Y6172D02*
X17339Y6169D01*
X17319Y6161D01*
X17302Y6148D01*
X17289Y6131D01*
X17281Y6111D01*
X17278Y6090D01*
X17281Y6069D01*
X17289Y6049D01*
X17302Y6032D01*
X17319Y6019D01*
X17339Y6011D01*
X17360Y6008D01*
X17381Y6011D01*
X17401Y6019D01*
X17418Y6032D01*
X17431Y6049D01*
X17439Y6069D01*
X17442Y6090D01*
X17439Y6111D01*
X17431Y6131D01*
X17418Y6148D01*
X17401Y6161D01*
X17381Y6169D01*
X17360Y6172D01*
D02*
G37*
G36*
X19760D02*
X19739Y6169D01*
X19719Y6161D01*
X19702Y6148D01*
X19689Y6131D01*
X19681Y6111D01*
X19678Y6090D01*
X19681Y6069D01*
X19689Y6049D01*
X19702Y6032D01*
X19719Y6019D01*
X19739Y6011D01*
X19760Y6008D01*
X19781Y6011D01*
X19801Y6019D01*
X19818Y6032D01*
X19831Y6049D01*
X19839Y6069D01*
X19842Y6090D01*
X19839Y6111D01*
X19831Y6131D01*
X19818Y6148D01*
X19801Y6161D01*
X19781Y6169D01*
X19760Y6172D01*
D02*
G37*
G36*
X10160Y6147D02*
X10139Y6144D01*
X10119Y6136D01*
X10102Y6123D01*
X10089Y6106D01*
X10081Y6086D01*
X10078Y6065D01*
X10081Y6044D01*
X10089Y6024D01*
X10102Y6007D01*
X10119Y5994D01*
X10139Y5986D01*
X10160Y5983D01*
X10181Y5986D01*
X10201Y5994D01*
X10218Y6007D01*
X10231Y6024D01*
X10239Y6044D01*
X10242Y6065D01*
X10239Y6086D01*
X10231Y6106D01*
X10218Y6123D01*
X10201Y6136D01*
X10181Y6144D01*
X10160Y6147D01*
D02*
G37*
G36*
X7760Y6147D02*
X7739Y6144D01*
X7719Y6136D01*
X7702Y6123D01*
X7689Y6106D01*
X7681Y6086D01*
X7678Y6065D01*
X7681Y6044D01*
X7689Y6024D01*
X7702Y6007D01*
X7719Y5994D01*
X7739Y5986D01*
X7760Y5983D01*
X7781Y5986D01*
X7801Y5994D01*
X7818Y6007D01*
X7831Y6024D01*
X7839Y6044D01*
X7842Y6065D01*
X7839Y6086D01*
X7831Y6106D01*
X7818Y6123D01*
X7801Y6136D01*
X7781Y6144D01*
X7760Y6147D01*
D02*
G37*
G36*
X14985D02*
X14964Y6144D01*
X14944Y6136D01*
X14927Y6123D01*
X14914Y6106D01*
X14906Y6086D01*
X14903Y6065D01*
X14906Y6044D01*
X14914Y6024D01*
X14927Y6007D01*
X14944Y5994D01*
X14964Y5986D01*
X14985Y5983D01*
X15006Y5986D01*
X15026Y5994D01*
X15043Y6007D01*
X15056Y6024D01*
X15064Y6044D01*
X15067Y6065D01*
X15064Y6086D01*
X15056Y6106D01*
X15043Y6123D01*
X15026Y6136D01*
X15006Y6144D01*
X14985Y6147D01*
D02*
G37*
G36*
X19612Y5604D02*
X19603Y5603D01*
X19585Y5590D01*
X19572Y5572D01*
X19571Y5563D01*
X19612D01*
Y5604D01*
D02*
G37*
G36*
X19638D02*
Y5563D01*
X19679D01*
X19678Y5572D01*
X19665Y5590D01*
X19647Y5603D01*
X19638Y5604D01*
D02*
G37*
G36*
X2825Y5617D02*
X2816Y5615D01*
X2797Y5603D01*
X2785Y5584D01*
X2783Y5575D01*
X2825D01*
Y5617D01*
D02*
G37*
G36*
X17238Y5579D02*
Y5538D01*
X17279D01*
X17278Y5547D01*
X17265Y5565D01*
X17247Y5578D01*
X17238Y5579D01*
D02*
G37*
G36*
X14862Y5604D02*
X14853Y5603D01*
X14835Y5590D01*
X14822Y5572D01*
X14821Y5563D01*
X14862D01*
Y5604D01*
D02*
G37*
G36*
X14888D02*
Y5563D01*
X14929D01*
X14928Y5572D01*
X14915Y5590D01*
X14897Y5603D01*
X14888Y5604D01*
D02*
G37*
G36*
X11300Y5982D02*
X11279Y5979D01*
X11259Y5971D01*
X11242Y5958D01*
X11229Y5941D01*
X11221Y5921D01*
X11218Y5900D01*
X11221Y5879D01*
X11229Y5859D01*
X11242Y5842D01*
X11259Y5829D01*
X11279Y5821D01*
X11300Y5818D01*
X11321Y5821D01*
X11341Y5829D01*
X11358Y5842D01*
X11371Y5859D01*
X11379Y5879D01*
X11382Y5900D01*
X11379Y5921D01*
X11371Y5941D01*
X11358Y5958D01*
X11341Y5971D01*
X11321Y5979D01*
X11300Y5982D01*
D02*
G37*
G36*
X16575Y6007D02*
X16554Y6004D01*
X16534Y5996D01*
X16517Y5983D01*
X16504Y5966D01*
X16496Y5946D01*
X16493Y5925D01*
X16496Y5904D01*
X16504Y5884D01*
X16517Y5867D01*
X16534Y5854D01*
X16554Y5846D01*
X16575Y5843D01*
X16596Y5846D01*
X16616Y5854D01*
X16633Y5867D01*
X16646Y5884D01*
X16654Y5904D01*
X16657Y5925D01*
X16654Y5946D01*
X16646Y5966D01*
X16633Y5983D01*
X16616Y5996D01*
X16596Y6004D01*
X16575Y6007D01*
D02*
G37*
G36*
X14125Y6007D02*
X14104Y6004D01*
X14084Y5996D01*
X14067Y5983D01*
X14054Y5966D01*
X14046Y5946D01*
X14043Y5925D01*
X14046Y5904D01*
X14054Y5884D01*
X14067Y5867D01*
X14084Y5854D01*
X14104Y5846D01*
X14125Y5843D01*
X14146Y5846D01*
X14166Y5854D01*
X14183Y5867D01*
X14196Y5884D01*
X14204Y5904D01*
X14207Y5925D01*
X14204Y5946D01*
X14196Y5966D01*
X14183Y5983D01*
X14166Y5996D01*
X14146Y6004D01*
X14125Y6007D01*
D02*
G37*
G36*
X2850Y5617D02*
Y5575D01*
X2892D01*
X2890Y5584D01*
X2878Y5603D01*
X2859Y5615D01*
X2850Y5617D01*
D02*
G37*
G36*
X4465Y5922D02*
X4444Y5919D01*
X4424Y5911D01*
X4407Y5898D01*
X4394Y5881D01*
X4386Y5861D01*
X4383Y5840D01*
X4386Y5819D01*
X4394Y5799D01*
X4407Y5782D01*
X4424Y5769D01*
X4444Y5761D01*
X4465Y5758D01*
X4486Y5761D01*
X4506Y5769D01*
X4512Y5774D01*
X4527Y5769D01*
X4531Y5761D01*
X4544Y5744D01*
X4561Y5731D01*
X4581Y5723D01*
X4602Y5720D01*
X4623Y5723D01*
X4643Y5731D01*
X4660Y5744D01*
X4673Y5761D01*
X4681Y5781D01*
X4684Y5802D01*
X4681Y5823D01*
X4673Y5843D01*
X4660Y5860D01*
X4643Y5873D01*
X4623Y5881D01*
X4602Y5884D01*
X4581Y5881D01*
X4561Y5873D01*
X4555Y5868D01*
X4539Y5872D01*
X4536Y5881D01*
X4523Y5898D01*
X4506Y5911D01*
X4486Y5919D01*
X4465Y5922D01*
D02*
G37*
G36*
X6850Y5932D02*
X6829Y5929D01*
X6809Y5921D01*
X6792Y5908D01*
X6779Y5891D01*
X6771Y5871D01*
X6768Y5850D01*
X6771Y5829D01*
X6779Y5809D01*
X6792Y5792D01*
X6809Y5779D01*
X6829Y5771D01*
X6850Y5768D01*
X6871Y5771D01*
X6891Y5779D01*
X6908Y5792D01*
X6921Y5809D01*
X6929Y5829D01*
X6932Y5850D01*
X6929Y5871D01*
X6921Y5891D01*
X6908Y5908D01*
X6891Y5921D01*
X6871Y5929D01*
X6850Y5932D01*
D02*
G37*
G36*
X13518Y6182D02*
X13497Y6179D01*
X13477Y6171D01*
X13460Y6158D01*
X13447Y6141D01*
X13439Y6121D01*
X13436Y6100D01*
X13439Y6079D01*
X13447Y6059D01*
X13460Y6042D01*
X13477Y6029D01*
X13497Y6021D01*
X13518Y6018D01*
X13539Y6021D01*
X13559Y6029D01*
X13576Y6042D01*
X13589Y6059D01*
X13597Y6079D01*
X13600Y6100D01*
X13597Y6121D01*
X13589Y6141D01*
X13576Y6158D01*
X13559Y6171D01*
X13539Y6179D01*
X13518Y6182D01*
D02*
G37*
G36*
X5999Y6443D02*
X5990Y6441D01*
X5971Y6429D01*
X5959Y6410D01*
X5957Y6401D01*
X5999D01*
Y6443D01*
D02*
G37*
G36*
X6024D02*
Y6401D01*
X6066D01*
X6064Y6410D01*
X6052Y6429D01*
X6033Y6441D01*
X6024Y6443D01*
D02*
G37*
G36*
X3599Y6468D02*
X3590Y6466D01*
X3571Y6454D01*
X3559Y6435D01*
X3557Y6426D01*
X3599D01*
Y6468D01*
D02*
G37*
G36*
X6066Y6376D02*
X6024D01*
Y6334D01*
X6033Y6336D01*
X6052Y6348D01*
X6064Y6367D01*
X6066Y6376D01*
D02*
G37*
G36*
X3599Y6401D02*
X3557D01*
X3559Y6392D01*
X3571Y6373D01*
X3590Y6361D01*
X3599Y6359D01*
Y6401D01*
D02*
G37*
G36*
X3666D02*
X3624D01*
Y6359D01*
X3633Y6361D01*
X3652Y6373D01*
X3664Y6392D01*
X3666Y6401D01*
D02*
G37*
G36*
X6525Y6707D02*
X6504Y6704D01*
X6484Y6696D01*
X6467Y6683D01*
X6454Y6666D01*
X6446Y6646D01*
X6444Y6636D01*
X6440Y6633D01*
X6431Y6630D01*
X6414Y6637D01*
X6393Y6639D01*
X6371Y6637D01*
X6352Y6629D01*
X6335Y6615D01*
X6322Y6598D01*
X6313Y6579D01*
X6312Y6572D01*
X6299Y6565D01*
X6287Y6570D01*
X6266Y6572D01*
X6244Y6570D01*
X6225Y6562D01*
X6208Y6548D01*
X6195Y6531D01*
X6186Y6512D01*
X6184Y6491D01*
X6186Y6469D01*
X6195Y6450D01*
X6208Y6433D01*
X6225Y6420D01*
X6244Y6411D01*
X6266Y6409D01*
X6287Y6411D01*
X6306Y6420D01*
X6323Y6433D01*
X6337Y6450D01*
X6345Y6469D01*
X6346Y6476D01*
X6359Y6483D01*
X6371Y6478D01*
X6393Y6476D01*
X6414Y6478D01*
X6433Y6487D01*
X6450Y6500D01*
X6464Y6517D01*
X6472Y6536D01*
X6473Y6546D01*
X6478Y6550D01*
X6487Y6553D01*
X6504Y6546D01*
X6525Y6543D01*
X6546Y6546D01*
X6566Y6554D01*
X6583Y6567D01*
X6596Y6584D01*
X6604Y6604D01*
X6607Y6625D01*
X6604Y6646D01*
X6596Y6666D01*
X6583Y6683D01*
X6566Y6696D01*
X6546Y6704D01*
X6525Y6707D01*
D02*
G37*
G36*
X5885Y6797D02*
X5863Y6795D01*
X5844Y6786D01*
X5827Y6773D01*
X5814Y6756D01*
X5805Y6737D01*
X5803Y6716D01*
X5805Y6694D01*
X5814Y6675D01*
X5827Y6658D01*
X5844Y6645D01*
X5863Y6636D01*
X5885Y6634D01*
X5906Y6636D01*
X5925Y6645D01*
X5942Y6658D01*
X5956Y6675D01*
X5964Y6694D01*
X5966Y6716D01*
X5964Y6737D01*
X5956Y6756D01*
X5942Y6773D01*
X5925Y6786D01*
X5906Y6795D01*
X5885Y6797D01*
D02*
G37*
G36*
X5015Y6842D02*
X4994Y6839D01*
X4974Y6831D01*
X4957Y6818D01*
X4944Y6801D01*
X4936Y6781D01*
X4933Y6760D01*
X4936Y6739D01*
X4944Y6719D01*
X4957Y6702D01*
X4974Y6689D01*
X4994Y6681D01*
X5015Y6678D01*
X5036Y6681D01*
X5056Y6689D01*
X5073Y6702D01*
X5086Y6719D01*
X5094Y6739D01*
X5097Y6760D01*
X5094Y6781D01*
X5086Y6801D01*
X5073Y6818D01*
X5056Y6831D01*
X5036Y6839D01*
X5015Y6842D01*
D02*
G37*
G36*
X3624Y6468D02*
Y6426D01*
X3666D01*
X3664Y6435D01*
X3652Y6454D01*
X3633Y6466D01*
X3624Y6468D01*
D02*
G37*
G36*
X3475Y6782D02*
X3454Y6779D01*
X3434Y6771D01*
X3417Y6758D01*
X3404Y6741D01*
X3396Y6721D01*
X3393Y6700D01*
X3396Y6679D01*
X3404Y6659D01*
X3417Y6642D01*
X3434Y6629D01*
X3454Y6621D01*
X3475Y6618D01*
X3496Y6621D01*
X3516Y6629D01*
X3533Y6642D01*
X3546Y6659D01*
X3554Y6679D01*
X3557Y6700D01*
X3554Y6721D01*
X3546Y6741D01*
X3533Y6758D01*
X3516Y6771D01*
X3496Y6779D01*
X3475Y6782D01*
D02*
G37*
G36*
X4100Y6682D02*
X4079Y6679D01*
X4059Y6671D01*
X4042Y6658D01*
X4029Y6641D01*
X4025Y6630D01*
X4017Y6622D01*
X4009Y6624D01*
X3996Y6629D01*
X3975Y6632D01*
X3954Y6629D01*
X3934Y6621D01*
X3917Y6608D01*
X3904Y6591D01*
X3900Y6580D01*
X3892Y6572D01*
X3884Y6574D01*
X3871Y6579D01*
X3850Y6582D01*
X3829Y6579D01*
X3809Y6571D01*
X3792Y6558D01*
X3779Y6541D01*
X3771Y6521D01*
X3768Y6500D01*
X3771Y6479D01*
X3779Y6459D01*
X3792Y6442D01*
X3809Y6429D01*
X3829Y6421D01*
X3850Y6418D01*
X3871Y6421D01*
X3891Y6429D01*
X3908Y6442D01*
X3921Y6459D01*
X3925Y6470D01*
X3933Y6478D01*
X3941Y6476D01*
X3954Y6471D01*
X3975Y6468D01*
X3996Y6471D01*
X4016Y6479D01*
X4033Y6492D01*
X4046Y6509D01*
X4050Y6520D01*
X4058Y6528D01*
X4066Y6526D01*
X4079Y6521D01*
X4100Y6518D01*
X4121Y6521D01*
X4141Y6529D01*
X4158Y6542D01*
X4171Y6559D01*
X4179Y6579D01*
X4182Y6600D01*
X4179Y6621D01*
X4171Y6641D01*
X4158Y6658D01*
X4141Y6671D01*
X4121Y6679D01*
X4100Y6682D01*
D02*
G37*
G36*
X6894Y6072D02*
X6853D01*
Y6031D01*
X6862Y6033D01*
X6880Y6045D01*
X6892Y6063D01*
X6894Y6072D01*
D02*
G37*
G36*
X15868Y6232D02*
X15847Y6229D01*
X15827Y6221D01*
X15810Y6208D01*
X15797Y6191D01*
X15789Y6171D01*
X15786Y6150D01*
X15789Y6129D01*
X15797Y6109D01*
X15810Y6092D01*
X15827Y6079D01*
X15847Y6071D01*
X15868Y6068D01*
X15889Y6071D01*
X15909Y6079D01*
X15926Y6092D01*
X15939Y6109D01*
X15947Y6129D01*
X15950Y6150D01*
X15947Y6171D01*
X15939Y6191D01*
X15926Y6208D01*
X15909Y6221D01*
X15889Y6229D01*
X15868Y6232D01*
D02*
G37*
G36*
X4462Y6129D02*
X4453Y6127D01*
X4435Y6115D01*
X4422Y6097D01*
X4420Y6088D01*
X4462D01*
Y6129D01*
D02*
G37*
G36*
Y6062D02*
X4420D01*
X4422Y6053D01*
X4435Y6035D01*
X4453Y6022D01*
X4462Y6020D01*
Y6062D01*
D02*
G37*
G36*
X4529D02*
X4488D01*
Y6020D01*
X4497Y6022D01*
X4515Y6035D01*
X4527Y6053D01*
X4529Y6062D01*
D02*
G37*
G36*
X6827Y6072D02*
X6785D01*
X6787Y6063D01*
X6800Y6045D01*
X6818Y6033D01*
X6827Y6031D01*
Y6072D01*
D02*
G37*
G36*
X4875Y6282D02*
X4854Y6279D01*
X4834Y6271D01*
X4817Y6258D01*
X4804Y6241D01*
X4796Y6221D01*
X4793Y6200D01*
X4796Y6179D01*
X4804Y6159D01*
X4817Y6142D01*
X4834Y6129D01*
X4854Y6121D01*
X4875Y6118D01*
X4896Y6121D01*
X4916Y6129D01*
X4933Y6142D01*
X4946Y6159D01*
X4954Y6179D01*
X4957Y6200D01*
X4954Y6221D01*
X4946Y6241D01*
X4933Y6258D01*
X4916Y6271D01*
X4896Y6279D01*
X4875Y6282D01*
D02*
G37*
G36*
X5750Y6482D02*
X5729Y6479D01*
X5709Y6471D01*
X5692Y6458D01*
X5679Y6441D01*
X5671Y6421D01*
X5668Y6400D01*
X5671Y6379D01*
X5679Y6359D01*
X5692Y6342D01*
X5709Y6329D01*
X5729Y6321D01*
X5750Y6318D01*
X5771Y6321D01*
X5791Y6329D01*
X5808Y6342D01*
X5821Y6359D01*
X5829Y6379D01*
X5832Y6400D01*
X5829Y6421D01*
X5821Y6441D01*
X5808Y6458D01*
X5791Y6471D01*
X5771Y6479D01*
X5750Y6482D01*
D02*
G37*
G36*
X5999Y6376D02*
X5957D01*
X5959Y6367D01*
X5971Y6348D01*
X5990Y6336D01*
X5999Y6334D01*
Y6376D01*
D02*
G37*
G36*
X4488Y6129D02*
Y6088D01*
X4529D01*
X4527Y6097D01*
X4515Y6115D01*
X4497Y6127D01*
X4488Y6129D01*
D02*
G37*
G36*
X6827Y6140D02*
X6818Y6138D01*
X6800Y6125D01*
X6787Y6107D01*
X6785Y6098D01*
X6827D01*
Y6140D01*
D02*
G37*
G36*
X6853D02*
Y6098D01*
X6894D01*
X6892Y6107D01*
X6880Y6125D01*
X6862Y6138D01*
X6853Y6140D01*
D02*
G37*
G36*
X17212Y5579D02*
X17203Y5578D01*
X17185Y5565D01*
X17172Y5547D01*
X17171Y5538D01*
X17212D01*
Y5579D01*
D02*
G37*
G36*
X9675Y5778D02*
X9642Y5774D01*
X9612Y5761D01*
X9585Y5741D01*
X9565Y5714D01*
X9552Y5684D01*
X9548Y5651D01*
X9552Y5618D01*
X9565Y5588D01*
X9585Y5561D01*
X9612Y5541D01*
X9636Y5531D01*
Y5517D01*
X9612Y5507D01*
X9585Y5487D01*
X9565Y5460D01*
X9552Y5430D01*
X9548Y5397D01*
X9552Y5364D01*
X9565Y5334D01*
X9585Y5307D01*
X9612Y5287D01*
X9636Y5277D01*
Y5263D01*
X9612Y5253D01*
X9585Y5233D01*
X9565Y5206D01*
X9552Y5176D01*
X9548Y5143D01*
X9552Y5110D01*
X9565Y5080D01*
X9585Y5053D01*
X9612Y5033D01*
X9636Y5023D01*
Y5009D01*
X9612Y4999D01*
X9585Y4979D01*
X9565Y4952D01*
X9552Y4922D01*
X9548Y4889D01*
X9552Y4856D01*
X9565Y4826D01*
X9585Y4799D01*
X9612Y4779D01*
X9636Y4769D01*
Y4755D01*
X9612Y4745D01*
X9585Y4725D01*
X9565Y4698D01*
X9552Y4668D01*
X9548Y4635D01*
X9552Y4602D01*
X9565Y4572D01*
X9585Y4545D01*
X9612Y4525D01*
X9636Y4515D01*
Y4501D01*
X9612Y4491D01*
X9585Y4471D01*
X9565Y4444D01*
X9552Y4414D01*
X9548Y4381D01*
X9552Y4348D01*
X9565Y4318D01*
X9585Y4291D01*
X9612Y4271D01*
X9636Y4261D01*
Y4247D01*
X9612Y4237D01*
X9585Y4217D01*
X9565Y4190D01*
X9552Y4160D01*
X9548Y4127D01*
X9552Y4094D01*
X9565Y4064D01*
X9585Y4037D01*
X9612Y4017D01*
X9636Y4007D01*
Y3993D01*
X9612Y3983D01*
X9585Y3963D01*
X9565Y3936D01*
X9552Y3906D01*
X9548Y3873D01*
X9552Y3840D01*
X9565Y3810D01*
X9585Y3783D01*
X9612Y3763D01*
X9636Y3753D01*
Y3739D01*
X9612Y3729D01*
X9585Y3709D01*
X9565Y3682D01*
X9552Y3652D01*
X9548Y3619D01*
X9552Y3586D01*
X9565Y3556D01*
X9585Y3529D01*
X9612Y3509D01*
X9642Y3496D01*
X9675Y3492D01*
X9708Y3496D01*
X9738Y3509D01*
X9765Y3529D01*
X9785Y3556D01*
X9798Y3586D01*
X9802Y3619D01*
X9798Y3652D01*
X9785Y3682D01*
X9765Y3709D01*
X9738Y3729D01*
X9714Y3739D01*
Y3753D01*
X9738Y3763D01*
X9765Y3783D01*
X9785Y3810D01*
X9798Y3840D01*
X9802Y3873D01*
X9798Y3906D01*
X9785Y3936D01*
X9765Y3963D01*
X9738Y3983D01*
X9714Y3993D01*
Y4007D01*
X9738Y4017D01*
X9765Y4037D01*
X9785Y4064D01*
X9798Y4094D01*
X9802Y4127D01*
X9798Y4160D01*
X9785Y4190D01*
X9765Y4217D01*
X9738Y4237D01*
X9714Y4247D01*
Y4261D01*
X9738Y4271D01*
X9765Y4291D01*
X9785Y4318D01*
X9798Y4348D01*
X9802Y4381D01*
X9798Y4414D01*
X9785Y4444D01*
X9765Y4471D01*
X9738Y4491D01*
X9714Y4501D01*
Y4515D01*
X9738Y4525D01*
X9765Y4545D01*
X9785Y4572D01*
X9798Y4602D01*
X9802Y4635D01*
X9798Y4668D01*
X9785Y4698D01*
X9765Y4725D01*
X9738Y4745D01*
X9714Y4755D01*
Y4769D01*
X9738Y4779D01*
X9765Y4799D01*
X9785Y4826D01*
X9798Y4856D01*
X9802Y4889D01*
X9798Y4922D01*
X9785Y4952D01*
X9765Y4979D01*
X9738Y4999D01*
X9714Y5009D01*
Y5023D01*
X9738Y5033D01*
X9765Y5053D01*
X9785Y5080D01*
X9798Y5110D01*
X9802Y5143D01*
X9798Y5176D01*
X9785Y5206D01*
X9765Y5233D01*
X9738Y5253D01*
X9714Y5263D01*
Y5277D01*
X9738Y5287D01*
X9765Y5307D01*
X9785Y5334D01*
X9798Y5364D01*
X9802Y5397D01*
X9798Y5430D01*
X9785Y5460D01*
X9765Y5487D01*
X9738Y5507D01*
X9714Y5517D01*
Y5531D01*
X9738Y5541D01*
X9765Y5561D01*
X9785Y5588D01*
X9798Y5618D01*
X9802Y5651D01*
X9798Y5684D01*
X9785Y5714D01*
X9765Y5741D01*
X9738Y5761D01*
X9708Y5774D01*
X9675Y5778D01*
D02*
G37*
G36*
X12075D02*
X12042Y5774D01*
X12012Y5761D01*
X11985Y5741D01*
X11965Y5714D01*
X11952Y5684D01*
X11948Y5651D01*
X11952Y5618D01*
X11965Y5588D01*
X11985Y5561D01*
X12012Y5541D01*
X12036Y5531D01*
Y5517D01*
X12012Y5507D01*
X11985Y5487D01*
X11965Y5460D01*
X11952Y5430D01*
X11948Y5397D01*
X11952Y5364D01*
X11965Y5334D01*
X11985Y5307D01*
X12012Y5287D01*
X12036Y5277D01*
Y5263D01*
X12012Y5253D01*
X11985Y5233D01*
X11965Y5206D01*
X11952Y5176D01*
X11948Y5143D01*
X11952Y5110D01*
X11965Y5080D01*
X11985Y5053D01*
X12012Y5033D01*
X12036Y5023D01*
Y5009D01*
X12012Y4999D01*
X11985Y4979D01*
X11965Y4952D01*
X11952Y4922D01*
X11948Y4889D01*
X11952Y4856D01*
X11965Y4826D01*
X11985Y4799D01*
X12012Y4779D01*
X12036Y4769D01*
Y4755D01*
X12012Y4745D01*
X11985Y4725D01*
X11965Y4698D01*
X11952Y4668D01*
X11948Y4635D01*
X11952Y4602D01*
X11965Y4572D01*
X11985Y4545D01*
X12012Y4525D01*
X12036Y4515D01*
Y4501D01*
X12012Y4491D01*
X11985Y4471D01*
X11965Y4444D01*
X11952Y4414D01*
X11948Y4381D01*
X11952Y4348D01*
X11965Y4318D01*
X11985Y4291D01*
X12012Y4271D01*
X12036Y4261D01*
Y4247D01*
X12012Y4237D01*
X11985Y4217D01*
X11965Y4190D01*
X11952Y4160D01*
X11948Y4127D01*
X11952Y4094D01*
X11965Y4064D01*
X11985Y4037D01*
X12012Y4017D01*
X12036Y4007D01*
Y3993D01*
X12012Y3983D01*
X11985Y3963D01*
X11965Y3936D01*
X11952Y3906D01*
X11948Y3873D01*
X11952Y3840D01*
X11965Y3810D01*
X11985Y3783D01*
X12012Y3763D01*
X12036Y3753D01*
Y3739D01*
X12012Y3729D01*
X11985Y3709D01*
X11965Y3682D01*
X11952Y3652D01*
X11948Y3619D01*
X11952Y3586D01*
X11965Y3556D01*
X11985Y3529D01*
X12012Y3509D01*
X12042Y3496D01*
X12075Y3492D01*
X12108Y3496D01*
X12138Y3509D01*
X12165Y3529D01*
X12185Y3556D01*
X12198Y3586D01*
X12202Y3619D01*
X12198Y3652D01*
X12185Y3682D01*
X12165Y3709D01*
X12138Y3729D01*
X12114Y3739D01*
Y3753D01*
X12138Y3763D01*
X12165Y3783D01*
X12185Y3810D01*
X12198Y3840D01*
X12202Y3873D01*
X12198Y3906D01*
X12185Y3936D01*
X12165Y3963D01*
X12138Y3983D01*
X12114Y3993D01*
Y4007D01*
X12138Y4017D01*
X12165Y4037D01*
X12185Y4064D01*
X12198Y4094D01*
X12202Y4127D01*
X12198Y4160D01*
X12185Y4190D01*
X12165Y4217D01*
X12138Y4237D01*
X12114Y4247D01*
Y4261D01*
X12138Y4271D01*
X12165Y4291D01*
X12185Y4318D01*
X12198Y4348D01*
X12202Y4381D01*
X12198Y4414D01*
X12185Y4444D01*
X12165Y4471D01*
X12138Y4491D01*
X12114Y4501D01*
Y4515D01*
X12138Y4525D01*
X12165Y4545D01*
X12185Y4572D01*
X12198Y4602D01*
X12202Y4635D01*
X12198Y4668D01*
X12185Y4698D01*
X12165Y4725D01*
X12138Y4745D01*
X12114Y4755D01*
Y4769D01*
X12138Y4779D01*
X12165Y4799D01*
X12185Y4826D01*
X12198Y4856D01*
X12202Y4889D01*
X12198Y4922D01*
X12185Y4952D01*
X12165Y4979D01*
X12138Y4999D01*
X12114Y5009D01*
Y5023D01*
X12138Y5033D01*
X12165Y5053D01*
X12185Y5080D01*
X12198Y5110D01*
X12202Y5143D01*
X12198Y5176D01*
X12185Y5206D01*
X12165Y5233D01*
X12138Y5253D01*
X12114Y5263D01*
Y5277D01*
X12138Y5287D01*
X12165Y5307D01*
X12185Y5334D01*
X12198Y5364D01*
X12202Y5397D01*
X12198Y5430D01*
X12185Y5460D01*
X12165Y5487D01*
X12138Y5507D01*
X12114Y5517D01*
Y5531D01*
X12138Y5541D01*
X12165Y5561D01*
X12185Y5588D01*
X12198Y5618D01*
X12202Y5651D01*
X12198Y5684D01*
X12185Y5714D01*
X12165Y5741D01*
X12138Y5761D01*
X12108Y5774D01*
X12075Y5778D01*
D02*
G37*
G36*
X14475D02*
X14442Y5774D01*
X14412Y5761D01*
X14385Y5741D01*
X14365Y5714D01*
X14352Y5684D01*
X14348Y5651D01*
X14352Y5618D01*
X14365Y5588D01*
X14385Y5561D01*
X14412Y5541D01*
X14436Y5531D01*
Y5517D01*
X14412Y5507D01*
X14385Y5487D01*
X14365Y5460D01*
X14352Y5430D01*
X14348Y5397D01*
X14352Y5364D01*
X14365Y5334D01*
X14385Y5307D01*
X14412Y5287D01*
X14436Y5277D01*
Y5263D01*
X14412Y5253D01*
X14385Y5233D01*
X14365Y5206D01*
X14352Y5176D01*
X14348Y5143D01*
X14352Y5110D01*
X14365Y5080D01*
X14385Y5053D01*
X14412Y5033D01*
X14436Y5023D01*
Y5009D01*
X14412Y4999D01*
X14385Y4979D01*
X14365Y4952D01*
X14352Y4922D01*
X14348Y4889D01*
X14352Y4856D01*
X14365Y4826D01*
X14385Y4799D01*
X14412Y4779D01*
X14436Y4769D01*
Y4755D01*
X14412Y4745D01*
X14385Y4725D01*
X14365Y4698D01*
X14352Y4668D01*
X14348Y4635D01*
X14352Y4602D01*
X14365Y4572D01*
X14385Y4545D01*
X14412Y4525D01*
X14436Y4515D01*
Y4501D01*
X14412Y4491D01*
X14385Y4471D01*
X14365Y4444D01*
X14352Y4414D01*
X14348Y4381D01*
X14352Y4348D01*
X14365Y4318D01*
X14385Y4291D01*
X14412Y4271D01*
X14436Y4261D01*
Y4247D01*
X14412Y4237D01*
X14385Y4217D01*
X14365Y4190D01*
X14352Y4160D01*
X14348Y4127D01*
X14352Y4094D01*
X14365Y4064D01*
X14385Y4037D01*
X14412Y4017D01*
X14436Y4007D01*
Y3993D01*
X14412Y3983D01*
X14385Y3963D01*
X14365Y3936D01*
X14352Y3906D01*
X14348Y3873D01*
X14352Y3840D01*
X14365Y3810D01*
X14385Y3783D01*
X14412Y3763D01*
X14436Y3753D01*
Y3739D01*
X14412Y3729D01*
X14385Y3709D01*
X14365Y3682D01*
X14352Y3652D01*
X14348Y3619D01*
X14352Y3586D01*
X14365Y3556D01*
X14385Y3529D01*
X14412Y3509D01*
X14442Y3496D01*
X14475Y3492D01*
X14508Y3496D01*
X14538Y3509D01*
X14565Y3529D01*
X14585Y3556D01*
X14598Y3586D01*
X14602Y3619D01*
X14598Y3652D01*
X14585Y3682D01*
X14565Y3709D01*
X14538Y3729D01*
X14514Y3739D01*
Y3753D01*
X14538Y3763D01*
X14565Y3783D01*
X14585Y3810D01*
X14598Y3840D01*
X14602Y3873D01*
X14598Y3906D01*
X14585Y3936D01*
X14565Y3963D01*
X14538Y3983D01*
X14514Y3993D01*
Y4007D01*
X14538Y4017D01*
X14565Y4037D01*
X14585Y4064D01*
X14598Y4094D01*
X14602Y4127D01*
X14598Y4160D01*
X14585Y4190D01*
X14565Y4217D01*
X14538Y4237D01*
X14514Y4247D01*
Y4261D01*
X14538Y4271D01*
X14565Y4291D01*
X14585Y4318D01*
X14598Y4348D01*
X14602Y4381D01*
X14598Y4414D01*
X14585Y4444D01*
X14565Y4471D01*
X14538Y4491D01*
X14514Y4501D01*
Y4515D01*
X14538Y4525D01*
X14565Y4545D01*
X14585Y4572D01*
X14598Y4602D01*
X14602Y4635D01*
X14598Y4668D01*
X14585Y4698D01*
X14565Y4725D01*
X14538Y4745D01*
X14514Y4755D01*
Y4769D01*
X14538Y4779D01*
X14565Y4799D01*
X14585Y4826D01*
X14598Y4856D01*
X14602Y4889D01*
X14598Y4922D01*
X14585Y4952D01*
X14565Y4979D01*
X14538Y4999D01*
X14514Y5009D01*
Y5023D01*
X14538Y5033D01*
X14565Y5053D01*
X14585Y5080D01*
X14598Y5110D01*
X14602Y5143D01*
X14598Y5176D01*
X14585Y5206D01*
X14565Y5233D01*
X14538Y5253D01*
X14514Y5263D01*
Y5277D01*
X14538Y5287D01*
X14565Y5307D01*
X14585Y5334D01*
X14598Y5364D01*
X14602Y5397D01*
X14598Y5430D01*
X14585Y5460D01*
X14565Y5487D01*
X14538Y5507D01*
X14514Y5517D01*
Y5531D01*
X14538Y5541D01*
X14565Y5561D01*
X14585Y5588D01*
X14598Y5618D01*
X14602Y5651D01*
X14598Y5684D01*
X14585Y5714D01*
X14565Y5741D01*
X14538Y5761D01*
X14508Y5774D01*
X14475Y5778D01*
D02*
G37*
G36*
X2475D02*
X2442Y5774D01*
X2412Y5761D01*
X2385Y5741D01*
X2365Y5714D01*
X2352Y5684D01*
X2348Y5651D01*
X2352Y5618D01*
X2365Y5588D01*
X2385Y5561D01*
X2412Y5541D01*
X2436Y5531D01*
Y5517D01*
X2412Y5507D01*
X2385Y5487D01*
X2365Y5460D01*
X2352Y5430D01*
X2348Y5397D01*
X2352Y5364D01*
X2365Y5334D01*
X2385Y5307D01*
X2412Y5287D01*
X2436Y5277D01*
Y5263D01*
X2412Y5253D01*
X2385Y5233D01*
X2365Y5206D01*
X2352Y5176D01*
X2348Y5143D01*
X2352Y5110D01*
X2365Y5080D01*
X2385Y5053D01*
X2412Y5033D01*
X2436Y5023D01*
Y5009D01*
X2412Y4999D01*
X2385Y4979D01*
X2365Y4952D01*
X2352Y4922D01*
X2348Y4889D01*
X2352Y4856D01*
X2365Y4826D01*
X2385Y4799D01*
X2412Y4779D01*
X2436Y4769D01*
Y4755D01*
X2412Y4745D01*
X2385Y4725D01*
X2365Y4698D01*
X2352Y4668D01*
X2348Y4635D01*
X2352Y4602D01*
X2365Y4572D01*
X2385Y4545D01*
X2412Y4525D01*
X2436Y4515D01*
Y4501D01*
X2412Y4491D01*
X2385Y4471D01*
X2365Y4444D01*
X2352Y4414D01*
X2348Y4381D01*
X2352Y4348D01*
X2365Y4318D01*
X2385Y4291D01*
X2412Y4271D01*
X2436Y4261D01*
Y4247D01*
X2412Y4237D01*
X2385Y4217D01*
X2365Y4190D01*
X2352Y4160D01*
X2348Y4127D01*
X2352Y4094D01*
X2365Y4064D01*
X2385Y4037D01*
X2412Y4017D01*
X2436Y4007D01*
Y3993D01*
X2412Y3983D01*
X2385Y3963D01*
X2365Y3936D01*
X2352Y3906D01*
X2348Y3873D01*
X2352Y3840D01*
X2365Y3810D01*
X2385Y3783D01*
X2412Y3763D01*
X2436Y3753D01*
Y3739D01*
X2412Y3729D01*
X2385Y3709D01*
X2365Y3682D01*
X2352Y3652D01*
X2348Y3619D01*
X2352Y3586D01*
X2365Y3556D01*
X2385Y3529D01*
X2412Y3509D01*
X2442Y3496D01*
X2475Y3492D01*
X2508Y3496D01*
X2538Y3509D01*
X2565Y3529D01*
X2585Y3556D01*
X2598Y3586D01*
X2602Y3619D01*
X2598Y3652D01*
X2585Y3682D01*
X2565Y3709D01*
X2538Y3729D01*
X2514Y3739D01*
Y3753D01*
X2538Y3763D01*
X2565Y3783D01*
X2585Y3810D01*
X2598Y3840D01*
X2602Y3873D01*
X2598Y3906D01*
X2585Y3936D01*
X2565Y3963D01*
X2538Y3983D01*
X2514Y3993D01*
Y4007D01*
X2538Y4017D01*
X2565Y4037D01*
X2585Y4064D01*
X2598Y4094D01*
X2602Y4127D01*
X2598Y4160D01*
X2585Y4190D01*
X2565Y4217D01*
X2538Y4237D01*
X2514Y4247D01*
Y4261D01*
X2538Y4271D01*
X2565Y4291D01*
X2585Y4318D01*
X2598Y4348D01*
X2602Y4381D01*
X2598Y4414D01*
X2585Y4444D01*
X2565Y4471D01*
X2538Y4491D01*
X2514Y4501D01*
Y4515D01*
X2538Y4525D01*
X2565Y4545D01*
X2585Y4572D01*
X2598Y4602D01*
X2602Y4635D01*
X2598Y4668D01*
X2585Y4698D01*
X2565Y4725D01*
X2538Y4745D01*
X2514Y4755D01*
Y4769D01*
X2538Y4779D01*
X2565Y4799D01*
X2585Y4826D01*
X2598Y4856D01*
X2602Y4889D01*
X2598Y4922D01*
X2585Y4952D01*
X2565Y4979D01*
X2538Y4999D01*
X2514Y5009D01*
Y5023D01*
X2538Y5033D01*
X2565Y5053D01*
X2585Y5080D01*
X2598Y5110D01*
X2602Y5143D01*
X2598Y5176D01*
X2585Y5206D01*
X2565Y5233D01*
X2538Y5253D01*
X2514Y5263D01*
Y5277D01*
X2538Y5287D01*
X2565Y5307D01*
X2585Y5334D01*
X2598Y5364D01*
X2602Y5397D01*
X2598Y5430D01*
X2585Y5460D01*
X2565Y5487D01*
X2538Y5507D01*
X2514Y5517D01*
Y5531D01*
X2538Y5541D01*
X2565Y5561D01*
X2585Y5588D01*
X2598Y5618D01*
X2602Y5651D01*
X2598Y5684D01*
X2585Y5714D01*
X2565Y5741D01*
X2538Y5761D01*
X2508Y5774D01*
X2475Y5778D01*
D02*
G37*
G36*
X4875D02*
X4842Y5774D01*
X4812Y5761D01*
X4785Y5741D01*
X4765Y5714D01*
X4752Y5684D01*
X4748Y5651D01*
X4752Y5618D01*
X4765Y5588D01*
X4785Y5561D01*
X4812Y5541D01*
X4836Y5531D01*
Y5517D01*
X4812Y5507D01*
X4785Y5487D01*
X4765Y5460D01*
X4752Y5430D01*
X4748Y5397D01*
X4752Y5364D01*
X4765Y5334D01*
X4785Y5307D01*
X4812Y5287D01*
X4836Y5277D01*
Y5263D01*
X4812Y5253D01*
X4785Y5233D01*
X4765Y5206D01*
X4752Y5176D01*
X4748Y5143D01*
X4752Y5110D01*
X4765Y5080D01*
X4785Y5053D01*
X4812Y5033D01*
X4836Y5023D01*
Y5009D01*
X4812Y4999D01*
X4785Y4979D01*
X4765Y4952D01*
X4752Y4922D01*
X4748Y4889D01*
X4752Y4856D01*
X4765Y4826D01*
X4785Y4799D01*
X4812Y4779D01*
X4836Y4769D01*
Y4755D01*
X4812Y4745D01*
X4785Y4725D01*
X4765Y4698D01*
X4752Y4668D01*
X4748Y4635D01*
X4752Y4602D01*
X4765Y4572D01*
X4785Y4545D01*
X4812Y4525D01*
X4836Y4515D01*
Y4501D01*
X4812Y4491D01*
X4785Y4471D01*
X4765Y4444D01*
X4752Y4414D01*
X4748Y4381D01*
X4752Y4348D01*
X4765Y4318D01*
X4785Y4291D01*
X4812Y4271D01*
X4836Y4261D01*
Y4247D01*
X4812Y4237D01*
X4785Y4217D01*
X4765Y4190D01*
X4752Y4160D01*
X4748Y4127D01*
X4752Y4094D01*
X4765Y4064D01*
X4785Y4037D01*
X4812Y4017D01*
X4836Y4007D01*
Y3993D01*
X4812Y3983D01*
X4785Y3963D01*
X4765Y3936D01*
X4752Y3906D01*
X4748Y3873D01*
X4752Y3840D01*
X4765Y3810D01*
X4785Y3783D01*
X4812Y3763D01*
X4836Y3753D01*
Y3739D01*
X4812Y3729D01*
X4785Y3709D01*
X4765Y3682D01*
X4752Y3652D01*
X4748Y3619D01*
X4752Y3586D01*
X4765Y3556D01*
X4785Y3529D01*
X4812Y3509D01*
X4842Y3496D01*
X4875Y3492D01*
X4908Y3496D01*
X4938Y3509D01*
X4965Y3529D01*
X4985Y3556D01*
X4998Y3586D01*
X5002Y3619D01*
X4998Y3652D01*
X4985Y3682D01*
X4965Y3709D01*
X4938Y3729D01*
X4914Y3739D01*
Y3753D01*
X4938Y3763D01*
X4965Y3783D01*
X4985Y3810D01*
X4998Y3840D01*
X5002Y3873D01*
X4998Y3906D01*
X4985Y3936D01*
X4965Y3963D01*
X4938Y3983D01*
X4914Y3993D01*
Y4007D01*
X4938Y4017D01*
X4965Y4037D01*
X4985Y4064D01*
X4998Y4094D01*
X5002Y4127D01*
X4998Y4160D01*
X4985Y4190D01*
X4965Y4217D01*
X4938Y4237D01*
X4914Y4247D01*
Y4261D01*
X4938Y4271D01*
X4965Y4291D01*
X4985Y4318D01*
X4998Y4348D01*
X5002Y4381D01*
X4998Y4414D01*
X4985Y4444D01*
X4965Y4471D01*
X4938Y4491D01*
X4914Y4501D01*
Y4515D01*
X4938Y4525D01*
X4965Y4545D01*
X4985Y4572D01*
X4998Y4602D01*
X5002Y4635D01*
X4998Y4668D01*
X4985Y4698D01*
X4965Y4725D01*
X4938Y4745D01*
X4914Y4755D01*
Y4769D01*
X4938Y4779D01*
X4965Y4799D01*
X4985Y4826D01*
X4998Y4856D01*
X5002Y4889D01*
X4998Y4922D01*
X4985Y4952D01*
X4965Y4979D01*
X4938Y4999D01*
X4914Y5009D01*
Y5023D01*
X4938Y5033D01*
X4965Y5053D01*
X4985Y5080D01*
X4998Y5110D01*
X5002Y5143D01*
X4998Y5176D01*
X4985Y5206D01*
X4965Y5233D01*
X4938Y5253D01*
X4914Y5263D01*
Y5277D01*
X4938Y5287D01*
X4965Y5307D01*
X4985Y5334D01*
X4998Y5364D01*
X5002Y5397D01*
X4998Y5430D01*
X4985Y5460D01*
X4965Y5487D01*
X4938Y5507D01*
X4914Y5517D01*
Y5531D01*
X4938Y5541D01*
X4965Y5561D01*
X4985Y5588D01*
X4998Y5618D01*
X5002Y5651D01*
X4998Y5684D01*
X4985Y5714D01*
X4965Y5741D01*
X4938Y5761D01*
X4908Y5774D01*
X4875Y5778D01*
D02*
G37*
G36*
X7275D02*
X7242Y5774D01*
X7212Y5761D01*
X7185Y5741D01*
X7165Y5714D01*
X7152Y5684D01*
X7148Y5651D01*
X7152Y5618D01*
X7165Y5588D01*
X7185Y5561D01*
X7212Y5541D01*
X7236Y5531D01*
Y5517D01*
X7212Y5507D01*
X7185Y5487D01*
X7165Y5460D01*
X7152Y5430D01*
X7148Y5397D01*
X7152Y5364D01*
X7165Y5334D01*
X7185Y5307D01*
X7212Y5287D01*
X7236Y5277D01*
Y5263D01*
X7212Y5253D01*
X7185Y5233D01*
X7165Y5206D01*
X7152Y5176D01*
X7148Y5143D01*
X7152Y5110D01*
X7165Y5080D01*
X7185Y5053D01*
X7212Y5033D01*
X7236Y5023D01*
Y5009D01*
X7212Y4999D01*
X7185Y4979D01*
X7165Y4952D01*
X7152Y4922D01*
X7148Y4889D01*
X7152Y4856D01*
X7165Y4826D01*
X7185Y4799D01*
X7212Y4779D01*
X7236Y4769D01*
Y4755D01*
X7212Y4745D01*
X7185Y4725D01*
X7165Y4698D01*
X7152Y4668D01*
X7148Y4635D01*
X7152Y4602D01*
X7165Y4572D01*
X7185Y4545D01*
X7212Y4525D01*
X7236Y4515D01*
Y4501D01*
X7212Y4491D01*
X7185Y4471D01*
X7165Y4444D01*
X7152Y4414D01*
X7148Y4381D01*
X7152Y4348D01*
X7165Y4318D01*
X7185Y4291D01*
X7212Y4271D01*
X7236Y4261D01*
Y4247D01*
X7212Y4237D01*
X7185Y4217D01*
X7165Y4190D01*
X7152Y4160D01*
X7148Y4127D01*
X7152Y4094D01*
X7165Y4064D01*
X7185Y4037D01*
X7212Y4017D01*
X7236Y4007D01*
Y3993D01*
X7212Y3983D01*
X7185Y3963D01*
X7165Y3936D01*
X7152Y3906D01*
X7148Y3873D01*
X7152Y3840D01*
X7165Y3810D01*
X7185Y3783D01*
X7212Y3763D01*
X7236Y3753D01*
Y3739D01*
X7212Y3729D01*
X7185Y3709D01*
X7165Y3682D01*
X7152Y3652D01*
X7148Y3619D01*
X7152Y3586D01*
X7165Y3556D01*
X7185Y3529D01*
X7212Y3509D01*
X7242Y3496D01*
X7275Y3492D01*
X7308Y3496D01*
X7338Y3509D01*
X7365Y3529D01*
X7385Y3556D01*
X7398Y3586D01*
X7402Y3619D01*
X7398Y3652D01*
X7385Y3682D01*
X7365Y3709D01*
X7338Y3729D01*
X7314Y3739D01*
Y3753D01*
X7338Y3763D01*
X7365Y3783D01*
X7385Y3810D01*
X7398Y3840D01*
X7402Y3873D01*
X7398Y3906D01*
X7385Y3936D01*
X7365Y3963D01*
X7338Y3983D01*
X7314Y3993D01*
Y4007D01*
X7338Y4017D01*
X7365Y4037D01*
X7385Y4064D01*
X7398Y4094D01*
X7402Y4127D01*
X7398Y4160D01*
X7385Y4190D01*
X7365Y4217D01*
X7338Y4237D01*
X7314Y4247D01*
Y4261D01*
X7338Y4271D01*
X7365Y4291D01*
X7385Y4318D01*
X7398Y4348D01*
X7402Y4381D01*
X7398Y4414D01*
X7385Y4444D01*
X7365Y4471D01*
X7338Y4491D01*
X7314Y4501D01*
Y4515D01*
X7338Y4525D01*
X7365Y4545D01*
X7385Y4572D01*
X7398Y4602D01*
X7402Y4635D01*
X7398Y4668D01*
X7385Y4698D01*
X7365Y4725D01*
X7338Y4745D01*
X7314Y4755D01*
Y4769D01*
X7338Y4779D01*
X7365Y4799D01*
X7385Y4826D01*
X7398Y4856D01*
X7402Y4889D01*
X7398Y4922D01*
X7385Y4952D01*
X7365Y4979D01*
X7338Y4999D01*
X7314Y5009D01*
Y5023D01*
X7338Y5033D01*
X7365Y5053D01*
X7385Y5080D01*
X7398Y5110D01*
X7402Y5143D01*
X7398Y5176D01*
X7385Y5206D01*
X7365Y5233D01*
X7338Y5253D01*
X7314Y5263D01*
Y5277D01*
X7338Y5287D01*
X7365Y5307D01*
X7385Y5334D01*
X7398Y5364D01*
X7402Y5397D01*
X7398Y5430D01*
X7385Y5460D01*
X7365Y5487D01*
X7338Y5507D01*
X7314Y5517D01*
Y5531D01*
X7338Y5541D01*
X7365Y5561D01*
X7385Y5588D01*
X7398Y5618D01*
X7402Y5651D01*
X7398Y5684D01*
X7385Y5714D01*
X7365Y5741D01*
X7338Y5761D01*
X7308Y5774D01*
X7275Y5778D01*
D02*
G37*
G36*
X11300Y5157D02*
X11279Y5154D01*
X11259Y5146D01*
X11242Y5133D01*
X11229Y5116D01*
X11221Y5096D01*
X11218Y5075D01*
X11221Y5054D01*
X11229Y5034D01*
X11242Y5017D01*
X11259Y5004D01*
X11279Y4996D01*
X11300Y4993D01*
X11321Y4996D01*
X11341Y5004D01*
X11358Y5017D01*
X11371Y5034D01*
X11379Y5054D01*
X11382Y5075D01*
X11379Y5096D01*
X11371Y5116D01*
X11358Y5133D01*
X11341Y5146D01*
X11321Y5154D01*
X11300Y5157D01*
D02*
G37*
G36*
X12950Y5182D02*
X12929Y5179D01*
X12909Y5171D01*
X12892Y5158D01*
X12879Y5141D01*
X12871Y5121D01*
X12868Y5100D01*
X12871Y5079D01*
X12879Y5059D01*
X12892Y5042D01*
X12909Y5029D01*
X12929Y5021D01*
X12950Y5018D01*
X12971Y5021D01*
X12991Y5029D01*
X13008Y5042D01*
X13021Y5059D01*
X13029Y5079D01*
X13032Y5100D01*
X13029Y5121D01*
X13021Y5141D01*
X13008Y5158D01*
X12991Y5171D01*
X12971Y5179D01*
X12950Y5182D01*
D02*
G37*
G36*
X6650Y5632D02*
X6629Y5629D01*
X6609Y5621D01*
X6592Y5608D01*
X6579Y5591D01*
X6571Y5571D01*
X6569Y5556D01*
X6554Y5554D01*
X6534Y5546D01*
X6517Y5533D01*
X6504Y5516D01*
X6496Y5496D01*
X6494Y5481D01*
X6479Y5479D01*
X6459Y5471D01*
X6442Y5458D01*
X6429Y5441D01*
X6421Y5421D01*
X6419Y5405D01*
X6400Y5407D01*
X6379Y5404D01*
X6359Y5396D01*
X6342Y5383D01*
X6329Y5366D01*
X6321Y5346D01*
X6318Y5325D01*
X6321Y5304D01*
X6329Y5284D01*
X6342Y5267D01*
X6359Y5254D01*
X6379Y5246D01*
X6400Y5243D01*
X6421Y5246D01*
X6441Y5254D01*
X6458Y5267D01*
X6471Y5284D01*
X6479Y5304D01*
X6481Y5320D01*
X6500Y5318D01*
X6521Y5321D01*
X6541Y5329D01*
X6558Y5342D01*
X6571Y5359D01*
X6579Y5379D01*
X6581Y5394D01*
X6596Y5396D01*
X6616Y5404D01*
X6633Y5417D01*
X6646Y5434D01*
X6654Y5454D01*
X6656Y5469D01*
X6671Y5471D01*
X6691Y5479D01*
X6708Y5492D01*
X6721Y5509D01*
X6729Y5529D01*
X6732Y5550D01*
X6729Y5571D01*
X6721Y5591D01*
X6708Y5608D01*
X6691Y5621D01*
X6671Y5629D01*
X6650Y5632D01*
D02*
G37*
G36*
X16875Y5778D02*
X16842Y5774D01*
X16812Y5761D01*
X16785Y5741D01*
X16765Y5714D01*
X16752Y5684D01*
X16748Y5651D01*
X16752Y5618D01*
X16765Y5588D01*
X16785Y5561D01*
X16812Y5541D01*
X16836Y5531D01*
Y5517D01*
X16812Y5507D01*
X16785Y5487D01*
X16765Y5460D01*
X16752Y5430D01*
X16748Y5397D01*
X16752Y5364D01*
X16765Y5334D01*
X16785Y5307D01*
X16812Y5287D01*
X16836Y5277D01*
Y5263D01*
X16812Y5253D01*
X16785Y5233D01*
X16765Y5206D01*
X16752Y5176D01*
X16748Y5143D01*
X16752Y5110D01*
X16765Y5080D01*
X16785Y5053D01*
X16812Y5033D01*
X16836Y5023D01*
Y5009D01*
X16812Y4999D01*
X16785Y4979D01*
X16765Y4952D01*
X16752Y4922D01*
X16748Y4889D01*
X16752Y4856D01*
X16765Y4826D01*
X16785Y4799D01*
X16812Y4779D01*
X16836Y4769D01*
Y4755D01*
X16812Y4745D01*
X16785Y4725D01*
X16765Y4698D01*
X16752Y4668D01*
X16748Y4635D01*
X16752Y4602D01*
X16765Y4572D01*
X16785Y4545D01*
X16812Y4525D01*
X16836Y4515D01*
Y4501D01*
X16812Y4491D01*
X16785Y4471D01*
X16765Y4444D01*
X16752Y4414D01*
X16748Y4381D01*
X16752Y4348D01*
X16765Y4318D01*
X16785Y4291D01*
X16812Y4271D01*
X16836Y4261D01*
Y4247D01*
X16812Y4237D01*
X16785Y4217D01*
X16765Y4190D01*
X16752Y4160D01*
X16748Y4127D01*
X16752Y4094D01*
X16765Y4064D01*
X16785Y4037D01*
X16812Y4017D01*
X16836Y4007D01*
Y3993D01*
X16812Y3983D01*
X16785Y3963D01*
X16765Y3936D01*
X16752Y3906D01*
X16748Y3873D01*
X16752Y3840D01*
X16765Y3810D01*
X16785Y3783D01*
X16812Y3763D01*
X16836Y3753D01*
Y3739D01*
X16812Y3729D01*
X16785Y3709D01*
X16765Y3682D01*
X16752Y3652D01*
X16748Y3619D01*
X16752Y3586D01*
X16765Y3556D01*
X16785Y3529D01*
X16812Y3509D01*
X16842Y3496D01*
X16875Y3492D01*
X16908Y3496D01*
X16938Y3509D01*
X16965Y3529D01*
X16985Y3556D01*
X16998Y3586D01*
X17002Y3619D01*
X16998Y3652D01*
X16985Y3682D01*
X16965Y3709D01*
X16938Y3729D01*
X16914Y3739D01*
Y3753D01*
X16938Y3763D01*
X16965Y3783D01*
X16985Y3810D01*
X16998Y3840D01*
X17002Y3873D01*
X16998Y3906D01*
X16985Y3936D01*
X16965Y3963D01*
X16938Y3983D01*
X16914Y3993D01*
Y4007D01*
X16938Y4017D01*
X16965Y4037D01*
X16985Y4064D01*
X16998Y4094D01*
X17002Y4127D01*
X16998Y4160D01*
X16985Y4190D01*
X16965Y4217D01*
X16938Y4237D01*
X16914Y4247D01*
Y4261D01*
X16938Y4271D01*
X16965Y4291D01*
X16985Y4318D01*
X16998Y4348D01*
X17002Y4381D01*
X16998Y4414D01*
X16985Y4444D01*
X16965Y4471D01*
X16938Y4491D01*
X16914Y4501D01*
Y4515D01*
X16938Y4525D01*
X16965Y4545D01*
X16985Y4572D01*
X16998Y4602D01*
X17002Y4635D01*
X16998Y4668D01*
X16985Y4698D01*
X16965Y4725D01*
X16938Y4745D01*
X16914Y4755D01*
Y4769D01*
X16938Y4779D01*
X16965Y4799D01*
X16985Y4826D01*
X16998Y4856D01*
X17002Y4889D01*
X16998Y4922D01*
X16985Y4952D01*
X16965Y4979D01*
X16938Y4999D01*
X16914Y5009D01*
Y5023D01*
X16938Y5033D01*
X16965Y5053D01*
X16985Y5080D01*
X16998Y5110D01*
X17002Y5143D01*
X16998Y5176D01*
X16985Y5206D01*
X16965Y5233D01*
X16938Y5253D01*
X16914Y5263D01*
Y5277D01*
X16938Y5287D01*
X16965Y5307D01*
X16985Y5334D01*
X16998Y5364D01*
X17002Y5397D01*
X16998Y5430D01*
X16985Y5460D01*
X16965Y5487D01*
X16938Y5507D01*
X16914Y5517D01*
Y5531D01*
X16938Y5541D01*
X16965Y5561D01*
X16985Y5588D01*
X16998Y5618D01*
X17002Y5651D01*
X16998Y5684D01*
X16985Y5714D01*
X16965Y5741D01*
X16938Y5761D01*
X16908Y5774D01*
X16875Y5778D01*
D02*
G37*
G36*
X19275D02*
X19242Y5774D01*
X19212Y5761D01*
X19185Y5741D01*
X19165Y5714D01*
X19152Y5684D01*
X19148Y5651D01*
X19152Y5618D01*
X19165Y5588D01*
X19185Y5561D01*
X19212Y5541D01*
X19236Y5531D01*
Y5517D01*
X19212Y5507D01*
X19185Y5487D01*
X19165Y5460D01*
X19152Y5430D01*
X19148Y5397D01*
X19152Y5364D01*
X19165Y5334D01*
X19185Y5307D01*
X19212Y5287D01*
X19236Y5277D01*
Y5263D01*
X19212Y5253D01*
X19185Y5233D01*
X19165Y5206D01*
X19152Y5176D01*
X19148Y5143D01*
X19152Y5110D01*
X19165Y5080D01*
X19185Y5053D01*
X19212Y5033D01*
X19236Y5023D01*
Y5009D01*
X19212Y4999D01*
X19185Y4979D01*
X19165Y4952D01*
X19152Y4922D01*
X19148Y4889D01*
X19152Y4856D01*
X19165Y4826D01*
X19185Y4799D01*
X19212Y4779D01*
X19236Y4769D01*
Y4755D01*
X19212Y4745D01*
X19185Y4725D01*
X19165Y4698D01*
X19152Y4668D01*
X19148Y4635D01*
X19152Y4602D01*
X19165Y4572D01*
X19185Y4545D01*
X19212Y4525D01*
X19236Y4515D01*
Y4501D01*
X19212Y4491D01*
X19185Y4471D01*
X19165Y4444D01*
X19152Y4414D01*
X19148Y4381D01*
X19152Y4348D01*
X19165Y4318D01*
X19185Y4291D01*
X19212Y4271D01*
X19236Y4261D01*
Y4247D01*
X19212Y4237D01*
X19185Y4217D01*
X19165Y4190D01*
X19152Y4160D01*
X19148Y4127D01*
X19152Y4094D01*
X19165Y4064D01*
X19185Y4037D01*
X19212Y4017D01*
X19236Y4007D01*
Y3993D01*
X19212Y3983D01*
X19185Y3963D01*
X19165Y3936D01*
X19152Y3906D01*
X19148Y3873D01*
X19152Y3840D01*
X19165Y3810D01*
X19185Y3783D01*
X19212Y3763D01*
X19236Y3753D01*
Y3739D01*
X19212Y3729D01*
X19185Y3709D01*
X19165Y3682D01*
X19152Y3652D01*
X19148Y3619D01*
X19152Y3586D01*
X19165Y3556D01*
X19185Y3529D01*
X19212Y3509D01*
X19242Y3496D01*
X19275Y3492D01*
X19308Y3496D01*
X19338Y3509D01*
X19365Y3529D01*
X19385Y3556D01*
X19398Y3586D01*
X19402Y3619D01*
X19398Y3652D01*
X19385Y3682D01*
X19365Y3709D01*
X19338Y3729D01*
X19314Y3739D01*
Y3753D01*
X19338Y3763D01*
X19365Y3783D01*
X19385Y3810D01*
X19398Y3840D01*
X19402Y3873D01*
X19398Y3906D01*
X19385Y3936D01*
X19365Y3963D01*
X19338Y3983D01*
X19314Y3993D01*
Y4007D01*
X19338Y4017D01*
X19365Y4037D01*
X19385Y4064D01*
X19398Y4094D01*
X19402Y4127D01*
X19398Y4160D01*
X19385Y4190D01*
X19365Y4217D01*
X19338Y4237D01*
X19314Y4247D01*
Y4261D01*
X19338Y4271D01*
X19365Y4291D01*
X19385Y4318D01*
X19398Y4348D01*
X19402Y4381D01*
X19398Y4414D01*
X19385Y4444D01*
X19365Y4471D01*
X19338Y4491D01*
X19314Y4501D01*
Y4515D01*
X19338Y4525D01*
X19365Y4545D01*
X19385Y4572D01*
X19398Y4602D01*
X19402Y4635D01*
X19398Y4668D01*
X19385Y4698D01*
X19365Y4725D01*
X19338Y4745D01*
X19314Y4755D01*
Y4769D01*
X19338Y4779D01*
X19365Y4799D01*
X19385Y4826D01*
X19398Y4856D01*
X19402Y4889D01*
X19398Y4922D01*
X19385Y4952D01*
X19365Y4979D01*
X19338Y4999D01*
X19314Y5009D01*
Y5023D01*
X19338Y5033D01*
X19365Y5053D01*
X19385Y5080D01*
X19398Y5110D01*
X19402Y5143D01*
X19398Y5176D01*
X19385Y5206D01*
X19365Y5233D01*
X19338Y5253D01*
X19314Y5263D01*
Y5277D01*
X19338Y5287D01*
X19365Y5307D01*
X19385Y5334D01*
X19398Y5364D01*
X19402Y5397D01*
X19398Y5430D01*
X19385Y5460D01*
X19365Y5487D01*
X19338Y5507D01*
X19314Y5517D01*
Y5531D01*
X19338Y5541D01*
X19365Y5561D01*
X19385Y5588D01*
X19398Y5618D01*
X19402Y5651D01*
X19398Y5684D01*
X19385Y5714D01*
X19365Y5741D01*
X19338Y5761D01*
X19308Y5774D01*
X19275Y5778D01*
D02*
G37*
G36*
X4550Y5082D02*
X4529Y5079D01*
X4509Y5071D01*
X4492Y5058D01*
X4479Y5041D01*
X4471Y5021D01*
X4468Y5000D01*
X4471Y4979D01*
X4479Y4959D01*
X4492Y4942D01*
X4509Y4929D01*
X4529Y4921D01*
X4550Y4918D01*
X4571Y4921D01*
X4591Y4929D01*
X4608Y4942D01*
X4621Y4959D01*
X4629Y4979D01*
X4632Y5000D01*
X4629Y5021D01*
X4621Y5041D01*
X4608Y5058D01*
X4591Y5071D01*
X4571Y5079D01*
X4550Y5082D01*
D02*
G37*
G36*
X12062Y3465D02*
X12049Y3463D01*
X12024Y3453D01*
X12003Y3437D01*
X11987Y3416D01*
X11977Y3391D01*
X11975Y3378D01*
X12062D01*
Y3465D01*
D02*
G37*
G36*
X12088D02*
Y3378D01*
X12175D01*
X12173Y3391D01*
X12163Y3416D01*
X12147Y3437D01*
X12126Y3453D01*
X12101Y3463D01*
X12088Y3465D01*
D02*
G37*
G36*
X14462D02*
X14449Y3463D01*
X14424Y3453D01*
X14403Y3437D01*
X14387Y3416D01*
X14377Y3391D01*
X14375Y3378D01*
X14462D01*
Y3465D01*
D02*
G37*
G36*
X7288D02*
Y3378D01*
X7375D01*
X7373Y3391D01*
X7363Y3416D01*
X7347Y3437D01*
X7326Y3453D01*
X7301Y3463D01*
X7288Y3465D01*
D02*
G37*
G36*
X9662D02*
X9649Y3463D01*
X9624Y3453D01*
X9603Y3437D01*
X9587Y3416D01*
X9577Y3391D01*
X9575Y3378D01*
X9662D01*
Y3465D01*
D02*
G37*
G36*
X9688D02*
Y3378D01*
X9775D01*
X9773Y3391D01*
X9763Y3416D01*
X9747Y3437D01*
X9726Y3453D01*
X9701Y3463D01*
X9688Y3465D01*
D02*
G37*
G36*
X19262D02*
X19249Y3463D01*
X19224Y3453D01*
X19203Y3437D01*
X19187Y3416D01*
X19177Y3391D01*
X19175Y3378D01*
X19262D01*
Y3465D01*
D02*
G37*
G36*
X19288D02*
Y3378D01*
X19375D01*
X19373Y3391D01*
X19363Y3416D01*
X19347Y3437D01*
X19326Y3453D01*
X19301Y3463D01*
X19288Y3465D01*
D02*
G37*
G36*
X875Y6794D02*
X842Y6790D01*
X812Y6777D01*
X785Y6757D01*
X765Y6730D01*
X752Y6700D01*
X748Y6667D01*
X752Y6634D01*
X765Y6604D01*
X785Y6577D01*
X812Y6557D01*
X836Y6547D01*
Y6533D01*
X812Y6523D01*
X785Y6503D01*
X765Y6476D01*
X752Y6446D01*
X748Y6413D01*
X752Y6380D01*
X765Y6350D01*
X785Y6323D01*
X812Y6303D01*
X836Y6293D01*
Y6279D01*
X812Y6269D01*
X785Y6249D01*
X765Y6222D01*
X752Y6192D01*
X748Y6159D01*
X752Y6126D01*
X765Y6096D01*
X785Y6069D01*
X812Y6049D01*
X836Y6039D01*
Y6025D01*
X812Y6015D01*
X785Y5995D01*
X765Y5968D01*
X752Y5938D01*
X748Y5905D01*
X752Y5872D01*
X765Y5842D01*
X785Y5815D01*
X812Y5795D01*
X836Y5785D01*
Y5771D01*
X812Y5761D01*
X785Y5741D01*
X765Y5714D01*
X752Y5684D01*
X748Y5651D01*
X752Y5618D01*
X765Y5588D01*
X785Y5561D01*
X812Y5541D01*
X836Y5531D01*
Y5517D01*
X812Y5507D01*
X785Y5487D01*
X765Y5460D01*
X752Y5430D01*
X748Y5397D01*
X752Y5364D01*
X765Y5334D01*
X785Y5307D01*
X812Y5287D01*
X836Y5277D01*
Y5263D01*
X812Y5253D01*
X785Y5233D01*
X765Y5206D01*
X752Y5176D01*
X748Y5143D01*
X752Y5110D01*
X765Y5080D01*
X785Y5053D01*
X812Y5033D01*
X836Y5023D01*
Y5009D01*
X812Y4999D01*
X785Y4979D01*
X765Y4952D01*
X752Y4922D01*
X748Y4889D01*
X752Y4856D01*
X765Y4826D01*
X785Y4799D01*
X812Y4779D01*
X836Y4769D01*
Y4755D01*
X812Y4745D01*
X785Y4725D01*
X765Y4698D01*
X752Y4668D01*
X748Y4635D01*
X752Y4602D01*
X765Y4572D01*
X785Y4545D01*
X812Y4525D01*
X836Y4515D01*
Y4501D01*
X812Y4491D01*
X785Y4471D01*
X765Y4444D01*
X752Y4414D01*
X748Y4381D01*
X752Y4348D01*
X765Y4318D01*
X785Y4291D01*
X812Y4271D01*
X836Y4261D01*
Y4247D01*
X812Y4237D01*
X785Y4217D01*
X765Y4190D01*
X752Y4160D01*
X748Y4127D01*
X752Y4094D01*
X765Y4064D01*
X785Y4037D01*
X812Y4017D01*
X836Y4007D01*
Y3993D01*
X812Y3983D01*
X785Y3963D01*
X765Y3936D01*
X752Y3906D01*
X748Y3873D01*
X752Y3840D01*
X765Y3810D01*
X785Y3783D01*
X812Y3763D01*
X836Y3753D01*
Y3739D01*
X812Y3729D01*
X785Y3709D01*
X765Y3682D01*
X752Y3652D01*
X748Y3619D01*
X752Y3586D01*
X765Y3556D01*
X785Y3529D01*
X812Y3509D01*
X842Y3496D01*
X875Y3492D01*
X908Y3496D01*
X938Y3509D01*
X965Y3529D01*
X985Y3556D01*
X998Y3586D01*
X1002Y3619D01*
X998Y3652D01*
X985Y3682D01*
X965Y3709D01*
X938Y3729D01*
X914Y3739D01*
Y3753D01*
X938Y3763D01*
X965Y3783D01*
X985Y3810D01*
X998Y3840D01*
X1002Y3873D01*
X998Y3906D01*
X985Y3936D01*
X965Y3963D01*
X938Y3983D01*
X914Y3993D01*
Y4007D01*
X938Y4017D01*
X965Y4037D01*
X985Y4064D01*
X998Y4094D01*
X1002Y4127D01*
X998Y4160D01*
X985Y4190D01*
X965Y4217D01*
X938Y4237D01*
X914Y4247D01*
Y4261D01*
X938Y4271D01*
X965Y4291D01*
X985Y4318D01*
X998Y4348D01*
X1002Y4381D01*
X998Y4414D01*
X985Y4444D01*
X965Y4471D01*
X938Y4491D01*
X914Y4501D01*
Y4515D01*
X938Y4525D01*
X965Y4545D01*
X985Y4572D01*
X998Y4602D01*
X1002Y4635D01*
X998Y4668D01*
X985Y4698D01*
X965Y4725D01*
X938Y4745D01*
X914Y4755D01*
Y4769D01*
X938Y4779D01*
X965Y4799D01*
X985Y4826D01*
X998Y4856D01*
X1002Y4889D01*
X998Y4922D01*
X985Y4952D01*
X965Y4979D01*
X938Y4999D01*
X914Y5009D01*
Y5023D01*
X938Y5033D01*
X965Y5053D01*
X985Y5080D01*
X998Y5110D01*
X1002Y5143D01*
X998Y5176D01*
X985Y5206D01*
X965Y5233D01*
X938Y5253D01*
X914Y5263D01*
Y5277D01*
X938Y5287D01*
X965Y5307D01*
X985Y5334D01*
X998Y5364D01*
X1002Y5397D01*
X998Y5430D01*
X985Y5460D01*
X965Y5487D01*
X938Y5507D01*
X914Y5517D01*
Y5531D01*
X938Y5541D01*
X965Y5561D01*
X985Y5588D01*
X998Y5618D01*
X1002Y5651D01*
X998Y5684D01*
X985Y5714D01*
X965Y5741D01*
X938Y5761D01*
X914Y5771D01*
Y5785D01*
X938Y5795D01*
X965Y5815D01*
X985Y5842D01*
X998Y5872D01*
X1002Y5905D01*
X998Y5938D01*
X985Y5968D01*
X965Y5995D01*
X938Y6015D01*
X914Y6025D01*
Y6039D01*
X938Y6049D01*
X965Y6069D01*
X985Y6096D01*
X998Y6126D01*
X1002Y6159D01*
X998Y6192D01*
X985Y6222D01*
X965Y6249D01*
X938Y6269D01*
X914Y6279D01*
Y6293D01*
X938Y6303D01*
X965Y6323D01*
X985Y6350D01*
X998Y6380D01*
X1002Y6413D01*
X998Y6446D01*
X985Y6476D01*
X965Y6503D01*
X938Y6523D01*
X914Y6533D01*
Y6547D01*
X938Y6557D01*
X965Y6577D01*
X985Y6604D01*
X998Y6634D01*
X1002Y6667D01*
X998Y6700D01*
X985Y6730D01*
X965Y6757D01*
X938Y6777D01*
X908Y6790D01*
X875Y6794D01*
D02*
G37*
G36*
X14488Y3465D02*
Y3378D01*
X14575D01*
X14573Y3391D01*
X14563Y3416D01*
X14547Y3437D01*
X14526Y3453D01*
X14501Y3463D01*
X14488Y3465D01*
D02*
G37*
G36*
X16862D02*
X16849Y3463D01*
X16824Y3453D01*
X16803Y3437D01*
X16787Y3416D01*
X16777Y3391D01*
X16775Y3378D01*
X16862D01*
Y3465D01*
D02*
G37*
G36*
X16888D02*
Y3378D01*
X16975D01*
X16973Y3391D01*
X16963Y3416D01*
X16947Y3437D01*
X16926Y3453D01*
X16901Y3463D01*
X16888Y3465D01*
D02*
G37*
G36*
X3485Y5591D02*
X3463Y5589D01*
X3444Y5580D01*
X3427Y5567D01*
X3414Y5550D01*
X3405Y5531D01*
X3403Y5510D01*
X3405Y5488D01*
X3414Y5469D01*
X3427Y5452D01*
X3444Y5439D01*
X3463Y5430D01*
X3485Y5428D01*
X3506Y5430D01*
X3525Y5439D01*
X3542Y5452D01*
X3556Y5469D01*
X3564Y5488D01*
X3566Y5510D01*
X3564Y5531D01*
X3556Y5550D01*
X3542Y5567D01*
X3525Y5580D01*
X3506Y5589D01*
X3485Y5591D01*
D02*
G37*
G36*
X2892Y5550D02*
X2850D01*
Y5508D01*
X2859Y5510D01*
X2878Y5522D01*
X2890Y5541D01*
X2892Y5550D01*
D02*
G37*
G36*
X5237Y5579D02*
X5228Y5578D01*
X5210Y5565D01*
X5197Y5547D01*
X5196Y5538D01*
X5237D01*
Y5579D01*
D02*
G37*
G36*
X5263D02*
Y5538D01*
X5304D01*
X5303Y5547D01*
X5290Y5565D01*
X5272Y5578D01*
X5263Y5579D01*
D02*
G37*
G36*
X19612Y5537D02*
X19571D01*
X19572Y5528D01*
X19585Y5510D01*
X19603Y5497D01*
X19612Y5496D01*
Y5537D01*
D02*
G37*
G36*
X19679D02*
X19638D01*
Y5496D01*
X19647Y5497D01*
X19665Y5510D01*
X19678Y5528D01*
X19679Y5537D01*
D02*
G37*
G36*
X2825Y5550D02*
X2783D01*
X2785Y5541D01*
X2797Y5522D01*
X2816Y5510D01*
X2825Y5508D01*
Y5550D01*
D02*
G37*
G36*
X10063Y5579D02*
Y5538D01*
X10104D01*
X10103Y5547D01*
X10090Y5565D01*
X10072Y5578D01*
X10063Y5579D01*
D02*
G37*
G36*
X12437D02*
X12428Y5578D01*
X12410Y5565D01*
X12397Y5547D01*
X12396Y5538D01*
X12437D01*
Y5579D01*
D02*
G37*
G36*
X12463D02*
Y5538D01*
X12504D01*
X12503Y5547D01*
X12490Y5565D01*
X12472Y5578D01*
X12463Y5579D01*
D02*
G37*
G36*
X7612D02*
X7603Y5578D01*
X7585Y5565D01*
X7572Y5547D01*
X7571Y5538D01*
X7612D01*
Y5579D01*
D02*
G37*
G36*
X7638D02*
Y5538D01*
X7679D01*
X7678Y5547D01*
X7665Y5565D01*
X7647Y5578D01*
X7638Y5579D01*
D02*
G37*
G36*
X10037D02*
X10028Y5578D01*
X10010Y5565D01*
X9997Y5547D01*
X9996Y5538D01*
X10037D01*
Y5579D01*
D02*
G37*
G36*
X7679Y5512D02*
X7638D01*
Y5471D01*
X7647Y5472D01*
X7665Y5485D01*
X7678Y5503D01*
X7679Y5512D01*
D02*
G37*
G36*
X10037D02*
X9996D01*
X9997Y5503D01*
X10010Y5485D01*
X10028Y5472D01*
X10037Y5471D01*
Y5512D01*
D02*
G37*
G36*
X10104D02*
X10063D01*
Y5471D01*
X10072Y5472D01*
X10090Y5485D01*
X10103Y5503D01*
X10104Y5512D01*
D02*
G37*
G36*
X5237D02*
X5196D01*
X5197Y5503D01*
X5210Y5485D01*
X5228Y5472D01*
X5237Y5471D01*
Y5512D01*
D02*
G37*
G36*
X5304D02*
X5263D01*
Y5471D01*
X5272Y5472D01*
X5290Y5485D01*
X5303Y5503D01*
X5304Y5512D01*
D02*
G37*
G36*
X7612D02*
X7571D01*
X7572Y5503D01*
X7585Y5485D01*
X7603Y5472D01*
X7612Y5471D01*
Y5512D01*
D02*
G37*
G36*
X17279D02*
X17238D01*
Y5471D01*
X17247Y5472D01*
X17265Y5485D01*
X17278Y5503D01*
X17279Y5512D01*
D02*
G37*
G36*
X14862Y5537D02*
X14821D01*
X14822Y5528D01*
X14835Y5510D01*
X14853Y5497D01*
X14862Y5496D01*
Y5537D01*
D02*
G37*
G36*
X14929D02*
X14888D01*
Y5496D01*
X14897Y5497D01*
X14915Y5510D01*
X14928Y5528D01*
X14929Y5537D01*
D02*
G37*
G36*
X12437Y5512D02*
X12396D01*
X12397Y5503D01*
X12410Y5485D01*
X12428Y5472D01*
X12437Y5471D01*
Y5512D01*
D02*
G37*
G36*
X12504D02*
X12463D01*
Y5471D01*
X12472Y5472D01*
X12490Y5485D01*
X12503Y5503D01*
X12504Y5512D01*
D02*
G37*
G36*
X17212D02*
X17171D01*
X17172Y5503D01*
X17185Y5485D01*
X17203Y5472D01*
X17212Y5471D01*
Y5512D01*
D02*
G37*
%LPD*%
D15*
X19275Y825D02*
D03*
X2475D02*
D03*
X4875D02*
D03*
X7275D02*
D03*
X9675D02*
D03*
X12075D02*
D03*
X14475D02*
D03*
X16875D02*
D03*
X875D02*
D03*
D16*
X19275Y1079D02*
D03*
Y1841D02*
D03*
Y2095D02*
D03*
Y2349D02*
D03*
Y2857D02*
D03*
Y3365D02*
D03*
X2475Y1079D02*
D03*
Y1841D02*
D03*
Y2095D02*
D03*
Y2349D02*
D03*
Y2857D02*
D03*
Y3365D02*
D03*
X4875Y1079D02*
D03*
Y1841D02*
D03*
Y2095D02*
D03*
Y2349D02*
D03*
Y2857D02*
D03*
Y3365D02*
D03*
X7275Y1079D02*
D03*
Y1841D02*
D03*
Y2095D02*
D03*
Y2349D02*
D03*
Y2857D02*
D03*
Y3365D02*
D03*
X9675Y1079D02*
D03*
Y1841D02*
D03*
Y2095D02*
D03*
Y2349D02*
D03*
Y2857D02*
D03*
Y3365D02*
D03*
X12075Y1079D02*
D03*
Y1841D02*
D03*
Y2095D02*
D03*
Y2349D02*
D03*
Y2857D02*
D03*
Y3365D02*
D03*
X14475Y1079D02*
D03*
Y1841D02*
D03*
Y2095D02*
D03*
Y2349D02*
D03*
Y2857D02*
D03*
Y3365D02*
D03*
X16875Y1079D02*
D03*
Y1841D02*
D03*
Y2095D02*
D03*
Y2349D02*
D03*
Y2857D02*
D03*
Y3365D02*
D03*
X875D02*
D03*
Y2857D02*
D03*
Y2349D02*
D03*
Y2095D02*
D03*
Y1841D02*
D03*
Y1079D02*
D03*
D18*
X4475Y6075D02*
D03*
X6012Y6389D02*
D03*
X3612Y6414D02*
D03*
X6840Y6085D02*
D03*
X1499Y5901D02*
D03*
X5250Y5525D02*
D03*
X7625D02*
D03*
X10050D02*
D03*
X12450D02*
D03*
X14875Y5550D02*
D03*
X17225Y5525D02*
D03*
X19625Y5550D02*
D03*
X2838Y5563D02*
D03*
D19*
X16875Y1841D02*
X19275D01*
X16875Y2095D02*
X19275D01*
X14375Y1841D02*
X16875D01*
X9575D02*
X11975D01*
X14375D01*
X4775D02*
X7175D01*
X9575D01*
X775D02*
X2375D01*
X4775D01*
X14375Y2095D02*
X16875D01*
X9575D02*
X11975D01*
X14375D01*
X4775D02*
X7175D01*
X9575D01*
X775D02*
X2375D01*
X4775D01*
X16850Y2857D02*
X19250D01*
X14375D02*
X16850D01*
X11975D02*
X14375D01*
X775D02*
X2375D01*
X9575D02*
X11975D01*
X7175D02*
X9575D01*
X2375D02*
X4775D01*
X7175D01*
M02*
