%FSAX24Y24*%
%MOIN*%
G70*
G01*
G75*
G04 Layer_Physical_Order=3*
G04 Layer_Color=6736896*
%ADD10R,0.0354X0.0394*%
%ADD11R,0.3937X0.3937*%
%ADD12R,0.0366X0.0600*%
%ADD13C,0.0394*%
%ADD14R,0.0354X0.0276*%
%ADD15C,0.0080*%
%ADD16C,0.0620*%
%ADD17R,0.0620X0.0620*%
%ADD18C,0.2756*%
%ADD19C,0.0118*%
%ADD20C,0.0180*%
D15*
X028145Y018421D02*
X044640D01*
X019050D02*
X027955D01*
X019240Y018611D02*
X027765D01*
X019430Y018801D02*
X027575D01*
X019620Y018991D02*
X027385D01*
X019810Y019181D02*
X027195D01*
X020000Y019371D02*
X027005D01*
X020190Y019561D02*
X026815D01*
X020380Y019751D02*
X026625D01*
X020570Y019941D02*
X026435D01*
X020760Y020131D02*
X026055D01*
X026435Y019941D02*
Y020131D01*
X026625Y019751D02*
Y019941D01*
X026815Y019561D02*
Y019751D01*
X027005Y019371D02*
Y019561D01*
X027195Y019181D02*
Y019371D01*
X027385Y018991D02*
Y019181D01*
X027575Y018801D02*
Y018991D01*
X027765Y018611D02*
Y018801D01*
X027955Y018421D02*
Y018611D01*
X044450D01*
X027765Y018801D02*
X044260D01*
X027385Y019181D02*
X043880D01*
X027575Y018991D02*
X044070D01*
X027005Y019561D02*
X043500D01*
X027195Y019371D02*
X043690D01*
X026625Y019941D02*
X043120D01*
X026815Y019751D02*
X043310D01*
X026435Y020131D02*
X042930D01*
X044450Y018611D02*
Y043822D01*
X019240D02*
X044450D01*
X044260Y018801D02*
Y043632D01*
X019430D02*
X044260D01*
X019810Y043252D02*
X043880D01*
Y019181D02*
Y043252D01*
X019620Y043442D02*
X044070D01*
Y018991D02*
Y043442D01*
X020190Y042872D02*
X043500D01*
Y019561D02*
Y042872D01*
X020000Y043062D02*
X043690D01*
Y019371D02*
Y043062D01*
X020570Y042492D02*
X043120D01*
Y019941D02*
Y042492D01*
X020380Y042682D02*
X043310D01*
Y019751D02*
Y042682D01*
X020760Y042302D02*
X042930D01*
Y020131D02*
Y042302D01*
X019240Y018611D02*
Y043822D01*
X019430Y018801D02*
Y043632D01*
X019810Y019181D02*
Y043252D01*
X019620Y018991D02*
Y043442D01*
X020190Y019561D02*
Y042872D01*
X020000Y019371D02*
Y043062D01*
X020570Y019941D02*
Y042492D01*
X020380Y019751D02*
Y042682D01*
X020760Y020131D02*
Y042302D01*
X019050Y018421D02*
Y044012D01*
X044640D01*
Y018421D02*
Y044012D01*
X026055Y020321D02*
X026245D01*
X026055Y020131D02*
Y020321D01*
X028145Y018231D02*
Y018421D01*
D20*
X026245Y020321D02*
D03*
X028145Y018231D02*
D03*
M02*
