%FSAX24Y24*%
%MOIN*%
G70*
G01*
G75*
%ADD10R,0.0354X0.0394*%
%ADD11R,0.3937X0.3937*%
%ADD12R,0.0366X0.0600*%
%ADD13C,0.0394*%
%ADD14R,0.0354X0.0276*%
%ADD15C,0.0080*%
%ADD16C,0.0620*%
%ADD17R,0.0620X0.0620*%
%ADD18C,0.2756*%
%ADD19C,0.0118*%
%ADD20C,0.0180*%
D10*
X031565Y024452D02*
D03*
X032195D02*
D03*
D11*
X031071Y029026D02*
D03*
D12*
X032574Y026384D02*
D03*
X032074D02*
D03*
X031574D02*
D03*
X031074D02*
D03*
X030574D02*
D03*
X030074D02*
D03*
X029574D02*
D03*
D13*
X017410Y031217D02*
D03*
X031845Y045651D02*
D03*
X046280Y031217D02*
D03*
X031845Y016782D02*
D03*
D14*
X030074Y025038D02*
D03*
Y025629D02*
D03*
D16*
X039300Y034171D02*
D03*
X038300D02*
D03*
X037300D02*
D03*
X036300D02*
D03*
X035300D02*
D03*
X034300D02*
D03*
X033300D02*
D03*
X032300D02*
D03*
X031300D02*
D03*
X030300D02*
D03*
X029300D02*
D03*
X028300D02*
D03*
X027300D02*
D03*
X026300D02*
D03*
X025300D02*
D03*
X039300Y033171D02*
D03*
X038300D02*
D03*
X037300D02*
D03*
X036300D02*
D03*
X035300D02*
D03*
X034300D02*
D03*
X033300D02*
D03*
X032300D02*
D03*
X031300D02*
D03*
X030300D02*
D03*
X029300D02*
D03*
X028300D02*
D03*
X027300D02*
D03*
X026300D02*
D03*
D17*
X025300D02*
D03*
D18*
X048786Y016354D02*
D03*
X015046Y015370D02*
D03*
X048786Y045370D02*
D03*
X015046Y046866D02*
D03*
M02*
