%FSAX24Y24*%
%MOIN*%
G70*
G01*
G75*
G04 Layer_Color=16711935*
%ADD10R,0.0354X0.0394*%
%ADD11R,0.3937X0.3937*%
%ADD12R,0.0366X0.0600*%
%ADD13C,0.0394*%
%ADD14R,0.0354X0.0276*%
%ADD15C,0.0080*%
%ADD16C,0.0620*%
%ADD17R,0.0620X0.0620*%
%ADD18C,0.2756*%
%ADD19C,0.0118*%
%ADD20C,0.0180*%
%ADD21C,0.0100*%
%ADD22C,0.0079*%
%ADD23C,0.0020*%
%ADD24R,0.0434X0.0474*%
%ADD25R,0.4017X0.4017*%
%ADD26R,0.0446X0.0680*%
%ADD27C,0.0787*%
%ADD28R,0.0434X0.0356*%
%ADD29C,0.0700*%
%ADD30R,0.0700X0.0700*%
%ADD31C,0.2836*%
%ADD32C,0.0198*%
%ADD33C,0.0260*%
D29*
X039300Y034171D02*
D03*
X038300D02*
D03*
X037300D02*
D03*
X036300D02*
D03*
X035300D02*
D03*
X034300D02*
D03*
X033300D02*
D03*
X032300D02*
D03*
X031300D02*
D03*
X030300D02*
D03*
X029300D02*
D03*
X028300D02*
D03*
X027300D02*
D03*
X026300D02*
D03*
X025300D02*
D03*
X039300Y033171D02*
D03*
X038300D02*
D03*
X037300D02*
D03*
X036300D02*
D03*
X035300D02*
D03*
X034300D02*
D03*
X033300D02*
D03*
X032300D02*
D03*
X031300D02*
D03*
X030300D02*
D03*
X029300D02*
D03*
X028300D02*
D03*
X027300D02*
D03*
X026300D02*
D03*
D30*
X025300D02*
D03*
D31*
X048786Y016354D02*
D03*
X015046Y015370D02*
D03*
X048786Y045370D02*
D03*
X015046Y046866D02*
D03*
D32*
X032724Y027373D02*
D03*
X032252D02*
D03*
X031779D02*
D03*
X031307D02*
D03*
X030834D02*
D03*
X030362D02*
D03*
X029889D02*
D03*
X029417D02*
D03*
X032724Y027855D02*
D03*
X032252D02*
D03*
X031779D02*
D03*
X031307D02*
D03*
X030834D02*
D03*
X030362D02*
D03*
X029889D02*
D03*
X029417D02*
D03*
X032724Y028317D02*
D03*
X032252D02*
D03*
X031779D02*
D03*
X031307D02*
D03*
X030834D02*
D03*
X030362D02*
D03*
X029889D02*
D03*
X029417D02*
D03*
X032724Y028790D02*
D03*
X032252D02*
D03*
X031779D02*
D03*
X031307D02*
D03*
X030834D02*
D03*
X030362D02*
D03*
X029889D02*
D03*
X029417D02*
D03*
X032724Y029262D02*
D03*
X032252D02*
D03*
X031779D02*
D03*
X031307D02*
D03*
X030834D02*
D03*
X030362D02*
D03*
X029889D02*
D03*
X029417D02*
D03*
X032724Y029735D02*
D03*
X032252D02*
D03*
X031779D02*
D03*
X031307D02*
D03*
X030834D02*
D03*
X030362D02*
D03*
X029889D02*
D03*
X029417D02*
D03*
X032724Y030207D02*
D03*
X032252D02*
D03*
X031779D02*
D03*
X031307D02*
D03*
X030834D02*
D03*
X030362D02*
D03*
X029889D02*
D03*
X029417D02*
D03*
X029889Y030680D02*
D03*
X029417D02*
D03*
X030362D02*
D03*
X032724D02*
D03*
X032252D02*
D03*
X031779D02*
D03*
X031307D02*
D03*
X030834D02*
D03*
D33*
X031580Y025371D02*
D03*
Y023102D02*
D03*
X032074Y025834D02*
D03*
Y022684D02*
D03*
X041445Y020321D02*
D03*
X024345Y018231D02*
D03*
X026245Y020321D02*
D03*
X028145Y018231D02*
D03*
X030045Y020321D02*
D03*
X031945Y018231D02*
D03*
X033845Y020321D02*
D03*
X035745Y018231D02*
D03*
X037645Y020321D02*
D03*
X039545Y018231D02*
D03*
M02*
