%FSAX24Y24*%
%MOIN*%
G70*
G01*
G75*
G04 Layer_Physical_Order=1*
G04 Layer_Color=61183*
%ADD10R,0.0354X0.0394*%
%ADD11R,0.3937X0.3937*%
%ADD12R,0.0366X0.0600*%
%ADD13C,0.0394*%
%ADD14R,0.0354X0.0276*%
%ADD15C,0.0080*%
%ADD16C,0.0620*%
%ADD17R,0.0620X0.0620*%
%ADD18C,0.2756*%
%ADD19C,0.0118*%
%ADD20C,0.0180*%
D10*
X031565Y024452D02*
D03*
X032195D02*
D03*
D11*
X031071Y029026D02*
D03*
D12*
X032574Y026384D02*
D03*
X032074D02*
D03*
X031574D02*
D03*
X031074D02*
D03*
X030574D02*
D03*
X030074D02*
D03*
X029574D02*
D03*
D13*
X017410Y031217D02*
D03*
X031845Y045651D02*
D03*
X046280Y031217D02*
D03*
X031845Y016782D02*
D03*
D14*
X030074Y025038D02*
D03*
Y025629D02*
D03*
D15*
X034474Y031784D02*
X035300D01*
Y033171D01*
X034774Y031334D02*
X036274D01*
X031300Y031791D02*
X031307Y031784D01*
X031300Y031791D02*
Y033171D01*
X030300Y031334D02*
X033424D01*
X028424D02*
X030300D01*
Y033171D01*
X024615Y022301D02*
X026550D01*
X037520D02*
X039465D01*
X033424Y024234D02*
Y031334D01*
X032574Y024234D02*
X033424D01*
X033924Y023684D02*
Y031784D01*
X031074Y023684D02*
X033924D01*
X031307Y031784D02*
X033924D01*
X031574Y026384D02*
X031580Y026378D01*
Y025371D02*
Y026378D01*
X032074Y022301D02*
Y022684D01*
X030074Y022301D02*
Y025038D01*
X032574Y024452D02*
Y026384D01*
Y024234D02*
Y024452D01*
X032195D02*
X032574D01*
X031074D02*
Y026384D01*
Y023684D02*
Y024452D01*
X031565D01*
X031580Y023102D02*
X034774D01*
Y031334D01*
X036274D02*
Y033184D01*
X034474Y023434D02*
Y031784D01*
X030574Y023434D02*
Y026384D01*
X030074Y026384D02*
X030074Y026384D01*
X030074Y025629D02*
Y026384D01*
X029574Y024434D02*
Y026384D01*
X032074Y025834D02*
Y026384D01*
X028424Y024434D02*
Y031334D01*
Y024434D02*
X029574D01*
X030574Y023434D02*
X034474D01*
X026555Y022301D02*
X030074D01*
X039465D02*
X041445Y020321D01*
X032074Y022301D02*
X037525D01*
X022445Y020131D02*
X024615Y022301D01*
X023015Y019751D02*
X043310D01*
X019050Y018421D02*
X024155D01*
X019240Y018611D02*
X023965D01*
X019430Y018801D02*
X023775D01*
X019620Y018991D02*
X023585D01*
X019810Y019181D02*
X023395D01*
X020000Y019371D02*
X023205D01*
X020190Y019561D02*
X023015D01*
X020380Y019751D02*
X022825D01*
X020570Y019941D02*
X022635D01*
X024155Y018421D02*
Y018611D01*
X023965D02*
Y018801D01*
X023775D02*
Y018991D01*
X023585D02*
Y019181D01*
X023395D02*
Y019371D01*
X023205D02*
Y019561D01*
X023015D02*
Y019751D01*
X022825D02*
Y019941D01*
X022635D02*
Y020131D01*
X042930D01*
X020760D02*
X022445D01*
X020570Y019941D02*
Y042492D01*
X024155Y018611D02*
X044450D01*
X023965Y018801D02*
X044260D01*
X023585Y019181D02*
X043880D01*
X023775Y018991D02*
X044070D01*
X023205Y019561D02*
X043500D01*
X023395Y019371D02*
X043690D01*
X022825Y019941D02*
X043120D01*
X044450Y018611D02*
Y043822D01*
X019240D02*
X044450D01*
X044260Y018801D02*
Y043632D01*
X019430D02*
X044260D01*
X019810Y043252D02*
X043880D01*
Y019181D02*
Y043252D01*
X019620Y043442D02*
X044070D01*
Y018991D02*
Y043442D01*
X020190Y042872D02*
X043500D01*
Y019561D02*
Y042872D01*
X020000Y043062D02*
X043690D01*
Y019371D02*
Y043062D01*
X020570Y042492D02*
X043120D01*
Y019941D02*
Y042492D01*
X020380Y042682D02*
X043310D01*
Y019751D02*
Y042682D01*
X020760Y042302D02*
X042930D01*
Y020131D02*
Y042302D01*
X019240Y018611D02*
Y043822D01*
X019430Y018801D02*
Y043632D01*
X019810Y019181D02*
Y043252D01*
X019620Y018991D02*
Y043442D01*
X020190Y019561D02*
Y042872D01*
X020000Y019371D02*
Y043062D01*
X020380Y019751D02*
Y042682D01*
X020760Y020131D02*
Y042302D01*
X019050Y018421D02*
Y044012D01*
X044640D01*
Y018421D02*
Y044012D01*
X024345Y018421D02*
X044640D01*
X024345Y018231D02*
Y018421D01*
D16*
X039300Y034171D02*
D03*
X038300D02*
D03*
X037300D02*
D03*
X036300D02*
D03*
X035300D02*
D03*
X034300D02*
D03*
X033300D02*
D03*
X032300D02*
D03*
X031300D02*
D03*
X030300D02*
D03*
X029300D02*
D03*
X028300D02*
D03*
X027300D02*
D03*
X026300D02*
D03*
X025300D02*
D03*
X039300Y033171D02*
D03*
X038300D02*
D03*
X037300D02*
D03*
X036300D02*
D03*
X035300D02*
D03*
X034300D02*
D03*
X033300D02*
D03*
X032300D02*
D03*
X031300D02*
D03*
X030300D02*
D03*
X029300D02*
D03*
X028300D02*
D03*
X027300D02*
D03*
X026300D02*
D03*
D17*
X025300D02*
D03*
D18*
X048786Y016354D02*
D03*
X015046Y015370D02*
D03*
X048786Y045370D02*
D03*
X015046Y046866D02*
D03*
D19*
X032724Y027373D02*
D03*
X032252D02*
D03*
X031779D02*
D03*
X031307D02*
D03*
X030834D02*
D03*
X030362D02*
D03*
X029889D02*
D03*
X029417D02*
D03*
X032724Y027855D02*
D03*
X032252D02*
D03*
X031779D02*
D03*
X031307D02*
D03*
X030834D02*
D03*
X030362D02*
D03*
X029889D02*
D03*
X029417D02*
D03*
X032724Y028317D02*
D03*
X032252D02*
D03*
X031779D02*
D03*
X031307D02*
D03*
X030834D02*
D03*
X030362D02*
D03*
X029889D02*
D03*
X029417D02*
D03*
X032724Y028790D02*
D03*
X032252D02*
D03*
X031779D02*
D03*
X031307D02*
D03*
X030834D02*
D03*
X030362D02*
D03*
X029889D02*
D03*
X029417D02*
D03*
X032724Y029262D02*
D03*
X032252D02*
D03*
X031779D02*
D03*
X031307D02*
D03*
X030834D02*
D03*
X030362D02*
D03*
X029889D02*
D03*
X029417D02*
D03*
X032724Y029735D02*
D03*
X032252D02*
D03*
X031779D02*
D03*
X031307D02*
D03*
X030834D02*
D03*
X030362D02*
D03*
X029889D02*
D03*
X029417D02*
D03*
X032724Y030207D02*
D03*
X032252D02*
D03*
X031779D02*
D03*
X031307D02*
D03*
X030834D02*
D03*
X030362D02*
D03*
X029889D02*
D03*
X029417D02*
D03*
X029889Y030680D02*
D03*
X029417D02*
D03*
X030362D02*
D03*
X032724D02*
D03*
X032252D02*
D03*
X031779D02*
D03*
X031307D02*
D03*
X030834D02*
D03*
D20*
X031580Y025371D02*
D03*
Y023102D02*
D03*
X032074Y025834D02*
D03*
Y022684D02*
D03*
X041445Y020321D02*
D03*
X024345Y018231D02*
D03*
X026245Y020321D02*
D03*
X028145Y018231D02*
D03*
X030045Y020321D02*
D03*
X031945Y018231D02*
D03*
X033845Y020321D02*
D03*
X035745Y018231D02*
D03*
X037645Y020321D02*
D03*
X039545Y018231D02*
D03*
M02*
