%FSAX24Y24*%
%MOIN*%
G70*
G01*
G75*
G04 Layer_Color=2752767*
%ADD10R,0.0354X0.0394*%
%ADD11R,0.3937X0.3937*%
%ADD12R,0.0366X0.0600*%
%ADD13C,0.0394*%
%ADD14R,0.0354X0.0276*%
%ADD15C,0.0080*%
%ADD16C,0.0620*%
%ADD17R,0.0620X0.0620*%
%ADD18C,0.2756*%
%ADD19C,0.0118*%
%ADD20C,0.0180*%
%ADD21C,0.0100*%
%ADD22C,0.0079*%
%ADD23C,0.0020*%
%ADD24R,0.0434X0.0474*%
%ADD25R,0.4017X0.4017*%
%ADD26R,0.0446X0.0680*%
%ADD27C,0.0787*%
%ADD28R,0.0434X0.0356*%
%ADD29C,0.0700*%
%ADD30R,0.0700X0.0700*%
%ADD31C,0.2836*%
%ADD32C,0.0198*%
%ADD33C,0.0260*%
%ADD34C,0.0197*%
%ADD35C,0.0033*%
%ADD36C,0.0150*%
%ADD37C,0.0160*%
D21*
X043813Y056320D02*
Y056919D01*
X044113D01*
X044213Y056820D01*
Y056620D01*
X044113Y056520D01*
X043813D01*
X044013D02*
X044213Y056320D01*
X044513D02*
X044713D01*
X044813Y056420D01*
Y056620D01*
X044713Y056720D01*
X044513D01*
X044413Y056620D01*
Y056420D01*
X044513Y056320D01*
X045013Y056720D02*
Y056420D01*
X045113Y056320D01*
X045413D01*
Y056720D01*
X045613Y056320D02*
Y056720D01*
X045913D01*
X046013Y056620D01*
Y056320D01*
X046612Y056919D02*
Y056320D01*
X046312D01*
X046212Y056420D01*
Y056620D01*
X046312Y056720D01*
X046612D01*
X043813Y054820D02*
Y055419D01*
X044113D01*
X044213Y055320D01*
Y055120D01*
X044113Y055020D01*
X043813D01*
X044013D02*
X044213Y054820D01*
X044513D02*
X044713D01*
X044813Y054920D01*
Y055120D01*
X044713Y055220D01*
X044513D01*
X044413Y055120D01*
Y054920D01*
X044513Y054820D01*
X045013Y055220D02*
Y054920D01*
X045113Y054820D01*
X045413D01*
Y055220D01*
X045613Y054820D02*
Y055220D01*
X045913D01*
X046013Y055120D01*
Y054820D01*
X046612Y055419D02*
Y054820D01*
X046312D01*
X046212Y054920D01*
Y055120D01*
X046312Y055220D01*
X046612D01*
X043813Y053320D02*
Y053919D01*
X044113D01*
X044213Y053820D01*
Y053620D01*
X044113Y053520D01*
X043813D01*
X044013D02*
X044213Y053320D01*
X044513D02*
X044713D01*
X044813Y053420D01*
Y053620D01*
X044713Y053720D01*
X044513D01*
X044413Y053620D01*
Y053420D01*
X044513Y053320D01*
X045013Y053720D02*
Y053420D01*
X045113Y053320D01*
X045413D01*
Y053720D01*
X045613Y053320D02*
Y053720D01*
X045913D01*
X046013Y053620D01*
Y053320D01*
X046612Y053919D02*
Y053320D01*
X046312D01*
X046212Y053420D01*
Y053620D01*
X046312Y053720D01*
X046612D01*
X043813Y051820D02*
Y052419D01*
X044113D01*
X044213Y052320D01*
Y052120D01*
X044113Y052020D01*
X043813D01*
X044013D02*
X044213Y051820D01*
X044513D02*
X044713D01*
X044813Y051920D01*
Y052120D01*
X044713Y052220D01*
X044513D01*
X044413Y052120D01*
Y051920D01*
X044513Y051820D01*
X045013Y052220D02*
Y051920D01*
X045113Y051820D01*
X045413D01*
Y052220D01*
X045613Y051820D02*
Y052220D01*
X045913D01*
X046013Y052120D01*
Y051820D01*
X046612Y052419D02*
Y051820D01*
X046312D01*
X046212Y051920D01*
Y052120D01*
X046312Y052220D01*
X046612D01*
X038754Y056320D02*
Y056919D01*
X039054D01*
X039154Y056820D01*
Y056620D01*
X039054Y056520D01*
X038754D01*
X039354Y056919D02*
X039754D01*
X039554D01*
Y056320D01*
X039954Y056919D02*
Y056320D01*
Y056620D01*
X040354D01*
Y056919D01*
Y056320D01*
X038754Y054820D02*
Y055419D01*
X039054D01*
X039154Y055320D01*
Y055120D01*
X039054Y055020D01*
X038754D01*
X039354Y055419D02*
X039754D01*
X039554D01*
Y054820D01*
X039954Y055419D02*
Y054820D01*
Y055120D01*
X040354D01*
Y055419D01*
Y054820D01*
X038754Y053320D02*
Y053919D01*
X039054D01*
X039154Y053820D01*
Y053620D01*
X039054Y053520D01*
X038754D01*
X039354Y053919D02*
X039754D01*
X039554D01*
Y053320D01*
X039954Y053919D02*
Y053320D01*
Y053620D01*
X040354D01*
Y053919D01*
Y053320D01*
X038754Y051820D02*
Y052419D01*
X039054D01*
X039154Y052320D01*
Y052120D01*
X039054Y052020D01*
X038754D01*
X039354Y052419D02*
X039754D01*
X039554D01*
Y051820D01*
X039954Y052419D02*
Y051820D01*
Y052120D01*
X040354D01*
Y052419D01*
Y051820D01*
X025298Y056820D02*
X025398Y056919D01*
X025598D01*
X025698Y056820D01*
Y056720D01*
X025598Y056620D01*
X025498D01*
X025598D01*
X025698Y056520D01*
Y056420D01*
X025598Y056320D01*
X025398D01*
X025298Y056420D01*
X025898Y056320D02*
Y056420D01*
X025998D01*
Y056320D01*
X025898D01*
X026798D02*
X026398D01*
X026798Y056720D01*
Y056820D01*
X026698Y056919D01*
X026498D01*
X026398Y056820D01*
X026998D02*
X027098Y056919D01*
X027298D01*
X027398Y056820D01*
Y056420D01*
X027298Y056320D01*
X027098D01*
X026998Y056420D01*
Y056820D01*
X027598D02*
X027698Y056919D01*
X027898D01*
X027998Y056820D01*
Y056420D01*
X027898Y056320D01*
X027698D01*
X027598Y056420D01*
Y056820D01*
X028197Y056320D02*
Y056720D01*
X028297D01*
X028397Y056620D01*
Y056320D01*
Y056620D01*
X028497Y056720D01*
X028597Y056620D01*
Y056320D01*
X028797D02*
Y056720D01*
X028897D01*
X028997Y056620D01*
Y056320D01*
Y056620D01*
X029097Y056720D01*
X029197Y056620D01*
Y056320D01*
X030197D02*
X029997Y056520D01*
Y056720D01*
X030197Y056919D01*
X030497Y056320D02*
X030697D01*
X030597D01*
Y056919D01*
X030497Y056820D01*
X031396Y056320D02*
X030997D01*
X031396Y056720D01*
Y056820D01*
X031296Y056919D01*
X031097D01*
X030997Y056820D01*
X031996Y056919D02*
X031596D01*
Y056620D01*
X031796Y056720D01*
X031896D01*
X031996Y056620D01*
Y056420D01*
X031896Y056320D01*
X031696D01*
X031596Y056420D01*
X032196Y056320D02*
Y056420D01*
X032296D01*
Y056320D01*
X032196D01*
X032696Y056420D02*
X032796Y056320D01*
X032996D01*
X033096Y056420D01*
Y056820D01*
X032996Y056919D01*
X032796D01*
X032696Y056820D01*
Y056720D01*
X032796Y056620D01*
X033096D01*
X033296Y056820D02*
X033396Y056919D01*
X033596D01*
X033696Y056820D01*
Y056720D01*
X033596Y056620D01*
X033696Y056520D01*
Y056420D01*
X033596Y056320D01*
X033396D01*
X033296Y056420D01*
Y056520D01*
X033396Y056620D01*
X033296Y056720D01*
Y056820D01*
X033396Y056620D02*
X033596D01*
X033896Y056320D02*
Y056720D01*
X033996D01*
X034096Y056620D01*
Y056320D01*
Y056620D01*
X034196Y056720D01*
X034296Y056620D01*
Y056320D01*
X034495D02*
X034695D01*
X034595D01*
Y056720D01*
X034495D01*
X034995Y056320D02*
X035195D01*
X035095D01*
Y056919D01*
X034995D01*
X035495Y056320D02*
X035695Y056520D01*
Y056720D01*
X035495Y056919D01*
X025298Y055320D02*
X025398Y055419D01*
X025598D01*
X025698Y055320D01*
Y054920D01*
X025598Y054820D01*
X025398D01*
X025298Y054920D01*
Y055320D01*
X025898Y054820D02*
Y054920D01*
X025998D01*
Y054820D01*
X025898D01*
X026798D02*
X026398D01*
X026798Y055220D01*
Y055320D01*
X026698Y055419D01*
X026498D01*
X026398Y055320D01*
X026998D02*
X027098Y055419D01*
X027298D01*
X027398Y055320D01*
Y054920D01*
X027298Y054820D01*
X027098D01*
X026998Y054920D01*
Y055320D01*
X027598D02*
X027698Y055419D01*
X027898D01*
X027998Y055320D01*
Y055220D01*
X027898Y055120D01*
X027798D01*
X027898D01*
X027998Y055020D01*
Y054920D01*
X027898Y054820D01*
X027698D01*
X027598Y054920D01*
X028197Y054820D02*
Y055220D01*
X028297D01*
X028397Y055120D01*
Y054820D01*
Y055120D01*
X028497Y055220D01*
X028597Y055120D01*
Y054820D01*
X028797D02*
Y055220D01*
X028897D01*
X028997Y055120D01*
Y054820D01*
Y055120D01*
X029097Y055220D01*
X029197Y055120D01*
Y054820D01*
X030197D02*
X029997Y055020D01*
Y055220D01*
X030197Y055419D01*
X030497Y055320D02*
X030597Y055419D01*
X030797D01*
X030897Y055320D01*
Y055220D01*
X030797Y055120D01*
X030897Y055020D01*
Y054920D01*
X030797Y054820D01*
X030597D01*
X030497Y054920D01*
Y055020D01*
X030597Y055120D01*
X030497Y055220D01*
Y055320D01*
X030597Y055120D02*
X030797D01*
X031097Y054820D02*
Y054920D01*
X031197D01*
Y054820D01*
X031097D01*
X031596Y055320D02*
X031696Y055419D01*
X031896D01*
X031996Y055320D01*
Y054920D01*
X031896Y054820D01*
X031696D01*
X031596Y054920D01*
Y055320D01*
X032196D02*
X032296Y055419D01*
X032496D01*
X032596Y055320D01*
Y054920D01*
X032496Y054820D01*
X032296D01*
X032196Y054920D01*
Y055320D01*
X032796Y054820D02*
Y055220D01*
X032896D01*
X032996Y055120D01*
Y054820D01*
Y055120D01*
X033096Y055220D01*
X033196Y055120D01*
Y054820D01*
X033396D02*
X033596D01*
X033496D01*
Y055220D01*
X033396D01*
X033896Y054820D02*
X034096D01*
X033996D01*
Y055419D01*
X033896D01*
X034395Y054820D02*
X034595Y055020D01*
Y055220D01*
X034395Y055419D01*
X025298Y053320D02*
X025498D01*
X025398D01*
Y053919D01*
X025298Y053820D01*
X025798Y053320D02*
Y053420D01*
X025898D01*
Y053320D01*
X025798D01*
X026298Y053820D02*
X026398Y053919D01*
X026598D01*
X026698Y053820D01*
Y053420D01*
X026598Y053320D01*
X026398D01*
X026298Y053420D01*
Y053820D01*
X027298Y053919D02*
X027098Y053820D01*
X026898Y053620D01*
Y053420D01*
X026998Y053320D01*
X027198D01*
X027298Y053420D01*
Y053520D01*
X027198Y053620D01*
X026898D01*
X027498Y053919D02*
X027898D01*
Y053820D01*
X027498Y053420D01*
Y053320D01*
X028098D02*
Y053720D01*
X028197D01*
X028297Y053620D01*
Y053320D01*
Y053620D01*
X028397Y053720D01*
X028497Y053620D01*
Y053320D01*
X028697D02*
Y053720D01*
X028797D01*
X028897Y053620D01*
Y053320D01*
Y053620D01*
X028997Y053720D01*
X029097Y053620D01*
Y053320D01*
X030097D02*
X029897Y053520D01*
Y053720D01*
X030097Y053919D01*
X030697Y053320D02*
Y053919D01*
X030397Y053620D01*
X030797D01*
X031396Y053320D02*
X030997D01*
X031396Y053720D01*
Y053820D01*
X031296Y053919D01*
X031097D01*
X030997Y053820D01*
X031596Y053320D02*
Y053420D01*
X031696D01*
Y053320D01*
X031596D01*
X032096Y053820D02*
X032196Y053919D01*
X032396D01*
X032496Y053820D01*
Y053420D01*
X032396Y053320D01*
X032196D01*
X032096Y053420D01*
Y053820D01*
X032696D02*
X032796Y053919D01*
X032996D01*
X033096Y053820D01*
Y053420D01*
X032996Y053320D01*
X032796D01*
X032696Y053420D01*
Y053820D01*
X033296Y053320D02*
Y053720D01*
X033396D01*
X033496Y053620D01*
Y053320D01*
Y053620D01*
X033596Y053720D01*
X033696Y053620D01*
Y053320D01*
X033896D02*
X034096D01*
X033996D01*
Y053720D01*
X033896D01*
X034395Y053320D02*
X034595D01*
X034495D01*
Y053919D01*
X034395D01*
X034895Y053320D02*
X035095Y053520D01*
Y053720D01*
X034895Y053919D01*
X025298Y052320D02*
X025398Y052419D01*
X025598D01*
X025698Y052320D01*
Y051920D01*
X025598Y051820D01*
X025398D01*
X025298Y051920D01*
Y052320D01*
X025898Y051820D02*
Y051920D01*
X025998D01*
Y051820D01*
X025898D01*
X026398Y052320D02*
X026498Y052419D01*
X026698D01*
X026798Y052320D01*
Y052220D01*
X026698Y052120D01*
X026598D01*
X026698D01*
X026798Y052020D01*
Y051920D01*
X026698Y051820D01*
X026498D01*
X026398Y051920D01*
X026998Y052320D02*
X027098Y052419D01*
X027298D01*
X027398Y052320D01*
Y051920D01*
X027298Y051820D01*
X027098D01*
X026998Y051920D01*
Y052320D01*
X027598D02*
X027698Y052419D01*
X027898D01*
X027998Y052320D01*
Y051920D01*
X027898Y051820D01*
X027698D01*
X027598Y051920D01*
Y052320D01*
X028197Y051820D02*
Y052220D01*
X028297D01*
X028397Y052120D01*
Y051820D01*
Y052120D01*
X028497Y052220D01*
X028597Y052120D01*
Y051820D01*
X028797D02*
Y052220D01*
X028897D01*
X028997Y052120D01*
Y051820D01*
Y052120D01*
X029097Y052220D01*
X029197Y052120D01*
Y051820D01*
X030197D02*
X029997Y052020D01*
Y052220D01*
X030197Y052419D01*
X030497Y051820D02*
X030697D01*
X030597D01*
Y052419D01*
X030497Y052320D01*
X030997Y051820D02*
X031197D01*
X031097D01*
Y052419D01*
X030997Y052320D01*
X031496Y051820D02*
Y051920D01*
X031596D01*
Y051820D01*
X031496D01*
X031996Y052320D02*
X032096Y052419D01*
X032296D01*
X032396Y052320D01*
Y052220D01*
X032296Y052120D01*
X032396Y052020D01*
Y051920D01*
X032296Y051820D01*
X032096D01*
X031996Y051920D01*
Y052020D01*
X032096Y052120D01*
X031996Y052220D01*
Y052320D01*
X032096Y052120D02*
X032296D01*
X032596Y051820D02*
X032796D01*
X032696D01*
Y052419D01*
X032596Y052320D01*
X033096Y051820D02*
Y052220D01*
X033196D01*
X033296Y052120D01*
Y051820D01*
Y052120D01*
X033396Y052220D01*
X033496Y052120D01*
Y051820D01*
X033696D02*
X033896D01*
X033796D01*
Y052220D01*
X033696D01*
X034196Y051820D02*
X034395D01*
X034296D01*
Y052419D01*
X034196D01*
X034695Y051820D02*
X034895Y052020D01*
Y052220D01*
X034695Y052419D01*
X018320Y050320D02*
X018520D01*
X018420D01*
Y050919D01*
X018320Y050820D01*
X018820Y050320D02*
X019020D01*
X018920D01*
Y050919D01*
X018820Y050820D01*
X019720Y050320D02*
X019320D01*
X019720Y050720D01*
Y050820D01*
X019620Y050919D01*
X019420D01*
X019320Y050820D01*
X020520Y050919D02*
X020919D01*
X020720D01*
Y050320D01*
X021219D02*
X021419D01*
X021519Y050420D01*
Y050620D01*
X021419Y050720D01*
X021219D01*
X021119Y050620D01*
Y050420D01*
X021219Y050320D01*
X021819Y050820D02*
Y050720D01*
X021719D01*
X021919D01*
X021819D01*
Y050420D01*
X021919Y050320D01*
X022319Y050720D02*
X022519D01*
X022619Y050620D01*
Y050320D01*
X022319D01*
X022219Y050420D01*
X022319Y050520D01*
X022619D01*
X022819Y050320D02*
X023019D01*
X022919D01*
Y050919D01*
X022819D01*
X018620Y056320D02*
Y056919D01*
X018320Y056620D01*
X018720D01*
X018320Y054820D02*
X018520D01*
X018420D01*
Y055419D01*
X018320Y055320D01*
X019120Y054820D02*
Y055419D01*
X018820Y055120D01*
X019220D01*
X018320Y053820D02*
X018420Y053919D01*
X018620D01*
X018720Y053820D01*
Y053720D01*
X018620Y053620D01*
X018520D01*
X018620D01*
X018720Y053520D01*
Y053420D01*
X018620Y053320D01*
X018420D01*
X018320Y053420D01*
X018920Y053820D02*
X019020Y053919D01*
X019220D01*
X019320Y053820D01*
Y053420D01*
X019220Y053320D01*
X019020D01*
X018920Y053420D01*
Y053820D01*
X018720Y052419D02*
X018520Y052320D01*
X018320Y052120D01*
Y051920D01*
X018420Y051820D01*
X018620D01*
X018720Y051920D01*
Y052020D01*
X018620Y052120D01*
X018320D01*
X019220Y051820D02*
Y052419D01*
X018920Y052120D01*
X019320D01*
D35*
X013543Y052070D02*
G03*
X013543Y052070I-000250J000000D01*
G01*
X031001Y030680D02*
G03*
X031001Y030680I-000167J000000D01*
G01*
X031473D02*
G03*
X031473Y030680I-000167J000000D01*
G01*
X031946D02*
G03*
X031946Y030680I-000167J000000D01*
G01*
X032418D02*
G03*
X032418Y030680I-000167J000000D01*
G01*
X032891D02*
G03*
X032891Y030680I-000167J000000D01*
G01*
X030529D02*
G03*
X030529Y030680I-000167J000000D01*
G01*
X029584D02*
G03*
X029584Y030680I-000167J000000D01*
G01*
X030056D02*
G03*
X030056Y030680I-000167J000000D01*
G01*
X029584Y030207D02*
G03*
X029584Y030207I-000167J000000D01*
G01*
X030056D02*
G03*
X030056Y030207I-000167J000000D01*
G01*
X030529D02*
G03*
X030529Y030207I-000167J000000D01*
G01*
X031001D02*
G03*
X031001Y030207I-000167J000000D01*
G01*
X031473D02*
G03*
X031473Y030207I-000167J000000D01*
G01*
X031946D02*
G03*
X031946Y030207I-000167J000000D01*
G01*
X032418D02*
G03*
X032418Y030207I-000167J000000D01*
G01*
X032891D02*
G03*
X032891Y030207I-000167J000000D01*
G01*
X029584Y029735D02*
G03*
X029584Y029735I-000167J000000D01*
G01*
X030056D02*
G03*
X030056Y029735I-000167J000000D01*
G01*
X030529D02*
G03*
X030529Y029735I-000167J000000D01*
G01*
X031001D02*
G03*
X031001Y029735I-000167J000000D01*
G01*
X031473D02*
G03*
X031473Y029735I-000167J000000D01*
G01*
X031946D02*
G03*
X031946Y029735I-000167J000000D01*
G01*
X032418D02*
G03*
X032418Y029735I-000167J000000D01*
G01*
X032891D02*
G03*
X032891Y029735I-000167J000000D01*
G01*
X029584Y029262D02*
G03*
X029584Y029262I-000167J000000D01*
G01*
X030056D02*
G03*
X030056Y029262I-000167J000000D01*
G01*
X030529D02*
G03*
X030529Y029262I-000167J000000D01*
G01*
X031001D02*
G03*
X031001Y029262I-000167J000000D01*
G01*
X031473D02*
G03*
X031473Y029262I-000167J000000D01*
G01*
X031946D02*
G03*
X031946Y029262I-000167J000000D01*
G01*
X032418D02*
G03*
X032418Y029262I-000167J000000D01*
G01*
X032891D02*
G03*
X032891Y029262I-000167J000000D01*
G01*
X029584Y028790D02*
G03*
X029584Y028790I-000167J000000D01*
G01*
X030056D02*
G03*
X030056Y028790I-000167J000000D01*
G01*
X030529D02*
G03*
X030529Y028790I-000167J000000D01*
G01*
X031001D02*
G03*
X031001Y028790I-000167J000000D01*
G01*
X031473D02*
G03*
X031473Y028790I-000167J000000D01*
G01*
X031946D02*
G03*
X031946Y028790I-000167J000000D01*
G01*
X032418D02*
G03*
X032418Y028790I-000167J000000D01*
G01*
X032891D02*
G03*
X032891Y028790I-000167J000000D01*
G01*
X029584Y028317D02*
G03*
X029584Y028317I-000167J000000D01*
G01*
X030056D02*
G03*
X030056Y028317I-000167J000000D01*
G01*
X030529D02*
G03*
X030529Y028317I-000167J000000D01*
G01*
X031001D02*
G03*
X031001Y028317I-000167J000000D01*
G01*
X031473D02*
G03*
X031473Y028317I-000167J000000D01*
G01*
X031946D02*
G03*
X031946Y028317I-000167J000000D01*
G01*
X032418D02*
G03*
X032418Y028317I-000167J000000D01*
G01*
X032891D02*
G03*
X032891Y028317I-000167J000000D01*
G01*
X029584Y027855D02*
G03*
X029584Y027855I-000167J000000D01*
G01*
X030056D02*
G03*
X030056Y027855I-000167J000000D01*
G01*
X030529D02*
G03*
X030529Y027855I-000167J000000D01*
G01*
X031001D02*
G03*
X031001Y027855I-000167J000000D01*
G01*
X031473D02*
G03*
X031473Y027855I-000167J000000D01*
G01*
X031946D02*
G03*
X031946Y027855I-000167J000000D01*
G01*
X032418D02*
G03*
X032418Y027855I-000167J000000D01*
G01*
X032891D02*
G03*
X032891Y027855I-000167J000000D01*
G01*
X029584Y027373D02*
G03*
X029584Y027373I-000167J000000D01*
G01*
X030056D02*
G03*
X030056Y027373I-000167J000000D01*
G01*
X030529D02*
G03*
X030529Y027373I-000167J000000D01*
G01*
X031001D02*
G03*
X031001Y027373I-000167J000000D01*
G01*
X031473D02*
G03*
X031473Y027373I-000167J000000D01*
G01*
X031946D02*
G03*
X031946Y027373I-000167J000000D01*
G01*
X032418D02*
G03*
X032418Y027373I-000167J000000D01*
G01*
X032891D02*
G03*
X032891Y027373I-000167J000000D01*
G01*
X013043Y056320D02*
X013293Y056445D01*
X013543Y056320D01*
X013418Y056570D02*
X013543Y056320D01*
X013418Y056570D02*
X013543Y056820D01*
X013293Y056695D02*
X013543Y056820D01*
X013043D02*
X013293Y056695D01*
X013043Y056820D02*
X013168Y056570D01*
X013043Y056320D02*
X013168Y056570D01*
X013043Y054820D02*
X013543D01*
Y055320D01*
X013043D02*
X013543D01*
X013043Y054820D02*
Y055320D01*
X013168Y053445D02*
X013293Y053320D01*
X013043Y053445D02*
X013168D01*
X013043D02*
X013168Y053570D01*
X013043Y053695D02*
X013168Y053570D01*
X013043Y053695D02*
X013168D01*
X013293Y053820D01*
X013418Y053695D01*
X013543D01*
X013418Y053570D02*
X013543Y053695D01*
X013418Y053570D02*
X013543Y053445D01*
X013418D02*
X013543D01*
X013293Y053320D02*
X013418Y053445D01*
X039378Y018065D02*
X039712D01*
Y018398D01*
X039378D02*
X039712D01*
X039378Y018065D02*
Y018398D01*
X037478Y020155D02*
X037812D01*
Y020488D01*
X037478D02*
X037812D01*
X037478Y020155D02*
Y020488D01*
X035578Y018065D02*
X035912D01*
Y018398D01*
X035578D02*
X035912D01*
X035578Y018065D02*
Y018398D01*
X033678Y020155D02*
X034012D01*
Y020488D01*
X033678D02*
X034012D01*
X033678Y020155D02*
Y020488D01*
X031778Y018065D02*
X032112D01*
Y018398D01*
X031778D02*
X032112D01*
X031778Y018065D02*
Y018398D01*
X029878Y020155D02*
X030212D01*
Y020488D01*
X029878D02*
X030212D01*
X029878Y020155D02*
Y020488D01*
X027978Y018065D02*
X028312D01*
Y018398D01*
X027978D02*
X028312D01*
X027978Y018065D02*
Y018398D01*
X026078Y020155D02*
X026412D01*
Y020488D01*
X026078D02*
X026412D01*
X026078Y020155D02*
Y020488D01*
X024178Y018065D02*
X024512D01*
Y018398D01*
X024178D02*
X024512D01*
X024178Y018065D02*
Y018398D01*
X041278Y020155D02*
X041612D01*
Y020488D01*
X041278D02*
X041612D01*
X041278Y020155D02*
Y020488D01*
X031908Y022517D02*
X032241D01*
Y022850D01*
X031908D02*
X032241D01*
X031908Y022517D02*
Y022850D01*
Y025667D02*
X032241D01*
Y026000D01*
X031908D02*
X032241D01*
X031908Y025667D02*
Y026000D01*
X031413Y022935D02*
X031746D01*
Y023268D01*
X031413D02*
X031746D01*
X031413Y022935D02*
Y023268D01*
Y025205D02*
X031746D01*
Y025538D01*
X031413D02*
X031746D01*
X031413Y025205D02*
Y025538D01*
X014879Y046699D02*
X015046Y046783D01*
X015212Y046699D01*
X015129Y046866D02*
X015212Y046699D01*
X015129Y046866D02*
X015212Y047033D01*
X015046Y046949D02*
X015212Y047033D01*
X014879D02*
X015046Y046949D01*
X014879Y047033D02*
X014962Y046866D01*
X014879Y046699D02*
X014962Y046866D01*
X048619Y045203D02*
X048786Y045287D01*
X048952Y045203D01*
X048869Y045370D02*
X048952Y045203D01*
X048869Y045370D02*
X048952Y045537D01*
X048786Y045453D02*
X048952Y045537D01*
X048619D02*
X048786Y045453D01*
X048619Y045537D02*
X048703Y045370D01*
X048619Y045203D02*
X048703Y045370D01*
X014879Y015203D02*
X015046Y015287D01*
X015212Y015203D01*
X015129Y015370D02*
X015212Y015203D01*
X015129Y015370D02*
X015212Y015537D01*
X015046Y015453D02*
X015212Y015537D01*
X014879D02*
X015046Y015453D01*
X014879Y015537D02*
X014962Y015370D01*
X014879Y015203D02*
X014962Y015370D01*
X048619Y016188D02*
X048786Y016271D01*
X048952Y016188D01*
X048869Y016354D02*
X048952Y016188D01*
X048869Y016354D02*
X048952Y016521D01*
X048786Y016438D02*
X048952Y016521D01*
X048619D02*
X048786Y016438D01*
X048619Y016521D02*
X048703Y016354D01*
X048619Y016188D02*
X048703Y016354D01*
X025216Y033088D02*
X025300Y033005D01*
X025133Y033088D02*
X025216D01*
X025133D02*
X025216Y033171D01*
X025133Y033255D02*
X025216Y033171D01*
X025133Y033255D02*
X025216D01*
X025300Y033338D01*
X025383Y033255D01*
X025466D01*
X025383Y033171D02*
X025466Y033255D01*
X025383Y033171D02*
X025466Y033088D01*
X025383D02*
X025466D01*
X025300Y033005D02*
X025383Y033088D01*
X026216D02*
X026300Y033005D01*
X026133Y033088D02*
X026216D01*
X026133D02*
X026216Y033171D01*
X026133Y033255D02*
X026216Y033171D01*
X026133Y033255D02*
X026216D01*
X026300Y033338D01*
X026383Y033255D01*
X026466D01*
X026383Y033171D02*
X026466Y033255D01*
X026383Y033171D02*
X026466Y033088D01*
X026383D02*
X026466D01*
X026300Y033005D02*
X026383Y033088D01*
X027216D02*
X027300Y033005D01*
X027133Y033088D02*
X027216D01*
X027133D02*
X027216Y033171D01*
X027133Y033255D02*
X027216Y033171D01*
X027133Y033255D02*
X027216D01*
X027300Y033338D01*
X027383Y033255D01*
X027466D01*
X027383Y033171D02*
X027466Y033255D01*
X027383Y033171D02*
X027466Y033088D01*
X027383D02*
X027466D01*
X027300Y033005D02*
X027383Y033088D01*
X028216D02*
X028300Y033005D01*
X028133Y033088D02*
X028216D01*
X028133D02*
X028216Y033171D01*
X028133Y033255D02*
X028216Y033171D01*
X028133Y033255D02*
X028216D01*
X028300Y033338D01*
X028383Y033255D01*
X028466D01*
X028383Y033171D02*
X028466Y033255D01*
X028383Y033171D02*
X028466Y033088D01*
X028383D02*
X028466D01*
X028300Y033005D02*
X028383Y033088D01*
X029216D02*
X029300Y033005D01*
X029133Y033088D02*
X029216D01*
X029133D02*
X029216Y033171D01*
X029133Y033255D02*
X029216Y033171D01*
X029133Y033255D02*
X029216D01*
X029300Y033338D01*
X029383Y033255D01*
X029466D01*
X029383Y033171D02*
X029466Y033255D01*
X029383Y033171D02*
X029466Y033088D01*
X029383D02*
X029466D01*
X029300Y033005D02*
X029383Y033088D01*
X030216D02*
X030300Y033005D01*
X030133Y033088D02*
X030216D01*
X030133D02*
X030216Y033171D01*
X030133Y033255D02*
X030216Y033171D01*
X030133Y033255D02*
X030216D01*
X030300Y033338D01*
X030383Y033255D01*
X030466D01*
X030383Y033171D02*
X030466Y033255D01*
X030383Y033171D02*
X030466Y033088D01*
X030383D02*
X030466D01*
X030300Y033005D02*
X030383Y033088D01*
X031216D02*
X031300Y033005D01*
X031133Y033088D02*
X031216D01*
X031133D02*
X031216Y033171D01*
X031133Y033255D02*
X031216Y033171D01*
X031133Y033255D02*
X031216D01*
X031300Y033338D01*
X031383Y033255D01*
X031466D01*
X031383Y033171D02*
X031466Y033255D01*
X031383Y033171D02*
X031466Y033088D01*
X031383D02*
X031466D01*
X031300Y033005D02*
X031383Y033088D01*
X032216D02*
X032300Y033005D01*
X032133Y033088D02*
X032216D01*
X032133D02*
X032216Y033171D01*
X032133Y033255D02*
X032216Y033171D01*
X032133Y033255D02*
X032216D01*
X032300Y033338D01*
X032383Y033255D01*
X032466D01*
X032383Y033171D02*
X032466Y033255D01*
X032383Y033171D02*
X032466Y033088D01*
X032383D02*
X032466D01*
X032300Y033005D02*
X032383Y033088D01*
X033216D02*
X033300Y033005D01*
X033133Y033088D02*
X033216D01*
X033133D02*
X033216Y033171D01*
X033133Y033255D02*
X033216Y033171D01*
X033133Y033255D02*
X033216D01*
X033300Y033338D01*
X033383Y033255D01*
X033466D01*
X033383Y033171D02*
X033466Y033255D01*
X033383Y033171D02*
X033466Y033088D01*
X033383D02*
X033466D01*
X033300Y033005D02*
X033383Y033088D01*
X034216D02*
X034300Y033005D01*
X034133Y033088D02*
X034216D01*
X034133D02*
X034216Y033171D01*
X034133Y033255D02*
X034216Y033171D01*
X034133Y033255D02*
X034216D01*
X034300Y033338D01*
X034383Y033255D01*
X034466D01*
X034383Y033171D02*
X034466Y033255D01*
X034383Y033171D02*
X034466Y033088D01*
X034383D02*
X034466D01*
X034300Y033005D02*
X034383Y033088D01*
X035216D02*
X035300Y033005D01*
X035133Y033088D02*
X035216D01*
X035133D02*
X035216Y033171D01*
X035133Y033255D02*
X035216Y033171D01*
X035133Y033255D02*
X035216D01*
X035300Y033338D01*
X035383Y033255D01*
X035466D01*
X035383Y033171D02*
X035466Y033255D01*
X035383Y033171D02*
X035466Y033088D01*
X035383D02*
X035466D01*
X035300Y033005D02*
X035383Y033088D01*
X036216D02*
X036300Y033005D01*
X036133Y033088D02*
X036216D01*
X036133D02*
X036216Y033171D01*
X036133Y033255D02*
X036216Y033171D01*
X036133Y033255D02*
X036216D01*
X036300Y033338D01*
X036383Y033255D01*
X036466D01*
X036383Y033171D02*
X036466Y033255D01*
X036383Y033171D02*
X036466Y033088D01*
X036383D02*
X036466D01*
X036300Y033005D02*
X036383Y033088D01*
X037216D02*
X037300Y033005D01*
X037133Y033088D02*
X037216D01*
X037133D02*
X037216Y033171D01*
X037133Y033255D02*
X037216Y033171D01*
X037133Y033255D02*
X037216D01*
X037300Y033338D01*
X037383Y033255D01*
X037466D01*
X037383Y033171D02*
X037466Y033255D01*
X037383Y033171D02*
X037466Y033088D01*
X037383D02*
X037466D01*
X037300Y033005D02*
X037383Y033088D01*
X038216D02*
X038300Y033005D01*
X038133Y033088D02*
X038216D01*
X038133D02*
X038216Y033171D01*
X038133Y033255D02*
X038216Y033171D01*
X038133Y033255D02*
X038216D01*
X038300Y033338D01*
X038383Y033255D01*
X038466D01*
X038383Y033171D02*
X038466Y033255D01*
X038383Y033171D02*
X038466Y033088D01*
X038383D02*
X038466D01*
X038300Y033005D02*
X038383Y033088D01*
X039216D02*
X039300Y033005D01*
X039133Y033088D02*
X039216D01*
X039133D02*
X039216Y033171D01*
X039133Y033255D02*
X039216Y033171D01*
X039133Y033255D02*
X039216D01*
X039300Y033338D01*
X039383Y033255D01*
X039466D01*
X039383Y033171D02*
X039466Y033255D01*
X039383Y033171D02*
X039466Y033088D01*
X039383D02*
X039466D01*
X039300Y033005D02*
X039383Y033088D01*
X025216Y034088D02*
X025300Y034005D01*
X025133Y034088D02*
X025216D01*
X025133D02*
X025216Y034171D01*
X025133Y034255D02*
X025216Y034171D01*
X025133Y034255D02*
X025216D01*
X025300Y034338D01*
X025383Y034255D01*
X025466D01*
X025383Y034171D02*
X025466Y034255D01*
X025383Y034171D02*
X025466Y034088D01*
X025383D02*
X025466D01*
X025300Y034005D02*
X025383Y034088D01*
X026216D02*
X026300Y034005D01*
X026133Y034088D02*
X026216D01*
X026133D02*
X026216Y034171D01*
X026133Y034255D02*
X026216Y034171D01*
X026133Y034255D02*
X026216D01*
X026300Y034338D01*
X026383Y034255D01*
X026466D01*
X026383Y034171D02*
X026466Y034255D01*
X026383Y034171D02*
X026466Y034088D01*
X026383D02*
X026466D01*
X026300Y034005D02*
X026383Y034088D01*
X027216D02*
X027300Y034005D01*
X027133Y034088D02*
X027216D01*
X027133D02*
X027216Y034171D01*
X027133Y034255D02*
X027216Y034171D01*
X027133Y034255D02*
X027216D01*
X027300Y034338D01*
X027383Y034255D01*
X027466D01*
X027383Y034171D02*
X027466Y034255D01*
X027383Y034171D02*
X027466Y034088D01*
X027383D02*
X027466D01*
X027300Y034005D02*
X027383Y034088D01*
X028216D02*
X028300Y034005D01*
X028133Y034088D02*
X028216D01*
X028133D02*
X028216Y034171D01*
X028133Y034255D02*
X028216Y034171D01*
X028133Y034255D02*
X028216D01*
X028300Y034338D01*
X028383Y034255D01*
X028466D01*
X028383Y034171D02*
X028466Y034255D01*
X028383Y034171D02*
X028466Y034088D01*
X028383D02*
X028466D01*
X028300Y034005D02*
X028383Y034088D01*
X029216D02*
X029300Y034005D01*
X029133Y034088D02*
X029216D01*
X029133D02*
X029216Y034171D01*
X029133Y034255D02*
X029216Y034171D01*
X029133Y034255D02*
X029216D01*
X029300Y034338D01*
X029383Y034255D01*
X029466D01*
X029383Y034171D02*
X029466Y034255D01*
X029383Y034171D02*
X029466Y034088D01*
X029383D02*
X029466D01*
X029300Y034005D02*
X029383Y034088D01*
X030216D02*
X030300Y034005D01*
X030133Y034088D02*
X030216D01*
X030133D02*
X030216Y034171D01*
X030133Y034255D02*
X030216Y034171D01*
X030133Y034255D02*
X030216D01*
X030300Y034338D01*
X030383Y034255D01*
X030466D01*
X030383Y034171D02*
X030466Y034255D01*
X030383Y034171D02*
X030466Y034088D01*
X030383D02*
X030466D01*
X030300Y034005D02*
X030383Y034088D01*
X031216D02*
X031300Y034005D01*
X031133Y034088D02*
X031216D01*
X031133D02*
X031216Y034171D01*
X031133Y034255D02*
X031216Y034171D01*
X031133Y034255D02*
X031216D01*
X031300Y034338D01*
X031383Y034255D01*
X031466D01*
X031383Y034171D02*
X031466Y034255D01*
X031383Y034171D02*
X031466Y034088D01*
X031383D02*
X031466D01*
X031300Y034005D02*
X031383Y034088D01*
X032216D02*
X032300Y034005D01*
X032133Y034088D02*
X032216D01*
X032133D02*
X032216Y034171D01*
X032133Y034255D02*
X032216Y034171D01*
X032133Y034255D02*
X032216D01*
X032300Y034338D01*
X032383Y034255D01*
X032466D01*
X032383Y034171D02*
X032466Y034255D01*
X032383Y034171D02*
X032466Y034088D01*
X032383D02*
X032466D01*
X032300Y034005D02*
X032383Y034088D01*
X033216D02*
X033300Y034005D01*
X033133Y034088D02*
X033216D01*
X033133D02*
X033216Y034171D01*
X033133Y034255D02*
X033216Y034171D01*
X033133Y034255D02*
X033216D01*
X033300Y034338D01*
X033383Y034255D01*
X033466D01*
X033383Y034171D02*
X033466Y034255D01*
X033383Y034171D02*
X033466Y034088D01*
X033383D02*
X033466D01*
X033300Y034005D02*
X033383Y034088D01*
X034216D02*
X034300Y034005D01*
X034133Y034088D02*
X034216D01*
X034133D02*
X034216Y034171D01*
X034133Y034255D02*
X034216Y034171D01*
X034133Y034255D02*
X034216D01*
X034300Y034338D01*
X034383Y034255D01*
X034466D01*
X034383Y034171D02*
X034466Y034255D01*
X034383Y034171D02*
X034466Y034088D01*
X034383D02*
X034466D01*
X034300Y034005D02*
X034383Y034088D01*
X035216D02*
X035300Y034005D01*
X035133Y034088D02*
X035216D01*
X035133D02*
X035216Y034171D01*
X035133Y034255D02*
X035216Y034171D01*
X035133Y034255D02*
X035216D01*
X035300Y034338D01*
X035383Y034255D01*
X035466D01*
X035383Y034171D02*
X035466Y034255D01*
X035383Y034171D02*
X035466Y034088D01*
X035383D02*
X035466D01*
X035300Y034005D02*
X035383Y034088D01*
X036216D02*
X036300Y034005D01*
X036133Y034088D02*
X036216D01*
X036133D02*
X036216Y034171D01*
X036133Y034255D02*
X036216Y034171D01*
X036133Y034255D02*
X036216D01*
X036300Y034338D01*
X036383Y034255D01*
X036466D01*
X036383Y034171D02*
X036466Y034255D01*
X036383Y034171D02*
X036466Y034088D01*
X036383D02*
X036466D01*
X036300Y034005D02*
X036383Y034088D01*
X037216D02*
X037300Y034005D01*
X037133Y034088D02*
X037216D01*
X037133D02*
X037216Y034171D01*
X037133Y034255D02*
X037216Y034171D01*
X037133Y034255D02*
X037216D01*
X037300Y034338D01*
X037383Y034255D01*
X037466D01*
X037383Y034171D02*
X037466Y034255D01*
X037383Y034171D02*
X037466Y034088D01*
X037383D02*
X037466D01*
X037300Y034005D02*
X037383Y034088D01*
X038216D02*
X038300Y034005D01*
X038133Y034088D02*
X038216D01*
X038133D02*
X038216Y034171D01*
X038133Y034255D02*
X038216Y034171D01*
X038133Y034255D02*
X038216D01*
X038300Y034338D01*
X038383Y034255D01*
X038466D01*
X038383Y034171D02*
X038466Y034255D01*
X038383Y034171D02*
X038466Y034088D01*
X038383D02*
X038466D01*
X038300Y034005D02*
X038383Y034088D01*
X039216D02*
X039300Y034005D01*
X039133Y034088D02*
X039216D01*
X039133D02*
X039216Y034171D01*
X039133Y034255D02*
X039216Y034171D01*
X039133Y034255D02*
X039216D01*
X039300Y034338D01*
X039383Y034255D01*
X039466D01*
X039383Y034171D02*
X039466Y034255D01*
X039383Y034171D02*
X039466Y034088D01*
X039383D02*
X039466D01*
X039300Y034005D02*
X039383Y034088D01*
D36*
X012362Y057370D02*
X051151D01*
X012362Y051370D02*
X051151D01*
X012362Y049870D02*
X051151D01*
Y058870D01*
X012362D02*
X051151D01*
X012362Y049870D02*
Y058870D01*
X043363Y049870D02*
Y058870D01*
X038304Y049870D02*
Y058870D01*
X024848Y049870D02*
Y058870D01*
X017870Y049870D02*
Y058870D01*
D37*
X043813Y058539D02*
Y057820D01*
Y058180D01*
X044293D01*
Y058539D01*
Y057820D01*
X044653D02*
X044893D01*
X045013Y057940D01*
Y058180D01*
X044893Y058300D01*
X044653D01*
X044533Y058180D01*
Y057940D01*
X044653Y057820D01*
X045253D02*
X045493D01*
X045373D01*
Y058539D01*
X045253D01*
X046212Y057820D02*
X045973D01*
X045853Y057940D01*
Y058180D01*
X045973Y058300D01*
X046212D01*
X046332Y058180D01*
Y058060D01*
X045853D01*
X047292Y058539D02*
X047772D01*
X047532D01*
Y057820D01*
X048012Y058300D02*
Y057940D01*
X048132Y057820D01*
X048492D01*
Y057700D01*
X048372Y057580D01*
X048252D01*
X048492Y057820D02*
Y058300D01*
X048732Y057580D02*
Y058300D01*
X049092D01*
X049211Y058180D01*
Y057940D01*
X049092Y057820D01*
X048732D01*
X049811D02*
X049571D01*
X049451Y057940D01*
Y058180D01*
X049571Y058300D01*
X049811D01*
X049931Y058180D01*
Y058060D01*
X049451D01*
X038754Y057820D02*
Y058539D01*
X039114D01*
X039234Y058419D01*
Y058180D01*
X039114Y058060D01*
X038754D01*
X039474Y057820D02*
X039714D01*
X039594D01*
Y058539D01*
X039474D01*
X040194Y058300D02*
X040434D01*
X040554Y058180D01*
Y057820D01*
X040194D01*
X040074Y057940D01*
X040194Y058060D01*
X040554D01*
X040914Y058419D02*
Y058300D01*
X040794D01*
X041034D01*
X040914D01*
Y057940D01*
X041034Y057820D01*
X041754D02*
X041514D01*
X041394Y057940D01*
Y058180D01*
X041514Y058300D01*
X041754D01*
X041873Y058180D01*
Y058060D01*
X041394D01*
X042593Y058539D02*
Y057820D01*
X042233D01*
X042113Y057940D01*
Y058180D01*
X042233Y058300D01*
X042593D01*
X025778Y058539D02*
X025298D01*
Y058180D01*
X025538D01*
X025298D01*
Y057820D01*
X026018D02*
X026258D01*
X026138D01*
Y058300D01*
X026018D01*
X026618Y057820D02*
Y058300D01*
X026978D01*
X027098Y058180D01*
Y057820D01*
X027338D02*
X027578D01*
X027458D01*
Y058300D01*
X027338D01*
X027938Y057820D02*
X028297D01*
X028417Y057940D01*
X028297Y058060D01*
X028058D01*
X027938Y058180D01*
X028058Y058300D01*
X028417D01*
X028657Y058539D02*
Y057820D01*
Y058180D01*
X028777Y058300D01*
X029017D01*
X029137Y058180D01*
Y057820D01*
X029737D02*
X029497D01*
X029377Y057940D01*
Y058180D01*
X029497Y058300D01*
X029737D01*
X029857Y058180D01*
Y058060D01*
X029377D01*
X030577Y058539D02*
Y057820D01*
X030217D01*
X030097Y057940D01*
Y058180D01*
X030217Y058300D01*
X030577D01*
X031536Y058539D02*
Y057820D01*
Y058180D01*
X032016D01*
Y058539D01*
Y057820D01*
X032376D02*
X032616D01*
X032736Y057940D01*
Y058180D01*
X032616Y058300D01*
X032376D01*
X032256Y058180D01*
Y057940D01*
X032376Y057820D01*
X032976D02*
X033216D01*
X033096D01*
Y058539D01*
X032976D01*
X033936Y057820D02*
X033696D01*
X033576Y057940D01*
Y058180D01*
X033696Y058300D01*
X033936D01*
X034056Y058180D01*
Y058060D01*
X033576D01*
X035495Y058419D02*
X035375Y058539D01*
X035135D01*
X035015Y058419D01*
Y058300D01*
X035135Y058180D01*
X035375D01*
X035495Y058060D01*
Y057940D01*
X035375Y057820D01*
X035135D01*
X035015Y057940D01*
X035735Y057820D02*
X035975D01*
X035855D01*
Y058300D01*
X035735D01*
X036335D02*
X036815D01*
X036335Y057820D01*
X036815D01*
X037415D02*
X037175D01*
X037055Y057940D01*
Y058180D01*
X037175Y058300D01*
X037415D01*
X037534Y058180D01*
Y058060D01*
X037055D01*
X018320Y058539D02*
Y057820D01*
Y058180D01*
X018800D01*
Y058539D01*
Y057820D01*
X019040D02*
X019280D01*
X019160D01*
Y058300D01*
X019040D01*
X019760Y058419D02*
Y058300D01*
X019640D01*
X019880D01*
X019760D01*
Y057940D01*
X019880Y057820D01*
X021439Y058419D02*
X021319Y058539D01*
X021079D01*
X020959Y058419D01*
Y057940D01*
X021079Y057820D01*
X021319D01*
X021439Y057940D01*
X021799Y057820D02*
X022039D01*
X022159Y057940D01*
Y058180D01*
X022039Y058300D01*
X021799D01*
X021679Y058180D01*
Y057940D01*
X021799Y057820D01*
X022399Y058300D02*
Y057940D01*
X022519Y057820D01*
X022879D01*
Y058300D01*
X023119Y057820D02*
Y058300D01*
X023479D01*
X023599Y058180D01*
Y057820D01*
X023958Y058419D02*
Y058300D01*
X023839D01*
X024078D01*
X023958D01*
Y057940D01*
X024078Y057820D01*
X013741Y058419D02*
X013621Y058539D01*
X013382D01*
X013262Y058419D01*
Y058300D01*
X013382Y058180D01*
X013621D01*
X013741Y058060D01*
Y057940D01*
X013621Y057820D01*
X013382D01*
X013262Y057940D01*
X013981Y058300D02*
Y057940D01*
X014101Y057820D01*
X014461D01*
Y057700D01*
X014341Y057580D01*
X014221D01*
X014461Y057820D02*
Y058300D01*
X014701Y057820D02*
Y058300D01*
X014821D01*
X014941Y058180D01*
Y057820D01*
Y058180D01*
X015061Y058300D01*
X015181Y058180D01*
Y057820D01*
X015421Y058539D02*
Y057820D01*
X015781D01*
X015901Y057940D01*
Y058060D01*
Y058180D01*
X015781Y058300D01*
X015421D01*
X016261Y057820D02*
X016500D01*
X016620Y057940D01*
Y058180D01*
X016500Y058300D01*
X016261D01*
X016141Y058180D01*
Y057940D01*
X016261Y057820D01*
X016860D02*
X017100D01*
X016980D01*
Y058539D01*
X016860D01*
M02*
