%FSAX24Y24*%
%MOIN*%
G70*
G01*
G75*
G04 Layer_Physical_Order=2*
G04 Layer_Color=16440176*
%ADD10R,0.0354X0.0394*%
%ADD11R,0.3937X0.3937*%
%ADD12R,0.0366X0.0600*%
%ADD13C,0.0394*%
%ADD14R,0.0354X0.0276*%
%ADD15C,0.0080*%
%ADD16C,0.0620*%
%ADD17R,0.0620X0.0620*%
%ADD18C,0.2756*%
%ADD19C,0.0118*%
%ADD20C,0.0180*%
D15*
X031580Y023102D02*
Y025371D01*
X032074Y022707D02*
Y025834D01*
X024535Y018421D02*
X044640D01*
X025865Y019751D02*
X043310D01*
X020760Y020131D02*
X026055D01*
X020570Y019941D02*
X025865D01*
X020380Y019751D02*
X025675D01*
X020190Y019561D02*
X025485D01*
X020000Y019371D02*
X025295D01*
X019810Y019181D02*
X025105D01*
X019620Y018991D02*
X024915D01*
X019430Y018801D02*
X024725D01*
X019240Y018611D02*
X024535D01*
Y018421D02*
Y018611D01*
X024725D02*
Y018801D01*
X024915D02*
Y018991D01*
X025105D02*
Y019181D01*
X025295D02*
Y019371D01*
X025485D02*
Y019561D01*
X025675D02*
Y019751D01*
X025865D02*
Y019941D01*
X026055D02*
Y020131D01*
X044640Y018421D02*
Y044012D01*
X019050D02*
X044640D01*
X019050Y018421D02*
Y044012D01*
X020760Y020131D02*
Y042302D01*
X020380Y019751D02*
Y042682D01*
X020000Y019371D02*
Y043062D01*
X020190Y019561D02*
Y042872D01*
X019620Y018991D02*
Y043442D01*
X019810Y019181D02*
Y043252D01*
X019430Y018801D02*
Y043632D01*
X019240Y018611D02*
Y043822D01*
X042930Y020131D02*
Y042302D01*
X020760D02*
X042930D01*
X043310Y019751D02*
Y042682D01*
X020380D02*
X043310D01*
X043120Y019941D02*
Y042492D01*
X020570D02*
X043120D01*
X043690Y019371D02*
Y043062D01*
X020000D02*
X043690D01*
X043500Y019561D02*
Y042872D01*
X020190D02*
X043500D01*
X044070Y018991D02*
Y043442D01*
X019620D02*
X044070D01*
X043880Y019181D02*
Y043252D01*
X019810D02*
X043880D01*
X019430Y043632D02*
X044260D01*
Y018801D02*
Y043632D01*
X019240Y043822D02*
X044450D01*
Y018611D02*
Y043822D01*
X026245Y020131D02*
X042930D01*
X026055Y019941D02*
X043120D01*
X025485Y019371D02*
X043690D01*
X025675Y019561D02*
X043500D01*
X025105Y018991D02*
X044070D01*
X025295Y019181D02*
X043880D01*
X024915Y018801D02*
X044260D01*
X024725Y018611D02*
X044450D01*
X020570Y019941D02*
Y042492D01*
X019050Y018421D02*
X024155D01*
Y018231D02*
X024345D01*
X024155D02*
Y018421D01*
X026245Y020131D02*
Y020321D01*
D20*
X031580Y025371D02*
D03*
Y023102D02*
D03*
X032074Y025834D02*
D03*
Y022684D02*
D03*
X024345Y018231D02*
D03*
X026245Y020321D02*
D03*
M02*
