%FSLAX25Y25*%
%MOIN*%
G70*
G01*
G75*
G04 Layer_Physical_Order=2*
G04 Layer_Color=16711680*
%ADD10O,0.08661X0.02362*%
%ADD11R,0.03937X0.05709*%
%ADD12R,0.05709X0.02165*%
%ADD13C,0.01000*%
%ADD14R,0.04724X0.04724*%
%ADD15C,0.04724*%
%ADD16C,0.09843*%
%ADD17C,0.02756*%
G36*
X255906Y51181D02*
X51181D01*
Y185039D01*
X255906D01*
Y51181D01*
D02*
G37*
%LPC*%
G36*
X207193Y136183D02*
Y134358D01*
X209018D01*
X208933Y134786D01*
X208407Y135573D01*
X207621Y136098D01*
X207193Y136183D01*
D02*
G37*
G36*
X206193D02*
X205765Y136098D01*
X204978Y135573D01*
X204453Y134786D01*
X204368Y134358D01*
X206193D01*
Y136183D01*
D02*
G37*
G36*
X209018Y133358D02*
X207193D01*
Y131533D01*
X207621Y131618D01*
X208407Y132144D01*
X208933Y132930D01*
X209018Y133358D01*
D02*
G37*
G36*
X149106Y137295D02*
X147281D01*
X147366Y136867D01*
X147892Y136081D01*
X148679Y135555D01*
X149106Y135470D01*
Y137295D01*
D02*
G37*
G36*
X150106Y140120D02*
Y138295D01*
X151931D01*
X151846Y138723D01*
X151321Y139510D01*
X150534Y140035D01*
X150106Y140120D01*
D02*
G37*
G36*
X149106D02*
X148679Y140035D01*
X147892Y139510D01*
X147366Y138723D01*
X147281Y138295D01*
X149106D01*
Y140120D01*
D02*
G37*
G36*
X151931Y137295D02*
X150106D01*
Y135470D01*
X150534Y135555D01*
X151321Y136081D01*
X151846Y136867D01*
X151931Y137295D01*
D02*
G37*
G36*
X206193Y133358D02*
X204368D01*
X204453Y132930D01*
X204978Y132144D01*
X205765Y131618D01*
X206193Y131533D01*
Y133358D01*
D02*
G37*
G36*
X186024Y136066D02*
X185179Y135898D01*
X184462Y135419D01*
X183984Y134703D01*
X183816Y133858D01*
X183984Y133013D01*
X184462Y132297D01*
X184711Y132131D01*
Y105315D01*
X184811Y104813D01*
X185096Y104387D01*
X193896Y95586D01*
X193782Y95310D01*
X193674Y94488D01*
X193782Y93666D01*
X194099Y92900D01*
X194604Y92242D01*
X195262Y91737D01*
X196028Y91420D01*
X196850Y91311D01*
X197673Y91420D01*
X198439Y91737D01*
X199097Y92242D01*
X199602Y92900D01*
X199919Y93666D01*
X200027Y94488D01*
X199919Y95310D01*
X199602Y96077D01*
X199097Y96734D01*
X198439Y97239D01*
X197673Y97557D01*
X196850Y97665D01*
X196028Y97557D01*
X195752Y97443D01*
X187336Y105859D01*
Y132131D01*
X187585Y132297D01*
X188063Y133013D01*
X188231Y133858D01*
X188063Y134703D01*
X187585Y135419D01*
X186869Y135898D01*
X186024Y136066D01*
D02*
G37*
G36*
X78740Y94341D02*
X77250Y94144D01*
X75861Y93569D01*
X74669Y92654D01*
X73754Y91462D01*
X73178Y90073D01*
X72982Y88583D01*
X73178Y87092D01*
X73754Y85704D01*
X74669Y84511D01*
X75861Y83596D01*
X77250Y83021D01*
X78740Y82825D01*
X80230Y83021D01*
X81619Y83596D01*
X82812Y84511D01*
X83727Y85704D01*
X84302Y87092D01*
X84498Y88583D01*
X84302Y90073D01*
X83727Y91462D01*
X82812Y92654D01*
X81619Y93569D01*
X80230Y94144D01*
X78740Y94341D01*
D02*
G37*
G36*
Y74656D02*
X77250Y74459D01*
X75861Y73884D01*
X74669Y72969D01*
X73754Y71777D01*
X73178Y70388D01*
X72982Y68898D01*
X73178Y67407D01*
X73754Y66019D01*
X74669Y64826D01*
X75861Y63911D01*
X77250Y63336D01*
X78740Y63140D01*
X80230Y63336D01*
X81619Y63911D01*
X82812Y64826D01*
X83727Y66019D01*
X84302Y67407D01*
X84498Y68898D01*
X84302Y70388D01*
X83727Y71777D01*
X82812Y72969D01*
X81619Y73884D01*
X80230Y74459D01*
X78740Y74656D01*
D02*
G37*
G36*
X206850Y97665D02*
X206028Y97557D01*
X205262Y97239D01*
X204604Y96734D01*
X204099Y96077D01*
X203782Y95310D01*
X203674Y94488D01*
X203782Y93666D01*
X204099Y92900D01*
X204604Y92242D01*
X205262Y91737D01*
X206028Y91420D01*
X206850Y91311D01*
X207673Y91420D01*
X208439Y91737D01*
X209097Y92242D01*
X209602Y92900D01*
X209919Y93666D01*
X210027Y94488D01*
X209919Y95310D01*
X209602Y96077D01*
X209097Y96734D01*
X208439Y97239D01*
X207673Y97557D01*
X206850Y97665D01*
D02*
G37*
G36*
X173228Y156735D02*
X172383Y156567D01*
X171667Y156089D01*
X171189Y155372D01*
X171021Y154528D01*
X171189Y153683D01*
X171667Y152966D01*
X171916Y152800D01*
Y127297D01*
X151333D01*
X151167Y127545D01*
X150451Y128024D01*
X149606Y128192D01*
X148761Y128024D01*
X148045Y127545D01*
X147567Y126829D01*
X147398Y125984D01*
X147567Y125139D01*
X148045Y124423D01*
X148761Y123944D01*
X149606Y123776D01*
X150451Y123944D01*
X151167Y124423D01*
X151333Y124672D01*
X171916D01*
Y108110D01*
X172016Y107608D01*
X172300Y107182D01*
X183701Y95781D01*
Y91339D01*
X190000D01*
Y97638D01*
X185557D01*
X174541Y108654D01*
Y125984D01*
Y152800D01*
X174790Y152966D01*
X175268Y153683D01*
X175436Y154528D01*
X175268Y155372D01*
X174790Y156089D01*
X174073Y156567D01*
X173228Y156735D01*
D02*
G37*
G36*
X78740Y133711D02*
X77250Y133514D01*
X75861Y132939D01*
X74669Y132024D01*
X73754Y130832D01*
X73178Y129443D01*
X72982Y127953D01*
X73178Y126462D01*
X73754Y125074D01*
X74669Y123881D01*
X75861Y122966D01*
X77250Y122391D01*
X78740Y122195D01*
X80230Y122391D01*
X81619Y122966D01*
X82812Y123881D01*
X83727Y125074D01*
X84302Y126462D01*
X84498Y127953D01*
X84302Y129443D01*
X83727Y130832D01*
X82812Y132024D01*
X81619Y132939D01*
X80230Y133514D01*
X78740Y133711D01*
D02*
G37*
G36*
Y114026D02*
X77250Y113829D01*
X75861Y113254D01*
X74669Y112339D01*
X73754Y111147D01*
X73178Y109758D01*
X72982Y108268D01*
X73178Y106778D01*
X73754Y105389D01*
X74669Y104196D01*
X75861Y103281D01*
X77250Y102706D01*
X78740Y102510D01*
X80230Y102706D01*
X81619Y103281D01*
X82812Y104196D01*
X83727Y105389D01*
X84302Y106778D01*
X84498Y108268D01*
X84302Y109758D01*
X83727Y111147D01*
X82812Y112339D01*
X81619Y113254D01*
X80230Y113829D01*
X78740Y114026D01*
D02*
G37*
G36*
X227847Y141232D02*
X226021D01*
X226107Y140804D01*
X226632Y140018D01*
X227419Y139492D01*
X227847Y139407D01*
Y141232D01*
D02*
G37*
G36*
X150106Y151931D02*
Y150106D01*
X151931D01*
X151846Y150534D01*
X151321Y151321D01*
X150534Y151846D01*
X150106Y151931D01*
D02*
G37*
G36*
X227847Y153043D02*
X226021D01*
X226107Y152615D01*
X226632Y151829D01*
X227419Y151303D01*
X227847Y151218D01*
Y153043D01*
D02*
G37*
G36*
X79240Y153539D02*
Y148138D01*
X84641D01*
X84576Y148799D01*
X84237Y149915D01*
X83687Y150943D01*
X82947Y151845D01*
X82046Y152585D01*
X81017Y153135D01*
X79901Y153473D01*
X79240Y153539D01*
D02*
G37*
G36*
X149106Y151931D02*
X148679Y151846D01*
X147892Y151321D01*
X147366Y150534D01*
X147281Y150106D01*
X149106D01*
Y151931D01*
D02*
G37*
G36*
X228847Y155868D02*
Y154043D01*
X230672D01*
X230586Y154471D01*
X230061Y155258D01*
X229274Y155783D01*
X228847Y155868D01*
D02*
G37*
G36*
X78740Y173081D02*
X77250Y172885D01*
X75861Y172309D01*
X74669Y171394D01*
X73754Y170202D01*
X73178Y168813D01*
X72982Y167323D01*
X73178Y165833D01*
X73754Y164444D01*
X74669Y163251D01*
X75861Y162336D01*
X77250Y161761D01*
X78740Y161565D01*
X80230Y161761D01*
X81619Y162336D01*
X82812Y163251D01*
X83727Y164444D01*
X84302Y165833D01*
X84498Y167323D01*
X84302Y168813D01*
X83727Y170202D01*
X82812Y171394D01*
X81619Y172309D01*
X80230Y172885D01*
X78740Y173081D01*
D02*
G37*
G36*
X230672Y153043D02*
X228847D01*
Y151218D01*
X229274Y151303D01*
X230061Y151829D01*
X230586Y152615D01*
X230672Y153043D01*
D02*
G37*
G36*
X227847Y155868D02*
X227419Y155783D01*
X226632Y155258D01*
X226107Y154471D01*
X226021Y154043D01*
X227847D01*
Y155868D01*
D02*
G37*
G36*
X84641Y147138D02*
X79240D01*
Y141737D01*
X79901Y141802D01*
X81017Y142141D01*
X82046Y142691D01*
X82947Y143431D01*
X83687Y144332D01*
X84237Y145361D01*
X84576Y146477D01*
X84641Y147138D01*
D02*
G37*
G36*
X227847Y144057D02*
X227419Y143972D01*
X226632Y143447D01*
X226107Y142660D01*
X226021Y142232D01*
X227847D01*
Y144057D01*
D02*
G37*
G36*
X230672Y141232D02*
X228847D01*
Y139407D01*
X229274Y139492D01*
X230061Y140018D01*
X230586Y140804D01*
X230672Y141232D01*
D02*
G37*
G36*
X78240Y147138D02*
X72839D01*
X72905Y146477D01*
X73243Y145361D01*
X73793Y144332D01*
X74533Y143431D01*
X75435Y142691D01*
X76463Y142141D01*
X77579Y141802D01*
X78240Y141737D01*
Y147138D01*
D02*
G37*
G36*
X151931Y149106D02*
X150106D01*
Y147281D01*
X150534Y147366D01*
X151321Y147892D01*
X151846Y148679D01*
X151931Y149106D01*
D02*
G37*
G36*
X78240Y153539D02*
X77579Y153473D01*
X76463Y153135D01*
X75435Y152585D01*
X74533Y151845D01*
X73793Y150943D01*
X73243Y149915D01*
X72905Y148799D01*
X72839Y148138D01*
X78240D01*
Y153539D01*
D02*
G37*
G36*
X228847Y144057D02*
Y142232D01*
X230672D01*
X230586Y142660D01*
X230061Y143447D01*
X229274Y143972D01*
X228847Y144057D01*
D02*
G37*
G36*
X149106Y149106D02*
X147281D01*
X147366Y148679D01*
X147892Y147892D01*
X148679Y147366D01*
X149106Y147281D01*
Y149106D01*
D02*
G37*
%LPD*%
D13*
X173228Y125984D02*
Y154528D01*
Y108110D02*
Y125984D01*
Y108110D02*
X186850Y94488D01*
X186024Y105315D02*
Y133858D01*
Y105315D02*
X196850Y94488D01*
X149606Y125984D02*
X173228D01*
D14*
X186850Y94488D02*
D03*
D15*
X196850D02*
D03*
X206850D02*
D03*
D16*
X78740Y167323D02*
D03*
Y147638D02*
D03*
Y127953D02*
D03*
Y108268D02*
D03*
Y88583D02*
D03*
Y68898D02*
D03*
D17*
X173228Y154528D02*
D03*
X186024Y133858D02*
D03*
X206693D02*
D03*
X149606Y149606D02*
D03*
Y137795D02*
D03*
Y125984D02*
D03*
X228346Y141732D02*
D03*
Y153543D02*
D03*
M02*
