%FSLAX25Y25*%
%MOIN*%
G70*
G01*
G75*
G04 Layer_Physical_Order=2*
G04 Layer_Color=32768*
%ADD10R,0.02756X0.03150*%
%ADD11O,0.06890X0.01181*%
%ADD12R,0.12598X0.07874*%
%ADD13R,0.03150X0.02756*%
%ADD14R,0.05118X0.03150*%
%ADD15R,0.05906X0.02362*%
%ADD16O,0.08661X0.02362*%
%ADD17R,0.11000X0.02900*%
%ADD18C,0.01000*%
%ADD19C,0.02000*%
%ADD20C,0.03000*%
%ADD21C,0.01181*%
%ADD22C,0.01800*%
%ADD23C,0.00100*%
%ADD24C,0.07874*%
%ADD25R,0.05906X0.05906*%
%ADD26C,0.05906*%
%ADD27C,0.07087*%
%ADD28C,0.19685*%
%ADD29C,0.16535*%
%ADD30C,0.06299*%
%ADD31R,0.06299X0.06299*%
%ADD32C,0.27559*%
%ADD33C,0.23622*%
%ADD34R,0.05906X0.05906*%
G04:AMPARAMS|DCode=35|XSize=78.74mil|YSize=78.74mil|CornerRadius=19.69mil|HoleSize=0mil|Usage=FLASHONLY|Rotation=0.000|XOffset=0mil|YOffset=0mil|HoleType=Round|Shape=RoundedRectangle|*
%AMROUNDEDRECTD35*
21,1,0.07874,0.03937,0,0,0.0*
21,1,0.03937,0.07874,0,0,0.0*
1,1,0.03937,0.01969,-0.01969*
1,1,0.03937,-0.01969,-0.01969*
1,1,0.03937,-0.01969,0.01969*
1,1,0.03937,0.01969,0.01969*
%
%ADD35ROUNDEDRECTD35*%
%ADD36C,0.02362*%
%ADD37C,0.02756*%
%ADD38C,0.01969*%
%ADD39C,0.03937*%
%ADD40C,0.04000*%
%ADD41C,0.04000*%
%ADD42C,0.00787*%
%ADD43C,0.08331*%
%ADD44C,0.07543*%
%ADD45C,0.08685*%
%ADD46C,0.16520*%
%ADD47C,0.17779*%
%ADD48C,0.16205*%
G04:AMPARAMS|DCode=49|XSize=95.433mil|YSize=95.433mil|CornerRadius=0mil|HoleSize=0mil|Usage=FLASHONLY|Rotation=0.000|XOffset=0mil|YOffset=0mil|HoleType=Round|Shape=Relief|Width=10mil|Gap=10mil|Entries=4|*
%AMTHD49*
7,0,0,0.09543,0.07543,0.01000,45*
%
%ADD49THD49*%
%ADD50C,0.16598*%
%ADD51C,0.07937*%
%ADD52C,0.15811*%
%ADD53C,0.05181*%
G04:AMPARAMS|DCode=54|XSize=71.811mil|YSize=71.811mil|CornerRadius=0mil|HoleSize=0mil|Usage=FLASHONLY|Rotation=0.000|XOffset=0mil|YOffset=0mil|HoleType=Round|Shape=Relief|Width=10mil|Gap=10mil|Entries=4|*
%AMTHD54*
7,0,0,0.07181,0.05181,0.01000,45*
%
%ADD54THD54*%
%ADD55C,0.05969*%
G04:AMPARAMS|DCode=56|XSize=79.685mil|YSize=79.685mil|CornerRadius=0mil|HoleSize=0mil|Usage=FLASHONLY|Rotation=0.000|XOffset=0mil|YOffset=0mil|HoleType=Round|Shape=Relief|Width=10mil|Gap=10mil|Entries=4|*
%AMTHD56*
7,0,0,0.07969,0.05969,0.01000,45*
%
%ADD56THD56*%
D23*
X-12795Y-59055D02*
G03*
X-44291Y-27559I-31496J0D01*
G01*
X-737205Y-27559D02*
G03*
X-768701Y-59055I0J-31496D01*
G01*
X-768701Y-398819D02*
X-12795D01*
X-768701D02*
Y-59055D01*
X-768701Y-59055D02*
X-768701Y-59055D01*
X-737205Y-27559D02*
X-44291D01*
D40*
X-768752Y-398819D02*
G03*
X-768701Y-398870I52J0D01*
G01*
X-12795D02*
G03*
X-12744Y-398819I0J52D01*
G01*
Y-59055D02*
G03*
X-44290Y-27507I-31548J0D01*
G01*
D02*
G03*
X-44291Y-27507I-1J-31548D01*
G01*
X-44290D02*
G03*
X-44291Y-27507I-1J-52D01*
G01*
X-737205D02*
G03*
X-768752Y-59055I0J-31548D01*
G01*
X-768701Y-398870D02*
X-12795D01*
X-12744Y-398819D02*
Y-59055D01*
X-44291Y-27507D02*
X-44290D01*
X-737205Y-27507D02*
X-44291D01*
X-768752Y-59055D02*
X-768752Y-59055D01*
Y-398819D02*
Y-59055D01*
D41*
X-44291Y-27507D02*
D03*
D42*
X-768752Y-84591D02*
X-566796D01*
X-551245Y-100142D01*
Y-111559D02*
Y-100142D01*
X-549654Y-122976D02*
X-545300D01*
X-569946Y-103094D02*
X-559021Y-114020D01*
X-553706D01*
X-551245Y-111559D01*
X-768469Y-304276D02*
X-731560D01*
Y-296402D01*
X-761284D02*
X-731560D01*
X-761284D02*
Y-89807D01*
X-689040D01*
X-679690Y-363906D02*
Y-304276D01*
X-680091D02*
X-679690D01*
X-706461Y-296406D02*
X-679690D01*
X-706461Y-304276D02*
X-680091D01*
X-706461D02*
Y-296406D01*
X-689040Y-89807D02*
X-569946D01*
Y-103094D02*
Y-89807D01*
X-490064Y-169236D02*
X-425064D01*
X-490064D02*
Y-142366D01*
X-479296Y-296406D02*
Y-237445D01*
X-679690Y-296406D02*
X-479296D01*
X-679690Y-363906D02*
X-666402D01*
Y-307405D01*
X-461776D01*
Y-237445D01*
X-479296D02*
X-461776D01*
X-661087Y-131106D02*
X-489087D01*
X-661087Y-201772D02*
Y-131106D01*
Y-201772D02*
X-645587D01*
Y-142366D01*
X-490064D01*
X-425064Y-286067D02*
X-120930D01*
Y-290988D02*
Y-286067D01*
Y-398870D02*
Y-290988D01*
X-490064Y-131106D02*
X-12744D01*
X-425064Y-286067D02*
Y-169236D01*
D43*
X-470950Y-186189D02*
D03*
Y-196189D02*
D03*
X-444828Y-311067D02*
D03*
X-434828D02*
D03*
D44*
X-75654Y-384492D02*
D03*
X-65654D02*
D03*
X-185891D02*
D03*
X-175891D02*
D03*
X-406363Y-384492D02*
D03*
X-396363D02*
D03*
X-296127Y-384492D02*
D03*
X-286127D02*
D03*
X-445143Y-275634D02*
D03*
X-435143D02*
D03*
X-435044Y-263724D02*
D03*
X-379710Y-222091D02*
D03*
Y-232090D02*
D03*
Y-242091D02*
D03*
Y-252091D02*
D03*
Y-262090D02*
D03*
Y-272091D02*
D03*
X-50064Y-321106D02*
D03*
Y-331106D02*
D03*
Y-291106D02*
D03*
Y-301106D02*
D03*
Y-311106D02*
D03*
Y-271106D02*
D03*
Y-281106D02*
D03*
Y-261106D02*
D03*
Y-221106D02*
D03*
Y-251106D02*
D03*
Y-241106D02*
D03*
X-40064Y-271106D02*
D03*
X-50064Y-231106D02*
D03*
X-40064Y-331106D02*
D03*
Y-311106D02*
D03*
Y-321106D02*
D03*
Y-301106D02*
D03*
Y-281106D02*
D03*
Y-291106D02*
D03*
Y-241106D02*
D03*
Y-261106D02*
D03*
Y-221106D02*
D03*
Y-251106D02*
D03*
Y-231106D02*
D03*
X-50064Y-136106D02*
D03*
X-40064D02*
D03*
X-50064Y-146106D02*
D03*
X-40064D02*
D03*
X-50064Y-156106D02*
D03*
X-40064D02*
D03*
X-50064Y-166106D02*
D03*
X-40064D02*
D03*
X-50064Y-176106D02*
D03*
X-40064D02*
D03*
X-50064Y-186106D02*
D03*
X-40064D02*
D03*
X-50064Y-196106D02*
D03*
X-40064D02*
D03*
X-50064Y-206106D02*
D03*
X-40064D02*
D03*
D45*
X-197409Y-53479D02*
D03*
X-208209D02*
D03*
X-219009D02*
D03*
X-229809D02*
D03*
X-192009Y-64679D02*
D03*
X-202810D02*
D03*
X-213610D02*
D03*
X-224410D02*
D03*
X-235209D02*
D03*
X-470883Y-76512D02*
D03*
X-480371D02*
D03*
X-489859D02*
D03*
X-499465D02*
D03*
X-508954D02*
D03*
X-518442D02*
D03*
X-527930D02*
D03*
X-537418D02*
D03*
X-546906D02*
D03*
X-556394D02*
D03*
X-565883D02*
D03*
X-575371D02*
D03*
X-584859D02*
D03*
X-594347D02*
D03*
X-603835D02*
D03*
X-613324D02*
D03*
X-622812D02*
D03*
X-632300D02*
D03*
X-641788D02*
D03*
X-660765D02*
D03*
X-651276D02*
D03*
X-665528Y-66512D02*
D03*
X-651276Y-56512D02*
D03*
X-660765D02*
D03*
X-641788D02*
D03*
X-632300D02*
D03*
X-622812D02*
D03*
X-613324D02*
D03*
X-603835D02*
D03*
X-594347D02*
D03*
X-584859D02*
D03*
X-575371D02*
D03*
X-565883D02*
D03*
X-556394D02*
D03*
X-546906D02*
D03*
X-537418D02*
D03*
X-527930D02*
D03*
X-518442D02*
D03*
X-508954D02*
D03*
X-499465D02*
D03*
X-489859D02*
D03*
X-480371D02*
D03*
X-475646Y-66512D02*
D03*
X-485135D02*
D03*
X-494741D02*
D03*
X-504229D02*
D03*
X-513717D02*
D03*
X-523206D02*
D03*
X-532694D02*
D03*
X-542182D02*
D03*
X-551670D02*
D03*
X-561158D02*
D03*
X-570646D02*
D03*
X-580135D02*
D03*
X-589623D02*
D03*
X-599111D02*
D03*
X-608599D02*
D03*
X-618087D02*
D03*
X-627576D02*
D03*
X-637064D02*
D03*
X-656040D02*
D03*
X-646552D02*
D03*
D46*
X-262809Y-59079D02*
D03*
X-164409D02*
D03*
X-693048Y-66512D02*
D03*
X-443048D02*
D03*
D47*
X-390748Y-55118D02*
D03*
D48*
X-717520D02*
D03*
X-63976Y-55118D02*
D03*
X-733268Y-366142D02*
D03*
D49*
X-445044Y-263724D02*
D03*
D50*
X-46048Y-351421D02*
D03*
X-400379Y-115201D02*
D03*
X-46048D02*
D03*
X-400379Y-351421D02*
D03*
D51*
X-485236Y-330487D02*
D03*
X-473425D02*
D03*
X-497047D02*
D03*
X-508858D02*
D03*
Y-342287D02*
D03*
X-497047D02*
D03*
X-473425D02*
D03*
X-485236D02*
D03*
X-565945Y-330487D02*
D03*
X-554134D02*
D03*
X-577756D02*
D03*
X-589567D02*
D03*
Y-342287D02*
D03*
X-577756D02*
D03*
X-554134D02*
D03*
X-565945D02*
D03*
X-648819Y-330487D02*
D03*
X-637008D02*
D03*
X-660630D02*
D03*
X-672441D02*
D03*
Y-342287D02*
D03*
X-660630D02*
D03*
X-637008D02*
D03*
X-648819D02*
D03*
D52*
X-500354Y-375787D02*
D03*
X-481929D02*
D03*
X-581063D02*
D03*
X-562638D02*
D03*
X-663937D02*
D03*
X-645512D02*
D03*
D53*
X-218568Y-89217D02*
D03*
X-560694Y-114020D02*
D03*
X-489040Y-164020D02*
D03*
X-514828Y-126028D02*
D03*
X-479198Y-158902D02*
D03*
X-512264Y-158783D02*
D03*
X-511575Y-155731D02*
D03*
X-431158Y-163587D02*
D03*
Y-158587D02*
D03*
X-555969Y-98665D02*
D03*
X-593765D02*
D03*
X-546521Y-110476D02*
D03*
X-534893Y-111054D02*
D03*
X-521717Y-137642D02*
D03*
X-524276Y-140594D02*
D03*
X-546521Y-98666D02*
D03*
X-537072Y-98272D02*
D03*
X-417032Y-163587D02*
D03*
X-417072Y-158587D02*
D03*
X-417072Y-148587D02*
D03*
X-417032Y-143587D02*
D03*
X-584513Y-97681D02*
D03*
X-577524Y-123075D02*
D03*
X-420438Y-290988D02*
D03*
X-422997Y-285378D02*
D03*
X-609217Y-129472D02*
D03*
X-617977Y-138035D02*
D03*
X-121914Y-255555D02*
D03*
X-79966Y-266106D02*
D03*
X-118961Y-258508D02*
D03*
X-79966Y-276106D02*
D03*
X-499276Y-97583D02*
D03*
X-495536Y-110968D02*
D03*
X-103833Y-136785D02*
D03*
X-680782Y-119335D02*
D03*
X-105928Y-138880D02*
D03*
X-677820Y-119335D02*
D03*
X-632028Y-97811D02*
D03*
X-641516D02*
D03*
X-664631Y-132917D02*
D03*
Y-135880D02*
D03*
X-499194Y-109622D02*
D03*
X-517773Y-98402D02*
D03*
X-527261D02*
D03*
X-523981Y-126028D02*
D03*
X-119450Y-137740D02*
D03*
X-125950Y-140890D02*
D03*
X-85150Y-156106D02*
D03*
X-89237Y-177012D02*
D03*
X-85190Y-171500D02*
D03*
X-259667Y-136406D02*
D03*
X-255087Y-130905D02*
D03*
X-101587Y-128405D02*
D03*
X-93087Y-136406D02*
D03*
X-527658Y-109622D02*
D03*
X-470729D02*
D03*
X-480217D02*
D03*
X-575099Y-97811D02*
D03*
X-613052D02*
D03*
X-641516Y-109622D02*
D03*
X-669194Y-200902D02*
D03*
X-666438Y-228067D02*
D03*
X-673918Y-229445D02*
D03*
X-669784Y-208579D02*
D03*
X-663682Y-213894D02*
D03*
X-619194Y-200902D02*
D03*
X-616438Y-228067D02*
D03*
X-623918Y-229445D02*
D03*
X-619784Y-208579D02*
D03*
X-613682Y-213894D02*
D03*
X-618800Y-156020D02*
D03*
X-616044Y-183185D02*
D03*
X-623524Y-184563D02*
D03*
X-619390Y-163697D02*
D03*
X-613288Y-169012D02*
D03*
X-568406Y-156020D02*
D03*
X-565650Y-183185D02*
D03*
X-573131Y-184563D02*
D03*
X-568997Y-163697D02*
D03*
X-562894Y-169012D02*
D03*
X-619194Y-245783D02*
D03*
X-616438Y-272949D02*
D03*
X-623918Y-274327D02*
D03*
X-619784Y-253461D02*
D03*
X-613682Y-258776D02*
D03*
X-568406Y-245390D02*
D03*
X-565650Y-272555D02*
D03*
X-573131Y-273933D02*
D03*
X-568997Y-253067D02*
D03*
X-562894Y-258382D02*
D03*
X-568568Y-200634D02*
D03*
X-565812Y-227799D02*
D03*
X-573292Y-229177D02*
D03*
X-569158Y-208311D02*
D03*
X-563056Y-213626D02*
D03*
X-669355Y-156146D02*
D03*
X-666599Y-183311D02*
D03*
X-674080Y-184689D02*
D03*
X-669946Y-163823D02*
D03*
X-663843Y-169138D02*
D03*
X-719749Y-156146D02*
D03*
X-716993Y-183311D02*
D03*
X-724473Y-184689D02*
D03*
X-720339Y-163823D02*
D03*
X-714237Y-169138D02*
D03*
X-719587Y-200449D02*
D03*
X-716831Y-227614D02*
D03*
X-724312Y-228992D02*
D03*
X-720178Y-208126D02*
D03*
X-714076Y-213441D02*
D03*
X-719587Y-245449D02*
D03*
X-716831Y-272614D02*
D03*
X-724312Y-273992D02*
D03*
X-720178Y-253126D02*
D03*
X-714076Y-258441D02*
D03*
X-517619Y-156020D02*
D03*
X-514863Y-183185D02*
D03*
X-522343Y-184563D02*
D03*
X-518209Y-163697D02*
D03*
X-512107Y-169012D02*
D03*
X-517387Y-245319D02*
D03*
X-514631Y-272484D02*
D03*
X-522111Y-273862D02*
D03*
X-517977Y-252996D02*
D03*
X-511875Y-258311D02*
D03*
X-517619Y-200508D02*
D03*
X-514863Y-227673D02*
D03*
X-522343Y-229051D02*
D03*
X-518209Y-208185D02*
D03*
X-512107Y-213500D02*
D03*
X-669355Y-245516D02*
D03*
X-666599Y-272681D02*
D03*
X-674080Y-274059D02*
D03*
X-669946Y-253193D02*
D03*
X-663843Y-258508D02*
D03*
X-457839Y-213480D02*
D03*
X-450359Y-212102D02*
D03*
X-454493Y-232968D02*
D03*
X-460595Y-227654D02*
D03*
X-455084Y-240646D02*
D03*
X-129788Y-333508D02*
D03*
X-244572Y-324000D02*
D03*
X-106791Y-220122D02*
D03*
X-96521Y-237479D02*
D03*
X-95536Y-269960D02*
D03*
X-95339Y-321141D02*
D03*
X-95536Y-281771D02*
D03*
Y-300205D02*
D03*
X-102229Y-226028D02*
D03*
X-91402Y-240791D02*
D03*
X-84513Y-231933D02*
D03*
Y-220122D02*
D03*
X-219517Y-305752D02*
D03*
X-287879Y-314000D02*
D03*
X-253194Y-319000D02*
D03*
X-244572Y-329000D02*
D03*
X-209887D02*
D03*
X-187859Y-331343D02*
D03*
X-199670Y-331343D02*
D03*
X-403402Y-271929D02*
D03*
X-482564Y-163606D02*
D03*
X-79966Y-316106D02*
D03*
Y-306106D02*
D03*
X-430084Y-294925D02*
D03*
X-198516Y-89063D02*
D03*
X-203517D02*
D03*
X-126064Y-178945D02*
D03*
X-137564Y-178606D02*
D03*
X-80064Y-326106D02*
D03*
Y-286106D02*
D03*
Y-246106D02*
D03*
X-208517Y-89063D02*
D03*
X-228517D02*
D03*
X-85150Y-206106D02*
D03*
Y-196106D02*
D03*
Y-186106D02*
D03*
Y-176106D02*
D03*
Y-166106D02*
D03*
Y-146106D02*
D03*
Y-136106D02*
D03*
X-464875Y-163587D02*
D03*
X-743371Y-166382D02*
D03*
Y-169925D02*
D03*
X-743209Y-214228D02*
D03*
Y-210685D02*
D03*
Y-259228D02*
D03*
Y-255685D02*
D03*
X-692977Y-259295D02*
D03*
Y-255752D02*
D03*
X-691599Y-214807D02*
D03*
Y-211264D02*
D03*
X-642422Y-169799D02*
D03*
Y-166256D02*
D03*
X-641206Y-214807D02*
D03*
Y-211264D02*
D03*
X-630620Y-255626D02*
D03*
X-639828Y-254678D02*
D03*
X-538253Y-164914D02*
D03*
X-529046Y-165862D02*
D03*
X-538253Y-209402D02*
D03*
X-529046Y-210350D02*
D03*
X-589040Y-164914D02*
D03*
X-579833Y-165862D02*
D03*
X-589202Y-209528D02*
D03*
X-579994Y-210476D02*
D03*
X-589040Y-254284D02*
D03*
X-579833Y-255232D02*
D03*
X-689989Y-165040D02*
D03*
X-680782Y-165988D02*
D03*
X-539398Y-255681D02*
D03*
Y-259224D02*
D03*
X-431560Y-232327D02*
D03*
X-423292Y-235673D02*
D03*
X-649670Y-147484D02*
D03*
X-603253Y-98665D02*
D03*
X-589434Y-113626D02*
D03*
X-479985Y-124256D02*
D03*
X-567780Y-106934D02*
D03*
X-431167Y-151816D02*
D03*
X-431166Y-146697D02*
D03*
Y-141579D02*
D03*
X-417190Y-153587D02*
D03*
X-464875D02*
D03*
Y-160143D02*
D03*
X-465024Y-146697D02*
D03*
X-465025Y-141580D02*
D03*
X-592584Y-127406D02*
D03*
X-589434D02*
D03*
X-457677Y-337598D02*
D03*
X-443898Y-346457D02*
D03*
D54*
X-213450Y-89217D02*
D03*
X-556123Y-109622D02*
D03*
X-565611Y-97811D02*
D03*
X-603564Y-109622D02*
D03*
X-536087Y-159563D02*
D03*
X-535989Y-204051D02*
D03*
X-586875Y-159563D02*
D03*
X-586580Y-248933D02*
D03*
X-587072Y-204177D02*
D03*
X-637761Y-249327D02*
D03*
X-466690Y-243972D02*
D03*
X-473690D02*
D03*
X-654087Y-242075D02*
D03*
X-658087D02*
D03*
X-654087Y-234236D02*
D03*
X-658087D02*
D03*
X-650587Y-197575D02*
D03*
X-657587D02*
D03*
X-537087Y-152406D02*
D03*
X-672587Y-313405D02*
D03*
X-688879Y-197358D02*
D03*
Y-204445D02*
D03*
X-638879Y-197358D02*
D03*
Y-204445D02*
D03*
X-638485Y-152476D02*
D03*
Y-159563D02*
D03*
X-588091Y-152476D02*
D03*
X-638879Y-242240D02*
D03*
X-588091Y-241846D02*
D03*
X-588253Y-197091D02*
D03*
X-689040Y-152602D02*
D03*
X-687662Y-159689D02*
D03*
X-739434Y-152602D02*
D03*
Y-159689D02*
D03*
X-739272Y-196906D02*
D03*
Y-203992D02*
D03*
Y-241905D02*
D03*
Y-248992D02*
D03*
X-537072Y-241776D02*
D03*
Y-248862D02*
D03*
X-537304Y-196965D02*
D03*
X-689040Y-241972D02*
D03*
Y-249059D02*
D03*
X-435398Y-244189D02*
D03*
Y-237102D02*
D03*
X-193517Y-89063D02*
D03*
X-125851Y-326421D02*
D03*
X-129788D02*
D03*
X-217387Y-337410D02*
D03*
X-233331Y-309689D02*
D03*
X-187859Y-311588D02*
D03*
X-199670Y-311588D02*
D03*
X-79395Y-215437D02*
D03*
X-80064Y-296106D02*
D03*
Y-256106D02*
D03*
X-67229Y-215437D02*
D03*
X-482741Y-141972D02*
D03*
X-398622Y-281496D02*
D03*
D55*
X-488863Y-98272D02*
D03*
X-653902Y-135968D02*
D03*
X-518213Y-122287D02*
D03*
X-481560Y-251421D02*
D03*
X-507839Y-98272D02*
D03*
X-499237Y-122287D02*
D03*
X-508725D02*
D03*
X-527702D02*
D03*
X-537190D02*
D03*
X-546678D02*
D03*
X-556166D02*
D03*
X-668272Y-111559D02*
D03*
X-659712Y-98248D02*
D03*
X-650095Y-110128D02*
D03*
X-659712Y-110060D02*
D03*
X-650164Y-98248D02*
D03*
X-494816Y-102571D02*
D03*
X-641698Y-194335D02*
D03*
X-485202Y-360083D02*
D03*
X-497013D02*
D03*
X-660595D02*
D03*
X-648784D02*
D03*
X-577721D02*
D03*
X-565910D02*
D03*
X-554099Y-312740D02*
D03*
X-559906Y-312839D02*
D03*
X-636875Y-312642D02*
D03*
X-588745Y-368350D02*
D03*
X-642485Y-303390D02*
D03*
X-651737Y-287150D02*
D03*
X-646325Y-293238D02*
D03*
X-660595Y-312642D02*
D03*
X-508824Y-360083D02*
D03*
X-477229Y-356343D02*
D03*
X-501835Y-190299D02*
D03*
X-497111Y-312740D02*
D03*
X-512761Y-316677D02*
D03*
X-465587Y-101906D02*
D03*
X-475587Y-102898D02*
D03*
X-485327Y-102571D02*
D03*
X-504304D02*
D03*
X-513792D02*
D03*
X-523280D02*
D03*
X-532768D02*
D03*
X-542257D02*
D03*
X-551745D02*
D03*
X-561233D02*
D03*
X-570721D02*
D03*
X-580209D02*
D03*
X-589698D02*
D03*
X-599186D02*
D03*
X-608674D02*
D03*
X-618162D02*
D03*
X-627650D02*
D03*
X-637139D02*
D03*
X-646627D02*
D03*
X-665603D02*
D03*
X-656115D02*
D03*
D56*
X-703213Y-300142D02*
D03*
X-734808Y-300240D02*
D03*
X-672406Y-360083D02*
D03*
M02*
