M48
;Layer_Color=9474304
;FILE_FORMAT=2:5
INCH,LZ
;TYPE=PLATED
T1F00S00C0.01181
T2F00S00C0.01968
T3F00S00C0.03543
T4F00S00C0.03937
T5F00S00C0.04331
T6F00S00C0.04685
T7F00S00C0.12205
T8F00S00C0.12520
T9F00S00C0.12598
T10F00S00C0.13780
;TYPE=NON_PLATED
T11F00S00C0.11811
%
T01
X-0187859Y-0331343
Y-0311588
X-0129788Y-0326421
X-0125851
X-0129788Y-0333508
X-0095339Y-0321141
X-0080064Y-0326106
X-0079966Y-0316106
Y-0306106
X-0080064Y-0296106
Y-0286106
X-0079966Y-0276106
Y-0266106
X-0080064Y-0256106
Y-0246106
X-0091402Y-0240791
X-0095536Y-026996
Y-0281771
Y-0300205
X-0118961Y-0258508
X-0121914Y-0255555
X-019967Y-0311588
Y-0331343
X-0209887Y-0329
X-0217387Y-033741
X-0219517Y-0305752
X-0233331Y-0309689
X-0244572Y-0324
Y-0329
X-0253194Y-0319
X-0287879Y-0314
X-0398622Y-0281496
X-0403402Y-0271929
X-0422997Y-0285378
X-0420438Y-0290988
X-0430084Y-0294925
X-0435398Y-0244189
X-0455084Y-0240646
X-046669Y-0243972
X-047369
X-0457677Y-0337598
X-0443898Y-0346457
X-0514631Y-0272484
X-0522111Y-0273862
X-0517977Y-0252996
X-0517387Y-0245319
X-0511875Y-0258311
X-0539398Y-0259224
Y-0255681
X-0537072Y-0248862
Y-0241776
X-0568406Y-024539
X-0568997Y-0253067
X-0562894Y-0258382
X-056565Y-0272555
X-0573131Y-0273933
X-0579833Y-0255232
X-058904Y-0254284
X-058658Y-0248933
X-0588091Y-0241846
X-0619194Y-0245783
X-0619784Y-0253461
X-0613682Y-0258776
X-0616438Y-0272949
X-0623918Y-0274327
X-063062Y-0255626
X-0639828Y-0254678
X-0637761Y-0249327
X-0638879Y-024224
X-0654087Y-0242075
X-0658087
X-0663843Y-0258508
X-0669946Y-0253193
X-0669355Y-0245516
X-068904Y-0241972
Y-0249059
X-0692977Y-0255752
Y-0259295
X-0714076Y-0258441
X-0720178Y-0253126
X-0719587Y-0245449
X-0739272Y-0241905
Y-0248992
X-0743209Y-0255685
Y-0259228
X-0724312Y-0273992
X-0716831Y-0272614
X-067408Y-0274059
X-0666599Y-0272681
X-0672587Y-0313405
X-0673918Y-0229445
X-0666438Y-0228067
X-0669784Y-0208579
X-0669194Y-0200902
X-0666599Y-0183311
X-067408Y-0184689
X-0669946Y-0163823
X-0669355Y-0156146
X-0680782Y-0165988
X-0689989Y-016504
X-0687662Y-0159689
X-068904Y-0152602
X-0719749Y-0156146
X-0720339Y-0163823
X-0714237Y-0169138
X-0716993Y-0183311
X-0724473Y-0184689
X-0719587Y-0200449
X-0720178Y-0208126
X-0714076Y-0213441
X-0716831Y-0227614
X-0724312Y-0228992
X-0743209Y-0214228
Y-0210685
X-0739272Y-0203992
Y-0196906
X-0743371Y-0169925
Y-0166382
X-0739434Y-0159689
Y-0152602
X-0664631Y-013588
Y-0132917
X-067782Y-0119335
X-0680782
X-0688879Y-0197358
Y-0204445
X-0691599Y-0211264
Y-0214807
X-0663682Y-0213894
X-0657587Y-0197575
X-0650587
X-0638879Y-0197358
Y-0204445
X-0641206Y-0211264
Y-0214807
X-0619784Y-0208579
X-0619194Y-0200902
X-0613682Y-0213894
X-0616438Y-0228067
X-0623918Y-0229445
X-0654087Y-0234236
X-0658087
X-0663843Y-0169138
X-0642422Y-0169799
Y-0166256
X-0638485Y-0159563
Y-0152476
X-064967Y-0147484
X-06188Y-015602
X-061939Y-0163697
X-0613288Y-0169012
X-0616044Y-0183185
X-0623524Y-0184563
X-0588253Y-0197091
X-0587072Y-0204177
X-0589202Y-0209528
X-0579994Y-0210476
X-0569158Y-0208311
X-0568568Y-0200634
X-0563056Y-0213626
X-0565812Y-0227799
X-0573292Y-0229177
X-0573131Y-0184563
X-056565Y-0183185
X-0562894Y-0169012
X-0568997Y-0163697
X-0568406Y-015602
X-0579833Y-0165862
X-058904Y-0164914
X-0586875Y-0159563
X-0588091Y-0152476
X-0589434Y-0127406
X-0592584
X-0589434Y-0113626
X-0603564Y-0109622
X-0603253Y-0098665
X-0593765
X-0584513Y-0097681
X-0575099Y-0097811
X-0565611
X-0555969Y-0098665
X-0546521Y-0098666
X-0537072Y-0098272
X-0527261Y-0098402
X-0517773
X-0527658Y-0109622
X-0534893Y-0111054
X-0546521Y-0110476
X-0556123Y-0109622
X-0560694Y-011402
X-056778Y-0106934
X-0577524Y-0123075
X-0609217Y-0129472
X-0617977Y-0138035
X-0613052Y-0097811
X-0632028
X-0641516
Y-0109622
X-0523981Y-0126028
X-0514828Y-0126028
X-0521717Y-0137642
X-0524276Y-0140594
X-0517619Y-015602
X-0511575Y-0155731
X-0512264Y-0158783
X-0512107Y-0169012
X-0518209Y-0163697
X-0529046Y-0165862
X-0538253Y-0164914
X-0536087Y-0159563
X-0537087Y-0152406
X-0537304Y-0196965
X-0535989Y-0204051
X-0538253Y-0209402
X-0529046Y-021035
X-0518209Y-0208185
X-0517619Y-0200508
X-0512107Y-02135
X-0514863Y-0227673
X-0522343Y-0229051
Y-0184563
X-0514863Y-0183185
X-048904Y-016402
X-0482564Y-0163606
X-0479198Y-0158902
X-0464875Y-0160143
Y-0163587
Y-0153587
X-0465024Y-0146697
X-0465025Y-014158
X-0482741Y-0141972
X-0479985Y-0124256
X-0480217Y-0109622
X-0470729
X-0495536Y-0110968
X-0499194Y-0109622
X-0499276Y-0097583
X-0431166Y-0141579
Y-0146697
X-0431167Y-0151816
X-0431158Y-0158587
Y-0163587
X-0417032
X-0417072Y-0158587
X-041719Y-0153587
X-0417072Y-0148587
X-0417032Y-0143587
X-0423292Y-0235673
X-043156Y-0232327
X-0435398Y-0237102
X-0454493Y-0232968
X-0460595Y-0227654
X-0457839Y-021348
X-0450359Y-0212102
X-0259667Y-0136406
X-0255087Y-0130905
X-0228517Y-0089063
X-0218568Y-0089217
X-021345
X-0208517Y-0089063
X-0203517
X-0198516
X-0193517
X-012595Y-014089
X-011945Y-013774
X-0105928Y-013888
X-0103833Y-0136785
X-0101587Y-0128405
X-0093087Y-0136406
X-008515Y-0136106
Y-0146106
Y-0156106
Y-0166106
X-008519Y-01715
X-008515Y-0176106
X-0089237Y-0177012
X-008515Y-0186106
Y-0196106
Y-0206106
X-0084513Y-0220122
X-0079395Y-0215437
X-0067229
X-0084513Y-0231933
X-0096521Y-0237479
X-0102229Y-0226028
X-0106791Y-0220122
X-0126064Y-0178945
X-0137564Y-0178606
T02
X-0497013Y-0360083
X-0485202
X-0477229Y-0356343
X-0497111Y-031274
X-048156Y-0251421
X-0512761Y-0316677
X-0554099Y-031274
X-0559906Y-0312839
X-056591Y-0360083
X-0577721
X-0588745Y-036835
X-0648784Y-0360083
X-0660595
Y-0312642
X-0636875
X-0642485Y-030339
X-0646325Y-0293238
X-0651737Y-028715
X-0508824Y-0360083
X-0672406
X-0703213Y-0300142
X-0734808Y-030024
X-0668272Y-0111559
X-0665603Y-0102571
X-0656115
X-0659712Y-0098248
X-0650164
X-0646627Y-0102571
X-0637139
X-062765
X-0618162
X-0608674
X-0599186
X-0589698
X-0580209
X-0570721
X-0561233
X-0551745
X-0542257
X-0532768
X-052328
X-0513792
X-0518213Y-0122287
X-0508725
X-0527702
X-053719
X-0546678
X-0556166
X-0650095Y-0110128
X-0659712Y-011006
X-0653902Y-0135968
X-0641698Y-0194335
X-0501835Y-0190299
X-0499237Y-0122287
X-0494816Y-0102571
X-0485327
X-0488863Y-0098272
X-0475587Y-0102898
X-0465587Y-0101906
X-0504304Y-0102571
X-0507839Y-0098272
T03
X-0185891Y-0384492
X-0175891
X-0075654
X-0065654
X-0050064Y-0331106
Y-0321106
Y-0311106
Y-0301106
Y-0291106
Y-0281106
Y-0271106
Y-0261106
Y-0251106
Y-0241106
X-0040064
Y-0251106
Y-0261106
Y-0271106
Y-0281106
Y-0291106
Y-0301106
Y-0311106
Y-0321106
Y-0331106
X-0286127Y-0384492
X-0296127
X-0396363Y-0384492
X-0406363
X-0435143Y-0275634
X-0445143
X-0445044Y-0263724
X-0435044
X-037971Y-026209
Y-0252091
Y-0242091
Y-0272091
Y-023209
Y-0222091
X-0050064Y-0221106
Y-0231106
X-0040064
Y-0221106
Y-0206106
Y-0196106
Y-0186106
Y-0176106
Y-0166106
Y-0156106
Y-0146106
Y-0136106
X-0050064
Y-0146106
Y-0156106
Y-0166106
Y-0176106
Y-0186106
Y-0196106
Y-0206106
T04
X-0497047Y-0342287
Y-0330487
X-0485236
Y-0342287
X-0473425
Y-0330487
X-0508858
Y-0342287
X-0554134
Y-0330487
X-0565945
Y-0342287
X-0577756
Y-0330487
X-0589567
Y-0342287
X-0637008
Y-0330487
X-0648819
Y-0342287
X-066063
Y-0330487
X-0672441
Y-0342287
T05
X-0444828Y-0311067
X-0434828
X-047095Y-0196189
Y-0186189
T06
X-0192009Y-0064679
X-020281
X-021361
X-022441
X-0235209
X-0229809Y-0053479
X-0219009
X-0208209
X-0197409
X-0480371Y-0056512
X-0489859
X-0499465
X-0494741Y-0066512
X-0504229
X-0499465Y-0076512
X-0489859
X-0480371
X-0470883
X-0475646Y-0066512
X-0485135
X-0513717
X-0523206
X-0532694
X-0542182
X-055167
X-0561158
X-0570646
X-0580135
X-0589623
X-0599111
X-0608599
X-0618087
X-0627576
X-0637064
X-0646552
X-065604
X-0660765Y-0076512
X-0651276
X-0641788
X-06323
X-0622812
X-0613324
X-0603835
X-0594347
X-0584859
X-0575371
X-0565883
X-0556394
X-0546906
X-0537418
X-052793
X-0518442
X-0508954
Y-0056512
X-0518442
X-052793
X-0537418
X-0546906
X-0556394
X-0565883
X-0575371
X-0584859
X-0594347
X-0603835
X-0613324
X-0622812
X-06323
X-0641788
X-0651276
X-0660765
X-0665528Y-0066512
T07
X-0733268Y-0366142
X-0063976Y-0055118
X-071752Y-0055118
T08
X-0164409Y-0059079
X-0262809
X-0443048Y-0066512
X-0693048
T09
X-0046048Y-0351421
X-0400379
Y-0115201
X-0046048
T10
X-0390748Y-0055118
T11
X-0500354Y-0375787
X-0481929
X-0562638
X-0581063
X-0645512
X-0663937
M30
