%FSLAX25Y25*%
%MOIN*%
G70*
G01*
G75*
G04 Layer_Color=8388736*
%ADD10R,0.02756X0.03150*%
%ADD11O,0.06890X0.01181*%
%ADD12R,0.12598X0.07874*%
%ADD13R,0.03150X0.02756*%
%ADD14R,0.05118X0.03150*%
%ADD15R,0.05906X0.02362*%
%ADD16O,0.08661X0.02362*%
%ADD17R,0.11000X0.02900*%
%ADD18C,0.01000*%
%ADD19C,0.02000*%
%ADD20C,0.03000*%
%ADD21C,0.01181*%
%ADD22C,0.01800*%
%ADD23C,0.00100*%
%ADD24C,0.07874*%
%ADD25R,0.05906X0.05906*%
%ADD26C,0.05906*%
%ADD27C,0.07087*%
%ADD28C,0.19685*%
%ADD29C,0.16535*%
%ADD30C,0.06299*%
%ADD31R,0.06299X0.06299*%
%ADD32C,0.27559*%
%ADD33C,0.23622*%
%ADD34R,0.05906X0.05906*%
G04:AMPARAMS|DCode=35|XSize=78.74mil|YSize=78.74mil|CornerRadius=19.69mil|HoleSize=0mil|Usage=FLASHONLY|Rotation=0.000|XOffset=0mil|YOffset=0mil|HoleType=Round|Shape=RoundedRectangle|*
%AMROUNDEDRECTD35*
21,1,0.07874,0.03937,0,0,0.0*
21,1,0.03937,0.07874,0,0,0.0*
1,1,0.03937,0.01969,-0.01969*
1,1,0.03937,-0.01969,-0.01969*
1,1,0.03937,-0.01969,0.01969*
1,1,0.03937,0.01969,0.01969*
%
%ADD35ROUNDEDRECTD35*%
%ADD36C,0.02362*%
%ADD37C,0.02756*%
%ADD38C,0.01969*%
%ADD39C,0.03937*%
%ADD40C,0.04000*%
%ADD41C,0.04000*%
%ADD42C,0.00787*%
%ADD43C,0.08331*%
%ADD44C,0.07543*%
%ADD45C,0.08685*%
%ADD46C,0.16520*%
%ADD47C,0.17779*%
%ADD48C,0.16205*%
G04:AMPARAMS|DCode=49|XSize=95.433mil|YSize=95.433mil|CornerRadius=0mil|HoleSize=0mil|Usage=FLASHONLY|Rotation=0.000|XOffset=0mil|YOffset=0mil|HoleType=Round|Shape=Relief|Width=10mil|Gap=10mil|Entries=4|*
%AMTHD49*
7,0,0,0.09543,0.07543,0.01000,45*
%
%ADD49THD49*%
%ADD50C,0.16598*%
%ADD51C,0.07937*%
%ADD52C,0.15811*%
%ADD53C,0.05181*%
G04:AMPARAMS|DCode=54|XSize=71.811mil|YSize=71.811mil|CornerRadius=0mil|HoleSize=0mil|Usage=FLASHONLY|Rotation=0.000|XOffset=0mil|YOffset=0mil|HoleType=Round|Shape=Relief|Width=10mil|Gap=10mil|Entries=4|*
%AMTHD54*
7,0,0,0.07181,0.05181,0.01000,45*
%
%ADD54THD54*%
%ADD55C,0.05969*%
G04:AMPARAMS|DCode=56|XSize=79.685mil|YSize=79.685mil|CornerRadius=0mil|HoleSize=0mil|Usage=FLASHONLY|Rotation=0.000|XOffset=0mil|YOffset=0mil|HoleType=Round|Shape=Relief|Width=10mil|Gap=10mil|Entries=4|*
%AMTHD56*
7,0,0,0.07969,0.05969,0.01000,45*
%
%ADD56THD56*%
%ADD57C,0.01772*%
%ADD58C,0.00984*%
%ADD59C,0.02362*%
%ADD60C,0.00394*%
%ADD61C,0.01575*%
%ADD62C,0.00750*%
%ADD63C,0.00500*%
%ADD64R,0.05800X0.12500*%
%ADD65R,0.02956X0.03350*%
%ADD66O,0.07090X0.01381*%
%ADD67R,0.12798X0.08074*%
%ADD68R,0.03350X0.02956*%
%ADD69R,0.05318X0.03350*%
%ADD70R,0.06106X0.02562*%
%ADD71O,0.08861X0.02562*%
%ADD72R,0.11200X0.03100*%
%ADD73C,0.08074*%
%ADD74R,0.06106X0.06106*%
%ADD75C,0.06106*%
%ADD76C,0.07287*%
%ADD77C,0.19885*%
%ADD78C,0.16735*%
%ADD79C,0.06499*%
%ADD80R,0.06499X0.06499*%
%ADD81C,0.27759*%
%ADD82C,0.23822*%
%ADD83R,0.06106X0.06106*%
%ADD84C,0.00200*%
G04:AMPARAMS|DCode=85|XSize=80.74mil|YSize=80.74mil|CornerRadius=20.69mil|HoleSize=0mil|Usage=FLASHONLY|Rotation=0.000|XOffset=0mil|YOffset=0mil|HoleType=Round|Shape=RoundedRectangle|*
%AMROUNDEDRECTD85*
21,1,0.08074,0.03937,0,0,0.0*
21,1,0.03937,0.08074,0,0,0.0*
1,1,0.04137,0.01969,-0.01969*
1,1,0.04137,-0.01969,-0.01969*
1,1,0.04137,-0.01969,0.01969*
1,1,0.04137,0.01969,0.01969*
%
%ADD85ROUNDEDRECTD85*%
%ADD86C,0.02562*%
D23*
X-12795Y-59055D02*
G03*
X-44291Y-27559I-31496J0D01*
G01*
X-737205Y-27559D02*
G03*
X-768701Y-59055I0J-31496D01*
G01*
X-768701Y-398819D02*
X-12795D01*
X-768701D02*
Y-59055D01*
X-768701Y-59055D02*
X-768701Y-59055D01*
X-737205Y-27559D02*
X-44291D01*
D64*
X-187859Y-321453D02*
D03*
X-199670Y-321450D02*
D03*
D65*
X-453745Y-193606D02*
D03*
Y-189276D02*
D03*
X-685729Y-233776D02*
D03*
Y-229445D02*
D03*
X-677855Y-233776D02*
D03*
Y-229445D02*
D03*
X-669981Y-229445D02*
D03*
Y-233776D02*
D03*
X-635729Y-233776D02*
D03*
Y-229445D02*
D03*
X-627855Y-233776D02*
D03*
Y-229445D02*
D03*
X-619981Y-229445D02*
D03*
Y-233776D02*
D03*
X-635335Y-188894D02*
D03*
Y-184563D02*
D03*
X-627461Y-188894D02*
D03*
Y-184563D02*
D03*
X-619587Y-184563D02*
D03*
Y-188894D02*
D03*
X-584942Y-188894D02*
D03*
Y-184563D02*
D03*
X-577068Y-188894D02*
D03*
Y-184563D02*
D03*
X-569194Y-184563D02*
D03*
Y-188894D02*
D03*
X-635729Y-278658D02*
D03*
Y-274327D02*
D03*
X-627855Y-278658D02*
D03*
Y-274327D02*
D03*
X-619981Y-274327D02*
D03*
Y-278658D02*
D03*
X-584942Y-278264D02*
D03*
Y-273933D02*
D03*
X-577068Y-278264D02*
D03*
Y-273933D02*
D03*
X-569194Y-273933D02*
D03*
Y-278264D02*
D03*
X-585103Y-233508D02*
D03*
Y-229177D02*
D03*
X-577229Y-233508D02*
D03*
Y-229177D02*
D03*
X-569355Y-229177D02*
D03*
Y-233508D02*
D03*
X-685891Y-189020D02*
D03*
Y-184689D02*
D03*
X-678017Y-189020D02*
D03*
Y-184689D02*
D03*
X-670143Y-184689D02*
D03*
Y-189020D02*
D03*
X-736284Y-189020D02*
D03*
Y-184689D02*
D03*
X-728410Y-189020D02*
D03*
Y-184689D02*
D03*
X-720536Y-184689D02*
D03*
Y-189020D02*
D03*
X-736123Y-233323D02*
D03*
Y-228992D02*
D03*
X-728249Y-233323D02*
D03*
Y-228992D02*
D03*
X-720375Y-228992D02*
D03*
Y-233323D02*
D03*
X-736123Y-278323D02*
D03*
Y-273992D02*
D03*
X-728249Y-278323D02*
D03*
Y-273992D02*
D03*
X-720375Y-273992D02*
D03*
Y-278323D02*
D03*
X-534154Y-188894D02*
D03*
Y-184563D02*
D03*
X-526280Y-188894D02*
D03*
Y-184563D02*
D03*
X-518406Y-184563D02*
D03*
Y-188894D02*
D03*
X-533922Y-278193D02*
D03*
Y-273862D02*
D03*
X-526048Y-278193D02*
D03*
Y-273862D02*
D03*
X-518174Y-273862D02*
D03*
Y-278193D02*
D03*
X-534154Y-233382D02*
D03*
Y-229051D02*
D03*
X-526280Y-233382D02*
D03*
Y-229051D02*
D03*
X-518406Y-229051D02*
D03*
Y-233382D02*
D03*
X-685891Y-278390D02*
D03*
Y-274059D02*
D03*
X-678017Y-278390D02*
D03*
Y-274059D02*
D03*
X-670143Y-274059D02*
D03*
Y-278390D02*
D03*
X-438548Y-207772D02*
D03*
Y-212102D02*
D03*
X-446422Y-207772D02*
D03*
Y-212102D02*
D03*
X-454296Y-212102D02*
D03*
Y-207772D02*
D03*
X-217387Y-347287D02*
D03*
Y-342957D02*
D03*
X-248883Y-317760D02*
D03*
Y-313429D02*
D03*
X-437008Y-337402D02*
D03*
Y-341732D02*
D03*
X-443898Y-341732D02*
D03*
Y-337402D02*
D03*
D66*
X-685926Y-211925D02*
D03*
Y-213894D02*
D03*
Y-215862D02*
D03*
Y-217831D02*
D03*
Y-219799D02*
D03*
X-669784Y-211925D02*
D03*
Y-213894D02*
D03*
Y-215862D02*
D03*
Y-217831D02*
D03*
Y-219799D02*
D03*
X-635926Y-211925D02*
D03*
Y-213894D02*
D03*
Y-215862D02*
D03*
Y-217831D02*
D03*
Y-219799D02*
D03*
X-619784Y-211925D02*
D03*
Y-213894D02*
D03*
Y-215862D02*
D03*
Y-217831D02*
D03*
Y-219799D02*
D03*
X-635532Y-167043D02*
D03*
Y-169012D02*
D03*
Y-170980D02*
D03*
Y-172949D02*
D03*
Y-174917D02*
D03*
X-619390Y-167043D02*
D03*
Y-169012D02*
D03*
Y-170980D02*
D03*
Y-172949D02*
D03*
Y-174917D02*
D03*
X-585139Y-167043D02*
D03*
Y-169012D02*
D03*
Y-170980D02*
D03*
Y-172949D02*
D03*
Y-174917D02*
D03*
X-568997Y-167043D02*
D03*
Y-169012D02*
D03*
Y-170980D02*
D03*
Y-172949D02*
D03*
Y-174917D02*
D03*
X-635926Y-256807D02*
D03*
Y-258776D02*
D03*
Y-260744D02*
D03*
Y-262713D02*
D03*
Y-264681D02*
D03*
X-619784Y-256807D02*
D03*
Y-258776D02*
D03*
Y-260744D02*
D03*
Y-262713D02*
D03*
Y-264681D02*
D03*
X-585139Y-256413D02*
D03*
Y-258382D02*
D03*
Y-260350D02*
D03*
Y-262319D02*
D03*
Y-264287D02*
D03*
X-568997Y-256413D02*
D03*
Y-258382D02*
D03*
Y-260350D02*
D03*
Y-262319D02*
D03*
Y-264287D02*
D03*
X-585300Y-211658D02*
D03*
Y-213626D02*
D03*
Y-215595D02*
D03*
Y-217563D02*
D03*
Y-219531D02*
D03*
X-569158Y-211658D02*
D03*
Y-213626D02*
D03*
Y-215595D02*
D03*
Y-217563D02*
D03*
Y-219531D02*
D03*
X-686087Y-167169D02*
D03*
Y-169138D02*
D03*
Y-171106D02*
D03*
Y-173075D02*
D03*
Y-175043D02*
D03*
X-669946Y-167169D02*
D03*
Y-169138D02*
D03*
Y-171106D02*
D03*
Y-173075D02*
D03*
Y-175043D02*
D03*
X-736481Y-167169D02*
D03*
Y-169138D02*
D03*
Y-171106D02*
D03*
Y-173075D02*
D03*
Y-175043D02*
D03*
X-720339Y-167169D02*
D03*
Y-169138D02*
D03*
Y-171106D02*
D03*
Y-173075D02*
D03*
Y-175043D02*
D03*
X-736320Y-211472D02*
D03*
Y-213441D02*
D03*
Y-215409D02*
D03*
Y-217378D02*
D03*
Y-219346D02*
D03*
X-720178Y-211472D02*
D03*
Y-213441D02*
D03*
Y-215409D02*
D03*
Y-217378D02*
D03*
Y-219346D02*
D03*
X-736320Y-256472D02*
D03*
Y-258441D02*
D03*
Y-260409D02*
D03*
Y-262378D02*
D03*
Y-264347D02*
D03*
X-720178Y-256472D02*
D03*
Y-258441D02*
D03*
Y-260409D02*
D03*
Y-262378D02*
D03*
Y-264347D02*
D03*
X-534351Y-167043D02*
D03*
Y-169012D02*
D03*
Y-170980D02*
D03*
Y-172949D02*
D03*
Y-174917D02*
D03*
X-518209Y-167043D02*
D03*
Y-169012D02*
D03*
Y-170980D02*
D03*
Y-172949D02*
D03*
Y-174917D02*
D03*
X-534119Y-256343D02*
D03*
Y-258311D02*
D03*
Y-260279D02*
D03*
Y-262248D02*
D03*
Y-264216D02*
D03*
X-517977Y-256343D02*
D03*
Y-258311D02*
D03*
Y-260279D02*
D03*
Y-262248D02*
D03*
Y-264216D02*
D03*
X-534351Y-211531D02*
D03*
Y-213500D02*
D03*
Y-215469D02*
D03*
Y-217437D02*
D03*
Y-219406D02*
D03*
X-518209Y-211531D02*
D03*
Y-213500D02*
D03*
Y-215469D02*
D03*
Y-217437D02*
D03*
Y-219406D02*
D03*
X-686087Y-256539D02*
D03*
Y-258508D02*
D03*
Y-260476D02*
D03*
Y-262445D02*
D03*
Y-264413D02*
D03*
X-669946Y-256539D02*
D03*
Y-258508D02*
D03*
Y-260476D02*
D03*
Y-262445D02*
D03*
Y-264413D02*
D03*
X-438351Y-229622D02*
D03*
Y-227654D02*
D03*
Y-225685D02*
D03*
Y-223716D02*
D03*
Y-221748D02*
D03*
X-454493Y-229622D02*
D03*
Y-227654D02*
D03*
Y-225685D02*
D03*
Y-223716D02*
D03*
Y-221748D02*
D03*
D67*
X-653446Y-228658D02*
D03*
Y-203067D02*
D03*
X-603446Y-228658D02*
D03*
Y-203067D02*
D03*
X-603052Y-183776D02*
D03*
Y-158185D02*
D03*
X-552658Y-183776D02*
D03*
Y-158185D02*
D03*
X-603446Y-273539D02*
D03*
Y-247949D02*
D03*
X-552658Y-273146D02*
D03*
Y-247555D02*
D03*
X-552820Y-228390D02*
D03*
Y-202799D02*
D03*
X-653607Y-183902D02*
D03*
Y-158311D02*
D03*
X-704001Y-183902D02*
D03*
Y-158311D02*
D03*
X-703839Y-228205D02*
D03*
Y-202614D02*
D03*
Y-273205D02*
D03*
Y-247614D02*
D03*
X-501871Y-183776D02*
D03*
Y-158185D02*
D03*
X-501639Y-273075D02*
D03*
Y-247484D02*
D03*
X-501871Y-228264D02*
D03*
Y-202673D02*
D03*
X-653607Y-273272D02*
D03*
Y-247681D02*
D03*
X-470831Y-212890D02*
D03*
Y-238480D02*
D03*
D68*
X-684548Y-204445D02*
D03*
X-680217D02*
D03*
X-684548Y-197358D02*
D03*
X-680217D02*
D03*
X-673524Y-204445D02*
D03*
X-669194D02*
D03*
X-673524Y-197358D02*
D03*
X-669194D02*
D03*
X-634548Y-204445D02*
D03*
X-630217D02*
D03*
X-634548Y-197358D02*
D03*
X-630217D02*
D03*
X-623524Y-204445D02*
D03*
X-619194D02*
D03*
X-623524Y-197358D02*
D03*
X-619194D02*
D03*
X-634154Y-159563D02*
D03*
X-629824D02*
D03*
X-634154Y-152476D02*
D03*
X-629824D02*
D03*
X-623131Y-159563D02*
D03*
X-618800D02*
D03*
X-623131Y-152476D02*
D03*
X-618800D02*
D03*
X-583761Y-159563D02*
D03*
X-579430D02*
D03*
X-583761Y-152476D02*
D03*
X-579430D02*
D03*
X-572737Y-159563D02*
D03*
X-568406D02*
D03*
X-572737Y-152476D02*
D03*
X-568406D02*
D03*
X-634548Y-249327D02*
D03*
X-630217D02*
D03*
X-634548Y-242240D02*
D03*
X-630217D02*
D03*
X-623524Y-249327D02*
D03*
X-619194D02*
D03*
X-623524Y-242240D02*
D03*
X-619194D02*
D03*
X-583761Y-248933D02*
D03*
X-579430D02*
D03*
X-583761Y-241846D02*
D03*
X-579430D02*
D03*
X-572737Y-248933D02*
D03*
X-568406D02*
D03*
X-572737Y-241846D02*
D03*
X-568406D02*
D03*
X-583922Y-204177D02*
D03*
X-579591D02*
D03*
X-583922Y-197091D02*
D03*
X-579591D02*
D03*
X-572898Y-204177D02*
D03*
X-568568D02*
D03*
X-572898Y-197091D02*
D03*
X-568568D02*
D03*
X-684710Y-159689D02*
D03*
X-680379D02*
D03*
X-684710Y-152602D02*
D03*
X-680379D02*
D03*
X-673686Y-159689D02*
D03*
X-669355D02*
D03*
X-673686Y-152602D02*
D03*
X-669355D02*
D03*
X-735103Y-159689D02*
D03*
X-730772D02*
D03*
X-735103Y-152602D02*
D03*
X-730772D02*
D03*
X-724080Y-159689D02*
D03*
X-719749D02*
D03*
X-724080Y-152602D02*
D03*
X-719749D02*
D03*
X-734942Y-203992D02*
D03*
X-730611D02*
D03*
X-734942Y-196906D02*
D03*
X-730611D02*
D03*
X-723918Y-203992D02*
D03*
X-719587D02*
D03*
X-723918Y-196906D02*
D03*
X-719587D02*
D03*
X-734942Y-248992D02*
D03*
X-730611D02*
D03*
X-734942Y-241905D02*
D03*
X-730611D02*
D03*
X-723918Y-248992D02*
D03*
X-719587D02*
D03*
X-723918Y-241905D02*
D03*
X-719587D02*
D03*
X-532973Y-159563D02*
D03*
X-528643D02*
D03*
X-532973Y-152476D02*
D03*
X-528643D02*
D03*
X-521950Y-159563D02*
D03*
X-517619D02*
D03*
X-521950Y-152476D02*
D03*
X-517619D02*
D03*
X-532741Y-248862D02*
D03*
X-528410D02*
D03*
X-532741Y-241776D02*
D03*
X-528410D02*
D03*
X-521717Y-248862D02*
D03*
X-517387D02*
D03*
X-521717Y-241776D02*
D03*
X-517387D02*
D03*
X-532973Y-204051D02*
D03*
X-528643D02*
D03*
X-532973Y-196965D02*
D03*
X-528643D02*
D03*
X-521950Y-204051D02*
D03*
X-517619D02*
D03*
X-521950Y-196965D02*
D03*
X-517619D02*
D03*
X-684710Y-249059D02*
D03*
X-680379D02*
D03*
X-684710Y-241972D02*
D03*
X-680379D02*
D03*
X-673686Y-249059D02*
D03*
X-669355D02*
D03*
X-673686Y-241972D02*
D03*
X-669355D02*
D03*
X-439729Y-237102D02*
D03*
X-444060D02*
D03*
X-439729Y-244189D02*
D03*
X-444060D02*
D03*
X-450753Y-237102D02*
D03*
X-455084D02*
D03*
X-450753Y-244189D02*
D03*
X-455084D02*
D03*
X-95536Y-315595D02*
D03*
X-91206D02*
D03*
X-95536Y-305752D02*
D03*
X-91206D02*
D03*
X-95536Y-264413D02*
D03*
X-91206D02*
D03*
X-95536Y-276224D02*
D03*
X-91206D02*
D03*
X-96521Y-231933D02*
D03*
X-92190D02*
D03*
X-96521Y-220122D02*
D03*
X-92190D02*
D03*
X-225064Y-305752D02*
D03*
X-229395D02*
D03*
D69*
X-187859Y-325796D02*
D03*
Y-321465D02*
D03*
Y-317135D02*
D03*
X-199670Y-325796D02*
D03*
Y-321465D02*
D03*
Y-317135D02*
D03*
D70*
X-227423Y-345122D02*
D03*
X-234710Y-348626D02*
D03*
Y-341618D02*
D03*
D71*
X-217780Y-329000D02*
D03*
Y-324000D02*
D03*
Y-319000D02*
D03*
Y-314000D02*
D03*
X-236678Y-329000D02*
D03*
Y-324000D02*
D03*
Y-319000D02*
D03*
Y-314000D02*
D03*
X-279985D02*
D03*
Y-319000D02*
D03*
Y-324000D02*
D03*
Y-329000D02*
D03*
X-261087Y-314000D02*
D03*
Y-319000D02*
D03*
Y-324000D02*
D03*
Y-329000D02*
D03*
D72*
X-456016Y-163587D02*
D03*
X-440017D02*
D03*
X-456016Y-158587D02*
D03*
X-440017D02*
D03*
X-456016Y-153587D02*
D03*
X-440017D02*
D03*
X-456016Y-148587D02*
D03*
X-440017D02*
D03*
Y-143587D02*
D03*
X-456016D02*
D03*
D73*
X-470950Y-186189D02*
D03*
Y-196189D02*
D03*
X-444828Y-311067D02*
D03*
X-434828D02*
D03*
X-485236Y-330487D02*
D03*
X-473425D02*
D03*
X-497047D02*
D03*
X-508858D02*
D03*
Y-342287D02*
D03*
X-497047D02*
D03*
X-485236D02*
D03*
X-565945Y-330487D02*
D03*
X-554134D02*
D03*
X-577756D02*
D03*
X-589567D02*
D03*
Y-342287D02*
D03*
X-577756D02*
D03*
X-565945D02*
D03*
X-648819Y-330487D02*
D03*
X-637008D02*
D03*
X-660630D02*
D03*
X-672441D02*
D03*
Y-342287D02*
D03*
X-660630D02*
D03*
X-648819D02*
D03*
D74*
X-75654Y-384492D02*
D03*
X-185891D02*
D03*
X-406363Y-384492D02*
D03*
X-296127Y-384492D02*
D03*
X-445143Y-275634D02*
D03*
X-445044Y-263724D02*
D03*
D75*
X-65654Y-384492D02*
D03*
X-175891D02*
D03*
X-396363Y-384492D02*
D03*
X-286127Y-384492D02*
D03*
X-435143Y-275634D02*
D03*
X-435044Y-263724D02*
D03*
X-379710Y-232090D02*
D03*
Y-242091D02*
D03*
Y-252091D02*
D03*
Y-262090D02*
D03*
Y-272091D02*
D03*
X-50064Y-321106D02*
D03*
Y-331106D02*
D03*
Y-291106D02*
D03*
Y-301106D02*
D03*
Y-311106D02*
D03*
Y-271106D02*
D03*
Y-281106D02*
D03*
Y-261106D02*
D03*
Y-251106D02*
D03*
Y-241106D02*
D03*
X-40064Y-271106D02*
D03*
X-50064Y-231106D02*
D03*
X-40064Y-331106D02*
D03*
Y-311106D02*
D03*
Y-321106D02*
D03*
Y-301106D02*
D03*
Y-281106D02*
D03*
Y-291106D02*
D03*
Y-241106D02*
D03*
Y-261106D02*
D03*
Y-221106D02*
D03*
Y-251106D02*
D03*
Y-231106D02*
D03*
Y-136106D02*
D03*
X-50064Y-146106D02*
D03*
X-40064D02*
D03*
X-50064Y-156106D02*
D03*
X-40064D02*
D03*
X-50064Y-166106D02*
D03*
X-40064D02*
D03*
X-50064Y-176106D02*
D03*
X-40064D02*
D03*
X-50064Y-186106D02*
D03*
X-40064D02*
D03*
X-50064Y-196106D02*
D03*
X-40064D02*
D03*
X-50064Y-206106D02*
D03*
X-40064D02*
D03*
D76*
X-197409Y-53479D02*
D03*
X-208209D02*
D03*
X-219009D02*
D03*
X-229809D02*
D03*
X-192009Y-64679D02*
D03*
X-202810D02*
D03*
X-213610D02*
D03*
X-224410D02*
D03*
X-235209D02*
D03*
D77*
X-262809Y-59079D02*
D03*
X-164409D02*
D03*
D78*
X-693048Y-66512D02*
D03*
X-443048D02*
D03*
D79*
X-470883Y-76512D02*
D03*
X-480371D02*
D03*
X-489859D02*
D03*
X-499465D02*
D03*
X-508954D02*
D03*
X-518442D02*
D03*
X-527930D02*
D03*
X-537418D02*
D03*
X-546906D02*
D03*
X-556394D02*
D03*
X-565883D02*
D03*
X-575371D02*
D03*
X-584859D02*
D03*
X-594347D02*
D03*
X-603835D02*
D03*
X-613324D02*
D03*
X-622812D02*
D03*
X-632300D02*
D03*
X-641788D02*
D03*
X-651276D02*
D03*
X-665528Y-66512D02*
D03*
X-651276Y-56512D02*
D03*
X-660765D02*
D03*
X-641788D02*
D03*
X-632300D02*
D03*
X-622812D02*
D03*
X-613324D02*
D03*
X-603835D02*
D03*
X-594347D02*
D03*
X-584859D02*
D03*
X-575371D02*
D03*
X-565883D02*
D03*
X-556394D02*
D03*
X-546906D02*
D03*
X-537418D02*
D03*
X-527930D02*
D03*
X-518442D02*
D03*
X-508954D02*
D03*
X-499465D02*
D03*
X-489859D02*
D03*
X-480371D02*
D03*
X-475646Y-66512D02*
D03*
X-485135D02*
D03*
X-494741D02*
D03*
X-504229D02*
D03*
X-513717D02*
D03*
X-523206D02*
D03*
X-532694D02*
D03*
X-542182D02*
D03*
X-551670D02*
D03*
X-561158D02*
D03*
X-570646D02*
D03*
X-580135D02*
D03*
X-589623D02*
D03*
X-599111D02*
D03*
X-608599D02*
D03*
X-618087D02*
D03*
X-627576D02*
D03*
X-637064D02*
D03*
X-656040D02*
D03*
X-646552D02*
D03*
D80*
X-660765Y-76512D02*
D03*
D81*
X-390748Y-55118D02*
D03*
D82*
X-717520D02*
D03*
X-63976Y-55118D02*
D03*
X-733268Y-366142D02*
D03*
X-46048Y-351421D02*
D03*
X-400379Y-115201D02*
D03*
X-46048D02*
D03*
X-400379Y-351421D02*
D03*
D83*
X-379710Y-222091D02*
D03*
X-50064Y-221106D02*
D03*
Y-136106D02*
D03*
D84*
X-500354Y-375787D02*
D03*
X-481929D02*
D03*
X-581063D02*
D03*
X-562638D02*
D03*
X-663937D02*
D03*
X-645512D02*
D03*
D85*
X-473425Y-342287D02*
D03*
X-554134D02*
D03*
X-637008D02*
D03*
D86*
X-218568Y-89217D02*
D03*
X-630620Y-255626D02*
D03*
X-639828Y-254678D02*
D03*
X-538253Y-164914D02*
D03*
X-529046Y-165862D02*
D03*
X-538253Y-209402D02*
D03*
X-529046Y-210350D02*
D03*
X-589040Y-164914D02*
D03*
X-579833Y-165862D02*
D03*
X-589202Y-209528D02*
D03*
X-579994Y-210476D02*
D03*
X-589040Y-254284D02*
D03*
X-579833Y-255232D02*
D03*
X-689989Y-165040D02*
D03*
X-680782Y-165988D02*
D03*
X-589434Y-113626D02*
D03*
X-567780Y-106934D02*
D03*
X-457677Y-337598D02*
D03*
X-443898Y-346457D02*
D03*
X-398622Y-281496D02*
D03*
M02*
