%FSLAX25Y25*%
%MOIN*%
G70*
G01*
G75*
G04 Layer_Physical_Order=5*
G04 Layer_Color=16711680*
%ADD10R,0.02756X0.03150*%
%ADD11O,0.06890X0.01181*%
%ADD12R,0.12598X0.07874*%
%ADD13R,0.03150X0.02756*%
%ADD14R,0.05118X0.03150*%
%ADD15R,0.05906X0.02362*%
%ADD16O,0.08661X0.02362*%
%ADD17R,0.11000X0.02900*%
%ADD18C,0.01000*%
%ADD19C,0.02000*%
%ADD20C,0.03000*%
%ADD21C,0.01181*%
%ADD22C,0.01800*%
%ADD23C,0.00100*%
%ADD24C,0.07874*%
%ADD25R,0.05906X0.05906*%
%ADD26C,0.05906*%
%ADD27C,0.07087*%
%ADD28C,0.19685*%
%ADD29C,0.16535*%
%ADD30C,0.06299*%
%ADD31R,0.06299X0.06299*%
%ADD32C,0.27559*%
%ADD33C,0.23622*%
%ADD34R,0.05906X0.05906*%
G04:AMPARAMS|DCode=35|XSize=78.74mil|YSize=78.74mil|CornerRadius=19.69mil|HoleSize=0mil|Usage=FLASHONLY|Rotation=0.000|XOffset=0mil|YOffset=0mil|HoleType=Round|Shape=RoundedRectangle|*
%AMROUNDEDRECTD35*
21,1,0.07874,0.03937,0,0,0.0*
21,1,0.03937,0.07874,0,0,0.0*
1,1,0.03937,0.01969,-0.01969*
1,1,0.03937,-0.01969,-0.01969*
1,1,0.03937,-0.01969,0.01969*
1,1,0.03937,0.01969,0.01969*
%
%ADD35ROUNDEDRECTD35*%
%ADD36C,0.02362*%
%ADD37C,0.02756*%
%ADD38C,0.01969*%
%ADD39C,0.03937*%
%ADD40C,0.04000*%
%ADD41C,0.04000*%
%ADD42C,0.00787*%
%ADD43C,0.08331*%
%ADD44C,0.07543*%
%ADD45C,0.08685*%
%ADD46C,0.16520*%
%ADD47C,0.17779*%
%ADD48C,0.16205*%
G04:AMPARAMS|DCode=49|XSize=95.433mil|YSize=95.433mil|CornerRadius=0mil|HoleSize=0mil|Usage=FLASHONLY|Rotation=0.000|XOffset=0mil|YOffset=0mil|HoleType=Round|Shape=Relief|Width=10mil|Gap=10mil|Entries=4|*
%AMTHD49*
7,0,0,0.09543,0.07543,0.01000,45*
%
%ADD49THD49*%
%ADD50C,0.16598*%
%ADD51C,0.07937*%
%ADD52C,0.15811*%
%ADD53C,0.05181*%
G04:AMPARAMS|DCode=54|XSize=71.811mil|YSize=71.811mil|CornerRadius=0mil|HoleSize=0mil|Usage=FLASHONLY|Rotation=0.000|XOffset=0mil|YOffset=0mil|HoleType=Round|Shape=Relief|Width=10mil|Gap=10mil|Entries=4|*
%AMTHD54*
7,0,0,0.07181,0.05181,0.01000,45*
%
%ADD54THD54*%
%ADD55C,0.05969*%
G04:AMPARAMS|DCode=56|XSize=79.685mil|YSize=79.685mil|CornerRadius=0mil|HoleSize=0mil|Usage=FLASHONLY|Rotation=0.000|XOffset=0mil|YOffset=0mil|HoleType=Round|Shape=Relief|Width=10mil|Gap=10mil|Entries=4|*
%AMTHD56*
7,0,0,0.07969,0.05969,0.01000,45*
%
%ADD56THD56*%
%ADD57C,0.01772*%
D10*
X-434757Y-299295D02*
D03*
Y-294965D02*
D03*
X-444206Y-299295D02*
D03*
Y-294965D02*
D03*
X-233517Y-84063D02*
D03*
Y-79732D02*
D03*
X-228517Y-84063D02*
D03*
Y-79732D02*
D03*
X-223517Y-84063D02*
D03*
Y-79732D02*
D03*
X-218516Y-84063D02*
D03*
Y-79732D02*
D03*
X-213516Y-84063D02*
D03*
Y-79732D02*
D03*
X-208517Y-84063D02*
D03*
Y-79732D02*
D03*
X-203517Y-84063D02*
D03*
Y-79732D02*
D03*
X-198516Y-84063D02*
D03*
Y-79732D02*
D03*
X-193517Y-84063D02*
D03*
Y-79732D02*
D03*
X-637008Y-356264D02*
D03*
Y-351933D02*
D03*
Y-320831D02*
D03*
Y-316500D02*
D03*
X-648819Y-356264D02*
D03*
Y-351933D02*
D03*
Y-320831D02*
D03*
Y-316500D02*
D03*
X-660630Y-356264D02*
D03*
Y-351933D02*
D03*
Y-320831D02*
D03*
Y-316500D02*
D03*
X-672441Y-356264D02*
D03*
Y-351933D02*
D03*
Y-320831D02*
D03*
Y-316500D02*
D03*
X-554134Y-356264D02*
D03*
Y-351933D02*
D03*
Y-320831D02*
D03*
Y-316500D02*
D03*
X-565945Y-356264D02*
D03*
Y-351933D02*
D03*
Y-320831D02*
D03*
Y-316500D02*
D03*
X-577756Y-356264D02*
D03*
Y-351933D02*
D03*
Y-320831D02*
D03*
Y-316500D02*
D03*
X-589567Y-356264D02*
D03*
Y-351933D02*
D03*
Y-320831D02*
D03*
Y-316500D02*
D03*
X-473425Y-356264D02*
D03*
Y-351933D02*
D03*
Y-320831D02*
D03*
Y-316500D02*
D03*
X-485236Y-356264D02*
D03*
Y-351933D02*
D03*
Y-320831D02*
D03*
Y-316500D02*
D03*
X-497047Y-356264D02*
D03*
Y-351933D02*
D03*
Y-320831D02*
D03*
Y-316500D02*
D03*
X-508858Y-356264D02*
D03*
Y-351933D02*
D03*
Y-320831D02*
D03*
Y-316500D02*
D03*
X-660493Y-106791D02*
D03*
Y-102461D02*
D03*
Y-94980D02*
D03*
Y-90650D02*
D03*
X-651005Y-106791D02*
D03*
Y-102461D02*
D03*
Y-94980D02*
D03*
Y-90650D02*
D03*
X-641516Y-106791D02*
D03*
Y-102461D02*
D03*
Y-94980D02*
D03*
Y-90650D02*
D03*
X-632028Y-106791D02*
D03*
Y-102461D02*
D03*
Y-94980D02*
D03*
Y-90650D02*
D03*
X-622540Y-106791D02*
D03*
Y-102461D02*
D03*
Y-94980D02*
D03*
Y-90650D02*
D03*
X-613052Y-106791D02*
D03*
Y-102461D02*
D03*
Y-94980D02*
D03*
Y-90650D02*
D03*
X-603564Y-106791D02*
D03*
Y-102461D02*
D03*
Y-94980D02*
D03*
Y-90650D02*
D03*
X-594076Y-106791D02*
D03*
Y-102461D02*
D03*
Y-94980D02*
D03*
Y-90650D02*
D03*
X-584587Y-106791D02*
D03*
Y-102461D02*
D03*
Y-94980D02*
D03*
Y-90650D02*
D03*
X-575099Y-106791D02*
D03*
Y-102461D02*
D03*
Y-94980D02*
D03*
Y-90650D02*
D03*
X-565611Y-106791D02*
D03*
Y-102461D02*
D03*
Y-94980D02*
D03*
Y-90650D02*
D03*
X-556123Y-106791D02*
D03*
Y-102461D02*
D03*
Y-94980D02*
D03*
Y-90650D02*
D03*
X-546635Y-106791D02*
D03*
Y-102461D02*
D03*
Y-94980D02*
D03*
Y-90650D02*
D03*
X-537147Y-106791D02*
D03*
Y-102461D02*
D03*
Y-94980D02*
D03*
Y-90650D02*
D03*
X-527658Y-106791D02*
D03*
Y-102461D02*
D03*
Y-94980D02*
D03*
Y-90650D02*
D03*
X-518170Y-106791D02*
D03*
Y-102461D02*
D03*
Y-94980D02*
D03*
Y-90650D02*
D03*
X-508682Y-106791D02*
D03*
Y-102461D02*
D03*
Y-94980D02*
D03*
Y-90650D02*
D03*
X-499194Y-106791D02*
D03*
Y-102461D02*
D03*
Y-94980D02*
D03*
Y-90650D02*
D03*
X-489706Y-106791D02*
D03*
Y-102461D02*
D03*
Y-94980D02*
D03*
Y-90650D02*
D03*
X-480217Y-106791D02*
D03*
Y-102461D02*
D03*
Y-94980D02*
D03*
Y-90650D02*
D03*
X-470729Y-106791D02*
D03*
Y-102461D02*
D03*
Y-94980D02*
D03*
Y-90650D02*
D03*
X-660493Y-118602D02*
D03*
Y-114272D02*
D03*
X-651005Y-118602D02*
D03*
Y-114272D02*
D03*
X-641516Y-118602D02*
D03*
Y-114272D02*
D03*
X-632028Y-118602D02*
D03*
Y-114272D02*
D03*
X-622540Y-118602D02*
D03*
Y-114272D02*
D03*
X-613052Y-118602D02*
D03*
Y-114272D02*
D03*
X-603564Y-118602D02*
D03*
Y-114272D02*
D03*
X-594076Y-118602D02*
D03*
Y-114272D02*
D03*
X-584587Y-118602D02*
D03*
Y-114272D02*
D03*
X-575099Y-118602D02*
D03*
Y-114272D02*
D03*
X-565611Y-118602D02*
D03*
Y-114272D02*
D03*
X-556123Y-118602D02*
D03*
Y-114272D02*
D03*
X-546635Y-118602D02*
D03*
Y-114272D02*
D03*
X-537147Y-118602D02*
D03*
Y-114272D02*
D03*
X-527658Y-118602D02*
D03*
Y-114272D02*
D03*
X-518170Y-118602D02*
D03*
Y-114272D02*
D03*
X-508682Y-118602D02*
D03*
Y-114272D02*
D03*
X-499194Y-118602D02*
D03*
Y-114272D02*
D03*
X-489706Y-118602D02*
D03*
Y-114272D02*
D03*
X-480217Y-118602D02*
D03*
Y-114272D02*
D03*
D13*
X-396875Y-262090D02*
D03*
X-392544D02*
D03*
Y-222091D02*
D03*
X-396875D02*
D03*
X-392544Y-232090D02*
D03*
X-396875D02*
D03*
X-392544Y-242091D02*
D03*
X-396875D02*
D03*
X-392544Y-252091D02*
D03*
X-396875D02*
D03*
X-392544Y-272091D02*
D03*
X-396875D02*
D03*
X-79395Y-281106D02*
D03*
X-75064D02*
D03*
X-79395Y-271106D02*
D03*
X-75064D02*
D03*
X-79395Y-261106D02*
D03*
X-75064D02*
D03*
X-79395Y-251106D02*
D03*
X-75064D02*
D03*
X-79395Y-241106D02*
D03*
X-75064D02*
D03*
X-79395Y-231106D02*
D03*
X-75064D02*
D03*
X-67229Y-241106D02*
D03*
X-62898D02*
D03*
X-67229Y-231106D02*
D03*
X-62898D02*
D03*
X-67229Y-281106D02*
D03*
X-62898D02*
D03*
X-67229Y-271106D02*
D03*
X-62898D02*
D03*
X-67229Y-321106D02*
D03*
X-62898D02*
D03*
X-67229Y-311106D02*
D03*
X-62898D02*
D03*
X-425741Y-163587D02*
D03*
X-421410D02*
D03*
X-425741Y-153587D02*
D03*
X-421410D02*
D03*
X-425741Y-148587D02*
D03*
X-421410D02*
D03*
X-425741Y-143587D02*
D03*
X-421410D02*
D03*
X-79395Y-206106D02*
D03*
X-75064D02*
D03*
X-79395Y-196106D02*
D03*
X-75064D02*
D03*
X-79395Y-186106D02*
D03*
X-75064D02*
D03*
X-79395Y-176106D02*
D03*
X-75064D02*
D03*
X-79395Y-166106D02*
D03*
X-75064D02*
D03*
X-79395Y-156106D02*
D03*
X-75064D02*
D03*
X-79395Y-146106D02*
D03*
X-75064D02*
D03*
X-79395Y-136106D02*
D03*
X-75064D02*
D03*
X-67229Y-206106D02*
D03*
X-62898D02*
D03*
X-67229Y-196106D02*
D03*
X-62898D02*
D03*
X-67229Y-186106D02*
D03*
X-62898D02*
D03*
X-67229Y-176106D02*
D03*
X-62898D02*
D03*
X-67229Y-166106D02*
D03*
X-62898D02*
D03*
X-67229Y-156106D02*
D03*
X-62898D02*
D03*
X-67229Y-146106D02*
D03*
X-62898D02*
D03*
X-67229Y-136106D02*
D03*
X-62898D02*
D03*
X-475150Y-163587D02*
D03*
X-470820D02*
D03*
X-475150Y-153587D02*
D03*
X-470820D02*
D03*
X-475150Y-148587D02*
D03*
X-470820D02*
D03*
X-425741Y-158587D02*
D03*
X-421410D02*
D03*
X-475150D02*
D03*
X-470820D02*
D03*
X-475150Y-143587D02*
D03*
X-470820D02*
D03*
X-79395Y-331106D02*
D03*
X-75064D02*
D03*
X-67229D02*
D03*
X-62898D02*
D03*
X-67229Y-291106D02*
D03*
X-62898D02*
D03*
X-67229Y-251106D02*
D03*
X-62898D02*
D03*
X-67229Y-301106D02*
D03*
X-62898D02*
D03*
X-67229Y-261106D02*
D03*
X-62898D02*
D03*
X-79395Y-221106D02*
D03*
X-75064D02*
D03*
X-67229D02*
D03*
X-62898D02*
D03*
X-79395Y-301106D02*
D03*
X-75064D02*
D03*
X-79395Y-291106D02*
D03*
X-75064D02*
D03*
X-79395Y-311106D02*
D03*
X-75064D02*
D03*
X-79395Y-321106D02*
D03*
X-75064D02*
D03*
D18*
X-209576Y-95122D02*
X-203517Y-89063D01*
X-220536Y-95122D02*
X-209576D01*
X-223517Y-92142D02*
X-220536Y-95122D01*
X-223517Y-92142D02*
Y-84063D01*
X-218568Y-89217D02*
X-218516Y-89165D01*
Y-84063D01*
X-213516Y-89150D02*
X-213450Y-89217D01*
X-213516Y-89150D02*
Y-84063D01*
X-516428Y-142973D02*
X-488223Y-171177D01*
X-516428Y-142973D02*
Y-136928D01*
X-514828Y-142310D02*
X-487961Y-169177D01*
X-514828Y-142310D02*
Y-126028D01*
X-489040Y-164020D02*
Y-160083D01*
X-482564Y-153606D01*
X-488223Y-171177D02*
X-114646D01*
X-488525Y-173139D02*
X-311087D01*
X-510476Y-153450D02*
X-488587Y-175339D01*
X-511516Y-153450D02*
X-510476D01*
X-518566Y-144138D02*
X-510853Y-151850D01*
X-597898Y-144138D02*
X-518566D01*
X-509813Y-151850D02*
X-488525Y-173139D01*
X-510853Y-151850D02*
X-509813D01*
X-487961Y-169177D02*
X-106804D01*
X-518328Y-146638D02*
X-511516Y-153450D01*
X-604887Y-146638D02*
X-518328D01*
X-523981Y-129374D02*
X-516428Y-136928D01*
X-510457Y-155731D02*
X-489250Y-176939D01*
X-509669Y-158783D02*
X-489913Y-178539D01*
X-488587Y-175339D02*
X-311249D01*
X-489250Y-176939D02*
X-454861D01*
X-489913Y-178539D02*
X-455524D01*
X-478883Y-158587D02*
X-475150D01*
X-479198Y-158902D02*
X-478883Y-158587D01*
X-431167Y-143578D02*
X-431158Y-143587D01*
X-464875Y-160143D02*
Y-158587D01*
X-482564Y-153606D02*
Y-148606D01*
X-482741Y-143429D02*
X-482564Y-143606D01*
X-470820Y-163587D02*
X-464875D01*
X-556123Y-98512D02*
X-555969Y-98665D01*
X-556123Y-98512D02*
Y-94980D01*
X-594158Y-98665D02*
X-593765D01*
X-594158D02*
X-594076Y-98583D01*
Y-94980D01*
X-546521Y-110476D02*
X-546127Y-110870D01*
X-546635Y-109575D02*
Y-106791D01*
X-534920Y-111054D02*
X-534893D01*
X-537147Y-108827D02*
X-534920Y-111054D01*
X-537147Y-108827D02*
Y-106791D01*
X-546830Y-98976D02*
X-546521Y-98666D01*
X-546831Y-98976D02*
X-546830D01*
X-546831D02*
X-546521Y-98665D01*
X-546635Y-98551D02*
X-546521Y-98665D01*
X-546635Y-98551D02*
Y-94980D01*
X-537147Y-98197D02*
X-537072Y-98272D01*
X-537147Y-98197D02*
Y-94980D01*
X-421410Y-163587D02*
X-417032D01*
X-421410Y-158587D02*
X-417072D01*
X-421410Y-153587D02*
X-417190D01*
X-421410Y-148587D02*
X-417072D01*
X-421410Y-143587D02*
X-417032D01*
X-584587Y-94980D02*
X-584513Y-95055D01*
Y-97681D02*
Y-95055D01*
X-577524Y-123075D02*
X-560005Y-140594D01*
X-524276D01*
X-512264Y-158783D02*
X-509669D01*
X-455524Y-178539D02*
X-401972Y-232090D01*
X-396875D01*
X-575099Y-107612D02*
Y-106791D01*
Y-107612D02*
X-570044Y-112667D01*
Y-121303D02*
Y-112667D01*
Y-121303D02*
X-553706Y-137642D01*
X-521717D01*
X-511575Y-155731D02*
X-510457D01*
X-454861Y-176939D02*
X-404099Y-227701D01*
X-375064D01*
X-372210Y-230555D01*
Y-234689D02*
Y-230555D01*
X-374867Y-237347D02*
X-372210Y-234689D01*
X-394749Y-237347D02*
X-374867D01*
X-396875Y-239472D02*
X-394749Y-237347D01*
X-396875Y-242091D02*
Y-239472D01*
X-420635Y-288947D02*
X-149400D01*
X-451861D02*
X-420635D01*
X-420438Y-289143D01*
Y-290988D02*
Y-289143D01*
X-422898Y-287347D02*
X-153706D01*
X-452523D02*
X-422898D01*
Y-285476D01*
X-422997Y-285378D02*
X-422898Y-285476D01*
X-584587Y-109713D02*
Y-106791D01*
Y-109713D02*
X-579887Y-114413D01*
X-617977Y-138134D02*
Y-138035D01*
X-619749Y-139906D02*
X-617977Y-138134D01*
X-742780Y-139906D02*
X-619749D01*
X-749080Y-146205D02*
X-742780Y-139906D01*
X-749080Y-309984D02*
Y-146205D01*
Y-309984D02*
X-674276Y-384787D01*
X-545439D01*
X-528310Y-367659D01*
X-468271D01*
X-455616Y-294965D02*
X-444206D01*
X-569316Y-364059D02*
X-469197D01*
X-79966Y-266106D02*
X-73961D01*
X-68961Y-271106D01*
X-153706Y-287347D02*
X-121914Y-255555D01*
X-68961Y-271106D02*
X-67229D01*
X-79966Y-276106D02*
X-73804D01*
X-68804Y-281106D01*
X-149400Y-288947D02*
X-118961Y-258508D01*
X-68804Y-281106D02*
X-67229D01*
X-68891D02*
X-68804D01*
X-469197Y-364059D02*
X-462589Y-357451D01*
Y-297412D01*
X-468934Y-366059D02*
X-460989Y-358114D01*
Y-298075D01*
X-462589Y-297412D02*
X-452523Y-287347D01*
X-460989Y-298075D02*
X-451861Y-288947D01*
X-434757Y-294965D02*
X-434717Y-294925D01*
X-430084D01*
X-499194Y-97500D02*
Y-94980D01*
X-499276Y-97583D02*
X-499194Y-97500D01*
X-495540Y-110972D02*
X-495536Y-110968D01*
X-495540Y-118453D02*
Y-110972D01*
X-489706Y-109024D02*
Y-106791D01*
Y-109024D02*
X-485587Y-113142D01*
X-70694Y-152642D02*
X-67229Y-156106D01*
X-103833Y-136785D02*
X-87977Y-152642D01*
X-70694D01*
X-680782Y-122141D02*
Y-119335D01*
X-105928Y-138880D02*
X-89139Y-155669D01*
X-70107Y-163228D02*
X-67229Y-166106D01*
X-84406Y-163228D02*
X-70107D01*
X-89139Y-158496D02*
Y-155669D01*
Y-158496D02*
X-84406Y-163228D01*
X-677820Y-121992D02*
Y-119335D01*
X-666894Y-132917D02*
X-664631D01*
X-667043Y-135880D02*
X-664631D01*
X-680782Y-122141D02*
X-667043Y-135880D01*
X-677820Y-121992D02*
X-666894Y-132917D01*
X-311249Y-175339D02*
X-311087Y-175177D01*
X-145324D02*
X-79395Y-241106D01*
X-311087Y-175177D02*
X-145324D01*
X-137324Y-173177D02*
X-79395Y-231106D01*
X-311087Y-173177D02*
X-137324D01*
X-627170Y-124354D02*
X-604887Y-146638D01*
X-617682Y-124354D02*
X-597898Y-144138D01*
X-627170Y-124354D02*
Y-113794D01*
X-632028Y-108936D02*
X-627170Y-113794D01*
X-632028Y-108936D02*
Y-106791D01*
X-617682Y-124354D02*
Y-113794D01*
X-622540Y-108936D02*
X-617682Y-113794D01*
X-622540Y-108936D02*
Y-106791D01*
X-556123Y-109622D02*
Y-106791D01*
X-508682Y-107612D02*
Y-106791D01*
Y-107612D02*
X-504591Y-111702D01*
Y-121697D02*
Y-111702D01*
X-518170Y-108512D02*
Y-106791D01*
Y-108512D02*
X-514040Y-112642D01*
X-565611Y-97811D02*
Y-94980D01*
X-523981Y-129374D02*
Y-126028D01*
X-514040Y-121992D02*
Y-112642D01*
X-517773Y-98402D02*
Y-95377D01*
X-527261Y-98402D02*
Y-95377D01*
X-126048Y-140890D02*
X-125950D01*
X-89521Y-177012D02*
X-83304Y-183228D01*
X-89521Y-177012D02*
X-89237D01*
X-85190Y-171500D02*
X-84363Y-172327D01*
X-474680Y-133628D02*
X-73033D01*
X-489706Y-118602D02*
X-474680Y-133628D01*
X-73033D02*
X-71256Y-135406D01*
X-466702Y-128405D02*
X-101587D01*
X-470414D02*
X-466702D01*
X-480217Y-118602D02*
X-470414Y-128405D01*
X-473587Y-130905D02*
X-255087D01*
X-71256Y-135406D02*
X-67930D01*
X-67229Y-136106D01*
X-93087Y-136406D02*
X-86265Y-143228D01*
X-575099Y-97811D02*
Y-94980D01*
X-613052Y-97811D02*
Y-94980D01*
X-572582Y-363621D02*
Y-318667D01*
X-574749Y-316500D02*
X-572582Y-318667D01*
X-577756Y-316500D02*
X-574749D01*
X-568686D02*
X-565945D01*
X-570982Y-318796D02*
X-568686Y-316500D01*
X-570144Y-366059D02*
X-468934D01*
X-572582Y-363621D02*
X-570144Y-366059D01*
X-570982Y-362393D02*
Y-318796D01*
Y-362393D02*
X-569316Y-364059D01*
X-673918Y-229445D02*
Y-212713D01*
X-669784Y-208579D01*
X-623918Y-229445D02*
Y-212713D01*
X-619784Y-208579D01*
X-623524Y-184563D02*
Y-167831D01*
X-619390Y-163697D01*
X-573131Y-184563D02*
Y-167831D01*
X-568997Y-163697D01*
X-623918Y-274327D02*
Y-257594D01*
X-619784Y-253461D01*
X-573131Y-273933D02*
Y-257201D01*
X-568997Y-253067D01*
X-573292Y-229177D02*
Y-212445D01*
X-569158Y-208311D01*
X-674080Y-184689D02*
Y-167957D01*
X-669946Y-163823D01*
X-724473Y-184689D02*
Y-167957D01*
X-720339Y-163823D01*
X-724312Y-228992D02*
Y-212260D01*
X-720178Y-208126D01*
X-724312Y-273992D02*
Y-257260D01*
X-720178Y-253126D01*
X-522343Y-184563D02*
Y-167831D01*
X-518209Y-163697D01*
X-522111Y-273862D02*
Y-257130D01*
X-517977Y-252996D01*
X-522343Y-229051D02*
Y-212319D01*
X-518209Y-208185D01*
X-674080Y-274059D02*
Y-257327D01*
X-669946Y-253193D01*
X-450359Y-228835D02*
Y-212102D01*
X-454493Y-232968D02*
X-450359Y-228835D01*
X-193517Y-89063D02*
Y-84063D01*
X-86481Y-252602D02*
Y-238271D01*
X-104630Y-220122D02*
X-86481Y-238271D01*
X-84700Y-220309D02*
X-81425Y-223584D01*
X-126064Y-178945D02*
X-125689D01*
X-84513Y-220122D01*
X-84375Y-231795D02*
X-77542Y-238628D01*
X-84513Y-231933D02*
Y-231658D01*
X-137564Y-178606D02*
X-84513Y-231658D01*
X-95536Y-300205D02*
Y-281771D01*
Y-320944D02*
Y-300205D01*
X-129788Y-326421D02*
X-100620D01*
X-95339Y-321141D01*
X-95536Y-320944D02*
X-95339Y-321141D01*
X-95536Y-281771D02*
Y-269960D01*
Y-261658D02*
X-86481Y-252602D01*
X-95536Y-269960D02*
Y-261658D01*
X-96521Y-237479D02*
Y-228429D01*
X-106791Y-220122D02*
X-104630D01*
X-102229Y-249355D02*
Y-226028D01*
X-179295Y-326421D02*
X-102229Y-249355D01*
X-241993Y-326421D02*
X-179295D01*
X-244572Y-329000D02*
X-241993Y-326421D01*
X-179476Y-328865D02*
X-91402Y-240791D01*
X-209751Y-328865D02*
X-179476D01*
X-209887Y-329000D02*
X-209751Y-328865D01*
X-392544Y-222091D02*
X-379710D01*
X-392544Y-232090D02*
X-379710D01*
X-392544Y-242091D02*
X-379710D01*
X-392544Y-252091D02*
X-379710D01*
X-392544Y-262090D02*
X-379710D01*
X-392544Y-272091D02*
X-379710D01*
X-397036Y-271929D02*
X-396875Y-272091D01*
X-403402Y-271929D02*
X-397036D01*
X-482564Y-163606D02*
X-475170D01*
X-80064Y-326106D02*
X-79395Y-326776D01*
Y-331106D02*
Y-326776D01*
X-68064Y-311106D02*
X-67229D01*
X-73064Y-306106D02*
X-68064Y-311106D01*
X-79966Y-306106D02*
X-73064D01*
X-68064Y-321106D02*
X-67229D01*
X-73064Y-316106D02*
X-68064Y-321106D01*
X-79966Y-316106D02*
X-73064D01*
X-198516Y-89063D02*
Y-84063D01*
X-203517Y-89063D02*
Y-84063D01*
X-81425Y-223584D02*
X-74849D01*
X-67326Y-231106D01*
X-67229D01*
X-79395Y-221106D02*
Y-215437D01*
X-77542Y-238628D02*
X-69707D01*
X-67229Y-241106D01*
X-482564Y-153606D02*
X-475170D01*
X-482564Y-148606D02*
X-475170D01*
X-482564Y-143606D02*
X-475170D01*
X-475150Y-143587D01*
X-72326Y-326106D02*
X-67326Y-331106D01*
X-80064Y-326106D02*
X-72326D01*
Y-296106D02*
X-67326Y-301106D01*
X-80064Y-296106D02*
X-72326D01*
Y-286106D02*
X-67326Y-291106D01*
X-80064Y-286106D02*
X-72326D01*
Y-256106D02*
X-67326Y-261106D01*
X-80064Y-256106D02*
X-72326D01*
X-80064Y-246106D02*
X-72326D01*
X-67326Y-251106D01*
X-67229D01*
Y-221106D02*
Y-215437D01*
X-208517Y-89063D02*
Y-84063D01*
X-228517Y-89063D02*
Y-84063D01*
X-193517Y-66186D02*
X-192009Y-64679D01*
X-193517Y-79732D02*
Y-66186D01*
X-197409Y-78625D02*
Y-53479D01*
X-198516Y-79732D02*
X-197409Y-78625D01*
X-203517Y-79732D02*
Y-65386D01*
X-202810Y-64679D01*
X-208517Y-53786D02*
X-208209Y-53479D01*
X-208517Y-79732D02*
Y-53786D01*
X-213610Y-79639D02*
X-213516Y-79732D01*
X-213610Y-79639D02*
Y-64679D01*
X-219009Y-79239D02*
X-218516Y-79732D01*
X-219009Y-79239D02*
Y-53479D01*
X-223517Y-79732D02*
Y-65572D01*
X-224410Y-64679D02*
X-223517Y-65572D01*
X-229809Y-78439D02*
Y-53479D01*
Y-78439D02*
X-228517Y-79732D01*
X-233517D02*
Y-66372D01*
X-235209Y-64679D02*
X-233517Y-66372D01*
X-85150Y-206106D02*
X-79395D01*
X-85150Y-196106D02*
X-79395D01*
X-82595Y-203228D02*
X-70107D01*
X-114646Y-171177D02*
X-82595Y-203228D01*
X-85150Y-186106D02*
X-79395D01*
X-82753Y-193228D02*
X-70107D01*
X-106804Y-169177D02*
X-82753Y-193228D01*
X-85150Y-176106D02*
X-79395D01*
X-83304Y-183228D02*
X-70107D01*
X-85150Y-166106D02*
X-79395D01*
X-84363Y-172327D02*
X-71672D01*
X-85150Y-156106D02*
X-79395D01*
X-85150Y-146106D02*
X-79395D01*
X-85544Y-136500D02*
X-85150Y-136106D01*
X-79395D01*
X-70107Y-203228D02*
X-67229Y-206106D01*
X-70107Y-193228D02*
X-67229Y-196106D01*
X-70107Y-183228D02*
X-67229Y-186106D01*
X-71672Y-172327D02*
X-67892Y-176106D01*
X-67229D01*
X-86265Y-143228D02*
X-70107D01*
X-67229Y-146106D01*
X-434757Y-310445D02*
Y-299295D01*
X-444828Y-311067D02*
X-444206Y-310445D01*
Y-299295D01*
X-431158Y-163587D02*
X-425213D01*
X-431158Y-158587D02*
X-425213D01*
X-431158Y-153587D02*
X-425213D01*
X-431158Y-148587D02*
X-425213D01*
X-431158Y-143587D02*
X-425213D01*
X-470820Y-158587D02*
X-464875D01*
X-470820Y-153587D02*
X-464875D01*
X-470820Y-148587D02*
X-464875D01*
X-70611Y-335559D02*
X-44517D01*
X-75064Y-331106D02*
X-70611Y-335559D01*
X-44517D02*
X-40064Y-331106D01*
X-62898D02*
X-50064D01*
X-70611Y-325559D02*
X-44517D01*
X-75064Y-321106D02*
X-70611Y-325559D01*
X-44517D02*
X-40064Y-321106D01*
X-62898D02*
X-50064D01*
X-70611Y-315559D02*
X-44517D01*
X-75064Y-311106D02*
X-70611Y-315559D01*
X-44517D02*
X-40064Y-311106D01*
X-62898D02*
X-50064D01*
X-70611Y-305559D02*
X-44517D01*
X-75064Y-301106D02*
X-70611Y-305559D01*
X-44517D02*
X-40064Y-301106D01*
X-62898D02*
X-50064D01*
X-70611Y-295559D02*
X-44517D01*
X-75064Y-291106D02*
X-70611Y-295559D01*
X-44517D02*
X-40064Y-291106D01*
X-62898D02*
X-50064D01*
X-70611Y-285559D02*
X-44517D01*
X-75064Y-281106D02*
X-70611Y-285559D01*
X-44517D02*
X-40064Y-281106D01*
X-62898D02*
X-50064D01*
X-70611Y-275559D02*
X-44517D01*
X-75064Y-271106D02*
X-70611Y-275559D01*
X-44517D02*
X-40064Y-271106D01*
X-62898D02*
X-50064D01*
X-70611Y-265559D02*
X-44517D01*
X-75064Y-261106D02*
X-70611Y-265559D01*
X-44517D02*
X-40064Y-261106D01*
X-62898D02*
X-50064D01*
X-70611Y-255559D02*
X-44517D01*
X-75064Y-251106D02*
X-70611Y-255559D01*
X-44517D02*
X-40064Y-251106D01*
X-62898D02*
X-50064D01*
X-70611Y-245559D02*
X-44517D01*
X-75064Y-241106D02*
X-70611Y-245559D01*
X-44517D02*
X-40064Y-241106D01*
X-62898D02*
X-50064D01*
X-70611Y-235559D02*
X-44517D01*
X-75064Y-231106D02*
X-70611Y-235559D01*
X-44517D02*
X-40064Y-231106D01*
X-62898D02*
X-50064D01*
X-70611Y-225559D02*
X-44517D01*
X-75064Y-221106D02*
X-70611Y-225559D01*
X-44517D02*
X-40064Y-221106D01*
X-62898D02*
X-50064D01*
X-62898Y-206106D02*
X-50064D01*
X-44517Y-210559D02*
X-40064Y-206106D01*
X-75064D02*
X-70611Y-210559D01*
X-44517D01*
X-62898Y-196106D02*
X-50064D01*
X-44517Y-200559D02*
X-40064Y-196106D01*
X-75064D02*
X-70611Y-200559D01*
X-44517D01*
X-62898Y-186106D02*
X-50064D01*
X-44517Y-190559D02*
X-40064Y-186106D01*
X-75064D02*
X-70611Y-190559D01*
X-44517D01*
X-62898Y-176106D02*
X-50064D01*
X-44517Y-180559D02*
X-40064Y-176106D01*
X-75064D02*
X-70611Y-180559D01*
X-44517D01*
X-62898Y-166106D02*
X-50064D01*
X-44517Y-170559D02*
X-40064Y-166106D01*
X-75064D02*
X-70611Y-170559D01*
X-44517D01*
X-62898Y-156106D02*
X-50064D01*
X-44517Y-160559D02*
X-40064Y-156106D01*
X-75064D02*
X-70611Y-160559D01*
X-44517D01*
X-62898Y-146106D02*
X-50064D01*
X-44517Y-150559D02*
X-40064Y-146106D01*
X-75064D02*
X-70611Y-150559D01*
X-44517D01*
X-70611Y-140559D02*
X-44517D01*
X-75064Y-136106D02*
X-70611Y-140559D01*
X-44517D02*
X-40064Y-136106D01*
X-62898D02*
X-50064D01*
X-746127Y-252768D02*
X-743209Y-255685D01*
X-746127Y-149453D02*
X-741009Y-144335D01*
X-694552Y-254177D02*
X-692977Y-255752D01*
X-741009Y-144335D02*
X-694552D01*
Y-211264D02*
X-691599D01*
X-694552Y-254177D02*
Y-211264D01*
X-694391Y-165040D02*
X-689989D01*
X-694552Y-165201D02*
X-694391Y-165040D01*
X-694552Y-211264D02*
Y-165201D01*
Y-144335D01*
X-746127Y-166382D02*
X-743371D01*
X-746127D02*
Y-149453D01*
X-745942Y-210685D02*
X-743209D01*
X-746127Y-210870D02*
X-745942Y-210685D01*
X-746127Y-252768D02*
Y-210870D01*
Y-166382D01*
X-644552Y-249953D02*
X-639828Y-254678D01*
X-635890Y-198272D02*
Y-194335D01*
X-645733Y-184492D02*
X-635890Y-194335D01*
X-694552Y-144335D02*
X-645733D01*
X-645607Y-166256D02*
X-642422D01*
X-645733Y-166382D02*
X-645607Y-166256D01*
X-645733Y-184492D02*
Y-166382D01*
Y-144335D01*
X-644552Y-211264D02*
X-641206D01*
X-644552Y-249953D02*
Y-211264D01*
Y-204177D01*
X-641009Y-200634D01*
X-638253D01*
X-635890Y-198272D01*
X-596521Y-246804D02*
X-589040Y-254284D01*
X-596360Y-209528D02*
X-589202D01*
X-596521Y-209689D02*
X-596360Y-209528D01*
X-596521Y-246804D02*
Y-209689D01*
X-596234Y-164914D02*
X-589040D01*
X-596521Y-165201D02*
X-596234Y-164914D01*
X-596521Y-209689D02*
Y-165201D01*
X-645733Y-144335D02*
X-613843D01*
X-608331Y-149846D01*
X-596521Y-165201D02*
Y-149846D01*
X-608331D02*
X-596521D01*
X-544946Y-250134D02*
X-539398Y-255681D01*
X-544839Y-209402D02*
X-538253D01*
X-544946Y-209295D02*
X-544839Y-209402D01*
X-544946Y-250134D02*
Y-209295D01*
X-596521Y-149846D02*
X-544946D01*
X-544839Y-164914D02*
X-538253D01*
X-544946Y-164807D02*
X-544839Y-164914D01*
X-544946Y-209295D02*
Y-164807D01*
Y-149846D01*
X-431560Y-232327D02*
Y-204766D01*
X-456187Y-180139D02*
X-431560Y-204766D01*
X-497331Y-180139D02*
X-456187D01*
X-527542Y-149927D02*
X-497331Y-180139D01*
X-544865Y-149927D02*
X-527542D01*
X-544946Y-149846D02*
X-544865Y-149927D01*
X-743209Y-259228D02*
X-735103Y-251122D01*
X-743001Y-214020D02*
X-735103D01*
X-743209Y-214228D02*
X-743001Y-214020D01*
X-743371Y-169925D02*
X-735103D01*
Y-214020D02*
Y-169925D01*
X-692977Y-259295D02*
X-685890Y-252209D01*
Y-171097D02*
X-680782Y-165988D01*
X-691599Y-214807D02*
X-685891D01*
X-685890Y-214807D01*
Y-252209D02*
Y-214807D01*
Y-171097D01*
X-642422Y-169799D02*
X-630620Y-181601D01*
X-641206Y-214807D02*
X-631014D01*
X-630620Y-215201D01*
Y-255626D02*
Y-215201D01*
Y-181601D01*
X-579833Y-255232D02*
Y-210638D01*
X-579994Y-210476D02*
X-579833Y-210638D01*
X-579994Y-210476D02*
Y-166024D01*
X-579833Y-165862D01*
X-539398Y-259224D02*
X-529046Y-248872D01*
Y-210350D01*
X-705576Y-259295D02*
X-692977D01*
X-715418Y-249453D02*
X-705576Y-259295D01*
X-734710Y-249453D02*
X-715418D01*
X-735103Y-249847D02*
X-734710Y-249453D01*
X-735103Y-251122D02*
Y-249847D01*
Y-214020D01*
X-562698Y-282524D02*
X-539398Y-259224D01*
X-630620Y-277951D02*
Y-255626D01*
Y-277951D02*
X-626048Y-282524D01*
X-579833Y-282282D02*
Y-255232D01*
Y-282282D02*
X-579591Y-282524D01*
X-626048D02*
X-579591D01*
X-562698D01*
X-432347Y-235673D02*
X-423292D01*
X-439828Y-228193D02*
X-432347Y-235673D01*
X-439828Y-228193D02*
Y-215988D01*
X-451245Y-204571D02*
X-439828Y-215988D01*
X-482741Y-204571D02*
X-451245D01*
X-529046Y-210350D02*
Y-165862D01*
Y-187041D02*
X-500271D01*
X-482741Y-204571D01*
X-671324Y-147484D02*
X-649670D01*
X-680782Y-165988D02*
Y-156942D01*
X-671324Y-147484D01*
X-603564Y-98583D02*
Y-94980D01*
X-603647Y-98665D02*
X-603564Y-98583D01*
X-603647Y-98665D02*
X-603253D01*
X-594076Y-109378D02*
Y-106791D01*
Y-109378D02*
X-589828Y-113626D01*
X-589434D01*
X-480111Y-124382D02*
X-473587Y-130905D01*
X-485587Y-118654D02*
Y-113142D01*
Y-118654D02*
X-479985Y-124256D01*
X-567638Y-106791D02*
X-565611D01*
X-567780Y-106934D02*
X-567638Y-106791D01*
X-431167Y-151816D02*
X-431158Y-151824D01*
Y-153587D02*
Y-151824D01*
X-431166Y-146697D02*
X-431158Y-146705D01*
Y-148587D02*
Y-146705D01*
X-431167Y-141579D02*
X-431166Y-141579D01*
X-431167Y-143578D02*
Y-141579D01*
X-495540Y-118453D02*
X-478092Y-135901D01*
X-504591Y-121697D02*
X-488787Y-137501D01*
X-132052Y-137740D02*
X-119450D01*
X-133195Y-138883D02*
X-132052Y-137740D01*
X-428094Y-138883D02*
X-133195D01*
X-126454Y-140483D02*
X-126048Y-140890D01*
X-428757Y-140483D02*
X-126454D01*
X-514040Y-121992D02*
X-496932Y-139101D01*
X-470820Y-143587D02*
X-464875D01*
X-465025Y-143437D02*
X-464875Y-143587D01*
X-465024Y-146697D02*
X-464875Y-146846D01*
Y-148587D02*
Y-146846D01*
X-260172Y-135901D02*
X-259667Y-136406D01*
X-429477Y-137501D02*
X-428094Y-138883D01*
X-430140Y-139101D02*
X-428757Y-140483D01*
X-478092Y-135901D02*
X-260172D01*
X-465025Y-143437D02*
Y-141580D01*
X-488787Y-137501D02*
X-429477D01*
X-496932Y-139101D02*
X-430140D01*
X-482741Y-141973D02*
X-482741Y-141972D01*
X-482741Y-143429D02*
Y-141973D01*
X-609217Y-129472D02*
X-608528Y-130161D01*
X-588253D01*
X-579887Y-121795D01*
Y-114413D01*
X-468271Y-367659D02*
X-457677Y-357065D01*
Y-297026D02*
X-455616Y-294965D01*
X-457677Y-337598D02*
Y-297026D01*
Y-357065D02*
Y-337598D01*
D19*
X-489706Y-97429D02*
Y-94980D01*
Y-97429D02*
X-488863Y-98272D01*
X-668272Y-121598D02*
X-653902Y-135968D01*
X-653902D01*
X-518213Y-122287D02*
X-518170Y-122244D01*
Y-118602D01*
X-457347Y-275634D02*
X-445143D01*
X-481560Y-251421D02*
X-457347Y-275634D01*
X-508682Y-97429D02*
X-507839Y-98272D01*
X-508682Y-97429D02*
Y-94980D01*
X-499194Y-122244D02*
Y-118602D01*
X-499237Y-122287D02*
X-499194Y-122244D01*
X-508682D02*
Y-118602D01*
X-508725Y-122287D02*
X-508682Y-122244D01*
X-518170D02*
Y-118602D01*
X-518213Y-122287D02*
X-518170Y-122244D01*
X-527658D02*
Y-118602D01*
X-527702Y-122287D02*
X-527658Y-122244D01*
X-537147D02*
Y-118602D01*
X-537190Y-122287D02*
X-537147Y-122244D01*
X-546635D02*
Y-118602D01*
X-546678Y-122287D02*
X-546635Y-122244D01*
X-556166Y-122287D02*
X-556123Y-122244D01*
Y-118602D01*
X-668272Y-121598D02*
Y-111559D01*
X-660132Y-97828D02*
X-659712Y-98248D01*
X-660132Y-97828D02*
Y-95341D01*
X-660493Y-94980D02*
X-660132Y-95341D01*
X-650095Y-110128D02*
Y-109966D01*
X-651005Y-109056D02*
X-650095Y-109966D01*
X-651005Y-109056D02*
Y-106791D01*
X-660493Y-109279D02*
X-659712Y-110060D01*
X-660493Y-109279D02*
Y-106791D01*
X-650644Y-97768D02*
X-650164Y-98248D01*
X-650644Y-97768D02*
Y-95341D01*
X-651005Y-94980D02*
X-650644Y-95341D01*
X-470883Y-87915D02*
Y-76512D01*
Y-87915D02*
X-470729Y-88068D01*
Y-90650D02*
Y-88068D01*
X-485236Y-360048D02*
Y-356264D01*
Y-360048D02*
X-485202Y-360083D01*
X-497047Y-360048D02*
Y-356264D01*
Y-360048D02*
X-497013Y-360083D01*
X-672441Y-360048D02*
Y-356264D01*
Y-360048D02*
X-672406Y-360083D01*
X-660630Y-360048D02*
Y-356264D01*
Y-360048D02*
X-660595Y-360083D01*
X-648819Y-360048D02*
Y-356264D01*
Y-360048D02*
X-648784Y-360083D01*
X-577756Y-360048D02*
Y-356264D01*
Y-360048D02*
X-577721Y-360083D01*
X-565945Y-360048D02*
X-565910Y-360083D01*
X-565945Y-360048D02*
Y-356264D01*
X-554134Y-312775D02*
X-554099Y-312740D01*
X-554134Y-316500D02*
Y-312775D01*
X-503115Y-332819D02*
Y-314413D01*
Y-332819D02*
X-499572Y-336362D01*
X-482446D01*
X-479690Y-333606D02*
Y-319531D01*
X-482446Y-336362D02*
X-479690Y-333606D01*
X-476658Y-316500D02*
X-473425D01*
X-479690Y-319531D02*
X-476658Y-316500D01*
X-528410Y-289118D02*
X-503115Y-314413D01*
X-559916Y-353183D02*
X-559906Y-353172D01*
Y-312839D01*
X-556836Y-356264D02*
X-554134D01*
X-559916Y-353183D02*
X-556836Y-356264D01*
X-637008Y-312775D02*
X-636875Y-312642D01*
X-637008Y-316500D02*
Y-312775D01*
X-588745Y-368350D02*
X-588647D01*
X-584030Y-363734D01*
X-642584Y-303488D02*
X-642485Y-303390D01*
X-642584Y-304768D02*
Y-303488D01*
Y-304768D02*
X-642545Y-304806D01*
Y-354117D02*
Y-304806D01*
Y-354117D02*
X-640398Y-356264D01*
X-637008D01*
X-647800Y-199354D02*
X-641796Y-193350D01*
X-647800Y-248468D02*
Y-199354D01*
X-655969Y-256638D02*
X-647800Y-248468D01*
X-655969Y-291972D02*
Y-256638D01*
Y-291972D02*
X-648819Y-299123D01*
Y-316500D02*
Y-299123D01*
X-649768Y-289118D02*
X-528410D01*
X-651737Y-287150D02*
X-649768Y-289118D01*
X-594631Y-356264D02*
X-589567D01*
X-597800Y-353095D02*
X-594631Y-356264D01*
X-597800Y-353095D02*
Y-341763D01*
X-646325Y-293238D02*
X-597800Y-341763D01*
X-660630Y-316500D02*
X-660595Y-316465D01*
Y-312642D01*
X-584030Y-363734D02*
Y-320014D01*
X-587544Y-316500D02*
X-584030Y-320014D01*
X-589567Y-316500D02*
X-587544D01*
X-508858Y-360048D02*
Y-356264D01*
Y-360048D02*
X-508824Y-360083D01*
X-477229Y-356343D02*
X-477150Y-356264D01*
X-473425D01*
X-485236Y-316500D02*
Y-206898D01*
X-501835Y-190299D02*
X-485236Y-206898D01*
X-497111Y-312740D02*
X-497047Y-312804D01*
Y-316500D02*
Y-312804D01*
X-512761Y-316677D02*
X-512583Y-316500D01*
X-508858D01*
X-672441Y-351933D02*
Y-342287D01*
X-660630Y-351933D02*
Y-342287D01*
X-648819Y-351933D02*
Y-342287D01*
X-637008Y-351933D02*
Y-342287D01*
X-589567Y-351933D02*
Y-342287D01*
X-577756Y-351933D02*
Y-342287D01*
X-565945Y-351933D02*
Y-342287D01*
X-554134Y-351933D02*
Y-342287D01*
X-508858Y-351933D02*
Y-342287D01*
X-497047Y-351933D02*
Y-342287D01*
X-485236Y-351933D02*
Y-342287D01*
X-473425Y-351933D02*
Y-342287D01*
X-672441Y-330487D02*
Y-320831D01*
X-660630Y-330487D02*
Y-320831D01*
X-648819Y-330487D02*
Y-320831D01*
X-637008Y-330487D02*
Y-320831D01*
X-589567Y-330487D02*
Y-320831D01*
X-577756Y-330487D02*
Y-320831D01*
X-565945Y-330487D02*
Y-320831D01*
X-554134Y-330487D02*
Y-320831D01*
X-508858Y-330487D02*
Y-320831D01*
X-497047Y-330487D02*
Y-320831D01*
X-485236Y-330487D02*
Y-320831D01*
X-473425Y-330487D02*
Y-320831D01*
D21*
X-672587Y-313405D02*
X-672441Y-313552D01*
Y-316500D02*
Y-313552D01*
D22*
X-489706Y-114272D02*
Y-112272D01*
X-494816Y-107161D02*
X-489706Y-112272D01*
X-494816Y-107161D02*
Y-102571D01*
X-632028Y-97811D02*
Y-94980D01*
X-641516Y-97811D02*
Y-94980D01*
X-499194Y-109622D02*
Y-106791D01*
X-603564Y-109622D02*
Y-106791D01*
X-504229Y-97425D02*
Y-66512D01*
Y-97425D02*
X-499194Y-102461D01*
X-494741Y-97425D02*
X-489706Y-102461D01*
X-475587Y-102406D02*
Y-101587D01*
X-480217Y-96957D02*
X-475587Y-101587D01*
X-480217Y-96957D02*
Y-94980D01*
X-480371Y-87915D02*
Y-76512D01*
Y-87915D02*
X-480217Y-88068D01*
Y-90650D02*
Y-88068D01*
X-489859Y-87915D02*
Y-76512D01*
Y-87915D02*
X-489706Y-88068D01*
Y-90650D02*
Y-88068D01*
X-499465Y-87797D02*
Y-76512D01*
Y-87797D02*
X-499194Y-88068D01*
Y-90650D02*
Y-88068D01*
X-508954Y-87797D02*
Y-76512D01*
Y-87797D02*
X-508682Y-88068D01*
Y-90650D02*
Y-88068D01*
X-518442Y-87797D02*
Y-76512D01*
Y-87797D02*
X-518170Y-88068D01*
Y-90650D02*
Y-88068D01*
X-527930Y-87797D02*
Y-76512D01*
Y-87797D02*
X-527658Y-88068D01*
Y-90650D02*
Y-88068D01*
X-537418Y-87797D02*
Y-76512D01*
Y-87797D02*
X-537147Y-88068D01*
Y-90650D02*
Y-88068D01*
X-546906Y-87797D02*
Y-76512D01*
Y-87797D02*
X-546635Y-88068D01*
Y-90650D02*
Y-88068D01*
X-556394Y-87797D02*
Y-76512D01*
Y-87797D02*
X-556123Y-88068D01*
Y-90650D02*
Y-88068D01*
X-660765Y-76512D02*
X-660493Y-76784D01*
Y-90650D02*
Y-76784D01*
X-651276Y-76512D02*
X-651005Y-76784D01*
Y-90650D02*
Y-76784D01*
X-641788Y-76512D02*
X-641516Y-76784D01*
Y-90650D02*
Y-76784D01*
X-632300Y-76512D02*
X-632028Y-76784D01*
Y-90650D02*
Y-76784D01*
X-622812Y-76512D02*
X-622540Y-76784D01*
Y-90650D02*
Y-76784D01*
X-613324Y-76512D02*
X-613052Y-76784D01*
Y-90650D02*
Y-76784D01*
X-603835Y-76512D02*
X-603564Y-76784D01*
Y-90650D02*
Y-76784D01*
X-594347Y-76512D02*
X-594076Y-76784D01*
Y-90650D02*
Y-76784D01*
X-584859Y-76512D02*
X-584587Y-76784D01*
Y-90650D02*
Y-76784D01*
X-575371Y-76512D02*
X-575099Y-76784D01*
Y-90650D02*
Y-76784D01*
X-565883Y-76512D02*
X-565611Y-76784D01*
Y-90650D02*
Y-76784D01*
X-518170Y-94980D02*
X-517773Y-95377D01*
X-527658Y-94980D02*
X-527261Y-95377D01*
X-470729Y-96764D02*
X-465587Y-101906D01*
X-470729Y-96764D02*
Y-94980D01*
X-475646Y-97543D02*
X-470729Y-102461D01*
X-527658Y-109622D02*
Y-106791D01*
X-470729Y-109622D02*
Y-106791D01*
X-480217Y-109622D02*
Y-106791D01*
X-641516Y-109622D02*
Y-106791D01*
X-485327Y-109161D02*
X-480217Y-114272D01*
X-485327Y-109161D02*
Y-102571D01*
X-504304Y-109161D02*
X-499194Y-114272D01*
X-504304Y-109161D02*
Y-102571D01*
X-513792Y-109161D02*
X-508682Y-114272D01*
X-513792Y-109161D02*
Y-102571D01*
X-523280Y-109161D02*
X-518170Y-114272D01*
X-523280Y-109161D02*
Y-102571D01*
X-532768Y-109161D02*
X-527658Y-114272D01*
X-532768Y-109161D02*
Y-102571D01*
X-542257Y-109161D02*
X-537147Y-114272D01*
X-542257Y-109161D02*
Y-102571D01*
X-551745Y-109161D02*
X-546635Y-114272D01*
X-551745Y-109161D02*
Y-102571D01*
X-561233Y-109161D02*
X-556123Y-114272D01*
X-561233Y-109161D02*
Y-102571D01*
X-570721Y-109161D02*
X-565611Y-114272D01*
X-570721Y-109161D02*
Y-102571D01*
X-580209Y-109161D02*
X-575099Y-114272D01*
X-580209Y-109161D02*
Y-102571D01*
X-589698Y-109161D02*
X-584587Y-114272D01*
X-589698Y-109161D02*
Y-102571D01*
X-599186Y-109161D02*
X-594076Y-114272D01*
X-599186Y-109161D02*
Y-102571D01*
X-608674Y-109161D02*
X-603564Y-114272D01*
X-608674Y-109161D02*
Y-102571D01*
X-618162Y-109161D02*
X-613052Y-114272D01*
X-618162Y-109161D02*
Y-102571D01*
X-627650Y-109161D02*
X-622540Y-114272D01*
X-627650Y-109161D02*
Y-102571D01*
X-637139Y-109161D02*
X-632028Y-114272D01*
X-637139Y-109161D02*
Y-102571D01*
X-646627Y-109161D02*
X-641516Y-114272D01*
X-646627Y-109161D02*
Y-102571D01*
X-665603Y-109161D02*
X-660493Y-114272D01*
X-665603Y-109161D02*
Y-102571D01*
X-656115Y-109161D02*
Y-102571D01*
Y-109161D02*
X-651005Y-114272D01*
X-485135Y-97543D02*
Y-66512D01*
Y-97543D02*
X-480217Y-102461D01*
X-475646Y-97543D02*
Y-66512D01*
X-494741Y-97425D02*
Y-66512D01*
X-513717Y-97425D02*
Y-66512D01*
Y-97425D02*
X-508682Y-102461D01*
X-523206Y-97425D02*
Y-66512D01*
Y-97425D02*
X-518170Y-102461D01*
X-532694Y-97425D02*
Y-66512D01*
Y-97425D02*
X-527658Y-102461D01*
X-542182Y-97425D02*
Y-66512D01*
Y-97425D02*
X-537147Y-102461D01*
X-561158Y-97425D02*
Y-66512D01*
Y-97425D02*
X-556123Y-102461D01*
X-551670Y-97425D02*
Y-66512D01*
Y-97425D02*
X-546635Y-102461D01*
X-570686Y-97622D02*
Y-66709D01*
Y-97622D02*
X-565650Y-102657D01*
X-580135Y-97425D02*
Y-66512D01*
Y-97425D02*
X-575099Y-102461D01*
X-589623Y-97425D02*
Y-66512D01*
Y-97425D02*
X-584587Y-102461D01*
X-599111Y-97425D02*
Y-66512D01*
Y-97425D02*
X-594076Y-102461D01*
X-608599Y-97425D02*
Y-66512D01*
Y-97425D02*
X-603564Y-102461D01*
X-618087Y-97425D02*
Y-66512D01*
Y-97425D02*
X-613052Y-102461D01*
X-627576Y-97425D02*
Y-66512D01*
Y-97425D02*
X-622540Y-102461D01*
X-637064Y-97425D02*
Y-66512D01*
Y-97425D02*
X-632028Y-102461D01*
X-646552Y-97425D02*
Y-66512D01*
Y-97425D02*
X-641516Y-102461D01*
X-665528Y-97425D02*
Y-66512D01*
Y-97425D02*
X-660493Y-102461D01*
X-656040Y-97425D02*
X-651005Y-102461D01*
X-656040Y-97425D02*
Y-66512D01*
D23*
X-12795Y-59055D02*
G03*
X-44291Y-27559I-31496J0D01*
G01*
X-737205Y-27559D02*
G03*
X-768701Y-59055I0J-31496D01*
G01*
X-768701Y-398819D02*
X-12795D01*
X-768701D02*
Y-59055D01*
X-768701Y-59055D02*
X-768701Y-59055D01*
X-737205Y-27559D02*
X-44291D01*
D24*
X-470950Y-186189D02*
D03*
Y-196189D02*
D03*
X-444828Y-311067D02*
D03*
X-434828D02*
D03*
X-485236Y-330487D02*
D03*
X-473425D02*
D03*
X-497047D02*
D03*
X-508858D02*
D03*
Y-342287D02*
D03*
X-497047D02*
D03*
X-485236D02*
D03*
X-565945Y-330487D02*
D03*
X-554134D02*
D03*
X-577756D02*
D03*
X-589567D02*
D03*
Y-342287D02*
D03*
X-577756D02*
D03*
X-565945D02*
D03*
X-648819Y-330487D02*
D03*
X-637008D02*
D03*
X-660630D02*
D03*
X-672441D02*
D03*
Y-342287D02*
D03*
X-660630D02*
D03*
X-648819D02*
D03*
D25*
X-75654Y-384492D02*
D03*
X-185891D02*
D03*
X-406363Y-384492D02*
D03*
X-296127Y-384492D02*
D03*
X-445143Y-275634D02*
D03*
X-445044Y-263724D02*
D03*
D26*
X-65654Y-384492D02*
D03*
X-175891D02*
D03*
X-396363Y-384492D02*
D03*
X-286127Y-384492D02*
D03*
X-435143Y-275634D02*
D03*
X-435044Y-263724D02*
D03*
X-379710Y-232090D02*
D03*
Y-242091D02*
D03*
Y-252091D02*
D03*
Y-262090D02*
D03*
Y-272091D02*
D03*
X-50064Y-321106D02*
D03*
Y-331106D02*
D03*
Y-291106D02*
D03*
Y-301106D02*
D03*
Y-311106D02*
D03*
Y-271106D02*
D03*
Y-281106D02*
D03*
Y-261106D02*
D03*
Y-251106D02*
D03*
Y-241106D02*
D03*
X-40064Y-271106D02*
D03*
X-50064Y-231106D02*
D03*
X-40064Y-331106D02*
D03*
Y-311106D02*
D03*
Y-321106D02*
D03*
Y-301106D02*
D03*
Y-281106D02*
D03*
Y-291106D02*
D03*
Y-241106D02*
D03*
Y-261106D02*
D03*
Y-221106D02*
D03*
Y-251106D02*
D03*
Y-231106D02*
D03*
Y-136106D02*
D03*
X-50064Y-146106D02*
D03*
X-40064D02*
D03*
X-50064Y-156106D02*
D03*
X-40064D02*
D03*
X-50064Y-166106D02*
D03*
X-40064D02*
D03*
X-50064Y-176106D02*
D03*
X-40064D02*
D03*
X-50064Y-186106D02*
D03*
X-40064D02*
D03*
X-50064Y-196106D02*
D03*
X-40064D02*
D03*
X-50064Y-206106D02*
D03*
X-40064D02*
D03*
D27*
X-197409Y-53479D02*
D03*
X-208209D02*
D03*
X-219009D02*
D03*
X-229809D02*
D03*
X-192009Y-64679D02*
D03*
X-202810D02*
D03*
X-213610D02*
D03*
X-224410D02*
D03*
X-235209D02*
D03*
D28*
X-262809Y-59079D02*
D03*
X-164409D02*
D03*
D29*
X-693048Y-66512D02*
D03*
X-443048D02*
D03*
D30*
X-470883Y-76512D02*
D03*
X-480371D02*
D03*
X-489859D02*
D03*
X-499465D02*
D03*
X-508954D02*
D03*
X-518442D02*
D03*
X-527930D02*
D03*
X-537418D02*
D03*
X-546906D02*
D03*
X-556394D02*
D03*
X-565883D02*
D03*
X-575371D02*
D03*
X-584859D02*
D03*
X-594347D02*
D03*
X-603835D02*
D03*
X-613324D02*
D03*
X-622812D02*
D03*
X-632300D02*
D03*
X-641788D02*
D03*
X-651276D02*
D03*
X-665528Y-66512D02*
D03*
X-651276Y-56512D02*
D03*
X-660765D02*
D03*
X-641788D02*
D03*
X-632300D02*
D03*
X-622812D02*
D03*
X-613324D02*
D03*
X-603835D02*
D03*
X-594347D02*
D03*
X-584859D02*
D03*
X-575371D02*
D03*
X-565883D02*
D03*
X-556394D02*
D03*
X-546906D02*
D03*
X-537418D02*
D03*
X-527930D02*
D03*
X-518442D02*
D03*
X-508954D02*
D03*
X-499465D02*
D03*
X-489859D02*
D03*
X-480371D02*
D03*
X-475646Y-66512D02*
D03*
X-485135D02*
D03*
X-494741D02*
D03*
X-504229D02*
D03*
X-513717D02*
D03*
X-523206D02*
D03*
X-532694D02*
D03*
X-542182D02*
D03*
X-551670D02*
D03*
X-561158D02*
D03*
X-570646D02*
D03*
X-580135D02*
D03*
X-589623D02*
D03*
X-599111D02*
D03*
X-608599D02*
D03*
X-618087D02*
D03*
X-627576D02*
D03*
X-637064D02*
D03*
X-656040D02*
D03*
X-646552D02*
D03*
D31*
X-660765Y-76512D02*
D03*
D32*
X-390748Y-55118D02*
D03*
D33*
X-717520D02*
D03*
X-63976Y-55118D02*
D03*
X-733268Y-366142D02*
D03*
X-46048Y-351421D02*
D03*
X-400379Y-115201D02*
D03*
X-46048D02*
D03*
X-400379Y-351421D02*
D03*
D34*
X-379710Y-222091D02*
D03*
X-50064Y-221106D02*
D03*
Y-136106D02*
D03*
D35*
X-473425Y-342287D02*
D03*
X-554134D02*
D03*
X-637008D02*
D03*
D36*
X-218568Y-89217D02*
D03*
X-213450D02*
D03*
X-560694Y-114020D02*
D03*
X-479198Y-158902D02*
D03*
X-512264Y-158783D02*
D03*
X-511575Y-155731D02*
D03*
X-555969Y-98665D02*
D03*
X-593765D02*
D03*
X-546521Y-110476D02*
D03*
X-534893Y-111054D02*
D03*
X-521717Y-137642D02*
D03*
X-524276Y-140594D02*
D03*
X-546521Y-98666D02*
D03*
X-537072Y-98272D02*
D03*
X-417032Y-163587D02*
D03*
X-417072Y-158587D02*
D03*
X-417072Y-148587D02*
D03*
X-417032Y-143587D02*
D03*
X-584513Y-97681D02*
D03*
X-577524Y-123075D02*
D03*
X-420438Y-290988D02*
D03*
X-422997Y-285378D02*
D03*
X-609217Y-129472D02*
D03*
X-617977Y-138035D02*
D03*
X-499276Y-97583D02*
D03*
X-495536Y-110968D02*
D03*
X-103833Y-136785D02*
D03*
X-680782Y-119335D02*
D03*
X-105928Y-138880D02*
D03*
X-677820Y-119335D02*
D03*
X-664631Y-132917D02*
D03*
Y-135880D02*
D03*
X-523981Y-126028D02*
D03*
X-672587Y-313405D02*
D03*
X-630620Y-255626D02*
D03*
X-639828Y-254678D02*
D03*
X-538253Y-164914D02*
D03*
X-529046Y-165862D02*
D03*
X-538253Y-209402D02*
D03*
X-529046Y-210350D02*
D03*
X-589040Y-164914D02*
D03*
X-579833Y-165862D02*
D03*
X-589202Y-209528D02*
D03*
X-579994Y-210476D02*
D03*
X-589040Y-254284D02*
D03*
X-579833Y-255232D02*
D03*
X-689989Y-165040D02*
D03*
X-680782Y-165988D02*
D03*
X-603253Y-98665D02*
D03*
X-589434Y-113626D02*
D03*
X-567780Y-106934D02*
D03*
X-417190Y-153587D02*
D03*
X-592584Y-127406D02*
D03*
X-589434D02*
D03*
X-457677Y-337598D02*
D03*
X-443898Y-346457D02*
D03*
X-398622Y-281496D02*
D03*
D37*
X-489040Y-164020D02*
D03*
X-431158Y-163587D02*
D03*
Y-158587D02*
D03*
X-121914Y-255555D02*
D03*
X-79966Y-266106D02*
D03*
X-118961Y-258508D02*
D03*
X-79966Y-276106D02*
D03*
X-632028Y-97811D02*
D03*
X-641516D02*
D03*
X-556123Y-109622D02*
D03*
X-499194D02*
D03*
X-565611Y-97811D02*
D03*
X-603564Y-109622D02*
D03*
X-536087Y-159563D02*
D03*
X-535989Y-204051D02*
D03*
X-586875Y-159563D02*
D03*
X-586580Y-248933D02*
D03*
X-587072Y-204177D02*
D03*
X-637761Y-249327D02*
D03*
X-517773Y-98402D02*
D03*
X-527261D02*
D03*
X-119450Y-137740D02*
D03*
X-125950Y-140890D02*
D03*
X-85150Y-156106D02*
D03*
X-89237Y-177012D02*
D03*
X-85190Y-171500D02*
D03*
X-259667Y-136406D02*
D03*
X-255087Y-130905D02*
D03*
X-101587Y-128405D02*
D03*
X-93087Y-136406D02*
D03*
X-466690Y-243972D02*
D03*
X-473690D02*
D03*
X-654087Y-242075D02*
D03*
X-658087D02*
D03*
X-654087Y-234236D02*
D03*
X-658087D02*
D03*
X-650587Y-197575D02*
D03*
X-657587D02*
D03*
X-537087Y-152406D02*
D03*
X-527658Y-109622D02*
D03*
X-470729D02*
D03*
X-480217D02*
D03*
X-575099Y-97811D02*
D03*
X-613052D02*
D03*
X-641516Y-109622D02*
D03*
X-669194Y-200902D02*
D03*
X-666438Y-228067D02*
D03*
X-688879Y-197358D02*
D03*
Y-204445D02*
D03*
X-673918Y-229445D02*
D03*
X-669784Y-208579D02*
D03*
X-663682Y-213894D02*
D03*
X-619194Y-200902D02*
D03*
X-616438Y-228067D02*
D03*
X-638879Y-197358D02*
D03*
Y-204445D02*
D03*
X-623918Y-229445D02*
D03*
X-619784Y-208579D02*
D03*
X-613682Y-213894D02*
D03*
X-618800Y-156020D02*
D03*
X-616044Y-183185D02*
D03*
X-638485Y-152476D02*
D03*
Y-159563D02*
D03*
X-623524Y-184563D02*
D03*
X-619390Y-163697D02*
D03*
X-613288Y-169012D02*
D03*
X-568406Y-156020D02*
D03*
X-565650Y-183185D02*
D03*
X-588091Y-152476D02*
D03*
X-573131Y-184563D02*
D03*
X-568997Y-163697D02*
D03*
X-562894Y-169012D02*
D03*
X-619194Y-245783D02*
D03*
X-616438Y-272949D02*
D03*
X-638879Y-242240D02*
D03*
X-623918Y-274327D02*
D03*
X-619784Y-253461D02*
D03*
X-613682Y-258776D02*
D03*
X-568406Y-245390D02*
D03*
X-565650Y-272555D02*
D03*
X-588091Y-241846D02*
D03*
X-573131Y-273933D02*
D03*
X-568997Y-253067D02*
D03*
X-562894Y-258382D02*
D03*
X-568568Y-200634D02*
D03*
X-565812Y-227799D02*
D03*
X-588253Y-197091D02*
D03*
X-573292Y-229177D02*
D03*
X-569158Y-208311D02*
D03*
X-563056Y-213626D02*
D03*
X-669355Y-156146D02*
D03*
X-666599Y-183311D02*
D03*
X-689040Y-152602D02*
D03*
X-687662Y-159689D02*
D03*
X-674080Y-184689D02*
D03*
X-669946Y-163823D02*
D03*
X-663843Y-169138D02*
D03*
X-719749Y-156146D02*
D03*
X-716993Y-183311D02*
D03*
X-739434Y-152602D02*
D03*
Y-159689D02*
D03*
X-724473Y-184689D02*
D03*
X-720339Y-163823D02*
D03*
X-714237Y-169138D02*
D03*
X-719587Y-200449D02*
D03*
X-716831Y-227614D02*
D03*
X-739272Y-196906D02*
D03*
Y-203992D02*
D03*
X-724312Y-228992D02*
D03*
X-720178Y-208126D02*
D03*
X-714076Y-213441D02*
D03*
X-719587Y-245449D02*
D03*
X-716831Y-272614D02*
D03*
X-739272Y-241905D02*
D03*
Y-248992D02*
D03*
X-724312Y-273992D02*
D03*
X-720178Y-253126D02*
D03*
X-714076Y-258441D02*
D03*
X-517619Y-156020D02*
D03*
X-514863Y-183185D02*
D03*
X-522343Y-184563D02*
D03*
X-518209Y-163697D02*
D03*
X-512107Y-169012D02*
D03*
X-517387Y-245319D02*
D03*
X-514631Y-272484D02*
D03*
X-537072Y-241776D02*
D03*
Y-248862D02*
D03*
X-522111Y-273862D02*
D03*
X-517977Y-252996D02*
D03*
X-511875Y-258311D02*
D03*
X-517619Y-200508D02*
D03*
X-514863Y-227673D02*
D03*
X-537304Y-196965D02*
D03*
X-522343Y-229051D02*
D03*
X-518209Y-208185D02*
D03*
X-512107Y-213500D02*
D03*
X-669355Y-245516D02*
D03*
X-666599Y-272681D02*
D03*
X-689040Y-241972D02*
D03*
Y-249059D02*
D03*
X-674080Y-274059D02*
D03*
X-669946Y-253193D02*
D03*
X-663843Y-258508D02*
D03*
X-457839Y-213480D02*
D03*
X-450359Y-212102D02*
D03*
X-454493Y-232968D02*
D03*
X-460595Y-227654D02*
D03*
X-455084Y-240646D02*
D03*
X-129788Y-333508D02*
D03*
X-435398Y-244189D02*
D03*
Y-237102D02*
D03*
X-244572Y-324000D02*
D03*
X-193517Y-89063D02*
D03*
X-125851Y-326421D02*
D03*
X-129788D02*
D03*
X-106791Y-220122D02*
D03*
X-96521Y-237479D02*
D03*
X-95536Y-269960D02*
D03*
X-95339Y-321141D02*
D03*
X-95536Y-281771D02*
D03*
Y-300205D02*
D03*
X-102229Y-226028D02*
D03*
X-91402Y-240791D02*
D03*
X-84513Y-231933D02*
D03*
Y-220122D02*
D03*
X-217387Y-337410D02*
D03*
X-219517Y-305752D02*
D03*
X-233331Y-309689D02*
D03*
X-287879Y-314000D02*
D03*
X-253194Y-319000D02*
D03*
X-244572Y-329000D02*
D03*
X-209887D02*
D03*
X-187859Y-331343D02*
D03*
Y-311588D02*
D03*
X-199670Y-311588D02*
D03*
Y-331343D02*
D03*
X-403402Y-271929D02*
D03*
X-482564Y-163606D02*
D03*
X-79966Y-316106D02*
D03*
Y-306106D02*
D03*
X-430084Y-294925D02*
D03*
X-198516Y-89063D02*
D03*
X-203517D02*
D03*
X-126064Y-178945D02*
D03*
X-137564Y-178606D02*
D03*
X-79395Y-215437D02*
D03*
X-80064Y-326106D02*
D03*
Y-296106D02*
D03*
Y-286106D02*
D03*
Y-256106D02*
D03*
Y-246106D02*
D03*
X-67229Y-215437D02*
D03*
X-208517Y-89063D02*
D03*
X-228517D02*
D03*
X-85150Y-206106D02*
D03*
Y-196106D02*
D03*
Y-186106D02*
D03*
Y-176106D02*
D03*
Y-166106D02*
D03*
Y-146106D02*
D03*
Y-136106D02*
D03*
X-464875Y-163587D02*
D03*
X-743371Y-166382D02*
D03*
Y-169925D02*
D03*
X-743209Y-214228D02*
D03*
Y-210685D02*
D03*
Y-259228D02*
D03*
Y-255685D02*
D03*
X-692977Y-259295D02*
D03*
Y-255752D02*
D03*
X-691599Y-214807D02*
D03*
Y-211264D02*
D03*
X-642422Y-169799D02*
D03*
Y-166256D02*
D03*
X-641206Y-214807D02*
D03*
Y-211264D02*
D03*
X-539398Y-255681D02*
D03*
Y-259224D02*
D03*
X-431560Y-232327D02*
D03*
X-423292Y-235673D02*
D03*
X-649670Y-147484D02*
D03*
X-479985Y-124256D02*
D03*
X-431167Y-151816D02*
D03*
X-431166Y-146697D02*
D03*
Y-141579D02*
D03*
X-464875Y-153587D02*
D03*
Y-160143D02*
D03*
X-465024Y-146697D02*
D03*
X-465025Y-141580D02*
D03*
X-482741Y-141972D02*
D03*
D38*
X-514828Y-126028D02*
D03*
D39*
X-488863Y-98272D02*
D03*
X-653902Y-135968D02*
D03*
X-518213Y-122287D02*
D03*
X-481560Y-251421D02*
D03*
X-703213Y-300142D02*
D03*
X-734808Y-300240D02*
D03*
X-507839Y-98272D02*
D03*
X-499237Y-122287D02*
D03*
X-508725D02*
D03*
X-527702D02*
D03*
X-537190D02*
D03*
X-546678D02*
D03*
X-556166D02*
D03*
X-668272Y-111559D02*
D03*
X-659712Y-98248D02*
D03*
X-650095Y-110128D02*
D03*
X-659712Y-110060D02*
D03*
X-650164Y-98248D02*
D03*
X-494816Y-102571D02*
D03*
X-641698Y-194335D02*
D03*
X-485202Y-360083D02*
D03*
X-497013D02*
D03*
X-672406D02*
D03*
X-660595D02*
D03*
X-648784D02*
D03*
X-577721D02*
D03*
X-565910D02*
D03*
X-554099Y-312740D02*
D03*
X-559906Y-312839D02*
D03*
X-636875Y-312642D02*
D03*
X-588745Y-368350D02*
D03*
X-642485Y-303390D02*
D03*
X-651737Y-287150D02*
D03*
X-646325Y-293238D02*
D03*
X-660595Y-312642D02*
D03*
X-508824Y-360083D02*
D03*
X-477229Y-356343D02*
D03*
X-501835Y-190299D02*
D03*
X-497111Y-312740D02*
D03*
X-512761Y-316677D02*
D03*
X-465587Y-101906D02*
D03*
X-475587Y-102898D02*
D03*
X-485327Y-102571D02*
D03*
X-504304D02*
D03*
X-513792D02*
D03*
X-523280D02*
D03*
X-532768D02*
D03*
X-542257D02*
D03*
X-551745D02*
D03*
X-561233D02*
D03*
X-570721D02*
D03*
X-580209D02*
D03*
X-589698D02*
D03*
X-599186D02*
D03*
X-608674D02*
D03*
X-618162D02*
D03*
X-627650D02*
D03*
X-637139D02*
D03*
X-646627D02*
D03*
X-665603D02*
D03*
X-656115D02*
D03*
D57*
X-565611Y-109102D02*
X-560694Y-114020D01*
X-565611Y-109102D02*
Y-106791D01*
M02*
