%FSLAX42Y42*%
%MOMM*%
G71*
G01*
G75*
%ADD10R,2.15X5.50*%
%ADD11R,3.00X7.50*%
%ADD12R,3.50X3.80*%
%ADD13O,0.25X0.70*%
%ADD14O,0.70X0.25*%
%ADD15R,1.60X1.60*%
%ADD16O,0.45X1.70*%
%ADD17R,0.66X0.94*%
%ADD18R,0.00X0.00*%
%ADD19R,0.00X0.00*%
%ADD20R,0.84X0.66*%
%ADD21R,1.70X1.70*%
%ADD22O,0.85X0.28*%
%ADD23O,0.28X0.85*%
%ADD24R,1.40X1.05*%
%ADD25R,1.25X1.50*%
%ADD26R,0.85X1.30*%
%ADD27R,1.00X1.00*%
G04:AMPARAMS|DCode=28|XSize=0.24mm|YSize=0.6mm|CornerRadius=0.08mm|HoleSize=0mm|Usage=FLASHONLY|Rotation=0.000|XOffset=0mm|YOffset=0mm|HoleType=Round|Shape=RoundedRectangle|*
%AMROUNDEDRECTD28*
21,1,0.24,0.43,0,0,0.0*
21,1,0.07,0.60,0,0,0.0*
1,1,0.17,0.04,-0.22*
1,1,0.17,-0.04,-0.22*
1,1,0.17,-0.04,0.22*
1,1,0.17,0.04,0.22*
%
%ADD28ROUNDEDRECTD28*%
%ADD29R,2.40X1.65*%
%ADD30O,0.30X0.85*%
%ADD31R,1.45X1.15*%
%ADD32R,1.15X1.45*%
%ADD33R,1.55X1.35*%
%ADD34R,0.95X1.35*%
%ADD35R,1.30X0.85*%
%ADD36R,1.05X1.40*%
%ADD37R,1.50X1.25*%
%ADD38R,1.00X1.00*%
%ADD39R,0.94X0.66*%
%ADD40R,0.00X0.00*%
%ADD41R,0.00X0.00*%
%ADD42R,0.66X0.84*%
%ADD43R,1.35X0.95*%
%ADD44R,1.35X1.55*%
%ADD45C,1.00*%
%ADD46C,0.64*%
%ADD47C,0.51*%
%ADD48C,0.38*%
%ADD49C,0.43*%
%ADD50C,0.25*%
%ADD51C,0.46*%
%ADD52C,0.76*%
%ADD53R,0.85X0.20*%
%ADD54R,2.85X1.58*%
%ADD55C,2.10*%
%ADD56C,1.50*%
%ADD57R,1.50X1.50*%
%ADD58R,1.50X1.50*%
%ADD59C,7.00*%
%ADD60C,0.50*%
%ADD61C,0.46*%
%ADD62C,0.61*%
%ADD63C,1.02*%
%ADD64C,2.22*%
%ADD65C,1.92*%
%ADD66C,4.22*%
%ADD67C,1.22*%
%ADD68C,1.22*%
%ADD69C,1.32*%
%ADD70C,0.25*%
%ADD71C,0.20*%
%ADD72C,0.10*%
%ADD73C,0.20*%
%ADD74C,0.60*%
%ADD75C,0.05*%
%ADD76R,0.58X0.17*%
%ADD77R,0.46X1.70*%
%ADD78R,0.65X0.19*%
%ADD79R,0.19X0.65*%
%ADD80R,1.70X0.46*%
%ADD81R,0.17X0.58*%
D50*
X2159Y6007D02*
Y5855D01*
X2261D01*
X2413D02*
X2311D01*
X2413Y5956D01*
Y5982D01*
X2388Y6007D01*
X2337D01*
X2311Y5982D01*
X317Y4813D02*
Y4661D01*
X419D01*
X470D02*
X521D01*
X495D01*
Y4813D01*
X470Y4788D01*
X8255Y1676D02*
Y1537D01*
X8348D01*
X8395Y1676D02*
X8488D01*
Y1653D01*
X8395Y1560D01*
Y1537D01*
X8534D02*
X8581D01*
X8558D01*
Y1676D01*
X8534Y1653D01*
X2515Y4381D02*
X2642D01*
X2667Y4407D01*
Y4458D01*
X2642Y4483D01*
X2515D01*
X2667Y4635D02*
Y4534D01*
X2565Y4635D01*
X2540D01*
X2515Y4610D01*
Y4559D01*
X2540Y4534D01*
X737Y6731D02*
Y6604D01*
X762Y6579D01*
X813D01*
X838Y6604D01*
Y6731D01*
X889Y6579D02*
X940D01*
X914D01*
Y6731D01*
X889Y6706D01*
X1448Y6045D02*
Y5893D01*
X1524D01*
X1549Y5918D01*
Y6020D01*
X1524Y6045D01*
X1448D01*
X1676D02*
X1626D01*
X1600Y6020D01*
Y5918D01*
X1626Y5893D01*
X1676D01*
X1702Y5918D01*
Y6020D01*
X1676Y6045D01*
X1753D02*
Y5918D01*
X1778Y5893D01*
X1829D01*
X1854Y5918D01*
Y6045D01*
X1905D02*
X2006D01*
X1956D01*
Y5893D01*
X2261Y7344D02*
X2388D01*
X2413Y7369D01*
Y7420D01*
X2388Y7445D01*
X2261D01*
X2286Y7496D02*
X2261Y7521D01*
Y7572D01*
X2286Y7598D01*
X2312D01*
X2337Y7572D01*
Y7547D01*
Y7572D01*
X2362Y7598D01*
X2388D01*
X2413Y7572D01*
Y7521D01*
X2388Y7496D01*
X1715Y7296D02*
X1562D01*
Y7372D01*
X1588Y7397D01*
X1638D01*
X1664Y7372D01*
Y7296D01*
Y7347D02*
X1715Y7397D01*
X1588Y7550D02*
X1562Y7524D01*
Y7474D01*
X1588Y7448D01*
X1613D01*
X1638Y7474D01*
Y7524D01*
X1664Y7550D01*
X1689D01*
X1715Y7524D01*
Y7474D01*
X1689Y7448D01*
X1715Y7600D02*
Y7651D01*
Y7626D01*
X1562D01*
X1588Y7600D01*
X3569Y5461D02*
X3416D01*
Y5537D01*
X3442Y5563D01*
X3493D01*
X3518Y5537D01*
Y5461D01*
Y5512D02*
X3569Y5563D01*
Y5613D02*
Y5664D01*
Y5639D01*
X3416D01*
X3442Y5613D01*
X3416Y5842D02*
Y5740D01*
X3493D01*
X3467Y5791D01*
Y5816D01*
X3493Y5842D01*
X3543D01*
X3569Y5816D01*
Y5766D01*
X3543Y5740D01*
X3391Y3912D02*
X3239D01*
Y3988D01*
X3264Y4013D01*
X3315D01*
X3340Y3988D01*
Y3912D01*
Y3962D02*
X3391Y4013D01*
Y4166D02*
Y4064D01*
X3289Y4166D01*
X3264D01*
X3239Y4140D01*
Y4089D01*
X3264Y4064D01*
Y4216D02*
X3239Y4242D01*
Y4292D01*
X3264Y4318D01*
X3289D01*
X3315Y4292D01*
Y4267D01*
Y4292D01*
X3340Y4318D01*
X3366D01*
X3391Y4292D01*
Y4242D01*
X3366Y4216D01*
X419Y3175D02*
X368D01*
X394D01*
Y3048D01*
X368Y3023D01*
X343D01*
X317Y3048D01*
X571Y3023D02*
X470D01*
X571Y3124D01*
Y3150D01*
X546Y3175D01*
X495D01*
X470Y3150D01*
X1981Y5105D02*
X2134D01*
Y5182D01*
X2108Y5207D01*
X2007D01*
X1981Y5182D01*
Y5105D01*
X2007Y5359D02*
X1981Y5334D01*
Y5283D01*
X2007Y5258D01*
X2032D01*
X2057Y5283D01*
Y5334D01*
X2083Y5359D01*
X2108D01*
X2134Y5334D01*
Y5283D01*
X2108Y5258D01*
X2134Y5512D02*
Y5410D01*
X2032Y5512D01*
X2007D01*
X1981Y5486D01*
Y5435D01*
X2007Y5410D01*
X2197Y5105D02*
X2350D01*
Y5182D01*
X2324Y5207D01*
X2223D01*
X2197Y5182D01*
Y5105D01*
X2223Y5359D02*
X2197Y5334D01*
Y5283D01*
X2223Y5258D01*
X2248D01*
X2273Y5283D01*
Y5334D01*
X2299Y5359D01*
X2324D01*
X2350Y5334D01*
Y5283D01*
X2324Y5258D01*
X2350Y5410D02*
Y5461D01*
Y5435D01*
X2197D01*
X2223Y5410D01*
X3048Y3708D02*
Y3658D01*
Y3683D01*
X3175D01*
X3200Y3658D01*
Y3632D01*
X3175Y3607D01*
X3048Y3861D02*
Y3759D01*
X3124D01*
X3099Y3810D01*
Y3835D01*
X3124Y3861D01*
X3175D01*
X3200Y3835D01*
Y3785D01*
X3175Y3759D01*
X6617Y2375D02*
Y2258D01*
X6640Y2235D01*
X6687D01*
X6710Y2258D01*
Y2375D01*
X6756D02*
X6849D01*
Y2352D01*
X6756Y2258D01*
Y2235D01*
X6896D02*
X6943D01*
X6919D01*
Y2375D01*
X6896Y2352D01*
X3988Y3788D02*
X4115D01*
X4140Y3813D01*
Y3864D01*
X4115Y3889D01*
X3988D01*
X4140Y4016D02*
X3988D01*
X4064Y3940D01*
Y4042D01*
X1499Y8357D02*
X1473Y8382D01*
X1422D01*
X1397Y8357D01*
Y8331D01*
X1422Y8306D01*
X1473D01*
X1499Y8280D01*
Y8255D01*
X1473Y8230D01*
X1422D01*
X1397Y8255D01*
X1651Y8230D02*
X1549D01*
X1651Y8331D01*
Y8357D01*
X1626Y8382D01*
X1575D01*
X1549Y8357D01*
X5853Y1109D02*
X5829Y1086D01*
Y1039D01*
X5853Y1016D01*
X5946D01*
X5969Y1039D01*
Y1086D01*
X5946Y1109D01*
X5829Y1156D02*
Y1249D01*
X5853D01*
X5946Y1156D01*
X5969D01*
X5853Y1295D02*
X5829Y1319D01*
Y1365D01*
X5853Y1388D01*
X5876D01*
X5899Y1365D01*
X5922Y1388D01*
X5946D01*
X5969Y1365D01*
Y1319D01*
X5946Y1295D01*
X5922D01*
X5899Y1319D01*
X5876Y1295D01*
X5853D01*
X5899Y1319D02*
Y1365D01*
X381Y5563D02*
X356Y5588D01*
X305D01*
X279Y5563D01*
Y5461D01*
X305Y5436D01*
X356D01*
X381Y5461D01*
X432Y5588D02*
X483D01*
X457D01*
Y5436D01*
X432D01*
X483D01*
X559D02*
Y5588D01*
X660Y5436D01*
Y5588D01*
X2959Y8128D02*
X2934Y8153D01*
X2883D01*
X2858Y8128D01*
Y8026D01*
X2883Y8001D01*
X2934D01*
X2959Y8026D01*
X3010Y8001D02*
X3061D01*
X3035D01*
Y8153D01*
X3010Y8128D01*
X3213Y8001D02*
Y8153D01*
X3137Y8077D01*
X3238D01*
X783Y7371D02*
X758Y7396D01*
X707D01*
X681Y7371D01*
Y7269D01*
X707Y7244D01*
X758D01*
X783Y7269D01*
X935Y7396D02*
X834D01*
Y7320D01*
X885D01*
X834D01*
Y7244D01*
X1765Y6844D02*
X1740Y6870D01*
X1689D01*
X1664Y6844D01*
Y6743D01*
X1689Y6717D01*
X1740D01*
X1765Y6743D01*
X1892Y6870D02*
X1842D01*
X1816Y6844D01*
Y6743D01*
X1842Y6717D01*
X1892D01*
X1918Y6743D01*
Y6844D01*
X1892Y6870D01*
X1969D02*
Y6743D01*
X1994Y6717D01*
X2045D01*
X2070Y6743D01*
Y6870D01*
X2121D02*
X2222D01*
X2172D01*
Y6717D01*
X5118Y1460D02*
X5245D01*
X5271Y1486D01*
Y1537D01*
X5245Y1562D01*
X5118D01*
X5144Y1613D02*
X5118Y1638D01*
Y1689D01*
X5144Y1714D01*
X5169D01*
X5194Y1689D01*
X5220Y1714D01*
X5245D01*
X5271Y1689D01*
Y1638D01*
X5245Y1613D01*
X5220D01*
X5194Y1638D01*
X5169Y1613D01*
X5144D01*
X5194Y1638D02*
Y1689D01*
X5271Y1765D02*
Y1816D01*
Y1791D01*
X5118D01*
X5144Y1765D01*
X7264Y6350D02*
X7381D01*
X7404Y6373D01*
Y6420D01*
X7381Y6443D01*
X7264D01*
Y6583D02*
X7288Y6536D01*
X7334Y6490D01*
X7381D01*
X7404Y6513D01*
Y6559D01*
X7381Y6583D01*
X7358D01*
X7334Y6559D01*
Y6490D01*
X7404Y6629D02*
Y6676D01*
Y6653D01*
X7264D01*
X7288Y6629D01*
X7112Y4001D02*
X7239D01*
X7264Y4026D01*
Y4077D01*
X7239Y4102D01*
X7112D01*
Y4254D02*
Y4153D01*
X7188D01*
X7163Y4204D01*
Y4229D01*
X7188Y4254D01*
X7239D01*
X7264Y4229D01*
Y4178D01*
X7239Y4153D01*
X7264Y4305D02*
Y4356D01*
Y4331D01*
X7112D01*
X7137Y4305D01*
X5961Y447D02*
X5937Y470D01*
X5891D01*
X5867Y447D01*
Y423D01*
X5891Y400D01*
X5937D01*
X5961Y377D01*
Y353D01*
X5937Y330D01*
X5891D01*
X5867Y353D01*
X6007Y447D02*
X6030Y470D01*
X6077D01*
X6100Y447D01*
Y423D01*
X6077Y400D01*
X6100Y377D01*
Y353D01*
X6077Y330D01*
X6030D01*
X6007Y353D01*
Y377D01*
X6030Y400D01*
X6007Y423D01*
Y447D01*
X6030Y400D02*
X6077D01*
X6147Y330D02*
X6193D01*
X6170D01*
Y470D01*
X6147Y447D01*
X6871Y3950D02*
X6718D01*
Y4026D01*
X6744Y4051D01*
X6795D01*
X6820Y4026D01*
Y3950D01*
Y4000D02*
X6871Y4051D01*
X6744Y4204D02*
X6718Y4178D01*
Y4127D01*
X6744Y4102D01*
X6769D01*
X6795Y4127D01*
Y4178D01*
X6820Y4204D01*
X6845D01*
X6871Y4178D01*
Y4127D01*
X6845Y4102D01*
X6718Y4356D02*
Y4254D01*
X6795D01*
X6769Y4305D01*
Y4331D01*
X6795Y4356D01*
X6845D01*
X6871Y4331D01*
Y4280D01*
X6845Y4254D01*
X6871Y4407D02*
Y4458D01*
Y4432D01*
X6718D01*
X6744Y4407D01*
X7607Y2629D02*
X7468D01*
Y2699D01*
X7491Y2722D01*
X7537D01*
X7561Y2699D01*
Y2629D01*
Y2675D02*
X7607Y2722D01*
X7468Y2862D02*
Y2769D01*
X7537D01*
Y2815D01*
Y2769D01*
X7607D01*
X7468Y3001D02*
Y2908D01*
X7537D01*
X7514Y2955D01*
Y2978D01*
X7537Y3001D01*
X7584D01*
X7607Y2978D01*
Y2931D01*
X7584Y2908D01*
X7607Y3141D02*
Y3048D01*
X7514Y3141D01*
X7491D01*
X7468Y3118D01*
Y3071D01*
X7491Y3048D01*
X7798Y2705D02*
X7658D01*
Y2775D01*
X7681Y2798D01*
X7728D01*
X7751Y2775D01*
Y2705D01*
Y2752D02*
X7798Y2798D01*
X7658Y2938D02*
Y2845D01*
X7728D01*
Y2891D01*
Y2845D01*
X7798D01*
X7658Y3078D02*
Y2984D01*
X7728D01*
X7705Y3031D01*
Y3054D01*
X7728Y3078D01*
X7775D01*
X7798Y3054D01*
Y3008D01*
X7775Y2984D01*
X7798Y3124D02*
Y3171D01*
Y3147D01*
X7658D01*
X7681Y3124D01*
X5194Y1259D02*
Y1399D01*
X5264D01*
X5287Y1376D01*
Y1329D01*
X5264Y1306D01*
X5194D01*
X5241D02*
X5287Y1259D01*
X5334Y1376D02*
X5357Y1399D01*
X5404D01*
X5427Y1376D01*
Y1352D01*
X5404Y1329D01*
X5427Y1306D01*
Y1283D01*
X5404Y1259D01*
X5357D01*
X5334Y1283D01*
Y1306D01*
X5357Y1329D01*
X5334Y1352D01*
Y1376D01*
X5357Y1329D02*
X5404D01*
X5474Y1376D02*
X5497Y1399D01*
X5543D01*
X5567Y1376D01*
Y1352D01*
X5543Y1329D01*
X5520D01*
X5543D01*
X5567Y1306D01*
Y1283D01*
X5543Y1259D01*
X5497D01*
X5474Y1283D01*
X5613Y1473D02*
X5474D01*
Y1543D01*
X5497Y1566D01*
X5544D01*
X5567Y1543D01*
Y1473D01*
Y1520D02*
X5613Y1566D01*
X5497Y1613D02*
X5474Y1636D01*
Y1683D01*
X5497Y1706D01*
X5520D01*
X5544Y1683D01*
X5567Y1706D01*
X5590D01*
X5613Y1683D01*
Y1636D01*
X5590Y1613D01*
X5567D01*
X5544Y1636D01*
X5520Y1613D01*
X5497D01*
X5544Y1636D02*
Y1683D01*
X5613Y1753D02*
Y1799D01*
Y1776D01*
X5474D01*
X5497Y1753D01*
X4496Y1105D02*
X4356D01*
Y1175D01*
X4379Y1198D01*
X4426D01*
X4449Y1175D01*
Y1105D01*
Y1151D02*
X4496Y1198D01*
X4379Y1245D02*
X4356Y1268D01*
Y1314D01*
X4379Y1338D01*
X4403D01*
X4426Y1314D01*
X4449Y1338D01*
X4473D01*
X4496Y1314D01*
Y1268D01*
X4473Y1245D01*
X4449D01*
X4426Y1268D01*
X4403Y1245D01*
X4379D01*
X4426Y1268D02*
Y1314D01*
X4379Y1384D02*
X4356Y1407D01*
Y1454D01*
X4379Y1477D01*
X4473D01*
X4496Y1454D01*
Y1407D01*
X4473Y1384D01*
X4379D01*
X5855Y2388D02*
X5715D01*
Y2457D01*
X5738Y2481D01*
X5785D01*
X5808Y2457D01*
Y2388D01*
Y2434D02*
X5855Y2481D01*
X5715Y2527D02*
Y2620D01*
X5738D01*
X5831Y2527D01*
X5855D01*
X5715Y2760D02*
Y2667D01*
X5785D01*
X5762Y2713D01*
Y2737D01*
X5785Y2760D01*
X5831D01*
X5855Y2737D01*
Y2690D01*
X5831Y2667D01*
X6223Y1791D02*
Y1651D01*
X6153D01*
X6130Y1674D01*
Y1721D01*
X6153Y1744D01*
X6223D01*
X6176D02*
X6130Y1791D01*
X6083Y1651D02*
X5990D01*
Y1674D01*
X6083Y1767D01*
Y1791D01*
X5874D02*
Y1651D01*
X5944Y1721D01*
X5851D01*
X6236Y660D02*
Y800D01*
X6306D01*
X6329Y777D01*
Y730D01*
X6306Y707D01*
X6236D01*
X6282D02*
X6329Y660D01*
X6375Y800D02*
X6468D01*
Y777D01*
X6375Y684D01*
Y660D01*
X6515Y777D02*
X6538Y800D01*
X6585D01*
X6608Y777D01*
Y754D01*
X6585Y730D01*
X6562D01*
X6585D01*
X6608Y707D01*
Y684D01*
X6585Y660D01*
X6538D01*
X6515Y684D01*
X6515Y2223D02*
X6363D01*
Y2299D01*
X6388Y2324D01*
X6439D01*
X6464Y2299D01*
Y2223D01*
Y2273D02*
X6515Y2324D01*
X6363Y2375D02*
Y2476D01*
X6388D01*
X6490Y2375D01*
X6515D01*
Y2629D02*
Y2527D01*
X6414Y2629D01*
X6388D01*
X6363Y2603D01*
Y2553D01*
X6388Y2527D01*
X5626Y1845D02*
X5486D01*
Y1915D01*
X5510Y1938D01*
X5556D01*
X5580Y1915D01*
Y1845D01*
Y1892D02*
X5626Y1938D01*
X5486Y1985D02*
Y2078D01*
X5510D01*
X5603Y1985D01*
X5626D01*
Y2125D02*
Y2171D01*
Y2148D01*
X5486D01*
X5510Y2125D01*
X8484Y7518D02*
X8344D01*
Y7588D01*
X8367Y7612D01*
X8414D01*
X8437Y7588D01*
Y7518D01*
Y7565D02*
X8484Y7612D01*
X8344Y7751D02*
X8367Y7705D01*
X8414Y7658D01*
X8460D01*
X8484Y7681D01*
Y7728D01*
X8460Y7751D01*
X8437D01*
X8414Y7728D01*
Y7658D01*
X8460Y7798D02*
X8484Y7821D01*
Y7868D01*
X8460Y7891D01*
X8367D01*
X8344Y7868D01*
Y7821D01*
X8367Y7798D01*
X8390D01*
X8414Y7821D01*
Y7891D01*
X8280Y7518D02*
X8141D01*
Y7588D01*
X8164Y7612D01*
X8211D01*
X8234Y7588D01*
Y7518D01*
Y7565D02*
X8280Y7612D01*
X8141Y7751D02*
X8164Y7705D01*
X8211Y7658D01*
X8257D01*
X8280Y7681D01*
Y7728D01*
X8257Y7751D01*
X8234D01*
X8211Y7728D01*
Y7658D01*
X8164Y7798D02*
X8141Y7821D01*
Y7868D01*
X8164Y7891D01*
X8187D01*
X8211Y7868D01*
X8234Y7891D01*
X8257D01*
X8280Y7868D01*
Y7821D01*
X8257Y7798D01*
X8234D01*
X8211Y7821D01*
X8187Y7798D01*
X8164D01*
X8211Y7821D02*
Y7868D01*
X7760Y5499D02*
X7620D01*
Y5569D01*
X7643Y5592D01*
X7690D01*
X7713Y5569D01*
Y5499D01*
Y5546D02*
X7760Y5592D01*
X7620Y5732D02*
X7643Y5685D01*
X7690Y5639D01*
X7736D01*
X7760Y5662D01*
Y5709D01*
X7736Y5732D01*
X7713D01*
X7690Y5709D01*
Y5639D01*
X7620Y5778D02*
Y5872D01*
X7643D01*
X7736Y5778D01*
X7760D01*
X7963Y5499D02*
X7823D01*
Y5569D01*
X7847Y5592D01*
X7893D01*
X7916Y5569D01*
Y5499D01*
Y5546D02*
X7963Y5592D01*
X7823Y5732D02*
X7847Y5685D01*
X7893Y5639D01*
X7940D01*
X7963Y5662D01*
Y5709D01*
X7940Y5732D01*
X7916D01*
X7893Y5709D01*
Y5639D01*
X7823Y5872D02*
X7847Y5825D01*
X7893Y5778D01*
X7940D01*
X7963Y5802D01*
Y5848D01*
X7940Y5872D01*
X7916D01*
X7893Y5848D01*
Y5778D01*
X6718Y7429D02*
Y7569D01*
X6788D01*
X6811Y7546D01*
Y7499D01*
X6788Y7476D01*
X6718D01*
X6765D02*
X6811Y7429D01*
X6951Y7569D02*
X6905Y7546D01*
X6858Y7499D01*
Y7453D01*
X6881Y7429D01*
X6928D01*
X6951Y7453D01*
Y7476D01*
X6928Y7499D01*
X6858D01*
X6998Y7546D02*
X7021Y7569D01*
X7067D01*
X7091Y7546D01*
Y7523D01*
X7067Y7499D01*
X7044D01*
X7067D01*
X7091Y7476D01*
Y7453D01*
X7067Y7429D01*
X7021D01*
X6998Y7453D01*
X7112Y5715D02*
X6972D01*
Y5785D01*
X6996Y5808D01*
X7042D01*
X7065Y5785D01*
Y5715D01*
Y5762D02*
X7112Y5808D01*
X6972Y5948D02*
X6996Y5901D01*
X7042Y5855D01*
X7089D01*
X7112Y5878D01*
Y5924D01*
X7089Y5948D01*
X7065D01*
X7042Y5924D01*
Y5855D01*
X7112Y6087D02*
Y5994D01*
X7019Y6087D01*
X6996D01*
X6972Y6064D01*
Y6018D01*
X6996Y5994D01*
X6515Y6972D02*
Y7112D01*
X6585D01*
X6608Y7089D01*
Y7042D01*
X6585Y7019D01*
X6515D01*
X6562D02*
X6608Y6972D01*
X6748Y7112D02*
X6701Y7089D01*
X6655Y7042D01*
Y6996D01*
X6678Y6972D01*
X6725D01*
X6748Y6996D01*
Y7019D01*
X6725Y7042D01*
X6655D01*
X6794Y6972D02*
X6841D01*
X6818D01*
Y7112D01*
X6794Y7089D01*
X6464Y6121D02*
Y6261D01*
X6534D01*
X6557Y6238D01*
Y6191D01*
X6534Y6168D01*
X6464D01*
X6511D02*
X6557Y6121D01*
X6697Y6261D02*
X6651Y6238D01*
X6604Y6191D01*
Y6145D01*
X6627Y6121D01*
X6674D01*
X6697Y6145D01*
Y6168D01*
X6674Y6191D01*
X6604D01*
X6744Y6238D02*
X6767Y6261D01*
X6813D01*
X6837Y6238D01*
Y6145D01*
X6813Y6121D01*
X6767D01*
X6744Y6145D01*
Y6238D01*
X8039Y3581D02*
Y3721D01*
X8109D01*
X8132Y3698D01*
Y3651D01*
X8109Y3628D01*
X8039D01*
X8086D02*
X8132Y3581D01*
X8272Y3721D02*
X8179D01*
Y3651D01*
X8225Y3675D01*
X8249D01*
X8272Y3651D01*
Y3605D01*
X8249Y3581D01*
X8202D01*
X8179Y3605D01*
X8412Y3721D02*
X8318D01*
Y3651D01*
X8365Y3675D01*
X8388D01*
X8412Y3651D01*
Y3605D01*
X8388Y3581D01*
X8342D01*
X8318Y3605D01*
X8141Y4166D02*
Y4318D01*
X8217D01*
X8242Y4293D01*
Y4242D01*
X8217Y4216D01*
X8141D01*
X8191D02*
X8242Y4166D01*
X8395Y4318D02*
X8293D01*
Y4242D01*
X8344Y4267D01*
X8369D01*
X8395Y4242D01*
Y4191D01*
X8369Y4166D01*
X8318D01*
X8293Y4191D01*
X8522Y4166D02*
Y4318D01*
X8445Y4242D01*
X8547D01*
X8598Y3404D02*
X8458D01*
Y3473D01*
X8482Y3497D01*
X8528D01*
X8551Y3473D01*
Y3404D01*
Y3450D02*
X8598Y3497D01*
X8458Y3636D02*
Y3543D01*
X8528D01*
X8505Y3590D01*
Y3613D01*
X8528Y3636D01*
X8575D01*
X8598Y3613D01*
Y3567D01*
X8575Y3543D01*
X8482Y3683D02*
X8458Y3706D01*
Y3753D01*
X8482Y3776D01*
X8505D01*
X8528Y3753D01*
Y3729D01*
Y3753D01*
X8551Y3776D01*
X8575D01*
X8598Y3753D01*
Y3706D01*
X8575Y3683D01*
X7404Y2984D02*
X7264D01*
Y3054D01*
X7288Y3078D01*
X7334D01*
X7358Y3054D01*
Y2984D01*
Y3031D02*
X7404Y3078D01*
X7264Y3217D02*
Y3124D01*
X7334D01*
X7311Y3171D01*
Y3194D01*
X7334Y3217D01*
X7381D01*
X7404Y3194D01*
Y3147D01*
X7381Y3124D01*
X7404Y3357D02*
Y3264D01*
X7311Y3357D01*
X7288D01*
X7264Y3334D01*
Y3287D01*
X7288Y3264D01*
X6896Y3556D02*
X6744D01*
Y3632D01*
X6769Y3658D01*
X6820D01*
X6845Y3632D01*
Y3556D01*
Y3607D02*
X6896Y3658D01*
X6744Y3810D02*
Y3708D01*
X6820D01*
X6795Y3759D01*
Y3785D01*
X6820Y3810D01*
X6871D01*
X6896Y3785D01*
Y3734D01*
X6871Y3708D01*
X6896Y3861D02*
Y3911D01*
Y3886D01*
X6744D01*
X6769Y3861D01*
X8471Y5105D02*
Y4966D01*
X8564D01*
X8704Y5105D02*
X8611D01*
Y5036D01*
X8657Y5059D01*
X8680D01*
X8704Y5036D01*
Y4989D01*
X8680Y4966D01*
X8634D01*
X8611Y4989D01*
X8750Y4966D02*
X8797D01*
X8773D01*
Y5105D01*
X8750Y5082D01*
X6464Y6608D02*
Y6562D01*
Y6585D01*
X6581D01*
X6604Y6562D01*
Y6538D01*
X6581Y6515D01*
X6464Y6748D02*
X6488Y6701D01*
X6534Y6655D01*
X6581D01*
X6604Y6678D01*
Y6725D01*
X6581Y6748D01*
X6557D01*
X6534Y6725D01*
Y6655D01*
X6604Y6888D02*
Y6794D01*
X6511Y6888D01*
X6488D01*
X6464Y6864D01*
Y6818D01*
X6488Y6794D01*
X8407Y6075D02*
Y6028D01*
Y6052D01*
X8524D01*
X8547Y6028D01*
Y6005D01*
X8524Y5982D01*
X8407Y6214D02*
X8431Y6168D01*
X8477Y6121D01*
X8524D01*
X8547Y6145D01*
Y6191D01*
X8524Y6214D01*
X8501D01*
X8477Y6191D01*
Y6121D01*
X8547Y6261D02*
Y6308D01*
Y6284D01*
X8407D01*
X8431Y6261D01*
X4839Y7734D02*
X4788D01*
X4813D01*
Y7607D01*
X4788Y7582D01*
X4762D01*
X4737Y7607D01*
X4991Y7734D02*
X4889D01*
Y7658D01*
X4940Y7683D01*
X4966D01*
X4991Y7658D01*
Y7607D01*
X4966Y7582D01*
X4915D01*
X4889Y7607D01*
X5143Y7582D02*
X5042D01*
X5143Y7683D01*
Y7709D01*
X5118Y7734D01*
X5067D01*
X5042Y7709D01*
X5969Y2743D02*
X6109D01*
Y2813D01*
X6085Y2836D01*
X5992D01*
X5969Y2813D01*
Y2743D01*
X5992Y2976D02*
X5969Y2953D01*
Y2906D01*
X5992Y2883D01*
X6016D01*
X6039Y2906D01*
Y2953D01*
X6062Y2976D01*
X6085D01*
X6109Y2953D01*
Y2906D01*
X6085Y2883D01*
X5969Y3023D02*
Y3116D01*
X5992D01*
X6085Y3023D01*
X6109D01*
Y3162D02*
Y3209D01*
Y3185D01*
X5969D01*
X5992Y3162D01*
X7417Y5423D02*
X7557D01*
Y5493D01*
X7533Y5516D01*
X7440D01*
X7417Y5493D01*
Y5423D01*
X7440Y5656D02*
X7417Y5632D01*
Y5586D01*
X7440Y5563D01*
X7463D01*
X7487Y5586D01*
Y5632D01*
X7510Y5656D01*
X7533D01*
X7557Y5632D01*
Y5586D01*
X7533Y5563D01*
X7417Y5795D02*
X7440Y5749D01*
X7487Y5702D01*
X7533D01*
X7557Y5725D01*
Y5772D01*
X7533Y5795D01*
X7510D01*
X7487Y5772D01*
Y5702D01*
X7557Y5935D02*
Y5842D01*
X7463Y5935D01*
X7440D01*
X7417Y5912D01*
Y5865D01*
X7440Y5842D01*
X8014Y5436D02*
X8153D01*
Y5505D01*
X8130Y5529D01*
X8037D01*
X8014Y5505D01*
Y5436D01*
X8037Y5668D02*
X8014Y5645D01*
Y5599D01*
X8037Y5575D01*
X8060D01*
X8084Y5599D01*
Y5645D01*
X8107Y5668D01*
X8130D01*
X8153Y5645D01*
Y5599D01*
X8130Y5575D01*
X8014Y5808D02*
X8037Y5761D01*
X8084Y5715D01*
X8130D01*
X8153Y5738D01*
Y5785D01*
X8130Y5808D01*
X8107D01*
X8084Y5785D01*
Y5715D01*
X8153Y5855D02*
Y5901D01*
Y5878D01*
X8014D01*
X8037Y5855D01*
X8382Y2692D02*
X8522D01*
Y2762D01*
X8498Y2786D01*
X8405D01*
X8382Y2762D01*
Y2692D01*
Y2925D02*
Y2832D01*
X8452D01*
X8429Y2879D01*
Y2902D01*
X8452Y2925D01*
X8498D01*
X8522Y2902D01*
Y2855D01*
X8498Y2832D01*
X8382Y3042D02*
Y2995D01*
X8405Y2972D01*
X8498D01*
X8522Y2995D01*
Y3042D01*
X8498Y3065D01*
X8405D01*
X8382Y3042D01*
Y3111D02*
X8498D01*
X8522Y3135D01*
Y3181D01*
X8498Y3204D01*
X8382D01*
Y3251D02*
Y3344D01*
Y3298D01*
X8522D01*
X4686Y546D02*
X4661Y521D01*
Y470D01*
X4686Y445D01*
X4788D01*
X4813Y470D01*
Y521D01*
X4788Y546D01*
X4686Y597D02*
X4661Y622D01*
Y673D01*
X4686Y698D01*
X4712D01*
X4737Y673D01*
X4763Y698D01*
X4788D01*
X4813Y673D01*
Y622D01*
X4788Y597D01*
X4763D01*
X4737Y622D01*
X4712Y597D01*
X4686D01*
X4737Y622D02*
Y673D01*
X4813Y825D02*
X4661D01*
X4737Y749D01*
Y851D01*
X4125Y747D02*
X4102Y724D01*
Y677D01*
X4125Y654D01*
X4218D01*
X4242Y677D01*
Y724D01*
X4218Y747D01*
X4125Y794D02*
X4102Y817D01*
Y863D01*
X4125Y887D01*
X4148D01*
X4172Y863D01*
X4195Y887D01*
X4218D01*
X4242Y863D01*
Y817D01*
X4218Y794D01*
X4195D01*
X4172Y817D01*
X4148Y794D01*
X4125D01*
X4172Y817D02*
Y863D01*
X4125Y933D02*
X4102Y957D01*
Y1003D01*
X4125Y1026D01*
X4148D01*
X4172Y1003D01*
Y980D01*
Y1003D01*
X4195Y1026D01*
X4218D01*
X4242Y1003D01*
Y957D01*
X4218Y933D01*
X4545Y1541D02*
X4521Y1518D01*
Y1471D01*
X4545Y1448D01*
X4638D01*
X4661Y1471D01*
Y1518D01*
X4638Y1541D01*
X4545Y1587D02*
X4521Y1611D01*
Y1657D01*
X4545Y1681D01*
X4568D01*
X4591Y1657D01*
X4614Y1681D01*
X4638D01*
X4661Y1657D01*
Y1611D01*
X4638Y1587D01*
X4614D01*
X4591Y1611D01*
X4568Y1587D01*
X4545D01*
X4591Y1611D02*
Y1657D01*
X4661Y1820D02*
Y1727D01*
X4568Y1820D01*
X4545D01*
X4521Y1797D01*
Y1750D01*
X4545Y1727D01*
X4830Y2110D02*
X4807Y2134D01*
X4760D01*
X4737Y2110D01*
Y2017D01*
X4760Y1994D01*
X4807D01*
X4830Y2017D01*
X4877Y2110D02*
X4900Y2134D01*
X4947D01*
X4970Y2110D01*
Y2087D01*
X4947Y2064D01*
X4970Y2040D01*
Y2017D01*
X4947Y1994D01*
X4900D01*
X4877Y2017D01*
Y2040D01*
X4900Y2064D01*
X4877Y2087D01*
Y2110D01*
X4900Y2064D02*
X4947D01*
X5016Y1994D02*
X5063D01*
X5040D01*
Y2134D01*
X5016Y2110D01*
X6373Y1414D02*
X6350Y1391D01*
Y1344D01*
X6373Y1321D01*
X6466D01*
X6490Y1344D01*
Y1391D01*
X6466Y1414D01*
X6350Y1460D02*
Y1554D01*
X6373D01*
X6466Y1460D01*
X6490D01*
X6350Y1600D02*
Y1693D01*
X6373D01*
X6466Y1600D01*
X6490D01*
X6951Y1310D02*
X6928Y1333D01*
X6881D01*
X6858Y1310D01*
Y1217D01*
X6881Y1194D01*
X6928D01*
X6951Y1217D01*
X6998Y1333D02*
X7091D01*
Y1310D01*
X6998Y1217D01*
Y1194D01*
X7230Y1333D02*
X7184Y1310D01*
X7137Y1264D01*
Y1217D01*
X7161Y1194D01*
X7207D01*
X7230Y1217D01*
Y1240D01*
X7207Y1264D01*
X7137D01*
X6951Y1107D02*
X6928Y1130D01*
X6881D01*
X6858Y1107D01*
Y1014D01*
X6881Y991D01*
X6928D01*
X6951Y1014D01*
X6998Y1130D02*
X7091D01*
Y1107D01*
X6998Y1014D01*
Y991D01*
X7230Y1130D02*
X7137D01*
Y1060D01*
X7184Y1084D01*
X7207D01*
X7230Y1060D01*
Y1014D01*
X7207Y991D01*
X7161D01*
X7137Y1014D01*
X6951Y904D02*
X6928Y927D01*
X6881D01*
X6858Y904D01*
Y811D01*
X6881Y787D01*
X6928D01*
X6951Y811D01*
X6998Y927D02*
X7091D01*
Y904D01*
X6998Y811D01*
Y787D01*
X7207D02*
Y927D01*
X7137Y857D01*
X7230D01*
X6665Y2938D02*
X6642Y2915D01*
Y2868D01*
X6665Y2845D01*
X6759D01*
X6782Y2868D01*
Y2915D01*
X6759Y2938D01*
X6642Y2984D02*
Y3078D01*
X6665D01*
X6759Y2984D01*
X6782D01*
X6665Y3124D02*
X6642Y3147D01*
Y3194D01*
X6665Y3217D01*
X6689D01*
X6712Y3194D01*
Y3171D01*
Y3194D01*
X6735Y3217D01*
X6759D01*
X6782Y3194D01*
Y3147D01*
X6759Y3124D01*
X6041Y1497D02*
X6064Y1473D01*
X6111D01*
X6134Y1497D01*
Y1590D01*
X6111Y1613D01*
X6064D01*
X6041Y1590D01*
X5994Y1473D02*
X5901D01*
Y1497D01*
X5994Y1590D01*
Y1613D01*
X5855D02*
X5808D01*
X5832D01*
Y1473D01*
X5855Y1497D01*
X7783Y7358D02*
X7760Y7334D01*
Y7288D01*
X7783Y7264D01*
X7876D01*
X7899Y7288D01*
Y7334D01*
X7876Y7358D01*
X7760Y7497D02*
X7783Y7451D01*
X7830Y7404D01*
X7876D01*
X7899Y7427D01*
Y7474D01*
X7876Y7497D01*
X7853D01*
X7830Y7474D01*
Y7404D01*
X7876Y7544D02*
X7899Y7567D01*
Y7614D01*
X7876Y7637D01*
X7783D01*
X7760Y7614D01*
Y7567D01*
X7783Y7544D01*
X7806D01*
X7830Y7567D01*
Y7637D01*
X7212Y7485D02*
X7188Y7461D01*
Y7415D01*
X7212Y7391D01*
X7305D01*
X7328Y7415D01*
Y7461D01*
X7305Y7485D01*
X7188Y7624D02*
X7212Y7578D01*
X7258Y7531D01*
X7305D01*
X7328Y7554D01*
Y7601D01*
X7305Y7624D01*
X7281D01*
X7258Y7601D01*
Y7531D01*
X7212Y7671D02*
X7188Y7694D01*
Y7741D01*
X7212Y7764D01*
X7235D01*
X7258Y7741D01*
X7281Y7764D01*
X7305D01*
X7328Y7741D01*
Y7694D01*
X7305Y7671D01*
X7281D01*
X7258Y7694D01*
X7235Y7671D01*
X7212D01*
X7258Y7694D02*
Y7741D01*
X8240Y5872D02*
X8217Y5848D01*
Y5802D01*
X8240Y5778D01*
X8333D01*
X8357Y5802D01*
Y5848D01*
X8333Y5872D01*
X8217Y6011D02*
X8240Y5965D01*
X8287Y5918D01*
X8333D01*
X8357Y5941D01*
Y5988D01*
X8333Y6011D01*
X8310D01*
X8287Y5988D01*
Y5918D01*
X8217Y6058D02*
Y6151D01*
X8240D01*
X8333Y6058D01*
X8357D01*
X7214Y5690D02*
X7188Y5664D01*
Y5613D01*
X7214Y5588D01*
X7315D01*
X7341Y5613D01*
Y5664D01*
X7315Y5690D01*
X7188Y5842D02*
X7214Y5791D01*
X7264Y5740D01*
X7315D01*
X7341Y5766D01*
Y5817D01*
X7315Y5842D01*
X7290D01*
X7264Y5817D01*
Y5740D01*
X7188Y5994D02*
X7214Y5943D01*
X7264Y5893D01*
X7315D01*
X7341Y5918D01*
Y5969D01*
X7315Y5994D01*
X7290D01*
X7264Y5969D01*
Y5893D01*
X7866Y4485D02*
X7842Y4508D01*
X7796D01*
X7772Y4485D01*
Y4392D01*
X7796Y4369D01*
X7842D01*
X7866Y4392D01*
X8005Y4508D02*
X7912D01*
Y4439D01*
X7959Y4462D01*
X7982D01*
X8005Y4439D01*
Y4392D01*
X7982Y4369D01*
X7935D01*
X7912Y4392D01*
X8122Y4369D02*
Y4508D01*
X8052Y4439D01*
X8145D01*
X6985Y3429D02*
X6960Y3404D01*
Y3353D01*
X6985Y3327D01*
X7087D01*
X7112Y3353D01*
Y3404D01*
X7087Y3429D01*
X6960Y3581D02*
Y3480D01*
X7036D01*
X7010Y3531D01*
Y3556D01*
X7036Y3581D01*
X7087D01*
X7112Y3556D01*
Y3505D01*
X7087Y3480D01*
X7112Y3734D02*
Y3632D01*
X7010Y3734D01*
X6985D01*
X6960Y3708D01*
Y3657D01*
X6985Y3632D01*
X7288Y4676D02*
X7264Y4653D01*
Y4606D01*
X7288Y4583D01*
X7381D01*
X7404Y4606D01*
Y4653D01*
X7381Y4676D01*
X7264Y4815D02*
Y4722D01*
X7334D01*
X7311Y4769D01*
Y4792D01*
X7334Y4815D01*
X7381D01*
X7404Y4792D01*
Y4746D01*
X7381Y4722D01*
X7264Y4932D02*
Y4885D01*
X7288Y4862D01*
X7381D01*
X7404Y4885D01*
Y4932D01*
X7381Y4955D01*
X7288D01*
X7264Y4932D01*
Y5002D02*
X7381D01*
X7404Y5025D01*
Y5071D01*
X7381Y5095D01*
X7264D01*
Y5141D02*
Y5234D01*
Y5188D01*
X7404D01*
X8596Y3903D02*
X8573Y3880D01*
Y3833D01*
X8596Y3810D01*
X8689D01*
X8712Y3833D01*
Y3880D01*
X8689Y3903D01*
X8573Y4043D02*
Y3950D01*
X8642D01*
X8619Y3996D01*
Y4019D01*
X8642Y4043D01*
X8689D01*
X8712Y4019D01*
Y3973D01*
X8689Y3950D01*
X8573Y4089D02*
Y4136D01*
Y4113D01*
X8712D01*
Y4089D01*
Y4136D01*
Y4206D02*
X8573D01*
X8712Y4299D01*
X8573D01*
X7872Y3446D02*
X7849Y3423D01*
Y3376D01*
X7872Y3353D01*
X7965D01*
X7988Y3376D01*
Y3423D01*
X7965Y3446D01*
X7849Y3586D02*
Y3492D01*
X7918D01*
X7895Y3539D01*
Y3562D01*
X7918Y3586D01*
X7965D01*
X7988Y3562D01*
Y3516D01*
X7965Y3492D01*
X7849Y3725D02*
Y3632D01*
X7918D01*
Y3679D01*
Y3632D01*
X7988D01*
X1550Y5346D02*
X1524Y5320D01*
Y5270D01*
X1550Y5244D01*
X1651D01*
X1676Y5270D01*
Y5320D01*
X1651Y5346D01*
X1676Y5498D02*
Y5397D01*
X1575Y5498D01*
X1550D01*
X1524Y5473D01*
Y5422D01*
X1550Y5397D01*
X775Y5512D02*
X749Y5486D01*
Y5436D01*
X775Y5410D01*
X876D01*
X902Y5436D01*
Y5486D01*
X876Y5512D01*
X902Y5639D02*
X749D01*
X826Y5563D01*
Y5664D01*
X2564Y8207D02*
X2538Y8232D01*
X2487D01*
X2462Y8207D01*
Y8105D01*
X2487Y8080D01*
X2538D01*
X2564Y8105D01*
X2716Y8232D02*
X2665Y8207D01*
X2614Y8156D01*
Y8105D01*
X2640Y8080D01*
X2691D01*
X2716Y8105D01*
Y8131D01*
X2691Y8156D01*
X2614D01*
X1397Y4448D02*
X1372Y4423D01*
Y4372D01*
X1397Y4346D01*
X1499D01*
X1524Y4372D01*
Y4423D01*
X1499Y4448D01*
X1372Y4499D02*
Y4600D01*
X1397D01*
X1499Y4499D01*
X1524D01*
X1714Y3416D02*
X1689Y3442D01*
X1638D01*
X1613Y3416D01*
Y3315D01*
X1638Y3289D01*
X1689D01*
X1714Y3315D01*
X1765Y3416D02*
X1791Y3442D01*
X1841D01*
X1867Y3416D01*
Y3391D01*
X1841Y3365D01*
X1867Y3340D01*
Y3315D01*
X1841Y3289D01*
X1791D01*
X1765Y3315D01*
Y3340D01*
X1791Y3365D01*
X1765Y3391D01*
Y3416D01*
X1791Y3365D02*
X1841D01*
X2134Y3175D02*
X2108Y3150D01*
Y3099D01*
X2134Y3073D01*
X2235D01*
X2261Y3099D01*
Y3150D01*
X2235Y3175D01*
Y3226D02*
X2261Y3251D01*
Y3302D01*
X2235Y3327D01*
X2134D01*
X2108Y3302D01*
Y3251D01*
X2134Y3226D01*
X2159D01*
X2184Y3251D01*
Y3327D01*
X2934Y6439D02*
X2908Y6413D01*
Y6363D01*
X2934Y6337D01*
X3035D01*
X3061Y6363D01*
Y6413D01*
X3035Y6439D01*
X3061Y6490D02*
Y6540D01*
Y6515D01*
X2908D01*
X2934Y6490D01*
Y6617D02*
X2908Y6642D01*
Y6693D01*
X2934Y6718D01*
X3035D01*
X3061Y6693D01*
Y6642D01*
X3035Y6617D01*
X2934D01*
X2286Y6833D02*
X2261Y6807D01*
Y6756D01*
X2286Y6731D01*
X2388D01*
X2413Y6756D01*
Y6807D01*
X2388Y6833D01*
X2413Y6883D02*
Y6934D01*
Y6909D01*
X2261D01*
X2286Y6883D01*
X2413Y7010D02*
Y7061D01*
Y7036D01*
X2261D01*
X2286Y7010D01*
X2286Y6340D02*
X2261Y6315D01*
Y6264D01*
X2286Y6239D01*
X2388D01*
X2413Y6264D01*
Y6315D01*
X2388Y6340D01*
X2413Y6391D02*
Y6442D01*
Y6416D01*
X2261D01*
X2286Y6391D01*
X2413Y6620D02*
Y6518D01*
X2312Y6620D01*
X2286D01*
X2261Y6594D01*
Y6543D01*
X2286Y6518D01*
X3378Y5016D02*
X3353Y4991D01*
Y4940D01*
X3378Y4915D01*
X3480D01*
X3505Y4940D01*
Y4991D01*
X3480Y5016D01*
X3505Y5067D02*
Y5118D01*
Y5093D01*
X3353D01*
X3378Y5067D01*
Y5194D02*
X3353Y5220D01*
Y5270D01*
X3378Y5296D01*
X3404D01*
X3429Y5270D01*
Y5245D01*
Y5270D01*
X3454Y5296D01*
X3480D01*
X3505Y5270D01*
Y5220D01*
X3480Y5194D01*
X2870Y5283D02*
X2845Y5258D01*
Y5207D01*
X2870Y5182D01*
X2972D01*
X2997Y5207D01*
Y5258D01*
X2972Y5283D01*
X2997Y5334D02*
Y5385D01*
Y5359D01*
X2845D01*
X2870Y5334D01*
X2845Y5562D02*
Y5461D01*
X2921D01*
X2896Y5512D01*
Y5537D01*
X2921Y5562D01*
X2972D01*
X2997Y5537D01*
Y5486D01*
X2972Y5461D01*
X3580Y2957D02*
X3555Y2982D01*
X3504D01*
X3479Y2957D01*
Y2855D01*
X3504Y2830D01*
X3555D01*
X3580Y2855D01*
X3733Y2830D02*
X3631D01*
X3733Y2932D01*
Y2957D01*
X3707Y2982D01*
X3656D01*
X3631Y2957D01*
X3783Y2830D02*
X3834D01*
X3809D01*
Y2982D01*
X3783Y2957D01*
X3581Y3416D02*
X3556Y3442D01*
X3505D01*
X3480Y3416D01*
Y3315D01*
X3505Y3289D01*
X3556D01*
X3581Y3315D01*
X3734Y3289D02*
X3632D01*
X3734Y3391D01*
Y3416D01*
X3708Y3442D01*
X3658D01*
X3632Y3416D01*
X3886Y3289D02*
X3785D01*
X3886Y3391D01*
Y3416D01*
X3861Y3442D01*
X3810D01*
X3785Y3416D01*
X4139Y4913D02*
X4114Y4938D01*
X4063D01*
X4037Y4913D01*
Y4811D01*
X4063Y4786D01*
X4114D01*
X4139Y4811D01*
X4291Y4786D02*
X4190D01*
X4291Y4887D01*
Y4913D01*
X4266Y4938D01*
X4215D01*
X4190Y4913D01*
X4342D02*
X4368Y4938D01*
X4418D01*
X4444Y4913D01*
Y4887D01*
X4418Y4862D01*
X4393D01*
X4418D01*
X4444Y4837D01*
Y4811D01*
X4418Y4786D01*
X4368D01*
X4342Y4811D01*
X4267Y4191D02*
X4242Y4216D01*
X4191D01*
X4166Y4191D01*
Y4089D01*
X4191Y4064D01*
X4242D01*
X4267Y4089D01*
X4420Y4064D02*
X4318D01*
X4420Y4166D01*
Y4191D01*
X4394Y4216D01*
X4343D01*
X4318Y4191D01*
X4546Y4064D02*
Y4216D01*
X4470Y4140D01*
X4572D01*
X1194Y4216D02*
X1143D01*
X1168D01*
Y4089D01*
X1143Y4064D01*
X1118D01*
X1092Y4089D01*
X1245Y4064D02*
X1295D01*
X1270D01*
Y4216D01*
X1245Y4191D01*
X1397Y6350D02*
Y6502D01*
X1473D01*
X1499Y6477D01*
Y6426D01*
X1473Y6401D01*
X1397D01*
X1448D02*
X1499Y6350D01*
X1549D02*
X1600D01*
X1575D01*
Y6502D01*
X1549Y6477D01*
X2057Y5574D02*
X1905D01*
Y5651D01*
X1931Y5676D01*
X1981D01*
X2007Y5651D01*
Y5574D01*
Y5625D02*
X2057Y5676D01*
Y5828D02*
Y5727D01*
X1956Y5828D01*
X1931D01*
X1905Y5803D01*
Y5752D01*
X1931Y5727D01*
X394Y6096D02*
Y6248D01*
X470D01*
X495Y6223D01*
Y6172D01*
X470Y6147D01*
X394D01*
X444D02*
X495Y6096D01*
X546Y6223D02*
X571Y6248D01*
X622D01*
X648Y6223D01*
Y6198D01*
X622Y6172D01*
X597D01*
X622D01*
X648Y6147D01*
Y6121D01*
X622Y6096D01*
X571D01*
X546Y6121D01*
X1118Y5422D02*
X965D01*
Y5498D01*
X991Y5524D01*
X1042D01*
X1067Y5498D01*
Y5422D01*
Y5473D02*
X1118Y5524D01*
Y5651D02*
X965D01*
X1042Y5574D01*
Y5676D01*
X483Y6363D02*
Y6515D01*
X559D01*
X584Y6490D01*
Y6439D01*
X559Y6413D01*
X483D01*
X533D02*
X584Y6363D01*
X737Y6515D02*
X635D01*
Y6439D01*
X686Y6464D01*
X711D01*
X737Y6439D01*
Y6388D01*
X711Y6363D01*
X660D01*
X635Y6388D01*
X2603Y5296D02*
X2451D01*
Y5372D01*
X2477Y5397D01*
X2527D01*
X2553Y5372D01*
Y5296D01*
Y5347D02*
X2603Y5397D01*
X2451Y5550D02*
X2477Y5499D01*
X2527Y5448D01*
X2578D01*
X2603Y5474D01*
Y5524D01*
X2578Y5550D01*
X2553D01*
X2527Y5524D01*
Y5448D01*
X2921Y4915D02*
X2769D01*
Y4991D01*
X2794Y5016D01*
X2845D01*
X2870Y4991D01*
Y4915D01*
Y4966D02*
X2921Y5016D01*
X2769Y5067D02*
Y5169D01*
X2794D01*
X2896Y5067D01*
X2921D01*
X1397Y3073D02*
Y3226D01*
X1473D01*
X1499Y3200D01*
Y3150D01*
X1473Y3124D01*
X1397D01*
X1448D02*
X1499Y3073D01*
X1549Y3200D02*
X1575Y3226D01*
X1626D01*
X1651Y3200D01*
Y3175D01*
X1626Y3150D01*
X1651Y3124D01*
Y3099D01*
X1626Y3073D01*
X1575D01*
X1549Y3099D01*
Y3124D01*
X1575Y3150D01*
X1549Y3175D01*
Y3200D01*
X1575Y3150D02*
X1626D01*
X1295Y3543D02*
Y3696D01*
X1372D01*
X1397Y3670D01*
Y3619D01*
X1372Y3594D01*
X1295D01*
X1346D02*
X1397Y3543D01*
X1448Y3569D02*
X1473Y3543D01*
X1524D01*
X1549Y3569D01*
Y3670D01*
X1524Y3696D01*
X1473D01*
X1448Y3670D01*
Y3645D01*
X1473Y3619D01*
X1549D01*
X2565Y3061D02*
X2413D01*
Y3137D01*
X2438Y3162D01*
X2489D01*
X2515Y3137D01*
Y3061D01*
Y3111D02*
X2565Y3162D01*
Y3213D02*
Y3264D01*
Y3238D01*
X2413D01*
X2438Y3213D01*
Y3340D02*
X2413Y3365D01*
Y3416D01*
X2438Y3442D01*
X2540D01*
X2565Y3416D01*
Y3365D01*
X2540Y3340D01*
X2438D01*
X2794Y3061D02*
X2642D01*
Y3137D01*
X2667Y3162D01*
X2718D01*
X2743Y3137D01*
Y3061D01*
Y3111D02*
X2794Y3162D01*
Y3213D02*
Y3264D01*
Y3238D01*
X2642D01*
X2667Y3213D01*
X2794Y3442D02*
Y3340D01*
X2692Y3442D01*
X2667D01*
X2642Y3416D01*
Y3365D01*
X2667Y3340D01*
X3023Y3048D02*
X2870D01*
Y3124D01*
X2896Y3150D01*
X2946D01*
X2972Y3124D01*
Y3048D01*
Y3099D02*
X3023Y3150D01*
Y3200D02*
Y3251D01*
Y3226D01*
X2870D01*
X2896Y3200D01*
Y3327D02*
X2870Y3353D01*
Y3403D01*
X2896Y3429D01*
X2921D01*
X2946Y3403D01*
Y3378D01*
Y3403D01*
X2972Y3429D01*
X2997D01*
X3023Y3403D01*
Y3353D01*
X2997Y3327D01*
X3023Y4508D02*
X2870D01*
Y4585D01*
X2896Y4610D01*
X2946D01*
X2972Y4585D01*
Y4508D01*
Y4559D02*
X3023Y4610D01*
Y4661D02*
Y4712D01*
Y4686D01*
X2870D01*
X2896Y4661D01*
X3023Y4864D02*
X2870D01*
X2946Y4788D01*
Y4889D01*
X3416Y7468D02*
X3264D01*
Y7544D01*
X3289Y7569D01*
X3340D01*
X3366Y7544D01*
Y7468D01*
Y7518D02*
X3416Y7569D01*
Y7620D02*
Y7671D01*
Y7645D01*
X3264D01*
X3289Y7620D01*
X3264Y7848D02*
X3289Y7798D01*
X3340Y7747D01*
X3391D01*
X3416Y7772D01*
Y7823D01*
X3391Y7848D01*
X3366D01*
X3340Y7823D01*
Y7747D01*
X1816Y7226D02*
Y7379D01*
X1892D01*
X1918Y7353D01*
Y7302D01*
X1892Y7277D01*
X1816D01*
X1867D02*
X1918Y7226D01*
X1968D02*
X2019D01*
X1994D01*
Y7379D01*
X1968Y7353D01*
X2095Y7379D02*
X2197D01*
Y7353D01*
X2095Y7252D01*
Y7226D01*
X3378Y6632D02*
X3226D01*
Y6709D01*
X3251Y6734D01*
X3302D01*
X3328Y6709D01*
Y6632D01*
Y6683D02*
X3378Y6734D01*
Y6785D02*
Y6836D01*
Y6810D01*
X3226D01*
X3251Y6785D01*
Y6912D02*
X3226Y6937D01*
Y6988D01*
X3251Y7013D01*
X3277D01*
X3302Y6988D01*
X3328Y7013D01*
X3353D01*
X3378Y6988D01*
Y6937D01*
X3353Y6912D01*
X3328D01*
X3302Y6937D01*
X3277Y6912D01*
X3251D01*
X3302Y6937D02*
Y6988D01*
X4077Y3061D02*
X3924D01*
Y3137D01*
X3950Y3162D01*
X4001D01*
X4026Y3137D01*
Y3061D01*
Y3111D02*
X4077Y3162D01*
Y3315D02*
Y3213D01*
X3975Y3315D01*
X3950D01*
X3924Y3289D01*
Y3238D01*
X3950Y3213D01*
Y3365D02*
X3924Y3391D01*
Y3442D01*
X3950Y3467D01*
X4051D01*
X4077Y3442D01*
Y3391D01*
X4051Y3365D01*
X3950D01*
X3404Y3340D02*
X3251D01*
Y3416D01*
X3277Y3442D01*
X3327D01*
X3353Y3416D01*
Y3340D01*
Y3391D02*
X3404Y3442D01*
Y3594D02*
Y3492D01*
X3302Y3594D01*
X3277D01*
X3251Y3569D01*
Y3518D01*
X3277Y3492D01*
X3404Y3645D02*
Y3696D01*
Y3670D01*
X3251D01*
X3277Y3645D01*
X1130Y7429D02*
Y7582D01*
X1206D01*
X1232Y7556D01*
Y7506D01*
X1206Y7480D01*
X1130D01*
X1181D02*
X1232Y7429D01*
X1384Y7582D02*
X1283D01*
Y7506D01*
X1333D01*
X1283D01*
Y7429D01*
X1435D02*
X1486D01*
X1460D01*
Y7582D01*
X1435Y7556D01*
X1067Y6896D02*
X914D01*
Y6972D01*
X940Y6998D01*
X991D01*
X1016Y6972D01*
Y6896D01*
Y6947D02*
X1067Y6998D01*
X914Y7150D02*
Y7048D01*
X991D01*
Y7099D01*
Y7048D01*
X1067D01*
Y7302D02*
Y7201D01*
X965Y7302D01*
X940D01*
X914Y7277D01*
Y7226D01*
X940Y7201D01*
X3632Y5032D02*
X3607Y5007D01*
Y4956D01*
X3632Y4931D01*
X3658D01*
X3683Y4956D01*
Y5007D01*
X3709Y5032D01*
X3734D01*
X3759Y5007D01*
Y4956D01*
X3734Y4931D01*
X3759Y5083D02*
Y5134D01*
Y5108D01*
X3607D01*
X3632Y5083D01*
X4540Y5702D02*
X4515Y5728D01*
X4464D01*
X4439Y5702D01*
Y5677D01*
X4464Y5652D01*
X4515D01*
X4540Y5626D01*
Y5601D01*
X4515Y5576D01*
X4464D01*
X4439Y5601D01*
X4591Y5525D02*
Y5677D01*
X4667D01*
X4692Y5652D01*
Y5601D01*
X4667Y5576D01*
X4591D01*
X4769Y5677D02*
X4819D01*
X4845Y5652D01*
Y5576D01*
X4769D01*
X4743Y5601D01*
X4769Y5626D01*
X4845D01*
X4997Y5677D02*
X4921D01*
X4896Y5652D01*
Y5601D01*
X4921Y5576D01*
X4997D01*
X5124D02*
X5073D01*
X5048Y5601D01*
Y5652D01*
X5073Y5677D01*
X5124D01*
X5149Y5652D01*
Y5626D01*
X5048D01*
X5454Y5702D02*
X5429Y5728D01*
X5378D01*
X5353Y5702D01*
Y5677D01*
X5378Y5652D01*
X5429D01*
X5454Y5626D01*
Y5601D01*
X5429Y5576D01*
X5378D01*
X5353Y5601D01*
X5505Y5677D02*
Y5601D01*
X5530Y5576D01*
X5607D01*
Y5550D01*
X5581Y5525D01*
X5556D01*
X5607Y5576D02*
Y5677D01*
X5657Y5576D02*
X5734D01*
X5759Y5601D01*
X5734Y5626D01*
X5683D01*
X5657Y5652D01*
X5683Y5677D01*
X5759D01*
X5835Y5702D02*
Y5677D01*
X5810D01*
X5860D01*
X5835D01*
Y5601D01*
X5860Y5576D01*
X6013D02*
X5962D01*
X5937Y5601D01*
Y5652D01*
X5962Y5677D01*
X6013D01*
X6038Y5652D01*
Y5626D01*
X5937D01*
X6089Y5576D02*
Y5677D01*
X6114D01*
X6140Y5652D01*
Y5576D01*
Y5652D01*
X6165Y5677D01*
X6191Y5652D01*
Y5576D01*
X6241D02*
X6318D01*
X6343Y5601D01*
X6318Y5626D01*
X6267D01*
X6241Y5652D01*
X6267Y5677D01*
X6343D01*
X4750Y5461D02*
X4648D01*
Y5309D01*
X4750D01*
X4648Y5385D02*
X4699D01*
X4801Y5309D02*
Y5461D01*
X4877D01*
X4902Y5436D01*
Y5385D01*
X4877Y5359D01*
X4801D01*
X5054Y5436D02*
X5029Y5461D01*
X4978D01*
X4953Y5436D01*
Y5410D01*
X4978Y5385D01*
X5029D01*
X5054Y5359D01*
Y5334D01*
X5029Y5309D01*
X4978D01*
X4953Y5334D01*
X5258Y5309D02*
Y5461D01*
X5334D01*
X5359Y5436D01*
Y5385D01*
X5334Y5359D01*
X5258D01*
X5410Y5461D02*
Y5309D01*
Y5385D01*
X5435Y5410D01*
X5486D01*
X5512Y5385D01*
Y5309D01*
X5588Y5410D02*
X5638D01*
X5664Y5385D01*
Y5309D01*
X5588D01*
X5562Y5334D01*
X5588Y5359D01*
X5664D01*
X5715Y5309D02*
X5791D01*
X5816Y5334D01*
X5791Y5359D01*
X5740D01*
X5715Y5385D01*
X5740Y5410D01*
X5816D01*
X5943Y5309D02*
X5892D01*
X5867Y5334D01*
Y5385D01*
X5892Y5410D01*
X5943D01*
X5969Y5385D01*
Y5359D01*
X5867D01*
X6172Y5461D02*
X6222D01*
X6197D01*
Y5309D01*
X6172D01*
X6222D01*
X5245Y5105D02*
Y5258D01*
X5321D01*
X5347Y5232D01*
Y5182D01*
X5321Y5156D01*
X5245D01*
X5296D02*
X5347Y5105D01*
X5474D02*
X5423D01*
X5397Y5131D01*
Y5182D01*
X5423Y5207D01*
X5474D01*
X5499Y5182D01*
Y5156D01*
X5397D01*
X5550Y5207D02*
X5601Y5105D01*
X5651Y5207D01*
X5855Y5105D02*
X5905D01*
X5880D01*
Y5258D01*
X5855Y5232D01*
X5981Y5105D02*
Y5131D01*
X6007D01*
Y5105D01*
X5981D01*
X6108Y5232D02*
X6134Y5258D01*
X6185D01*
X6210Y5232D01*
Y5207D01*
X6185Y5182D01*
X6159D01*
X6185D01*
X6210Y5156D01*
Y5131D01*
X6185Y5105D01*
X6134D01*
X6108Y5131D01*
X6642Y4775D02*
Y4928D01*
X6693Y4877D01*
X6744Y4928D01*
Y4775D01*
X6794D02*
Y4928D01*
X6871D01*
X6896Y4902D01*
Y4851D01*
X6871Y4826D01*
X6794D01*
X6947Y4775D02*
Y4928D01*
X7023D01*
X7048Y4902D01*
Y4851D01*
X7023Y4826D01*
X6947D01*
X7099Y4928D02*
X7201D01*
X7150D01*
Y4775D01*
X6782Y648D02*
X6807Y673D01*
X6858D01*
X6883Y648D01*
Y622D01*
X6858Y597D01*
X6833D01*
X6858D01*
X6883Y571D01*
Y546D01*
X6858Y521D01*
X6807D01*
X6782Y546D01*
X6934Y521D02*
Y546D01*
X6960D01*
Y521D01*
X6934D01*
X7061Y648D02*
X7087Y673D01*
X7137D01*
X7163Y648D01*
Y622D01*
X7137Y597D01*
X7112D01*
X7137D01*
X7163Y571D01*
Y546D01*
X7137Y521D01*
X7087D01*
X7061Y546D01*
X7213Y673D02*
Y571D01*
X7264Y521D01*
X7315Y571D01*
Y673D01*
X7518D02*
Y521D01*
X7594D01*
X7620Y546D01*
Y571D01*
X7594Y597D01*
X7518D01*
X7594D01*
X7620Y622D01*
Y648D01*
X7594Y673D01*
X7518D01*
X7671Y597D02*
X7772D01*
X7823Y673D02*
Y521D01*
X7899D01*
X7924Y546D01*
Y571D01*
X7899Y597D01*
X7823D01*
X7899D01*
X7924Y622D01*
Y648D01*
X7899Y673D01*
X7823D01*
X1384Y8992D02*
Y8839D01*
X1460D01*
X1486Y8865D01*
Y8890D01*
X1460Y8915D01*
X1384D01*
X1460D01*
X1486Y8941D01*
Y8966D01*
X1460Y8992D01*
X1384D01*
X1537D02*
Y8865D01*
X1562Y8839D01*
X1613D01*
X1638Y8865D01*
Y8992D01*
X1791Y8966D02*
X1765Y8992D01*
X1714D01*
X1689Y8966D01*
Y8865D01*
X1714Y8839D01*
X1765D01*
X1791Y8865D01*
X1841Y8992D02*
Y8839D01*
Y8890D01*
X1943Y8992D01*
X1867Y8915D01*
X1943Y8839D01*
X2248Y8966D02*
X2222Y8992D01*
X2171D01*
X2146Y8966D01*
Y8865D01*
X2171Y8839D01*
X2222D01*
X2248Y8865D01*
X2375Y8992D02*
X2324D01*
X2298Y8966D01*
Y8865D01*
X2324Y8839D01*
X2375D01*
X2400Y8865D01*
Y8966D01*
X2375Y8992D01*
X2451Y8839D02*
Y8992D01*
X2552Y8839D01*
Y8992D01*
X2603D02*
Y8890D01*
X2654Y8839D01*
X2705Y8890D01*
Y8992D01*
X2857D02*
X2755D01*
Y8839D01*
X2857D01*
X2755Y8915D02*
X2806D01*
X2908Y8839D02*
Y8992D01*
X2984D01*
X3009Y8966D01*
Y8915D01*
X2984Y8890D01*
X2908D01*
X2959D02*
X3009Y8839D01*
X3060Y8992D02*
X3162D01*
X3111D01*
Y8839D01*
X3314Y8992D02*
X3213D01*
Y8839D01*
X3314D01*
X3213Y8915D02*
X3263D01*
X3365Y8839D02*
Y8992D01*
X3441D01*
X3466Y8966D01*
Y8915D01*
X3441Y8890D01*
X3365D01*
X3416D02*
X3466Y8839D01*
X368Y7455D02*
Y7607D01*
X419Y7556D01*
X470Y7607D01*
Y7455D01*
X521D02*
Y7607D01*
X597D01*
X622Y7582D01*
Y7531D01*
X597Y7506D01*
X521D01*
X673Y7455D02*
Y7607D01*
X749D01*
X775Y7582D01*
Y7531D01*
X749Y7506D01*
X673D01*
X825Y7607D02*
X927D01*
X876D01*
Y7455D01*
X190Y3696D02*
Y3543D01*
X267D01*
X292Y3569D01*
Y3594D01*
X267Y3619D01*
X190D01*
X267D01*
X292Y3645D01*
Y3670D01*
X267Y3696D01*
X190D01*
X343Y3543D02*
Y3645D01*
X394Y3696D01*
X444Y3645D01*
Y3543D01*
Y3619D01*
X343D01*
X495Y3696D02*
X597D01*
X546D01*
Y3543D01*
X648Y3696D02*
X749D01*
X698D01*
Y3543D01*
X901Y3696D02*
X800D01*
Y3543D01*
X901D01*
X800Y3619D02*
X851D01*
X952Y3543D02*
Y3696D01*
X1028D01*
X1054Y3670D01*
Y3619D01*
X1028Y3594D01*
X952D01*
X1003D02*
X1054Y3543D01*
X1105Y3696D02*
Y3670D01*
X1155Y3619D01*
X1206Y3670D01*
Y3696D01*
X1155Y3619D02*
Y3543D01*
X419Y3442D02*
X394Y3467D01*
X343D01*
X317Y3442D01*
Y3340D01*
X343Y3315D01*
X394D01*
X419Y3340D01*
X470Y3467D02*
Y3315D01*
Y3391D01*
X571D01*
Y3467D01*
Y3315D01*
X622D02*
Y3416D01*
X673Y3467D01*
X724Y3416D01*
Y3315D01*
Y3391D01*
X622D01*
X775Y3315D02*
Y3467D01*
X851D01*
X876Y3442D01*
Y3391D01*
X851Y3365D01*
X775D01*
X825D02*
X876Y3315D01*
X1028Y3442D02*
X1003Y3467D01*
X952D01*
X927Y3442D01*
Y3340D01*
X952Y3315D01*
X1003D01*
X1028Y3340D01*
Y3391D01*
X978D01*
X1181Y3467D02*
X1079D01*
Y3315D01*
X1181D01*
X1079Y3391D02*
X1130D01*
X991Y902D02*
Y1003D01*
X940Y952D02*
X1041D01*
X1067Y1054D02*
X914D01*
Y1130D01*
X940Y1156D01*
X991D01*
X1016Y1130D01*
Y1054D01*
X914Y1206D02*
X1016D01*
X1067Y1257D01*
X1016Y1308D01*
X914D01*
X1295Y902D02*
Y1003D01*
X1372Y1054D02*
X1219D01*
Y1130D01*
X1245Y1156D01*
X1295D01*
X1321Y1130D01*
Y1054D01*
X1219Y1206D02*
X1321D01*
X1372Y1257D01*
X1321Y1308D01*
X1219D01*
X1803Y673D02*
Y775D01*
X1753Y724D02*
X1854D01*
X1727Y825D02*
X1880D01*
Y902D01*
X1854Y927D01*
X1829D01*
X1803Y902D01*
Y825D01*
Y902D01*
X1778Y927D01*
X1753D01*
X1727Y902D01*
Y825D01*
X1880Y978D02*
X1778D01*
X1727Y1029D01*
X1778Y1079D01*
X1880D01*
X1803D01*
Y978D01*
X1727Y1130D02*
Y1232D01*
Y1181D01*
X1880D01*
X1727Y1283D02*
Y1384D01*
Y1333D01*
X1880D01*
X2299Y660D02*
Y762D01*
X2223Y813D02*
X2375D01*
Y889D01*
X2350Y914D01*
X2324D01*
X2299Y889D01*
Y813D01*
Y889D01*
X2273Y914D01*
X2248D01*
X2223Y889D01*
Y813D01*
X2375Y965D02*
X2273D01*
X2223Y1016D01*
X2273Y1067D01*
X2375D01*
X2299D01*
Y965D01*
X2223Y1117D02*
Y1219D01*
Y1168D01*
X2375D01*
X2223Y1270D02*
Y1371D01*
Y1321D01*
X2375D01*
X2794Y813D02*
Y914D01*
X2743Y864D02*
X2845D01*
X2743Y1067D02*
X2718Y1041D01*
Y991D01*
X2743Y965D01*
X2769D01*
X2794Y991D01*
Y1041D01*
X2819Y1067D01*
X2845D01*
X2870Y1041D01*
Y991D01*
X2845Y965D01*
X2718Y1118D02*
X2845D01*
X2870Y1143D01*
Y1194D01*
X2845Y1219D01*
X2718D01*
Y1270D02*
X2870D01*
Y1346D01*
X2845Y1371D01*
X2819D01*
X2794Y1346D01*
Y1270D01*
Y1346D01*
X2769Y1371D01*
X2743D01*
X2718Y1346D01*
Y1270D01*
X3289Y800D02*
Y902D01*
X3239Y1054D02*
X3213Y1029D01*
Y978D01*
X3239Y952D01*
X3264D01*
X3289Y978D01*
Y1029D01*
X3315Y1054D01*
X3340D01*
X3365Y1029D01*
Y978D01*
X3340Y952D01*
X3213Y1105D02*
X3340D01*
X3365Y1130D01*
Y1181D01*
X3340Y1206D01*
X3213D01*
Y1257D02*
X3365D01*
Y1333D01*
X3340Y1359D01*
X3315D01*
X3289Y1333D01*
Y1257D01*
Y1333D01*
X3264Y1359D01*
X3239D01*
X3213Y1333D01*
Y1257D01*
X4026Y8560D02*
X4127D01*
X4280Y8611D02*
X4254Y8636D01*
X4204D01*
X4178Y8611D01*
Y8585D01*
X4204Y8560D01*
X4254D01*
X4280Y8534D01*
Y8509D01*
X4254Y8484D01*
X4204D01*
X4178Y8509D01*
X4331Y8636D02*
Y8509D01*
X4356Y8484D01*
X4407D01*
X4432Y8509D01*
Y8636D01*
X4483D02*
Y8484D01*
X4559D01*
X4585Y8509D01*
Y8534D01*
X4559Y8560D01*
X4483D01*
X4559D01*
X4585Y8585D01*
Y8611D01*
X4559Y8636D01*
X4483D01*
X7874Y8509D02*
X7976D01*
X7925Y8560D02*
Y8458D01*
X8026Y8433D02*
Y8585D01*
X8103D01*
X8128Y8560D01*
Y8509D01*
X8103Y8484D01*
X8026D01*
X8179Y8585D02*
Y8484D01*
X8229Y8433D01*
X8280Y8484D01*
Y8585D01*
X5715Y7353D02*
X5690Y7379D01*
X5639D01*
X5613Y7353D01*
Y7252D01*
X5639Y7226D01*
X5690D01*
X5715Y7252D01*
X5766Y7379D02*
Y7226D01*
Y7302D01*
X5867D01*
Y7379D01*
Y7226D01*
X5918D02*
Y7328D01*
X5969Y7379D01*
X6020Y7328D01*
Y7226D01*
Y7302D01*
X5918D01*
X6070Y7226D02*
Y7379D01*
X6147D01*
X6172Y7353D01*
Y7302D01*
X6147Y7277D01*
X6070D01*
X6121D02*
X6172Y7226D01*
X6324Y7353D02*
X6299Y7379D01*
X6248D01*
X6223Y7353D01*
Y7252D01*
X6248Y7226D01*
X6299D01*
X6324Y7252D01*
Y7302D01*
X6274D01*
X6477Y7379D02*
X6375D01*
Y7226D01*
X6477D01*
X6375Y7302D02*
X6426D01*
X5461Y7620D02*
Y7468D01*
X5537D01*
X5563Y7493D01*
Y7518D01*
X5537Y7544D01*
X5461D01*
X5537D01*
X5563Y7569D01*
Y7595D01*
X5537Y7620D01*
X5461D01*
X5613Y7468D02*
Y7569D01*
X5664Y7620D01*
X5715Y7569D01*
Y7468D01*
Y7544D01*
X5613D01*
X5766Y7620D02*
X5867D01*
X5816D01*
Y7468D01*
X5918Y7620D02*
X6020D01*
X5969D01*
Y7468D01*
X6172Y7620D02*
X6070D01*
Y7468D01*
X6172D01*
X6070Y7544D02*
X6121D01*
X6223Y7468D02*
Y7620D01*
X6299D01*
X6324Y7595D01*
Y7544D01*
X6299Y7518D01*
X6223D01*
X6274D02*
X6324Y7468D01*
X6375Y7620D02*
Y7595D01*
X6426Y7544D01*
X6477Y7595D01*
Y7620D01*
X6426Y7544D02*
Y7468D01*
X4508Y2311D02*
X4483Y2337D01*
X4432D01*
X4407Y2311D01*
Y2286D01*
X4432Y2261D01*
X4483D01*
X4508Y2235D01*
Y2210D01*
X4483Y2184D01*
X4432D01*
X4407Y2210D01*
X4559Y2337D02*
Y2184D01*
Y2261D01*
X4661D01*
Y2337D01*
Y2184D01*
X4712Y2337D02*
Y2210D01*
X4737Y2184D01*
X4788D01*
X4813Y2210D01*
Y2337D01*
X4864Y2184D02*
Y2337D01*
X4966Y2184D01*
Y2337D01*
X5016D02*
X5118D01*
X5067D01*
Y2184D01*
X4534Y2540D02*
X4508Y2565D01*
X4458D01*
X4432Y2540D01*
Y2438D01*
X4458Y2413D01*
X4508D01*
X4534Y2438D01*
X4585Y2565D02*
Y2438D01*
X4610Y2413D01*
X4661D01*
X4686Y2438D01*
Y2565D01*
X4737Y2413D02*
Y2565D01*
X4813D01*
X4839Y2540D01*
Y2489D01*
X4813Y2464D01*
X4737D01*
X4788D02*
X4839Y2413D01*
X4889D02*
Y2565D01*
X4966D01*
X4991Y2540D01*
Y2489D01*
X4966Y2464D01*
X4889D01*
X4940D02*
X4991Y2413D01*
X5143Y2565D02*
X5042D01*
Y2413D01*
X5143D01*
X5042Y2489D02*
X5092D01*
X5194Y2413D02*
Y2565D01*
X5296Y2413D01*
Y2565D01*
X5346D02*
X5448D01*
X5397D01*
Y2413D01*
X4267Y3353D02*
X4242Y3378D01*
X4191D01*
X4166Y3353D01*
Y3327D01*
X4191Y3302D01*
X4242D01*
X4267Y3277D01*
Y3251D01*
X4242Y3226D01*
X4191D01*
X4166Y3251D01*
X4318Y3378D02*
Y3226D01*
Y3302D01*
X4420D01*
Y3378D01*
Y3226D01*
X4470Y3378D02*
Y3251D01*
X4496Y3226D01*
X4546D01*
X4572Y3251D01*
Y3378D01*
X4623Y3226D02*
Y3378D01*
X4724Y3226D01*
Y3378D01*
X4775D02*
X4877D01*
X4826D01*
Y3226D01*
X4267Y3607D02*
X4242Y3632D01*
X4191D01*
X4166Y3607D01*
Y3505D01*
X4191Y3480D01*
X4242D01*
X4267Y3505D01*
X4318Y3632D02*
Y3505D01*
X4343Y3480D01*
X4394D01*
X4420Y3505D01*
Y3632D01*
X4470Y3480D02*
Y3632D01*
X4546D01*
X4572Y3607D01*
Y3556D01*
X4546Y3531D01*
X4470D01*
X4521D02*
X4572Y3480D01*
X4623D02*
Y3632D01*
X4699D01*
X4724Y3607D01*
Y3556D01*
X4699Y3531D01*
X4623D01*
X4673D02*
X4724Y3480D01*
X4877Y3632D02*
X4775D01*
Y3480D01*
X4877D01*
X4775Y3556D02*
X4826D01*
X4927Y3480D02*
Y3632D01*
X5029Y3480D01*
Y3632D01*
X5080D02*
X5181D01*
X5130D01*
Y3480D01*
D70*
X2433Y4424D02*
G03*
X2433Y4424I-12J0D01*
G01*
X1006Y6177D02*
G03*
X1006Y6177I-12J0D01*
G01*
X2506Y7093D02*
G03*
X2506Y7093I-12J0D01*
G01*
X1791Y8540D02*
G03*
X1791Y8540I-12J0D01*
G01*
X7488Y6686D02*
G03*
X7488Y6686I-12J0D01*
G01*
X7820Y4238D02*
G03*
X7820Y4238I-12J0D01*
G01*
X5816Y494D02*
G03*
X5816Y494I-12J0D01*
G01*
X3161Y4865D02*
G03*
X3161Y4865I-12J0D01*
G01*
D71*
X2050Y4699D02*
G03*
X2071Y4678I22J0D01*
G01*
Y4828D02*
G03*
X2050Y4806I0J-22D01*
G01*
X2348Y4678D02*
G03*
X2370Y4699I0J22D01*
G01*
Y4806D02*
G03*
X2348Y4828I-22J0D01*
G01*
X2050Y4903D02*
G03*
X2071Y4881I22J0D01*
G01*
Y5031D02*
G03*
X2050Y5009I0J-22D01*
G01*
X2348Y4881D02*
G03*
X2370Y4903I0J22D01*
G01*
Y5009D02*
G03*
X2348Y5031I-22J0D01*
G01*
X6289Y2615D02*
G03*
X6310Y2636I0J22D01*
G01*
X6161D02*
G03*
X6182Y2615I22J0D01*
G01*
X6310Y2913D02*
G03*
X6289Y2935I-22J0D01*
G01*
X6182D02*
G03*
X6161Y2913I0J-22D01*
G01*
X7762Y6281D02*
G03*
X7784Y6302I0J22D01*
G01*
X7634D02*
G03*
X7656Y6281I22J0D01*
G01*
X7784Y6579D02*
G03*
X7762Y6601I-22J0D01*
G01*
X7656D02*
G03*
X7634Y6579I0J-22D01*
G01*
X7940Y6281D02*
G03*
X7962Y6302I0J22D01*
G01*
X7812D02*
G03*
X7833Y6281I22J0D01*
G01*
X7962Y6579D02*
G03*
X7940Y6601I-22J0D01*
G01*
X7833D02*
G03*
X7812Y6579I0J-22D01*
G01*
X2050Y4699D02*
Y4806D01*
X2370Y4699D02*
Y4806D01*
X2071Y4678D02*
X2348D01*
X2071Y4828D02*
X2348D01*
X2050Y4903D02*
Y5009D01*
X2370Y4903D02*
Y5009D01*
X2071Y4881D02*
X2348D01*
X2071Y5031D02*
X2348D01*
X6310Y2636D02*
Y2913D01*
X6161Y2636D02*
Y2913D01*
X6182Y2615D02*
X6289D01*
X6182Y2935D02*
X6289D01*
X7784Y6302D02*
Y6579D01*
X7634Y6302D02*
Y6579D01*
X7656Y6281D02*
X7762D01*
X7656Y6601D02*
X7762D01*
X7962Y6302D02*
Y6579D01*
X7812Y6302D02*
Y6579D01*
X7833Y6281D02*
X7940D01*
X7833Y6601D02*
X7940D01*
X6856Y2938D02*
X6833Y2915D01*
Y2868D01*
X6856Y2845D01*
X6949D01*
X6972Y2868D01*
Y2915D01*
X6949Y2938D01*
X6833Y2984D02*
Y3078D01*
X6856D01*
X6949Y2984D01*
X6972D01*
Y3217D02*
Y3124D01*
X6879Y3217D01*
X6856D01*
X6833Y3194D01*
Y3147D01*
X6856Y3124D01*
D72*
X3937Y4153D02*
G03*
X3937Y4153I-5J0D01*
G01*
X4798Y1021D02*
G03*
X4798Y1021I-5J0D01*
G01*
X527Y1484D02*
Y2814D01*
X3537Y1484D02*
Y2814D01*
X527Y1484D02*
X3537D01*
X527Y2814D02*
X3537D01*
X4705Y7934D02*
X7715D01*
X4705Y9264D02*
X7715D01*
X4705Y7934D02*
Y9264D01*
X7715Y7934D02*
Y9264D01*
D73*
X2096Y8538D02*
G03*
X2223Y8538I63J0D01*
G01*
X5486Y496D02*
G03*
X5359Y496I-63J0D01*
G01*
X3466Y4863D02*
G03*
X3593Y4863I63J0D01*
G01*
X2833Y6245D02*
X2908D01*
X2833Y5725D02*
X2908D01*
X954Y4640D02*
X1129D01*
X954Y5340D02*
X1129D01*
X7037Y1395D02*
Y2495D01*
X8127Y1395D02*
Y2495D01*
X7037Y1395D02*
X7367D01*
X7037Y2495D02*
X7367D01*
X7797Y1395D02*
X8127D01*
X7797Y2495D02*
X8127D01*
X2436Y4014D02*
Y4059D01*
X2391Y4014D02*
X2436D01*
X2091D02*
Y4059D01*
Y4014D02*
X2136D01*
X2091Y4314D02*
Y4359D01*
X2136D01*
X2436Y4314D02*
Y4359D01*
X2391D02*
X2436D01*
X1323Y6302D02*
Y6472D01*
X1013Y6302D02*
X1323D01*
X1013Y6472D02*
X1323D01*
X1013Y6302D02*
Y6472D01*
X2478Y7158D02*
X2521D01*
X2478D02*
Y7201D01*
X2781Y7158D02*
X2823D01*
Y7201D01*
X2781Y7503D02*
X2823D01*
Y7461D02*
Y7503D01*
X2478D02*
X2521D01*
X2478Y7461D02*
Y7503D01*
X1635Y7085D02*
Y7095D01*
X1515Y7085D02*
Y7095D01*
X3195Y5488D02*
X3205D01*
X3195Y5618D02*
X3205D01*
X3563Y4278D02*
X3573D01*
X3563Y4168D02*
X3573D01*
X2603Y4172D02*
X3111D01*
X2603Y3918D02*
Y4172D01*
Y3918D02*
X3111D01*
Y4172D01*
X3587Y4055D02*
Y4113D01*
Y3768D02*
Y3825D01*
X3932Y3768D02*
Y3825D01*
X3912Y4113D02*
X3932D01*
Y4055D02*
Y4113D01*
X3587D02*
X3607D01*
X3587Y3768D02*
X3607D01*
X3912D02*
X3932D01*
X1894Y8028D02*
X2424D01*
Y8538D01*
X1894Y8028D02*
Y8538D01*
X2223D02*
X2424D01*
X1894D02*
X2096D01*
X6046Y1284D02*
Y1294D01*
X6171Y1284D02*
Y1294D01*
X495Y5678D02*
X505D01*
X495Y5803D02*
X505D01*
X2840Y7876D02*
X2850D01*
X2840Y7751D02*
X2850D01*
X720Y6941D02*
Y6951D01*
X855Y6941D02*
Y6951D01*
X1786Y6558D02*
X1796D01*
X1786Y6673D02*
X1796D01*
X4793Y1406D02*
X4813D01*
X5118D02*
X5138D01*
X5118Y1061D02*
X5138D01*
X4793D02*
Y1119D01*
Y1061D02*
X4813D01*
X4793Y1349D02*
Y1406D01*
X5138Y1349D02*
Y1406D01*
Y1061D02*
Y1119D01*
X7460Y6751D02*
X7505D01*
X7460D02*
Y6796D01*
X7760Y6751D02*
X7805D01*
Y6796D01*
X7760Y7096D02*
X7805D01*
Y7051D02*
Y7096D01*
X7460D02*
X7505D01*
X7460Y7051D02*
Y7096D01*
X7478Y3943D02*
Y4113D01*
X7788Y3943D02*
Y4113D01*
X7478Y3943D02*
X7788D01*
X7478Y4113D02*
X7788D01*
X5688Y496D02*
Y1006D01*
X5158Y496D02*
Y1006D01*
X5486Y496D02*
X5688D01*
X5158D02*
X5359D01*
X5158Y1006D02*
X5688D01*
X6938Y4099D02*
Y4109D01*
X7058Y4099D02*
Y4109D01*
X7591Y3362D02*
Y3372D01*
X7471Y3362D02*
Y3372D01*
X7794Y3362D02*
Y3372D01*
X7674Y3362D02*
Y3372D01*
X5316Y1213D02*
X5326D01*
X5316Y1103D02*
X5326D01*
X5304Y1582D02*
Y1593D01*
X5414Y1582D02*
Y1593D01*
X4678Y1220D02*
Y1230D01*
X4568Y1220D02*
Y1230D01*
X5901Y2340D02*
X5910D01*
X5901Y2210D02*
X5910D01*
X6078Y2012D02*
X6088D01*
X6078Y2132D02*
X6088D01*
X6402Y1073D02*
Y1083D01*
X6272Y1073D02*
Y1083D01*
X6295Y2376D02*
Y2386D01*
X6175Y2376D02*
Y2386D01*
X5688Y1965D02*
Y1975D01*
X5818Y1965D02*
Y1975D01*
X8460Y7236D02*
Y7246D01*
X8330Y7236D02*
Y7246D01*
X8157Y7211D02*
Y7221D01*
X8277Y7211D02*
Y7221D01*
X7769Y6080D02*
Y6090D01*
X7649Y6080D02*
Y6090D01*
X7947Y6080D02*
Y6090D01*
X7827Y6080D02*
Y6090D01*
X7056Y7163D02*
X7066D01*
X7056Y7293D02*
X7066D01*
X7090Y6415D02*
Y6425D01*
X7210Y6415D02*
Y6425D01*
X7196Y7060D02*
X7206D01*
X7196Y6940D02*
X7206D01*
X6853Y6343D02*
X6863D01*
X6853Y6463D02*
X6863D01*
X7947Y3947D02*
Y3957D01*
X7827Y3947D02*
Y3957D01*
X8136Y4113D02*
X8146D01*
X8136Y3993D02*
X8146D01*
X8136Y3815D02*
X8146D01*
X8136Y3935D02*
X8146D01*
X7272Y3490D02*
X7282D01*
X7272Y3600D02*
X7282D01*
X7094Y3790D02*
X7104D01*
X7094Y3910D02*
X7104D01*
X7837Y4635D02*
X8012D01*
X7837Y5335D02*
X8012D01*
X6655Y6636D02*
X7163D01*
Y6890D01*
X6655D02*
X7163D01*
X6655Y6636D02*
Y6890D01*
X8267Y6360D02*
Y6868D01*
Y6360D02*
X8521D01*
Y6868D01*
X8267D02*
X8521D01*
X4629Y878D02*
Y888D01*
X4514Y878D02*
Y888D01*
X4301Y852D02*
Y862D01*
X4436Y852D02*
Y862D01*
X4885Y1465D02*
X4895D01*
X4885Y1580D02*
X4895D01*
X4885Y1647D02*
X4894D01*
X4885Y1782D02*
X4894D01*
X6662Y1596D02*
X6672D01*
X6662Y1481D02*
X6672D01*
X6662Y1418D02*
X6672D01*
X6662Y1303D02*
X6672D01*
X6662Y1241D02*
X6672D01*
X6662Y1126D02*
X6672D01*
X6662Y1063D02*
X6672D01*
X6662Y948D02*
X6672D01*
X6665Y2656D02*
Y2666D01*
X6780Y2656D02*
Y2666D01*
X6843Y2656D02*
Y2666D01*
X6958Y2656D02*
Y2666D01*
X6015Y1956D02*
X6025D01*
X6015Y1841D02*
X6025D01*
X7588Y7579D02*
Y7589D01*
X7703Y7579D02*
Y7589D01*
X7392Y7350D02*
Y7360D01*
X7517Y7350D02*
Y7360D01*
X8191Y6402D02*
Y6412D01*
X8056Y6402D02*
Y6412D01*
X7382Y6078D02*
X7392D01*
X7382Y6203D02*
X7392D01*
X7932Y4294D02*
X7943D01*
X7932Y4169D02*
X7943D01*
X7291Y3794D02*
Y3804D01*
X7416Y3794D02*
Y3804D01*
X7348Y4413D02*
X7358D01*
X7348Y4528D02*
X7358D01*
X8332Y3972D02*
Y3982D01*
X8457Y3972D02*
Y3982D01*
X7628Y3554D02*
X7638D01*
X7628Y3689D02*
X7638D01*
X1538Y5696D02*
Y5706D01*
X1663Y5696D02*
Y5706D01*
X734Y5854D02*
Y5864D01*
X859Y5854D02*
Y5864D01*
X2603Y7821D02*
Y7831D01*
X2478Y7821D02*
Y7831D01*
X1773Y4516D02*
X1783D01*
X1773Y4381D02*
X1783D01*
X2069Y3440D02*
Y3450D01*
X1944Y3440D02*
Y3450D01*
X2127Y3618D02*
Y3628D01*
X2242Y3618D02*
Y3628D01*
X2611Y6524D02*
X2621D01*
X2611Y6639D02*
X2621D01*
X2611Y6718D02*
X2621D01*
X2611Y6833D02*
X2621D01*
X2611Y6334D02*
X2621D01*
X2611Y6449D02*
X2621D01*
X3170Y5076D02*
X3180D01*
X3170Y5191D02*
X3180D01*
X3170Y5280D02*
X3180D01*
X3170Y5395D02*
X3180D01*
X3626Y3202D02*
X3636D01*
X3626Y3067D02*
X3636D01*
X3626Y3624D02*
X3636D01*
X3626Y3509D02*
X3636D01*
X4185Y4701D02*
X4195D01*
X4185Y4566D02*
X4195D01*
X4172Y4284D02*
X4182D01*
X4172Y4399D02*
X4182D01*
X1905Y4032D02*
Y4286D01*
X1397Y4032D02*
X1905D01*
X1397D02*
Y4286D01*
X1905D01*
X1508Y6712D02*
Y6722D01*
X1388Y6712D02*
Y6722D01*
X1748Y5696D02*
Y5706D01*
X1858Y5696D02*
Y5706D01*
X495Y5884D02*
X505D01*
X495Y6004D02*
X505D01*
X965Y5854D02*
Y5864D01*
X1085Y5854D02*
Y5864D01*
X949Y6389D02*
Y6399D01*
X829Y6389D02*
Y6399D01*
X2560Y5099D02*
X2570D01*
X2560Y5219D02*
X2570D01*
X2582Y4799D02*
Y4809D01*
X2702Y4799D02*
Y4809D01*
X1900Y3105D02*
X1910D01*
X1900Y3225D02*
X1910D01*
X1468Y3799D02*
X1478D01*
X1468Y3929D02*
X1478D01*
X2424Y3732D02*
Y3742D01*
X2554Y3732D02*
Y3742D01*
X2778Y3681D02*
Y3691D01*
X2658Y3681D02*
Y3691D01*
X2981Y3681D02*
Y3691D01*
X2861Y3681D02*
Y3691D01*
X2865Y4422D02*
X2875D01*
X2865Y4302D02*
X2875D01*
X3212Y7255D02*
Y7265D01*
X3332Y7255D02*
Y7265D01*
X2052Y7466D02*
X2062D01*
X2052Y7576D02*
X2062D01*
X3179Y6907D02*
Y6917D01*
X3069Y6907D02*
Y6917D01*
X3931Y3512D02*
X3941D01*
X3931Y3622D02*
X3941D01*
X3397Y3850D02*
X3407D01*
X3397Y3740D02*
X3407D01*
X1290Y7140D02*
X1300D01*
X1290Y7260D02*
X1300D01*
X1290Y6937D02*
X1300D01*
X1290Y7057D02*
X1300D01*
X3264Y4353D02*
X3794D01*
X3593Y4863D02*
X3794D01*
X3264D02*
X3466D01*
X3794Y4353D02*
Y4863D01*
X3264Y4353D02*
Y4863D01*
D74*
X2024Y8438D02*
G03*
X2024Y8438I-30J0D01*
G01*
X5618Y596D02*
G03*
X5618Y596I-30J0D01*
G01*
X3394Y4763D02*
G03*
X3394Y4763I-30J0D01*
G01*
D75*
X5500Y6195D02*
X5622D01*
X5500Y6200D02*
X5622D01*
X5500Y6205D02*
X5627D01*
X5505Y6211D02*
X5627D01*
X5505Y6216D02*
X5627D01*
X5510Y6221D02*
X5632D01*
X5510Y6226D02*
X5632D01*
X5510Y6231D02*
X5632D01*
X5515Y6236D02*
X5637D01*
X5515Y6241D02*
X5637D01*
X5515Y6246D02*
X5642D01*
X5521Y6251D02*
X5642D01*
X5521Y6256D02*
X5642D01*
X5521Y6261D02*
X5648D01*
X5526Y6266D02*
X5648D01*
X5526Y6271D02*
X5648D01*
X5526Y6277D02*
X5653D01*
X5531Y6282D02*
X5653D01*
X5531Y6287D02*
X5653D01*
X5531Y6292D02*
X5658D01*
X5536Y6297D02*
X5658D01*
X5536Y6302D02*
X5658D01*
X5541Y6307D02*
X5663D01*
X5541Y6312D02*
X5663D01*
X5541Y6317D02*
X5668D01*
X5546Y6322D02*
X5668D01*
X5546Y6327D02*
X5668D01*
X5546Y6332D02*
X5673D01*
X5551Y6338D02*
X5673D01*
X5551Y6348D02*
X5678D01*
X5556Y6353D02*
X5678D01*
X5556Y6358D02*
X5678D01*
X5556Y6363D02*
X5683D01*
X5561Y6368D02*
X5683D01*
X5297Y6835D02*
X5348D01*
X5302Y6840D02*
X5353D01*
X5307Y6846D02*
X5353D01*
X5312Y6851D02*
X5353D01*
X5317Y6856D02*
X5353D01*
X5322Y6861D02*
X5353D01*
X5328Y6866D02*
X5358D01*
X5333Y6871D02*
X5358D01*
X5338Y6876D02*
X5358D01*
X5343Y6881D02*
X5358D01*
X5348Y6886D02*
X5358D01*
X5134Y5906D02*
X5145D01*
X5134Y5911D02*
X5145D01*
X5129Y5916D02*
X5145D01*
X5129Y5921D02*
X5150D01*
X5129Y5926D02*
X5150D01*
X5129Y5931D02*
X5150D01*
X5124Y5941D02*
X5155D01*
X5124Y5946D02*
X5155D01*
X5124Y5951D02*
X5155D01*
X5124Y5957D02*
X5160D01*
X5119Y5962D02*
X5160D01*
X5119Y5967D02*
X5160D01*
X5119Y5972D02*
X5160D01*
X5119Y5977D02*
X5165D01*
X5114Y5982D02*
X5165D01*
X5114Y5987D02*
X5165D01*
X5114Y5992D02*
X5165D01*
X5104Y6033D02*
X5175D01*
X5104Y6038D02*
X5180D01*
X5104Y6043D02*
X5180D01*
X5104Y6048D02*
X5180D01*
X5104Y6053D02*
X5185D01*
X5099Y6058D02*
X5185D01*
X5099Y6063D02*
X5185D01*
X5099Y6068D02*
X5185D01*
X5099Y6073D02*
X5190D01*
X5099Y6078D02*
X5190D01*
X5094Y6084D02*
X5190D01*
X5094Y6089D02*
X5190D01*
X5094Y6094D02*
X5195D01*
X5094Y6099D02*
X5195D01*
X5094Y6104D02*
X5195D01*
X5104Y6358D02*
X5256D01*
X5109Y6363D02*
X5256D01*
X5109Y6368D02*
X5256D01*
X5109Y6373D02*
X5256D01*
X5109Y6378D02*
X5261D01*
X5109Y6383D02*
X5261D01*
X5114Y6388D02*
X5261D01*
X5114Y6393D02*
X5261D01*
X5114Y6398D02*
X5267D01*
X5114Y6404D02*
X5267D01*
X5114Y6409D02*
X5267D01*
X5119Y6414D02*
X5267D01*
X5119Y6419D02*
X5267D01*
X5119Y6424D02*
X5272D01*
X5119Y6429D02*
X5272D01*
X5119Y6434D02*
X5272D01*
X5124Y6439D02*
X5272D01*
X5124Y6444D02*
X5272D01*
X5124Y6449D02*
X5277D01*
X5124Y6454D02*
X5277D01*
X5124Y6459D02*
X5277D01*
X5129Y6465D02*
X5277D01*
X5129Y6470D02*
X5277D01*
X5129Y6475D02*
X5282D01*
X4891Y6429D02*
X5079D01*
X4896Y6434D02*
X5084D01*
X4281Y5804D02*
X4383D01*
X4286Y5809D02*
X4388D01*
X4291Y5814D02*
X4398D01*
X4296Y5819D02*
X4403D01*
X4301Y5824D02*
X4408D01*
X4306Y5830D02*
X4418D01*
X4312Y5835D02*
X4423D01*
X4317Y5840D02*
X4428D01*
X4322Y5845D02*
X4439D01*
X4322Y5850D02*
X4444D01*
X4327Y5855D02*
X4449D01*
X4332Y5860D02*
X4459D01*
X4337Y5865D02*
X4464D01*
X4342Y5870D02*
X4474D01*
X4306Y6089D02*
X4428D01*
X4306Y6094D02*
X4428D01*
X4306Y6099D02*
X4433D01*
X4312Y6104D02*
X4433D01*
X4312Y6109D02*
X4433D01*
X4312Y6114D02*
X4439D01*
X4317Y6119D02*
X4439D01*
X4317Y6124D02*
X4439D01*
X4317Y6129D02*
X4444D01*
X4322Y6134D02*
X4444D01*
X4327Y6144D02*
X4449D01*
X4327Y6150D02*
X4449D01*
X4327Y6155D02*
X4449D01*
X4332Y6160D02*
X4454D01*
X4332Y6165D02*
X4454D01*
X4332Y6170D02*
X4454D01*
X4337Y6175D02*
X4459D01*
X4337Y6180D02*
X4459D01*
X4337Y6185D02*
X4464D01*
X4342Y6190D02*
X4464D01*
X4342Y6195D02*
X4464D01*
X4342Y6200D02*
X4469D01*
X4347Y6205D02*
X4469D01*
X4347Y6211D02*
X4469D01*
X4347Y6216D02*
X4474D01*
X4352Y6221D02*
X4474D01*
X4352Y6226D02*
X4474D01*
X4078Y5596D02*
X4088D01*
X4078Y5601D02*
X4098D01*
X4083Y5606D02*
X4103D01*
X4088Y5611D02*
X4113D01*
X4093Y5616D02*
X4118D01*
X4098Y5621D02*
X4129D01*
X4103Y5626D02*
X4134D01*
X4108Y5631D02*
X4139D01*
X4113Y5636D02*
X4149D01*
X4118Y5642D02*
X4154D01*
X4124Y5647D02*
X4164D01*
X4129Y5652D02*
X4169D01*
X4134Y5657D02*
X4174D01*
X4139Y5662D02*
X4185D01*
X4144Y5667D02*
X4190D01*
X4149Y5672D02*
X4200D01*
X4154Y5677D02*
X4205D01*
X4159Y5682D02*
X4210D01*
X4164Y5687D02*
X4220D01*
X4169Y5692D02*
X4225D01*
X4174Y5697D02*
X4235D01*
X4179Y5703D02*
X4240D01*
X4185Y5708D02*
X4245D01*
X4190Y5713D02*
X4256D01*
X4195Y5718D02*
X4261D01*
X4200Y5723D02*
X4271D01*
X4078Y6373D02*
X4200D01*
X4078Y6378D02*
X4200D01*
X4078Y6383D02*
X4205D01*
X4083Y6388D02*
X4205D01*
X4083Y6393D02*
X4205D01*
X4088Y6398D02*
X4210D01*
X4088Y6404D02*
X4210D01*
X4088Y6409D02*
X4215D01*
X4093Y6414D02*
X4215D01*
X4093Y6419D02*
X4215D01*
X4093Y6424D02*
X4220D01*
X4098Y6429D02*
X4220D01*
X4098Y6434D02*
X4220D01*
X4098Y6439D02*
X4225D01*
X4103Y6444D02*
X4225D01*
X4103Y6449D02*
X4225D01*
X4103Y6454D02*
X4230D01*
X4108Y6459D02*
X4230D01*
X4108Y6465D02*
X4230D01*
X4108Y6470D02*
X4235D01*
X3671Y6302D02*
X3793D01*
X3671Y6307D02*
X3793D01*
X3671Y6312D02*
X3793D01*
X3677Y6317D02*
X3798D01*
X3677Y6322D02*
X3798D01*
X3677Y6327D02*
X3798D01*
X3682Y6332D02*
X3804D01*
X3682Y6338D02*
X3804D01*
X3687Y6348D02*
X3809D01*
X3687Y6353D02*
X3809D01*
X3692Y6358D02*
X3814D01*
X3692Y6363D02*
X3814D01*
X3692Y6368D02*
X3814D01*
X3697Y6373D02*
X3819D01*
X3697Y6378D02*
X3819D01*
X3697Y6383D02*
X3819D01*
X3702Y6388D02*
X3824D01*
X3702Y6393D02*
X3824D01*
X3702Y6398D02*
X3824D01*
X3707Y6404D02*
X3829D01*
X3707Y6409D02*
X3829D01*
X3707Y6414D02*
X3834D01*
X3712Y6419D02*
X3834D01*
X3712Y6424D02*
X3834D01*
X3712Y6429D02*
X3839D01*
X3717Y6434D02*
X3839D01*
X3717Y6439D02*
X3839D01*
X3722Y6444D02*
X3844D01*
X3722Y6449D02*
X3844D01*
X3722Y6454D02*
X3844D01*
X3727Y6459D02*
X3849D01*
X3727Y6465D02*
X3849D01*
X3727Y6470D02*
X3849D01*
X5551Y6343D02*
X5673D01*
X5124Y5936D02*
X5150D01*
X4322Y6139D02*
X4444D01*
X3682Y6343D02*
X3809D01*
X5460Y6089D02*
X5587D01*
X5465Y6094D02*
X5587D01*
X5465Y6099D02*
X5587D01*
X5465Y6104D02*
X5592D01*
X5470Y6109D02*
X5592D01*
X5089D02*
X5195D01*
X5470Y6114D02*
X5592D01*
X5089D02*
X5201D01*
X5089Y6119D02*
X5201D01*
X5089Y6124D02*
X5201D01*
X5089Y6129D02*
X5201D01*
X5089Y6134D02*
X5206D01*
X5084Y6144D02*
X5206D01*
X5084Y6150D02*
X5206D01*
X5084Y6155D02*
X5211D01*
X5084Y6160D02*
X5211D01*
X5079Y6165D02*
X5211D01*
X5079Y6170D02*
X5211D01*
X5079Y6175D02*
X5216D01*
X5079Y6180D02*
X5216D01*
X5079Y6185D02*
X5216D01*
X5074Y6190D02*
X5216D01*
X5074Y6195D02*
X5221D01*
X5074Y6200D02*
X5221D01*
X5074Y6205D02*
X5221D01*
X5074Y6211D02*
X5221D01*
X5074Y6216D02*
X5226D01*
X5068Y6221D02*
X5226D01*
X5068Y6226D02*
X5226D01*
X5068Y6231D02*
X5226D01*
X5068Y6236D02*
X5226D01*
X5068Y6241D02*
X5231D01*
X5063Y6246D02*
X5231D01*
X5063Y6251D02*
X5231D01*
X5063Y6256D02*
X5231D01*
X5063Y6261D02*
X5236D01*
X5063Y6266D02*
X5236D01*
X5063Y6271D02*
X5236D01*
X5058Y6277D02*
X5236D01*
X5058Y6282D02*
X5236D01*
X5058Y6287D02*
X5241D01*
X5058Y6292D02*
X5241D01*
X4967Y6317D02*
X5246D01*
X4972Y6322D02*
X5246D01*
X4982Y6327D02*
X5246D01*
X4789D02*
X4972D01*
X4987Y6332D02*
X5251D01*
X4794D02*
X4977D01*
X4997Y6338D02*
X5251D01*
X4799D02*
X4982D01*
X5013Y6348D02*
X5251D01*
X4809D02*
X4992D01*
X5018Y6353D02*
X5256D01*
X4814D02*
X4997D01*
X5028Y6358D02*
X5099D01*
X4820D02*
X5007D01*
X5033Y6363D02*
X5099D01*
X4825D02*
X5013D01*
X5038Y6368D02*
X5099D01*
X4830D02*
X5018D01*
X5048Y6373D02*
X5099D01*
X4835D02*
X5023D01*
X5053Y6378D02*
X5094D01*
X4840D02*
X5028D01*
X5063Y6383D02*
X5094D01*
X4845D02*
X5033D01*
X5068Y6388D02*
X5094D01*
X4850D02*
X5038D01*
X5079Y6393D02*
X5094D01*
X4855D02*
X5043D01*
X4860Y6398D02*
X5048D01*
X4865Y6404D02*
X5053D01*
X4870Y6409D02*
X5058D01*
X4875Y6414D02*
X5063D01*
X4880Y6419D02*
X5068D01*
X4886Y6424D02*
X5074D01*
X4901Y6439D02*
X5089D01*
X4906Y6444D02*
X5094D01*
X4911Y6449D02*
X5099D01*
X4916Y6454D02*
X5104D01*
X4921Y6459D02*
X5109D01*
X4926Y6465D02*
X5114D01*
X4931Y6470D02*
X5119D01*
X4936Y6475D02*
X5124D01*
X4941Y6480D02*
X5282D01*
X4947Y6485D02*
X5282D01*
X4952Y6490D02*
X5282D01*
X4957Y6495D02*
X5282D01*
X4962Y6500D02*
X5287D01*
X4967Y6505D02*
X5287D01*
X4972Y6510D02*
X5287D01*
X4977Y6515D02*
X5287D01*
X4982Y6520D02*
X5287D01*
X4987Y6525D02*
X5292D01*
X4997Y6531D02*
X5292D01*
X5033Y6566D02*
X5297D01*
X5033Y6571D02*
X5297D01*
X5038Y6576D02*
X5302D01*
X5043Y6581D02*
X5302D01*
X5048Y6586D02*
X5302D01*
X5053Y6592D02*
X5302D01*
X5058Y6597D02*
X5302D01*
X5063Y6602D02*
X5307D01*
X5068Y6607D02*
X5307D01*
X5074Y6612D02*
X5307D01*
X5079Y6617D02*
X5307D01*
X5084Y6622D02*
X5307D01*
X5089Y6627D02*
X5312D01*
X5094Y6632D02*
X5312D01*
X5099Y6637D02*
X5312D01*
X5104Y6642D02*
X5312D01*
X5109Y6647D02*
X5312D01*
X5114Y6652D02*
X5317D01*
X5119Y6658D02*
X5317D01*
X5124Y6663D02*
X5317D01*
X5129Y6668D02*
X5317D01*
X5134Y6673D02*
X5317D01*
X5140Y6678D02*
X5322D01*
X5145Y6683D02*
X5322D01*
X5150Y6688D02*
X5322D01*
X5155Y6693D02*
X5322D01*
X5160Y6698D02*
X5322D01*
X5165Y6703D02*
X5328D01*
X5170Y6708D02*
X5328D01*
X5175Y6713D02*
X5328D01*
X5180Y6719D02*
X5328D01*
X5185Y6724D02*
X5328D01*
X5190Y6729D02*
X5328D01*
X5195Y6734D02*
X5333D01*
X5201Y6739D02*
X5333D01*
X5206Y6744D02*
X5333D01*
X5216Y6754D02*
X5333D01*
X5221Y6759D02*
X5338D01*
X5226Y6764D02*
X5338D01*
X5231Y6769D02*
X5338D01*
X5236Y6774D02*
X5338D01*
X5241Y6779D02*
X5338D01*
X5246Y6785D02*
X5343D01*
X5251Y6790D02*
X5343D01*
X5256Y6795D02*
X5343D01*
X5261Y6800D02*
X5343D01*
X5267Y6805D02*
X5343D01*
X5272Y6810D02*
X5348D01*
X5277Y6815D02*
X5348D01*
X5282Y6820D02*
X5348D01*
X5287Y6825D02*
X5348D01*
X5292Y6830D02*
X5348D01*
X4073Y5591D02*
X4083D01*
X4205Y5728D02*
X4276D01*
X4215Y5738D02*
X4291D01*
X4220Y5743D02*
X4296D01*
X4225Y5748D02*
X4306D01*
X4230Y5753D02*
X4312D01*
X4235Y5758D02*
X4317D01*
X4240Y5763D02*
X4327D01*
X4245Y5769D02*
X4332D01*
X4251Y5774D02*
X4342D01*
X4256Y5779D02*
X4347D01*
X4261Y5784D02*
X4352D01*
X4266Y5789D02*
X4362D01*
X4271Y5794D02*
X4367D01*
X4276Y5799D02*
X4372D01*
X4347Y5875D02*
X4479D01*
X4352Y5880D02*
X4484D01*
X4357Y5885D02*
X4494D01*
X4362Y5890D02*
X4499D01*
X4367Y5896D02*
X4505D01*
X4372Y5901D02*
X4515D01*
X4378Y5906D02*
X4520D01*
X4383Y5911D02*
X4525D01*
X4388Y5916D02*
X4535D01*
X4393Y5921D02*
X4540D01*
X4398Y5926D02*
X4550D01*
X4403Y5931D02*
X4555D01*
X4413Y5941D02*
X4571D01*
X4418Y5946D02*
X4576D01*
X4423Y5951D02*
X4581D01*
X4428Y5957D02*
X4591D01*
X4433Y5962D02*
X4596D01*
X4439Y5967D02*
X4601D01*
X4444Y5972D02*
X4611D01*
X4449Y5977D02*
X4616D01*
X4454Y5982D02*
X4621D01*
X4459Y5987D02*
X4632D01*
X4464Y5992D02*
X4637D01*
X4499Y6033D02*
X4693D01*
X4505Y6038D02*
X4698D01*
X4510Y6043D02*
X4708D01*
X4515Y6048D02*
X4713D01*
X4520Y6053D02*
X4718D01*
X4525Y6058D02*
X4728D01*
X4530Y6063D02*
X4733D01*
X4535Y6068D02*
X4738D01*
X4540Y6073D02*
X4748D01*
X4545Y6078D02*
X4753D01*
X4550Y6084D02*
X4764D01*
X4555Y6089D02*
X4769D01*
X4560Y6094D02*
X4774D01*
X3981Y6195D02*
X4129D01*
X3991Y6200D02*
X4134D01*
X4002Y6205D02*
X4134D01*
X4007Y6211D02*
X4139D01*
X4012Y6216D02*
X4139D01*
X4017Y6221D02*
X4144D01*
X4022Y6226D02*
X4144D01*
X4357Y6231D02*
X4479D01*
X4022D02*
X4149D01*
X4357Y6236D02*
X4479D01*
X4027D02*
X4149D01*
X4357Y6241D02*
X4479D01*
X4027D02*
X4154D01*
X4362Y6246D02*
X4484D01*
X4032D02*
X4154D01*
X4362Y6251D02*
X4484D01*
X4032D02*
X4159D01*
X4362Y6256D02*
X4489D01*
X4037D02*
X4159D01*
X4367Y6261D02*
X4489D01*
X4037D02*
X4159D01*
X4367Y6266D02*
X4489D01*
X4037D02*
X4164D01*
X4367Y6271D02*
X4494D01*
X4042D02*
X4164D01*
X4372Y6277D02*
X4494D01*
X4042D02*
X4164D01*
X4372Y6282D02*
X4494D01*
X4042D02*
X4169D01*
X4372Y6287D02*
X4499D01*
X4047D02*
X4169D01*
X4378Y6292D02*
X4499D01*
X4047D02*
X4169D01*
X4378Y6297D02*
X4499D01*
X4047D02*
X4174D01*
X4378Y6302D02*
X4505D01*
X4052D02*
X4174D01*
X4383Y6307D02*
X4505D01*
X4052D02*
X4174D01*
X4383Y6312D02*
X4505D01*
X4058D02*
X4179D01*
X4388Y6317D02*
X4510D01*
X4058D02*
X4179D01*
X4388Y6322D02*
X4510D01*
X4058D02*
X4185D01*
X4388Y6327D02*
X4510D01*
X4063D02*
X4185D01*
X4393Y6332D02*
X4515D01*
X4063D02*
X4185D01*
X4393Y6338D02*
X4515D01*
X4063D02*
X4190D01*
X4398Y6348D02*
X4520D01*
X4068D02*
X4190D01*
X4398Y6353D02*
X4520D01*
X4068D02*
X4195D01*
X4398Y6358D02*
X4525D01*
X4073D02*
X4195D01*
X4403Y6363D02*
X4525D01*
X4073D02*
X4195D01*
X4403Y6368D02*
X4525D01*
X4073D02*
X4200D01*
X4225Y6373D02*
X4667D01*
X4230Y6378D02*
X4672D01*
X4240Y6383D02*
X4677D01*
X4245Y6388D02*
X4682D01*
X4251Y6393D02*
X4687D01*
X4256Y6398D02*
X4693D01*
X4261Y6404D02*
X4703D01*
X4266Y6409D02*
X4708D01*
X4271Y6414D02*
X4713D01*
X4276Y6419D02*
X4718D01*
X4286Y6424D02*
X4723D01*
X4291Y6429D02*
X4728D01*
X4296Y6434D02*
X4733D01*
X4301Y6439D02*
X4743D01*
X4306Y6444D02*
X4748D01*
X4312Y6449D02*
X4753D01*
X4317Y6454D02*
X4759D01*
X4327Y6459D02*
X4764D01*
X4332Y6465D02*
X4769D01*
X4337Y6470D02*
X4774D01*
X3804Y6084D02*
X3910D01*
X3758Y6089D02*
X3946D01*
X3641Y6185D02*
X3844D01*
X3641Y6190D02*
X3804D01*
X3641Y6195D02*
X3788D01*
X3641Y6200D02*
X3778D01*
X3641Y6205D02*
X3773D01*
X3641Y6211D02*
X3773D01*
X3641Y6216D02*
X3768D01*
X3641Y6221D02*
X3768D01*
X3646Y6226D02*
X3768D01*
X3646Y6231D02*
X3768D01*
X3646Y6236D02*
X3768D01*
X3646Y6241D02*
X3773D01*
X3651Y6246D02*
X3773D01*
X3651Y6251D02*
X3773D01*
X3651Y6256D02*
X3773D01*
X3656Y6261D02*
X3778D01*
X3656Y6266D02*
X3778D01*
X3656Y6271D02*
X3783D01*
X3661Y6277D02*
X3783D01*
X3661Y6282D02*
X3783D01*
X3666Y6287D02*
X3788D01*
X3666Y6292D02*
X3788D01*
X3666Y6297D02*
X3788D01*
X5084Y6139D02*
X5206D01*
X5002Y6343D02*
X5251D01*
X4804D02*
X4987D01*
X5211Y6749D02*
X5333D01*
X4210Y5733D02*
X4281D01*
X4408Y5936D02*
X4560D01*
X4393Y6343D02*
X4520D01*
X4068D02*
X4190D01*
X3595Y5997D02*
X5861D01*
X3595Y6002D02*
X5861D01*
X3595Y6007D02*
X5861D01*
X3595Y6012D02*
X5861D01*
X3595Y6017D02*
X5861D01*
X3595Y6023D02*
X5861D01*
X3600Y6028D02*
X5861D01*
X3737Y6094D02*
X3971D01*
X4566Y6099D02*
X4784D01*
X3717D02*
X3991D01*
X4571Y6104D02*
X4789D01*
X3707D02*
X4007D01*
X4576Y6109D02*
X4799D01*
X3697D02*
X4022D01*
X4581Y6114D02*
X4804D01*
X3687D02*
X4032D01*
X5470Y6119D02*
X5597D01*
X4586D02*
X4809D01*
X3677D02*
X4042D01*
X5475Y6124D02*
X5597D01*
X4591D02*
X4820D01*
X3671D02*
X4052D01*
X5475Y6129D02*
X5597D01*
X4596D02*
X4825D01*
X3666D02*
X4058D01*
X5480Y6134D02*
X5602D01*
X4601D02*
X4830D01*
X3661D02*
X4068D01*
X5480Y6144D02*
X5602D01*
X4611D02*
X4845D01*
X3656D02*
X4083D01*
X5485Y6150D02*
X5607D01*
X4616D02*
X4850D01*
X3651D02*
X4088D01*
X5485Y6155D02*
X5607D01*
X4621D02*
X4860D01*
X3651D02*
X4093D01*
X5485Y6160D02*
X5612D01*
X4626D02*
X4865D01*
X3646D02*
X4098D01*
X5490Y6165D02*
X5612D01*
X4632D02*
X4875D01*
X3646D02*
X4103D01*
X5490Y6170D02*
X5612D01*
X4637D02*
X4880D01*
X3646D02*
X4108D01*
X5490Y6175D02*
X5617D01*
X4642D02*
X4891D01*
X3641D02*
X4113D01*
X5495Y6180D02*
X5617D01*
X4647D02*
X4896D01*
X3641D02*
X4118D01*
X5495Y6185D02*
X5617D01*
X4652D02*
X4901D01*
X3931D02*
X4118D01*
X5495Y6190D02*
X5622D01*
X4657D02*
X4911D01*
X3961D02*
X4124D01*
X4662Y6195D02*
X4916D01*
X4667Y6200D02*
X4921D01*
X4672Y6205D02*
X4931D01*
X4677Y6211D02*
X4936D01*
X4682Y6216D02*
X4947D01*
X4687Y6221D02*
X4952D01*
X4693Y6226D02*
X4957D01*
X4698Y6231D02*
X4967D01*
X4703Y6236D02*
X4972D01*
X4708Y6241D02*
X4982D01*
X4713Y6246D02*
X4987D01*
X4718Y6251D02*
X4997D01*
X4723Y6256D02*
X5002D01*
X4728Y6261D02*
X5007D01*
X4733Y6266D02*
X5018D01*
X4738Y6271D02*
X5023D01*
X4743Y6277D02*
X5033D01*
X4743Y6282D02*
X5038D01*
X4748Y6287D02*
X5048D01*
X4753Y6292D02*
X5053D01*
X4759Y6297D02*
X5241D01*
X4764Y6302D02*
X5241D01*
X4769Y6307D02*
X5246D01*
X4774Y6312D02*
X5246D01*
X4779Y6317D02*
X4962D01*
X4784Y6322D02*
X4967D01*
X5383Y6373D02*
X5825D01*
X5388Y6378D02*
X5830D01*
X5394Y6383D02*
X5836D01*
X5399Y6388D02*
X5841D01*
X5409Y6393D02*
X5846D01*
X5414Y6398D02*
X5851D01*
X5419Y6404D02*
X5856D01*
X5424Y6409D02*
X5861D01*
X5429Y6414D02*
X5871D01*
X5434Y6419D02*
X5876D01*
X5439Y6424D02*
X5881D01*
X5444Y6429D02*
X5886D01*
X5455Y6434D02*
X5891D01*
X5460Y6439D02*
X5896D01*
X5465Y6444D02*
X5902D01*
X5470Y6449D02*
X5912D01*
X5475Y6454D02*
X5917D01*
X5480Y6459D02*
X5922D01*
X5485Y6465D02*
X5927D01*
X5495Y6470D02*
X5932D01*
X3737Y6536D02*
X5932D01*
X3737Y6541D02*
X5932D01*
X3743Y6551D02*
X5932D01*
X3743Y6556D02*
X5932D01*
X3743Y6561D02*
X5932D01*
X5480Y6139D02*
X5602D01*
X4606D02*
X4840D01*
X3656D02*
X4073D01*
X3737Y6546D02*
X5932D01*
D76*
X2061Y4676D02*
D03*
Y4879D02*
D03*
D77*
X2035Y4753D02*
D03*
Y4956D02*
D03*
D78*
X2064Y4829D02*
D03*
Y5032D02*
D03*
D79*
X6311Y2921D02*
D03*
X7785Y6587D02*
D03*
X7963D02*
D03*
D80*
X6235Y2949D02*
D03*
X7709Y6615D02*
D03*
X7887D02*
D03*
D81*
X6159Y2924D02*
D03*
X7632Y6590D02*
D03*
X7810D02*
D03*
M02*
