%FSLAX42Y42*%
%MOMM*%
G71*
G01*
G75*
G04 Layer_Color=2752767*
%ADD10R,2.15X5.50*%
%ADD11R,3.00X7.50*%
%ADD12R,3.50X3.80*%
%ADD13O,0.25X0.70*%
%ADD14O,0.70X0.25*%
%ADD15R,1.60X1.60*%
%ADD16O,0.45X1.70*%
%ADD17R,0.66X0.94*%
%ADD18R,0.00X0.00*%
%ADD19R,0.00X0.00*%
%ADD20R,0.84X0.66*%
%ADD21R,1.70X1.70*%
%ADD22O,0.85X0.28*%
%ADD23O,0.28X0.85*%
%ADD24R,1.40X1.05*%
%ADD25R,1.25X1.50*%
%ADD26R,0.85X1.30*%
%ADD27R,1.00X1.00*%
G04:AMPARAMS|DCode=28|XSize=0.24mm|YSize=0.6mm|CornerRadius=0.08mm|HoleSize=0mm|Usage=FLASHONLY|Rotation=0.000|XOffset=0mm|YOffset=0mm|HoleType=Round|Shape=RoundedRectangle|*
%AMROUNDEDRECTD28*
21,1,0.24,0.43,0,0,0.0*
21,1,0.07,0.60,0,0,0.0*
1,1,0.17,0.04,-0.22*
1,1,0.17,-0.04,-0.22*
1,1,0.17,-0.04,0.22*
1,1,0.17,0.04,0.22*
%
%ADD28ROUNDEDRECTD28*%
%ADD29R,2.40X1.65*%
%ADD30O,0.30X0.85*%
%ADD31R,1.45X1.15*%
%ADD32R,1.15X1.45*%
%ADD33R,1.55X1.35*%
%ADD34R,0.95X1.35*%
%ADD35R,1.30X0.85*%
%ADD36R,1.05X1.40*%
%ADD37R,1.50X1.25*%
%ADD38R,1.00X1.00*%
%ADD39R,0.94X0.66*%
%ADD40R,0.00X0.00*%
%ADD41R,0.00X0.00*%
%ADD42R,0.66X0.84*%
%ADD43R,1.35X0.95*%
%ADD44R,1.35X1.55*%
%ADD45C,1.00*%
%ADD46C,0.64*%
%ADD47C,0.51*%
%ADD48C,0.38*%
%ADD49C,0.43*%
%ADD50C,0.25*%
%ADD51C,0.46*%
%ADD52C,0.76*%
%ADD53R,0.85X0.20*%
%ADD54R,2.85X1.58*%
%ADD55C,2.10*%
%ADD56C,1.50*%
%ADD57R,1.50X1.50*%
%ADD58R,1.50X1.50*%
%ADD59C,7.00*%
%ADD60C,0.50*%
%ADD61C,0.46*%
%ADD62C,0.61*%
%ADD63C,1.02*%
%ADD64C,2.22*%
%ADD65C,1.92*%
%ADD66C,4.22*%
%ADD67C,1.22*%
%ADD68C,1.22*%
%ADD69C,1.32*%
%ADD70C,0.25*%
%ADD71C,0.20*%
%ADD72C,0.10*%
%ADD73C,0.20*%
%ADD74C,0.60*%
%ADD75C,0.05*%
%ADD76R,0.58X0.17*%
%ADD77R,0.46X1.70*%
%ADD78R,0.65X0.19*%
%ADD79R,0.19X0.65*%
%ADD80R,1.70X0.46*%
%ADD81R,0.17X0.58*%
%ADD82R,0.70X0.70*%
%ADD83R,0.70X0.70*%
%ADD84R,1.00X0.65*%
%ADD85R,2.35X5.70*%
%ADD86R,3.20X7.70*%
%ADD87R,3.70X4.00*%
%ADD88O,0.45X0.90*%
%ADD89O,0.90X0.45*%
%ADD90R,1.80X1.80*%
%ADD91O,0.65X1.90*%
%ADD92R,1.04X0.86*%
%ADD93R,1.84X1.84*%
%ADD94O,0.99X0.42*%
%ADD95O,0.42X0.99*%
%ADD96R,1.60X1.25*%
%ADD97R,1.45X1.70*%
%ADD98R,1.05X1.50*%
%ADD99R,1.20X1.20*%
G04:AMPARAMS|DCode=100|XSize=0.44mm|YSize=0.8mm|CornerRadius=0.19mm|HoleSize=0mm|Usage=FLASHONLY|Rotation=0.000|XOffset=0mm|YOffset=0mm|HoleType=Round|Shape=RoundedRectangle|*
%AMROUNDEDRECTD100*
21,1,0.44,0.43,0,0,0.0*
21,1,0.07,0.80,0,0,0.0*
1,1,0.37,0.04,-0.22*
1,1,0.37,-0.04,-0.22*
1,1,0.37,-0.04,0.22*
1,1,0.37,0.04,0.22*
%
%ADD100ROUNDEDRECTD100*%
%ADD101R,2.54X1.79*%
%ADD102O,0.44X0.99*%
%ADD103R,1.65X1.35*%
%ADD104R,1.35X1.65*%
%ADD105R,1.75X1.55*%
%ADD106R,1.15X1.55*%
%ADD107R,1.50X1.05*%
%ADD108R,1.25X1.60*%
%ADD109R,1.70X1.45*%
%ADD110R,1.20X1.20*%
%ADD111R,0.86X1.04*%
%ADD112R,1.55X1.15*%
%ADD113R,1.55X1.75*%
%ADD114C,3.03*%
%ADD115R,1.05X0.40*%
%ADD116R,3.05X1.78*%
%ADD117C,2.30*%
%ADD118C,1.70*%
%ADD119R,1.70X1.70*%
%ADD120R,1.70X1.70*%
%ADD121C,7.20*%
%ADD122C,0.70*%
%ADD123C,0.66*%
%ADD124C,0.81*%
%ADD125C,0.50*%
%ADD126C,0.08*%
%ADD127C,0.41*%
D48*
X267Y-660D02*
X10119D01*
X267Y-2946D02*
X10119D01*
X267Y-3327D02*
X10119D01*
Y-279D01*
X267D02*
X10119D01*
X267Y-3327D02*
Y-279D01*
X8141Y-3327D02*
Y-279D01*
X6856Y-3327D02*
Y-279D01*
X3438Y-3327D02*
Y-279D01*
X1666Y-3327D02*
Y-279D01*
D50*
X8255Y-927D02*
Y-775D01*
X8332D01*
X8357Y-800D01*
Y-851D01*
X8332Y-876D01*
X8255D01*
X8306D02*
X8357Y-927D01*
X8433D02*
X8484D01*
X8509Y-902D01*
Y-851D01*
X8484Y-826D01*
X8433D01*
X8408Y-851D01*
Y-902D01*
X8433Y-927D01*
X8560Y-826D02*
Y-902D01*
X8586Y-927D01*
X8662D01*
Y-826D01*
X8712Y-927D02*
Y-826D01*
X8789D01*
X8814Y-851D01*
Y-927D01*
X8966Y-775D02*
Y-927D01*
X8890D01*
X8865Y-902D01*
Y-851D01*
X8890Y-826D01*
X8966D01*
X8255Y-1308D02*
Y-1156D01*
X8332D01*
X8357Y-1181D01*
Y-1232D01*
X8332Y-1257D01*
X8255D01*
X8306D02*
X8357Y-1308D01*
X8433D02*
X8484D01*
X8509Y-1283D01*
Y-1232D01*
X8484Y-1207D01*
X8433D01*
X8408Y-1232D01*
Y-1283D01*
X8433Y-1308D01*
X8560Y-1207D02*
Y-1283D01*
X8586Y-1308D01*
X8662D01*
Y-1207D01*
X8712Y-1308D02*
Y-1207D01*
X8789D01*
X8814Y-1232D01*
Y-1308D01*
X8966Y-1156D02*
Y-1308D01*
X8890D01*
X8865Y-1283D01*
Y-1232D01*
X8890Y-1207D01*
X8966D01*
X8255Y-1689D02*
Y-1537D01*
X8332D01*
X8357Y-1562D01*
Y-1613D01*
X8332Y-1638D01*
X8255D01*
X8306D02*
X8357Y-1689D01*
X8433D02*
X8484D01*
X8509Y-1664D01*
Y-1613D01*
X8484Y-1588D01*
X8433D01*
X8408Y-1613D01*
Y-1664D01*
X8433Y-1689D01*
X8560Y-1588D02*
Y-1664D01*
X8586Y-1689D01*
X8662D01*
Y-1588D01*
X8712Y-1689D02*
Y-1588D01*
X8789D01*
X8814Y-1613D01*
Y-1689D01*
X8966Y-1537D02*
Y-1689D01*
X8890D01*
X8865Y-1664D01*
Y-1613D01*
X8890Y-1588D01*
X8966D01*
X8255Y-2070D02*
Y-1918D01*
X8332D01*
X8357Y-1943D01*
Y-1994D01*
X8332Y-2019D01*
X8255D01*
X8306D02*
X8357Y-2070D01*
X8433D02*
X8484D01*
X8509Y-2045D01*
Y-1994D01*
X8484Y-1969D01*
X8433D01*
X8408Y-1994D01*
Y-2045D01*
X8433Y-2070D01*
X8560Y-1969D02*
Y-2045D01*
X8586Y-2070D01*
X8662D01*
Y-1969D01*
X8712Y-2070D02*
Y-1969D01*
X8789D01*
X8814Y-1994D01*
Y-2070D01*
X8966Y-1918D02*
Y-2070D01*
X8890D01*
X8865Y-2045D01*
Y-1994D01*
X8890Y-1969D01*
X8966D01*
X8255Y-2451D02*
Y-2299D01*
X8332D01*
X8357Y-2324D01*
Y-2375D01*
X8332Y-2400D01*
X8255D01*
X8306D02*
X8357Y-2451D01*
X8433D02*
X8484D01*
X8509Y-2426D01*
Y-2375D01*
X8484Y-2350D01*
X8433D01*
X8408Y-2375D01*
Y-2426D01*
X8433Y-2451D01*
X8560Y-2350D02*
Y-2426D01*
X8586Y-2451D01*
X8662D01*
Y-2350D01*
X8712Y-2451D02*
Y-2350D01*
X8789D01*
X8814Y-2375D01*
Y-2451D01*
X8966Y-2299D02*
Y-2451D01*
X8890D01*
X8865Y-2426D01*
Y-2375D01*
X8890Y-2350D01*
X8966D01*
X8255Y-2832D02*
Y-2680D01*
X8332D01*
X8357Y-2705D01*
Y-2756D01*
X8332Y-2781D01*
X8255D01*
X8306D02*
X8357Y-2832D01*
X8433D02*
X8484D01*
X8509Y-2807D01*
Y-2756D01*
X8484Y-2731D01*
X8433D01*
X8408Y-2756D01*
Y-2807D01*
X8433Y-2832D01*
X8560Y-2731D02*
Y-2807D01*
X8586Y-2832D01*
X8662D01*
Y-2731D01*
X8712Y-2832D02*
Y-2731D01*
X8789D01*
X8814Y-2756D01*
Y-2832D01*
X8966Y-2680D02*
Y-2832D01*
X8890D01*
X8865Y-2807D01*
Y-2756D01*
X8890Y-2731D01*
X8966D01*
X6971Y-927D02*
Y-775D01*
X7047D01*
X7072Y-800D01*
Y-851D01*
X7047Y-876D01*
X6971D01*
X7123Y-775D02*
X7224D01*
X7174D01*
Y-927D01*
X7275Y-775D02*
Y-927D01*
Y-851D01*
X7377D01*
Y-775D01*
Y-927D01*
X6971Y-1308D02*
Y-1156D01*
X7047D01*
X7072Y-1181D01*
Y-1232D01*
X7047Y-1257D01*
X6971D01*
X7123Y-1156D02*
X7224D01*
X7174D01*
Y-1308D01*
X7275Y-1156D02*
Y-1308D01*
Y-1232D01*
X7377D01*
Y-1156D01*
Y-1308D01*
X6971Y-1689D02*
Y-1537D01*
X7047D01*
X7072Y-1562D01*
Y-1613D01*
X7047Y-1638D01*
X6971D01*
X7123Y-1537D02*
X7224D01*
X7174D01*
Y-1689D01*
X7275Y-1537D02*
Y-1689D01*
Y-1613D01*
X7377D01*
Y-1537D01*
Y-1689D01*
X6971Y-2070D02*
Y-1918D01*
X7047D01*
X7072Y-1943D01*
Y-1994D01*
X7047Y-2019D01*
X6971D01*
X7123Y-1918D02*
X7224D01*
X7174D01*
Y-2070D01*
X7275Y-1918D02*
Y-2070D01*
Y-1994D01*
X7377D01*
Y-1918D01*
Y-2070D01*
X6971Y-2451D02*
Y-2299D01*
X7047D01*
X7072Y-2324D01*
Y-2375D01*
X7047Y-2400D01*
X6971D01*
X7123Y-2299D02*
X7224D01*
X7174D01*
Y-2451D01*
X7275Y-2299D02*
Y-2451D01*
Y-2375D01*
X7377D01*
Y-2299D01*
Y-2451D01*
X6971Y-2832D02*
Y-2680D01*
X7047D01*
X7072Y-2705D01*
Y-2756D01*
X7047Y-2781D01*
X6971D01*
X7123Y-2680D02*
X7224D01*
X7174D01*
Y-2832D01*
X7275Y-2680D02*
Y-2832D01*
Y-2756D01*
X7377D01*
Y-2680D01*
Y-2832D01*
X3553Y-927D02*
X3603D01*
X3578D01*
Y-775D01*
X3553Y-800D01*
X3781Y-927D02*
X3680D01*
X3781Y-826D01*
Y-800D01*
X3756Y-775D01*
X3705D01*
X3680Y-800D01*
X3934Y-775D02*
X3832D01*
Y-851D01*
X3883Y-826D01*
X3908D01*
X3934Y-851D01*
Y-902D01*
X3908Y-927D01*
X3857D01*
X3832Y-902D01*
X3984Y-927D02*
Y-902D01*
X4010D01*
Y-927D01*
X3984D01*
X4111Y-902D02*
X4137Y-927D01*
X4187D01*
X4213Y-902D01*
Y-800D01*
X4187Y-775D01*
X4137D01*
X4111Y-800D01*
Y-826D01*
X4137Y-851D01*
X4213D01*
X4264Y-800D02*
X4289Y-775D01*
X4340D01*
X4365Y-800D01*
Y-826D01*
X4340Y-851D01*
X4365Y-876D01*
Y-902D01*
X4340Y-927D01*
X4289D01*
X4264Y-902D01*
Y-876D01*
X4289Y-851D01*
X4264Y-826D01*
Y-800D01*
X4289Y-851D02*
X4340D01*
X4416Y-927D02*
Y-826D01*
X4441D01*
X4467Y-851D01*
Y-927D01*
Y-851D01*
X4492Y-826D01*
X4518Y-851D01*
Y-927D01*
X4568D02*
X4619D01*
X4594D01*
Y-826D01*
X4568D01*
X4695Y-927D02*
X4746D01*
X4721D01*
Y-775D01*
X4695D01*
X5025Y-927D02*
X4975Y-876D01*
Y-826D01*
X5025Y-775D01*
X5102Y-800D02*
X5127Y-775D01*
X5178D01*
X5203Y-800D01*
Y-826D01*
X5178Y-851D01*
X5152D01*
X5178D01*
X5203Y-876D01*
Y-902D01*
X5178Y-927D01*
X5127D01*
X5102Y-902D01*
X5254Y-927D02*
Y-902D01*
X5279D01*
Y-927D01*
X5254D01*
X5482D02*
X5381D01*
X5482Y-826D01*
Y-800D01*
X5457Y-775D01*
X5406D01*
X5381Y-800D01*
X5533D02*
X5559Y-775D01*
X5609D01*
X5635Y-800D01*
Y-902D01*
X5609Y-927D01*
X5559D01*
X5533Y-902D01*
Y-800D01*
X5686D02*
X5711Y-775D01*
X5762D01*
X5787Y-800D01*
Y-902D01*
X5762Y-927D01*
X5711D01*
X5686Y-902D01*
Y-800D01*
X5838Y-927D02*
Y-826D01*
X5863D01*
X5889Y-851D01*
Y-927D01*
Y-851D01*
X5914Y-826D01*
X5939Y-851D01*
Y-927D01*
X5990D02*
Y-826D01*
X6016D01*
X6041Y-851D01*
Y-927D01*
Y-851D01*
X6066Y-826D01*
X6092Y-851D01*
Y-927D01*
X6143D02*
X6193Y-876D01*
Y-826D01*
X6143Y-775D01*
X3629Y-1308D02*
Y-1156D01*
X3553Y-1232D01*
X3654D01*
X3705Y-1156D02*
X3807D01*
Y-1181D01*
X3705Y-1283D01*
Y-1308D01*
X3857D02*
Y-1283D01*
X3883D01*
Y-1308D01*
X3857D01*
X4086D02*
X3984D01*
X4086Y-1207D01*
Y-1181D01*
X4061Y-1156D01*
X4010D01*
X3984Y-1181D01*
X4213Y-1308D02*
Y-1156D01*
X4137Y-1232D01*
X4238D01*
X4289Y-1308D02*
Y-1207D01*
X4314D01*
X4340Y-1232D01*
Y-1308D01*
Y-1232D01*
X4365Y-1207D01*
X4391Y-1232D01*
Y-1308D01*
X4441D02*
X4492D01*
X4467D01*
Y-1207D01*
X4441D01*
X4568Y-1308D02*
X4619D01*
X4594D01*
Y-1156D01*
X4568D01*
X4898Y-1308D02*
X4848Y-1257D01*
Y-1207D01*
X4898Y-1156D01*
X4975Y-1308D02*
X5025D01*
X5000D01*
Y-1156D01*
X4975Y-1181D01*
X5102Y-1308D02*
Y-1283D01*
X5127D01*
Y-1308D01*
X5102D01*
X5330D02*
X5229D01*
X5330Y-1207D01*
Y-1181D01*
X5305Y-1156D01*
X5254D01*
X5229Y-1181D01*
X5381D02*
X5406Y-1156D01*
X5457D01*
X5482Y-1181D01*
Y-1283D01*
X5457Y-1308D01*
X5406D01*
X5381Y-1283D01*
Y-1181D01*
X5533D02*
X5559Y-1156D01*
X5609D01*
X5635Y-1181D01*
Y-1283D01*
X5609Y-1308D01*
X5559D01*
X5533Y-1283D01*
Y-1181D01*
X5686Y-1308D02*
Y-1207D01*
X5711D01*
X5736Y-1232D01*
Y-1308D01*
Y-1232D01*
X5762Y-1207D01*
X5787Y-1232D01*
Y-1308D01*
X5838D02*
Y-1207D01*
X5863D01*
X5889Y-1232D01*
Y-1308D01*
Y-1232D01*
X5914Y-1207D01*
X5939Y-1232D01*
Y-1308D01*
X5990D02*
X6041Y-1257D01*
Y-1207D01*
X5990Y-1156D01*
X3553Y-1562D02*
X3578Y-1537D01*
X3629D01*
X3654Y-1562D01*
Y-1588D01*
X3629Y-1613D01*
X3654Y-1638D01*
Y-1664D01*
X3629Y-1689D01*
X3578D01*
X3553Y-1664D01*
Y-1638D01*
X3578Y-1613D01*
X3553Y-1588D01*
Y-1562D01*
X3578Y-1613D02*
X3629D01*
X3705Y-1689D02*
Y-1664D01*
X3730D01*
Y-1689D01*
X3705D01*
X3832Y-1562D02*
X3857Y-1537D01*
X3908D01*
X3934Y-1562D01*
Y-1664D01*
X3908Y-1689D01*
X3857D01*
X3832Y-1664D01*
Y-1562D01*
X3984D02*
X4010Y-1537D01*
X4061D01*
X4086Y-1562D01*
Y-1664D01*
X4061Y-1689D01*
X4010D01*
X3984Y-1664D01*
Y-1562D01*
X4137Y-1689D02*
Y-1588D01*
X4162D01*
X4187Y-1613D01*
Y-1689D01*
Y-1613D01*
X4213Y-1588D01*
X4238Y-1613D01*
Y-1689D01*
X4289D02*
X4340D01*
X4314D01*
Y-1588D01*
X4289D01*
X4416Y-1689D02*
X4467D01*
X4441D01*
Y-1537D01*
X4416D01*
X4746Y-1689D02*
X4695Y-1638D01*
Y-1588D01*
X4746Y-1537D01*
X4822Y-1562D02*
X4848Y-1537D01*
X4898D01*
X4924Y-1562D01*
Y-1664D01*
X4898Y-1689D01*
X4848D01*
X4822Y-1664D01*
Y-1562D01*
X4975Y-1689D02*
Y-1664D01*
X5000D01*
Y-1689D01*
X4975D01*
X5203D02*
X5102D01*
X5203Y-1588D01*
Y-1562D01*
X5178Y-1537D01*
X5127D01*
X5102Y-1562D01*
X5254D02*
X5279Y-1537D01*
X5330D01*
X5355Y-1562D01*
Y-1664D01*
X5330Y-1689D01*
X5279D01*
X5254Y-1664D01*
Y-1562D01*
X5406D02*
X5432Y-1537D01*
X5482D01*
X5508Y-1562D01*
Y-1588D01*
X5482Y-1613D01*
X5457D01*
X5482D01*
X5508Y-1638D01*
Y-1664D01*
X5482Y-1689D01*
X5432D01*
X5406Y-1664D01*
X5559Y-1689D02*
Y-1588D01*
X5584D01*
X5609Y-1613D01*
Y-1689D01*
Y-1613D01*
X5635Y-1588D01*
X5660Y-1613D01*
Y-1689D01*
X5711D02*
Y-1588D01*
X5736D01*
X5762Y-1613D01*
Y-1689D01*
Y-1613D01*
X5787Y-1588D01*
X5813Y-1613D01*
Y-1689D01*
X5863D02*
X5914Y-1638D01*
Y-1588D01*
X5863Y-1537D01*
X3553Y-1918D02*
X3654D01*
Y-1943D01*
X3553Y-2045D01*
Y-2070D01*
X3705D02*
Y-2045D01*
X3730D01*
Y-2070D01*
X3705D01*
X3832Y-1943D02*
X3857Y-1918D01*
X3908D01*
X3934Y-1943D01*
Y-1969D01*
X3908Y-1994D01*
X3934Y-2019D01*
Y-2045D01*
X3908Y-2070D01*
X3857D01*
X3832Y-2045D01*
Y-2019D01*
X3857Y-1994D01*
X3832Y-1969D01*
Y-1943D01*
X3857Y-1994D02*
X3908D01*
X3984Y-1918D02*
X4086D01*
Y-1943D01*
X3984Y-2045D01*
Y-2070D01*
X4137D02*
Y-1969D01*
X4162D01*
X4187Y-1994D01*
Y-2070D01*
Y-1994D01*
X4213Y-1969D01*
X4238Y-1994D01*
Y-2070D01*
X4289D02*
X4340D01*
X4314D01*
Y-1969D01*
X4289D01*
X4416Y-2070D02*
X4467D01*
X4441D01*
Y-1918D01*
X4416D01*
X4746Y-2070D02*
X4695Y-2019D01*
Y-1969D01*
X4746Y-1918D01*
X4822Y-1943D02*
X4848Y-1918D01*
X4898D01*
X4924Y-1943D01*
Y-2045D01*
X4898Y-2070D01*
X4848D01*
X4822Y-2045D01*
Y-1943D01*
X4975Y-2070D02*
Y-2045D01*
X5000D01*
Y-2070D01*
X4975D01*
X5203D02*
X5102D01*
X5203Y-1969D01*
Y-1943D01*
X5178Y-1918D01*
X5127D01*
X5102Y-1943D01*
X5254D02*
X5279Y-1918D01*
X5330D01*
X5355Y-1943D01*
Y-2045D01*
X5330Y-2070D01*
X5279D01*
X5254Y-2045D01*
Y-1943D01*
X5406D02*
X5432Y-1918D01*
X5482D01*
X5508Y-1943D01*
Y-2045D01*
X5482Y-2070D01*
X5432D01*
X5406Y-2045D01*
Y-1943D01*
X5559Y-2070D02*
Y-1969D01*
X5584D01*
X5609Y-1994D01*
Y-2070D01*
Y-1994D01*
X5635Y-1969D01*
X5660Y-1994D01*
Y-2070D01*
X5711D02*
Y-1969D01*
X5736D01*
X5762Y-1994D01*
Y-2070D01*
Y-1994D01*
X5787Y-1969D01*
X5813Y-1994D01*
Y-2070D01*
X5863D02*
X5914Y-2019D01*
Y-1969D01*
X5863Y-1918D01*
X3553Y-2324D02*
X3578Y-2299D01*
X3629D01*
X3654Y-2324D01*
Y-2350D01*
X3629Y-2375D01*
X3603D01*
X3629D01*
X3654Y-2400D01*
Y-2426D01*
X3629Y-2451D01*
X3578D01*
X3553Y-2426D01*
X3807Y-2299D02*
X3705D01*
Y-2375D01*
X3756Y-2350D01*
X3781D01*
X3807Y-2375D01*
Y-2426D01*
X3781Y-2451D01*
X3730D01*
X3705Y-2426D01*
X3857Y-2451D02*
Y-2426D01*
X3883D01*
Y-2451D01*
X3857D01*
X4061D02*
Y-2299D01*
X3984Y-2375D01*
X4086D01*
X4137Y-2324D02*
X4162Y-2299D01*
X4213D01*
X4238Y-2324D01*
Y-2350D01*
X4213Y-2375D01*
X4187D01*
X4213D01*
X4238Y-2400D01*
Y-2426D01*
X4213Y-2451D01*
X4162D01*
X4137Y-2426D01*
X4289Y-2451D02*
Y-2350D01*
X4314D01*
X4340Y-2375D01*
Y-2451D01*
Y-2375D01*
X4365Y-2350D01*
X4391Y-2375D01*
Y-2451D01*
X4441D02*
X4492D01*
X4467D01*
Y-2350D01*
X4441D01*
X4568Y-2451D02*
X4619D01*
X4594D01*
Y-2299D01*
X4568D01*
X4898Y-2451D02*
X4848Y-2400D01*
Y-2350D01*
X4898Y-2299D01*
X4975Y-2324D02*
X5000Y-2299D01*
X5051D01*
X5076Y-2324D01*
Y-2426D01*
X5051Y-2451D01*
X5000D01*
X4975Y-2426D01*
Y-2324D01*
X5127Y-2451D02*
Y-2426D01*
X5152D01*
Y-2451D01*
X5127D01*
X5254Y-2426D02*
X5279Y-2451D01*
X5330D01*
X5355Y-2426D01*
Y-2324D01*
X5330Y-2299D01*
X5279D01*
X5254Y-2324D01*
Y-2350D01*
X5279Y-2375D01*
X5355D01*
X5406Y-2324D02*
X5432Y-2299D01*
X5482D01*
X5508Y-2324D01*
Y-2426D01*
X5482Y-2451D01*
X5432D01*
X5406Y-2426D01*
Y-2324D01*
X5559D02*
X5584Y-2299D01*
X5635D01*
X5660Y-2324D01*
Y-2426D01*
X5635Y-2451D01*
X5584D01*
X5559Y-2426D01*
Y-2324D01*
X5711Y-2451D02*
Y-2350D01*
X5736D01*
X5762Y-2375D01*
Y-2451D01*
Y-2375D01*
X5787Y-2350D01*
X5813Y-2375D01*
Y-2451D01*
X5863D02*
Y-2350D01*
X5889D01*
X5914Y-2375D01*
Y-2451D01*
Y-2375D01*
X5939Y-2350D01*
X5965Y-2375D01*
Y-2451D01*
X6016D02*
X6066Y-2400D01*
Y-2350D01*
X6016Y-2299D01*
X3553Y-2832D02*
X3603D01*
X3578D01*
Y-2680D01*
X3553Y-2705D01*
X3781Y-2832D02*
X3680D01*
X3781Y-2731D01*
Y-2705D01*
X3756Y-2680D01*
X3705D01*
X3680Y-2705D01*
X3832Y-2832D02*
Y-2807D01*
X3857D01*
Y-2832D01*
X3832D01*
X3959Y-2705D02*
X3984Y-2680D01*
X4035D01*
X4061Y-2705D01*
Y-2807D01*
X4035Y-2832D01*
X3984D01*
X3959Y-2807D01*
Y-2705D01*
X4111D02*
X4137Y-2680D01*
X4187D01*
X4213Y-2705D01*
Y-2807D01*
X4187Y-2832D01*
X4137D01*
X4111Y-2807D01*
Y-2705D01*
X4264Y-2832D02*
Y-2731D01*
X4289D01*
X4314Y-2756D01*
Y-2832D01*
Y-2756D01*
X4340Y-2731D01*
X4365Y-2756D01*
Y-2832D01*
X4416D02*
X4467D01*
X4441D01*
Y-2731D01*
X4416D01*
X4543Y-2832D02*
X4594D01*
X4568D01*
Y-2680D01*
X4543D01*
X4873Y-2832D02*
X4822Y-2781D01*
Y-2731D01*
X4873Y-2680D01*
X4949Y-2705D02*
X4975Y-2680D01*
X5025D01*
X5051Y-2705D01*
Y-2807D01*
X5025Y-2832D01*
X4975D01*
X4949Y-2807D01*
Y-2705D01*
X5102Y-2832D02*
Y-2807D01*
X5127D01*
Y-2832D01*
X5102D01*
X5229Y-2705D02*
X5254Y-2680D01*
X5305D01*
X5330Y-2705D01*
Y-2731D01*
X5305Y-2756D01*
X5279D01*
X5305D01*
X5330Y-2781D01*
Y-2807D01*
X5305Y-2832D01*
X5254D01*
X5229Y-2807D01*
X5381Y-2705D02*
X5406Y-2680D01*
X5457D01*
X5482Y-2705D01*
Y-2807D01*
X5457Y-2832D01*
X5406D01*
X5381Y-2807D01*
Y-2705D01*
X5635Y-2680D02*
X5533D01*
Y-2756D01*
X5584Y-2731D01*
X5609D01*
X5635Y-2756D01*
Y-2807D01*
X5609Y-2832D01*
X5559D01*
X5533Y-2807D01*
X5686Y-2832D02*
Y-2731D01*
X5711D01*
X5736Y-2756D01*
Y-2832D01*
Y-2756D01*
X5762Y-2731D01*
X5787Y-2756D01*
Y-2832D01*
X5838D02*
Y-2731D01*
X5863D01*
X5889Y-2756D01*
Y-2832D01*
Y-2756D01*
X5914Y-2731D01*
X5939Y-2756D01*
Y-2832D01*
X5990D02*
X6041Y-2781D01*
Y-2731D01*
X5990Y-2680D01*
X1780Y-3213D02*
X1831D01*
X1806D01*
Y-3061D01*
X1780Y-3086D01*
X1983Y-3213D02*
Y-3061D01*
X1907Y-3137D01*
X2009D01*
X2136Y-3213D02*
Y-3061D01*
X2060Y-3137D01*
X2161D01*
X2364Y-3061D02*
X2466D01*
X2415D01*
Y-3213D01*
X2542D02*
X2593D01*
X2618Y-3188D01*
Y-3137D01*
X2593Y-3112D01*
X2542D01*
X2517Y-3137D01*
Y-3188D01*
X2542Y-3213D01*
X2694Y-3086D02*
Y-3112D01*
X2669D01*
X2720D01*
X2694D01*
Y-3188D01*
X2720Y-3213D01*
X2821Y-3112D02*
X2872D01*
X2897Y-3137D01*
Y-3213D01*
X2821D01*
X2796Y-3188D01*
X2821Y-3162D01*
X2897D01*
X2948Y-3213D02*
X2999D01*
X2974D01*
Y-3061D01*
X2948D01*
X1856Y-927D02*
Y-775D01*
X1780Y-851D01*
X1882D01*
X1780Y-1308D02*
X1831D01*
X1806D01*
Y-1156D01*
X1780Y-1181D01*
X2009Y-1308D02*
X1907D01*
X2009Y-1207D01*
Y-1181D01*
X1983Y-1156D01*
X1933D01*
X1907Y-1181D01*
X1780Y-1689D02*
X1831D01*
X1806D01*
Y-1537D01*
X1780Y-1562D01*
X2009Y-1537D02*
X1907D01*
Y-1613D01*
X1958Y-1588D01*
X1983D01*
X2009Y-1613D01*
Y-1664D01*
X1983Y-1689D01*
X1933D01*
X1907Y-1664D01*
X1780Y-2070D02*
X1831D01*
X1806D01*
Y-1918D01*
X1780Y-1943D01*
X1907Y-1918D02*
X2009D01*
Y-1943D01*
X1907Y-2045D01*
Y-2070D01*
X1882Y-2451D02*
X1780D01*
X1882Y-2350D01*
Y-2324D01*
X1856Y-2299D01*
X1806D01*
X1780Y-2324D01*
X1933D02*
X1958Y-2299D01*
X2009D01*
X2034Y-2324D01*
Y-2426D01*
X2009Y-2451D01*
X1958D01*
X1933Y-2426D01*
Y-2324D01*
X1780Y-2680D02*
X1882D01*
Y-2705D01*
X1780Y-2807D01*
Y-2832D01*
X2034Y-2680D02*
X1983Y-2705D01*
X1933Y-2756D01*
Y-2807D01*
X1958Y-2832D01*
X2009D01*
X2034Y-2807D01*
Y-2781D01*
X2009Y-2756D01*
X1933D01*
D126*
X567Y-2388D02*
G03*
X567Y-2388I-63J0D01*
G01*
X3191Y4735D02*
G03*
X3191Y4735I-42J0D01*
G01*
Y4481D02*
G03*
X3191Y4481I-42J0D01*
G01*
X3953Y4735D02*
G03*
X3953Y4735I-42J0D01*
G01*
Y4481D02*
G03*
X3953Y4481I-42J0D01*
G01*
X1820Y4159D02*
G03*
X1820Y4159I-42J0D01*
G01*
X1566D02*
G03*
X1566Y4159I-42J0D01*
G01*
X8437Y6487D02*
G03*
X8437Y6487I-42J0D01*
G01*
Y6741D02*
G03*
X8437Y6741I-42J0D01*
G01*
X7078Y6763D02*
G03*
X7078Y6763I-42J0D01*
G01*
X6824D02*
G03*
X6824Y6763I-42J0D01*
G01*
X5084Y878D02*
G03*
X5084Y878I-42J0D01*
G01*
Y624D02*
G03*
X5084Y624I-42J0D01*
G01*
X5846Y878D02*
G03*
X5846Y878I-42J0D01*
G01*
Y624D02*
G03*
X5846Y624I-42J0D01*
G01*
X1820Y8410D02*
G03*
X1820Y8410I-42J0D01*
G01*
X2582D02*
G03*
X2582Y8410I-42J0D01*
G01*
X1820Y8156D02*
G03*
X1820Y8156I-42J0D01*
G01*
X2582D02*
G03*
X2582Y8156I-42J0D01*
G01*
X2773Y4045D02*
G03*
X2773Y4045I-42J0D01*
G01*
X3027D02*
G03*
X3027Y4045I-42J0D01*
G01*
X440Y-895D02*
X471D01*
X440D02*
Y-832D01*
X471D01*
Y-800D01*
X535D01*
Y-832D02*
Y-800D01*
Y-832D02*
X567D01*
Y-895D02*
Y-832D01*
X535Y-895D02*
X567D01*
X535Y-927D02*
Y-895D01*
X471Y-927D02*
X535D01*
X471D02*
Y-895D01*
X503Y-1308D02*
X567Y-1181D01*
X440D02*
X567D01*
X440D02*
X503Y-1308D01*
X471Y-1657D02*
X503Y-1689D01*
X440Y-1657D02*
X471D01*
X440D02*
X471Y-1626D01*
X440Y-1594D02*
X471Y-1626D01*
X440Y-1594D02*
X471D01*
X503Y-1562D01*
X535Y-1594D01*
X567D01*
X535Y-1626D02*
X567Y-1594D01*
X535Y-1626D02*
X567Y-1657D01*
X535D02*
X567D01*
X503Y-1689D02*
X535Y-1657D01*
X440Y-2070D02*
X567D01*
Y-1943D01*
X440D02*
X567D01*
X440Y-2070D02*
Y-1943D01*
Y-2832D02*
Y-2800D01*
X471Y-2769D01*
X440Y-2737D02*
X471Y-2769D01*
X440Y-2737D02*
Y-2705D01*
X471D01*
X503Y-2737D01*
X535Y-2705D01*
X567D01*
Y-2737D02*
Y-2705D01*
X535Y-2769D02*
X567Y-2737D01*
X535Y-2769D02*
X567Y-2800D01*
Y-2832D02*
Y-2800D01*
X535Y-2832D02*
X567D01*
X503Y-2800D02*
X535Y-2832D01*
X471D02*
X503Y-2800D01*
X440Y-2832D02*
X471D01*
X4822Y872D02*
Y893D01*
X4843Y914D01*
X4822Y936D02*
X4843Y914D01*
X4822Y936D02*
Y957D01*
X4843D01*
X4864Y936D01*
X4885Y957D01*
X4906D01*
Y936D02*
Y957D01*
X4885Y914D02*
X4906Y936D01*
X4885Y914D02*
X4906Y893D01*
Y872D02*
Y893D01*
X4885Y872D02*
X4906D01*
X4864Y893D02*
X4885Y872D01*
X4843D02*
X4864Y893D01*
X4822Y872D02*
X4843D01*
X7247Y5907D02*
Y5929D01*
X7268Y5950D01*
X7247Y5971D02*
X7268Y5950D01*
X7247Y5971D02*
Y5992D01*
X7268D01*
X7290Y5971D01*
X7311Y5992D01*
X7332D01*
Y5971D02*
Y5992D01*
X7311Y5950D02*
X7332Y5971D01*
X7311Y5950D02*
X7332Y5929D01*
Y5907D02*
Y5929D01*
X7311Y5907D02*
X7332D01*
X7290Y5929D02*
X7311Y5907D01*
X7268D02*
X7290Y5929D01*
X7247Y5907D02*
X7268D01*
X7108Y6106D02*
Y6128D01*
X7129Y6149D01*
X7108Y6170D02*
X7129Y6149D01*
X7108Y6170D02*
Y6191D01*
X7129D01*
X7150Y6170D01*
X7171Y6191D01*
X7192D01*
Y6170D02*
Y6191D01*
X7171Y6149D02*
X7192Y6170D01*
X7171Y6149D02*
X7192Y6128D01*
Y6106D02*
Y6128D01*
X7171Y6106D02*
X7192D01*
X7150Y6128D02*
X7171Y6106D01*
X7129D02*
X7150Y6128D01*
X7108Y6106D02*
X7129D01*
X7235Y4606D02*
Y4627D01*
X7256Y4648D01*
X7235Y4669D02*
X7256Y4648D01*
X7235Y4669D02*
Y4691D01*
X7256D01*
X7277Y4669D01*
X7298Y4691D01*
X7319D01*
Y4669D02*
Y4691D01*
X7298Y4648D02*
X7319Y4669D01*
X7298Y4648D02*
X7319Y4627D01*
Y4606D02*
Y4627D01*
X7298Y4606D02*
X7319D01*
X7277Y4627D02*
X7298Y4606D01*
X7256D02*
X7277Y4627D01*
X7235Y4606D02*
X7256D01*
X3407Y7312D02*
Y7334D01*
X3428Y7355D01*
X3407Y7376D02*
X3428Y7355D01*
X3407Y7376D02*
Y7397D01*
X3428D01*
X3449Y7376D01*
X3471Y7397D01*
X3492D01*
Y7376D02*
Y7397D01*
X3471Y7355D02*
X3492Y7376D01*
X3471Y7355D02*
X3492Y7334D01*
Y7312D02*
Y7334D01*
X3471Y7312D02*
X3492D01*
X3449Y7334D02*
X3471Y7312D01*
X3428D02*
X3449Y7334D01*
X3407Y7312D02*
X3428D01*
X1968Y3660D02*
Y3681D01*
X1989Y3703D01*
X1968Y3724D02*
X1989Y3703D01*
X1968Y3724D02*
Y3745D01*
X1989D01*
X2010Y3724D01*
X2032Y3745D01*
X2053D01*
Y3724D02*
Y3745D01*
X2032Y3703D02*
X2053Y3724D01*
X2032Y3703D02*
X2053Y3681D01*
Y3660D02*
Y3681D01*
X2032Y3660D02*
X2053D01*
X2010Y3681D02*
X2032Y3660D01*
X1989D02*
X2010Y3681D01*
X1968Y3660D02*
X1989D01*
X3318Y3524D02*
Y3545D01*
X3339Y3567D01*
X3318Y3588D02*
X3339Y3567D01*
X3318Y3588D02*
Y3609D01*
X3339D01*
X3361Y3588D01*
X3382Y3609D01*
X3403D01*
Y3588D02*
Y3609D01*
X3382Y3567D02*
X3403Y3588D01*
X3382Y3567D02*
X3403Y3545D01*
Y3524D02*
Y3545D01*
X3382Y3524D02*
X3403D01*
X3361Y3545D02*
X3382Y3524D01*
X3339D02*
X3361Y3545D01*
X3318Y3524D02*
X3339D01*
X3293Y3092D02*
Y3114D01*
X3314Y3135D01*
X3293Y3156D02*
X3314Y3135D01*
X3293Y3156D02*
Y3177D01*
X3314D01*
X3335Y3156D01*
X3356Y3177D01*
X3377D01*
Y3156D02*
Y3177D01*
X3356Y3135D02*
X3377Y3156D01*
X3356Y3135D02*
X3377Y3114D01*
Y3092D02*
Y3114D01*
X3356Y3092D02*
X3377D01*
X3335Y3114D02*
X3356Y3092D01*
X3314D02*
X3335Y3114D01*
X3293Y3092D02*
X3314D01*
X2675Y7971D02*
Y7993D01*
X2697Y8014D01*
X2675Y8035D02*
X2697Y8014D01*
X2675Y8035D02*
Y8056D01*
X2697D01*
X2718Y8035D01*
X2739Y8056D01*
X2760D01*
Y8035D02*
Y8056D01*
X2739Y8014D02*
X2760Y8035D01*
X2739Y8014D02*
X2760Y7993D01*
Y7971D02*
Y7993D01*
X2739Y7971D02*
X2760D01*
X2718Y7993D02*
X2739Y7971D01*
X2697D02*
X2718Y7993D01*
X2675Y7971D02*
X2697D01*
X3069Y7413D02*
Y7434D01*
X3090Y7455D01*
X3069Y7476D02*
X3090Y7455D01*
X3069Y7476D02*
Y7497D01*
X3090D01*
X3111Y7476D01*
X3133Y7497D01*
X3154D01*
Y7476D02*
Y7497D01*
X3133Y7455D02*
X3154Y7476D01*
X3133Y7455D02*
X3154Y7434D01*
Y7413D02*
Y7434D01*
X3133Y7413D02*
X3154D01*
X3111Y7434D02*
X3133Y7413D01*
X3090D02*
X3111Y7434D01*
X3069Y7413D02*
X3090D01*
X3183Y7552D02*
Y7573D01*
X3205Y7595D01*
X3183Y7616D02*
X3205Y7595D01*
X3183Y7616D02*
Y7637D01*
X3205D01*
X3226Y7616D01*
X3247Y7637D01*
X3268D01*
Y7616D02*
Y7637D01*
X3247Y7595D02*
X3268Y7616D01*
X3247Y7595D02*
X3268Y7573D01*
Y7552D02*
Y7573D01*
X3247Y7552D02*
X3268D01*
X3226Y7573D02*
X3247Y7552D01*
X3205D02*
X3226Y7573D01*
X3183Y7552D02*
X3205D01*
X5977Y1647D02*
Y1668D01*
X5999Y1689D01*
X5977Y1710D02*
X5999Y1689D01*
X5977Y1710D02*
Y1731D01*
X5999D01*
X6020Y1710D01*
X6041Y1731D01*
X6062D01*
Y1710D02*
Y1731D01*
X6041Y1689D02*
X6062Y1710D01*
X6041Y1689D02*
X6062Y1668D01*
Y1647D02*
Y1668D01*
X6041Y1647D02*
X6062D01*
X6020Y1668D02*
X6041Y1647D01*
X5999D02*
X6020Y1668D01*
X5977Y1647D02*
X5999D01*
X1139Y3825D02*
Y3846D01*
X1160Y3867D01*
X1139Y3888D02*
X1160Y3867D01*
X1139Y3888D02*
Y3909D01*
X1160D01*
X1181Y3888D01*
X1202Y3909D01*
X1223D01*
Y3888D02*
Y3909D01*
X1202Y3867D02*
X1223Y3888D01*
X1202Y3867D02*
X1223Y3846D01*
Y3825D02*
Y3846D01*
X1202Y3825D02*
X1223D01*
X1181Y3846D02*
X1202Y3825D01*
X1160D02*
X1181Y3846D01*
X1139Y3825D02*
X1160D01*
X8060Y6682D02*
Y6703D01*
X8081Y6725D01*
X8060Y6746D02*
X8081Y6725D01*
X8060Y6746D02*
Y6767D01*
X8081D01*
X8102Y6746D01*
X8124Y6767D01*
X8145D01*
Y6746D02*
Y6767D01*
X8124Y6725D02*
X8145Y6746D01*
X8124Y6725D02*
X8145Y6703D01*
Y6682D02*
Y6703D01*
X8124Y6682D02*
X8145D01*
X8102Y6703D02*
X8124Y6682D01*
X8081D02*
X8102Y6703D01*
X8060Y6682D02*
X8081D01*
X8085Y6047D02*
Y6068D01*
X8107Y6090D01*
X8085Y6111D02*
X8107Y6090D01*
X8085Y6111D02*
Y6132D01*
X8107D01*
X8128Y6111D01*
X8149Y6132D01*
X8170D01*
Y6111D02*
Y6132D01*
X8149Y6090D02*
X8170Y6111D01*
X8149Y6090D02*
X8170Y6068D01*
Y6047D02*
Y6068D01*
X8149Y6047D02*
X8170D01*
X8128Y6068D02*
X8149Y6047D01*
X8107D02*
X8128Y6068D01*
X8085Y6047D02*
X8107D01*
X7704Y7723D02*
Y7744D01*
X7726Y7765D01*
X7704Y7786D02*
X7726Y7765D01*
X7704Y7786D02*
Y7808D01*
X7726D01*
X7747Y7786D01*
X7768Y7808D01*
X7789D01*
Y7786D02*
Y7808D01*
X7768Y7765D02*
X7789Y7786D01*
X7768Y7765D02*
X7789Y7744D01*
Y7723D02*
Y7744D01*
X7768Y7723D02*
X7789D01*
X7747Y7744D02*
X7768Y7723D01*
X7726D02*
X7747Y7744D01*
X7704Y7723D02*
X7726D01*
X7412Y7571D02*
Y7592D01*
X7434Y7614D01*
X7412Y7635D02*
X7434Y7614D01*
X7412Y7635D02*
Y7656D01*
X7434D01*
X7455Y7635D01*
X7476Y7656D01*
X7497D01*
Y7635D02*
Y7656D01*
X7476Y7614D02*
X7497Y7635D01*
X7476Y7614D02*
X7497Y7592D01*
Y7571D02*
Y7592D01*
X7476Y7571D02*
X7497D01*
X7455Y7592D02*
X7476Y7571D01*
X7434D02*
X7455Y7592D01*
X7412Y7571D02*
X7434D01*
X6879Y6174D02*
Y6195D01*
X6900Y6217D01*
X6879Y6238D02*
X6900Y6217D01*
X6879Y6238D02*
Y6259D01*
X6900D01*
X6921Y6238D01*
X6942Y6259D01*
X6964D01*
Y6238D02*
Y6259D01*
X6942Y6217D02*
X6964Y6238D01*
X6942Y6217D02*
X6964Y6195D01*
Y6174D02*
Y6195D01*
X6942Y6174D02*
X6964D01*
X6921Y6195D02*
X6942Y6174D01*
X6900D02*
X6921Y6195D01*
X6879Y6174D02*
X6900D01*
X6748Y7186D02*
Y7207D01*
X6769Y7228D01*
X6748Y7249D02*
X6769Y7228D01*
X6748Y7249D02*
Y7271D01*
X6769D01*
X6790Y7249D01*
X6811Y7271D01*
X6832D01*
Y7249D02*
Y7271D01*
X6811Y7228D02*
X6832Y7249D01*
X6811Y7228D02*
X6832Y7207D01*
Y7186D02*
Y7207D01*
X6811Y7186D02*
X6832D01*
X6790Y7207D02*
X6811Y7186D01*
X6769D02*
X6790Y7207D01*
X6748Y7186D02*
X6769D01*
X7666Y4383D02*
Y4405D01*
X7688Y4426D01*
X7666Y4447D02*
X7688Y4426D01*
X7666Y4447D02*
Y4468D01*
X7688D01*
X7709Y4447D01*
X7730Y4468D01*
X7751D01*
Y4447D02*
Y4468D01*
X7730Y4426D02*
X7751Y4447D01*
X7730Y4426D02*
X7751Y4405D01*
Y4383D02*
Y4405D01*
X7730Y4383D02*
X7751D01*
X7709Y4405D02*
X7730Y4383D01*
X7688D02*
X7709Y4405D01*
X7666Y4383D02*
X7688D01*
X7146Y3367D02*
Y3389D01*
X7167Y3410D01*
X7146Y3431D02*
X7167Y3410D01*
X7146Y3431D02*
Y3452D01*
X7167D01*
X7188Y3431D01*
X7209Y3452D01*
X7230D01*
Y3431D02*
Y3452D01*
X7209Y3410D02*
X7230Y3431D01*
X7209Y3410D02*
X7230Y3389D01*
Y3367D02*
Y3389D01*
X7209Y3367D02*
X7230D01*
X7188Y3389D02*
X7209Y3367D01*
X7167D02*
X7188Y3389D01*
X7146Y3367D02*
X7167D01*
X6500Y2379D02*
Y2400D01*
X6521Y2421D01*
X6500Y2442D02*
X6521Y2421D01*
X6500Y2442D02*
Y2463D01*
X6521D01*
X6542Y2442D01*
X6563Y2463D01*
X6584D01*
Y2442D02*
Y2463D01*
X6563Y2421D02*
X6584Y2442D01*
X6563Y2421D02*
X6584Y2400D01*
Y2379D02*
Y2400D01*
X6563Y2379D02*
X6584D01*
X6542Y2400D02*
X6563Y2379D01*
X6521D02*
X6542Y2400D01*
X6500Y2379D02*
X6521D01*
X6680Y2868D02*
Y2889D01*
X6701Y2910D01*
X6680Y2931D02*
X6701Y2910D01*
X6680Y2931D02*
Y2953D01*
X6701D01*
X6722Y2931D01*
X6743Y2953D01*
X6765D01*
Y2931D02*
Y2953D01*
X6743Y2910D02*
X6765Y2931D01*
X6743Y2910D02*
X6765Y2889D01*
Y2868D02*
Y2889D01*
X6743Y2868D02*
X6765D01*
X6722Y2889D02*
X6743Y2868D01*
X6701D02*
X6722Y2889D01*
X6680Y2868D02*
X6701D01*
X6858Y2864D02*
Y2885D01*
X6879Y2906D01*
X6858Y2927D02*
X6879Y2906D01*
X6858Y2927D02*
Y2948D01*
X6879D01*
X6900Y2927D01*
X6921Y2948D01*
X6942D01*
Y2927D02*
Y2948D01*
X6921Y2906D02*
X6942Y2927D01*
X6921Y2906D02*
X6942Y2885D01*
Y2864D02*
Y2885D01*
X6921Y2864D02*
X6942D01*
X6900Y2885D02*
X6921Y2864D01*
X6879D02*
X6900Y2885D01*
X6858Y2864D02*
X6879D01*
X6337Y2817D02*
Y2839D01*
X6358Y2860D01*
X6337Y2881D02*
X6358Y2860D01*
X6337Y2881D02*
Y2902D01*
X6358D01*
X6379Y2881D01*
X6400Y2902D01*
X6421D01*
Y2881D02*
Y2902D01*
X6400Y2860D02*
X6421Y2881D01*
X6400Y2860D02*
X6421Y2839D01*
Y2817D02*
Y2839D01*
X6400Y2817D02*
X6421D01*
X6379Y2839D02*
X6400Y2817D01*
X6358D02*
X6379Y2839D01*
X6337Y2817D02*
X6358D01*
X6866Y1496D02*
Y1518D01*
X6887Y1539D01*
X6866Y1560D02*
X6887Y1539D01*
X6866Y1560D02*
Y1581D01*
X6887D01*
X6909Y1560D01*
X6930Y1581D01*
X6951D01*
Y1560D02*
Y1581D01*
X6930Y1539D02*
X6951Y1560D01*
X6930Y1539D02*
X6951Y1518D01*
Y1496D02*
Y1518D01*
X6930Y1496D02*
X6951D01*
X6909Y1518D02*
X6930Y1496D01*
X6887D02*
X6909Y1518D01*
X6866Y1496D02*
X6887D01*
X6866Y1319D02*
Y1340D01*
X6887Y1361D01*
X6866Y1382D02*
X6887Y1361D01*
X6866Y1382D02*
Y1403D01*
X6887D01*
X6909Y1382D01*
X6930Y1403D01*
X6951D01*
Y1382D02*
Y1403D01*
X6930Y1361D02*
X6951Y1382D01*
X6930Y1361D02*
X6951Y1340D01*
Y1319D02*
Y1340D01*
X6930Y1319D02*
X6951D01*
X6909Y1340D02*
X6930Y1319D01*
X6887D02*
X6909Y1340D01*
X6866Y1319D02*
X6887D01*
X6866Y1141D02*
Y1162D01*
X6887Y1183D01*
X6866Y1204D02*
X6887Y1183D01*
X6866Y1204D02*
Y1225D01*
X6887D01*
X6909Y1204D01*
X6930Y1225D01*
X6951D01*
Y1204D02*
Y1225D01*
X6930Y1183D02*
X6951Y1204D01*
X6930Y1183D02*
X6951Y1162D01*
Y1141D02*
Y1162D01*
X6930Y1141D02*
X6951D01*
X6909Y1162D02*
X6930Y1141D01*
X6887D02*
X6909Y1162D01*
X6866Y1141D02*
X6887D01*
X6866Y963D02*
Y984D01*
X6887Y1005D01*
X6866Y1026D02*
X6887Y1005D01*
X6866Y1026D02*
Y1048D01*
X6887D01*
X6909Y1026D01*
X6930Y1048D01*
X6951D01*
Y1026D02*
Y1048D01*
X6930Y1005D02*
X6951Y1026D01*
X6930Y1005D02*
X6951Y984D01*
Y963D02*
Y984D01*
X6930Y963D02*
X6951D01*
X6909Y984D02*
X6930Y963D01*
X6887D02*
X6909Y984D01*
X6866Y963D02*
X6887D01*
X5850Y1551D02*
Y1573D01*
X5871Y1594D01*
X5850Y1615D02*
X5871Y1594D01*
X5850Y1615D02*
Y1636D01*
X5871D01*
X5893Y1615D01*
X5914Y1636D01*
X5935D01*
Y1615D02*
Y1636D01*
X5914Y1594D02*
X5935Y1615D01*
X5914Y1594D02*
X5935Y1573D01*
Y1551D02*
Y1573D01*
X5914Y1551D02*
X5935D01*
X5893Y1573D02*
X5914Y1551D01*
X5871D02*
X5893Y1573D01*
X5850Y1551D02*
X5871D01*
X5711Y1653D02*
Y1674D01*
X5732Y1695D01*
X5711Y1716D02*
X5732Y1695D01*
X5711Y1716D02*
Y1738D01*
X5732D01*
X5753Y1716D01*
X5774Y1738D01*
X5795D01*
Y1716D02*
Y1738D01*
X5774Y1695D02*
X5795Y1716D01*
X5774Y1695D02*
X5795Y1674D01*
Y1653D02*
Y1674D01*
X5774Y1653D02*
X5795D01*
X5753Y1674D02*
X5774Y1653D01*
X5732D02*
X5753Y1674D01*
X5711Y1653D02*
X5732D01*
X6371Y2275D02*
Y2296D01*
X6392Y2318D01*
X6371Y2339D02*
X6392Y2318D01*
X6371Y2339D02*
Y2360D01*
X6392D01*
X6413Y2339D01*
X6434Y2360D01*
X6456D01*
Y2339D02*
Y2360D01*
X6434Y2318D02*
X6456Y2339D01*
X6434Y2318D02*
X6456Y2296D01*
Y2275D02*
Y2296D01*
X6434Y2275D02*
X6456D01*
X6413Y2296D02*
X6434Y2275D01*
X6392D02*
X6413Y2296D01*
X6371Y2275D02*
X6392D01*
X4610Y1480D02*
Y1501D01*
X4631Y1522D01*
X4610Y1543D02*
X4631Y1522D01*
X4610Y1543D02*
Y1565D01*
X4631D01*
X4653Y1543D01*
X4674Y1565D01*
X4695D01*
Y1543D02*
Y1565D01*
X4674Y1522D02*
X4695Y1543D01*
X4674Y1522D02*
X4695Y1501D01*
Y1480D02*
Y1501D01*
X4674Y1480D02*
X4695D01*
X4653Y1501D02*
X4674Y1480D01*
X4631D02*
X4653Y1501D01*
X4610Y1480D02*
X4631D01*
X4529Y573D02*
Y595D01*
X4551Y616D01*
X4529Y637D02*
X4551Y616D01*
X4529Y637D02*
Y658D01*
X4551D01*
X4572Y637D01*
X4593Y658D01*
X4614D01*
Y637D02*
Y658D01*
X4593Y616D02*
X4614Y637D01*
X4593Y616D02*
X4614Y595D01*
Y573D02*
Y595D01*
X4593Y573D02*
X4614D01*
X4572Y595D02*
X4593Y573D01*
X4551D02*
X4572Y595D01*
X4529Y573D02*
X4551D01*
X4326Y510D02*
Y531D01*
X4347Y552D01*
X4326Y573D02*
X4347Y552D01*
X4326Y573D02*
Y595D01*
X4347D01*
X4369Y573D01*
X4390Y595D01*
X4411D01*
Y573D02*
Y595D01*
X4390Y552D02*
X4411Y573D01*
X4390Y552D02*
X4411Y531D01*
Y510D02*
Y531D01*
X4390Y510D02*
X4411D01*
X4369Y531D02*
X4390Y510D01*
X4347D02*
X4369Y531D01*
X4326Y510D02*
X4347D01*
X5321Y1827D02*
Y1848D01*
X5342Y1869D01*
X5321Y1890D02*
X5342Y1869D01*
X5321Y1890D02*
Y1911D01*
X5342D01*
X5363Y1890D01*
X5384Y1911D01*
X5406D01*
Y1890D02*
Y1911D01*
X5384Y1869D02*
X5406Y1890D01*
X5384Y1869D02*
X5406Y1848D01*
Y1827D02*
Y1848D01*
X5384Y1827D02*
X5406D01*
X5363Y1848D02*
X5384Y1827D01*
X5342D02*
X5363Y1848D01*
X5321Y1827D02*
X5342D01*
X2231Y7216D02*
Y7237D01*
X2252Y7258D01*
X2231Y7279D02*
X2252Y7258D01*
X2231Y7279D02*
Y7300D01*
X2252D01*
X2273Y7279D01*
X2294Y7300D01*
X2315D01*
Y7279D02*
Y7300D01*
X2294Y7258D02*
X2315Y7279D01*
X2294Y7258D02*
X2315Y7237D01*
Y7216D02*
Y7237D01*
X2294Y7216D02*
X2315D01*
X2273Y7237D02*
X2294Y7216D01*
X2252D02*
X2273Y7237D01*
X2231Y7216D02*
X2252D01*
X3031Y7241D02*
Y7262D01*
X3052Y7283D01*
X3031Y7304D02*
X3052Y7283D01*
X3031Y7304D02*
Y7326D01*
X3052D01*
X3073Y7304D01*
X3094Y7326D01*
X3116D01*
Y7304D02*
Y7326D01*
X3094Y7283D02*
X3116Y7304D01*
X3094Y7283D02*
X3116Y7262D01*
Y7241D02*
Y7262D01*
X3094Y7241D02*
X3116D01*
X3073Y7262D02*
X3094Y7241D01*
X3052D02*
X3073Y7262D01*
X3031Y7241D02*
X3052D01*
X2929Y4510D02*
Y4532D01*
X2950Y4553D01*
X2929Y4574D02*
X2950Y4553D01*
X2929Y4574D02*
Y4595D01*
X2950D01*
X2972Y4574D01*
X2993Y4595D01*
X3014D01*
Y4574D02*
Y4595D01*
X2993Y4553D02*
X3014Y4574D01*
X2993Y4553D02*
X3014Y4532D01*
Y4510D02*
Y4532D01*
X2993Y4510D02*
X3014D01*
X2972Y4532D02*
X2993Y4510D01*
X2950D02*
X2972Y4532D01*
X2929Y4510D02*
X2950D01*
X3056Y7771D02*
Y7792D01*
X3077Y7814D01*
X3056Y7835D02*
X3077Y7814D01*
X3056Y7835D02*
Y7856D01*
X3077D01*
X3099Y7835D01*
X3120Y7856D01*
X3141D01*
Y7835D02*
Y7856D01*
X3120Y7814D02*
X3141Y7835D01*
X3120Y7814D02*
X3141Y7792D01*
Y7771D02*
Y7792D01*
X3120Y7771D02*
X3141D01*
X3099Y7792D02*
X3120Y7771D01*
X3077D02*
X3099Y7792D01*
X3056Y7771D02*
X3077D01*
X2799Y6349D02*
Y6370D01*
X2820Y6391D01*
X2799Y6412D02*
X2820Y6391D01*
X2799Y6412D02*
Y6433D01*
X2820D01*
X2841Y6412D01*
X2863Y6433D01*
X2884D01*
Y6412D02*
Y6433D01*
X2863Y6391D02*
X2884Y6412D01*
X2863Y6391D02*
X2884Y6370D01*
Y6349D02*
Y6370D01*
X2863Y6349D02*
X2884D01*
X2841Y6370D02*
X2863Y6349D01*
X2820D02*
X2841Y6370D01*
X2799Y6349D02*
X2820D01*
X2799Y6539D02*
Y6560D01*
X2820Y6582D01*
X2799Y6603D02*
X2820Y6582D01*
X2799Y6603D02*
Y6624D01*
X2820D01*
X2841Y6603D01*
X2863Y6624D01*
X2884D01*
Y6603D02*
Y6624D01*
X2863Y6582D02*
X2884Y6603D01*
X2863Y6582D02*
X2884Y6560D01*
Y6539D02*
Y6560D01*
X2863Y6539D02*
X2884D01*
X2841Y6560D02*
X2863Y6539D01*
X2820D02*
X2841Y6560D01*
X2799Y6539D02*
X2820D01*
X2802Y6733D02*
Y6754D01*
X2823Y6775D01*
X2802Y6796D02*
X2823Y6775D01*
X2802Y6796D02*
Y6818D01*
X2823D01*
X2845Y6796D01*
X2866Y6818D01*
X2887D01*
Y6796D02*
Y6818D01*
X2866Y6775D02*
X2887Y6796D01*
X2866Y6775D02*
X2887Y6754D01*
Y6733D02*
Y6754D01*
X2866Y6733D02*
X2887D01*
X2845Y6754D02*
X2866Y6733D01*
X2823D02*
X2845Y6754D01*
X2802Y6733D02*
X2823D01*
X2371Y6095D02*
Y6116D01*
X2392Y6137D01*
X2371Y6158D02*
X2392Y6137D01*
X2371Y6158D02*
Y6179D01*
X2392D01*
X2413Y6158D01*
X2434Y6179D01*
X2455D01*
Y6158D02*
Y6179D01*
X2434Y6137D02*
X2455Y6158D01*
X2434Y6137D02*
X2455Y6116D01*
Y6095D02*
Y6116D01*
X2434Y6095D02*
X2455D01*
X2413Y6116D02*
X2434Y6095D01*
X2392D02*
X2413Y6116D01*
X2371Y6095D02*
X2392D01*
X1723Y6352D02*
Y6373D01*
X1744Y6394D01*
X1723Y6415D02*
X1744Y6394D01*
X1723Y6415D02*
Y6437D01*
X1744D01*
X1765Y6415D01*
X1786Y6437D01*
X1807D01*
Y6415D02*
Y6437D01*
X1786Y6394D02*
X1807Y6415D01*
X1786Y6394D02*
X1807Y6373D01*
Y6352D02*
Y6373D01*
X1786Y6352D02*
X1807D01*
X1765Y6373D02*
X1786Y6352D01*
X1744D02*
X1765Y6373D01*
X1723Y6352D02*
X1744D01*
X1901Y4206D02*
Y4227D01*
X1922Y4248D01*
X1901Y4269D02*
X1922Y4248D01*
X1901Y4269D02*
Y4290D01*
X1922D01*
X1943Y4269D01*
X1964Y4290D01*
X1985D01*
Y4269D02*
Y4290D01*
X1964Y4248D02*
X1985Y4269D01*
X1964Y4248D02*
X1985Y4227D01*
Y4206D02*
Y4227D01*
X1964Y4206D02*
X1985D01*
X1943Y4227D02*
X1964Y4206D01*
X1922D02*
X1943Y4227D01*
X1901Y4206D02*
X1922D01*
X1723Y4625D02*
Y4646D01*
X1744Y4667D01*
X1723Y4688D02*
X1744Y4667D01*
X1723Y4688D02*
Y4709D01*
X1744D01*
X1765Y4688D01*
X1786Y4709D01*
X1807D01*
Y4688D02*
Y4709D01*
X1786Y4667D02*
X1807Y4688D01*
X1786Y4667D02*
X1807Y4646D01*
Y4625D02*
Y4646D01*
X1786Y4625D02*
X1807D01*
X1765Y4646D02*
X1786Y4625D01*
X1744D02*
X1765Y4646D01*
X1723Y4625D02*
X1744D01*
X1823Y3634D02*
Y3655D01*
X1844Y3677D01*
X1823Y3698D02*
X1844Y3677D01*
X1823Y3698D02*
Y3719D01*
X1844D01*
X1865Y3698D01*
X1886Y3719D01*
X1907D01*
Y3698D02*
Y3719D01*
X1886Y3677D02*
X1907Y3698D01*
X1886Y3677D02*
X1907Y3655D01*
Y3634D02*
Y3655D01*
X1886Y3634D02*
X1907D01*
X1865Y3655D02*
X1886Y3634D01*
X1844D02*
X1865Y3655D01*
X1823Y3634D02*
X1844D01*
X2879Y3380D02*
Y3401D01*
X2900Y3422D01*
X2879Y3443D02*
X2900Y3422D01*
X2879Y3443D02*
Y3465D01*
X2900D01*
X2921Y3443D01*
X2942Y3465D01*
X2963D01*
Y3443D02*
Y3465D01*
X2942Y3422D02*
X2963Y3443D01*
X2942Y3422D02*
X2963Y3401D01*
Y3380D02*
Y3401D01*
X2942Y3380D02*
X2963D01*
X2921Y3401D02*
X2942Y3380D01*
X2900D02*
X2921Y3401D01*
X2879Y3380D02*
X2900D01*
X3437Y5295D02*
Y5316D01*
X3458Y5337D01*
X3437Y5358D02*
X3458Y5337D01*
X3437Y5358D02*
Y5379D01*
X3458D01*
X3480Y5358D01*
X3501Y5379D01*
X3522D01*
Y5358D02*
Y5379D01*
X3501Y5337D02*
X3522Y5358D01*
X3501Y5337D02*
X3522Y5316D01*
Y5295D02*
Y5316D01*
X3501Y5295D02*
X3522D01*
X3480Y5316D02*
X3501Y5295D01*
X3458D02*
X3480Y5316D01*
X3437Y5295D02*
X3458D01*
X3437Y5095D02*
Y5116D01*
X3458Y5137D01*
X3437Y5158D02*
X3458Y5137D01*
X3437Y5158D02*
Y5179D01*
X3458D01*
X3480Y5158D01*
X3501Y5179D01*
X3522D01*
Y5158D02*
Y5179D01*
X3501Y5137D02*
X3522Y5158D01*
X3501Y5137D02*
X3522Y5116D01*
Y5095D02*
Y5116D01*
X3501Y5095D02*
X3522D01*
X3480Y5116D02*
X3501Y5095D01*
X3458D02*
X3480Y5116D01*
X3437Y5095D02*
X3458D01*
X3132Y3753D02*
Y3774D01*
X3154Y3795D01*
X3132Y3816D02*
X3154Y3795D01*
X3132Y3816D02*
Y3838D01*
X3154D01*
X3175Y3816D01*
X3196Y3838D01*
X3217D01*
Y3816D02*
Y3838D01*
X3196Y3795D02*
X3217Y3816D01*
X3196Y3795D02*
X3217Y3774D01*
Y3753D02*
Y3774D01*
X3196Y3753D02*
X3217D01*
X3175Y3774D02*
X3196Y3753D01*
X3154D02*
X3175Y3774D01*
X3132Y3753D02*
X3154D01*
X4491Y4587D02*
Y4608D01*
X4513Y4629D01*
X4491Y4650D02*
X4513Y4629D01*
X4491Y4650D02*
Y4671D01*
X4513D01*
X4534Y4650D01*
X4555Y4671D01*
X4576D01*
Y4650D02*
Y4671D01*
X4555Y4629D02*
X4576Y4650D01*
X4555Y4629D02*
X4576Y4608D01*
Y4587D02*
Y4608D01*
X4555Y4587D02*
X4576D01*
X4534Y4608D02*
X4555Y4587D01*
X4513D02*
X4534Y4608D01*
X4491Y4587D02*
X4513D01*
X4479Y4295D02*
Y4316D01*
X4500Y4337D01*
X4479Y4358D02*
X4500Y4337D01*
X4479Y4358D02*
Y4379D01*
X4500D01*
X4521Y4358D01*
X4542Y4379D01*
X4563D01*
Y4358D02*
Y4379D01*
X4542Y4337D02*
X4563Y4358D01*
X4542Y4337D02*
X4563Y4316D01*
Y4295D02*
Y4316D01*
X4542Y4295D02*
X4563D01*
X4521Y4316D02*
X4542Y4295D01*
X4500D02*
X4521Y4316D01*
X4479Y4295D02*
X4500D01*
X7463Y5941D02*
Y5963D01*
X7485Y5984D01*
X7463Y6005D02*
X7485Y5984D01*
X7463Y6005D02*
Y6026D01*
X7485D01*
X7506Y6005D01*
X7527Y6026D01*
X7548D01*
Y6005D02*
Y6026D01*
X7527Y5984D02*
X7548Y6005D01*
X7527Y5984D02*
X7548Y5963D01*
Y5941D02*
Y5963D01*
X7527Y5941D02*
X7548D01*
X7506Y5963D02*
X7527Y5941D01*
X7485D02*
X7506Y5963D01*
X7463Y5941D02*
X7485D01*
X8200Y4367D02*
Y4388D01*
X8221Y4409D01*
X8200Y4430D02*
X8221Y4409D01*
X8200Y4430D02*
Y4451D01*
X8221D01*
X8242Y4430D01*
X8263Y4451D01*
X8285D01*
Y4430D02*
Y4451D01*
X8263Y4409D02*
X8285Y4430D01*
X8263Y4409D02*
X8285Y4388D01*
Y4367D02*
Y4388D01*
X8263Y4367D02*
X8285D01*
X8242Y4388D02*
X8263Y4367D01*
X8221D02*
X8242Y4388D01*
X8200Y4367D02*
X8221D01*
X7971Y3173D02*
Y3194D01*
X7993Y3215D01*
X7971Y3236D02*
X7993Y3215D01*
X7971Y3236D02*
Y3257D01*
X7993D01*
X8014Y3236D01*
X8035Y3257D01*
X8056D01*
Y3236D02*
Y3257D01*
X8035Y3215D02*
X8056Y3236D01*
X8035Y3215D02*
X8056Y3194D01*
Y3173D02*
Y3194D01*
X8035Y3173D02*
X8056D01*
X8014Y3194D02*
X8035Y3173D01*
X7993D02*
X8014Y3194D01*
X7971Y3173D02*
X7993D01*
X6955Y3554D02*
Y3575D01*
X6977Y3596D01*
X6955Y3617D02*
X6977Y3596D01*
X6955Y3617D02*
Y3638D01*
X6977D01*
X6998Y3617D01*
X7019Y3638D01*
X7040D01*
Y3617D02*
Y3638D01*
X7019Y3596D02*
X7040Y3617D01*
X7019Y3596D02*
X7040Y3575D01*
Y3554D02*
Y3575D01*
X7019Y3554D02*
X7040D01*
X6998Y3575D02*
X7019Y3554D01*
X6977D02*
X6998Y3575D01*
X6955Y3554D02*
X6977D01*
X7997Y4367D02*
Y4388D01*
X8018Y4409D01*
X7997Y4430D02*
X8018Y4409D01*
X7997Y4430D02*
Y4451D01*
X8018D01*
X8039Y4430D01*
X8060Y4451D01*
X8081D01*
Y4430D02*
Y4451D01*
X8060Y4409D02*
X8081Y4430D01*
X8060Y4409D02*
X8081Y4388D01*
Y4367D02*
Y4388D01*
X8060Y4367D02*
X8081D01*
X8039Y4388D02*
X8060Y4367D01*
X8018D02*
X8039Y4388D01*
X7997Y4367D02*
X8018D01*
X7311Y4011D02*
Y4032D01*
X7332Y4053D01*
X7311Y4074D02*
X7332Y4053D01*
X7311Y4074D02*
Y4096D01*
X7332D01*
X7353Y4074D01*
X7374Y4096D01*
X7396D01*
Y4074D02*
Y4096D01*
X7374Y4053D02*
X7396Y4074D01*
X7374Y4053D02*
X7396Y4032D01*
Y4011D02*
Y4032D01*
X7374Y4011D02*
X7396D01*
X7353Y4032D02*
X7374Y4011D01*
X7332D02*
X7353Y4032D01*
X7311Y4011D02*
X7332D01*
X4973Y1850D02*
Y1872D01*
X4994Y1893D01*
X4973Y1914D02*
X4994Y1893D01*
X4973Y1914D02*
Y1935D01*
X4994D01*
X5015Y1914D01*
X5036Y1935D01*
X5057D01*
Y1914D02*
Y1935D01*
X5036Y1893D02*
X5057Y1914D01*
X5036Y1893D02*
X5057Y1872D01*
Y1850D02*
Y1872D01*
X5036Y1850D02*
X5057D01*
X5015Y1872D02*
X5036Y1850D01*
X4994D02*
X5015Y1872D01*
X4973Y1850D02*
X4994D01*
X4771Y1852D02*
Y1873D01*
X4792Y1894D01*
X4771Y1915D02*
X4792Y1894D01*
X4771Y1915D02*
Y1937D01*
X4792D01*
X4813Y1915D01*
X4834Y1937D01*
X4856D01*
Y1915D02*
Y1937D01*
X4834Y1894D02*
X4856Y1915D01*
X4834Y1894D02*
X4856Y1873D01*
Y1852D02*
Y1873D01*
X4834Y1852D02*
X4856D01*
X4813Y1873D02*
X4834Y1852D01*
X4792D02*
X4813Y1873D01*
X4771Y1852D02*
X4792D01*
X2625Y6996D02*
Y7018D01*
X2646Y7039D01*
X2625Y7060D02*
X2646Y7039D01*
X2625Y7060D02*
Y7081D01*
X2646D01*
X2667Y7060D01*
X2688Y7081D01*
X2709D01*
Y7060D02*
Y7081D01*
X2688Y7039D02*
X2709Y7060D01*
X2688Y7039D02*
X2709Y7018D01*
Y6996D02*
Y7018D01*
X2688Y6996D02*
X2709D01*
X2667Y7018D02*
X2688Y6996D01*
X2646D02*
X2667Y7018D01*
X2625Y6996D02*
X2646D01*
X2676Y3390D02*
Y3411D01*
X2697Y3432D01*
X2676Y3453D02*
X2697Y3432D01*
X2676Y3453D02*
Y3474D01*
X2697D01*
X2718Y3453D01*
X2739Y3474D01*
X2760D01*
Y3453D02*
Y3474D01*
X2739Y3432D02*
X2760Y3453D01*
X2739Y3432D02*
X2760Y3411D01*
Y3390D02*
Y3411D01*
X2739Y3390D02*
X2760D01*
X2718Y3411D02*
X2739Y3390D01*
X2697D02*
X2718Y3411D01*
X2676Y3390D02*
X2697D01*
X1761Y5422D02*
Y5443D01*
X1782Y5464D01*
X1761Y5485D02*
X1782Y5464D01*
X1761Y5485D02*
Y5506D01*
X1782D01*
X1803Y5485D01*
X1825Y5506D01*
X1846D01*
Y5485D02*
Y5506D01*
X1825Y5464D02*
X1846Y5485D01*
X1825Y5464D02*
X1846Y5443D01*
Y5422D02*
Y5443D01*
X1825Y5422D02*
X1846D01*
X1803Y5443D02*
X1825Y5422D01*
X1782D02*
X1803Y5443D01*
X1761Y5422D02*
X1782D01*
X1977Y6577D02*
Y6599D01*
X1998Y6620D01*
X1977Y6641D02*
X1998Y6620D01*
X1977Y6641D02*
Y6662D01*
X1998D01*
X2019Y6641D01*
X2041Y6662D01*
X2062D01*
Y6641D02*
Y6662D01*
X2041Y6620D02*
X2062Y6641D01*
X2041Y6620D02*
X2062Y6599D01*
Y6577D02*
Y6599D01*
X2041Y6577D02*
X2062D01*
X2019Y6599D02*
X2041Y6577D01*
X1998D02*
X2019Y6599D01*
X1977Y6577D02*
X1998D01*
X2142Y3352D02*
Y3373D01*
X2163Y3394D01*
X2142Y3415D02*
X2163Y3394D01*
X2142Y3415D02*
Y3436D01*
X2163D01*
X2184Y3415D01*
X2206Y3436D01*
X2227D01*
Y3415D02*
Y3436D01*
X2206Y3394D02*
X2227Y3415D01*
X2206Y3394D02*
X2227Y3373D01*
Y3352D02*
Y3373D01*
X2206Y3352D02*
X2227D01*
X2184Y3373D02*
X2206Y3352D01*
X2163D02*
X2184Y3373D01*
X2142Y3352D02*
X2163D01*
X1164Y5752D02*
Y5773D01*
X1185Y5794D01*
X1164Y5815D02*
X1185Y5794D01*
X1164Y5815D02*
Y5837D01*
X1185D01*
X1207Y5815D01*
X1228Y5837D01*
X1249D01*
Y5815D02*
Y5837D01*
X1228Y5794D02*
X1249Y5815D01*
X1228Y5794D02*
X1249Y5773D01*
Y5752D02*
Y5773D01*
X1228Y5752D02*
X1249D01*
X1207Y5773D02*
X1228Y5752D01*
X1185D02*
X1207Y5773D01*
X1164Y5752D02*
X1185D01*
X1456Y7327D02*
Y7348D01*
X1478Y7369D01*
X1456Y7390D02*
X1478Y7369D01*
X1456Y7390D02*
Y7411D01*
X1478D01*
X1499Y7390D01*
X1520Y7411D01*
X1541D01*
Y7390D02*
Y7411D01*
X1520Y7369D02*
X1541Y7390D01*
X1520Y7369D02*
X1541Y7348D01*
Y7327D02*
Y7348D01*
X1520Y7327D02*
X1541D01*
X1499Y7348D02*
X1520Y7327D01*
X1478D02*
X1499Y7348D01*
X1456Y7327D02*
X1478D01*
X1431Y6336D02*
Y6357D01*
X1452Y6378D01*
X1431Y6400D02*
X1452Y6378D01*
X1431Y6400D02*
Y6421D01*
X1452D01*
X1473Y6400D01*
X1494Y6421D01*
X1516D01*
Y6400D02*
Y6421D01*
X1494Y6378D02*
X1516Y6400D01*
X1494Y6378D02*
X1516Y6357D01*
Y6336D02*
Y6357D01*
X1494Y6336D02*
X1516D01*
X1473Y6357D02*
X1494Y6336D01*
X1452D02*
X1473Y6357D01*
X1431Y6336D02*
X1452D01*
X1025Y5549D02*
Y5570D01*
X1046Y5591D01*
X1025Y5612D02*
X1046Y5591D01*
X1025Y5612D02*
Y5633D01*
X1046D01*
X1067Y5612D01*
X1088Y5633D01*
X1109D01*
Y5612D02*
Y5633D01*
X1088Y5591D02*
X1109Y5612D01*
X1088Y5591D02*
X1109Y5570D01*
Y5549D02*
Y5570D01*
X1088Y5549D02*
X1109D01*
X1067Y5570D02*
X1088Y5549D01*
X1046D02*
X1067Y5570D01*
X1025Y5549D02*
X1046D01*
X1380D02*
Y5570D01*
X1401Y5591D01*
X1380Y5612D02*
X1401Y5591D01*
X1380Y5612D02*
Y5633D01*
X1401D01*
X1422Y5612D01*
X1444Y5633D01*
X1465D01*
Y5612D02*
Y5633D01*
X1444Y5591D02*
X1465Y5612D01*
X1444Y5591D02*
X1465Y5570D01*
Y5549D02*
Y5570D01*
X1444Y5549D02*
X1465D01*
X1422Y5570D02*
X1444Y5549D01*
X1401D02*
X1422Y5570D01*
X1380Y5549D02*
X1401D01*
X1736Y2424D02*
Y2446D01*
X1757Y2467D01*
X1736Y2488D02*
X1757Y2467D01*
X1736Y2488D02*
Y2509D01*
X1757D01*
X1778Y2488D01*
X1799Y2509D01*
X1820D01*
Y2488D02*
Y2509D01*
X1799Y2467D02*
X1820Y2488D01*
X1799Y2467D02*
X1820Y2446D01*
Y2424D02*
Y2446D01*
X1799Y2424D02*
X1820D01*
X1778Y2446D02*
X1799Y2424D01*
X1757D02*
X1778Y2446D01*
X1736Y2424D02*
X1757D01*
X7755Y7465D02*
Y7487D01*
X7777Y7508D01*
X7755Y7529D02*
X7777Y7508D01*
X7755Y7529D02*
Y7550D01*
X7777D01*
X7798Y7529D01*
X7819Y7550D01*
X7840D01*
Y7529D02*
Y7550D01*
X7819Y7508D02*
X7840Y7529D01*
X7819Y7508D02*
X7840Y7487D01*
Y7465D02*
Y7487D01*
X7819Y7465D02*
X7840D01*
X7798Y7487D02*
X7819Y7465D01*
X7777D02*
X7798Y7487D01*
X7755Y7465D02*
X7777D01*
X8352Y7520D02*
Y7542D01*
X8373Y7563D01*
X8352Y7584D02*
X8373Y7563D01*
X8352Y7584D02*
Y7605D01*
X8373D01*
X8394Y7584D01*
X8416Y7605D01*
X8437D01*
Y7584D02*
Y7605D01*
X8416Y7563D02*
X8437Y7584D01*
X8416Y7563D02*
X8437Y7542D01*
Y7520D02*
Y7542D01*
X8416Y7520D02*
X8437D01*
X8394Y7542D02*
X8416Y7520D01*
X8373D02*
X8394Y7542D01*
X8352Y7520D02*
X8373D01*
X6905Y6957D02*
Y6979D01*
X6926Y7000D01*
X6905Y7021D02*
X6926Y7000D01*
X6905Y7021D02*
Y7042D01*
X6926D01*
X6947Y7021D01*
X6968Y7042D01*
X6989D01*
Y7021D02*
Y7042D01*
X6968Y7000D02*
X6989Y7021D01*
X6968Y7000D02*
X6989Y6979D01*
Y6957D02*
Y6979D01*
X6968Y6957D02*
X6989D01*
X6947Y6979D02*
X6968Y6957D01*
X6926D02*
X6947Y6979D01*
X6905Y6957D02*
X6926D01*
X7590Y6881D02*
X7675D01*
Y6966D01*
X7590D02*
X7675D01*
X7590Y6881D02*
Y6966D01*
X4848Y1242D02*
X4933D01*
Y1326D01*
X4848D02*
X4933D01*
X4848Y1242D02*
Y1326D01*
Y1142D02*
X4933D01*
Y1226D01*
X4848D02*
X4933D01*
X4848Y1142D02*
Y1226D01*
X4998Y1142D02*
X5083D01*
Y1226D01*
X4998D02*
X5083D01*
X4998Y1142D02*
Y1226D01*
Y1242D02*
X5083D01*
Y1326D01*
X4998D02*
X5083D01*
X4998Y1242D02*
Y1326D01*
X4923Y1192D02*
X5008D01*
Y1276D01*
X4923D02*
X5008D01*
X4923Y1192D02*
Y1276D01*
X3642Y3848D02*
X3727D01*
Y3932D01*
X3642D02*
X3727D01*
X3642Y3848D02*
Y3932D01*
X3792Y3848D02*
X3877D01*
Y3932D01*
X3792D02*
X3877D01*
X3792Y3848D02*
Y3932D01*
X3717Y3898D02*
X3802D01*
Y3982D01*
X3717D02*
X3802D01*
X3717Y3898D02*
Y3982D01*
X3642Y3948D02*
X3727D01*
Y4032D01*
X3642D02*
X3727D01*
X3642Y3948D02*
Y4032D01*
X3792Y3948D02*
X3877D01*
Y4032D01*
X3792D02*
X3877D01*
X3792Y3948D02*
Y4032D01*
X6394Y1974D02*
X6415Y1953D01*
X6373Y1974D02*
X6394D01*
X6373D02*
X6394Y1995D01*
X6373Y2016D02*
X6394Y1995D01*
X6373Y2016D02*
X6394D01*
X6415Y2037D01*
X6436Y2016D01*
X6457D01*
X6436Y1995D02*
X6457Y2016D01*
X6436Y1995D02*
X6457Y1974D01*
X6436D02*
X6457D01*
X6415Y1953D02*
X6436Y1974D01*
X6444D02*
X6465Y1953D01*
X6423Y1974D02*
X6444D01*
X6423D02*
X6444Y1995D01*
X6423Y2016D02*
X6444Y1995D01*
X6423Y2016D02*
X6444D01*
X6465Y2037D01*
X6486Y2016D01*
X6507D01*
X6486Y1995D02*
X6507Y2016D01*
X6486Y1995D02*
X6507Y1974D01*
X6486D02*
X6507D01*
X6465Y1953D02*
X6486Y1974D01*
X6494D02*
X6515Y1953D01*
X6473Y1974D02*
X6494D01*
X6473D02*
X6494Y1995D01*
X6473Y2016D02*
X6494Y1995D01*
X6473Y2016D02*
X6494D01*
X6515Y2037D01*
X6536Y2016D01*
X6557D01*
X6536Y1995D02*
X6557Y2016D01*
X6536Y1995D02*
X6557Y1974D01*
X6536D02*
X6557D01*
X6515Y1953D02*
X6536Y1974D01*
X6544D02*
X6565Y1953D01*
X6523Y1974D02*
X6544D01*
X6523D02*
X6544Y1995D01*
X6523Y2016D02*
X6544Y1995D01*
X6523Y2016D02*
X6544D01*
X6565Y2037D01*
X6586Y2016D01*
X6607D01*
X6586Y1995D02*
X6607Y2016D01*
X6586Y1995D02*
X6607Y1974D01*
X6586D02*
X6607D01*
X6565Y1953D02*
X6586Y1974D01*
X6594D02*
X6615Y1953D01*
X6573Y1974D02*
X6594D01*
X6573D02*
X6594Y1995D01*
X6573Y2016D02*
X6594Y1995D01*
X6573Y2016D02*
X6594D01*
X6615Y2037D01*
X6636Y2016D01*
X6657D01*
X6636Y1995D02*
X6657Y2016D01*
X6636Y1995D02*
X6657Y1974D01*
X6636D02*
X6657D01*
X6615Y1953D02*
X6636Y1974D01*
X6394Y1924D02*
X6415Y1903D01*
X6373Y1924D02*
X6394D01*
X6373D02*
X6394Y1945D01*
X6373Y1966D02*
X6394Y1945D01*
X6373Y1966D02*
X6394D01*
X6415Y1987D01*
X6436Y1966D01*
X6457D01*
X6436Y1945D02*
X6457Y1966D01*
X6436Y1945D02*
X6457Y1924D01*
X6436D02*
X6457D01*
X6415Y1903D02*
X6436Y1924D01*
X6444D02*
X6465Y1903D01*
X6423Y1924D02*
X6444D01*
X6423D02*
X6444Y1945D01*
X6423Y1966D02*
X6444Y1945D01*
X6423Y1966D02*
X6444D01*
X6465Y1987D01*
X6486Y1966D01*
X6507D01*
X6486Y1945D02*
X6507Y1966D01*
X6486Y1945D02*
X6507Y1924D01*
X6486D02*
X6507D01*
X6465Y1903D02*
X6486Y1924D01*
X6494D02*
X6515Y1903D01*
X6473Y1924D02*
X6494D01*
X6473D02*
X6494Y1945D01*
X6473Y1966D02*
X6494Y1945D01*
X6473Y1966D02*
X6494D01*
X6515Y1987D01*
X6536Y1966D01*
X6557D01*
X6536Y1945D02*
X6557Y1966D01*
X6536Y1945D02*
X6557Y1924D01*
X6536D02*
X6557D01*
X6515Y1903D02*
X6536Y1924D01*
X6544D02*
X6565Y1903D01*
X6523Y1924D02*
X6544D01*
X6523D02*
X6544Y1945D01*
X6523Y1966D02*
X6544Y1945D01*
X6523Y1966D02*
X6544D01*
X6565Y1987D01*
X6586Y1966D01*
X6607D01*
X6586Y1945D02*
X6607Y1966D01*
X6586Y1945D02*
X6607Y1924D01*
X6586D02*
X6607D01*
X6565Y1903D02*
X6586Y1924D01*
X6594D02*
X6615Y1903D01*
X6573Y1924D02*
X6594D01*
X6573D02*
X6594Y1945D01*
X6573Y1966D02*
X6594Y1945D01*
X6573Y1966D02*
X6594D01*
X6615Y1987D01*
X6636Y1966D01*
X6657D01*
X6636Y1945D02*
X6657Y1966D01*
X6636Y1945D02*
X6657Y1924D01*
X6636D02*
X6657D01*
X6615Y1903D02*
X6636Y1924D01*
X6394Y1874D02*
X6415Y1853D01*
X6373Y1874D02*
X6394D01*
X6373D02*
X6394Y1895D01*
X6373Y1916D02*
X6394Y1895D01*
X6373Y1916D02*
X6394D01*
X6415Y1937D01*
X6436Y1916D01*
X6457D01*
X6436Y1895D02*
X6457Y1916D01*
X6436Y1895D02*
X6457Y1874D01*
X6436D02*
X6457D01*
X6415Y1853D02*
X6436Y1874D01*
X6444D02*
X6465Y1853D01*
X6423Y1874D02*
X6444D01*
X6423D02*
X6444Y1895D01*
X6423Y1916D02*
X6444Y1895D01*
X6423Y1916D02*
X6444D01*
X6465Y1937D01*
X6486Y1916D01*
X6507D01*
X6486Y1895D02*
X6507Y1916D01*
X6486Y1895D02*
X6507Y1874D01*
X6486D02*
X6507D01*
X6465Y1853D02*
X6486Y1874D01*
X6494D02*
X6515Y1853D01*
X6473Y1874D02*
X6494D01*
X6473D02*
X6494Y1895D01*
X6473Y1916D02*
X6494Y1895D01*
X6473Y1916D02*
X6494D01*
X6515Y1937D01*
X6536Y1916D01*
X6557D01*
X6536Y1895D02*
X6557Y1916D01*
X6536Y1895D02*
X6557Y1874D01*
X6536D02*
X6557D01*
X6515Y1853D02*
X6536Y1874D01*
X6544D02*
X6565Y1853D01*
X6523Y1874D02*
X6544D01*
X6523D02*
X6544Y1895D01*
X6523Y1916D02*
X6544Y1895D01*
X6523Y1916D02*
X6544D01*
X6565Y1937D01*
X6586Y1916D01*
X6607D01*
X6586Y1895D02*
X6607Y1916D01*
X6586Y1895D02*
X6607Y1874D01*
X6586D02*
X6607D01*
X6565Y1853D02*
X6586Y1874D01*
X6594D02*
X6615Y1853D01*
X6573Y1874D02*
X6594D01*
X6573D02*
X6594Y1895D01*
X6573Y1916D02*
X6594Y1895D01*
X6573Y1916D02*
X6594D01*
X6615Y1937D01*
X6636Y1916D01*
X6657D01*
X6636Y1895D02*
X6657Y1916D01*
X6636Y1895D02*
X6657Y1874D01*
X6636D02*
X6657D01*
X6615Y1853D02*
X6636Y1874D01*
X2558Y7239D02*
X2643D01*
Y7323D01*
X2558D02*
X2643D01*
X2558Y7239D02*
Y7323D01*
X2658Y7239D02*
X2743D01*
Y7323D01*
X2658D02*
X2743D01*
X2658Y7239D02*
Y7323D01*
X2658Y7339D02*
X2743D01*
Y7423D01*
X2658D02*
X2743D01*
X2658Y7339D02*
Y7423D01*
X2558Y7339D02*
X2643D01*
Y7423D01*
X2558D02*
X2643D01*
X2558Y7339D02*
Y7423D01*
X2608Y7289D02*
X2693D01*
Y7373D01*
X2608D02*
X2693D01*
X2608Y7289D02*
Y7373D01*
X2221Y4144D02*
X2306D01*
Y4229D01*
X2221D02*
X2306D01*
X2221Y4144D02*
Y4229D01*
X8418Y499D02*
X8439D01*
X8418D02*
Y541D01*
X8439D01*
Y562D01*
X8481D01*
Y541D02*
Y562D01*
Y541D02*
X8502D01*
Y499D02*
Y541D01*
X8481Y499D02*
X8502D01*
X8481Y478D02*
Y499D01*
X8439Y478D02*
X8481D01*
X8439D02*
Y499D01*
X8168Y9069D02*
X8189D01*
X8168D02*
Y9111D01*
X8189D01*
Y9132D01*
X8231D01*
Y9111D02*
Y9132D01*
Y9111D02*
X8252D01*
Y9069D02*
Y9111D01*
X8231Y9069D02*
X8252D01*
X8231Y9048D02*
Y9069D01*
X8189Y9048D02*
X8231D01*
X8189D02*
Y9069D01*
X798D02*
X819D01*
X798D02*
Y9111D01*
X819D01*
Y9132D01*
X861D01*
Y9111D02*
Y9132D01*
Y9111D02*
X882D01*
Y9069D02*
Y9111D01*
X861Y9069D02*
X882D01*
X861Y9048D02*
Y9069D01*
X819Y9048D02*
X861D01*
X819D02*
Y9069D01*
X418Y499D02*
X439D01*
X418D02*
Y541D01*
X439D01*
Y562D01*
X481D01*
Y541D02*
Y562D01*
Y541D02*
X502D01*
Y499D02*
Y541D01*
X481Y499D02*
X502D01*
X481Y478D02*
Y499D01*
X439Y478D02*
X481D01*
X439D02*
Y499D01*
X4960Y8441D02*
X5003Y8526D01*
X4918D02*
X5003D01*
X4918D02*
X4960Y8441D01*
X5460D02*
X5503Y8526D01*
X5418D02*
X5503D01*
X5418D02*
X5460Y8441D01*
X5960D02*
X6003Y8526D01*
X5918D02*
X6003D01*
X5918D02*
X5960Y8441D01*
X6460D02*
X6503Y8526D01*
X6418D02*
X6503D01*
X6418D02*
X6460Y8441D01*
X6960D02*
X7003Y8526D01*
X6918D02*
X7003D01*
X6918D02*
X6960Y8441D01*
X7460D02*
X7503Y8526D01*
X7418D02*
X7503D01*
X7418D02*
X7460Y8441D01*
X782Y2221D02*
X824Y2306D01*
X740D02*
X824D01*
X740D02*
X782Y2221D01*
X1282D02*
X1324Y2306D01*
X1240D02*
X1324D01*
X1240D02*
X1282Y2221D01*
X1782D02*
X1824Y2306D01*
X1740D02*
X1824D01*
X1740D02*
X1782Y2221D01*
X2282D02*
X2324Y2306D01*
X2240D02*
X2324D01*
X2240D02*
X2282Y2221D01*
X2782D02*
X2824Y2306D01*
X2740D02*
X2824D01*
X2740D02*
X2782Y2221D01*
X3282D02*
X3324Y2306D01*
X3240D02*
X3324D01*
X3240D02*
X3282Y2221D01*
D127*
X8255Y-363D02*
Y-546D01*
Y-455D01*
X8377D01*
Y-363D01*
Y-546D01*
X8469D02*
X8530D01*
X8560Y-516D01*
Y-455D01*
X8530Y-424D01*
X8469D01*
X8438Y-455D01*
Y-516D01*
X8469Y-546D01*
X8621D02*
X8682D01*
X8652D01*
Y-363D01*
X8621D01*
X8865Y-546D02*
X8804D01*
X8773Y-516D01*
Y-455D01*
X8804Y-424D01*
X8865D01*
X8895Y-455D01*
Y-485D01*
X8773D01*
X9139Y-363D02*
X9261D01*
X9200D01*
Y-546D01*
X9322Y-424D02*
Y-516D01*
X9352Y-546D01*
X9444D01*
Y-577D01*
X9413Y-607D01*
X9383D01*
X9444Y-546D02*
Y-424D01*
X9505Y-607D02*
Y-424D01*
X9596D01*
X9627Y-455D01*
Y-516D01*
X9596Y-546D01*
X9505D01*
X9779D02*
X9718D01*
X9688Y-516D01*
Y-455D01*
X9718Y-424D01*
X9779D01*
X9809Y-455D01*
Y-485D01*
X9688D01*
X6971Y-546D02*
Y-363D01*
X7062D01*
X7092Y-394D01*
Y-455D01*
X7062Y-485D01*
X6971D01*
X7153Y-546D02*
X7214D01*
X7184D01*
Y-363D01*
X7153D01*
X7336Y-424D02*
X7397D01*
X7428Y-455D01*
Y-546D01*
X7336D01*
X7306Y-516D01*
X7336Y-485D01*
X7428D01*
X7519Y-394D02*
Y-424D01*
X7488D01*
X7549D01*
X7519D01*
Y-516D01*
X7549Y-546D01*
X7732D02*
X7671D01*
X7641Y-516D01*
Y-455D01*
X7671Y-424D01*
X7732D01*
X7763Y-455D01*
Y-485D01*
X7641D01*
X7946Y-363D02*
Y-546D01*
X7854D01*
X7824Y-516D01*
Y-455D01*
X7854Y-424D01*
X7946D01*
X3675Y-363D02*
X3553D01*
Y-455D01*
X3614D01*
X3553D01*
Y-546D01*
X3735D02*
X3796D01*
X3766D01*
Y-424D01*
X3735D01*
X3888Y-546D02*
Y-424D01*
X3979D01*
X4010Y-455D01*
Y-546D01*
X4071D02*
X4132D01*
X4101D01*
Y-424D01*
X4071D01*
X4223Y-546D02*
X4314D01*
X4345Y-516D01*
X4314Y-485D01*
X4253D01*
X4223Y-455D01*
X4253Y-424D01*
X4345D01*
X4406Y-363D02*
Y-546D01*
Y-455D01*
X4436Y-424D01*
X4497D01*
X4528Y-455D01*
Y-546D01*
X4680D02*
X4619D01*
X4589Y-516D01*
Y-455D01*
X4619Y-424D01*
X4680D01*
X4711Y-455D01*
Y-485D01*
X4589D01*
X4893Y-363D02*
Y-546D01*
X4802D01*
X4771Y-516D01*
Y-455D01*
X4802Y-424D01*
X4893D01*
X5137Y-363D02*
Y-546D01*
Y-455D01*
X5259D01*
Y-363D01*
Y-546D01*
X5350D02*
X5411D01*
X5442Y-516D01*
Y-455D01*
X5411Y-424D01*
X5350D01*
X5320Y-455D01*
Y-516D01*
X5350Y-546D01*
X5503D02*
X5564D01*
X5533D01*
Y-363D01*
X5503D01*
X5747Y-546D02*
X5686D01*
X5655Y-516D01*
Y-455D01*
X5686Y-424D01*
X5747D01*
X5777Y-455D01*
Y-485D01*
X5655D01*
X6143Y-394D02*
X6112Y-363D01*
X6051D01*
X6021Y-394D01*
Y-424D01*
X6051Y-455D01*
X6112D01*
X6143Y-485D01*
Y-516D01*
X6112Y-546D01*
X6051D01*
X6021Y-516D01*
X6204Y-546D02*
X6265D01*
X6234D01*
Y-424D01*
X6204D01*
X6356D02*
X6478D01*
X6356Y-546D01*
X6478D01*
X6630D02*
X6569D01*
X6539Y-516D01*
Y-455D01*
X6569Y-424D01*
X6630D01*
X6661Y-455D01*
Y-485D01*
X6539D01*
X1780Y-363D02*
Y-546D01*
Y-455D01*
X1902D01*
Y-363D01*
Y-546D01*
X1963D02*
X2024D01*
X1994D01*
Y-424D01*
X1963D01*
X2146Y-394D02*
Y-424D01*
X2115D01*
X2176D01*
X2146D01*
Y-516D01*
X2176Y-546D01*
X2572Y-394D02*
X2542Y-363D01*
X2481D01*
X2451Y-394D01*
Y-516D01*
X2481Y-546D01*
X2542D01*
X2572Y-516D01*
X2664Y-546D02*
X2725D01*
X2755Y-516D01*
Y-455D01*
X2725Y-424D01*
X2664D01*
X2633Y-455D01*
Y-516D01*
X2664Y-546D01*
X2816Y-424D02*
Y-516D01*
X2847Y-546D01*
X2938D01*
Y-424D01*
X2999Y-546D02*
Y-424D01*
X3090D01*
X3121Y-455D01*
Y-546D01*
X3212Y-394D02*
Y-424D01*
X3182D01*
X3243D01*
X3212D01*
Y-516D01*
X3243Y-546D01*
X617Y-394D02*
X587Y-363D01*
X526D01*
X495Y-394D01*
Y-424D01*
X526Y-455D01*
X587D01*
X617Y-485D01*
Y-516D01*
X587Y-546D01*
X526D01*
X495Y-516D01*
X678Y-424D02*
Y-516D01*
X709Y-546D01*
X800D01*
Y-577D01*
X770Y-607D01*
X739D01*
X800Y-546D02*
Y-424D01*
X861Y-546D02*
Y-424D01*
X891D01*
X922Y-455D01*
Y-546D01*
Y-455D01*
X952Y-424D01*
X983Y-455D01*
Y-546D01*
X1044Y-363D02*
Y-546D01*
X1135D01*
X1166Y-516D01*
Y-485D01*
Y-455D01*
X1135Y-424D01*
X1044D01*
X1257Y-546D02*
X1318D01*
X1348Y-516D01*
Y-455D01*
X1318Y-424D01*
X1257D01*
X1227Y-455D01*
Y-516D01*
X1257Y-546D01*
X1409D02*
X1470D01*
X1440D01*
Y-363D01*
X1409D01*
M02*
