%FSLAX42Y42*%
%MOMM*%
G71*
G01*
G75*
G04 Layer_Physical_Order=1*
G04 Layer_Color=191*
%ADD10R,2.15X5.50*%
%ADD11R,3.00X7.50*%
%ADD12R,3.50X3.80*%
%ADD13O,0.25X0.70*%
%ADD14O,0.70X0.25*%
%ADD15R,1.60X1.60*%
%ADD16O,0.45X1.70*%
%ADD17R,0.66X0.94*%
%ADD18R,0.00X0.00*%
%ADD19R,0.00X0.00*%
%ADD20R,0.84X0.66*%
%ADD21R,1.70X1.70*%
%ADD22O,0.85X0.28*%
%ADD23O,0.28X0.85*%
%ADD24R,1.40X1.05*%
%ADD25R,1.25X1.50*%
%ADD26R,0.85X1.30*%
%ADD27R,1.00X1.00*%
G04:AMPARAMS|DCode=28|XSize=0.24mm|YSize=0.6mm|CornerRadius=0.08mm|HoleSize=0mm|Usage=FLASHONLY|Rotation=0.000|XOffset=0mm|YOffset=0mm|HoleType=Round|Shape=RoundedRectangle|*
%AMROUNDEDRECTD28*
21,1,0.24,0.43,0,0,0.0*
21,1,0.07,0.60,0,0,0.0*
1,1,0.17,0.04,-0.22*
1,1,0.17,-0.04,-0.22*
1,1,0.17,-0.04,0.22*
1,1,0.17,0.04,0.22*
%
%ADD28ROUNDEDRECTD28*%
%ADD29R,2.40X1.65*%
%ADD30O,0.30X0.85*%
%ADD31R,1.45X1.15*%
%ADD32R,1.15X1.45*%
%ADD33R,1.55X1.35*%
%ADD34R,0.95X1.35*%
%ADD35R,1.30X0.85*%
%ADD36R,1.05X1.40*%
%ADD37R,1.50X1.25*%
%ADD38R,1.00X1.00*%
%ADD39R,0.94X0.66*%
%ADD40R,0.00X0.00*%
%ADD41R,0.00X0.00*%
%ADD42R,0.66X0.84*%
%ADD43R,1.35X0.95*%
%ADD44R,1.35X1.55*%
%ADD45C,1.00*%
%ADD46C,0.64*%
%ADD47C,0.51*%
%ADD48C,0.38*%
%ADD49C,0.43*%
%ADD50C,0.25*%
%ADD51C,0.46*%
%ADD52C,0.76*%
%ADD53R,0.85X0.20*%
%ADD54R,2.85X1.58*%
%ADD55C,2.10*%
%ADD56C,1.50*%
%ADD57R,1.50X1.50*%
%ADD58R,1.50X1.50*%
%ADD59C,7.00*%
%ADD60C,0.50*%
%ADD61C,0.46*%
%ADD62C,0.61*%
G36*
X8166Y1970D02*
X6924D01*
X6834Y2029D01*
X6829Y2030D01*
X6830Y2042D01*
X7337D01*
X7353Y2046D01*
X7367Y2055D01*
X7427Y2115D01*
X7569D01*
Y2317D01*
X7382D01*
Y2190D01*
X7319Y2128D01*
X6695D01*
X6693Y2131D01*
X6686Y2136D01*
X6690Y2148D01*
X6921Y2148D01*
X7023Y2250D01*
X7023Y2953D01*
X8166D01*
Y1970D01*
D02*
G37*
G36*
Y827D02*
X7023D01*
Y1589D01*
X6947Y1666D01*
X6639D01*
X6637Y1669D01*
X6633Y1688D01*
X6622Y1704D01*
X6617Y1709D01*
X6617Y1747D01*
X6619Y1749D01*
X6632Y1752D01*
X6640Y1757D01*
X6648Y1752D01*
X6652Y1751D01*
Y1805D01*
X6678D01*
Y1751D01*
X6682Y1752D01*
X6693Y1759D01*
X6695Y1762D01*
X7319D01*
X7382Y1700D01*
Y1573D01*
X7569D01*
Y1775D01*
X7427D01*
X7367Y1835D01*
X7353Y1845D01*
X7337Y1848D01*
X6830D01*
X6829Y1860D01*
X6834Y1862D01*
X6924Y1920D01*
X8166D01*
Y827D01*
D02*
G37*
G36*
X1864Y6235D02*
X1930D01*
Y6141D01*
X1864D01*
Y6090D01*
X1664D01*
Y6283D01*
X1864D01*
Y6235D01*
D02*
G37*
G36*
X8339Y3141D02*
X8291D01*
Y3075D01*
X8197D01*
Y3141D01*
X8146D01*
Y3342D01*
X8339D01*
Y3141D01*
D02*
G37*
%LPC*%
G36*
X7569Y1547D02*
X7382D01*
Y1345D01*
X7569D01*
Y1547D01*
D02*
G37*
G36*
X7782D02*
X7595D01*
Y1345D01*
X7782D01*
Y1547D01*
D02*
G37*
G36*
Y1775D02*
X7595D01*
Y1573D01*
X7782D01*
Y1775D01*
D02*
G37*
G36*
Y2545D02*
X7595D01*
Y2343D01*
X7782D01*
Y2545D01*
D02*
G37*
G36*
X7569D02*
X7382D01*
Y2343D01*
X7569D01*
Y2545D01*
D02*
G37*
G36*
X7782Y2317D02*
X7595D01*
Y2115D01*
X7782D01*
Y2317D01*
D02*
G37*
%LPD*%
D10*
X2678Y5985D02*
D03*
X3063D02*
D03*
D11*
X1291Y4990D02*
D03*
X791D02*
D03*
X8175Y4985D02*
D03*
X7675D02*
D03*
D12*
X7582Y1560D02*
D03*
Y2330D02*
D03*
D13*
X2338Y4331D02*
D03*
X2288D02*
D03*
X2238D02*
D03*
X2188D02*
D03*
Y4041D02*
D03*
X2238D02*
D03*
X2288D02*
D03*
X2338D02*
D03*
X7558Y7068D02*
D03*
X7608D02*
D03*
X7658D02*
D03*
X7708D02*
D03*
Y6779D02*
D03*
X7658D02*
D03*
X7608D02*
D03*
X7558D02*
D03*
D14*
X2118Y4261D02*
D03*
Y4211D02*
D03*
Y4161D02*
D03*
Y4111D02*
D03*
X2408D02*
D03*
Y4161D02*
D03*
Y4211D02*
D03*
Y4261D02*
D03*
X7488Y6849D02*
D03*
Y6899D02*
D03*
Y6948D02*
D03*
Y6999D02*
D03*
X7778D02*
D03*
Y6948D02*
D03*
Y6899D02*
D03*
Y6849D02*
D03*
D15*
X2263Y4186D02*
D03*
X7633Y6923D02*
D03*
D16*
X1266Y6177D02*
D03*
X1136D02*
D03*
X1071D02*
D03*
X1201D02*
D03*
X1266Y6597D02*
D03*
X1136D02*
D03*
X1201D02*
D03*
X1071D02*
D03*
X7535Y3818D02*
D03*
X7600D02*
D03*
X7665D02*
D03*
X7730D02*
D03*
X7535Y4238D02*
D03*
X7600D02*
D03*
X7665D02*
D03*
X7730D02*
D03*
D17*
X1749Y6187D02*
D03*
D18*
X1669Y6183D02*
D03*
D19*
X1666Y6200D02*
D03*
D20*
X1516Y6187D02*
D03*
D21*
X2651Y7331D02*
D03*
D22*
X2503Y7256D02*
D03*
Y7306D02*
D03*
Y7356D02*
D03*
Y7406D02*
D03*
X2798D02*
D03*
Y7356D02*
D03*
Y7306D02*
D03*
Y7256D02*
D03*
D23*
X2576Y7478D02*
D03*
X2626D02*
D03*
X2676D02*
D03*
X2726D02*
D03*
Y7183D02*
D03*
X2676D02*
D03*
X2626D02*
D03*
X2576D02*
D03*
D24*
X1575Y7185D02*
D03*
Y6995D02*
D03*
X6998Y4009D02*
D03*
Y4199D02*
D03*
X7531Y3462D02*
D03*
Y3272D02*
D03*
X7734Y3462D02*
D03*
Y3272D02*
D03*
X6235Y2476D02*
D03*
Y2286D02*
D03*
X8217Y7121D02*
D03*
Y7311D02*
D03*
X7709Y6180D02*
D03*
Y5990D02*
D03*
X7887Y6180D02*
D03*
Y5990D02*
D03*
X7150Y6325D02*
D03*
Y6515D02*
D03*
X7887Y4047D02*
D03*
Y3857D02*
D03*
X1448Y6812D02*
D03*
Y6622D02*
D03*
X1025Y5764D02*
D03*
Y5954D02*
D03*
X889Y6489D02*
D03*
Y6299D02*
D03*
X2642Y4709D02*
D03*
Y4899D02*
D03*
X2718Y3781D02*
D03*
Y3591D02*
D03*
X2921Y3781D02*
D03*
Y3591D02*
D03*
X3272Y7165D02*
D03*
Y7355D02*
D03*
D25*
X3305Y5553D02*
D03*
X3095D02*
D03*
X5801Y2275D02*
D03*
X6010D02*
D03*
X7166Y7228D02*
D03*
X6956D02*
D03*
X1578Y3864D02*
D03*
X1368D02*
D03*
D26*
X3483Y4223D02*
D03*
X3653D02*
D03*
X5236Y1158D02*
D03*
X5406D02*
D03*
X7362Y3545D02*
D03*
X7192D02*
D03*
X2142Y7521D02*
D03*
X1972D02*
D03*
X4021Y3567D02*
D03*
X3851D02*
D03*
X3317Y3795D02*
D03*
X3487D02*
D03*
D27*
X2295Y4753D02*
D03*
X2125D02*
D03*
X2295Y4956D02*
D03*
X2125D02*
D03*
D28*
X6365Y2085D02*
D03*
X6415D02*
D03*
X6465D02*
D03*
X6515D02*
D03*
X6565D02*
D03*
X6615D02*
D03*
X6665D02*
D03*
Y1805D02*
D03*
X6615D02*
D03*
X6565D02*
D03*
X6515D02*
D03*
X6465D02*
D03*
X6415D02*
D03*
X6365D02*
D03*
D29*
X3759Y3940D02*
D03*
X4966Y1234D02*
D03*
D30*
X3857Y3793D02*
D03*
X3792D02*
D03*
X3727D02*
D03*
X3662D02*
D03*
Y4088D02*
D03*
X3727D02*
D03*
X3792D02*
D03*
X3857D02*
D03*
X4868Y1086D02*
D03*
X4933D02*
D03*
X4998D02*
D03*
X5063D02*
D03*
Y1381D02*
D03*
X4998D02*
D03*
X4933D02*
D03*
X4868D02*
D03*
D31*
X6108Y1199D02*
D03*
Y1379D02*
D03*
X7455Y7265D02*
D03*
Y7445D02*
D03*
X7353Y3709D02*
D03*
Y3889D02*
D03*
X8395Y3887D02*
D03*
Y4067D02*
D03*
X1600Y5611D02*
D03*
Y5791D02*
D03*
X797Y5769D02*
D03*
Y5949D02*
D03*
X2540Y7916D02*
D03*
Y7736D02*
D03*
X2007Y3535D02*
D03*
Y3355D02*
D03*
D32*
X590Y5741D02*
D03*
X410D02*
D03*
X2755Y7814D02*
D03*
X2935D02*
D03*
X7477Y6140D02*
D03*
X7297D02*
D03*
X7847Y4231D02*
D03*
X8028D02*
D03*
D33*
X787Y6846D02*
D03*
Y7046D02*
D03*
X4369Y757D02*
D03*
Y957D02*
D03*
X8124Y6507D02*
D03*
Y6307D02*
D03*
D34*
X1871Y6616D02*
D03*
X1711D02*
D03*
X4970Y1522D02*
D03*
X4810D02*
D03*
X6588Y1539D02*
D03*
X6747D02*
D03*
X6588Y1361D02*
D03*
X6747D02*
D03*
X6588Y1183D02*
D03*
X6747D02*
D03*
X6588Y1005D02*
D03*
X6747D02*
D03*
X5940Y1899D02*
D03*
X6100D02*
D03*
X7433Y4470D02*
D03*
X7273D02*
D03*
X2696Y6582D02*
D03*
X2536D02*
D03*
X2696Y6775D02*
D03*
X2536D02*
D03*
X2696Y6391D02*
D03*
X2536D02*
D03*
X3255Y5134D02*
D03*
X3095D02*
D03*
X3255Y5337D02*
D03*
X3095D02*
D03*
X3551Y3567D02*
D03*
X3711D02*
D03*
X4257Y4341D02*
D03*
X4097D02*
D03*
D35*
X5359Y1502D02*
D03*
Y1673D02*
D03*
X4623Y1310D02*
D03*
Y1140D02*
D03*
X1803Y5616D02*
D03*
Y5786D02*
D03*
X3124Y6997D02*
D03*
Y6827D02*
D03*
D36*
X6178Y2072D02*
D03*
X5988D02*
D03*
X7106Y7000D02*
D03*
X7296D02*
D03*
X6953Y6403D02*
D03*
X6763D02*
D03*
X8046Y4053D02*
D03*
X8236D02*
D03*
X8236Y3875D02*
D03*
X8046D02*
D03*
X7194Y3850D02*
D03*
X7004D02*
D03*
X595Y5944D02*
D03*
X405D02*
D03*
X2660Y5159D02*
D03*
X2470D02*
D03*
X2000Y3165D02*
D03*
X1810D02*
D03*
X2775Y4362D02*
D03*
X2965D02*
D03*
X1390Y7200D02*
D03*
X1200D02*
D03*
X1390Y6997D02*
D03*
X1200D02*
D03*
D37*
X6337Y1183D02*
D03*
Y973D02*
D03*
X5753Y1865D02*
D03*
Y2075D02*
D03*
X8395Y7346D02*
D03*
Y7136D02*
D03*
X2489Y3632D02*
D03*
Y3842D02*
D03*
D38*
X6235Y2860D02*
D03*
Y2690D02*
D03*
X7709Y6526D02*
D03*
Y6356D02*
D03*
X7887Y6526D02*
D03*
Y6356D02*
D03*
D39*
X8242Y3257D02*
D03*
D40*
X8238Y3337D02*
D03*
D41*
X8255Y3340D02*
D03*
D42*
X8242Y3489D02*
D03*
D43*
X4572Y963D02*
D03*
Y803D02*
D03*
X6722Y2581D02*
D03*
Y2741D02*
D03*
X6900Y2581D02*
D03*
Y2741D02*
D03*
X7645Y7504D02*
D03*
Y7664D02*
D03*
X2184Y3543D02*
D03*
Y3703D02*
D03*
D44*
X4990Y1715D02*
D03*
X4790D02*
D03*
X7733Y3621D02*
D03*
X7533D02*
D03*
X1678Y4448D02*
D03*
X1878D02*
D03*
X3531Y3135D02*
D03*
X3731D02*
D03*
X4090Y4633D02*
D03*
X4290D02*
D03*
D45*
X711Y8572D02*
D03*
Y1092D02*
D03*
X8420Y1080D02*
D03*
D46*
X8222Y3220D02*
X8242Y3240D01*
X5988Y2072D02*
X6010Y2094D01*
Y2275D01*
X7337Y1805D02*
X7582Y1560D01*
X6628Y1805D02*
X7337D01*
X7337Y2085D02*
X7582Y2330D01*
X6628Y2085D02*
X7337D01*
X8236Y4053D02*
X8250Y4067D01*
X8395D01*
X8039Y4047D02*
X8046Y4040D01*
Y3875D02*
Y4040D01*
X7887Y4047D02*
X8039D01*
X7847Y4086D02*
X7887Y4047D01*
X7847Y4086D02*
Y4231D01*
X7531Y3462D02*
X7533Y3464D01*
Y3621D01*
X7733Y3464D02*
X7734Y3462D01*
X7733Y3464D02*
Y3621D01*
X6947Y7000D02*
X6947Y7000D01*
X7106D01*
X7794Y7504D02*
X7798Y7508D01*
X7645Y7504D02*
X7794D01*
X7887Y6356D02*
X7887Y6356D01*
Y6180D02*
Y6356D01*
X7709Y6180D02*
X7709Y6180D01*
X7709Y6180D02*
Y6356D01*
X3731Y2978D02*
Y3135D01*
X1778Y2467D02*
X1782Y2463D01*
Y2264D02*
Y2463D01*
X1580Y5591D02*
X1600Y5611D01*
X1422Y5591D02*
X1580D01*
X1025Y5633D02*
X1067Y5591D01*
X1025Y5633D02*
Y5764D01*
X1282Y2264D02*
X1409Y2390D01*
X782Y2264D02*
X791Y2273D01*
Y4990D01*
X405Y5376D02*
Y5944D01*
X768Y5741D02*
X797Y5769D01*
X628Y5741D02*
X794D01*
X797Y5769D02*
X802Y5764D01*
X827D02*
X1025D01*
X797Y5949D02*
X802Y5954D01*
X792Y5944D02*
X797Y5949D01*
X827Y5954D02*
X1025D01*
X1778Y8156D02*
X1972Y7962D01*
Y7521D02*
Y7962D01*
X2525Y6137D02*
X2678Y5985D01*
X1390Y7200D02*
Y7261D01*
X1499Y7369D01*
X1390Y7200D02*
X1406Y7185D01*
X1575D01*
X1390Y6997D02*
X1393Y6995D01*
X1575D01*
X1207Y5794D02*
Y5944D01*
X744Y7046D02*
X787D01*
X610Y6912D02*
X744Y7046D01*
X633Y5944D02*
X817D01*
X1810Y3165D02*
Y3454D01*
X2177Y3535D02*
X2184Y3543D01*
X2000Y3165D02*
X2007Y3172D01*
Y3355D01*
X2000Y3165D02*
X2210D01*
X2184Y3394D02*
Y3543D01*
X2007Y4838D02*
X2125Y4956D01*
X2295D02*
X2470Y5132D01*
Y5159D01*
X2295Y4753D02*
X2441Y4899D01*
X2921Y3781D02*
X2984Y3844D01*
X1880Y6620D02*
X2019D01*
X1803Y5464D02*
Y5616D01*
X2718Y3432D02*
X2718Y3432D01*
X2718Y3432D02*
Y3591D01*
X2782Y2264D02*
X3016D01*
X3731Y2978D01*
Y3131D02*
Y3135D01*
X3711Y3155D02*
X3731Y3135D01*
X3711Y3155D02*
Y3567D01*
X3148Y4481D02*
Y4735D01*
Y4297D02*
Y4481D01*
X4090Y4341D02*
Y4633D01*
X3988Y4735D02*
X4090Y4633D01*
X3910Y4735D02*
X3988D01*
X3910Y4481D02*
Y4735D01*
X3361Y3567D02*
X3551D01*
X3335Y3135D02*
X3531D01*
X3271Y7166D02*
X3272Y7165D01*
X3305Y7131D01*
Y5566D02*
Y7131D01*
X2667Y7039D02*
X2676Y7047D01*
X1390Y6870D02*
X1448Y6812D01*
X1390Y6870D02*
Y6997D01*
X2540Y7514D02*
Y7736D01*
X2452D02*
X2540D01*
X2540Y8156D02*
Y8410D01*
X2536Y6378D02*
Y6582D01*
X3063Y5934D02*
X3124Y5995D01*
Y6059D02*
Y6776D01*
X2142Y7521D02*
X2394D01*
X2935Y7814D02*
X3099D01*
X5804Y624D02*
Y878D01*
Y1031D01*
X5677Y1158D02*
X5804Y1031D01*
X5406Y1158D02*
X5677D01*
X5236Y1123D02*
Y1158D01*
X5199Y1086D02*
X5236Y1123D01*
X4970Y1522D02*
X5015Y1568D01*
X5042Y624D02*
Y878D01*
X4810Y1711D02*
X4815Y1716D01*
Y1893D01*
X4813Y1894D02*
X4815Y1893D01*
X5015Y1568D02*
Y1893D01*
X7321Y4199D02*
X7433Y4311D01*
X6998Y4199D02*
X7321D01*
X7433Y4311D02*
Y4409D01*
X6998Y3857D02*
Y4009D01*
Y3857D02*
X7004Y3850D01*
X7362Y3545D02*
Y3701D01*
X7353Y3709D02*
X7362Y3701D01*
X7353Y3889D02*
Y4053D01*
X7709Y5990D02*
X7887D01*
X8014Y3220D02*
X8222D01*
X7887Y5990D02*
X7893Y5984D01*
X8028Y4231D02*
Y4409D01*
X4290Y4633D02*
X4529D01*
X4257Y4341D02*
X4517D01*
X4021Y3567D02*
X4089Y3635D01*
Y4362D01*
X3175Y3795D02*
X3317D01*
X3487D02*
X3632D01*
X3218Y4227D02*
X3483D01*
X3148Y4297D02*
X3218Y4227D01*
X3910Y4387D02*
Y4481D01*
X3255Y5137D02*
X3480D01*
X3255Y5337D02*
X3480D01*
X3095Y5011D02*
Y5337D01*
X3095D02*
Y5566D01*
X3063Y5586D02*
Y5934D01*
Y5985D01*
X2007Y4527D02*
Y4838D01*
Y4527D02*
X2108Y4426D01*
X2441Y4899D02*
X2642D01*
X2660Y5159D02*
X2746D01*
X2832Y5074D01*
X2642Y4709D02*
X2746D01*
X2832Y4794D01*
Y5074D01*
X2125Y4625D02*
Y4753D01*
X2984Y3844D02*
Y4045D01*
X2718Y3781D02*
Y4045D01*
X2921Y3422D02*
Y3591D01*
X1865Y3677D02*
X2007Y3535D01*
X1676Y4450D02*
X1678Y4448D01*
X1676Y4450D02*
Y4579D01*
X1765Y4667D01*
X2642Y4121D02*
X2718Y4045D01*
X2527Y4121D02*
X2642D01*
X1901Y6009D02*
X2053D01*
X1803Y5912D02*
X1901Y6009D01*
X1803Y5786D02*
Y5912D01*
X1605Y5786D02*
X1803D01*
X1600Y5791D02*
X1605Y5786D01*
X1764Y6187D02*
X1768Y6191D01*
X1765Y6194D02*
X1768Y6191D01*
X1765Y6194D02*
Y6394D01*
X1291Y4990D02*
X1299Y4998D01*
Y5683D01*
X1346Y5730D02*
Y5924D01*
X1299Y5683D02*
X1346Y5730D01*
X1473Y6378D02*
X1711Y6616D01*
X1473Y6378D02*
X1473D01*
X1676Y6801D02*
X2032D01*
X1498Y6622D02*
X1676Y6801D01*
X1448Y6622D02*
X1498D01*
X1025Y5954D02*
Y6140D01*
X877Y6288D02*
X1025Y6140D01*
X787Y7046D02*
X931D01*
X1085Y7200D01*
X1200D01*
X610Y6750D02*
X673Y6686D01*
X610Y6750D02*
Y6912D01*
X787Y6846D02*
X934D01*
X1084Y6996D01*
X673Y6686D02*
X952D01*
X2387Y6378D02*
X2536D01*
X2413Y6137D02*
X2525D01*
X2286Y6277D02*
X2387Y6378D01*
X2696Y6391D02*
X2841D01*
X2696Y6582D02*
X2841D01*
X2696Y6775D02*
X2845D01*
X2536Y6582D02*
Y6785D01*
X3067Y7054D02*
X3124Y6997D01*
X2963Y7054D02*
X3067D01*
X2924Y7093D02*
X2963Y7054D01*
X3062Y7166D02*
X3271D01*
X2338Y4331D02*
Y4593D01*
X2454Y4709D01*
X2642D01*
X2972Y4362D02*
X2972Y4362D01*
Y4553D01*
X2567Y4237D02*
X2692Y4362D01*
X2775D01*
X1587Y3677D02*
X1810Y3454D01*
X1711Y3864D02*
X1917Y4070D01*
X1587Y3864D02*
X1711D01*
X1578D02*
X1587D01*
Y3677D02*
Y3864D01*
X2756Y7503D02*
Y7826D01*
X2121Y7283D02*
X2193Y7356D01*
X2273Y7258D02*
X2275Y7256D01*
X2376D01*
X2225Y6785D02*
X2536D01*
X2016Y6995D02*
X2225Y6785D01*
X2462Y6902D02*
X2463Y6904D01*
X2298Y6902D02*
X2462D01*
X2463Y6904D02*
X3022D01*
X3124Y6801D01*
X2375Y7814D02*
X2452Y7736D01*
X2375Y7814D02*
Y8020D01*
X2511Y8156D01*
X2540D01*
X5893Y387D02*
X5960Y454D01*
X5363Y1678D02*
Y1869D01*
X4369Y552D02*
Y757D01*
X4572Y616D02*
Y803D01*
X4966Y955D02*
X5042Y878D01*
X4966Y955D02*
Y1086D01*
X4626Y1314D02*
X4775D01*
X4653Y1522D02*
X4810D01*
X4966Y1381D02*
Y1518D01*
X4330Y387D02*
X5893D01*
X4191Y527D02*
X4330Y387D01*
X4191Y527D02*
Y844D01*
X4303Y957D01*
X4623Y1013D02*
Y1140D01*
X4572Y963D02*
X4623Y1013D01*
X4374Y963D02*
X4572D01*
X4369Y957D02*
X4374Y963D01*
X4881Y624D02*
X5042D01*
X4724Y781D02*
X4881Y624D01*
X4724Y781D02*
Y912D01*
X4623Y1013D02*
X4724Y912D01*
X5486Y1574D02*
X5960Y1100D01*
X5753Y2075D02*
X5763Y2086D01*
Y2238D01*
X5801Y2275D01*
X5753Y1695D02*
Y1865D01*
X5600Y1632D02*
Y2013D01*
X5663Y2075D01*
X5753D01*
X5960Y454D02*
Y1100D01*
X6321Y1199D02*
X6337Y1183D01*
X5893Y1852D02*
X5940Y1899D01*
X5893Y1594D02*
Y1852D01*
X6337Y973D02*
X6555D01*
X6588Y1005D01*
X5960Y971D02*
X6337D01*
X6588Y1005D02*
Y1183D01*
Y1361D01*
Y1539D01*
Y1669D01*
X6747Y1539D02*
X6909D01*
X6747Y1361D02*
X6909D01*
X6747Y1183D02*
X6909D01*
X6747Y1005D02*
X6909D01*
X6108Y1199D02*
X6321D01*
X5600Y1632D02*
X5854Y1378D01*
X6108Y1379D02*
X6364D01*
X6439Y1454D01*
Y1683D01*
X5854Y1378D02*
X6108D01*
X6121Y1848D02*
X6235D01*
X5486Y1574D02*
Y2241D01*
X5689Y2445D01*
X6010Y2275D02*
Y2377D01*
X5943Y2445D02*
X6010Y2377D01*
X5689Y2445D02*
X5943D01*
X6191Y2085D02*
X6350D01*
X6178Y2072D02*
X6191Y2085D01*
X6178Y2072D02*
Y2229D01*
X6235Y2286D01*
Y2476D02*
Y2680D01*
X6235Y2690D02*
X6235Y2690D01*
X6235Y2860D02*
X6379D01*
X6900Y2741D02*
Y2906D01*
X6722Y2741D02*
Y2910D01*
Y2581D02*
X6900D01*
X6542Y2401D02*
X6722Y2581D01*
X6542Y2191D02*
Y2401D01*
X6413Y2167D02*
Y2318D01*
X7124Y3272D02*
X7531D01*
X7004Y3392D02*
X7124Y3272D01*
X7004Y3392D02*
Y3850D01*
X8236Y4053D02*
Y4153D01*
X8157Y4231D02*
X8236Y4153D01*
X8028Y4231D02*
X8157D01*
X8033Y3489D02*
X8242D01*
X6985Y3118D02*
X7661D01*
X6782Y3321D02*
X6985Y3118D01*
X6782Y3321D02*
Y4108D01*
X6872Y4199D01*
X6998D01*
X7188Y3410D02*
Y3545D01*
X7194Y3759D02*
X7244Y3709D01*
X7194Y3759D02*
Y3850D01*
X7244Y3709D02*
X7353D01*
X7769Y3857D02*
X7887D01*
X7759Y4231D02*
X7847D01*
X7600Y4533D02*
Y4910D01*
X7675Y4985D01*
X8236Y3875D02*
X8383D01*
X8395Y3887D01*
X8529D01*
X8610Y3969D01*
Y4197D01*
X8399Y4409D02*
X8610Y4197D01*
X8175Y4985D02*
X8399Y4760D01*
X7816Y3272D02*
X8033Y3489D01*
X7734Y3272D02*
X7816D01*
X7661Y3118D02*
X7816Y3272D01*
X8395Y7346D02*
Y7562D01*
X8394Y7563D02*
X8395Y7562D01*
X6790Y7228D02*
X6956D01*
X6953Y6248D02*
Y6403D01*
X6921Y6217D02*
X6953Y6248D01*
X7290Y5950D02*
Y6133D01*
X7455Y7449D02*
X7455Y7448D01*
X7455Y7449D02*
Y7614D01*
X6763Y6403D02*
Y6763D01*
X7036D02*
X7086D01*
X7296Y6972D01*
Y7000D01*
X7150Y6149D02*
Y6327D01*
X7645Y7664D02*
X7747Y7765D01*
X7455Y7171D02*
Y7265D01*
X8217Y7121D02*
X8395D01*
X8128Y6090D02*
Y6303D01*
X8124Y6307D02*
X8128Y6303D01*
X8026Y6725D02*
X8102D01*
X7963Y6788D02*
X8026Y6725D01*
X8164Y7067D02*
X8217Y7121D01*
X7975Y7067D02*
X8164D01*
X8217Y7311D02*
Y7512D01*
X7759Y7969D02*
X8217Y7512D01*
X7429Y7969D02*
X7759D01*
X7290Y7829D02*
X7429Y7969D01*
X7396Y7265D02*
X7455D01*
X7290Y7372D02*
X7396Y7265D01*
X7290Y7372D02*
Y7829D01*
X7225Y7169D02*
X7328D01*
X7166Y7228D02*
X7225Y7169D01*
X7150Y6648D02*
X7340Y6839D01*
X7772Y6714D02*
X7820Y6666D01*
Y6593D02*
Y6666D01*
Y6593D02*
X7887Y6526D01*
X7477Y6191D02*
Y6506D01*
Y6012D02*
Y6191D01*
Y6012D02*
X7506Y5984D01*
X7893D01*
X1181Y3867D02*
X1365D01*
X1368Y3864D01*
X2053Y6009D02*
X2133Y6090D01*
Y6699D01*
X2032Y6801D02*
X2133Y6699D01*
X1575Y6995D02*
X2016D01*
X1626Y7385D02*
X2016Y6995D01*
X2121Y7080D02*
X2298Y6902D01*
X2121Y7080D02*
Y7283D01*
X8399Y4409D02*
Y4760D01*
X8242Y4409D02*
X8399D01*
X3095Y5011D02*
X3127Y4978D01*
X3910Y4735D02*
Y4916D01*
X3848Y4978D02*
X3910Y4916D01*
X3127Y4978D02*
X3848D01*
X6020Y1689D02*
Y1746D01*
X6121Y1848D01*
X2638Y8014D02*
X2718D01*
X2540Y7916D02*
X2638Y8014D01*
X405Y5376D02*
X791Y4990D01*
X7477Y6506D02*
X7569Y6598D01*
Y6757D01*
X7590Y6779D01*
X7632Y7169D02*
Y7491D01*
X7645Y7504D01*
X8187Y6948D02*
X8394Y6741D01*
X7950Y6948D02*
X8187D01*
X7709Y6526D02*
Y6610D01*
X5178Y1381D02*
X5363D01*
X3797Y4210D02*
Y4273D01*
X3910Y4387D01*
X2236Y4456D02*
Y4513D01*
X2125Y4625D02*
X2236Y4513D01*
X2476Y3855D02*
X2489Y3842D01*
X2476Y3855D02*
Y4007D01*
X2210Y3165D02*
X2338Y3294D01*
Y3750D01*
X2010Y3703D02*
X2184D01*
X952Y6686D02*
X1057Y6791D01*
X1084Y6996D02*
X1204D01*
X1626Y7385D02*
Y8560D01*
X2315Y8636D02*
X2540Y8410D01*
X1702Y8636D02*
X2315D01*
X1626Y8560D02*
X1702Y8636D01*
X3272Y7355D02*
X3449D01*
X2660Y5159D02*
Y5404D01*
X2286Y5779D02*
X2660Y5404D01*
X2286Y5779D02*
Y6277D01*
X5363Y1381D02*
Y1495D01*
X5381Y1513D01*
X7277Y4470D02*
Y4648D01*
X1409Y2390D02*
Y3201D01*
X952Y3658D02*
X1409Y3201D01*
X952Y3658D02*
Y4013D01*
X1600Y4661D01*
Y5611D01*
D47*
X2343Y3750D02*
Y4041D01*
X2293Y4331D02*
X2338D01*
X3857Y3573D02*
Y3793D01*
X3725Y3567D02*
Y3791D01*
X3727Y3793D02*
X3792D01*
X3651Y4088D02*
Y4227D01*
X3857Y4038D02*
Y4088D01*
X3759Y3940D02*
X3857Y4038D01*
X3727Y4088D02*
X3792D01*
X3797Y4104D02*
Y4210D01*
X2476Y4007D02*
Y4032D01*
X2184Y3703D02*
X2238Y3756D01*
X2002Y4324D02*
X2055D01*
X1878Y4448D02*
X2002Y4324D01*
X2403Y4106D02*
X2476Y4032D01*
X1291Y6622D02*
X1448D01*
X1266Y6597D02*
X1291Y6622D01*
X1025Y6140D02*
X1063Y6177D01*
X2834Y7183D02*
X2924Y7093D01*
X1778Y4161D02*
X2059D01*
X6278Y1805D02*
X6365D01*
X6235Y1848D02*
X6278Y1805D01*
X7353Y3709D02*
X7427D01*
X7430Y3712D01*
Y3714D01*
X7534Y3818D01*
X7535D01*
X7665Y3689D02*
Y3818D01*
Y3689D02*
X7733Y3621D01*
X7600Y3689D02*
Y3818D01*
X7533Y3621D02*
X7600Y3689D01*
X7730Y3818D02*
X7769Y3857D01*
X7433Y4409D02*
X7535Y4307D01*
Y4238D02*
Y4307D01*
X7665Y4238D02*
Y4382D01*
X7709Y4426D01*
X7455Y7171D02*
X7558Y7068D01*
X8124Y6503D02*
Y6507D01*
X7778Y6849D02*
X8124Y6503D01*
X1136Y6597D02*
Y6713D01*
X1057Y6791D02*
X1136Y6713D01*
D48*
X2238Y3921D02*
Y4041D01*
X2288D01*
X2676Y7047D02*
Y7183D01*
X2055Y4324D02*
X2118Y4261D01*
X2059Y4161D02*
X2118D01*
X1981Y4210D02*
X2117D01*
X1943Y4248D02*
X1981Y4210D01*
X2408Y4161D02*
X2487D01*
X2527Y4121D01*
X1136Y6039D02*
Y6177D01*
Y6039D02*
X1207Y5968D01*
Y5944D02*
Y5968D01*
X1201Y6177D02*
X1206Y6172D01*
Y6064D02*
Y6172D01*
Y6064D02*
X1346Y5924D01*
X2798Y7256D02*
X2972D01*
X2376D02*
X2503D01*
Y7306D01*
X2972Y7256D02*
X3062Y7166D01*
X2626Y7478D02*
X2676D01*
X2576D02*
X2626D01*
X2798Y7306D02*
X3012D01*
X2503Y7406D02*
Y7412D01*
X2394Y7521D02*
X2503Y7412D01*
X2408Y4211D02*
X2541D01*
X2567Y4237D01*
X2102Y4096D02*
X2118Y4111D01*
X1943Y4096D02*
X2102D01*
X2238Y3756D02*
Y3921D01*
X1917Y4070D02*
X1943Y4096D01*
X2732Y7478D02*
X2756Y7503D01*
X2798Y7356D02*
X3019D01*
X3035Y7283D02*
X3073D01*
X3012Y7306D02*
X3035Y7283D01*
X2193Y7356D02*
X2503D01*
X4966Y1518D02*
X4970Y1522D01*
X4842Y1381D02*
X4868D01*
X4775Y1314D02*
X4842Y1381D01*
X6439Y1683D02*
Y1721D01*
X6464Y1746D01*
Y1804D01*
X6465Y1805D01*
X7778Y6948D02*
X7929D01*
X7778Y6899D02*
X7852D01*
X7963Y6788D01*
X7778Y6999D02*
X7843D01*
X7912Y7067D01*
X7975D01*
X7488Y6999D02*
Y7009D01*
X7328Y7169D02*
X7488Y7009D01*
X7347Y6948D02*
X7488D01*
X7296Y7000D02*
X7347Y6948D01*
X7400Y6899D02*
X7488D01*
X7340Y6839D02*
X7400Y6899D01*
X7708Y6779D02*
X7772Y6714D01*
X7658Y6804D02*
X7658Y6661D01*
X2798Y7406D02*
X2936D01*
X3124Y7595D01*
X3226D01*
X3111Y7449D02*
Y7455D01*
X3019Y7356D02*
X3111Y7449D01*
X7658Y6661D02*
X7709Y6610D01*
X6415Y1805D02*
Y1895D01*
X4868Y912D02*
Y1086D01*
X4866Y914D02*
X4868Y912D01*
X4864Y914D02*
X4866D01*
D49*
X4290Y4633D02*
X4294Y4629D01*
X1276Y6187D02*
X1516D01*
X1266Y6177D02*
X1276Y6187D01*
X1516D02*
Y6335D01*
X1473Y6378D02*
X1516Y6335D01*
X997Y6597D02*
X1071D01*
X889Y6489D02*
X997Y6597D01*
X2626Y7183D02*
X2676D01*
X2576D02*
X2626D01*
X5063Y1086D02*
X5199D01*
X5063Y1381D02*
X5178D01*
X7600Y4238D02*
Y4533D01*
X1201Y6597D02*
X1204Y6600D01*
Y6996D01*
D50*
X2108Y4412D02*
Y4426D01*
X2726Y7183D02*
X2834D01*
D51*
X2108Y4412D02*
X2188Y4331D01*
X2236Y4361D02*
Y4456D01*
D52*
X6542Y1714D02*
X6588Y1669D01*
X6542Y1714D02*
Y1808D01*
Y2078D02*
Y2191D01*
X6413Y2167D02*
X6439Y2142D01*
Y2089D02*
Y2142D01*
X8162Y4772D02*
Y4891D01*
X7632Y7067D02*
Y7169D01*
X7150Y6578D02*
Y6648D01*
D53*
X6330Y1876D02*
D03*
Y1922D02*
D03*
X6330Y1968D02*
D03*
Y2014D02*
D03*
X6700Y1876D02*
D03*
X6700Y1922D02*
D03*
X6700Y1968D02*
D03*
Y2014D02*
D03*
D54*
X6515Y1945D02*
D03*
D55*
X3282Y2264D02*
D03*
X2782D02*
D03*
X2282D02*
D03*
X1782D02*
D03*
X1282D02*
D03*
X782D02*
D03*
X7460Y8484D02*
D03*
X6960D02*
D03*
X6460D02*
D03*
X5960D02*
D03*
X5460D02*
D03*
X4960D02*
D03*
D56*
X2984Y4045D02*
D03*
X2540Y8156D02*
D03*
X1778D02*
D03*
X2540Y8410D02*
D03*
X5804Y878D02*
D03*
X5042Y624D02*
D03*
Y878D02*
D03*
X6782Y6763D02*
D03*
X8394Y6741D02*
D03*
X1778Y4159D02*
D03*
X3910Y4481D02*
D03*
Y4735D02*
D03*
X3148Y4481D02*
D03*
D57*
X2730Y4045D02*
D03*
X1778Y8410D02*
D03*
X5804Y624D02*
D03*
X7036Y6763D02*
D03*
X1524Y4159D02*
D03*
X3148Y4735D02*
D03*
D58*
X8394Y6487D02*
D03*
D59*
X460Y520D02*
D03*
X840Y9090D02*
D03*
X8210D02*
D03*
X8460Y520D02*
D03*
D60*
X2263Y4186D02*
D03*
X2651Y7331D02*
D03*
X2601Y7381D02*
D03*
X2701Y7381D02*
D03*
X2701Y7281D02*
D03*
X2601Y7281D02*
D03*
X3834Y3990D02*
D03*
X3684D02*
D03*
X3759Y3940D02*
D03*
X3834Y3890D02*
D03*
X3684D02*
D03*
X4966Y1234D02*
D03*
X5041Y1284D02*
D03*
Y1184D02*
D03*
X4891D02*
D03*
Y1284D02*
D03*
X7633Y6923D02*
D03*
D61*
X6615Y1895D02*
D03*
X6565D02*
D03*
X6515D02*
D03*
X6465D02*
D03*
X6415D02*
D03*
X6615Y1945D02*
D03*
X6565D02*
D03*
X6515D02*
D03*
X6465D02*
D03*
X6415D02*
D03*
X6615Y1995D02*
D03*
X6565D02*
D03*
X6515D02*
D03*
X6465D02*
D03*
X6415D02*
D03*
D62*
X6947Y7000D02*
D03*
X8394Y7563D02*
D03*
X7798Y7508D02*
D03*
X1778Y2467D02*
D03*
X1422Y5591D02*
D03*
X1067D02*
D03*
X1473Y6378D02*
D03*
X1499Y7369D02*
D03*
X1207Y5794D02*
D03*
X2184Y3394D02*
D03*
X2019Y6620D02*
D03*
X1803Y5464D02*
D03*
X2718Y3432D02*
D03*
X2667Y7039D02*
D03*
X4813Y1894D02*
D03*
X5015Y1893D02*
D03*
X7353Y4053D02*
D03*
X8039Y4409D02*
D03*
X6998Y3596D02*
D03*
X8014Y3215D02*
D03*
X8242Y4409D02*
D03*
X7506Y5984D02*
D03*
X4521Y4337D02*
D03*
X4534Y4629D02*
D03*
X3175Y3795D02*
D03*
X3480Y5137D02*
D03*
Y5337D02*
D03*
X2921Y3422D02*
D03*
X1865Y3677D02*
D03*
X1765Y4667D02*
D03*
X1943Y4248D02*
D03*
X1765Y6394D02*
D03*
X2413Y6137D02*
D03*
X2845Y6775D02*
D03*
X2841Y6582D02*
D03*
Y6391D02*
D03*
X3099Y7814D02*
D03*
X2972Y4553D02*
D03*
X3073Y7283D02*
D03*
X2273Y7258D02*
D03*
X5363Y1869D02*
D03*
X4369Y552D02*
D03*
X4572Y616D02*
D03*
X4653Y1522D02*
D03*
X6413Y2318D02*
D03*
X5753Y1695D02*
D03*
X5893Y1594D02*
D03*
X6909Y1005D02*
D03*
Y1183D02*
D03*
Y1361D02*
D03*
Y1539D02*
D03*
X6379Y2860D02*
D03*
X6900Y2906D02*
D03*
X6722Y2910D02*
D03*
X6542Y2421D02*
D03*
X7188Y3410D02*
D03*
X7709Y4426D02*
D03*
X6790Y7228D02*
D03*
X6921Y6217D02*
D03*
X7455Y7614D02*
D03*
X7747Y7765D02*
D03*
X8128Y6090D02*
D03*
X8102Y6725D02*
D03*
X1181Y3867D02*
D03*
X6020Y1689D02*
D03*
X3226Y7595D02*
D03*
X3111Y7455D02*
D03*
X2718Y8014D02*
D03*
X3335Y3135D02*
D03*
X3361Y3567D02*
D03*
X2010Y3703D02*
D03*
X3449Y7355D02*
D03*
X7277Y4648D02*
D03*
X7150Y6149D02*
D03*
X7290Y5950D02*
D03*
X4864Y914D02*
D03*
M02*
