%FSLAX42Y42*%
%MOMM*%
G71*
G01*
G75*
G04 Layer_Color=30967*
%ADD10R,2.15X5.50*%
%ADD11R,3.00X7.50*%
%ADD12R,3.50X3.80*%
%ADD13O,0.25X0.70*%
%ADD14O,0.70X0.25*%
%ADD15R,1.60X1.60*%
%ADD16O,0.45X1.70*%
%ADD17R,0.66X0.94*%
%ADD18R,0.00X0.00*%
%ADD19R,0.00X0.00*%
%ADD20R,0.84X0.66*%
%ADD21R,1.70X1.70*%
%ADD22O,0.85X0.28*%
%ADD23O,0.28X0.85*%
%ADD24R,1.40X1.05*%
%ADD25R,1.25X1.50*%
%ADD26R,0.85X1.30*%
%ADD27R,1.00X1.00*%
G04:AMPARAMS|DCode=28|XSize=0.24mm|YSize=0.6mm|CornerRadius=0.08mm|HoleSize=0mm|Usage=FLASHONLY|Rotation=0.000|XOffset=0mm|YOffset=0mm|HoleType=Round|Shape=RoundedRectangle|*
%AMROUNDEDRECTD28*
21,1,0.24,0.43,0,0,0.0*
21,1,0.07,0.60,0,0,0.0*
1,1,0.17,0.04,-0.22*
1,1,0.17,-0.04,-0.22*
1,1,0.17,-0.04,0.22*
1,1,0.17,0.04,0.22*
%
%ADD28ROUNDEDRECTD28*%
%ADD29R,2.40X1.65*%
%ADD30O,0.30X0.85*%
%ADD31R,1.45X1.15*%
%ADD32R,1.15X1.45*%
%ADD33R,1.55X1.35*%
%ADD34R,0.95X1.35*%
%ADD35R,1.30X0.85*%
%ADD36R,1.05X1.40*%
%ADD37R,1.50X1.25*%
%ADD38R,1.00X1.00*%
%ADD39R,0.94X0.66*%
%ADD40R,0.00X0.00*%
%ADD41R,0.00X0.00*%
%ADD42R,0.66X0.84*%
%ADD43R,1.35X0.95*%
%ADD44R,1.35X1.55*%
%ADD45C,1.00*%
%ADD46C,0.64*%
%ADD47C,0.51*%
%ADD48C,0.38*%
%ADD49C,0.43*%
%ADD50C,0.25*%
%ADD51C,0.46*%
%ADD52C,0.76*%
%ADD53R,0.85X0.20*%
%ADD54R,2.85X1.58*%
%ADD55C,2.10*%
%ADD56C,1.50*%
%ADD57R,1.50X1.50*%
%ADD58R,1.50X1.50*%
%ADD59C,7.00*%
%ADD60C,0.50*%
%ADD61C,0.46*%
%ADD62C,0.61*%
%ADD63C,1.02*%
%ADD64C,2.22*%
%ADD65C,1.92*%
%ADD66C,4.22*%
%ADD67C,1.22*%
%ADD68C,1.22*%
%ADD69C,1.32*%
%ADD70C,0.25*%
%ADD71C,0.20*%
%ADD72C,0.10*%
%ADD73C,0.20*%
%ADD74C,0.60*%
%ADD75C,0.05*%
%ADD76R,0.58X0.17*%
%ADD77R,0.46X1.70*%
%ADD78R,0.65X0.19*%
%ADD79R,0.19X0.65*%
%ADD80R,1.70X0.46*%
%ADD81R,0.17X0.58*%
%ADD82R,0.70X0.70*%
%ADD83R,0.70X0.70*%
%ADD84R,1.00X0.65*%
%ADD85R,2.35X5.70*%
%ADD86R,3.20X7.70*%
%ADD87R,3.70X4.00*%
%ADD88O,0.45X0.90*%
%ADD89O,0.90X0.45*%
%ADD90R,1.80X1.80*%
%ADD91O,0.65X1.90*%
%ADD92R,1.04X0.86*%
%ADD93R,1.84X1.84*%
%ADD94O,0.99X0.42*%
%ADD95O,0.42X0.99*%
%ADD96R,1.60X1.25*%
%ADD97R,1.45X1.70*%
%ADD98R,1.05X1.50*%
%ADD99R,1.20X1.20*%
G04:AMPARAMS|DCode=100|XSize=0.44mm|YSize=0.8mm|CornerRadius=0.19mm|HoleSize=0mm|Usage=FLASHONLY|Rotation=0.000|XOffset=0mm|YOffset=0mm|HoleType=Round|Shape=RoundedRectangle|*
%AMROUNDEDRECTD100*
21,1,0.44,0.43,0,0,0.0*
21,1,0.07,0.80,0,0,0.0*
1,1,0.37,0.04,-0.22*
1,1,0.37,-0.04,-0.22*
1,1,0.37,-0.04,0.22*
1,1,0.37,0.04,0.22*
%
%ADD100ROUNDEDRECTD100*%
%ADD101R,2.54X1.79*%
%ADD102O,0.44X0.99*%
%ADD103R,1.65X1.35*%
%ADD104R,1.35X1.65*%
%ADD105R,1.75X1.55*%
%ADD106R,1.15X1.55*%
%ADD107R,1.50X1.05*%
%ADD108R,1.25X1.60*%
%ADD109R,1.70X1.45*%
%ADD110R,1.20X1.20*%
%ADD111R,0.86X1.04*%
%ADD112R,1.55X1.15*%
%ADD113R,1.55X1.75*%
%ADD114C,3.03*%
%ADD115R,1.05X0.40*%
%ADD116R,3.05X1.78*%
%ADD117C,2.30*%
%ADD118C,1.70*%
%ADD119R,1.70X1.70*%
%ADD120R,1.70X1.70*%
%ADD121C,7.20*%
%ADD122C,0.70*%
%ADD123C,0.66*%
%ADD124C,0.81*%
G36*
X8340Y3352D02*
X8341Y3352D01*
X8343Y3352D01*
X8344Y3351D01*
X8345Y3350D01*
X8346Y3349D01*
X8347Y3348D01*
X8348Y3347D01*
X8348Y3346D01*
X8349Y3345D01*
X8349Y3343D01*
X8349Y3342D01*
Y3141D01*
X8349Y3140D01*
X8349Y3139D01*
X8348Y3138D01*
X8348Y3136D01*
X8347Y3135D01*
X8346Y3134D01*
X8345Y3133D01*
X8344Y3133D01*
X8343Y3132D01*
X8341Y3132D01*
X8340Y3131D01*
X8339Y3131D01*
X8301D01*
Y3075D01*
X8301Y3074D01*
X8300Y3073D01*
X8300Y3072D01*
X8299Y3070D01*
X8299Y3069D01*
X8298Y3068D01*
X8297Y3067D01*
X8296Y3067D01*
X8294Y3066D01*
X8293Y3066D01*
X8292Y3065D01*
X8291Y3065D01*
X8197D01*
X8195Y3065D01*
X8194Y3066D01*
X8193Y3066D01*
X8191Y3067D01*
X8190Y3067D01*
X8189Y3068D01*
X8189Y3069D01*
X8188Y3070D01*
X8187Y3072D01*
X8187Y3073D01*
X8186Y3074D01*
X8186Y3075D01*
Y3131D01*
X8146D01*
X8144Y3131D01*
X8143Y3132D01*
X8142Y3132D01*
X8141Y3133D01*
X8140Y3133D01*
X8139Y3134D01*
X8138Y3135D01*
X8137Y3136D01*
X8136Y3138D01*
X8136Y3139D01*
X8136Y3140D01*
X8136Y3141D01*
Y3342D01*
X8136Y3343D01*
X8136Y3345D01*
X8136Y3346D01*
X8137Y3347D01*
X8138Y3348D01*
X8139Y3349D01*
X8140Y3350D01*
X8141Y3351D01*
X8142Y3352D01*
X8143Y3352D01*
X8144Y3352D01*
X8146Y3352D01*
X8339D01*
X8340Y3352D01*
D02*
G37*
G36*
X1866Y6294D02*
X1867Y6293D01*
X1868Y6293D01*
X1869Y6292D01*
X1871Y6291D01*
X1872Y6291D01*
X1872Y6290D01*
X1873Y6289D01*
X1874Y6287D01*
X1874Y6286D01*
X1874Y6285D01*
X1875Y6283D01*
Y6245D01*
X1930D01*
X1932Y6245D01*
X1933Y6245D01*
X1934Y6245D01*
X1935Y6244D01*
X1937Y6243D01*
X1938Y6242D01*
X1938Y6241D01*
X1939Y6240D01*
X1940Y6239D01*
X1940Y6238D01*
X1940Y6236D01*
X1941Y6235D01*
Y6141D01*
X1940Y6140D01*
X1940Y6139D01*
X1940Y6137D01*
X1939Y6136D01*
X1938Y6135D01*
X1938Y6134D01*
X1937Y6133D01*
X1935Y6132D01*
X1934Y6132D01*
X1933Y6131D01*
X1932Y6131D01*
X1930Y6131D01*
X1875D01*
Y6090D01*
X1874Y6089D01*
X1874Y6088D01*
X1874Y6086D01*
X1873Y6085D01*
X1872Y6084D01*
X1872Y6083D01*
X1871Y6082D01*
X1869Y6082D01*
X1868Y6081D01*
X1867Y6081D01*
X1866Y6080D01*
X1864Y6080D01*
X1664D01*
X1662Y6080D01*
X1661Y6081D01*
X1660Y6081D01*
X1659Y6082D01*
X1658Y6082D01*
X1657Y6083D01*
X1656Y6084D01*
X1655Y6085D01*
X1654Y6086D01*
X1654Y6088D01*
X1654Y6089D01*
X1654Y6090D01*
Y6283D01*
X1654Y6285D01*
X1654Y6286D01*
X1654Y6287D01*
X1655Y6289D01*
X1656Y6290D01*
X1657Y6291D01*
X1658Y6291D01*
X1659Y6292D01*
X1660Y6293D01*
X1661Y6293D01*
X1662Y6294D01*
X1664Y6294D01*
X1864D01*
X1866Y6294D01*
D02*
G37*
D17*
X1749Y6187D02*
D03*
D18*
X1669Y6183D02*
D03*
D19*
X1666Y6200D02*
D03*
D39*
X8242Y3257D02*
D03*
D40*
X8238Y3337D02*
D03*
D41*
X8255Y3340D02*
D03*
D85*
X2678Y5985D02*
D03*
X3063D02*
D03*
D86*
X1291Y4990D02*
D03*
X791D02*
D03*
X8175Y4985D02*
D03*
X7675D02*
D03*
D87*
X7582Y1560D02*
D03*
Y2330D02*
D03*
D88*
X2338Y4331D02*
D03*
X2288D02*
D03*
X2238D02*
D03*
X2188D02*
D03*
Y4041D02*
D03*
X2238D02*
D03*
X2288D02*
D03*
X2338D02*
D03*
X7558Y7068D02*
D03*
X7608D02*
D03*
X7658D02*
D03*
X7708D02*
D03*
Y6779D02*
D03*
X7658D02*
D03*
X7608D02*
D03*
X7558D02*
D03*
D89*
X2118Y4261D02*
D03*
Y4211D02*
D03*
Y4161D02*
D03*
Y4111D02*
D03*
X2408D02*
D03*
Y4161D02*
D03*
Y4211D02*
D03*
Y4261D02*
D03*
X7488Y6849D02*
D03*
Y6899D02*
D03*
Y6948D02*
D03*
Y6999D02*
D03*
X7778D02*
D03*
Y6948D02*
D03*
Y6899D02*
D03*
Y6849D02*
D03*
D90*
X2263Y4186D02*
D03*
X7633Y6923D02*
D03*
D91*
X1266Y6177D02*
D03*
X1136D02*
D03*
X1071D02*
D03*
X1201D02*
D03*
X1266Y6597D02*
D03*
X1136D02*
D03*
X1201D02*
D03*
X1071D02*
D03*
X7535Y3818D02*
D03*
X7600D02*
D03*
X7665D02*
D03*
X7730D02*
D03*
X7535Y4238D02*
D03*
X7600D02*
D03*
X7665D02*
D03*
X7730D02*
D03*
D92*
X1516Y6187D02*
D03*
D93*
X2651Y7331D02*
D03*
D94*
X2503Y7256D02*
D03*
Y7306D02*
D03*
Y7356D02*
D03*
Y7406D02*
D03*
X2798D02*
D03*
Y7356D02*
D03*
Y7306D02*
D03*
Y7256D02*
D03*
D95*
X2576Y7478D02*
D03*
X2626D02*
D03*
X2676D02*
D03*
X2726D02*
D03*
Y7183D02*
D03*
X2676D02*
D03*
X2626D02*
D03*
X2576D02*
D03*
D96*
X1575Y7185D02*
D03*
Y6995D02*
D03*
X6998Y4009D02*
D03*
Y4199D02*
D03*
X7531Y3462D02*
D03*
Y3272D02*
D03*
X7734Y3462D02*
D03*
Y3272D02*
D03*
X6235Y2476D02*
D03*
Y2286D02*
D03*
X8217Y7121D02*
D03*
Y7311D02*
D03*
X7709Y6180D02*
D03*
Y5990D02*
D03*
X7887Y6180D02*
D03*
Y5990D02*
D03*
X7150Y6325D02*
D03*
Y6515D02*
D03*
X7887Y4047D02*
D03*
Y3857D02*
D03*
X1448Y6812D02*
D03*
Y6622D02*
D03*
X1025Y5764D02*
D03*
Y5954D02*
D03*
X889Y6489D02*
D03*
Y6299D02*
D03*
X2642Y4709D02*
D03*
Y4899D02*
D03*
X2718Y3781D02*
D03*
Y3591D02*
D03*
X2921Y3781D02*
D03*
Y3591D02*
D03*
X3272Y7165D02*
D03*
Y7355D02*
D03*
D97*
X3305Y5553D02*
D03*
X3095D02*
D03*
X5801Y2275D02*
D03*
X6010D02*
D03*
X7166Y7228D02*
D03*
X6956D02*
D03*
X1578Y3864D02*
D03*
X1368D02*
D03*
D98*
X3483Y4223D02*
D03*
X3653D02*
D03*
X5236Y1158D02*
D03*
X5406D02*
D03*
X7362Y3545D02*
D03*
X7192D02*
D03*
X2142Y7521D02*
D03*
X1972D02*
D03*
X4021Y3567D02*
D03*
X3851D02*
D03*
X3317Y3795D02*
D03*
X3487D02*
D03*
D99*
X2295Y4753D02*
D03*
X2125D02*
D03*
X2295Y4956D02*
D03*
X2125D02*
D03*
D100*
X6365Y2085D02*
D03*
X6415D02*
D03*
X6465D02*
D03*
X6515D02*
D03*
X6565D02*
D03*
X6615D02*
D03*
X6665D02*
D03*
Y1805D02*
D03*
X6615D02*
D03*
X6565D02*
D03*
X6515D02*
D03*
X6465D02*
D03*
X6415D02*
D03*
X6365D02*
D03*
D101*
X3759Y3940D02*
D03*
X4966Y1234D02*
D03*
D102*
X3857Y3793D02*
D03*
X3792D02*
D03*
X3727D02*
D03*
X3662D02*
D03*
Y4088D02*
D03*
X3727D02*
D03*
X3792D02*
D03*
X3857D02*
D03*
X4868Y1086D02*
D03*
X4933D02*
D03*
X4998D02*
D03*
X5063D02*
D03*
Y1381D02*
D03*
X4998D02*
D03*
X4933D02*
D03*
X4868D02*
D03*
D103*
X6108Y1199D02*
D03*
Y1379D02*
D03*
X7455Y7265D02*
D03*
Y7445D02*
D03*
X7353Y3709D02*
D03*
Y3889D02*
D03*
X8395Y3887D02*
D03*
Y4067D02*
D03*
X1600Y5611D02*
D03*
Y5791D02*
D03*
X797Y5769D02*
D03*
Y5949D02*
D03*
X2540Y7916D02*
D03*
Y7736D02*
D03*
X2007Y3535D02*
D03*
Y3355D02*
D03*
D104*
X590Y5741D02*
D03*
X410D02*
D03*
X2755Y7814D02*
D03*
X2935D02*
D03*
X7477Y6140D02*
D03*
X7297D02*
D03*
X7847Y4231D02*
D03*
X8028D02*
D03*
D105*
X787Y6846D02*
D03*
Y7046D02*
D03*
X4369Y757D02*
D03*
Y957D02*
D03*
X8124Y6507D02*
D03*
Y6307D02*
D03*
D106*
X1871Y6616D02*
D03*
X1711D02*
D03*
X4970Y1522D02*
D03*
X4810D02*
D03*
X6588Y1539D02*
D03*
X6747D02*
D03*
X6588Y1361D02*
D03*
X6747D02*
D03*
X6588Y1183D02*
D03*
X6747D02*
D03*
X6588Y1005D02*
D03*
X6747D02*
D03*
X5940Y1899D02*
D03*
X6100D02*
D03*
X7433Y4470D02*
D03*
X7273D02*
D03*
X2696Y6582D02*
D03*
X2536D02*
D03*
X2696Y6775D02*
D03*
X2536D02*
D03*
X2696Y6391D02*
D03*
X2536D02*
D03*
X3255Y5134D02*
D03*
X3095D02*
D03*
X3255Y5337D02*
D03*
X3095D02*
D03*
X3551Y3567D02*
D03*
X3711D02*
D03*
X4257Y4341D02*
D03*
X4097D02*
D03*
D107*
X5359Y1502D02*
D03*
Y1673D02*
D03*
X4623Y1310D02*
D03*
Y1140D02*
D03*
X1803Y5616D02*
D03*
Y5786D02*
D03*
X3124Y6997D02*
D03*
Y6827D02*
D03*
D108*
X6178Y2072D02*
D03*
X5988D02*
D03*
X7106Y7000D02*
D03*
X7296D02*
D03*
X6953Y6403D02*
D03*
X6763D02*
D03*
X8046Y4053D02*
D03*
X8236D02*
D03*
X8236Y3875D02*
D03*
X8046D02*
D03*
X7194Y3850D02*
D03*
X7004D02*
D03*
X595Y5944D02*
D03*
X405D02*
D03*
X2660Y5159D02*
D03*
X2470D02*
D03*
X2000Y3165D02*
D03*
X1810D02*
D03*
X2775Y4362D02*
D03*
X2965D02*
D03*
X1390Y7200D02*
D03*
X1200D02*
D03*
X1390Y6997D02*
D03*
X1200D02*
D03*
D109*
X6337Y1183D02*
D03*
Y973D02*
D03*
X5753Y1865D02*
D03*
Y2075D02*
D03*
X8395Y7346D02*
D03*
Y7136D02*
D03*
X2489Y3632D02*
D03*
Y3842D02*
D03*
D110*
X6235Y2860D02*
D03*
Y2690D02*
D03*
X7709Y6526D02*
D03*
Y6356D02*
D03*
X7887Y6526D02*
D03*
Y6356D02*
D03*
D111*
X8242Y3489D02*
D03*
D112*
X4572Y963D02*
D03*
Y803D02*
D03*
X6722Y2581D02*
D03*
Y2741D02*
D03*
X6900Y2581D02*
D03*
Y2741D02*
D03*
X7645Y7504D02*
D03*
Y7664D02*
D03*
X2184Y3543D02*
D03*
Y3703D02*
D03*
D113*
X4990Y1715D02*
D03*
X4790D02*
D03*
X7733Y3621D02*
D03*
X7533D02*
D03*
X1678Y4448D02*
D03*
X1878D02*
D03*
X3531Y3135D02*
D03*
X3731D02*
D03*
X4090Y4633D02*
D03*
X4290D02*
D03*
D114*
X711Y8572D02*
D03*
Y1092D02*
D03*
X8420Y1080D02*
D03*
D115*
X6330Y1876D02*
D03*
Y1922D02*
D03*
X6330Y1968D02*
D03*
Y2014D02*
D03*
X6700Y1876D02*
D03*
X6700Y1922D02*
D03*
X6700Y1968D02*
D03*
Y2014D02*
D03*
D116*
X6515Y1945D02*
D03*
D117*
X3282Y2264D02*
D03*
X2782D02*
D03*
X2282D02*
D03*
X1782D02*
D03*
X1282D02*
D03*
X782D02*
D03*
X7460Y8484D02*
D03*
X6960D02*
D03*
X6460D02*
D03*
X5960D02*
D03*
X5460D02*
D03*
X4960D02*
D03*
D118*
X2984Y4045D02*
D03*
X2540Y8156D02*
D03*
X1778D02*
D03*
X2540Y8410D02*
D03*
X5804Y878D02*
D03*
X5042Y624D02*
D03*
Y878D02*
D03*
X6782Y6763D02*
D03*
X8394Y6741D02*
D03*
X1778Y4159D02*
D03*
X3910Y4481D02*
D03*
Y4735D02*
D03*
X3148Y4481D02*
D03*
D119*
X2730Y4045D02*
D03*
X1778Y8410D02*
D03*
X5804Y624D02*
D03*
X7036Y6763D02*
D03*
X1524Y4159D02*
D03*
X3148Y4735D02*
D03*
D120*
X8394Y6487D02*
D03*
D121*
X460Y520D02*
D03*
X840Y9090D02*
D03*
X8210D02*
D03*
X8460Y520D02*
D03*
D122*
X2263Y4186D02*
D03*
X3834Y3990D02*
D03*
X3684D02*
D03*
X3759Y3940D02*
D03*
X3834Y3890D02*
D03*
X3684D02*
D03*
X4966Y1234D02*
D03*
X5041Y1284D02*
D03*
Y1184D02*
D03*
X4891D02*
D03*
Y1284D02*
D03*
X7633Y6923D02*
D03*
D123*
X6615Y1895D02*
D03*
X6565D02*
D03*
X6515D02*
D03*
X6465D02*
D03*
X6415D02*
D03*
X6615Y1945D02*
D03*
X6565D02*
D03*
X6515D02*
D03*
X6465D02*
D03*
X6415D02*
D03*
X6615Y1995D02*
D03*
X6565D02*
D03*
X6515D02*
D03*
X6465D02*
D03*
X6415D02*
D03*
D124*
X6947Y7000D02*
D03*
X8394Y7563D02*
D03*
X7798Y7508D02*
D03*
X1778Y2467D02*
D03*
X1422Y5591D02*
D03*
X1067D02*
D03*
X1473Y6378D02*
D03*
X1499Y7369D02*
D03*
X1207Y5794D02*
D03*
X2184Y3394D02*
D03*
X2019Y6620D02*
D03*
X1803Y5464D02*
D03*
X2718Y3432D02*
D03*
X2667Y7039D02*
D03*
X4813Y1894D02*
D03*
X5015Y1893D02*
D03*
X7353Y4053D02*
D03*
X8039Y4409D02*
D03*
X6998Y3596D02*
D03*
X8014Y3215D02*
D03*
X8242Y4409D02*
D03*
X7506Y5984D02*
D03*
X4521Y4337D02*
D03*
X4534Y4629D02*
D03*
X3175Y3795D02*
D03*
X3480Y5137D02*
D03*
Y5337D02*
D03*
X2921Y3422D02*
D03*
X1865Y3677D02*
D03*
X1765Y4667D02*
D03*
X1943Y4248D02*
D03*
X1765Y6394D02*
D03*
X2413Y6137D02*
D03*
X2845Y6775D02*
D03*
X2841Y6582D02*
D03*
Y6391D02*
D03*
X3099Y7814D02*
D03*
X2972Y4553D02*
D03*
X3073Y7283D02*
D03*
X2273Y7258D02*
D03*
X5363Y1869D02*
D03*
X4369Y552D02*
D03*
X4572Y616D02*
D03*
X4653Y1522D02*
D03*
X6413Y2318D02*
D03*
X5753Y1695D02*
D03*
X5893Y1594D02*
D03*
X6909Y1005D02*
D03*
Y1183D02*
D03*
Y1361D02*
D03*
Y1539D02*
D03*
X6379Y2860D02*
D03*
X6900Y2906D02*
D03*
X6722Y2910D02*
D03*
X6542Y2421D02*
D03*
X7188Y3410D02*
D03*
X7709Y4426D02*
D03*
X6790Y7228D02*
D03*
X6921Y6217D02*
D03*
X7455Y7614D02*
D03*
X7747Y7765D02*
D03*
X8128Y6090D02*
D03*
X8102Y6725D02*
D03*
X1181Y3867D02*
D03*
X6020Y1689D02*
D03*
X3226Y7595D02*
D03*
X3111Y7455D02*
D03*
X2718Y8014D02*
D03*
X3335Y3135D02*
D03*
X3361Y3567D02*
D03*
X2010Y3703D02*
D03*
X3449Y7355D02*
D03*
X7277Y4648D02*
D03*
X7150Y6149D02*
D03*
X7290Y5950D02*
D03*
X4864Y914D02*
D03*
M02*
