%FSLAX23Y23*%
%MOIN*%
G70*
G01*
G75*
G04 Layer_Color=16711935*
%ADD10C,0.039*%
%ADD11R,0.037X0.053*%
%ADD12R,0.045X0.057*%
%ADD13R,0.059X0.049*%
%ADD14R,0.055X0.041*%
%ADD15R,0.063X0.063*%
%ADD16O,0.010X0.028*%
%ADD17O,0.028X0.010*%
%ADD18R,0.057X0.045*%
%ADD19R,0.041X0.055*%
%ADD20R,0.049X0.059*%
%ADD21R,0.053X0.061*%
%ADD22R,0.039X0.039*%
%ADD23R,0.295X0.118*%
%ADD24R,0.051X0.033*%
%ADD25R,0.061X0.053*%
%ADD26R,0.053X0.037*%
%ADD27R,0.033X0.026*%
%ADD28R,0.000X0.000*%
%ADD29R,0.000X0.000*%
%ADD30O,0.067X0.018*%
%ADD31O,0.033X0.012*%
%ADD32R,0.065X0.094*%
%ADD33R,0.033X0.051*%
%ADD34R,0.006X0.008*%
G04:AMPARAMS|DCode=35|XSize=9mil|YSize=24mil|CornerRadius=3mil|HoleSize=0mil|Usage=FLASHONLY|Rotation=270.000|XOffset=0mil|YOffset=0mil|HoleType=Round|Shape=RoundedRectangle|*
%AMROUNDEDRECTD35*
21,1,0.009,0.017,0,0,270.0*
21,1,0.003,0.024,0,0,270.0*
1,1,0.007,-0.009,-0.001*
1,1,0.007,-0.009,0.001*
1,1,0.007,0.009,0.001*
1,1,0.007,0.009,-0.001*
%
%ADD35ROUNDEDRECTD35*%
%ADD36R,0.150X0.138*%
%ADD37R,0.000X0.000*%
%ADD38R,0.000X0.000*%
%ADD39R,0.026X0.033*%
%ADD40R,0.077X0.079*%
%ADD41R,0.067X0.067*%
%ADD42O,0.011X0.033*%
%ADD43O,0.033X0.011*%
%ADD44R,0.039X0.039*%
%ADD45R,0.217X0.085*%
%ADD46C,0.040*%
%ADD47C,0.020*%
%ADD48C,0.015*%
%ADD49C,0.017*%
%ADD50C,0.010*%
%ADD51C,0.018*%
%ADD52C,0.030*%
%ADD53C,0.060*%
%ADD54R,0.008X0.033*%
%ADD55R,0.062X0.112*%
%ADD56R,0.037X0.026*%
%ADD57C,0.059*%
%ADD58R,0.059X0.059*%
%ADD59R,0.059X0.059*%
%ADD60C,0.083*%
%ADD61C,0.276*%
%ADD62C,0.040*%
%ADD63C,0.020*%
%ADD64C,0.008*%
%ADD65C,0.075*%
%ADD66C,0.087*%
%ADD67C,0.166*%
%ADD68C,0.010*%
%ADD69C,0.008*%
%ADD70C,0.008*%
%ADD71C,0.024*%
%ADD72C,0.004*%
%ADD73C,0.002*%
%ADD74R,0.026X0.007*%
%ADD75R,0.018X0.067*%
%ADD76R,0.023X0.007*%
%ADD77R,0.007X0.023*%
%ADD78R,0.067X0.018*%
%ADD79R,0.007X0.026*%
%ADD80R,0.026X0.039*%
%ADD81R,0.028X0.028*%
%ADD82R,0.028X0.028*%
%ADD83C,0.079*%
%ADD84O,0.031X0.010*%
%ADD85O,0.009X0.031*%
%ADD86O,0.031X0.009*%
%ADD87R,0.045X0.061*%
%ADD88R,0.053X0.065*%
%ADD89R,0.067X0.057*%
%ADD90R,0.063X0.049*%
%ADD91R,0.071X0.071*%
%ADD92O,0.018X0.036*%
%ADD93O,0.036X0.018*%
%ADD94R,0.065X0.053*%
%ADD95R,0.049X0.063*%
%ADD96R,0.057X0.067*%
%ADD97R,0.061X0.069*%
%ADD98R,0.303X0.126*%
%ADD99R,0.059X0.041*%
%ADD100R,0.069X0.061*%
%ADD101R,0.061X0.045*%
%ADD102R,0.041X0.034*%
%ADD103O,0.075X0.026*%
%ADD104O,0.039X0.017*%
%ADD105R,0.070X0.100*%
%ADD106R,0.041X0.059*%
G04:AMPARAMS|DCode=107|XSize=17mil|YSize=32mil|CornerRadius=7mil|HoleSize=0mil|Usage=FLASHONLY|Rotation=270.000|XOffset=0mil|YOffset=0mil|HoleType=Round|Shape=RoundedRectangle|*
%AMROUNDEDRECTD107*
21,1,0.017,0.017,0,0,270.0*
21,1,0.003,0.032,0,0,270.0*
1,1,0.015,-0.009,-0.001*
1,1,0.015,-0.009,0.001*
1,1,0.015,0.009,0.001*
1,1,0.015,0.009,-0.001*
%
%ADD107ROUNDEDRECTD107*%
%ADD108R,0.158X0.146*%
%ADD109R,0.034X0.041*%
%ADD110R,0.085X0.087*%
%ADD111R,0.072X0.072*%
%ADD112O,0.017X0.039*%
%ADD113O,0.039X0.017*%
%ADD114R,0.225X0.093*%
%ADD115R,0.045X0.034*%
%ADD116C,0.067*%
%ADD117R,0.067X0.067*%
%ADD118R,0.067X0.067*%
%ADD119C,0.091*%
%ADD120C,0.284*%
%ADD121C,0.048*%
%ADD122C,0.028*%
%ADD123C,0.016*%
%ADD124C,0.020*%
%ADD125C,0.002*%
D72*
X2719Y577D02*
G03*
X2719Y577I-20J0D01*
G01*
X1631Y524D02*
G03*
X1631Y524I-20J0D01*
G01*
X252Y1331D02*
G03*
X252Y1331I-20J0D01*
G01*
X479Y1627D02*
G03*
X479Y1627I-20J0D01*
G01*
X771Y1045D02*
G03*
X771Y1045I-20J0D01*
G01*
X1597Y2048D02*
G03*
X1597Y2048I-20J0D01*
G01*
X2879Y2538D02*
G03*
X2879Y2538I-20J0D01*
G01*
X1897Y2254D02*
G03*
X1897Y2254I-20J0D01*
G01*
X1694Y2637D02*
G03*
X1694Y2637I-20J0D01*
G01*
X2509Y3121D02*
G03*
X2509Y3121I-20J0D01*
G01*
X3344Y2794D02*
G03*
X3344Y2794I-20J0D01*
G01*
X2942Y574D02*
X3029D01*
X2942Y516D02*
X3029D01*
X2942D02*
Y574D01*
X3029Y516D02*
Y574D01*
X2852Y649D02*
X2939D01*
X2852Y591D02*
X2939D01*
X2852D02*
Y649D01*
X2939Y591D02*
Y649D01*
X2819Y732D02*
Y818D01*
X2872Y732D02*
Y818D01*
X2819Y732D02*
X2872D01*
X2819Y818D02*
X2872D01*
X2729Y763D02*
X2782D01*
X2729Y677D02*
X2782D01*
Y763D01*
X2729Y677D02*
Y763D01*
X2664Y488D02*
X2788D01*
X2664Y612D02*
X2788D01*
Y488D02*
Y612D01*
X2664Y488D02*
Y612D01*
X2409Y603D02*
Y690D01*
X2466Y603D02*
Y690D01*
X2409Y603D02*
X2466D01*
X2409Y690D02*
X2466D01*
X2509Y714D02*
Y767D01*
X2596Y714D02*
Y767D01*
X2509D02*
X2596D01*
X2509Y714D02*
X2596D01*
X2494Y812D02*
X2547D01*
X2494Y898D02*
X2547D01*
X2494Y812D02*
Y898D01*
X2547Y812D02*
Y898D01*
X2797Y293D02*
Y347D01*
X2884Y293D02*
Y347D01*
X2797D02*
X2884D01*
X2797Y293D02*
X2884D01*
X2807Y223D02*
X2894D01*
X2807Y277D02*
X2894D01*
Y223D02*
Y277D01*
X2807Y223D02*
Y277D01*
X2479Y328D02*
X2566D01*
X2479Y385D02*
X2566D01*
Y328D02*
Y385D01*
X2479Y328D02*
Y385D01*
X2439Y493D02*
Y547D01*
X2352Y493D02*
Y547D01*
Y493D02*
X2439D01*
X2352Y547D02*
X2439D01*
Y423D02*
Y477D01*
X2352Y423D02*
Y477D01*
Y423D02*
X2439D01*
X2352Y477D02*
X2439D01*
X1825Y282D02*
X2100D01*
X1825Y589D02*
X2100D01*
X1825Y282D02*
Y589D01*
X2100Y282D02*
Y589D01*
X1522Y279D02*
X1609D01*
X1522Y221D02*
X1609D01*
X1522D02*
Y279D01*
X1609Y221D02*
Y279D01*
X1569Y393D02*
X1622D01*
X1569Y307D02*
X1622D01*
Y393D01*
X1569Y307D02*
Y393D01*
X1499Y307D02*
X1552D01*
X1499Y393D02*
X1552D01*
X1499Y307D02*
Y393D01*
X1552Y307D02*
Y393D01*
X1694Y387D02*
Y473D01*
X1637Y387D02*
Y473D01*
X1694D01*
X1637Y387D02*
X1694D01*
X1599Y423D02*
Y477D01*
X1512Y423D02*
Y477D01*
Y423D02*
X1599D01*
X1512Y477D02*
X1599D01*
X1489Y717D02*
X1542D01*
X1489Y803D02*
X1542D01*
X1489Y717D02*
Y803D01*
X1542Y717D02*
Y803D01*
X1369Y647D02*
Y733D01*
X1422Y647D02*
Y733D01*
X1369Y647D02*
X1422D01*
X1369Y733D02*
X1422D01*
X1397Y507D02*
Y593D01*
X1454Y507D02*
Y593D01*
X1397Y507D02*
X1454D01*
X1397Y593D02*
X1454D01*
X1369Y483D02*
Y537D01*
X1282Y483D02*
Y537D01*
Y483D02*
X1369D01*
X1282Y537D02*
X1369D01*
Y563D02*
Y617D01*
X1282Y563D02*
Y617D01*
Y563D02*
X1369D01*
X1282Y617D02*
X1369D01*
X1452Y689D02*
X1539D01*
X1452Y631D02*
X1539D01*
X1452D02*
Y689D01*
X1539Y631D02*
Y689D01*
X1707Y617D02*
Y703D01*
X1764Y617D02*
Y703D01*
X1707Y617D02*
X1764D01*
X1707Y703D02*
X1764D01*
X1525Y611D02*
X1647D01*
X1525Y489D02*
X1647D01*
X1525D02*
Y611D01*
X1647Y489D02*
Y611D01*
X1572Y773D02*
Y827D01*
X1659Y773D02*
Y827D01*
X1572D02*
X1659D01*
X1572Y773D02*
X1659D01*
X197Y1296D02*
X394D01*
X197Y1544D02*
X394D01*
X197Y1296D02*
Y1544D01*
X394Y1296D02*
Y1544D01*
X424Y1538D02*
Y1662D01*
X548Y1538D02*
Y1662D01*
X424D02*
X548D01*
X424Y1538D02*
X548D01*
X571Y1587D02*
Y1673D01*
X628Y1587D02*
Y1673D01*
X571Y1587D02*
X628D01*
X571Y1673D02*
X628D01*
X647Y1577D02*
Y1663D01*
X704Y1577D02*
Y1663D01*
X647Y1577D02*
X704D01*
X647Y1663D02*
X704D01*
X304Y1727D02*
X391D01*
X304Y1784D02*
X391D01*
Y1727D02*
Y1784D01*
X304Y1727D02*
Y1784D01*
X294Y1864D02*
X381D01*
X294Y1807D02*
X381D01*
X294D02*
Y1864D01*
X381Y1807D02*
Y1864D01*
X569Y1427D02*
Y1513D01*
X622Y1427D02*
Y1513D01*
X569Y1427D02*
X622D01*
X569Y1513D02*
X622D01*
X482Y1417D02*
Y1503D01*
X429Y1417D02*
Y1503D01*
X482D01*
X429Y1417D02*
X482D01*
X439Y1709D02*
X526D01*
X439Y1762D02*
X526D01*
Y1709D02*
Y1762D01*
X439Y1709D02*
Y1762D01*
X634Y887D02*
Y973D01*
X577Y887D02*
Y973D01*
X634D01*
X577Y887D02*
X634D01*
X564D02*
Y973D01*
X507Y887D02*
Y973D01*
X564D01*
X507Y887D02*
X564D01*
X494D02*
Y973D01*
X437Y887D02*
Y973D01*
X494D01*
X437Y887D02*
X494D01*
X424D02*
Y973D01*
X367Y887D02*
Y973D01*
X424D01*
X367Y887D02*
X424D01*
X381Y1033D02*
X468D01*
X381Y1087D02*
X468D01*
Y1033D02*
Y1087D01*
X381Y1033D02*
Y1087D01*
X464Y1179D02*
X551D01*
X464Y1122D02*
X551D01*
X464D02*
Y1179D01*
X551Y1122D02*
Y1179D01*
X732Y1317D02*
X819D01*
X732Y1263D02*
X819D01*
X732D02*
Y1317D01*
X819Y1263D02*
Y1317D01*
X922Y1187D02*
Y1273D01*
X869Y1187D02*
Y1273D01*
X922D01*
X869Y1187D02*
X922D01*
X698Y1080D02*
X837D01*
X698Y900D02*
X837D01*
Y1080D01*
X698Y900D02*
Y1080D01*
X789Y1117D02*
X842D01*
X789Y1203D02*
X842D01*
X789Y1117D02*
Y1203D01*
X842Y1117D02*
Y1203D01*
X981Y1074D02*
Y1127D01*
X894Y1074D02*
Y1127D01*
Y1074D02*
X981D01*
X894Y1127D02*
X981D01*
X776Y1142D02*
Y1228D01*
X719Y1142D02*
Y1228D01*
X776D01*
X719Y1142D02*
X776D01*
X1004Y937D02*
X1091D01*
X1004Y880D02*
X1091D01*
X1004D02*
Y937D01*
X1091Y880D02*
Y937D01*
X1004Y867D02*
X1091D01*
X1004Y810D02*
X1091D01*
X1004D02*
Y867D01*
X1091Y810D02*
Y867D01*
X549Y355D02*
Y785D01*
X982Y355D02*
Y785D01*
X549D02*
X982D01*
X549Y355D02*
X982D01*
X1744Y2382D02*
Y2468D01*
X1691Y2382D02*
Y2468D01*
X1744D01*
X1691Y2382D02*
X1744D01*
X1489Y2137D02*
X1613D01*
X1489Y2013D02*
X1613D01*
X1489D02*
Y2137D01*
X1613Y2013D02*
Y2137D01*
X1378Y1962D02*
X1431D01*
X1378Y2049D02*
X1431D01*
X1378Y1962D02*
Y2049D01*
X1431Y1962D02*
Y2049D01*
X1827Y2991D02*
Y3299D01*
X2102Y2991D02*
Y3299D01*
X1827Y2991D02*
X2102D01*
X1827Y3299D02*
X2102D01*
X2201Y2818D02*
Y2872D01*
X2288Y2818D02*
Y2872D01*
X2201D02*
X2288D01*
X2201Y2818D02*
X2288D01*
X2231Y3315D02*
X2289D01*
X2231Y3401D02*
X2289D01*
X2231Y3315D02*
Y3401D01*
X2289Y3315D02*
Y3401D01*
X2313Y3315D02*
Y3401D01*
X2367Y3315D02*
Y3401D01*
X2313Y3315D02*
X2367D01*
X2313Y3401D02*
X2367D01*
X2728Y3002D02*
Y3088D01*
X2781Y3002D02*
Y3088D01*
X2728Y3002D02*
X2781D01*
X2728Y3088D02*
X2781D01*
X2808Y3002D02*
Y3088D01*
X2861Y3002D02*
Y3088D01*
X2808Y3002D02*
X2861D01*
X2808Y3088D02*
X2861D01*
X2576Y2807D02*
X2633D01*
X2576Y2893D02*
X2633D01*
X2576Y2807D02*
Y2893D01*
X2633Y2807D02*
Y2893D01*
X2201Y2896D02*
Y2954D01*
X2288Y2896D02*
Y2954D01*
X2201D02*
X2288D01*
X2201Y2896D02*
X2288D01*
X2748Y2908D02*
X2834D01*
X2748Y2962D02*
X2834D01*
Y2908D02*
Y2962D01*
X2748Y2908D02*
Y2962D01*
X1993Y2262D02*
X2050D01*
X1993Y2348D02*
X2050D01*
X1993Y2262D02*
Y2348D01*
X2050Y2262D02*
Y2348D01*
X2263Y3178D02*
X2350D01*
X2263Y3125D02*
X2350D01*
X2263D02*
Y3178D01*
X2350Y3125D02*
Y3178D01*
X2263Y3213D02*
Y3270D01*
X2350Y3213D02*
Y3270D01*
X2263D02*
X2350D01*
X2263Y3213D02*
X2350D01*
X2935Y2702D02*
X2988D01*
X2935Y2788D02*
X2988D01*
X2935Y2702D02*
Y2788D01*
X2988Y2702D02*
Y2788D01*
X2824Y2449D02*
X2948D01*
X2824Y2573D02*
X2948D01*
Y2449D02*
Y2573D01*
X2824Y2449D02*
Y2573D01*
X2639Y2482D02*
X2696D01*
X2639Y2568D02*
X2696D01*
X2639Y2482D02*
Y2568D01*
X2696Y2482D02*
Y2568D01*
X2488Y2482D02*
X2545D01*
X2488Y2568D02*
X2545D01*
X2488Y2482D02*
Y2568D01*
X2545Y2482D02*
Y2568D01*
X1681Y1867D02*
X1738D01*
X1681Y1954D02*
X1738D01*
X1681Y1867D02*
Y1954D01*
X1738Y1867D02*
Y1954D01*
X1796Y1949D02*
X1853D01*
X1796Y1862D02*
X1853D01*
Y1949D01*
X1796Y1862D02*
Y1949D01*
X1716Y2041D02*
Y2289D01*
X1913Y2041D02*
Y2289D01*
X1716Y2041D02*
X1913D01*
X1716Y2289D02*
X1913D01*
X1636Y2193D02*
X1689D01*
X1636Y2107D02*
X1689D01*
Y2193D01*
X1636Y2107D02*
Y2193D01*
X1206Y2169D02*
X1263D01*
X1206Y2082D02*
X1263D01*
Y2169D01*
X1206Y2082D02*
Y2169D01*
X1376Y2169D02*
X1433D01*
X1376Y2082D02*
X1433D01*
Y2169D01*
X1376Y2082D02*
Y2169D01*
X1468Y2259D02*
X1521D01*
X1468Y2172D02*
X1521D01*
Y2259D01*
X1468Y2172D02*
Y2259D01*
X1848Y2542D02*
X1934D01*
X1848Y2488D02*
X1934D01*
X1848D02*
Y2542D01*
X1934Y2488D02*
Y2542D01*
X1723Y2898D02*
X1780D01*
X1723Y2812D02*
X1780D01*
Y2898D01*
X1723Y2812D02*
Y2898D01*
X1495Y2932D02*
X1548D01*
X1495Y3018D02*
X1548D01*
X1495Y2932D02*
Y3018D01*
X1548Y2932D02*
Y3018D01*
X1408Y2378D02*
X1494D01*
X1408Y2432D02*
X1494D01*
Y2378D02*
Y2432D01*
X1408Y2378D02*
Y2432D01*
Y2458D02*
X1494D01*
X1408Y2512D02*
X1494D01*
Y2458D02*
Y2512D01*
X1408Y2458D02*
Y2512D01*
X1220Y2762D02*
Y2848D01*
X1273Y2762D02*
Y2848D01*
X1220Y2762D02*
X1273D01*
X1220Y2848D02*
X1273D01*
X1399Y2736D02*
Y2794D01*
X1313Y2736D02*
Y2794D01*
Y2736D02*
X1399D01*
X1313Y2794D02*
X1399D01*
X3048Y2478D02*
X3105D01*
X3048Y2392D02*
X3105D01*
Y2478D01*
X3048Y2392D02*
Y2478D01*
X2160Y2252D02*
X2213D01*
X2160Y2338D02*
X2213D01*
X2160Y2252D02*
Y2338D01*
X2213Y2252D02*
Y2338D01*
X2764Y2298D02*
Y2352D01*
X2678Y2298D02*
Y2352D01*
Y2298D02*
X2764D01*
X2678Y2352D02*
X2764D01*
X2563Y2482D02*
X2620D01*
X2563Y2568D02*
X2620D01*
X2563Y2482D02*
Y2568D01*
X2620Y2482D02*
Y2568D01*
X1383Y2666D02*
Y2724D01*
X1469Y2666D02*
Y2724D01*
X1383D02*
X1469D01*
X1383Y2666D02*
X1469D01*
X1428Y2548D02*
Y2602D01*
X1514Y2548D02*
Y2602D01*
X1428D02*
X1514D01*
X1428Y2548D02*
X1514D01*
X1710Y2602D02*
Y2726D01*
X1586Y2602D02*
Y2726D01*
Y2602D02*
X1710D01*
X1586Y2726D02*
X1710D01*
X2454Y3034D02*
X2576D01*
X2454Y3156D02*
X2576D01*
Y3034D02*
Y3156D01*
X2454Y3034D02*
Y3156D01*
X2691Y3216D02*
Y3274D01*
X2778Y3216D02*
Y3274D01*
X2691D02*
X2778D01*
X2691Y3216D02*
X2778D01*
X2474Y3178D02*
X2561D01*
X2474Y3232D02*
X2561D01*
Y3178D02*
Y3232D01*
X2474Y3178D02*
Y3232D01*
X2254Y2539D02*
X2459D01*
X2254Y2311D02*
X2459D01*
Y2539D01*
X2254Y2311D02*
Y2539D01*
X3124Y2526D02*
Y2584D01*
X3038Y2526D02*
Y2584D01*
Y2526D02*
X3124D01*
X3038Y2584D02*
X3124D01*
X2005Y2502D02*
Y2588D01*
X2058Y2502D02*
Y2588D01*
X2005Y2502D02*
X2058D01*
X2005Y2588D02*
X2058D01*
X2073Y2262D02*
X2130D01*
X2073Y2348D02*
X2130D01*
X2073Y2262D02*
Y2348D01*
X2130Y2262D02*
Y2348D01*
X2815Y2294D02*
X2901D01*
X2815Y2240D02*
X2901D01*
X2815D02*
Y2294D01*
X2901Y2240D02*
Y2294D01*
X3163Y2581D02*
Y2829D01*
X3360Y2581D02*
Y2829D01*
X3163Y2581D02*
X3360D01*
X3163Y2829D02*
X3360D01*
X2601Y2958D02*
X2688D01*
X2601Y3012D02*
X2688D01*
Y2958D02*
Y3012D01*
X2601Y2958D02*
Y3012D01*
M02*
