%FSLAX42Y42*%
%MOMM*%
G71*
G01*
G75*
%ADD10R,2.15X5.50*%
%ADD11R,3.00X7.50*%
%ADD12R,3.50X3.80*%
%ADD13O,0.25X0.70*%
%ADD14O,0.70X0.25*%
%ADD15R,1.60X1.60*%
%ADD16O,0.45X1.70*%
%ADD17R,0.66X0.94*%
%ADD18R,0.00X0.00*%
%ADD19R,0.00X0.00*%
%ADD20R,0.84X0.66*%
%ADD21R,1.70X1.70*%
%ADD22O,0.85X0.28*%
%ADD23O,0.28X0.85*%
%ADD24R,1.40X1.05*%
%ADD25R,1.25X1.50*%
%ADD26R,0.85X1.30*%
%ADD27R,1.00X1.00*%
G04:AMPARAMS|DCode=28|XSize=0.24mm|YSize=0.6mm|CornerRadius=0.08mm|HoleSize=0mm|Usage=FLASHONLY|Rotation=0.000|XOffset=0mm|YOffset=0mm|HoleType=Round|Shape=RoundedRectangle|*
%AMROUNDEDRECTD28*
21,1,0.24,0.43,0,0,0.0*
21,1,0.07,0.60,0,0,0.0*
1,1,0.17,0.04,-0.22*
1,1,0.17,-0.04,-0.22*
1,1,0.17,-0.04,0.22*
1,1,0.17,0.04,0.22*
%
%ADD28ROUNDEDRECTD28*%
%ADD29R,2.40X1.65*%
%ADD30O,0.30X0.85*%
%ADD31R,1.45X1.15*%
%ADD32R,1.15X1.45*%
%ADD33R,1.55X1.35*%
%ADD34R,0.95X1.35*%
%ADD35R,1.30X0.85*%
%ADD36R,1.05X1.40*%
%ADD37R,1.50X1.25*%
%ADD38R,1.00X1.00*%
%ADD39R,0.94X0.66*%
%ADD40R,0.00X0.00*%
%ADD41R,0.00X0.00*%
%ADD42R,0.66X0.84*%
%ADD43R,1.35X0.95*%
%ADD44R,1.35X1.55*%
%ADD45C,1.00*%
%ADD46C,0.64*%
%ADD47C,0.51*%
%ADD48C,0.38*%
%ADD49C,0.43*%
%ADD50C,0.25*%
%ADD51C,0.46*%
%ADD52C,0.76*%
%ADD53R,0.85X0.20*%
%ADD54R,2.85X1.58*%
%ADD55C,2.10*%
%ADD56C,1.50*%
%ADD57R,1.50X1.50*%
%ADD58R,1.50X1.50*%
%ADD59C,7.00*%
%ADD60C,0.50*%
%ADD61C,0.46*%
%ADD62C,0.61*%
%ADD63C,1.02*%
%ADD64C,2.22*%
%ADD65C,1.92*%
%ADD66C,4.22*%
%ADD67C,1.22*%
%ADD68C,1.22*%
%ADD69C,1.32*%
%ADD70C,0.25*%
%ADD71C,0.20*%
%ADD72C,0.10*%
%ADD73C,0.20*%
%ADD74C,0.60*%
%ADD75C,0.05*%
%ADD76R,0.58X0.17*%
%ADD77R,0.46X1.70*%
%ADD78R,0.65X0.19*%
%ADD79R,0.19X0.65*%
%ADD80R,1.70X0.46*%
%ADD81R,0.17X0.58*%
%ADD82R,0.70X0.70*%
%ADD83R,0.70X0.70*%
%ADD84R,1.00X0.65*%
%ADD85R,2.35X5.70*%
%ADD86R,3.20X7.70*%
%ADD87R,3.70X4.00*%
%ADD88O,0.45X0.90*%
%ADD89O,0.90X0.45*%
%ADD90R,1.80X1.80*%
%ADD91O,0.65X1.90*%
%ADD92R,1.04X0.86*%
%ADD93R,1.84X1.84*%
%ADD94O,0.99X0.42*%
%ADD95O,0.42X0.99*%
%ADD96R,1.60X1.25*%
%ADD97R,1.45X1.70*%
%ADD98R,1.05X1.50*%
%ADD99R,1.20X1.20*%
G04:AMPARAMS|DCode=100|XSize=0.44mm|YSize=0.8mm|CornerRadius=0.19mm|HoleSize=0mm|Usage=FLASHONLY|Rotation=0.000|XOffset=0mm|YOffset=0mm|HoleType=Round|Shape=RoundedRectangle|*
%AMROUNDEDRECTD100*
21,1,0.44,0.43,0,0,0.0*
21,1,0.07,0.80,0,0,0.0*
1,1,0.37,0.04,-0.22*
1,1,0.37,-0.04,-0.22*
1,1,0.37,-0.04,0.22*
1,1,0.37,0.04,0.22*
%
%ADD100ROUNDEDRECTD100*%
%ADD101R,2.54X1.79*%
%ADD102O,0.44X0.99*%
%ADD103R,1.65X1.35*%
%ADD104R,1.35X1.65*%
%ADD105R,1.75X1.55*%
%ADD106R,1.15X1.55*%
%ADD107R,1.50X1.05*%
%ADD108R,1.25X1.60*%
%ADD109R,1.70X1.45*%
%ADD110R,1.20X1.20*%
%ADD111R,0.86X1.04*%
%ADD112R,1.55X1.15*%
%ADD113R,1.55X1.75*%
%ADD114C,3.03*%
%ADD115R,1.05X0.40*%
%ADD116R,3.05X1.78*%
%ADD117C,2.30*%
%ADD118C,1.70*%
%ADD119R,1.70X1.70*%
%ADD120R,1.70X1.70*%
%ADD121C,7.20*%
%ADD122C,0.70*%
%ADD123C,0.66*%
%ADD124C,0.81*%
%ADD125C,0.50*%
%ADD126C,0.08*%
%ADD127C,0.41*%
%ADD128C,0.13*%
D128*
X3222Y2264D02*
X3342D01*
X3282Y2204D02*
Y2324D01*
X2722Y2264D02*
X2842D01*
X2782Y2204D02*
Y2324D01*
X2222Y2264D02*
X2342D01*
X2282Y2204D02*
Y2324D01*
X1722Y2264D02*
X1842D01*
X1782Y2204D02*
Y2324D01*
X1222Y2264D02*
X1342D01*
X1282Y2204D02*
Y2324D01*
X722Y2264D02*
X842D01*
X782Y2204D02*
Y2324D01*
X2939Y4045D02*
X3029D01*
X2984Y4000D02*
Y4090D01*
X2685Y4045D02*
X2775D01*
X2730Y4000D02*
Y4090D01*
X2495Y8156D02*
X2585D01*
X2540Y8111D02*
Y8201D01*
X1733Y8156D02*
X1823D01*
X1778Y8111D02*
Y8201D01*
X2495Y8410D02*
X2585D01*
X2540Y8365D02*
Y8455D01*
X1733Y8410D02*
X1823D01*
X1778Y8365D02*
Y8455D01*
X5759Y624D02*
X5849D01*
X5804Y579D02*
Y669D01*
X5759Y878D02*
X5849D01*
X5804Y833D02*
Y923D01*
X4997Y624D02*
X5087D01*
X5042Y579D02*
Y669D01*
X4997Y878D02*
X5087D01*
X5042Y833D02*
Y923D01*
X6737Y6763D02*
X6827D01*
X6782Y6718D02*
Y6808D01*
X6991Y6763D02*
X7081D01*
X7036Y6718D02*
Y6808D01*
X8349Y6741D02*
X8439D01*
X8394Y6696D02*
Y6786D01*
X8349Y6487D02*
X8439D01*
X8394Y6442D02*
Y6532D01*
X7400Y8484D02*
X7520D01*
X7460Y8424D02*
Y8544D01*
X6900Y8484D02*
X7020D01*
X6960Y8424D02*
Y8544D01*
X6400Y8484D02*
X6520D01*
X6460Y8424D02*
Y8544D01*
X5900Y8484D02*
X6020D01*
X5960Y8424D02*
Y8544D01*
X5400Y8484D02*
X5520D01*
X5460Y8424D02*
Y8544D01*
X4900Y8484D02*
X5020D01*
X4960Y8424D02*
Y8544D01*
X1479Y4159D02*
X1569D01*
X1524Y4114D02*
Y4204D01*
X1733Y4159D02*
X1823D01*
X1778Y4114D02*
Y4204D01*
X3865Y4481D02*
X3955D01*
X3910Y4436D02*
Y4526D01*
X3865Y4735D02*
X3955D01*
X3910Y4690D02*
Y4780D01*
X3103Y4481D02*
X3193D01*
X3148Y4436D02*
Y4526D01*
X3103Y4735D02*
X3193D01*
X3148Y4690D02*
Y4780D01*
X300Y520D02*
X620D01*
X460Y360D02*
Y680D01*
X680Y9090D02*
X1000D01*
X840Y8930D02*
Y9250D01*
X8050Y9090D02*
X8370D01*
X8210Y8930D02*
Y9250D01*
X8300Y520D02*
X8620D01*
X8460Y360D02*
Y680D01*
X2253Y4186D02*
X2273D01*
X2263Y4176D02*
Y4196D01*
X2641Y7331D02*
X2661D01*
X2651Y7321D02*
Y7341D01*
X2591Y7381D02*
X2611D01*
X2601Y7371D02*
Y7391D01*
X2691Y7381D02*
X2711D01*
X2701Y7371D02*
Y7391D01*
X2691Y7281D02*
X2711D01*
X2701Y7271D02*
Y7291D01*
X2591Y7281D02*
X2611D01*
X2601Y7271D02*
Y7291D01*
X6605Y1895D02*
X6625D01*
X6615Y1885D02*
Y1905D01*
X6555Y1895D02*
X6575D01*
X6565Y1885D02*
Y1905D01*
X6505Y1895D02*
X6525D01*
X6515Y1885D02*
Y1905D01*
X6455Y1895D02*
X6475D01*
X6465Y1885D02*
Y1905D01*
X6405Y1895D02*
X6425D01*
X6415Y1885D02*
Y1905D01*
X6605Y1945D02*
X6625D01*
X6615Y1935D02*
Y1955D01*
X6555Y1945D02*
X6575D01*
X6565Y1935D02*
Y1955D01*
X6505Y1945D02*
X6525D01*
X6515Y1935D02*
Y1955D01*
X6455Y1945D02*
X6475D01*
X6465Y1935D02*
Y1955D01*
X6405Y1945D02*
X6425D01*
X6415Y1935D02*
Y1955D01*
X6605Y1995D02*
X6625D01*
X6615Y1985D02*
Y2005D01*
X6555Y1995D02*
X6575D01*
X6565Y1985D02*
Y2005D01*
X6505Y1995D02*
X6525D01*
X6515Y1985D02*
Y2005D01*
X6455Y1995D02*
X6475D01*
X6465Y1985D02*
Y2005D01*
X6405Y1995D02*
X6425D01*
X6415Y1985D02*
Y2005D01*
X3824Y3990D02*
X3844D01*
X3834Y3980D02*
Y4000D01*
X3674Y3990D02*
X3694D01*
X3684Y3980D02*
Y4000D01*
X3749Y3940D02*
X3769D01*
X3759Y3930D02*
Y3950D01*
X3824Y3890D02*
X3844D01*
X3834Y3880D02*
Y3900D01*
X3674Y3890D02*
X3694D01*
X3684Y3880D02*
Y3900D01*
X4956Y1234D02*
X4976D01*
X4966Y1224D02*
Y1244D01*
X5031Y1284D02*
X5051D01*
X5041Y1274D02*
Y1294D01*
X5031Y1184D02*
X5051D01*
X5041Y1174D02*
Y1194D01*
X4881Y1184D02*
X4901D01*
X4891Y1174D02*
Y1194D01*
X4881Y1284D02*
X4901D01*
X4891Y1274D02*
Y1294D01*
X7623Y6923D02*
X7643D01*
X7633Y6914D02*
Y6933D01*
X6932Y7000D02*
X6962D01*
X6947Y6984D02*
Y7015D01*
X8379Y7563D02*
X8410D01*
X8394Y7547D02*
Y7578D01*
X7783Y7508D02*
X7813D01*
X7798Y7492D02*
Y7523D01*
X1763Y2467D02*
X1793D01*
X1778Y2452D02*
Y2482D01*
X1407Y5591D02*
X1438D01*
X1422Y5576D02*
Y5606D01*
X1052Y5591D02*
X1082D01*
X1067Y5576D02*
Y5606D01*
X1458Y6378D02*
X1489D01*
X1473Y6363D02*
Y6394D01*
X1483Y7369D02*
X1514D01*
X1499Y7354D02*
Y7384D01*
X1191Y5794D02*
X1222D01*
X1207Y5779D02*
Y5809D01*
X2169Y3394D02*
X2200D01*
X2184Y3379D02*
Y3409D01*
X2004Y6620D02*
X2035D01*
X2019Y6604D02*
Y6635D01*
X1788Y5464D02*
X1819D01*
X1803Y5449D02*
Y5479D01*
X2703Y3432D02*
X2733D01*
X2718Y3417D02*
Y3447D01*
X2652Y7039D02*
X2682D01*
X2667Y7024D02*
Y7054D01*
X4798Y1894D02*
X4829D01*
X4813Y1879D02*
Y1910D01*
X5000Y1893D02*
X5030D01*
X5015Y1877D02*
Y1908D01*
X7338Y4053D02*
X7369D01*
X7353Y4038D02*
Y4069D01*
X8024Y4409D02*
X8054D01*
X8039Y4394D02*
Y4424D01*
X6982Y3596D02*
X7013D01*
X6998Y3581D02*
Y3611D01*
X7998Y3215D02*
X8029D01*
X8014Y3200D02*
Y3230D01*
X8227Y4409D02*
X8258D01*
X8242Y4394D02*
Y4424D01*
X7490Y5984D02*
X7521D01*
X7506Y5968D02*
Y5999D01*
X4506Y4337D02*
X4536D01*
X4521Y4322D02*
Y4352D01*
X4518Y4629D02*
X4549D01*
X4534Y4614D02*
Y4644D01*
X3160Y3795D02*
X3190D01*
X3175Y3780D02*
Y3810D01*
X3464Y5137D02*
X3495D01*
X3480Y5122D02*
Y5152D01*
X3464Y5337D02*
X3495D01*
X3480Y5322D02*
Y5352D01*
X2906Y3422D02*
X2936D01*
X2921Y3407D02*
Y3437D01*
X1850Y3677D02*
X1880D01*
X1865Y3661D02*
Y3692D01*
X1750Y4667D02*
X1780D01*
X1765Y4652D02*
Y4682D01*
X1928Y4248D02*
X1958D01*
X1943Y4233D02*
Y4263D01*
X1750Y6394D02*
X1780D01*
X1765Y6379D02*
Y6410D01*
X2398Y6137D02*
X2428D01*
X2413Y6122D02*
Y6152D01*
X2829Y6775D02*
X2860D01*
X2845Y6760D02*
Y6791D01*
X2826Y6582D02*
X2857D01*
X2841Y6566D02*
Y6597D01*
X2826Y6391D02*
X2857D01*
X2841Y6376D02*
Y6406D01*
X3083Y7814D02*
X3114D01*
X3099Y7798D02*
Y7829D01*
X2956Y4553D02*
X2987D01*
X2972Y4538D02*
Y4568D01*
X3058Y7283D02*
X3088D01*
X3073Y7268D02*
Y7299D01*
X2258Y7258D02*
X2288D01*
X2273Y7243D02*
Y7273D01*
X5348Y1869D02*
X5379D01*
X5363Y1854D02*
Y1884D01*
X4353Y552D02*
X4384D01*
X4369Y537D02*
Y568D01*
X4557Y616D02*
X4587D01*
X4572Y601D02*
Y631D01*
X4637Y1522D02*
X4668D01*
X4653Y1507D02*
Y1537D01*
X6398Y2318D02*
X6429D01*
X6413Y2302D02*
Y2333D01*
X5738Y1695D02*
X5768D01*
X5753Y1680D02*
Y1711D01*
X5877Y1594D02*
X5908D01*
X5893Y1578D02*
Y1609D01*
X6893Y1005D02*
X6924D01*
X6909Y990D02*
Y1021D01*
X6893Y1183D02*
X6924D01*
X6909Y1168D02*
Y1198D01*
X6893Y1361D02*
X6924D01*
X6909Y1346D02*
Y1376D01*
X6893Y1539D02*
X6924D01*
X6909Y1523D02*
Y1554D01*
X6364Y2860D02*
X6394D01*
X6379Y2845D02*
Y2875D01*
X6885Y2906D02*
X6915D01*
X6900Y2891D02*
Y2921D01*
X6707Y2910D02*
X6738D01*
X6722Y2895D02*
Y2926D01*
X6527Y2421D02*
X6557D01*
X6542Y2406D02*
Y2436D01*
X7173Y3410D02*
X7203D01*
X7188Y3395D02*
Y3425D01*
X7693Y4426D02*
X7724D01*
X7709Y4411D02*
Y4441D01*
X6775Y7228D02*
X6805D01*
X6790Y7213D02*
Y7244D01*
X6906Y6217D02*
X6937D01*
X6921Y6201D02*
Y6232D01*
X7439Y7614D02*
X7470D01*
X7455Y7598D02*
Y7629D01*
X7732Y7765D02*
X7762D01*
X7747Y7750D02*
Y7781D01*
X8113Y6090D02*
X8143D01*
X8128Y6074D02*
Y6105D01*
X8087Y6725D02*
X8118D01*
X8102Y6709D02*
Y6740D01*
X1166Y3867D02*
X1196D01*
X1181Y3852D02*
Y3882D01*
X6005Y1689D02*
X6035D01*
X6020Y1674D02*
Y1704D01*
X3211Y7595D02*
X3241D01*
X3226Y7579D02*
Y7610D01*
X3096Y7455D02*
X3127D01*
X3111Y7440D02*
Y7470D01*
X2703Y8014D02*
X2733D01*
X2718Y7998D02*
Y8029D01*
X3320Y3135D02*
X3350D01*
X3335Y3120D02*
Y3150D01*
X3345Y3567D02*
X3376D01*
X3361Y3551D02*
Y3582D01*
X1995Y3703D02*
X2026D01*
X2010Y3687D02*
Y3718D01*
X3434Y7355D02*
X3465D01*
X3449Y7340D02*
Y7370D01*
X7262Y4648D02*
X7292D01*
X7277Y4633D02*
Y4663D01*
X7135Y6149D02*
X7165D01*
X7150Y6134D02*
Y6164D01*
X7274Y5950D02*
X7305D01*
X7290Y5935D02*
Y5965D01*
X4849Y914D02*
X4879D01*
X4864Y899D02*
Y930D01*
M02*
