%FSLAX23Y23*%
%MOIN*%
G70*
G01*
G75*
G04 Layer_Color=32768*
%ADD10C,0.039*%
%ADD11R,0.037X0.053*%
%ADD12R,0.045X0.057*%
%ADD13R,0.059X0.049*%
%ADD14R,0.055X0.041*%
%ADD15R,0.063X0.063*%
%ADD16O,0.010X0.028*%
%ADD17O,0.028X0.010*%
%ADD18R,0.057X0.045*%
%ADD19R,0.041X0.055*%
%ADD20R,0.049X0.059*%
%ADD21R,0.053X0.061*%
%ADD22R,0.039X0.039*%
%ADD23R,0.295X0.118*%
%ADD24R,0.051X0.033*%
%ADD25R,0.061X0.053*%
%ADD26R,0.053X0.037*%
%ADD27R,0.033X0.026*%
%ADD28R,0.000X0.000*%
%ADD29R,0.000X0.000*%
%ADD30O,0.067X0.018*%
%ADD31O,0.033X0.012*%
%ADD32R,0.065X0.094*%
%ADD33R,0.033X0.051*%
%ADD34R,0.006X0.008*%
G04:AMPARAMS|DCode=35|XSize=9mil|YSize=24mil|CornerRadius=3mil|HoleSize=0mil|Usage=FLASHONLY|Rotation=270.000|XOffset=0mil|YOffset=0mil|HoleType=Round|Shape=RoundedRectangle|*
%AMROUNDEDRECTD35*
21,1,0.009,0.017,0,0,270.0*
21,1,0.003,0.024,0,0,270.0*
1,1,0.007,-0.009,-0.001*
1,1,0.007,-0.009,0.001*
1,1,0.007,0.009,0.001*
1,1,0.007,0.009,-0.001*
%
%ADD35ROUNDEDRECTD35*%
%ADD36R,0.150X0.138*%
%ADD37R,0.000X0.000*%
%ADD38R,0.000X0.000*%
%ADD39R,0.026X0.033*%
%ADD40R,0.077X0.079*%
%ADD41R,0.067X0.067*%
%ADD42O,0.011X0.033*%
%ADD43O,0.033X0.011*%
%ADD44R,0.039X0.039*%
%ADD45R,0.217X0.085*%
%ADD46C,0.040*%
%ADD47C,0.020*%
%ADD48C,0.015*%
%ADD49C,0.017*%
%ADD50C,0.010*%
%ADD51C,0.018*%
%ADD52C,0.030*%
%ADD53C,0.060*%
%ADD54R,0.008X0.033*%
%ADD55R,0.062X0.112*%
%ADD56R,0.037X0.026*%
%ADD57C,0.059*%
%ADD58R,0.059X0.059*%
%ADD59R,0.059X0.059*%
%ADD60C,0.083*%
%ADD61C,0.276*%
%ADD62C,0.040*%
%ADD63C,0.020*%
%ADD64C,0.008*%
%ADD65C,0.075*%
%ADD66C,0.087*%
%ADD67C,0.166*%
%ADD68C,0.010*%
%ADD69C,0.008*%
%ADD70C,0.008*%
%ADD71C,0.024*%
%ADD72C,0.004*%
%ADD73C,0.002*%
%ADD74R,0.026X0.007*%
%ADD75R,0.018X0.067*%
%ADD76R,0.023X0.007*%
%ADD77R,0.007X0.023*%
%ADD78R,0.067X0.018*%
%ADD79R,0.007X0.026*%
%ADD80R,0.026X0.039*%
%ADD81R,0.028X0.028*%
%ADD82R,0.028X0.028*%
%ADD83C,0.079*%
%ADD84O,0.031X0.010*%
%ADD85O,0.009X0.031*%
%ADD86O,0.031X0.009*%
%ADD87R,0.045X0.061*%
%ADD88R,0.053X0.065*%
%ADD89R,0.067X0.057*%
%ADD90R,0.063X0.049*%
%ADD91R,0.071X0.071*%
%ADD92O,0.018X0.036*%
%ADD93O,0.036X0.018*%
%ADD94R,0.065X0.053*%
%ADD95R,0.049X0.063*%
%ADD96R,0.057X0.067*%
%ADD97R,0.061X0.069*%
%ADD98R,0.303X0.126*%
%ADD99R,0.059X0.041*%
%ADD100R,0.069X0.061*%
%ADD101R,0.061X0.045*%
%ADD102R,0.041X0.034*%
%ADD103O,0.075X0.026*%
%ADD104O,0.039X0.017*%
%ADD105R,0.070X0.100*%
%ADD106R,0.041X0.059*%
G04:AMPARAMS|DCode=107|XSize=17mil|YSize=32mil|CornerRadius=7mil|HoleSize=0mil|Usage=FLASHONLY|Rotation=270.000|XOffset=0mil|YOffset=0mil|HoleType=Round|Shape=RoundedRectangle|*
%AMROUNDEDRECTD107*
21,1,0.017,0.017,0,0,270.0*
21,1,0.003,0.032,0,0,270.0*
1,1,0.015,-0.009,-0.001*
1,1,0.015,-0.009,0.001*
1,1,0.015,0.009,0.001*
1,1,0.015,0.009,-0.001*
%
%ADD107ROUNDEDRECTD107*%
%ADD108R,0.158X0.146*%
%ADD109R,0.034X0.041*%
%ADD110R,0.085X0.087*%
%ADD111R,0.072X0.072*%
%ADD112O,0.017X0.039*%
%ADD113O,0.039X0.017*%
%ADD114R,0.225X0.093*%
%ADD115R,0.045X0.034*%
%ADD116C,0.067*%
%ADD117R,0.067X0.067*%
%ADD118R,0.067X0.067*%
%ADD119C,0.091*%
%ADD120C,0.284*%
%ADD121C,0.048*%
%ADD122C,0.028*%
%ADD123C,0.016*%
%ADD124C,0.020*%
%ADD125C,0.002*%
D72*
X2504Y504D02*
Y536D01*
X2567D01*
Y504D02*
Y536D01*
X2504Y504D02*
X2567D01*
X2504Y434D02*
X2567D01*
Y466D01*
X2504D02*
X2567D01*
X2504Y434D02*
Y466D01*
X1031Y1084D02*
X1094D01*
Y1116D01*
X1031D02*
X1094D01*
X1031Y1084D02*
Y1116D01*
X1887Y2653D02*
Y2716D01*
X1855D02*
X1887D01*
X1855Y2653D02*
Y2716D01*
Y2653D02*
X1887D01*
X1935D02*
X1967D01*
X1935D02*
Y2716D01*
X1967D01*
Y2653D02*
Y2716D01*
D125*
X2599Y540D02*
Y555D01*
Y550D01*
X2588Y540D01*
X2596Y548D01*
X2588Y555D01*
X2583D02*
Y540D01*
X2575D01*
X2573Y542D01*
Y548D01*
X2575Y550D01*
X2583D01*
X2567Y548D02*
X2557D01*
X2552Y555D02*
X2546D01*
X2549D01*
Y540D01*
X2552Y542D01*
X2528Y540D02*
X2533Y542D01*
X2538Y548D01*
Y553D01*
X2536Y555D01*
X2531D01*
X2528Y553D01*
Y550D01*
X2531Y548D01*
X2538D01*
X2523Y542D02*
X2520Y540D01*
X2515D01*
X2512Y542D01*
Y553D01*
X2515Y555D01*
X2520D01*
X2523Y553D01*
Y542D01*
X2507D02*
X2504Y540D01*
X2499D01*
X2496Y542D01*
Y545D01*
X2499Y548D01*
X2496Y550D01*
Y553D01*
X2499Y555D01*
X2504D01*
X2507Y553D01*
Y550D01*
X2504Y548D01*
X2507Y545D01*
Y542D01*
X2504Y548D02*
X2499D01*
X2481Y542D02*
X2483Y540D01*
X2489D01*
X2491Y542D01*
Y545D01*
X2489Y548D01*
X2483D01*
X2481Y550D01*
Y553D01*
X2483Y555D01*
X2489D01*
X2491Y553D01*
X2465Y540D02*
X2475D01*
Y555D01*
X2465D01*
X2475Y548D02*
X2470D01*
X2449Y542D02*
X2452Y540D01*
X2457D01*
X2460Y542D01*
Y553D01*
X2457Y555D01*
X2452D01*
X2449Y553D01*
X2444Y540D02*
Y555D01*
Y550D01*
X2433Y540D01*
X2441Y548D01*
X2433Y555D01*
X2599Y481D02*
Y496D01*
X2591D01*
X2588Y494D01*
Y483D01*
X2591Y481D01*
X2599D01*
X2573Y483D02*
X2575Y481D01*
X2580D01*
X2583Y483D01*
Y486D01*
X2580Y489D01*
X2575D01*
X2573Y491D01*
Y494D01*
X2575Y496D01*
X2580D01*
X2583Y494D01*
X2557Y481D02*
X2562Y483D01*
X2567Y489D01*
Y494D01*
X2565Y496D01*
X2559D01*
X2557Y494D01*
Y491D01*
X2559Y489D01*
X2567D01*
X2541Y496D02*
X2552D01*
X2541Y486D01*
Y483D01*
X2544Y481D01*
X2549D01*
X2552Y483D01*
X2599Y470D02*
Y485D01*
Y480D01*
X2588Y470D01*
X2596Y478D01*
X2588Y485D01*
X2583D02*
Y470D01*
X2575D01*
X2573Y472D01*
Y478D01*
X2575Y480D01*
X2583D01*
X2567Y478D02*
X2557D01*
X2552Y485D02*
X2546D01*
X2549D01*
Y470D01*
X2552Y472D01*
X2528Y470D02*
X2533Y472D01*
X2538Y478D01*
Y483D01*
X2536Y485D01*
X2531D01*
X2528Y483D01*
Y480D01*
X2531Y478D01*
X2538D01*
X2523Y472D02*
X2520Y470D01*
X2515D01*
X2512Y472D01*
Y483D01*
X2515Y485D01*
X2520D01*
X2523Y483D01*
Y472D01*
X2507D02*
X2504Y470D01*
X2499D01*
X2496Y472D01*
Y475D01*
X2499Y478D01*
X2496Y480D01*
Y483D01*
X2499Y485D01*
X2504D01*
X2507Y483D01*
Y480D01*
X2504Y478D01*
X2507Y475D01*
Y472D01*
X2504Y478D02*
X2499D01*
X2491Y485D02*
Y470D01*
X2486Y475D01*
X2481Y470D01*
Y485D01*
X2465Y472D02*
X2468Y470D01*
X2473D01*
X2475Y472D01*
Y483D01*
X2473Y485D01*
X2468D01*
X2465Y483D01*
Y478D01*
X2470D01*
X2449Y472D02*
X2452Y470D01*
X2457D01*
X2460Y472D01*
Y483D01*
X2457Y485D01*
X2452D01*
X2449Y483D01*
X2599Y411D02*
Y426D01*
X2591D01*
X2588Y424D01*
Y413D01*
X2591Y411D01*
X2599D01*
X2573Y413D02*
X2575Y411D01*
X2580D01*
X2583Y413D01*
Y416D01*
X2580Y419D01*
X2575D01*
X2573Y421D01*
Y424D01*
X2575Y426D01*
X2580D01*
X2583Y424D01*
X2557Y411D02*
X2562Y413D01*
X2567Y419D01*
Y424D01*
X2565Y426D01*
X2559D01*
X2557Y424D01*
Y421D01*
X2559Y419D01*
X2567D01*
X2552Y426D02*
X2546D01*
X2549D01*
Y411D01*
X2552Y413D01*
X1125Y1120D02*
Y1136D01*
Y1130D01*
X1115Y1120D01*
X1123Y1128D01*
X1115Y1136D01*
X1110D02*
Y1120D01*
X1102D01*
X1099Y1122D01*
Y1128D01*
X1102Y1130D01*
X1110D01*
X1094Y1128D02*
X1083D01*
X1078Y1136D02*
X1073D01*
X1076D01*
Y1120D01*
X1078Y1122D01*
X1055Y1120D02*
X1060Y1122D01*
X1065Y1128D01*
Y1133D01*
X1062Y1136D01*
X1057D01*
X1055Y1133D01*
Y1130D01*
X1057Y1128D01*
X1065D01*
X1049Y1122D02*
X1047Y1120D01*
X1041D01*
X1039Y1122D01*
Y1133D01*
X1041Y1136D01*
X1047D01*
X1049Y1133D01*
Y1122D01*
X1034D02*
X1031Y1120D01*
X1026D01*
X1023Y1122D01*
Y1125D01*
X1026Y1128D01*
X1023Y1130D01*
Y1133D01*
X1026Y1136D01*
X1031D01*
X1034Y1133D01*
Y1130D01*
X1031Y1128D01*
X1034Y1125D01*
Y1122D01*
X1031Y1128D02*
X1026D01*
X1018Y1136D02*
Y1120D01*
X1013Y1125D01*
X1007Y1120D01*
Y1136D01*
X992Y1122D02*
X994Y1120D01*
X999D01*
X1002Y1122D01*
Y1133D01*
X999Y1136D01*
X994D01*
X992Y1133D01*
Y1128D01*
X997D01*
X976Y1122D02*
X979Y1120D01*
X984D01*
X986Y1122D01*
Y1133D01*
X984Y1136D01*
X979D01*
X976Y1133D01*
X1125Y1061D02*
Y1076D01*
X1118D01*
X1115Y1074D01*
Y1063D01*
X1118Y1061D01*
X1125D01*
X1099Y1063D02*
X1102Y1061D01*
X1107D01*
X1110Y1063D01*
Y1066D01*
X1107Y1069D01*
X1102D01*
X1099Y1071D01*
Y1074D01*
X1102Y1076D01*
X1107D01*
X1110Y1074D01*
X1094Y1061D02*
X1083D01*
Y1063D01*
X1094Y1074D01*
Y1076D01*
X1078D02*
X1073D01*
X1076D01*
Y1061D01*
X1078Y1063D01*
X1911Y2748D02*
X1895D01*
Y2740D01*
X1897Y2737D01*
X1908D01*
X1911Y2740D01*
Y2748D01*
X1908Y2722D02*
X1911Y2724D01*
Y2730D01*
X1908Y2732D01*
X1905D01*
X1903Y2730D01*
Y2724D01*
X1900Y2722D01*
X1897D01*
X1895Y2724D01*
Y2730D01*
X1897Y2732D01*
X1895Y2706D02*
Y2716D01*
X1905Y2706D01*
X1908D01*
X1911Y2709D01*
Y2714D01*
X1908Y2716D01*
X1851Y2748D02*
X1836D01*
X1841D01*
X1851Y2737D01*
X1844Y2745D01*
X1836Y2737D01*
Y2732D02*
X1851D01*
Y2724D01*
X1849Y2722D01*
X1844D01*
X1841Y2724D01*
Y2732D01*
X1844Y2716D02*
Y2706D01*
X1836Y2701D02*
Y2695D01*
Y2698D01*
X1851D01*
X1849Y2701D01*
X1851Y2677D02*
X1849Y2682D01*
X1844Y2688D01*
X1838D01*
X1836Y2685D01*
Y2680D01*
X1838Y2677D01*
X1841D01*
X1844Y2680D01*
Y2688D01*
X1849Y2672D02*
X1851Y2669D01*
Y2664D01*
X1849Y2661D01*
X1838D01*
X1836Y2664D01*
Y2669D01*
X1838Y2672D01*
X1849D01*
Y2656D02*
X1851Y2653D01*
Y2648D01*
X1849Y2646D01*
X1846D01*
X1844Y2648D01*
X1841Y2646D01*
X1838D01*
X1836Y2648D01*
Y2653D01*
X1838Y2656D01*
X1841D01*
X1844Y2653D01*
X1846Y2656D01*
X1849D01*
X1844Y2653D02*
Y2648D01*
X1849Y2630D02*
X1851Y2633D01*
Y2638D01*
X1849Y2640D01*
X1846D01*
X1844Y2638D01*
Y2633D01*
X1841Y2630D01*
X1838D01*
X1836Y2633D01*
Y2638D01*
X1838Y2640D01*
X1851Y2614D02*
Y2625D01*
X1836D01*
Y2614D01*
X1844Y2625D02*
Y2619D01*
X1849Y2598D02*
X1851Y2601D01*
Y2606D01*
X1849Y2609D01*
X1838D01*
X1836Y2606D01*
Y2601D01*
X1838Y2598D01*
X1851Y2593D02*
X1836D01*
X1841D01*
X1851Y2583D01*
X1844Y2591D01*
X1836Y2583D01*
X1991Y2748D02*
X1975D01*
Y2740D01*
X1977Y2737D01*
X1988D01*
X1991Y2740D01*
Y2748D01*
X1988Y2722D02*
X1991Y2724D01*
Y2730D01*
X1988Y2732D01*
X1985D01*
X1983Y2730D01*
Y2724D01*
X1980Y2722D01*
X1977D01*
X1975Y2724D01*
Y2730D01*
X1977Y2732D01*
X1975Y2716D02*
Y2711D01*
Y2714D01*
X1991D01*
X1988Y2716D01*
X1931Y2748D02*
X1916D01*
X1921D01*
X1931Y2737D01*
X1924Y2745D01*
X1916Y2737D01*
Y2732D02*
X1931D01*
Y2724D01*
X1929Y2722D01*
X1924D01*
X1921Y2724D01*
Y2732D01*
X1924Y2716D02*
Y2706D01*
X1916Y2701D02*
Y2695D01*
Y2698D01*
X1931D01*
X1929Y2701D01*
X1931Y2677D02*
X1929Y2682D01*
X1924Y2688D01*
X1918D01*
X1916Y2685D01*
Y2680D01*
X1918Y2677D01*
X1921D01*
X1924Y2680D01*
Y2688D01*
X1929Y2672D02*
X1931Y2669D01*
Y2664D01*
X1929Y2661D01*
X1918D01*
X1916Y2664D01*
Y2669D01*
X1918Y2672D01*
X1929D01*
Y2656D02*
X1931Y2653D01*
Y2648D01*
X1929Y2646D01*
X1926D01*
X1924Y2648D01*
X1921Y2646D01*
X1918D01*
X1916Y2648D01*
Y2653D01*
X1918Y2656D01*
X1921D01*
X1924Y2653D01*
X1926Y2656D01*
X1929D01*
X1924Y2653D02*
Y2648D01*
X1916Y2640D02*
X1931D01*
X1926Y2635D01*
X1931Y2630D01*
X1916D01*
X1929Y2614D02*
X1931Y2617D01*
Y2622D01*
X1929Y2625D01*
X1918D01*
X1916Y2622D01*
Y2617D01*
X1918Y2614D01*
X1924D01*
Y2619D01*
X1929Y2598D02*
X1931Y2601D01*
Y2606D01*
X1929Y2609D01*
X1918D01*
X1916Y2606D01*
Y2601D01*
X1918Y2598D01*
M02*
