%FSLAX23Y23*%
%MOIN*%
G70*
G01*
G75*
G04 Layer_Color=32768*
%ADD10C,0.039*%
%ADD11R,0.037X0.053*%
%ADD12R,0.045X0.057*%
%ADD13R,0.059X0.049*%
%ADD14R,0.055X0.041*%
%ADD15R,0.063X0.063*%
%ADD16O,0.010X0.028*%
%ADD17O,0.028X0.010*%
%ADD18R,0.057X0.045*%
%ADD19R,0.041X0.055*%
%ADD20R,0.049X0.059*%
%ADD21R,0.053X0.061*%
%ADD22R,0.039X0.039*%
%ADD23R,0.295X0.118*%
%ADD24R,0.051X0.033*%
%ADD25R,0.061X0.053*%
%ADD26R,0.053X0.037*%
%ADD27R,0.033X0.026*%
%ADD28R,0.000X0.000*%
%ADD29R,0.000X0.000*%
%ADD30O,0.067X0.018*%
%ADD31O,0.033X0.012*%
%ADD32R,0.065X0.094*%
%ADD33R,0.033X0.051*%
%ADD34R,0.006X0.008*%
G04:AMPARAMS|DCode=35|XSize=9mil|YSize=24mil|CornerRadius=3mil|HoleSize=0mil|Usage=FLASHONLY|Rotation=270.000|XOffset=0mil|YOffset=0mil|HoleType=Round|Shape=RoundedRectangle|*
%AMROUNDEDRECTD35*
21,1,0.009,0.017,0,0,270.0*
21,1,0.003,0.024,0,0,270.0*
1,1,0.007,-0.009,-0.001*
1,1,0.007,-0.009,0.001*
1,1,0.007,0.009,0.001*
1,1,0.007,0.009,-0.001*
%
%ADD35ROUNDEDRECTD35*%
%ADD36R,0.150X0.138*%
%ADD37R,0.000X0.000*%
%ADD38R,0.000X0.000*%
%ADD39R,0.026X0.033*%
%ADD40R,0.077X0.079*%
%ADD41R,0.067X0.067*%
%ADD42O,0.011X0.033*%
%ADD43O,0.033X0.011*%
%ADD44R,0.039X0.039*%
%ADD45R,0.217X0.085*%
%ADD46C,0.040*%
%ADD47C,0.020*%
%ADD48C,0.015*%
%ADD49C,0.017*%
%ADD50C,0.010*%
%ADD51C,0.018*%
%ADD52C,0.030*%
%ADD53C,0.060*%
%ADD54R,0.008X0.033*%
%ADD55R,0.062X0.112*%
%ADD56R,0.037X0.026*%
%ADD57C,0.059*%
%ADD58R,0.059X0.059*%
%ADD59R,0.059X0.059*%
%ADD60C,0.083*%
%ADD61C,0.276*%
%ADD62C,0.040*%
%ADD63C,0.020*%
%ADD64C,0.008*%
%ADD65C,0.075*%
%ADD66C,0.087*%
%ADD67C,0.166*%
%ADD68C,0.010*%
%ADD69C,0.008*%
%ADD70C,0.008*%
%ADD71C,0.024*%
%ADD72C,0.004*%
%ADD73C,0.002*%
%ADD74R,0.026X0.007*%
%ADD75R,0.018X0.067*%
%ADD76R,0.023X0.007*%
%ADD77R,0.007X0.023*%
%ADD78R,0.067X0.018*%
%ADD79R,0.007X0.026*%
%ADD80R,0.026X0.039*%
%ADD81R,0.028X0.028*%
%ADD82R,0.028X0.028*%
%ADD83C,0.079*%
%ADD84O,0.031X0.010*%
%ADD85O,0.009X0.031*%
%ADD86O,0.031X0.009*%
%ADD87R,0.045X0.061*%
%ADD88R,0.053X0.065*%
%ADD89R,0.067X0.057*%
%ADD90R,0.063X0.049*%
%ADD91R,0.071X0.071*%
%ADD92O,0.018X0.036*%
%ADD93O,0.036X0.018*%
%ADD94R,0.065X0.053*%
%ADD95R,0.049X0.063*%
%ADD96R,0.057X0.067*%
%ADD97R,0.061X0.069*%
%ADD98R,0.303X0.126*%
%ADD99R,0.059X0.041*%
%ADD100R,0.069X0.061*%
%ADD101R,0.061X0.045*%
%ADD102R,0.041X0.034*%
%ADD103O,0.075X0.026*%
%ADD104O,0.039X0.017*%
%ADD105R,0.070X0.100*%
%ADD106R,0.041X0.059*%
G04:AMPARAMS|DCode=107|XSize=17mil|YSize=32mil|CornerRadius=7mil|HoleSize=0mil|Usage=FLASHONLY|Rotation=270.000|XOffset=0mil|YOffset=0mil|HoleType=Round|Shape=RoundedRectangle|*
%AMROUNDEDRECTD107*
21,1,0.017,0.017,0,0,270.0*
21,1,0.003,0.032,0,0,270.0*
1,1,0.015,-0.009,-0.001*
1,1,0.015,-0.009,0.001*
1,1,0.015,0.009,0.001*
1,1,0.015,0.009,-0.001*
%
%ADD107ROUNDEDRECTD107*%
%ADD108R,0.158X0.146*%
%ADD109R,0.034X0.041*%
%ADD110R,0.085X0.087*%
%ADD111R,0.072X0.072*%
%ADD112O,0.017X0.039*%
%ADD113O,0.039X0.017*%
%ADD114R,0.225X0.093*%
%ADD115R,0.045X0.034*%
%ADD116C,0.067*%
%ADD117R,0.067X0.067*%
%ADD118R,0.067X0.067*%
%ADD119C,0.091*%
%ADD120C,0.284*%
%ADD121C,0.048*%
%ADD122C,0.028*%
%ADD123C,0.016*%
%ADD124C,0.020*%
%ADD125C,0.002*%
D72*
X2986Y525D02*
Y565D01*
X2966Y545D02*
X3005D01*
X2896Y600D02*
Y640D01*
X2876Y620D02*
X2915D01*
X2826Y775D02*
X2865D01*
X2846Y755D02*
Y795D01*
X2756Y700D02*
Y740D01*
X2736Y720D02*
X2775D01*
X2726Y530D02*
Y570D01*
X2706Y550D02*
X2745D01*
X2418Y647D02*
X2457D01*
X2437Y627D02*
Y666D01*
X2533Y740D02*
X2572D01*
X2552Y720D02*
Y760D01*
X2521Y835D02*
Y875D01*
X2501Y855D02*
X2540D01*
X2821Y320D02*
X2860D01*
X2841Y300D02*
Y340D01*
X2851Y230D02*
Y270D01*
X2831Y250D02*
X2870D01*
X2522Y337D02*
Y376D01*
X2503Y357D02*
X2542D01*
X2376Y520D02*
X2415D01*
X2396Y500D02*
Y540D01*
X2376Y450D02*
X2415D01*
X2396Y430D02*
Y470D01*
X1815Y249D02*
X2110D01*
X1815Y621D02*
X2110D01*
X1815Y249D02*
Y621D01*
X2110Y249D02*
Y621D01*
X1962Y415D02*
Y455D01*
X1943Y435D02*
X1982D01*
X1566Y230D02*
Y270D01*
X1546Y250D02*
X1585D01*
X1596Y330D02*
Y370D01*
X1576Y350D02*
X1615D01*
X1526Y330D02*
Y370D01*
X1506Y350D02*
X1545D01*
X1646Y430D02*
X1685D01*
X1666Y410D02*
Y450D01*
X1536Y450D02*
X1575D01*
X1556Y430D02*
Y470D01*
X1516Y740D02*
Y780D01*
X1496Y760D02*
X1535D01*
X1376Y690D02*
X1415D01*
X1396Y670D02*
Y710D01*
X1406Y550D02*
X1445D01*
X1426Y530D02*
Y570D01*
X1306Y510D02*
X1345D01*
X1326Y490D02*
Y530D01*
X1306Y590D02*
X1345D01*
X1326Y570D02*
Y610D01*
X1496Y640D02*
Y680D01*
X1476Y660D02*
X1515D01*
X1716D02*
X1755D01*
X1736Y640D02*
Y680D01*
X1586Y530D02*
Y570D01*
X1566Y550D02*
X1605D01*
X1596Y800D02*
X1635D01*
X1616Y780D02*
Y820D01*
X296Y1400D02*
Y1440D01*
X276Y1420D02*
X315D01*
X466Y1600D02*
X505D01*
X486Y1580D02*
Y1620D01*
X580Y1630D02*
X619D01*
X599Y1610D02*
Y1650D01*
X656Y1620D02*
X695D01*
X676Y1600D02*
Y1640D01*
X347Y1735D02*
Y1775D01*
X328Y1755D02*
X367D01*
X337Y1815D02*
Y1855D01*
X318Y1835D02*
X357D01*
X576Y1470D02*
X615D01*
X596Y1450D02*
Y1490D01*
X436Y1460D02*
X475D01*
X456Y1440D02*
Y1480D01*
X482Y1715D02*
Y1755D01*
X463Y1735D02*
X502D01*
X586Y930D02*
X625D01*
X606Y910D02*
Y950D01*
X516Y930D02*
X555D01*
X536Y910D02*
Y950D01*
X446Y930D02*
X485D01*
X466Y910D02*
Y950D01*
X376Y930D02*
X415D01*
X396Y910D02*
Y950D01*
X424Y1040D02*
Y1080D01*
X405Y1060D02*
X444D01*
X507Y1130D02*
Y1170D01*
X488Y1150D02*
X527D01*
X776Y1270D02*
Y1310D01*
X756Y1290D02*
X795D01*
X876Y1230D02*
X915D01*
X896Y1210D02*
Y1250D01*
X816Y1140D02*
Y1180D01*
X796Y1160D02*
X835D01*
X918Y1100D02*
X957D01*
X937Y1080D02*
Y1120D01*
X728Y1185D02*
X767D01*
X747Y1165D02*
Y1205D01*
X1048Y889D02*
Y928D01*
X1028Y908D02*
X1067D01*
X1048Y819D02*
Y858D01*
X1028Y838D02*
X1067D01*
X520Y346D02*
Y794D01*
X1012Y346D02*
Y794D01*
X520D02*
X1012D01*
X520Y346D02*
X1012D01*
X746Y570D02*
X785D01*
X766Y550D02*
Y590D01*
X1698Y2425D02*
X1737D01*
X1717Y2405D02*
Y2445D01*
X1551Y2055D02*
Y2095D01*
X1531Y2075D02*
X1571D01*
X1404Y1986D02*
Y2025D01*
X1384Y2005D02*
X1424D01*
X1945Y3145D02*
X1984D01*
X1965Y3125D02*
Y3165D01*
X1817Y2959D02*
Y3331D01*
X2112Y2959D02*
Y3331D01*
X1817Y2959D02*
X2112D01*
X1817Y3331D02*
X2112D01*
X2225Y2845D02*
X2264D01*
X2245Y2825D02*
Y2865D01*
X2260Y3338D02*
Y3378D01*
X2240Y3358D02*
X2280D01*
X2320Y3358D02*
X2360D01*
X2340Y3338D02*
Y3378D01*
X2735Y3045D02*
X2774D01*
X2755Y3025D02*
Y3065D01*
X2815Y3045D02*
X2854D01*
X2835Y3025D02*
Y3065D01*
X2605Y2830D02*
Y2870D01*
X2585Y2850D02*
X2624D01*
X2225Y2925D02*
X2264D01*
X2245Y2905D02*
Y2945D01*
X2791Y2915D02*
Y2955D01*
X2771Y2935D02*
X2811D01*
X2021Y2285D02*
Y2325D01*
X2001Y2305D02*
X2041D01*
X2307Y3132D02*
Y3171D01*
X2287Y3151D02*
X2326D01*
X2287Y3241D02*
X2326D01*
X2307Y3222D02*
Y3261D01*
X2961Y2725D02*
Y2765D01*
X2941Y2745D02*
X2981D01*
X2886Y2492D02*
Y2531D01*
X2866Y2511D02*
X2906D01*
X2667Y2505D02*
Y2545D01*
X2648Y2525D02*
X2687D01*
X2516Y2505D02*
Y2545D01*
X2496Y2525D02*
X2536D01*
X1709Y1891D02*
Y1930D01*
X1689Y1910D02*
X1729D01*
X1824Y1886D02*
Y1925D01*
X1804Y1905D02*
X1844D01*
X1794Y2165D02*
X1834D01*
X1814Y2146D02*
Y2185D01*
X1662Y2130D02*
Y2170D01*
X1643Y2150D02*
X1682D01*
X1234Y2106D02*
Y2145D01*
X1214Y2125D02*
X1254D01*
X1404Y2106D02*
Y2145D01*
X1384Y2125D02*
X1424D01*
X1494Y2196D02*
Y2235D01*
X1474Y2215D02*
X1514D01*
X1891Y2495D02*
Y2535D01*
X1871Y2515D02*
X1911D01*
X1751Y2835D02*
Y2875D01*
X1731Y2855D02*
X1771D01*
X1521Y2955D02*
Y2995D01*
X1501Y2975D02*
X1541D01*
X1451Y2385D02*
Y2425D01*
X1431Y2405D02*
X1471D01*
X1451Y2465D02*
Y2505D01*
X1431Y2485D02*
X1471D01*
X1226Y2805D02*
X1266D01*
X1246Y2785D02*
Y2825D01*
X1336Y2765D02*
X1376D01*
X1356Y2745D02*
Y2785D01*
X3076Y2415D02*
Y2455D01*
X3056Y2435D02*
X3096D01*
X2186Y2275D02*
Y2315D01*
X2166Y2295D02*
X2206D01*
X2701Y2325D02*
X2741D01*
X2721Y2305D02*
Y2345D01*
X2591Y2505D02*
Y2545D01*
X2571Y2525D02*
X2611D01*
X1406Y2695D02*
X1446D01*
X1426Y2675D02*
Y2715D01*
X1451Y2575D02*
X1491D01*
X1471Y2555D02*
Y2595D01*
X1628Y2664D02*
X1668D01*
X1648Y2644D02*
Y2684D01*
X2515Y3075D02*
Y3115D01*
X2495Y3095D02*
X2534D01*
X2715Y3245D02*
X2754D01*
X2735Y3225D02*
Y3265D01*
X2517Y3185D02*
Y3225D01*
X2498Y3205D02*
X2537D01*
X2244Y2572D02*
X2468D01*
X2244Y2278D02*
X2468D01*
Y2572D01*
X2244Y2278D02*
Y2572D01*
X2356Y2405D02*
Y2445D01*
X2336Y2425D02*
X2376D01*
X3061Y2555D02*
X3101D01*
X3081Y2535D02*
Y2575D01*
X2011Y2545D02*
X2051D01*
X2031Y2525D02*
Y2565D01*
X2101Y2285D02*
Y2325D01*
X2081Y2305D02*
X2121D01*
X2858Y2247D02*
Y2287D01*
X2838Y2267D02*
X2878D01*
X3241Y2705D02*
X3281D01*
X3261Y2685D02*
Y2725D01*
X2645Y2965D02*
Y3005D01*
X2625Y2985D02*
X2664D01*
D125*
X2931Y576D02*
X3041D01*
X2931Y514D02*
X3041D01*
X2931D02*
Y576D01*
X3041Y514D02*
Y576D01*
X2827Y659D02*
X2965D01*
X2827Y581D02*
X2965D01*
X2827D02*
Y659D01*
X2965Y581D02*
Y659D01*
X2797Y688D02*
Y862D01*
X2895Y688D02*
Y862D01*
X2797Y688D02*
X2895D01*
X2797Y862D02*
X2895D01*
X2718Y789D02*
X2793D01*
X2718Y651D02*
X2793D01*
Y789D01*
X2718Y651D02*
Y789D01*
X2651Y475D02*
X2801D01*
X2651Y625D02*
X2801D01*
Y475D02*
Y625D01*
X2651Y475D02*
Y625D01*
X2398Y578D02*
Y716D01*
X2477Y578D02*
Y716D01*
X2398Y578D02*
X2477D01*
X2398Y716D02*
X2477D01*
X2484Y703D02*
Y777D01*
X2621Y703D02*
Y777D01*
X2484D02*
X2621D01*
X2484Y703D02*
X2621D01*
X2483Y786D02*
X2558D01*
X2483Y924D02*
X2558D01*
X2483Y786D02*
Y924D01*
X2558Y786D02*
Y924D01*
X2772Y283D02*
Y357D01*
X2910Y283D02*
Y357D01*
X2772D02*
X2910D01*
X2772Y283D02*
X2910D01*
X2764Y201D02*
X2937D01*
X2764Y299D02*
X2937D01*
Y201D02*
Y299D01*
X2764Y201D02*
Y299D01*
X2436Y306D02*
X2609D01*
X2436Y408D02*
X2609D01*
Y306D02*
Y408D01*
X2436Y306D02*
Y408D01*
X2465Y483D02*
Y557D01*
X2327Y483D02*
Y557D01*
Y483D02*
X2465D01*
X2327Y557D02*
X2465D01*
Y413D02*
Y487D01*
X2327Y413D02*
Y487D01*
Y413D02*
X2465D01*
X2327Y487D02*
X2465D01*
X1497Y289D02*
X1635D01*
X1497Y211D02*
X1635D01*
X1497D02*
Y289D01*
X1635Y211D02*
Y289D01*
X1558Y419D02*
X1633D01*
X1558Y281D02*
X1633D01*
Y419D01*
X1558Y281D02*
Y419D01*
X1488Y281D02*
X1563D01*
X1488Y419D02*
X1563D01*
X1488Y281D02*
Y419D01*
X1563Y281D02*
Y419D01*
X1705Y361D02*
Y499D01*
X1626Y361D02*
Y499D01*
X1705D01*
X1626Y361D02*
X1705D01*
X1625Y413D02*
Y487D01*
X1487Y413D02*
Y487D01*
Y413D02*
X1625D01*
X1487Y487D02*
X1625D01*
X1478Y691D02*
X1553D01*
X1478Y829D02*
X1553D01*
X1478Y691D02*
Y829D01*
X1553Y691D02*
Y829D01*
X1366Y635D02*
Y745D01*
X1425Y635D02*
Y745D01*
X1366Y635D02*
X1425D01*
X1366Y745D02*
X1425D01*
X1375Y463D02*
Y637D01*
X1477Y463D02*
Y637D01*
X1375Y463D02*
X1477D01*
X1375Y637D02*
X1477D01*
X1395Y473D02*
Y547D01*
X1257Y473D02*
Y547D01*
Y473D02*
X1395D01*
X1257Y547D02*
X1395D01*
Y553D02*
Y627D01*
X1257Y553D02*
Y627D01*
Y553D02*
X1395D01*
X1257Y627D02*
X1395D01*
X1427Y699D02*
X1565D01*
X1427Y621D02*
X1565D01*
X1427D02*
Y699D01*
X1565Y621D02*
Y699D01*
X1704Y605D02*
Y715D01*
X1767Y605D02*
Y715D01*
X1704Y605D02*
X1767D01*
X1704Y715D02*
X1767D01*
X1460Y621D02*
X1712D01*
X1460Y479D02*
X1712D01*
X1460D02*
Y621D01*
X1712Y479D02*
Y621D01*
X1547Y763D02*
Y837D01*
X1685Y763D02*
Y837D01*
X1547D02*
X1685D01*
X1547Y763D02*
X1685D01*
X407Y1533D02*
Y1667D01*
X565Y1533D02*
Y1667D01*
X407D02*
X565D01*
X407Y1533D02*
X565D01*
X568Y1575D02*
Y1685D01*
X631Y1575D02*
Y1685D01*
X568Y1575D02*
X631D01*
X568Y1685D02*
X631D01*
X625Y1533D02*
Y1707D01*
X727Y1533D02*
Y1707D01*
X625Y1533D02*
X727D01*
X625Y1707D02*
X727D01*
X292Y1724D02*
X403D01*
X292Y1787D02*
X403D01*
Y1724D02*
Y1787D01*
X292Y1724D02*
Y1787D01*
X251Y1886D02*
X424D01*
X251Y1784D02*
X424D01*
X251D02*
Y1886D01*
X424Y1784D02*
Y1886D01*
X566Y1415D02*
Y1525D01*
X625Y1415D02*
Y1525D01*
X566Y1415D02*
X625D01*
X566Y1525D02*
X625D01*
X485Y1405D02*
Y1515D01*
X426Y1405D02*
Y1515D01*
X485D01*
X426Y1405D02*
X485D01*
X427Y1706D02*
X538D01*
X427Y1765D02*
X538D01*
Y1706D02*
Y1765D01*
X427Y1706D02*
Y1765D01*
X637Y875D02*
Y985D01*
X574Y875D02*
Y985D01*
X637D01*
X574Y875D02*
X637D01*
X567D02*
Y985D01*
X504Y875D02*
Y985D01*
X567D01*
X504Y875D02*
X567D01*
X497D02*
Y985D01*
X434Y875D02*
Y985D01*
X497D01*
X434Y875D02*
X497D01*
X427D02*
Y985D01*
X364Y875D02*
Y985D01*
X427D01*
X364Y875D02*
X427D01*
X338Y1011D02*
X511D01*
X338Y1109D02*
X511D01*
Y1011D02*
Y1109D01*
X338Y1011D02*
Y1109D01*
X439Y1189D02*
X576D01*
X439Y1111D02*
X576D01*
X439D02*
Y1189D01*
X576Y1111D02*
Y1189D01*
X689Y1339D02*
X862D01*
X689Y1241D02*
X862D01*
X689D02*
Y1339D01*
X862Y1241D02*
Y1339D01*
X945Y1143D02*
Y1317D01*
X847Y1143D02*
Y1317D01*
X945D01*
X847Y1143D02*
X945D01*
X693Y1084D02*
X841D01*
X693Y896D02*
Y1084D01*
Y896D02*
X841D01*
Y1084D01*
X778Y1091D02*
X853D01*
X778Y1229D02*
X853D01*
X778Y1091D02*
Y1229D01*
X853Y1091D02*
Y1229D01*
X1006Y1063D02*
Y1137D01*
X869Y1063D02*
Y1137D01*
Y1063D02*
X1006D01*
X869Y1137D02*
X1006D01*
X779Y1130D02*
Y1240D01*
X716Y1130D02*
Y1240D01*
X779D01*
X716Y1130D02*
X779D01*
X992Y940D02*
X1103D01*
X992Y877D02*
X1103D01*
X992D02*
Y940D01*
X1103Y877D02*
Y940D01*
X992Y870D02*
X1103D01*
X992Y807D02*
X1103D01*
X992D02*
Y870D01*
X1103Y807D02*
Y870D01*
X1755Y2356D02*
Y2494D01*
X1680Y2356D02*
Y2494D01*
X1755D01*
X1680Y2356D02*
X1755D01*
X1472Y2142D02*
X1630D01*
X1472Y2008D02*
X1630D01*
X1472D02*
Y2142D01*
X1630Y2008D02*
Y2142D01*
X1375Y1950D02*
X1434D01*
X1375Y2061D02*
X1434D01*
X1375Y1950D02*
Y2061D01*
X1434Y1950D02*
Y2061D01*
X2190Y2815D02*
Y2874D01*
X2300Y2815D02*
Y2874D01*
X2190D02*
X2300D01*
X2190Y2815D02*
X2300D01*
X2221Y3289D02*
X2299D01*
X2221Y3427D02*
X2299D01*
X2221Y3289D02*
Y3427D01*
X2299Y3289D02*
Y3427D01*
X2303Y3289D02*
Y3427D01*
X2377Y3289D02*
Y3427D01*
X2303Y3289D02*
X2377D01*
X2303Y3427D02*
X2377D01*
X2717Y2976D02*
Y3114D01*
X2792Y2976D02*
Y3114D01*
X2717Y2976D02*
X2792D01*
X2717Y3114D02*
X2792D01*
X2797Y2976D02*
Y3114D01*
X2872Y2976D02*
Y3114D01*
X2797Y2976D02*
X2872D01*
X2797Y3114D02*
X2872D01*
X2573Y2795D02*
X2636D01*
X2573Y2905D02*
X2636D01*
X2573Y2795D02*
Y2905D01*
X2636Y2795D02*
Y2905D01*
X2176Y2886D02*
Y2964D01*
X2314Y2886D02*
Y2964D01*
X2176D02*
X2314D01*
X2176Y2886D02*
X2314D01*
X2722Y2898D02*
X2860D01*
X2722Y2972D02*
X2860D01*
Y2898D02*
Y2972D01*
X2722Y2898D02*
Y2972D01*
X1990Y2250D02*
X2053D01*
X1990Y2360D02*
X2053D01*
X1990Y2250D02*
Y2360D01*
X2053Y2250D02*
Y2360D01*
X2238Y3189D02*
X2376D01*
X2238Y3114D02*
X2376D01*
X2238D02*
Y3189D01*
X2376Y3114D02*
Y3189D01*
X2238Y3202D02*
Y3281D01*
X2376Y3202D02*
Y3281D01*
X2238D02*
X2376D01*
X2238Y3202D02*
X2376D01*
X2932Y2690D02*
X2991D01*
X2932Y2800D02*
X2991D01*
X2932Y2690D02*
Y2800D01*
X2991Y2690D02*
Y2800D01*
X2807Y2433D02*
X2965D01*
X2807Y2590D02*
X2965D01*
Y2433D02*
Y2590D01*
X2807Y2433D02*
Y2590D01*
X2636Y2470D02*
X2699D01*
X2636Y2580D02*
X2699D01*
X2636Y2470D02*
Y2580D01*
X2699Y2470D02*
Y2580D01*
X2485Y2470D02*
X2548D01*
X2485Y2580D02*
X2548D01*
X2485Y2470D02*
Y2580D01*
X2548Y2470D02*
Y2580D01*
X1678Y1855D02*
X1741D01*
X1678Y1966D02*
X1741D01*
X1678Y1855D02*
Y1966D01*
X1741Y1855D02*
Y1966D01*
X1773Y1992D02*
X1875D01*
X1773Y1819D02*
X1875D01*
Y1992D01*
X1773Y1819D02*
Y1992D01*
X1633Y2205D02*
X1692D01*
X1633Y2095D02*
X1692D01*
Y2205D01*
X1633Y2095D02*
Y2205D01*
X1183Y2212D02*
X1285D01*
X1183Y2039D02*
X1285D01*
Y2212D01*
X1183Y2039D02*
Y2212D01*
X1373Y2181D02*
X1436D01*
X1373Y2070D02*
X1436D01*
Y2181D01*
X1373Y2070D02*
Y2181D01*
X1465Y2271D02*
X1524D01*
X1465Y2160D02*
X1524D01*
Y2271D01*
X1465Y2160D02*
Y2271D01*
X1822Y2552D02*
X1960D01*
X1822Y2478D02*
X1960D01*
X1822D02*
Y2552D01*
X1960Y2478D02*
Y2552D01*
X1700Y2942D02*
X1802D01*
X1700Y2768D02*
X1802D01*
Y2942D01*
X1700Y2768D02*
Y2942D01*
X1472Y2888D02*
X1570D01*
X1472Y3062D02*
X1570D01*
X1472Y2888D02*
Y3062D01*
X1570Y2888D02*
Y3062D01*
X1382Y2368D02*
X1520D01*
X1382Y2442D02*
X1520D01*
Y2368D02*
Y2442D01*
X1382Y2368D02*
Y2442D01*
Y2448D02*
X1520D01*
X1382Y2522D02*
X1520D01*
Y2448D02*
Y2522D01*
X1382Y2448D02*
Y2522D01*
X1209Y2736D02*
Y2874D01*
X1284Y2736D02*
Y2874D01*
X1209Y2736D02*
X1284D01*
X1209Y2874D02*
X1284D01*
X1425Y2726D02*
Y2804D01*
X1287Y2726D02*
Y2804D01*
Y2726D02*
X1425D01*
X1287Y2804D02*
X1425D01*
X3037Y2504D02*
X3116D01*
X3037Y2366D02*
X3116D01*
Y2504D01*
X3037Y2366D02*
Y2504D01*
X2137Y2208D02*
X2235D01*
X2137Y2382D02*
X2235D01*
X2137Y2208D02*
Y2382D01*
X2235Y2208D02*
Y2382D01*
X2776Y2295D02*
Y2354D01*
X2666Y2295D02*
Y2354D01*
Y2295D02*
X2776D01*
X2666Y2354D02*
X2776D01*
X2560Y2470D02*
X2623D01*
X2560Y2580D02*
X2623D01*
X2560Y2470D02*
Y2580D01*
X2623Y2470D02*
Y2580D01*
X1371Y2663D02*
Y2726D01*
X1481Y2663D02*
Y2726D01*
X1371D02*
X1481D01*
X1371Y2663D02*
X1481D01*
X1385Y2526D02*
Y2624D01*
X1558Y2526D02*
Y2624D01*
X1385D02*
X1558D01*
X1385Y2526D02*
X1558D01*
X1723Y2589D02*
Y2739D01*
X1573Y2589D02*
Y2739D01*
Y2589D02*
X1723D01*
X1573Y2739D02*
X1723D01*
X2389Y3024D02*
X2641D01*
X2389Y3166D02*
X2641D01*
Y3024D02*
Y3166D01*
X2389Y3024D02*
Y3166D01*
X2648Y3194D02*
Y3296D01*
X2821Y3194D02*
Y3296D01*
X2648D02*
X2821D01*
X2648Y3194D02*
X2821D01*
X2449Y3168D02*
X2586D01*
X2449Y3242D02*
X2586D01*
Y3168D02*
Y3242D01*
X2449Y3168D02*
Y3242D01*
X3150Y2516D02*
Y2594D01*
X3012Y2516D02*
Y2594D01*
Y2516D02*
X3150D01*
X3012Y2594D02*
X3150D01*
X1994Y2476D02*
Y2614D01*
X2069Y2476D02*
Y2614D01*
X1994Y2476D02*
X2069D01*
X1994Y2614D02*
X2069D01*
X2070Y2250D02*
X2133D01*
X2070Y2360D02*
X2133D01*
X2070Y2250D02*
Y2360D01*
X2133Y2250D02*
Y2360D01*
X2789Y2304D02*
X2927D01*
X2789Y2230D02*
X2927D01*
X2789D02*
Y2304D01*
X2927Y2230D02*
Y2304D01*
X2576Y2948D02*
X2714D01*
X2576Y3022D02*
X2714D01*
Y2948D02*
Y3022D01*
X2576Y2948D02*
Y3022D01*
M02*
