%FSTAX23Y23*%
%MOIN*%
%SFA1B1*%

%IPPOS*%
%AMD36*
4,1,8,0.015500,0.031000,-0.015500,0.031000,-0.031000,0.015500,-0.031000,-0.015500,-0.015500,-0.031000,0.015500,-0.031000,0.031000,-0.015500,0.031000,0.015500,0.015500,0.031000,0.0*
%
%ADD10C,0.040000*%
%ADD25C,0.008000*%
%ADD26C,0.276000*%
%ADD27C,0.115000*%
%ADD28C,0.180000*%
%ADD29C,0.060000*%
%ADD30R,0.060000X0.060000*%
%ADD31C,0.070000*%
%ADD32R,0.070000X0.070000*%
%ADD33C,0.067000*%
%ADD34R,0.067000X0.067000*%
%ADD35C,0.187000*%
G04~CAMADD=36~4~0.0~0.0~620.0~620.0~0.0~155.0~0~0.0~0.0~0.0~0.0~0~0.0~0.0~0.0~0.0~0~0.0~0.0~0.0~0.0~620.0~620.0*
%ADD36D36*%
%ADD37C,0.062000*%
%ADD38C,0.047000*%
%ADD39C,0.018000*%
%LNit-1_spacesystems_cdh_subsystemscan-1*%
%LPD*%
G54D10*
X0404Y0655D03*
X041D03*
Y0649D03*
X0404D03*
X0398D03*
Y0655D03*
G54D25*
X0363Y0467D02*
X0484D01*
X03604Y04644D02*
X0363Y0467D01*
X03571Y04644D02*
X03604D01*
X03545Y0467D02*
X03571Y04644D01*
X03385Y0467D02*
X03545D01*
X0338Y04665D02*
X03385Y0467D01*
X0338Y04615D02*
Y04665D01*
X04988Y04385D02*
X0503Y04427D01*
X0498Y04511D02*
X0503Y04462D01*
X04971Y04511D02*
X0498D01*
X04988Y04335D02*
Y04385D01*
X0503Y04427D02*
Y04462D01*
X04946Y04536D02*
X04971Y04511D01*
X04946Y04536D02*
Y04564D01*
X0484Y0467D02*
X04946Y04564D01*
X03585Y04665D02*
Y05055D01*
X0487Y04672D02*
Y04685D01*
Y04672D02*
X04988Y04554D01*
X02851Y04615D02*
X03073D01*
X0285Y04614D02*
X02851Y04615D01*
X03883Y06273D02*
X041Y0649D01*
X03415Y06273D02*
X03883D01*
X0286Y05274D02*
X03471Y05885D01*
Y06114*
X03415Y0617D02*
X03471Y06114D01*
X03192Y05186D02*
Y05206D01*
X02607D02*
X03192D01*
X02566Y05165D02*
X02607Y05206D01*
X02525Y05165D02*
X02566D01*
X02425Y05365D02*
X02478Y05418D01*
X029*
X024Y05513D02*
X0272D01*
X02976Y05769*
X03183*
X03214Y05471D02*
X03416Y05269D01*
Y05243D02*
Y05269D01*
X03408Y05235D02*
X03416Y05243D01*
X02589Y05235D02*
X03408D01*
X02572Y05218D02*
X02589Y05235D01*
X02396Y05218D02*
X02572D01*
X02378Y052D02*
X02396Y05218D01*
X02378Y05112D02*
Y052D01*
Y05112D02*
X02425Y05065D01*
X02525Y04965D02*
X03104D01*
X03342Y05203*
X0344*
X03448Y05211*
Y05629*
X03381Y05696D02*
X03448Y05629D01*
X03317Y05696D02*
X03381D01*
X03277Y05656D02*
X03317Y05696D01*
X02525Y06165D02*
X02557Y06133D01*
X03276*
X03309Y061*
X03149Y06434D02*
X0325Y06535D01*
X02494Y06434D02*
X03149D01*
X02425Y06365D02*
X02494Y06434D01*
X03084Y06469D02*
X0315Y06535D01*
X02435Y06469D02*
X03084D01*
X02378Y06412D02*
X02435Y06469D01*
X02378Y06312D02*
Y06412D01*
Y06312D02*
X02425Y06265D01*
X02525Y06065D02*
X03272D01*
X0334Y05997*
X03151Y05625D02*
Y0566D01*
X02844Y05318D02*
X03151Y05625D01*
X02478Y05318D02*
X02844D01*
X02425Y05265D02*
X02478Y05318D01*
X0334Y0566D02*
X03432Y05568D01*
Y05227D02*
Y05568D01*
X03424Y05219D02*
X03432Y05227D01*
X03225Y05219D02*
X03424D01*
X03192Y05186D02*
X03225Y05219D01*
X0334Y05311D02*
X03395Y05256D01*
X03146Y05311D02*
X0334D01*
X03115Y0528D02*
X03146Y05311D01*
X02525Y05265D02*
X02574D01*
X02588Y05251*
X03239*
X03268Y0528*
X03009Y0505D02*
X0314Y05181D01*
X02892Y0505D02*
X03009D01*
X02525Y05465D02*
X02695D01*
X02943Y05713*
X03251*
X03294Y05756*
Y05814*
X03244Y05864D02*
X03294Y05814D01*
X0301Y05864D02*
X03244D01*
X02876Y05731D02*
X0301Y05864D01*
X02591Y05731D02*
X02876D01*
X02525Y05665D02*
X02591Y05731D01*
X02362Y05028D02*
X02425Y04965D01*
X02362Y05028D02*
Y0558D01*
X024Y05618*
X02791*
X02985Y05812*
X03215*
X03246Y05781*
X02525Y05865D02*
X02562Y05902D01*
X03393*
X0345Y05959*
X02478Y05812D02*
X02525Y05765D01*
X02478Y05812D02*
Y059D01*
X02496Y05918*
X03336*
X03345Y05927*
X02425Y06165D02*
X02478Y06112D01*
X03108*
X0312Y061*
X02525Y06365D02*
X03246D01*
X02525Y05965D02*
X03425D01*
X0345Y0599*
X02525Y06265D02*
X03277D01*
X03098Y05005D02*
X03217Y05124D01*
X02585Y05005D02*
X03098D01*
X02525Y05065D02*
X02585Y05005D01*
X04903Y06014D02*
X05082D01*
X04869Y06048D02*
X04903Y06014D01*
X04869Y06048D02*
Y06513D01*
X04832Y0655D02*
X04869Y06513D01*
X041Y0655D02*
X04832D01*
X0333Y05149D02*
X03433D01*
X03487Y05203*
Y06144*
X03427Y06204D02*
X03487Y06144D01*
X03093Y06204D02*
X03427D01*
X02988Y06012D02*
X0301Y0599D01*
X02478Y06012D02*
X02988D01*
X02425Y06065D02*
X02478Y06012D01*
X03214Y0617D02*
X03415D01*
X0314Y04613D02*
Y0496D01*
Y04613D02*
X03188Y04565D01*
Y04854D02*
X03507Y05173D01*
X03188Y04665D02*
Y04854D01*
X04608Y05905D02*
X05082D01*
X04561Y05952D02*
X04608Y05905D01*
X04561Y05952D02*
Y06318D01*
X0394Y0659D02*
X0398Y0655D01*
X0305Y06535D02*
Y0655D01*
X0309Y0659*
X0394*
X029Y05418D02*
X0312Y05638D01*
Y05655*
X03507Y05173D02*
X03768D01*
G54D26*
X023Y0331D03*
Y06637D03*
X05637Y033D03*
Y06637D03*
G54D27*
X02875Y0373D03*
X0269Y03612D03*
Y03848D03*
G54D28*
X05044Y05045D03*
Y04062D03*
G54D29*
X04988Y04335D03*
Y04444D03*
Y04554D03*
Y04662D03*
X051Y04391D03*
Y04499D03*
Y04609D03*
Y04718D03*
G54D30*
X04988Y04772D03*
G54D31*
X02525Y04965D03*
Y05065D03*
Y05165D03*
Y05265D03*
Y05365D03*
Y05465D03*
Y05565D03*
Y05665D03*
Y05765D03*
Y05865D03*
Y05965D03*
Y06065D03*
Y06165D03*
Y06265D03*
Y06365D03*
X02425Y04965D03*
Y05065D03*
Y05165D03*
Y05265D03*
Y05365D03*
Y05465D03*
Y05565D03*
Y05665D03*
Y05765D03*
Y05865D03*
Y05965D03*
Y06065D03*
Y06165D03*
Y06265D03*
G54D32*
X02425Y06365D03*
G54D33*
X0497Y05632D03*
X05082Y05686D03*
X0497Y05741D03*
X05082Y05795D03*
X0497Y0585D03*
X05082Y05905D03*
X0497Y05959D03*
X05082Y06014D03*
G54D34*
X0497Y06068D03*
G54D35*
X05026Y06342D03*
Y05358D03*
G54D36*
X0305Y06535D03*
G54D37*
X0315Y06535D03*
X0325D03*
X0335D03*
X0345D03*
X0355D03*
G54D38*
X047Y0625D03*
Y0645D03*
G54D39*
X03585Y04665D03*
X0487Y04685D03*
X03073Y04615D03*
X0285Y04614D03*
X03585Y05055D03*
X03415Y06273D03*
X0286Y05274D03*
X03415Y0617D03*
X024Y05513D03*
X03183Y05769D03*
X03214Y05471D03*
X03277Y05656D03*
X03309Y061D03*
X0334Y05997D03*
X03151Y0566D03*
X0334D03*
X03192Y05186D03*
X03395Y05256D03*
X03115Y0528D03*
X03268D03*
X0314Y05181D03*
X02892Y0505D03*
X0301Y05864D03*
X03246Y05781D03*
X0345Y05959D03*
X03345Y05927D03*
X0312Y061D03*
X03246Y06365D03*
X0345Y0599D03*
X03277Y06265D03*
X03217Y05124D03*
X0333Y05149D03*
X03093Y06204D03*
X0301Y0599D03*
X03214Y0617D03*
X0314Y0496D03*
X03188Y04565D03*
Y04665D03*
X0338Y04615D03*
X04561Y06318D03*
X0312Y05655D03*
X03768Y05173D03*
M02*