%FSLAX44Y44*%
%MOMM*%
G71*
G01*
G75*
G04 Layer_Color=8388736*
%ADD10R,1.2000X1.3500*%
%ADD11R,1.4000X2.0000*%
%ADD12R,1.3500X1.2000*%
%ADD13R,2.0000X1.4000*%
%ADD14R,0.7000X0.8000*%
%ADD15R,0.8000X0.7000*%
%ADD16R,2.8000X1.3500*%
%ADD17R,1.3000X0.8000*%
%ADD18R,5.3500X8.5400*%
%ADD19R,0.8900X3.0600*%
%ADD20O,0.3500X2.2000*%
%ADD21O,0.3500X1.5500*%
%ADD22R,1.3500X2.8000*%
%ADD23O,0.6000X2.2000*%
%ADD24O,2.1000X0.4500*%
%ADD25O,0.6000X1.8000*%
%ADD26R,7.4000X5.0000*%
%ADD27C,1.0160*%
%ADD28C,0.1524*%
%ADD29C,0.7620*%
%ADD30C,0.2540*%
%ADD31C,0.5080*%
%ADD32C,0.6350*%
%ADD33C,0.2032*%
%ADD34C,0.3048*%
%ADD35R,177.7702X1.3208*%
%ADD36C,2.0000*%
G04:AMPARAMS|DCode=37|XSize=2mm|YSize=2mm|CornerRadius=0.5mm|HoleSize=0mm|Usage=FLASHONLY|Rotation=180.000|XOffset=0mm|YOffset=0mm|HoleType=Round|Shape=RoundedRectangle|*
%AMROUNDEDRECTD37*
21,1,2.0000,1.0000,0,0,180.0*
21,1,1.0000,2.0000,0,0,180.0*
1,1,1.0000,-0.5000,0.5000*
1,1,1.0000,0.5000,0.5000*
1,1,1.0000,0.5000,-0.5000*
1,1,1.0000,-0.5000,-0.5000*
%
%ADD37ROUNDEDRECTD37*%
%ADD38C,7.0000*%
%ADD39C,6.0000*%
%ADD40C,0.7000*%
%ADD41C,1.2700*%
%ADD42C,0.6600*%
%ADD43C,2.0160*%
%ADD44C,3.4160*%
%ADD45C,4.5160*%
%ADD46C,4.1160*%
G04:AMPARAMS|DCode=47|XSize=1.824mm|YSize=1.824mm|CornerRadius=0mm|HoleSize=0mm|Usage=FLASHONLY|Rotation=0.000|XOffset=0mm|YOffset=0mm|HoleType=Round|Shape=Relief|Width=0.254mm|Gap=0.254mm|Entries=4|*
%AMTHD47*
7,0,0,1.8240,1.3160,0.2540,45*
%
%ADD47THD47*%
%ADD48C,1.3160*%
%ADD49C,1.7272*%
%ADD50C,1.3460*%
G04:AMPARAMS|DCode=51|XSize=2.524mm|YSize=2.524mm|CornerRadius=0mm|HoleSize=0mm|Usage=FLASHONLY|Rotation=0.000|XOffset=0mm|YOffset=0mm|HoleType=Round|Shape=Relief|Width=0.254mm|Gap=0.254mm|Entries=4|*
%AMTHD51*
7,0,0,2.5240,2.0160,0.2540,45*
%
%ADD51THD51*%
G04:AMPARAMS|DCode=52|XSize=2.2352mm|YSize=2.2352mm|CornerRadius=0mm|HoleSize=0mm|Usage=FLASHONLY|Rotation=0.000|XOffset=0mm|YOffset=0mm|HoleType=Round|Shape=Relief|Width=0.254mm|Gap=0.254mm|Entries=4|*
%AMTHD52*
7,0,0,2.2352,1.7272,0.2540,45*
%
%ADD52THD52*%
%ADD53C,2.5400*%
%ADD54C,0.3000*%
%ADD55C,0.2000*%
%ADD56C,0.2500*%
%ADD57C,0.6000*%
%ADD58C,0.4000*%
%ADD59C,0.1270*%
%ADD60R,1.4732X3.1750*%
%ADD61R,1.2508X1.4008*%
%ADD62R,1.4508X2.0508*%
%ADD63R,1.4008X1.2508*%
%ADD64R,2.0508X1.4508*%
%ADD65R,0.7508X0.8508*%
%ADD66R,0.8508X0.7508*%
%ADD67R,2.8508X1.4008*%
%ADD68R,1.3508X0.8508*%
%ADD69R,5.4008X8.5908*%
%ADD70R,0.9408X3.1108*%
%ADD71O,0.4008X2.2508*%
%ADD72O,0.4008X1.6008*%
%ADD73R,1.4008X2.8508*%
%ADD74O,0.6508X2.2508*%
%ADD75O,2.1508X0.5008*%
%ADD76O,0.6508X1.8508*%
%ADD77R,7.4508X5.0508*%
%ADD78C,2.0508*%
G04:AMPARAMS|DCode=79|XSize=2.0508mm|YSize=2.0508mm|CornerRadius=0.5254mm|HoleSize=0mm|Usage=FLASHONLY|Rotation=180.000|XOffset=0mm|YOffset=0mm|HoleType=Round|Shape=RoundedRectangle|*
%AMROUNDEDRECTD79*
21,1,2.0508,1.0000,0,0,180.0*
21,1,1.0000,2.0508,0,0,180.0*
1,1,1.0508,-0.5000,0.5000*
1,1,1.0508,0.5000,0.5000*
1,1,1.0508,0.5000,-0.5000*
1,1,1.0508,-0.5000,-0.5000*
%
%ADD79ROUNDEDRECTD79*%
%ADD80C,0.0508*%
%ADD81C,7.0508*%
%ADD82C,6.0508*%
D60*
X-157156Y-235810D02*
D03*
X-182557Y-235795D02*
D03*
X-207957Y-235797D02*
D03*
X325249Y-223403D02*
D03*
X299851Y-223399D02*
D03*
X272411Y-222912D02*
D03*
X-586922Y-241296D02*
D03*
X-561528Y-241301D02*
D03*
X-536122Y-241296D02*
D03*
D61*
X-155500Y-165000D02*
D03*
X-174500D02*
D03*
X-155500Y-125000D02*
D03*
X-174500D02*
D03*
X-155500Y-95000D02*
D03*
X-174500D02*
D03*
X-155500Y-75000D02*
D03*
X-174500D02*
D03*
X-155500Y-35000D02*
D03*
X-174500D02*
D03*
X-695500Y-130000D02*
D03*
X-714500D02*
D03*
X-660500D02*
D03*
X-679500D02*
D03*
X-625500D02*
D03*
X-644500D02*
D03*
X-590500D02*
D03*
X-609500D02*
D03*
X-730500D02*
D03*
X-749500D02*
D03*
X-548000Y-45000D02*
D03*
X-567000D02*
D03*
X-507000Y-155000D02*
D03*
X-488000D02*
D03*
X57180Y-236920D02*
D03*
X38180D02*
D03*
X57180Y-262320D02*
D03*
X38180D02*
D03*
X776560Y-581950D02*
D03*
X757560D02*
D03*
X776560Y-556550D02*
D03*
X757560D02*
D03*
X808360Y-607350D02*
D03*
X827360D02*
D03*
X812120Y-486700D02*
D03*
X793120D02*
D03*
X601300Y-556550D02*
D03*
X582300D02*
D03*
X601300Y-581950D02*
D03*
X582300D02*
D03*
X633100Y-607350D02*
D03*
X652100D02*
D03*
X691520Y-486700D02*
D03*
X710520D02*
D03*
X757560Y-607350D02*
D03*
X776560D02*
D03*
X849000Y-715300D02*
D03*
X868000D02*
D03*
X849000Y-689900D02*
D03*
X868000D02*
D03*
X582300Y-607350D02*
D03*
X601300D02*
D03*
X673740Y-689900D02*
D03*
X692740D02*
D03*
X673740Y-715300D02*
D03*
X692740D02*
D03*
X-521540Y-429440D02*
D03*
X-502540D02*
D03*
X-521540Y-409120D02*
D03*
X-502540D02*
D03*
X-521540Y-368480D02*
D03*
X-502540D02*
D03*
X-521540Y-388800D02*
D03*
X-502540D02*
D03*
X-639081Y-582350D02*
D03*
X-620080D02*
D03*
X-290180Y-581860D02*
D03*
X-271180D02*
D03*
X59419Y-581080D02*
D03*
X78419D02*
D03*
X408730Y-581570D02*
D03*
X427729D02*
D03*
X-639081Y-556950D02*
D03*
X-620080D02*
D03*
X-290180Y-556460D02*
D03*
X-271180D02*
D03*
X59419Y-555680D02*
D03*
X78419D02*
D03*
X408730Y-556170D02*
D03*
X427729D02*
D03*
X-569280Y-607750D02*
D03*
X-588280D02*
D03*
X-220380Y-607260D02*
D03*
X-239380D02*
D03*
X129220Y-606480D02*
D03*
X110220D02*
D03*
X478530Y-606970D02*
D03*
X459530D02*
D03*
X-750841Y-499800D02*
D03*
X-731841D02*
D03*
X-274570Y-499800D02*
D03*
X-255570D02*
D03*
X100059Y-485830D02*
D03*
X119059D02*
D03*
X563670Y-486320D02*
D03*
X582669D02*
D03*
X-814341Y-556950D02*
D03*
X-795340D02*
D03*
X-465440Y-556460D02*
D03*
X-446440D02*
D03*
X-115841Y-555680D02*
D03*
X-96840D02*
D03*
X233470Y-556170D02*
D03*
X252470D02*
D03*
X-814341Y-582350D02*
D03*
X-795340D02*
D03*
X-465440Y-581860D02*
D03*
X-446440D02*
D03*
X-115841Y-581080D02*
D03*
X-96840D02*
D03*
X233470Y-581570D02*
D03*
X252470D02*
D03*
X-744540Y-607750D02*
D03*
X-763540D02*
D03*
X-395640Y-607260D02*
D03*
X-414640D02*
D03*
X-46040Y-606480D02*
D03*
X-65040D02*
D03*
X303270Y-606970D02*
D03*
X284270D02*
D03*
X-833440Y-499800D02*
D03*
X-852440D02*
D03*
X-357170Y-499800D02*
D03*
X-376170D02*
D03*
X17460Y-485830D02*
D03*
X-1540D02*
D03*
X481070Y-486320D02*
D03*
X462070D02*
D03*
X-620080Y-607750D02*
D03*
X-639080D02*
D03*
X-271180Y-607260D02*
D03*
X-290180D02*
D03*
X78420Y-606480D02*
D03*
X59420D02*
D03*
X427730Y-606970D02*
D03*
X408730D02*
D03*
X-528640Y-715700D02*
D03*
X-547640D02*
D03*
X-179740Y-715210D02*
D03*
X-198740D02*
D03*
X169860Y-714430D02*
D03*
X150860D02*
D03*
X519170Y-714920D02*
D03*
X500170D02*
D03*
X-528640Y-690300D02*
D03*
X-547640D02*
D03*
X-179740Y-689810D02*
D03*
X-198740D02*
D03*
X169860Y-689030D02*
D03*
X150860D02*
D03*
X519170Y-689520D02*
D03*
X500170D02*
D03*
X-795340Y-607750D02*
D03*
X-814340D02*
D03*
X-446440Y-607260D02*
D03*
X-465440D02*
D03*
X-96840Y-606480D02*
D03*
X-115840D02*
D03*
X252470Y-606970D02*
D03*
X233470D02*
D03*
X-703900Y-690300D02*
D03*
X-722900D02*
D03*
X-355000Y-689810D02*
D03*
X-374000D02*
D03*
X-5400Y-689030D02*
D03*
X-24400D02*
D03*
X343910Y-689520D02*
D03*
X324910D02*
D03*
X-703900Y-715700D02*
D03*
X-722900D02*
D03*
X-355000Y-715210D02*
D03*
X-374000D02*
D03*
X-5400Y-714430D02*
D03*
X-24400D02*
D03*
X343910Y-714920D02*
D03*
X324910D02*
D03*
X-521540Y-510720D02*
D03*
X-502540D02*
D03*
X-521540Y-490400D02*
D03*
X-502540D02*
D03*
X-521540Y-470080D02*
D03*
X-502540D02*
D03*
X-521540Y-449760D02*
D03*
X-502540D02*
D03*
D62*
X-132000Y-160000D02*
D03*
X-98000D02*
D03*
X-242000D02*
D03*
X-208000D02*
D03*
X-132000Y-130000D02*
D03*
X-98000D02*
D03*
X-132000Y-100000D02*
D03*
X-98000D02*
D03*
X-132000Y-70000D02*
D03*
X-98000D02*
D03*
X-132000Y-40000D02*
D03*
X-98000D02*
D03*
X-337000Y-150000D02*
D03*
X-303000D02*
D03*
X-507000Y-130000D02*
D03*
X-473000D02*
D03*
D63*
X-265000Y-159500D02*
D03*
Y-140500D02*
D03*
X-335000Y-119500D02*
D03*
Y-100500D02*
D03*
X-380000Y-119500D02*
D03*
Y-100500D02*
D03*
X-36490Y-482630D02*
D03*
Y-463630D02*
D03*
X-217180Y-572310D02*
D03*
Y-553310D02*
D03*
X789920Y-312760D02*
D03*
Y-331760D02*
D03*
X713720Y-312100D02*
D03*
Y-331100D02*
D03*
X805160Y-572400D02*
D03*
Y-553400D02*
D03*
X830560Y-553400D02*
D03*
Y-572400D02*
D03*
X728960Y-553400D02*
D03*
Y-572400D02*
D03*
X847070Y-483500D02*
D03*
Y-464500D02*
D03*
X768710Y-502950D02*
D03*
Y-483950D02*
D03*
X629900Y-572400D02*
D03*
Y-553400D02*
D03*
X655300Y-553400D02*
D03*
Y-572400D02*
D03*
X553700Y-553400D02*
D03*
Y-572400D02*
D03*
X735690Y-502950D02*
D03*
Y-483950D02*
D03*
X656570Y-483500D02*
D03*
Y-464500D02*
D03*
X857230Y-642300D02*
D03*
Y-661300D02*
D03*
X678160Y-661300D02*
D03*
Y-642300D02*
D03*
X703560Y-553400D02*
D03*
Y-572400D02*
D03*
X815320Y-439100D02*
D03*
Y-458100D02*
D03*
X764520Y-312100D02*
D03*
Y-331100D02*
D03*
X528300Y-553400D02*
D03*
Y-572400D02*
D03*
X739120Y-312100D02*
D03*
Y-331100D02*
D03*
X815320Y-413650D02*
D03*
Y-394650D02*
D03*
X688320Y-458100D02*
D03*
Y-439100D02*
D03*
X-754040Y-325860D02*
D03*
Y-344860D02*
D03*
X-277770Y-325860D02*
D03*
Y-344860D02*
D03*
X96860Y-311890D02*
D03*
Y-330890D02*
D03*
X560470Y-312380D02*
D03*
Y-331380D02*
D03*
X-830220Y-325200D02*
D03*
Y-344200D02*
D03*
X-353970Y-325200D02*
D03*
Y-344200D02*
D03*
X20660Y-311230D02*
D03*
Y-330230D02*
D03*
X484270Y-311720D02*
D03*
Y-330720D02*
D03*
X-591480Y-553800D02*
D03*
Y-572800D02*
D03*
X-242580Y-553310D02*
D03*
Y-572310D02*
D03*
X107020Y-552530D02*
D03*
Y-571530D02*
D03*
X456330Y-553020D02*
D03*
Y-572020D02*
D03*
X-566080Y-572800D02*
D03*
Y-553800D02*
D03*
X132420Y-571530D02*
D03*
Y-552530D02*
D03*
X481730Y-572020D02*
D03*
Y-553020D02*
D03*
X-667680Y-572800D02*
D03*
Y-553800D02*
D03*
X-318780Y-572310D02*
D03*
Y-553310D02*
D03*
X30820Y-571530D02*
D03*
Y-552530D02*
D03*
X380130Y-572020D02*
D03*
Y-553020D02*
D03*
X-696890Y-477600D02*
D03*
Y-496600D02*
D03*
X-220620Y-477600D02*
D03*
Y-496600D02*
D03*
X154010Y-463630D02*
D03*
Y-482630D02*
D03*
X617620Y-464120D02*
D03*
Y-483120D02*
D03*
X-775250Y-497050D02*
D03*
Y-516050D02*
D03*
X-298980Y-497050D02*
D03*
Y-516050D02*
D03*
X75650Y-483080D02*
D03*
Y-502080D02*
D03*
X538880Y-486440D02*
D03*
Y-467440D02*
D03*
X-766740Y-553800D02*
D03*
Y-572800D02*
D03*
X-417840Y-553310D02*
D03*
Y-572310D02*
D03*
X-68240Y-552530D02*
D03*
Y-571530D02*
D03*
X281070Y-553020D02*
D03*
Y-572020D02*
D03*
X-741340Y-572800D02*
D03*
Y-553800D02*
D03*
X-392440Y-572310D02*
D03*
Y-553310D02*
D03*
X-42840Y-571530D02*
D03*
Y-552530D02*
D03*
X306470Y-572020D02*
D03*
Y-553020D02*
D03*
X-842940Y-572800D02*
D03*
Y-553800D02*
D03*
X-494040Y-572310D02*
D03*
Y-553310D02*
D03*
X-144440Y-571530D02*
D03*
Y-552530D02*
D03*
X204870Y-572020D02*
D03*
Y-553020D02*
D03*
X-808270Y-497050D02*
D03*
Y-516050D02*
D03*
X-332000Y-497050D02*
D03*
Y-516050D02*
D03*
X42630Y-483080D02*
D03*
Y-502080D02*
D03*
X503280Y-486440D02*
D03*
Y-467440D02*
D03*
X-887390Y-477600D02*
D03*
Y-496600D02*
D03*
X-411120Y-477600D02*
D03*
Y-496600D02*
D03*
X427120Y-464120D02*
D03*
Y-483120D02*
D03*
X-539410Y-642700D02*
D03*
Y-661700D02*
D03*
X-190510Y-642210D02*
D03*
Y-661210D02*
D03*
X159090Y-641430D02*
D03*
Y-660430D02*
D03*
X508400Y-641920D02*
D03*
Y-660920D02*
D03*
X-718480Y-642700D02*
D03*
Y-661700D02*
D03*
X-369580Y-642210D02*
D03*
Y-661210D02*
D03*
X-19980Y-641430D02*
D03*
Y-660430D02*
D03*
X329330Y-641920D02*
D03*
Y-660920D02*
D03*
X-26900Y-234520D02*
D03*
Y-253520D02*
D03*
X454200Y-226380D02*
D03*
Y-245380D02*
D03*
X-693080Y-572800D02*
D03*
Y-553800D02*
D03*
X-344180Y-572310D02*
D03*
Y-553310D02*
D03*
X5420Y-571530D02*
D03*
Y-552530D02*
D03*
X354730Y-572020D02*
D03*
Y-553020D02*
D03*
X-728640Y-471200D02*
D03*
Y-452200D02*
D03*
X-252370Y-471200D02*
D03*
Y-452200D02*
D03*
X122260Y-457230D02*
D03*
Y-438230D02*
D03*
X585870Y-457720D02*
D03*
Y-438720D02*
D03*
X-779440Y-344200D02*
D03*
Y-325200D02*
D03*
X-303170Y-344200D02*
D03*
Y-325200D02*
D03*
X71460Y-330230D02*
D03*
Y-311230D02*
D03*
X535070Y-330720D02*
D03*
Y-311720D02*
D03*
X-868340Y-572800D02*
D03*
Y-553800D02*
D03*
X-519440Y-572310D02*
D03*
Y-553310D02*
D03*
X-169840Y-571530D02*
D03*
Y-552530D02*
D03*
X179470Y-572020D02*
D03*
Y-553020D02*
D03*
X-804840Y-344200D02*
D03*
Y-325200D02*
D03*
X-328570Y-344200D02*
D03*
Y-325200D02*
D03*
X46060Y-330230D02*
D03*
Y-311230D02*
D03*
X509670Y-330720D02*
D03*
Y-311720D02*
D03*
X-728640Y-407750D02*
D03*
Y-426750D02*
D03*
X-252370Y-407750D02*
D03*
Y-426750D02*
D03*
X122260Y-393780D02*
D03*
Y-412780D02*
D03*
X585870Y-394270D02*
D03*
Y-413270D02*
D03*
X-855640Y-452200D02*
D03*
Y-471200D02*
D03*
X-379370Y-452200D02*
D03*
Y-471200D02*
D03*
X-4740Y-438230D02*
D03*
Y-457230D02*
D03*
X458870Y-438720D02*
D03*
Y-457720D02*
D03*
X-406582Y-246821D02*
D03*
Y-265821D02*
D03*
D64*
X-695000Y-153000D02*
D03*
Y-187000D02*
D03*
X-660000Y-153000D02*
D03*
Y-187000D02*
D03*
X-625000Y-153000D02*
D03*
Y-187000D02*
D03*
X-730000Y-153000D02*
D03*
Y-187000D02*
D03*
X-375000Y-143000D02*
D03*
Y-177000D02*
D03*
X-552500Y-68000D02*
D03*
Y-102000D02*
D03*
X-590000Y-153000D02*
D03*
Y-187000D02*
D03*
D65*
X-352500Y-265500D02*
D03*
Y-254500D02*
D03*
X-340000Y-265500D02*
D03*
Y-254500D02*
D03*
X-327500Y-265500D02*
D03*
Y-254500D02*
D03*
X-315000Y-254500D02*
D03*
Y-265500D02*
D03*
X-352500Y-209500D02*
D03*
Y-220500D02*
D03*
X-340000Y-209500D02*
D03*
Y-220500D02*
D03*
X-327500Y-209500D02*
D03*
Y-220500D02*
D03*
X-315000Y-220500D02*
D03*
Y-209500D02*
D03*
X452780Y-205420D02*
D03*
Y-194420D02*
D03*
X-406582Y-212721D02*
D03*
Y-223721D02*
D03*
D66*
X6620Y-249620D02*
D03*
X17620D02*
D03*
X6620Y-264860D02*
D03*
X17620D02*
D03*
X-17500Y-208000D02*
D03*
X-28500D02*
D03*
X332680Y-469320D02*
D03*
X343680D02*
D03*
X369080D02*
D03*
X358080D02*
D03*
X218380D02*
D03*
X229380D02*
D03*
X254780D02*
D03*
X243780D02*
D03*
X394480D02*
D03*
X383480D02*
D03*
X280180D02*
D03*
X269180D02*
D03*
X-134680Y-479480D02*
D03*
X-123680D02*
D03*
X-98280D02*
D03*
X-109280D02*
D03*
X-624220Y-475160D02*
D03*
X-613220D02*
D03*
X-587820D02*
D03*
X-598820D02*
D03*
X-72880Y-479480D02*
D03*
X-83880D02*
D03*
X-562420Y-475160D02*
D03*
X-573420D02*
D03*
D67*
X-863240Y-641550D02*
D03*
Y-612050D02*
D03*
X709420Y-634800D02*
D03*
Y-605300D02*
D03*
X534650Y-629110D02*
D03*
Y-599610D02*
D03*
X-687220Y-635200D02*
D03*
Y-605700D02*
D03*
X-338320Y-634710D02*
D03*
Y-605210D02*
D03*
X11280Y-633930D02*
D03*
Y-604430D02*
D03*
X360590Y-634420D02*
D03*
Y-604920D02*
D03*
X-513090Y-629020D02*
D03*
Y-599520D02*
D03*
X-163490Y-628240D02*
D03*
Y-598740D02*
D03*
X185820Y-628730D02*
D03*
Y-599230D02*
D03*
D68*
X-157060Y-224728D02*
D03*
Y-235728D02*
D03*
Y-246728D02*
D03*
X-182460Y-224728D02*
D03*
Y-235728D02*
D03*
Y-246728D02*
D03*
X-207860Y-224728D02*
D03*
Y-235728D02*
D03*
Y-246728D02*
D03*
X325240Y-234356D02*
D03*
Y-223356D02*
D03*
Y-212356D02*
D03*
X299840Y-234356D02*
D03*
Y-223356D02*
D03*
Y-212356D02*
D03*
X272440Y-233868D02*
D03*
Y-222868D02*
D03*
Y-211868D02*
D03*
X-586922Y-252257D02*
D03*
Y-241257D02*
D03*
Y-230257D02*
D03*
X-561522Y-252257D02*
D03*
Y-241257D02*
D03*
Y-230257D02*
D03*
X-536122Y-252257D02*
D03*
Y-241257D02*
D03*
Y-230257D02*
D03*
D69*
X779760Y-721650D02*
D03*
X604500D02*
D03*
X-616880Y-722050D02*
D03*
X-267980Y-721560D02*
D03*
X81620Y-720780D02*
D03*
X430930Y-721270D02*
D03*
X-792140Y-722050D02*
D03*
X-443240Y-721560D02*
D03*
X-93640Y-720780D02*
D03*
X255670Y-721270D02*
D03*
D70*
X792460Y-648600D02*
D03*
X805160D02*
D03*
X817860D02*
D03*
X779760D02*
D03*
X767060D02*
D03*
X754360D02*
D03*
X741660D02*
D03*
X617200D02*
D03*
X629900D02*
D03*
X642600D02*
D03*
X604500D02*
D03*
X591800D02*
D03*
X579100D02*
D03*
X566400D02*
D03*
X-604180Y-649000D02*
D03*
X-591480D02*
D03*
X-578780D02*
D03*
X-616880D02*
D03*
X-629580D02*
D03*
X-642280D02*
D03*
X-654980D02*
D03*
X-255280Y-648510D02*
D03*
X-242580D02*
D03*
X-229880D02*
D03*
X-267980D02*
D03*
X-280680D02*
D03*
X-293380D02*
D03*
X-306080D02*
D03*
X94320Y-647730D02*
D03*
X107020D02*
D03*
X119720D02*
D03*
X81620D02*
D03*
X68920D02*
D03*
X56220D02*
D03*
X43520D02*
D03*
X443630Y-648220D02*
D03*
X456330D02*
D03*
X469030D02*
D03*
X430930D02*
D03*
X418230D02*
D03*
X405530D02*
D03*
X392830D02*
D03*
X-779440Y-649000D02*
D03*
X-766740D02*
D03*
X-754040D02*
D03*
X-792140D02*
D03*
X-804840D02*
D03*
X-817540D02*
D03*
X-830240D02*
D03*
X-430540Y-648510D02*
D03*
X-417840D02*
D03*
X-405140D02*
D03*
X-443240D02*
D03*
X-455940D02*
D03*
X-468640D02*
D03*
X-481340D02*
D03*
X-80940Y-647730D02*
D03*
X-68240D02*
D03*
X-55540D02*
D03*
X-93640D02*
D03*
X-106340D02*
D03*
X-119040D02*
D03*
X-131740D02*
D03*
X268370Y-648220D02*
D03*
X281070D02*
D03*
X293770D02*
D03*
X255670D02*
D03*
X242970D02*
D03*
X230270D02*
D03*
X217570D02*
D03*
D71*
X716895Y-428150D02*
D03*
X723245D02*
D03*
X729595D02*
D03*
X735945D02*
D03*
X742295D02*
D03*
X748645D02*
D03*
X754995D02*
D03*
X761345D02*
D03*
X767695D02*
D03*
X774045D02*
D03*
X780395D02*
D03*
X786745D02*
D03*
X716895Y-380150D02*
D03*
X723245D02*
D03*
X729595D02*
D03*
X735945D02*
D03*
X742295D02*
D03*
X748645D02*
D03*
X754995D02*
D03*
X761345D02*
D03*
X767695D02*
D03*
X774045D02*
D03*
X780395D02*
D03*
X786745D02*
D03*
X-757215Y-393250D02*
D03*
X-763565D02*
D03*
X-769915D02*
D03*
X-776265D02*
D03*
X-782615D02*
D03*
X-788965D02*
D03*
X-795315D02*
D03*
X-801665D02*
D03*
X-808015D02*
D03*
X-814365D02*
D03*
X-820715D02*
D03*
X-827065D02*
D03*
X-757215Y-441250D02*
D03*
X-763565D02*
D03*
X-769915D02*
D03*
X-776265D02*
D03*
X-782615D02*
D03*
X-788965D02*
D03*
X-795315D02*
D03*
X-801665D02*
D03*
X-808015D02*
D03*
X-814365D02*
D03*
X-820715D02*
D03*
X-827065D02*
D03*
X-280945Y-393250D02*
D03*
X-287295D02*
D03*
X-293645D02*
D03*
X-299995D02*
D03*
X-306345D02*
D03*
X-312695D02*
D03*
X-319045D02*
D03*
X-325395D02*
D03*
X-331745D02*
D03*
X-338095D02*
D03*
X-344445D02*
D03*
X-350795D02*
D03*
X-280945Y-441250D02*
D03*
X-287295D02*
D03*
X-293645D02*
D03*
X-299995D02*
D03*
X-306345D02*
D03*
X-312695D02*
D03*
X-319045D02*
D03*
X-325395D02*
D03*
X-331745D02*
D03*
X-338095D02*
D03*
X-344445D02*
D03*
X-350795D02*
D03*
X93685Y-379280D02*
D03*
X87335D02*
D03*
X80985D02*
D03*
X74635D02*
D03*
X68285D02*
D03*
X61935D02*
D03*
X55585D02*
D03*
X49235D02*
D03*
X42885D02*
D03*
X36535D02*
D03*
X30185D02*
D03*
X23835D02*
D03*
X93685Y-427280D02*
D03*
X87335D02*
D03*
X80985D02*
D03*
X74635D02*
D03*
X68285D02*
D03*
X61935D02*
D03*
X55585D02*
D03*
X49235D02*
D03*
X42885D02*
D03*
X36535D02*
D03*
X30185D02*
D03*
X23835D02*
D03*
X557295Y-379770D02*
D03*
X550945D02*
D03*
X544595D02*
D03*
X538245D02*
D03*
X531895D02*
D03*
X525545D02*
D03*
X519195D02*
D03*
X512845D02*
D03*
X506495D02*
D03*
X500145D02*
D03*
X493795D02*
D03*
X487445D02*
D03*
X557295Y-427770D02*
D03*
X550945D02*
D03*
X544595D02*
D03*
X538245D02*
D03*
X531895D02*
D03*
X525545D02*
D03*
X519195D02*
D03*
X512845D02*
D03*
X506495D02*
D03*
X500145D02*
D03*
X493795D02*
D03*
X487445D02*
D03*
D72*
X856820Y-375400D02*
D03*
X850320D02*
D03*
X843820D02*
D03*
X837320D02*
D03*
X856820Y-432900D02*
D03*
X850320D02*
D03*
X843820D02*
D03*
X837320D02*
D03*
X646820D02*
D03*
X653320D02*
D03*
X659820D02*
D03*
X666320D02*
D03*
X646820Y-375400D02*
D03*
X653320D02*
D03*
X659820D02*
D03*
X666320D02*
D03*
X-687140Y-388500D02*
D03*
X-693640D02*
D03*
X-700140D02*
D03*
X-706640D02*
D03*
X-687140Y-446000D02*
D03*
X-693640D02*
D03*
X-700140D02*
D03*
X-706640D02*
D03*
X-210870Y-388500D02*
D03*
X-217370D02*
D03*
X-223870D02*
D03*
X-230370D02*
D03*
X-210870Y-446000D02*
D03*
X-217370D02*
D03*
X-223870D02*
D03*
X-230370D02*
D03*
X163760Y-374530D02*
D03*
X157260D02*
D03*
X150760D02*
D03*
X144260D02*
D03*
X163760Y-432030D02*
D03*
X157260D02*
D03*
X150760D02*
D03*
X144260D02*
D03*
X627370Y-375020D02*
D03*
X620870D02*
D03*
X614370D02*
D03*
X607870D02*
D03*
X627370Y-432520D02*
D03*
X620870D02*
D03*
X614370D02*
D03*
X607870D02*
D03*
X-897140Y-446000D02*
D03*
X-890640D02*
D03*
X-884140D02*
D03*
X-877640D02*
D03*
X-897140Y-388500D02*
D03*
X-890640D02*
D03*
X-884140D02*
D03*
X-877640D02*
D03*
X-420870Y-446000D02*
D03*
X-414370D02*
D03*
X-407870D02*
D03*
X-401370D02*
D03*
X-420870Y-388500D02*
D03*
X-414370D02*
D03*
X-407870D02*
D03*
X-401370D02*
D03*
X-46240Y-432030D02*
D03*
X-39740D02*
D03*
X-33240D02*
D03*
X-26740D02*
D03*
X-46240Y-374530D02*
D03*
X-39740D02*
D03*
X-33240D02*
D03*
X-26740D02*
D03*
X417370Y-432520D02*
D03*
X423870D02*
D03*
X430370D02*
D03*
X436870D02*
D03*
X417370Y-375020D02*
D03*
X423870D02*
D03*
X430370D02*
D03*
X436870D02*
D03*
D73*
X879600Y-747050D02*
D03*
X850100D02*
D03*
X878330Y-790230D02*
D03*
X848830D02*
D03*
X703990Y-747050D02*
D03*
X674490D02*
D03*
X816190Y-339780D02*
D03*
X845690D02*
D03*
X-517040Y-747450D02*
D03*
X-546540D02*
D03*
X-168140Y-746960D02*
D03*
X-197640D02*
D03*
X181460Y-746180D02*
D03*
X151960D02*
D03*
X530770Y-746670D02*
D03*
X501270D02*
D03*
X-518310Y-790630D02*
D03*
X-547810D02*
D03*
X-169410Y-790140D02*
D03*
X-198910D02*
D03*
X180190Y-789360D02*
D03*
X150690D02*
D03*
X529500Y-789850D02*
D03*
X500000D02*
D03*
X-692650Y-747450D02*
D03*
X-722150D02*
D03*
X-343750Y-746960D02*
D03*
X-373250D02*
D03*
X5850Y-746180D02*
D03*
X-23650D02*
D03*
X355160Y-746670D02*
D03*
X325660D02*
D03*
X-725590Y-344860D02*
D03*
X-696090D02*
D03*
X-250610D02*
D03*
X-221110D02*
D03*
X125310Y-332160D02*
D03*
X154810D02*
D03*
X587590Y-339780D02*
D03*
X617090D02*
D03*
D74*
X693520Y-264720D02*
D03*
X706220D02*
D03*
X718920D02*
D03*
X731620D02*
D03*
X693520Y-216720D02*
D03*
X706220D02*
D03*
X718920D02*
D03*
X731620D02*
D03*
X570970Y-266030D02*
D03*
X583670D02*
D03*
X596370D02*
D03*
X609070D02*
D03*
X570970Y-218030D02*
D03*
X583670D02*
D03*
X596370D02*
D03*
X609070D02*
D03*
D75*
X-59060Y-300750D02*
D03*
Y-294250D02*
D03*
Y-287750D02*
D03*
Y-281250D02*
D03*
Y-274750D02*
D03*
Y-268250D02*
D03*
Y-261750D02*
D03*
Y-255250D02*
D03*
Y-248750D02*
D03*
Y-242250D02*
D03*
Y-235750D02*
D03*
Y-229250D02*
D03*
Y-222750D02*
D03*
Y-216250D02*
D03*
X-128060Y-300750D02*
D03*
Y-294250D02*
D03*
Y-287750D02*
D03*
Y-281250D02*
D03*
Y-274750D02*
D03*
Y-268250D02*
D03*
Y-261750D02*
D03*
Y-255250D02*
D03*
Y-248750D02*
D03*
Y-242250D02*
D03*
Y-235750D02*
D03*
Y-229250D02*
D03*
Y-222750D02*
D03*
Y-216250D02*
D03*
X423240Y-288290D02*
D03*
Y-281790D02*
D03*
Y-275290D02*
D03*
Y-268790D02*
D03*
Y-262290D02*
D03*
Y-255790D02*
D03*
Y-249290D02*
D03*
Y-242790D02*
D03*
Y-236290D02*
D03*
Y-229790D02*
D03*
Y-223290D02*
D03*
Y-216790D02*
D03*
Y-210290D02*
D03*
Y-203790D02*
D03*
X354240Y-288290D02*
D03*
Y-281790D02*
D03*
Y-275290D02*
D03*
Y-268790D02*
D03*
Y-262290D02*
D03*
Y-255790D02*
D03*
Y-249290D02*
D03*
Y-242790D02*
D03*
Y-236290D02*
D03*
Y-229790D02*
D03*
Y-223290D02*
D03*
Y-216790D02*
D03*
Y-210290D02*
D03*
Y-203790D02*
D03*
X-507122Y-221691D02*
D03*
Y-228191D02*
D03*
Y-234691D02*
D03*
Y-241191D02*
D03*
Y-247691D02*
D03*
Y-254191D02*
D03*
Y-260691D02*
D03*
Y-267191D02*
D03*
Y-273691D02*
D03*
Y-280191D02*
D03*
Y-286691D02*
D03*
Y-293191D02*
D03*
Y-299691D02*
D03*
Y-306191D02*
D03*
X-438122Y-221691D02*
D03*
Y-228191D02*
D03*
Y-234691D02*
D03*
Y-241191D02*
D03*
Y-247691D02*
D03*
Y-254191D02*
D03*
Y-260691D02*
D03*
Y-267191D02*
D03*
Y-273691D02*
D03*
Y-280191D02*
D03*
Y-286691D02*
D03*
Y-293191D02*
D03*
Y-299691D02*
D03*
Y-306191D02*
D03*
D76*
X304340Y-435540D02*
D03*
X312340D02*
D03*
X320340D02*
D03*
X328340D02*
D03*
X336340D02*
D03*
X344340D02*
D03*
X352340D02*
D03*
X360340D02*
D03*
X368340D02*
D03*
X376340D02*
D03*
X384340D02*
D03*
X392340D02*
D03*
X304340Y-340540D02*
D03*
X312340D02*
D03*
X320340D02*
D03*
X328340D02*
D03*
X336340D02*
D03*
X344340D02*
D03*
X352340D02*
D03*
X360340D02*
D03*
X368340D02*
D03*
X376340D02*
D03*
X384340D02*
D03*
X392340D02*
D03*
X190040Y-435540D02*
D03*
X198040D02*
D03*
X206040D02*
D03*
X214040D02*
D03*
X222040D02*
D03*
X230040D02*
D03*
X238040D02*
D03*
X246040D02*
D03*
X254040D02*
D03*
X262040D02*
D03*
X270040D02*
D03*
X278040D02*
D03*
X190040Y-340540D02*
D03*
X198040D02*
D03*
X206040D02*
D03*
X214040D02*
D03*
X222040D02*
D03*
X230040D02*
D03*
X238040D02*
D03*
X246040D02*
D03*
X254040D02*
D03*
X262040D02*
D03*
X270040D02*
D03*
X278040D02*
D03*
X-155020Y-350700D02*
D03*
X-163020D02*
D03*
X-139020D02*
D03*
X-147020D02*
D03*
X-131020D02*
D03*
X-123020D02*
D03*
X-115020D02*
D03*
X-107020D02*
D03*
X-83020D02*
D03*
X-75020D02*
D03*
X-99020D02*
D03*
X-91020D02*
D03*
X-155020Y-445700D02*
D03*
X-163020D02*
D03*
X-147020D02*
D03*
X-139020D02*
D03*
X-115020D02*
D03*
X-107020D02*
D03*
X-131020D02*
D03*
X-123020D02*
D03*
X-83020D02*
D03*
X-75020D02*
D03*
X-99020D02*
D03*
X-91020D02*
D03*
X-653240Y-443160D02*
D03*
X-645240D02*
D03*
X-637240D02*
D03*
X-629240D02*
D03*
X-621240D02*
D03*
X-613240D02*
D03*
X-605240D02*
D03*
X-597240D02*
D03*
X-589240D02*
D03*
X-581240D02*
D03*
X-573240D02*
D03*
X-565240D02*
D03*
X-653240Y-348160D02*
D03*
X-645240D02*
D03*
X-637240D02*
D03*
X-629240D02*
D03*
X-621240D02*
D03*
X-613240D02*
D03*
X-605240D02*
D03*
X-597240D02*
D03*
X-589240D02*
D03*
X-581240D02*
D03*
X-573240D02*
D03*
X-565240D02*
D03*
D77*
X348340Y-388040D02*
D03*
X234040D02*
D03*
X-119020Y-398200D02*
D03*
X-609240Y-395660D02*
D03*
D78*
X-685500Y-76900D02*
D03*
X-715500D02*
D03*
X-655500D02*
D03*
X-625500D02*
D03*
X-655500Y-46900D02*
D03*
X-715500D02*
D03*
X-685500D02*
D03*
X-475000Y-76900D02*
D03*
X-505000D02*
D03*
X-445000D02*
D03*
X-415000D02*
D03*
X-445000Y-46900D02*
D03*
X-505000D02*
D03*
X-475000D02*
D03*
X-270000Y-76900D02*
D03*
X-300000D02*
D03*
X-240000D02*
D03*
X-210000D02*
D03*
X-240000Y-46900D02*
D03*
X-300000D02*
D03*
X-270000D02*
D03*
D79*
X-625500D02*
D03*
X-415000D02*
D03*
X-210000D02*
D03*
D80*
X-640500Y-16400D02*
D03*
X-700500D02*
D03*
X-430000D02*
D03*
X-490000D02*
D03*
X-225000D02*
D03*
X-285000D02*
D03*
D81*
X870000Y-870000D02*
D03*
X-870000D02*
D03*
X0D02*
D03*
X-0Y-74000D02*
D03*
D82*
X-870000D02*
D03*
X870000D02*
D03*
M02*
