M48
;Layer_Color=9474304
;FILE_FORMAT=2:5
INCH,LZ
;TYPE=PLATED
T1F00S00C0.01181
T2F00S00C0.01299
T3F00S00C0.02800
T4F00S00C0.03937
T5F00S00C0.12205
T6F00S00C0.13780
;TYPE=NON_PLATED
T7F00S00C0.09449
%
T01
X-0319449Y-0298229
X-0311949
X-0304449
Y-0288229
X-0311949
X-0319449
Y-0278228
X-0311866
X-0304449
Y-0268229
X-0311866
X-0319449
X-0250449
X-0242866
X-0235449
Y-0278228
X-0242866
X-0250449
Y-0288229
X-0242949
X-0235449
Y-0298229
X-0242949
X-0250449
X-0182087Y-0298036
Y-0288035
Y-0278035
Y-0268036
X-0174504
X-0167087
Y-0278035
X-0174504
X-0174587Y-0288035
X-0167087
Y-0298036
X-0174587
X-0113087
X-0105587
X-0098087
Y-0288035
X-0105587
X-0113087
Y-0278035
X-0105504
X-0098087
Y-0268036
X-0105504
X-0113087
X-0044449Y-0267728
X-0036866
X-0029449
Y-0277728
X-0036866
X-0044449
Y-0287728
X-0036949
X-0029449
Y-0297728
X-0036949
X-0044449
X0024551
X0032051
X0039551
Y-0287728
X0032051
X0024551
Y-0277728
X0032134
X0039551
Y-0267728
X0032134
X0024551
X0093075Y-0267921
X0100657
X0108075
Y-0277921
X0100657
X0093075
Y-0287921
X0100575
X0108075
Y-0297921
X0100575
X0093075
X0162075Y-0297921
X0169575
X0177075
Y-0287921
X0169575
X0162075
Y-0277921
X0169657
X0177075
Y-0267921
X0169657
X0162075
X0230409Y-0268071
X0237992
X0245409
Y-0278071
X0237992
X0230409
Y-0288071
X0237909
X0245409
Y-0298071
X0237909
X0230409
X029941Y-0298071
X0306909
X0314409
Y-0288071
X0306909
X029941
Y-0278071
X0306992
X0314409
Y-0268071
X0306992
X029941
X0297765Y-0158071
X0294409
X0301121
X0304477
X0307242Y-0142864
Y-0139715
X0317571Y-0137171
X0317471Y-0134571
X0317571Y-0131971
X0317671Y-0129371
X0310992Y-0119136
X0333492Y-0119338
Y-0122661
Y-0125984
X0279528Y-0142614
X0276378
X0258807Y-0141512
Y-0138189
Y-0135039
X0227596Y-0135071
Y-0138071
X0227671Y-0132071
Y-0129071
X0214407Y-0157069
X0211409Y-0155071
X0195409Y-0142427
Y-0139071
X0186992Y-0122725
X0192409Y-010846
X0189612Y-0105663
X0192409Y-0102865
X0156782Y-0111698
X0154409Y-0114071
X014872Y-0108382
X0146161Y-0105823
X0159409Y-0123071
X0162229Y-0121251
X0159409Y-0136071
X0135409Y-0167071
X0135307Y-0188437
X018041Y-0232071
X0112409Y-0231071
Y-0198071
X0090307Y-0188437
X0090409Y-0167071
X0084409
X01296Y-016688
X0120409Y-0115071
X0118036Y-0112698
X0115409Y-0108071
X0113037Y-0105698
X0041872Y-0122792
X0045571Y-0126571
X0045471Y-0129671
Y-0132471
Y-0135271
X0018134Y-0118867
X0026177Y-0103071
X-0006199Y-0117274
X-0008996Y-0120071
X-0011793Y-0118071
X-0014591Y-0120071
X0014654Y-0160071
X0017452Y-0157274
X0020249Y-0160071
X0022622Y-0157698
X0030874Y-0215107
X0042134Y-0213866
X000341Y-0211071
X-001959Y-0198071
X-0023591Y-0199071
X-0038126Y-0215106
X-0025591Y-0230071
X-0048693Y-0192437
X-004859Y-0171071
X-005459Y-0169071
X-0059591Y-0122071
Y-0118452
X-0065591Y-0117071
Y-0121071
X-0069591Y-0117071
Y-0113115
X-0073546
Y-0109159
X-009769Y-0128932
X-010049Y-0129232
X-0101429Y-0132671
X-0109358Y-0124553
X-0129591Y-0164115
X-0133546
Y-0160159
X-013159Y-0167071
X-0106764Y-0215413
X-0094591Y-0231071
X-0164591Y-0232071
X-0232591
X-0244126Y-0215606
X-0241425Y-0190736
X-024959Y-0184427
Y-0181071
X-027159Y-0208071
X-027559Y-0211071
X-031859Y-0213071
X-030159Y-0232071
X-0305591Y-0163071
X-0310188Y-0164071
X-0312986Y-0161274
X-0315783Y-0164071
X-0289229Y-0133971
X-0289329Y-0131671
X-0287491Y-0129232
X-028449
X-0293128Y-0128291
X-0239546Y-0118115
Y-0114159
X-0235591Y-0118115
Y-0122071
X-0215591Y-0116071
X-0217964Y-0113698
X-0211591Y-0170071
X-0211072Y-0086914
X-0221072
X-0231072
X-0235706Y-0099279
X-0246063Y-0082677
Y-0079724
X-0232283Y-0068897
Y-0065945
X-0239961Y-004626
X-025374
X-026752
X-0281299
X-0295079
X-0287402Y-007874
Y-0081693
Y-0084646
X-0184947Y-0080709
X-0181591
Y-0097071
X-0184947
X-0192126Y-0065748
X-0207677Y-0049213
X-021063
X-0184055Y-0041339
X-0182087Y-003937
X-0227362Y-0017717
X-0153543Y-0034449
X-013189Y-0035433
X-0107087Y-0050787
X-0089567Y-0062992
X-0086614
X-007185Y-006811
X-0071835Y-0084772
X-0081835
X-0086469Y-0097137
X-0061835Y-0084772
X-0034964Y-0090698
X-0032591Y-0093071
X-0031693Y-0034449
X-0033661Y-003248
X-0072835Y-0029528
Y-0037402
X-0072835Y-0048228
X-0072835Y-001378
X-0124016Y-0090551
Y-0093504
Y-0096457
X-0128937
Y-0093504
Y-0090551
X-0133858
Y-0093504
Y-0096457
X-0138779
Y-0093504
Y-0090551
X-0156693Y-0088189
X-0160072Y-0093508
X-0164567Y-0100394
X-001533Y-0098252
X-0014256Y-0092331
X-0003543Y-008189
X0022047Y-0085039
X002442Y-0087412
X-0017717Y-0064961
X-0020669
X010726Y-0079743
X0118047Y-0079901
X0128047Y-0079935
X0102109Y-0092266
X0152036Y-0097698
X0154409Y-0100071
X0156036Y-0084698
X0158409Y-0087071
X0178819Y-0085461
X0182426Y-0081176
X0174552Y-0093381
X0189612Y-0100068
X0240409Y-0094512
X0243457Y-0085839
X0278142Y-0091732
Y-0094882
X0283142
Y-0091732
X0288409Y-0097071
X0291705Y-0085323
T02
X013478Y-0159858
X0139504
X0144228
X0148953
Y-0155134
Y-0150409
Y-0145685
X0144228
Y-0150409
Y-0155134
X0139504
Y-0150409
Y-0145685
X013478
Y-0150409
Y-0155134
X0130055
Y-0150409
Y-0145685
X0125331
Y-0150409
Y-0155134
Y-0159858
X0130055
X0103953
Y-0155134
Y-0150409
Y-0145685
X0099228
Y-0150409
Y-0155134
Y-0159858
X0094504
Y-0155134
Y-0150409
Y-0145685
X008978
Y-0150409
Y-0155134
Y-0159858
X0085055
Y-0155134
Y-0150409
Y-0145685
X0080331
Y-0150409
Y-0155134
Y-0159858
X-0035047Y-0159134
Y-0163858
X-0039772
Y-0159134
Y-015441
X-0035047
Y-0149685
X-0039772
X-0044496
Y-015441
Y-0159134
Y-0163858
X-004922
X-0053945
X-0058669
Y-0159134
X-0053945
X-004922
Y-015441
X-0053945
X-0058669
Y-0149685
X-0053945
X-004922
X-0228047Y-0148685
Y-015341
Y-0158134
Y-0162858
X-0232772
Y-0158134
X-0237496
Y-015341
Y-0148685
X-0232772
Y-015341
X-024222
Y-0148685
X-0246945
Y-015341
Y-0158134
X-024222
Y-0162858
X-0237496
X-0246945
X-0251669
Y-0158134
Y-015341
Y-0148685
T03
X-0197858Y-0313772
Y-0308772
X-0060496Y-0308579
Y-0313579
X0077142Y-0313272
Y-0308272
X0214665Y-0308465
Y-0313465
X0352Y-0313614
Y-0308614
X0337492Y-0244114
Y-0236614
X0294732Y-0184114
X0320992Y-0149114
X0230657Y-0148965
X0204398Y-0183965
X0200157Y-0236465
Y-0243965
X0266992Y-0244114
Y-0236614
X0129657Y-0236465
Y-0243965
X0062634Y-0243772
Y-0236272
X-0007866Y-0236272
Y-0243772
X0021874Y-0183772
X0048134Y-0148772
X-0099358Y-0154272
X-0125618Y-0189272
X-0145504Y-0236579
Y-0244079
X-0075004Y-0244079
Y-0236579
X-0212366Y-0236772
Y-0244272
X-0282866Y-0244272
Y-0236772
X-0313126Y-0189272
X-0286866Y-0154272
T04
X-0281693Y-0030276
X-0269882
Y-0018465
X-0281693
X-0258071
X-024626
Y-0030276
X-0258071
X-0198819
X-0187008
Y-0018465
X-0198819
X-0175197
X-0163386
Y-0030276
X-0175197
X-011811
X-0106299
Y-0018465
X-011811
X-0094488
X-0082677
Y-0030276
X-0094488
T05
X-034252Y-0029134
X034252
T06
X-034252Y-034252
X0
X034252
X-0Y-0029134
T07
X-0275787Y-0006457
X-0252165
X-0192913
X-0169291
X-0112205
X-0088583
M30
