%FSLAX44Y44*%
%MOMM*%
G71*
G01*
G75*
G04 Layer_Color=2752767*
%ADD10R,1.2000X1.3500*%
%ADD11R,1.4000X2.0000*%
%ADD12R,1.3500X1.2000*%
%ADD13R,2.0000X1.4000*%
%ADD14R,0.7000X0.8000*%
%ADD15R,0.8000X0.7000*%
%ADD16R,2.8000X1.3500*%
%ADD17R,1.3000X0.8000*%
%ADD18R,5.3500X8.5400*%
%ADD19R,0.8900X3.0600*%
%ADD20O,0.3500X2.2000*%
%ADD21O,0.3500X1.5500*%
%ADD22R,1.3500X2.8000*%
%ADD23O,0.6000X2.2000*%
%ADD24O,2.1000X0.4500*%
%ADD25O,0.6000X1.8000*%
%ADD26R,7.4000X5.0000*%
%ADD27C,1.0160*%
%ADD28C,0.1524*%
%ADD29C,0.7620*%
%ADD30C,0.2540*%
%ADD31C,0.5080*%
%ADD32C,0.6350*%
%ADD33C,0.2032*%
%ADD34C,0.3048*%
%ADD35R,177.7702X1.3208*%
%ADD36C,2.0000*%
G04:AMPARAMS|DCode=37|XSize=2mm|YSize=2mm|CornerRadius=0.5mm|HoleSize=0mm|Usage=FLASHONLY|Rotation=180.000|XOffset=0mm|YOffset=0mm|HoleType=Round|Shape=RoundedRectangle|*
%AMROUNDEDRECTD37*
21,1,2.0000,1.0000,0,0,180.0*
21,1,1.0000,2.0000,0,0,180.0*
1,1,1.0000,-0.5000,0.5000*
1,1,1.0000,0.5000,0.5000*
1,1,1.0000,0.5000,-0.5000*
1,1,1.0000,-0.5000,-0.5000*
%
%ADD37ROUNDEDRECTD37*%
%ADD38C,7.0000*%
%ADD39C,6.0000*%
%ADD40C,0.7000*%
%ADD41C,1.2700*%
%ADD42C,0.6600*%
%ADD43C,2.0160*%
%ADD44C,3.4160*%
%ADD45C,4.5160*%
%ADD46C,4.1160*%
G04:AMPARAMS|DCode=47|XSize=1.824mm|YSize=1.824mm|CornerRadius=0mm|HoleSize=0mm|Usage=FLASHONLY|Rotation=0.000|XOffset=0mm|YOffset=0mm|HoleType=Round|Shape=Relief|Width=0.254mm|Gap=0.254mm|Entries=4|*
%AMTHD47*
7,0,0,1.8240,1.3160,0.2540,45*
%
%ADD47THD47*%
%ADD48C,1.3160*%
%ADD49C,1.7272*%
%ADD50C,1.3460*%
G04:AMPARAMS|DCode=51|XSize=2.524mm|YSize=2.524mm|CornerRadius=0mm|HoleSize=0mm|Usage=FLASHONLY|Rotation=0.000|XOffset=0mm|YOffset=0mm|HoleType=Round|Shape=Relief|Width=0.254mm|Gap=0.254mm|Entries=4|*
%AMTHD51*
7,0,0,2.5240,2.0160,0.2540,45*
%
%ADD51THD51*%
G04:AMPARAMS|DCode=52|XSize=2.2352mm|YSize=2.2352mm|CornerRadius=0mm|HoleSize=0mm|Usage=FLASHONLY|Rotation=0.000|XOffset=0mm|YOffset=0mm|HoleType=Round|Shape=Relief|Width=0.254mm|Gap=0.254mm|Entries=4|*
%AMTHD52*
7,0,0,2.2352,1.7272,0.2540,45*
%
%ADD52THD52*%
%ADD53C,2.5400*%
%ADD54C,0.3000*%
%ADD55C,0.2000*%
%ADD56C,0.2500*%
%ADD57C,0.6000*%
%ADD58C,0.4000*%
%ADD59C,0.1270*%
%ADD60R,1.4732X3.1750*%
%ADD61R,1.2508X1.4008*%
%ADD62R,1.4508X2.0508*%
%ADD63R,1.4008X1.2508*%
%ADD64R,2.0508X1.4508*%
%ADD65R,0.7508X0.8508*%
%ADD66R,0.8508X0.7508*%
%ADD67R,2.8508X1.4008*%
%ADD68R,1.3508X0.8508*%
%ADD69R,5.4008X8.5908*%
%ADD70R,0.9408X3.1108*%
%ADD71O,0.4008X2.2508*%
%ADD72O,0.4008X1.6008*%
%ADD73R,1.4008X2.8508*%
%ADD74O,0.6508X2.2508*%
%ADD75O,2.1508X0.5008*%
%ADD76O,0.6508X1.8508*%
%ADD77R,7.4508X5.0508*%
%ADD78C,2.0508*%
G04:AMPARAMS|DCode=79|XSize=2.0508mm|YSize=2.0508mm|CornerRadius=0.5254mm|HoleSize=0mm|Usage=FLASHONLY|Rotation=180.000|XOffset=0mm|YOffset=0mm|HoleType=Round|Shape=RoundedRectangle|*
%AMROUNDEDRECTD79*
21,1,2.0508,1.0000,0,0,180.0*
21,1,1.0000,2.0508,0,0,180.0*
1,1,1.0508,-0.5000,0.5000*
1,1,1.0508,0.5000,0.5000*
1,1,1.0508,0.5000,-0.5000*
1,1,1.0508,-0.5000,-0.5000*
%
%ADD79ROUNDEDRECTD79*%
%ADD80C,0.0508*%
%ADD81C,7.0508*%
%ADD82C,6.0508*%
%ADD83C,0.1693*%
D59*
X-690580Y-81980D02*
Y-71820D01*
X-680420D01*
Y-81980D01*
X-690580D01*
X-720580D02*
Y-71820D01*
X-710420D01*
Y-81980D01*
X-720580D01*
X-660580D02*
Y-71820D01*
X-650420D01*
Y-81980D01*
X-660580D01*
X-630580D02*
Y-71820D01*
X-620420D01*
Y-81980D01*
X-630580D01*
Y-51980D02*
Y-41820D01*
X-620420D01*
Y-51980D01*
X-630580D01*
X-660580D02*
Y-41820D01*
X-650420D01*
Y-51980D01*
X-660580D01*
X-720580D02*
Y-41820D01*
X-710420D01*
Y-51980D01*
X-720580D01*
X-690580D02*
Y-41820D01*
X-680420D01*
Y-51980D01*
X-690580D01*
X-480080Y-81980D02*
Y-71820D01*
X-469920D01*
Y-81980D01*
X-480080D01*
X-510080D02*
Y-71820D01*
X-499920D01*
Y-81980D01*
X-510080D01*
X-450080D02*
Y-71820D01*
X-439920D01*
Y-81980D01*
X-450080D01*
X-420080D02*
Y-71820D01*
X-409920D01*
Y-81980D01*
X-420080D01*
Y-51980D02*
Y-41820D01*
X-409920D01*
Y-51980D01*
X-420080D01*
X-450080D02*
Y-41820D01*
X-439920D01*
Y-51980D01*
X-450080D01*
X-510080D02*
Y-41820D01*
X-499920D01*
Y-51980D01*
X-510080D01*
X-480080D02*
Y-41820D01*
X-469920D01*
Y-51980D01*
X-480080D01*
X-275080Y-81980D02*
Y-71820D01*
X-264920D01*
Y-81980D01*
X-275080D01*
X-305080D02*
Y-71820D01*
X-294920D01*
Y-81980D01*
X-305080D01*
X-245080D02*
Y-71820D01*
X-234920D01*
Y-81980D01*
X-245080D01*
X-215080D02*
Y-71820D01*
X-204920D01*
Y-81980D01*
X-215080D01*
Y-51980D02*
Y-41820D01*
X-204920D01*
Y-51980D01*
X-215080D01*
X-245080D02*
Y-41820D01*
X-234920D01*
Y-51980D01*
X-245080D01*
X-305080D02*
Y-41820D01*
X-294920D01*
Y-51980D01*
X-305080D01*
X-275080D02*
Y-41820D01*
X-264920D01*
Y-51980D01*
X-275080D01*
X870000Y-875080D02*
X864920Y-864920D01*
X875080D01*
X870000Y-875080D01*
X-870000D02*
X-875080Y-864920D01*
X-864920D01*
X-870000Y-875080D01*
X0D02*
X-5080Y-864920D01*
X5080D01*
X0Y-875080D01*
X-870000Y-79080D02*
X-867460Y-76540D01*
X-864920D01*
X-867460Y-74000D01*
X-864920Y-71460D01*
X-867460D01*
X-870000Y-68920D01*
X-872540Y-71460D01*
X-875080D01*
X-872540Y-74000D01*
X-875080Y-76540D01*
X-872540D01*
X-870000Y-79080D01*
X870000D02*
X872540Y-76540D01*
X875080D01*
X872540Y-74000D01*
X875080Y-71460D01*
X872540D01*
X870000Y-68920D01*
X867460Y-71460D01*
X864920D01*
X867460Y-74000D01*
X864920Y-76540D01*
X867460D01*
X870000Y-79080D01*
X-0D02*
X-5080Y-68920D01*
X5080D01*
X-0Y-79080D01*
X-85580Y-92580D02*
X-83040Y-87500D01*
X-85580Y-82420D01*
X-80500Y-84960D01*
X-75420Y-82420D01*
X-77960Y-87500D01*
X-75420Y-92580D01*
X-80500Y-90040D01*
X-85580Y-92580D01*
X56947Y-227107D02*
X59487Y-222027D01*
X56947Y-216947D01*
X62027Y-219487D01*
X67107Y-216947D01*
X64567Y-222027D01*
X67107Y-227107D01*
X62027Y-224567D01*
X56947Y-227107D01*
X50920Y-221080D02*
X53460Y-216000D01*
X50920Y-210920D01*
X56000Y-213460D01*
X61080Y-210920D01*
X58540Y-216000D01*
X61080Y-221080D01*
X56000Y-218540D01*
X50920Y-221080D01*
X-14080Y-213080D02*
X-11540Y-208000D01*
X-14080Y-202920D01*
X-9000Y-205460D01*
X-3920Y-202920D01*
X-6460Y-208000D01*
X-3920Y-213080D01*
X-9000Y-210540D01*
X-14080Y-213080D01*
X-493080Y-172080D02*
X-490540Y-167000D01*
X-493080Y-161920D01*
X-488000Y-164460D01*
X-482920Y-161920D01*
X-485460Y-167000D01*
X-482920Y-172080D01*
X-488000Y-169540D01*
X-493080Y-172080D01*
X-277080Y-134080D02*
X-274540Y-129000D01*
X-277080Y-123920D01*
X-272000Y-126460D01*
X-266920Y-123920D01*
X-269460Y-129000D01*
X-266920Y-134080D01*
X-272000Y-131540D01*
X-277080Y-134080D01*
X-187580Y-178080D02*
X-185040Y-173000D01*
X-187580Y-167920D01*
X-182500Y-170460D01*
X-177420Y-167920D01*
X-179960Y-173000D01*
X-177420Y-178080D01*
X-182500Y-175540D01*
X-187580Y-178080D01*
X-190080Y-127580D02*
X-187540Y-122500D01*
X-190080Y-117420D01*
X-185000Y-119960D01*
X-179920Y-117420D01*
X-182460Y-122500D01*
X-179920Y-127580D01*
X-185000Y-125040D01*
X-190080Y-127580D01*
X-190080Y-100080D02*
X-187540Y-95000D01*
X-190080Y-89920D01*
X-185000Y-92460D01*
X-179920Y-89920D01*
X-182460Y-95000D01*
X-179920Y-100080D01*
X-185000Y-97540D01*
X-190080Y-100080D01*
Y-80080D02*
X-187540Y-75000D01*
X-190080Y-69920D01*
X-185000Y-72460D01*
X-179920Y-69920D01*
X-182460Y-75000D01*
X-179920Y-80080D01*
X-185000Y-77540D01*
X-190080Y-80080D01*
Y-40080D02*
X-187540Y-35000D01*
X-190080Y-29920D01*
X-185000Y-32460D01*
X-179920Y-29920D01*
X-182460Y-35000D01*
X-179920Y-40080D01*
X-185000Y-37540D01*
X-190080Y-40080D01*
X-90580Y-87580D02*
X-88040Y-82500D01*
X-90580Y-77420D01*
X-85500Y-79960D01*
X-80420Y-77420D01*
X-82960Y-82500D01*
X-80420Y-87580D01*
X-85500Y-85040D01*
X-90580Y-87580D01*
X-57580Y-170080D02*
X-55040Y-165000D01*
X-57580Y-159920D01*
X-52500Y-162460D01*
X-47420Y-159920D01*
X-49960Y-165000D01*
X-47420Y-170080D01*
X-52500Y-167540D01*
X-57580Y-170080D01*
X-50080D02*
X-47540Y-165000D01*
X-50080Y-159920D01*
X-45000Y-162460D01*
X-39920Y-159920D01*
X-42460Y-165000D01*
X-39920Y-170080D01*
X-45000Y-167540D01*
X-50080Y-170080D01*
X-232580Y-165080D02*
X-230040Y-160000D01*
X-232580Y-154920D01*
X-227500Y-157460D01*
X-222420Y-154920D01*
X-224960Y-160000D01*
X-222420Y-165080D01*
X-227500Y-162540D01*
X-232580Y-165080D01*
X-225080D02*
X-222540Y-160000D01*
X-225080Y-154920D01*
X-220000Y-157460D01*
X-214920Y-154920D01*
X-217460Y-160000D01*
X-214920Y-165080D01*
X-220000Y-162540D01*
X-225080Y-165080D01*
X-472580Y-110080D02*
X-470040Y-105000D01*
X-472580Y-99920D01*
X-467500Y-102460D01*
X-462420Y-99920D01*
X-464960Y-105000D01*
X-462420Y-110080D01*
X-467500Y-107540D01*
X-472580Y-110080D01*
X-540080Y-130080D02*
X-537540Y-125000D01*
X-540080Y-119920D01*
X-535000Y-122460D01*
X-529920Y-119920D01*
X-532460Y-125000D01*
X-529920Y-130080D01*
X-535000Y-127540D01*
X-540080Y-130080D01*
X-532580D02*
X-530040Y-125000D01*
X-532580Y-119920D01*
X-527500Y-122460D01*
X-522420Y-119920D01*
X-524960Y-125000D01*
X-522420Y-130080D01*
X-527500Y-127540D01*
X-532580Y-130080D01*
X-395079Y-92580D02*
X-392539Y-87500D01*
X-395079Y-82420D01*
X-389999Y-84960D01*
X-384919Y-82420D01*
X-387459Y-87500D01*
X-384919Y-92580D01*
X-389999Y-90040D01*
X-395079Y-92580D01*
X-340080Y-95080D02*
X-337540Y-90000D01*
X-340080Y-84920D01*
X-335000Y-87460D01*
X-329920Y-84920D01*
X-332460Y-90000D01*
X-329920Y-95080D01*
X-335000Y-92540D01*
X-340080Y-95080D01*
X-614580Y-122580D02*
X-612040Y-117500D01*
X-614580Y-112420D01*
X-609500Y-114960D01*
X-604420Y-112420D01*
X-606960Y-117500D01*
X-604420Y-122580D01*
X-609500Y-120040D01*
X-614580Y-122580D01*
X-649580D02*
X-647040Y-117500D01*
X-649580Y-112420D01*
X-644500Y-114960D01*
X-639420Y-112420D01*
X-641960Y-117500D01*
X-639420Y-122580D01*
X-644500Y-120040D01*
X-649580Y-122580D01*
X-754580D02*
X-752040Y-117500D01*
X-754580Y-112420D01*
X-749500Y-114960D01*
X-744420Y-112420D01*
X-746960Y-117500D01*
X-744420Y-122580D01*
X-749500Y-120040D01*
X-754580Y-122580D01*
X-719580D02*
X-717040Y-117500D01*
X-719580Y-112420D01*
X-714500Y-114960D01*
X-709420Y-112420D01*
X-711960Y-117500D01*
X-709420Y-122580D01*
X-714500Y-120040D01*
X-719580Y-122580D01*
X-684580D02*
X-682040Y-117500D01*
X-684580Y-112420D01*
X-679500Y-114960D01*
X-674420Y-112420D01*
X-676960Y-117500D01*
X-674420Y-122580D01*
X-679500Y-120040D01*
X-684580Y-122580D01*
X-467580Y-105080D02*
X-465040Y-100000D01*
X-467580Y-94920D01*
X-462500Y-97460D01*
X-457420Y-94920D01*
X-459960Y-100000D01*
X-457420Y-105080D01*
X-462500Y-102540D01*
X-467580Y-105080D01*
X-466320Y-210080D02*
X-463780Y-205000D01*
X-466320Y-199920D01*
X-461240Y-202460D01*
X-456160Y-199920D01*
X-458700Y-205000D01*
X-456160Y-210080D01*
X-461240Y-207540D01*
X-466320Y-210080D01*
X-474844D02*
X-472304Y-205000D01*
X-474844Y-199920D01*
X-469764Y-202460D01*
X-464684Y-199920D01*
X-467224Y-205000D01*
X-464684Y-210080D01*
X-469764Y-207540D01*
X-474844Y-210080D01*
X-595079Y-180079D02*
X-592539Y-174999D01*
X-595079Y-169919D01*
X-589999Y-172459D01*
X-584919Y-169919D01*
X-587459Y-174999D01*
X-584919Y-180079D01*
X-589999Y-177539D01*
X-595079Y-180079D01*
Y-172580D02*
X-592539Y-167500D01*
X-595079Y-162420D01*
X-589999Y-164960D01*
X-584919Y-162420D01*
X-587459Y-167500D01*
X-584919Y-172580D01*
X-589999Y-170040D01*
X-595079Y-172580D01*
X-630080Y-207580D02*
X-627540Y-202500D01*
X-630080Y-197420D01*
X-625000Y-199960D01*
X-619920Y-197420D01*
X-622460Y-202500D01*
X-619920Y-207580D01*
X-625000Y-205040D01*
X-630080Y-207580D01*
Y-215080D02*
X-627540Y-210000D01*
X-630080Y-204920D01*
X-625000Y-207460D01*
X-619920Y-204920D01*
X-622460Y-210000D01*
X-619920Y-215080D01*
X-625000Y-212540D01*
X-630080Y-215080D01*
X-735080Y-220080D02*
X-732540Y-215000D01*
X-735080Y-209920D01*
X-730000Y-212460D01*
X-724920Y-209920D01*
X-727460Y-215000D01*
X-724920Y-220080D01*
X-730000Y-217540D01*
X-735080Y-220080D01*
Y-212580D02*
X-732540Y-207500D01*
X-735080Y-202420D01*
X-730000Y-204960D01*
X-724920Y-202420D01*
X-727460Y-207500D01*
X-724920Y-212580D01*
X-730000Y-210040D01*
X-735080Y-212580D01*
Y-205080D02*
X-732540Y-200000D01*
X-735080Y-194920D01*
X-730000Y-197460D01*
X-724920Y-194920D01*
X-727460Y-200000D01*
X-724920Y-205080D01*
X-730000Y-202540D01*
X-735080Y-205080D01*
X701400Y-246080D02*
X703940Y-241000D01*
X701400Y-235920D01*
X706480Y-238460D01*
X711560Y-235920D01*
X709020Y-241000D01*
X711560Y-246080D01*
X706480Y-243540D01*
X701400Y-246080D01*
X714100D02*
X716640Y-241000D01*
X714100Y-235920D01*
X719180Y-238460D01*
X724260Y-235920D01*
X721720Y-241000D01*
X724260Y-246080D01*
X719180Y-243540D01*
X714100Y-246080D01*
Y-238080D02*
X716640Y-233000D01*
X714100Y-227920D01*
X719180Y-230460D01*
X724260Y-227920D01*
X721720Y-233000D01*
X724260Y-238080D01*
X719180Y-235540D01*
X714100Y-238080D01*
X701400D02*
X703940Y-233000D01*
X701400Y-227920D01*
X706480Y-230460D01*
X711560Y-227920D01*
X709020Y-233000D01*
X711560Y-238080D01*
X706480Y-235540D01*
X701400Y-238080D01*
X841990Y-308200D02*
X844530Y-303120D01*
X841990Y-298040D01*
X847070Y-300580D01*
X852150Y-298040D01*
X849610Y-303120D01*
X852150Y-308200D01*
X847070Y-305660D01*
X841990Y-308200D01*
Y-325080D02*
X844530Y-320000D01*
X841990Y-314920D01*
X847070Y-317460D01*
X852150Y-314920D01*
X849610Y-320000D01*
X852150Y-325080D01*
X847070Y-322540D01*
X841990Y-325080D01*
Y-316640D02*
X844530Y-311560D01*
X841990Y-306480D01*
X847070Y-309020D01*
X852150Y-306480D01*
X849610Y-311560D01*
X852150Y-316640D01*
X847070Y-314100D01*
X841990Y-316640D01*
X775315Y-359955D02*
X777855Y-354875D01*
X775315Y-349795D01*
X780395Y-352335D01*
X785475Y-349795D01*
X782935Y-354875D01*
X785475Y-359955D01*
X780395Y-357415D01*
X775315Y-359955D01*
Y-367955D02*
X777855Y-362875D01*
X775315Y-357795D01*
X780395Y-360335D01*
X785475Y-357795D01*
X782935Y-362875D01*
X785475Y-367955D01*
X780395Y-365415D01*
X775315Y-367955D01*
X696920Y-367320D02*
X699460Y-362240D01*
X696920Y-357160D01*
X702000Y-359700D01*
X707080Y-357160D01*
X704540Y-362240D01*
X707080Y-367320D01*
X702000Y-364780D01*
X696920Y-367320D01*
X704920D02*
X707460Y-362240D01*
X704920Y-357160D01*
X710000Y-359700D01*
X715080Y-357160D01*
X712540Y-362240D01*
X715080Y-367320D01*
X710000Y-364780D01*
X704920Y-367320D01*
X652290Y-348080D02*
X654830Y-343000D01*
X652290Y-337920D01*
X657370Y-340460D01*
X662450Y-337920D01*
X659910Y-343000D01*
X662450Y-348080D01*
X657370Y-345540D01*
X652290Y-348080D01*
Y-356080D02*
X654830Y-351000D01*
X652290Y-345920D01*
X657370Y-348460D01*
X662450Y-345920D01*
X659910Y-351000D01*
X662450Y-356080D01*
X657370Y-353540D01*
X652290Y-356080D01*
Y-364520D02*
X654830Y-359440D01*
X652290Y-354360D01*
X657370Y-356900D01*
X662450Y-354360D01*
X659910Y-359440D01*
X662450Y-364520D01*
X657370Y-361980D01*
X652290Y-364520D01*
X254276Y-239436D02*
X256816Y-234356D01*
X254276Y-229276D01*
X259356Y-231816D01*
X264436Y-229276D01*
X261896Y-234356D01*
X264436Y-239436D01*
X259356Y-236896D01*
X254276Y-239436D01*
X458282Y-211267D02*
X460822Y-206187D01*
X458282Y-201107D01*
X463362Y-203647D01*
X468442Y-201107D01*
X465902Y-206187D01*
X468442Y-211267D01*
X463362Y-208727D01*
X458282Y-211267D01*
X438282Y-242267D02*
X440822Y-237187D01*
X438282Y-232107D01*
X443362Y-234647D01*
X448442Y-232107D01*
X445902Y-237187D01*
X448442Y-242267D01*
X443362Y-239727D01*
X438282Y-242267D01*
X-44018Y-254639D02*
X-41478Y-249559D01*
X-44018Y-244479D01*
X-38938Y-247019D01*
X-33858Y-244479D01*
X-36398Y-249559D01*
X-33858Y-254639D01*
X-38938Y-252099D01*
X-44018Y-254639D01*
X-224712Y-251808D02*
X-222172Y-246728D01*
X-224712Y-241648D01*
X-219632Y-244188D01*
X-214552Y-241648D01*
X-217092Y-246728D01*
X-214552Y-251808D01*
X-219632Y-249268D01*
X-224712Y-251808D01*
X-603774Y-257249D02*
X-601234Y-252169D01*
X-603774Y-247089D01*
X-598694Y-249629D01*
X-593614Y-247089D01*
X-596154Y-252169D01*
X-593614Y-257249D01*
X-598694Y-254709D01*
X-603774Y-257249D01*
X-423080Y-260080D02*
X-420540Y-255000D01*
X-423080Y-249920D01*
X-418000Y-252460D01*
X-412920Y-249920D01*
X-415460Y-255000D01*
X-412920Y-260080D01*
X-418000Y-257540D01*
X-423080Y-260080D01*
X-403080Y-229080D02*
X-400540Y-224000D01*
X-403080Y-218920D01*
X-398000Y-221460D01*
X-392920Y-218920D01*
X-395460Y-224000D01*
X-392920Y-229080D01*
X-398000Y-226540D01*
X-403080Y-229080D01*
X-357580Y-235080D02*
X-355040Y-230000D01*
X-357580Y-224920D01*
X-352500Y-227460D01*
X-347420Y-224920D01*
X-349960Y-230000D01*
X-347420Y-235080D01*
X-352500Y-232540D01*
X-357580Y-235080D01*
X-345080D02*
X-342540Y-230000D01*
X-345080Y-224920D01*
X-340000Y-227460D01*
X-334920Y-224920D01*
X-337460Y-230000D01*
X-334920Y-235080D01*
X-340000Y-232540D01*
X-345080Y-235080D01*
X-332580D02*
X-330040Y-230000D01*
X-332580Y-224920D01*
X-327500Y-227460D01*
X-322420Y-224920D01*
X-324960Y-230000D01*
X-322420Y-235080D01*
X-327500Y-232540D01*
X-332580Y-235080D01*
X-320080D02*
X-317540Y-230000D01*
X-320080Y-224920D01*
X-315000Y-227460D01*
X-309920Y-224920D01*
X-312460Y-230000D01*
X-309920Y-235080D01*
X-315000Y-232540D01*
X-320080Y-235080D01*
X-357580Y-250080D02*
X-355040Y-245000D01*
X-357580Y-239920D01*
X-352500Y-242460D01*
X-347420Y-239920D01*
X-349960Y-245000D01*
X-347420Y-250080D01*
X-352500Y-247540D01*
X-357580Y-250080D01*
Y-242580D02*
X-355040Y-237500D01*
X-357580Y-232420D01*
X-352500Y-234960D01*
X-347420Y-232420D01*
X-349960Y-237500D01*
X-347420Y-242580D01*
X-352500Y-240040D01*
X-357580Y-242580D01*
X-345080D02*
X-342540Y-237500D01*
X-345080Y-232420D01*
X-340000Y-234960D01*
X-334920Y-232420D01*
X-337460Y-237500D01*
X-334920Y-242580D01*
X-340000Y-240040D01*
X-345080Y-242580D01*
Y-250080D02*
X-342540Y-245000D01*
X-345080Y-239920D01*
X-340000Y-242460D01*
X-334920Y-239920D01*
X-337460Y-245000D01*
X-334920Y-250080D01*
X-340000Y-247540D01*
X-345080Y-250080D01*
X-332580Y-242580D02*
X-330040Y-237500D01*
X-332580Y-232420D01*
X-327500Y-234960D01*
X-322420Y-232420D01*
X-324960Y-237500D01*
X-322420Y-242580D01*
X-327500Y-240040D01*
X-332580Y-242580D01*
Y-250080D02*
X-330040Y-245000D01*
X-332580Y-239920D01*
X-327500Y-242460D01*
X-322420Y-239920D01*
X-324960Y-245000D01*
X-322420Y-250080D01*
X-327500Y-247540D01*
X-332580Y-250080D01*
X-320080Y-242580D02*
X-317540Y-237500D01*
X-320080Y-232420D01*
X-315000Y-234960D01*
X-309920Y-232420D01*
X-312460Y-237500D01*
X-309920Y-242580D01*
X-315000Y-240040D01*
X-320080Y-242580D01*
Y-250080D02*
X-317540Y-245000D01*
X-320080Y-239920D01*
X-315000Y-242460D01*
X-309920Y-239920D01*
X-312460Y-245000D01*
X-309920Y-250080D01*
X-315000Y-247540D01*
X-320080Y-250080D01*
X573204Y-332920D02*
X575744Y-327840D01*
X573204Y-322760D01*
X578284Y-325300D01*
X583364Y-322760D01*
X580824Y-327840D01*
X583364Y-332920D01*
X578284Y-330380D01*
X573204Y-332920D01*
Y-340540D02*
X575744Y-335460D01*
X573204Y-330380D01*
X578284Y-332920D01*
X583364Y-330380D01*
X580824Y-335460D01*
X583364Y-340540D01*
X578284Y-338000D01*
X573204Y-340540D01*
X573014Y-348160D02*
X575554Y-343080D01*
X573014Y-338000D01*
X578094Y-340540D01*
X583174Y-338000D01*
X580634Y-343080D01*
X583174Y-348160D01*
X578094Y-345620D01*
X573014Y-348160D01*
Y-355780D02*
X575554Y-350700D01*
X573014Y-345620D01*
X578094Y-348160D01*
X583174Y-345620D01*
X580634Y-350700D01*
X583174Y-355780D01*
X578094Y-353240D01*
X573014Y-355780D01*
X-778380Y-762580D02*
X-775840Y-757500D01*
X-778380Y-752420D01*
X-773300Y-754960D01*
X-768220Y-752420D01*
X-770760Y-757500D01*
X-768220Y-762580D01*
X-773300Y-760040D01*
X-778380Y-762580D01*
X-797430D02*
X-794890Y-757500D01*
X-797430Y-752420D01*
X-792350Y-754960D01*
X-787270Y-752420D01*
X-789810Y-757500D01*
X-787270Y-762580D01*
X-792350Y-760040D01*
X-797430Y-762580D01*
X-816480D02*
X-813940Y-757500D01*
X-816480Y-752420D01*
X-811400Y-754960D01*
X-806320Y-752420D01*
X-808860Y-757500D01*
X-806320Y-762580D01*
X-811400Y-760040D01*
X-816480Y-762580D01*
X-778380Y-737180D02*
X-775840Y-732100D01*
X-778380Y-727020D01*
X-773300Y-729560D01*
X-768220Y-727020D01*
X-770760Y-732100D01*
X-768220Y-737180D01*
X-773300Y-734640D01*
X-778380Y-737180D01*
X-797430D02*
X-794890Y-732100D01*
X-797430Y-727020D01*
X-792350Y-729560D01*
X-787270Y-727020D01*
X-789810Y-732100D01*
X-787270Y-737180D01*
X-792350Y-734640D01*
X-797430Y-737180D01*
X-816480D02*
X-813940Y-732100D01*
X-816480Y-727020D01*
X-811400Y-729560D01*
X-806320Y-727020D01*
X-808860Y-732100D01*
X-806320Y-737180D01*
X-811400Y-734640D01*
X-816480Y-737180D01*
X-778380Y-711780D02*
X-775840Y-706700D01*
X-778380Y-701620D01*
X-773300Y-704160D01*
X-768220Y-701620D01*
X-770760Y-706700D01*
X-768220Y-711780D01*
X-773300Y-709240D01*
X-778380Y-711780D01*
X-797221D02*
X-794681Y-706700D01*
X-797221Y-701620D01*
X-792141Y-704160D01*
X-787061Y-701620D01*
X-789601Y-706700D01*
X-787061Y-711780D01*
X-792141Y-709240D01*
X-797221Y-711780D01*
X-816480D02*
X-813940Y-706700D01*
X-816480Y-701620D01*
X-811400Y-704160D01*
X-806320Y-701620D01*
X-808860Y-706700D01*
X-806320Y-711780D01*
X-811400Y-709240D01*
X-816480Y-711780D01*
X-778380Y-686380D02*
X-775840Y-681300D01*
X-778380Y-676220D01*
X-773300Y-678760D01*
X-768220Y-676220D01*
X-770760Y-681300D01*
X-768220Y-686380D01*
X-773300Y-683840D01*
X-778380Y-686380D01*
X-797221D02*
X-794681Y-681300D01*
X-797221Y-676220D01*
X-792141Y-678760D01*
X-787061Y-676220D01*
X-789601Y-681300D01*
X-787061Y-686380D01*
X-792141Y-683840D01*
X-797221Y-686380D01*
X-816480D02*
X-813940Y-681300D01*
X-816480Y-676220D01*
X-811400Y-678760D01*
X-806320Y-676220D01*
X-808860Y-681300D01*
X-806320Y-686380D01*
X-811400Y-683840D01*
X-816480Y-686380D01*
X-603120Y-762580D02*
X-600580Y-757500D01*
X-603120Y-752420D01*
X-598040Y-754960D01*
X-592960Y-752420D01*
X-595500Y-757500D01*
X-592960Y-762580D01*
X-598040Y-760040D01*
X-603120Y-762580D01*
X-622170D02*
X-619630Y-757500D01*
X-622170Y-752420D01*
X-617090Y-754960D01*
X-612010Y-752420D01*
X-614550Y-757500D01*
X-612010Y-762580D01*
X-617090Y-760040D01*
X-622170Y-762580D01*
X-641220D02*
X-638680Y-757500D01*
X-641220Y-752420D01*
X-636140Y-754960D01*
X-631060Y-752420D01*
X-633600Y-757500D01*
X-631060Y-762580D01*
X-636140Y-760040D01*
X-641220Y-762580D01*
X-603120Y-737180D02*
X-600580Y-732100D01*
X-603120Y-727020D01*
X-598040Y-729560D01*
X-592960Y-727020D01*
X-595500Y-732100D01*
X-592960Y-737180D01*
X-598040Y-734640D01*
X-603120Y-737180D01*
X-622170D02*
X-619630Y-732100D01*
X-622170Y-727020D01*
X-617090Y-729560D01*
X-612010Y-727020D01*
X-614550Y-732100D01*
X-612010Y-737180D01*
X-617090Y-734640D01*
X-622170Y-737180D01*
X-641220D02*
X-638680Y-732100D01*
X-641220Y-727020D01*
X-636140Y-729560D01*
X-631060Y-727020D01*
X-633600Y-732100D01*
X-631060Y-737180D01*
X-636140Y-734640D01*
X-641220Y-737180D01*
X-603120Y-711780D02*
X-600580Y-706700D01*
X-603120Y-701620D01*
X-598040Y-704160D01*
X-592960Y-701620D01*
X-595500Y-706700D01*
X-592960Y-711780D01*
X-598040Y-709240D01*
X-603120Y-711780D01*
X-621961D02*
X-619421Y-706700D01*
X-621961Y-701620D01*
X-616881Y-704160D01*
X-611801Y-701620D01*
X-614341Y-706700D01*
X-611801Y-711780D01*
X-616881Y-709240D01*
X-621961Y-711780D01*
X-641220D02*
X-638680Y-706700D01*
X-641220Y-701620D01*
X-636140Y-704160D01*
X-631060Y-701620D01*
X-633600Y-706700D01*
X-631060Y-711780D01*
X-636140Y-709240D01*
X-641220Y-711780D01*
X-603120Y-686380D02*
X-600580Y-681300D01*
X-603120Y-676220D01*
X-598040Y-678760D01*
X-592960Y-676220D01*
X-595500Y-681300D01*
X-592960Y-686380D01*
X-598040Y-683840D01*
X-603120Y-686380D01*
X-621961D02*
X-619421Y-681300D01*
X-621961Y-676220D01*
X-616881Y-678760D01*
X-611801Y-676220D01*
X-614341Y-681300D01*
X-611801Y-686380D01*
X-616881Y-683840D01*
X-621961Y-686380D01*
X-641220D02*
X-638680Y-681300D01*
X-641220Y-676220D01*
X-636140Y-678760D01*
X-631060Y-676220D01*
X-633600Y-681300D01*
X-631060Y-686380D01*
X-636140Y-683840D01*
X-641220Y-686380D01*
X-429480Y-762090D02*
X-426940Y-757010D01*
X-429480Y-751930D01*
X-424400Y-754470D01*
X-419320Y-751930D01*
X-421860Y-757010D01*
X-419320Y-762090D01*
X-424400Y-759550D01*
X-429480Y-762090D01*
X-448530D02*
X-445990Y-757010D01*
X-448530Y-751930D01*
X-443450Y-754470D01*
X-438370Y-751930D01*
X-440910Y-757010D01*
X-438370Y-762090D01*
X-443450Y-759550D01*
X-448530Y-762090D01*
X-467580D02*
X-465040Y-757010D01*
X-467580Y-751930D01*
X-462500Y-754470D01*
X-457420Y-751930D01*
X-459960Y-757010D01*
X-457420Y-762090D01*
X-462500Y-759550D01*
X-467580Y-762090D01*
X-429480Y-736690D02*
X-426940Y-731610D01*
X-429480Y-726530D01*
X-424400Y-729070D01*
X-419320Y-726530D01*
X-421860Y-731610D01*
X-419320Y-736690D01*
X-424400Y-734150D01*
X-429480Y-736690D01*
X-448530D02*
X-445990Y-731610D01*
X-448530Y-726530D01*
X-443450Y-729070D01*
X-438370Y-726530D01*
X-440910Y-731610D01*
X-438370Y-736690D01*
X-443450Y-734150D01*
X-448530Y-736690D01*
X-467580D02*
X-465040Y-731610D01*
X-467580Y-726530D01*
X-462500Y-729070D01*
X-457420Y-726530D01*
X-459960Y-731610D01*
X-457420Y-736690D01*
X-462500Y-734150D01*
X-467580Y-736690D01*
X-429480Y-711290D02*
X-426940Y-706210D01*
X-429480Y-701130D01*
X-424400Y-703670D01*
X-419320Y-701130D01*
X-421860Y-706210D01*
X-419320Y-711290D01*
X-424400Y-708750D01*
X-429480Y-711290D01*
X-448320D02*
X-445780Y-706210D01*
X-448320Y-701130D01*
X-443240Y-703670D01*
X-438160Y-701130D01*
X-440700Y-706210D01*
X-438160Y-711290D01*
X-443240Y-708750D01*
X-448320Y-711290D01*
X-467580D02*
X-465040Y-706210D01*
X-467580Y-701130D01*
X-462500Y-703670D01*
X-457420Y-701130D01*
X-459960Y-706210D01*
X-457420Y-711290D01*
X-462500Y-708750D01*
X-467580Y-711290D01*
X-429480Y-685890D02*
X-426940Y-680810D01*
X-429480Y-675730D01*
X-424400Y-678270D01*
X-419320Y-675730D01*
X-421860Y-680810D01*
X-419320Y-685890D01*
X-424400Y-683350D01*
X-429480Y-685890D01*
X-448320D02*
X-445780Y-680810D01*
X-448320Y-675730D01*
X-443240Y-678270D01*
X-438160Y-675730D01*
X-440700Y-680810D01*
X-438160Y-685890D01*
X-443240Y-683350D01*
X-448320Y-685890D01*
X-467580D02*
X-465040Y-680810D01*
X-467580Y-675730D01*
X-462500Y-678270D01*
X-457420Y-675730D01*
X-459960Y-680810D01*
X-457420Y-685890D01*
X-462500Y-683350D01*
X-467580Y-685890D01*
X-254220Y-762090D02*
X-251680Y-757010D01*
X-254220Y-751930D01*
X-249140Y-754470D01*
X-244060Y-751930D01*
X-246600Y-757010D01*
X-244060Y-762090D01*
X-249140Y-759550D01*
X-254220Y-762090D01*
X-273270D02*
X-270730Y-757010D01*
X-273270Y-751930D01*
X-268190Y-754470D01*
X-263110Y-751930D01*
X-265650Y-757010D01*
X-263110Y-762090D01*
X-268190Y-759550D01*
X-273270Y-762090D01*
X-292320D02*
X-289780Y-757010D01*
X-292320Y-751930D01*
X-287240Y-754470D01*
X-282160Y-751930D01*
X-284700Y-757010D01*
X-282160Y-762090D01*
X-287240Y-759550D01*
X-292320Y-762090D01*
X-254220Y-736690D02*
X-251680Y-731610D01*
X-254220Y-726530D01*
X-249140Y-729070D01*
X-244060Y-726530D01*
X-246600Y-731610D01*
X-244060Y-736690D01*
X-249140Y-734150D01*
X-254220Y-736690D01*
X-273270D02*
X-270730Y-731610D01*
X-273270Y-726530D01*
X-268190Y-729070D01*
X-263110Y-726530D01*
X-265650Y-731610D01*
X-263110Y-736690D01*
X-268190Y-734150D01*
X-273270Y-736690D01*
X-292320D02*
X-289780Y-731610D01*
X-292320Y-726530D01*
X-287240Y-729070D01*
X-282160Y-726530D01*
X-284700Y-731610D01*
X-282160Y-736690D01*
X-287240Y-734150D01*
X-292320Y-736690D01*
X-254220Y-711290D02*
X-251680Y-706210D01*
X-254220Y-701130D01*
X-249140Y-703670D01*
X-244060Y-701130D01*
X-246600Y-706210D01*
X-244060Y-711290D01*
X-249140Y-708750D01*
X-254220Y-711290D01*
X-273060D02*
X-270520Y-706210D01*
X-273060Y-701130D01*
X-267980Y-703670D01*
X-262900Y-701130D01*
X-265440Y-706210D01*
X-262900Y-711290D01*
X-267980Y-708750D01*
X-273060Y-711290D01*
X-292320D02*
X-289780Y-706210D01*
X-292320Y-701130D01*
X-287240Y-703670D01*
X-282160Y-701130D01*
X-284700Y-706210D01*
X-282160Y-711290D01*
X-287240Y-708750D01*
X-292320Y-711290D01*
X-254220Y-685890D02*
X-251680Y-680810D01*
X-254220Y-675730D01*
X-249140Y-678270D01*
X-244060Y-675730D01*
X-246600Y-680810D01*
X-244060Y-685890D01*
X-249140Y-683350D01*
X-254220Y-685890D01*
X-273060D02*
X-270520Y-680810D01*
X-273060Y-675730D01*
X-267980Y-678270D01*
X-262900Y-675730D01*
X-265440Y-680810D01*
X-262900Y-685890D01*
X-267980Y-683350D01*
X-273060Y-685890D01*
X-292320D02*
X-289780Y-680810D01*
X-292320Y-675730D01*
X-287240Y-678270D01*
X-282160Y-675730D01*
X-284700Y-680810D01*
X-282160Y-685890D01*
X-287240Y-683350D01*
X-292320Y-685890D01*
X-79880Y-761310D02*
X-77340Y-756230D01*
X-79880Y-751150D01*
X-74800Y-753690D01*
X-69720Y-751150D01*
X-72260Y-756230D01*
X-69720Y-761310D01*
X-74800Y-758770D01*
X-79880Y-761310D01*
X-98930D02*
X-96390Y-756230D01*
X-98930Y-751150D01*
X-93850Y-753690D01*
X-88770Y-751150D01*
X-91310Y-756230D01*
X-88770Y-761310D01*
X-93850Y-758770D01*
X-98930Y-761310D01*
X-117980D02*
X-115440Y-756230D01*
X-117980Y-751150D01*
X-112900Y-753690D01*
X-107820Y-751150D01*
X-110360Y-756230D01*
X-107820Y-761310D01*
X-112900Y-758770D01*
X-117980Y-761310D01*
X-79880Y-735910D02*
X-77340Y-730830D01*
X-79880Y-725750D01*
X-74800Y-728290D01*
X-69720Y-725750D01*
X-72260Y-730830D01*
X-69720Y-735910D01*
X-74800Y-733370D01*
X-79880Y-735910D01*
X-98930D02*
X-96390Y-730830D01*
X-98930Y-725750D01*
X-93850Y-728290D01*
X-88770Y-725750D01*
X-91310Y-730830D01*
X-88770Y-735910D01*
X-93850Y-733370D01*
X-98930Y-735910D01*
X-117980D02*
X-115440Y-730830D01*
X-117980Y-725750D01*
X-112900Y-728290D01*
X-107820Y-725750D01*
X-110360Y-730830D01*
X-107820Y-735910D01*
X-112900Y-733370D01*
X-117980Y-735910D01*
X-79880Y-710510D02*
X-77340Y-705430D01*
X-79880Y-700350D01*
X-74800Y-702890D01*
X-69720Y-700350D01*
X-72260Y-705430D01*
X-69720Y-710510D01*
X-74800Y-707970D01*
X-79880Y-710510D01*
X-98720D02*
X-96180Y-705430D01*
X-98720Y-700350D01*
X-93640Y-702890D01*
X-88560Y-700350D01*
X-91100Y-705430D01*
X-88560Y-710510D01*
X-93640Y-707970D01*
X-98720Y-710510D01*
X-117980D02*
X-115440Y-705430D01*
X-117980Y-700350D01*
X-112900Y-702890D01*
X-107820Y-700350D01*
X-110360Y-705430D01*
X-107820Y-710510D01*
X-112900Y-707970D01*
X-117980Y-710510D01*
X-79880Y-685110D02*
X-77340Y-680030D01*
X-79880Y-674950D01*
X-74800Y-677490D01*
X-69720Y-674950D01*
X-72260Y-680030D01*
X-69720Y-685110D01*
X-74800Y-682570D01*
X-79880Y-685110D01*
X-98720D02*
X-96180Y-680030D01*
X-98720Y-674950D01*
X-93640Y-677490D01*
X-88560Y-674950D01*
X-91100Y-680030D01*
X-88560Y-685110D01*
X-93640Y-682570D01*
X-98720Y-685110D01*
X-117980D02*
X-115440Y-680030D01*
X-117980Y-674950D01*
X-112900Y-677490D01*
X-107820Y-674950D01*
X-110360Y-680030D01*
X-107820Y-685110D01*
X-112900Y-682570D01*
X-117980Y-685110D01*
X95380Y-761310D02*
X97920Y-756230D01*
X95380Y-751150D01*
X100460Y-753690D01*
X105540Y-751150D01*
X103000Y-756230D01*
X105540Y-761310D01*
X100460Y-758770D01*
X95380Y-761310D01*
X76330D02*
X78870Y-756230D01*
X76330Y-751150D01*
X81410Y-753690D01*
X86490Y-751150D01*
X83950Y-756230D01*
X86490Y-761310D01*
X81410Y-758770D01*
X76330Y-761310D01*
X57280D02*
X59820Y-756230D01*
X57280Y-751150D01*
X62360Y-753690D01*
X67440Y-751150D01*
X64900Y-756230D01*
X67440Y-761310D01*
X62360Y-758770D01*
X57280Y-761310D01*
X95380Y-735910D02*
X97920Y-730830D01*
X95380Y-725750D01*
X100460Y-728290D01*
X105540Y-725750D01*
X103000Y-730830D01*
X105540Y-735910D01*
X100460Y-733370D01*
X95380Y-735910D01*
X76330D02*
X78870Y-730830D01*
X76330Y-725750D01*
X81410Y-728290D01*
X86490Y-725750D01*
X83950Y-730830D01*
X86490Y-735910D01*
X81410Y-733370D01*
X76330Y-735910D01*
X57280D02*
X59820Y-730830D01*
X57280Y-725750D01*
X62360Y-728290D01*
X67440Y-725750D01*
X64900Y-730830D01*
X67440Y-735910D01*
X62360Y-733370D01*
X57280Y-735910D01*
X95380Y-710510D02*
X97920Y-705430D01*
X95380Y-700350D01*
X100460Y-702890D01*
X105540Y-700350D01*
X103000Y-705430D01*
X105540Y-710510D01*
X100460Y-707970D01*
X95380Y-710510D01*
X76540D02*
X79080Y-705430D01*
X76540Y-700350D01*
X81620Y-702890D01*
X86700Y-700350D01*
X84160Y-705430D01*
X86700Y-710510D01*
X81620Y-707970D01*
X76540Y-710510D01*
X57280D02*
X59820Y-705430D01*
X57280Y-700350D01*
X62360Y-702890D01*
X67440Y-700350D01*
X64900Y-705430D01*
X67440Y-710510D01*
X62360Y-707970D01*
X57280Y-710510D01*
X95380Y-685110D02*
X97920Y-680030D01*
X95380Y-674950D01*
X100460Y-677490D01*
X105540Y-674950D01*
X103000Y-680030D01*
X105540Y-685110D01*
X100460Y-682570D01*
X95380Y-685110D01*
X76540D02*
X79080Y-680030D01*
X76540Y-674950D01*
X81620Y-677490D01*
X86700Y-674950D01*
X84160Y-680030D01*
X86700Y-685110D01*
X81620Y-682570D01*
X76540Y-685110D01*
X57280D02*
X59820Y-680030D01*
X57280Y-674950D01*
X62360Y-677490D01*
X67440Y-674950D01*
X64900Y-680030D01*
X67440Y-685110D01*
X62360Y-682570D01*
X57280Y-685110D01*
X269430Y-761800D02*
X271970Y-756720D01*
X269430Y-751640D01*
X274510Y-754180D01*
X279590Y-751640D01*
X277050Y-756720D01*
X279590Y-761800D01*
X274510Y-759260D01*
X269430Y-761800D01*
X250380D02*
X252920Y-756720D01*
X250380Y-751640D01*
X255460Y-754180D01*
X260540Y-751640D01*
X258000Y-756720D01*
X260540Y-761800D01*
X255460Y-759260D01*
X250380Y-761800D01*
X231330D02*
X233870Y-756720D01*
X231330Y-751640D01*
X236410Y-754180D01*
X241490Y-751640D01*
X238950Y-756720D01*
X241490Y-761800D01*
X236410Y-759260D01*
X231330Y-761800D01*
X269430Y-736400D02*
X271970Y-731320D01*
X269430Y-726240D01*
X274510Y-728780D01*
X279590Y-726240D01*
X277050Y-731320D01*
X279590Y-736400D01*
X274510Y-733860D01*
X269430Y-736400D01*
X250380D02*
X252920Y-731320D01*
X250380Y-726240D01*
X255460Y-728780D01*
X260540Y-726240D01*
X258000Y-731320D01*
X260540Y-736400D01*
X255460Y-733860D01*
X250380Y-736400D01*
X231330D02*
X233870Y-731320D01*
X231330Y-726240D01*
X236410Y-728780D01*
X241490Y-726240D01*
X238950Y-731320D01*
X241490Y-736400D01*
X236410Y-733860D01*
X231330Y-736400D01*
X269430Y-711000D02*
X271970Y-705920D01*
X269430Y-700840D01*
X274510Y-703380D01*
X279590Y-700840D01*
X277050Y-705920D01*
X279590Y-711000D01*
X274510Y-708460D01*
X269430Y-711000D01*
X250590D02*
X253130Y-705920D01*
X250590Y-700840D01*
X255670Y-703380D01*
X260750Y-700840D01*
X258210Y-705920D01*
X260750Y-711000D01*
X255670Y-708460D01*
X250590Y-711000D01*
X231330D02*
X233870Y-705920D01*
X231330Y-700840D01*
X236410Y-703380D01*
X241490Y-700840D01*
X238950Y-705920D01*
X241490Y-711000D01*
X236410Y-708460D01*
X231330Y-711000D01*
X269430Y-685600D02*
X271970Y-680520D01*
X269430Y-675440D01*
X274510Y-677980D01*
X279590Y-675440D01*
X277050Y-680520D01*
X279590Y-685600D01*
X274510Y-683060D01*
X269430Y-685600D01*
X250590D02*
X253130Y-680520D01*
X250590Y-675440D01*
X255670Y-677980D01*
X260750Y-675440D01*
X258210Y-680520D01*
X260750Y-685600D01*
X255670Y-683060D01*
X250590Y-685600D01*
X231330D02*
X233870Y-680520D01*
X231330Y-675440D01*
X236410Y-677980D01*
X241490Y-675440D01*
X238950Y-680520D01*
X241490Y-685600D01*
X236410Y-683060D01*
X231330Y-685600D01*
X444690Y-761800D02*
X447230Y-756720D01*
X444690Y-751640D01*
X449770Y-754180D01*
X454850Y-751640D01*
X452310Y-756720D01*
X454850Y-761800D01*
X449770Y-759260D01*
X444690Y-761800D01*
X425640D02*
X428180Y-756720D01*
X425640Y-751640D01*
X430720Y-754180D01*
X435800Y-751640D01*
X433260Y-756720D01*
X435800Y-761800D01*
X430720Y-759260D01*
X425640Y-761800D01*
X406590D02*
X409130Y-756720D01*
X406590Y-751640D01*
X411670Y-754180D01*
X416750Y-751640D01*
X414210Y-756720D01*
X416750Y-761800D01*
X411670Y-759260D01*
X406590Y-761800D01*
X444690Y-736400D02*
X447230Y-731320D01*
X444690Y-726240D01*
X449770Y-728780D01*
X454850Y-726240D01*
X452310Y-731320D01*
X454850Y-736400D01*
X449770Y-733860D01*
X444690Y-736400D01*
X425640D02*
X428180Y-731320D01*
X425640Y-726240D01*
X430720Y-728780D01*
X435800Y-726240D01*
X433260Y-731320D01*
X435800Y-736400D01*
X430720Y-733860D01*
X425640Y-736400D01*
X406590D02*
X409130Y-731320D01*
X406590Y-726240D01*
X411670Y-728780D01*
X416750Y-726240D01*
X414210Y-731320D01*
X416750Y-736400D01*
X411670Y-733860D01*
X406590Y-736400D01*
X444690Y-711000D02*
X447230Y-705920D01*
X444690Y-700840D01*
X449770Y-703380D01*
X454850Y-700840D01*
X452310Y-705920D01*
X454850Y-711000D01*
X449770Y-708460D01*
X444690Y-711000D01*
X425849D02*
X428389Y-705920D01*
X425849Y-700840D01*
X430929Y-703380D01*
X436009Y-700840D01*
X433469Y-705920D01*
X436009Y-711000D01*
X430929Y-708460D01*
X425849Y-711000D01*
X406590D02*
X409130Y-705920D01*
X406590Y-700840D01*
X411670Y-703380D01*
X416750Y-700840D01*
X414210Y-705920D01*
X416750Y-711000D01*
X411670Y-708460D01*
X406590Y-711000D01*
X444690Y-685600D02*
X447230Y-680520D01*
X444690Y-675440D01*
X449770Y-677980D01*
X454850Y-675440D01*
X452310Y-680520D01*
X454850Y-685600D01*
X449770Y-683060D01*
X444690Y-685600D01*
X425849D02*
X428389Y-680520D01*
X425849Y-675440D01*
X430929Y-677980D01*
X436009Y-675440D01*
X433469Y-680520D01*
X436009Y-685600D01*
X430929Y-683060D01*
X425849Y-685600D01*
X406590D02*
X409130Y-680520D01*
X406590Y-675440D01*
X411670Y-677980D01*
X416750Y-675440D01*
X414210Y-680520D01*
X416750Y-685600D01*
X411670Y-683060D01*
X406590Y-685600D01*
X618260Y-762180D02*
X620800Y-757100D01*
X618260Y-752020D01*
X623340Y-754560D01*
X628420Y-752020D01*
X625880Y-757100D01*
X628420Y-762180D01*
X623340Y-759640D01*
X618260Y-762180D01*
X599210D02*
X601750Y-757100D01*
X599210Y-752020D01*
X604290Y-754560D01*
X609370Y-752020D01*
X606830Y-757100D01*
X609370Y-762180D01*
X604290Y-759640D01*
X599210Y-762180D01*
X580160D02*
X582700Y-757100D01*
X580160Y-752020D01*
X585240Y-754560D01*
X590320Y-752020D01*
X587780Y-757100D01*
X590320Y-762180D01*
X585240Y-759640D01*
X580160Y-762180D01*
X618260Y-736780D02*
X620800Y-731700D01*
X618260Y-726620D01*
X623340Y-729160D01*
X628420Y-726620D01*
X625880Y-731700D01*
X628420Y-736780D01*
X623340Y-734240D01*
X618260Y-736780D01*
X599210D02*
X601750Y-731700D01*
X599210Y-726620D01*
X604290Y-729160D01*
X609370Y-726620D01*
X606830Y-731700D01*
X609370Y-736780D01*
X604290Y-734240D01*
X599210Y-736780D01*
X580160D02*
X582700Y-731700D01*
X580160Y-726620D01*
X585240Y-729160D01*
X590320Y-726620D01*
X587780Y-731700D01*
X590320Y-736780D01*
X585240Y-734240D01*
X580160Y-736780D01*
X618260Y-711380D02*
X620800Y-706300D01*
X618260Y-701220D01*
X623340Y-703760D01*
X628420Y-701220D01*
X625880Y-706300D01*
X628420Y-711380D01*
X623340Y-708840D01*
X618260Y-711380D01*
X599420D02*
X601960Y-706300D01*
X599420Y-701220D01*
X604500Y-703760D01*
X609580Y-701220D01*
X607040Y-706300D01*
X609580Y-711380D01*
X604500Y-708840D01*
X599420Y-711380D01*
X580160D02*
X582700Y-706300D01*
X580160Y-701220D01*
X585240Y-703760D01*
X590320Y-701220D01*
X587780Y-706300D01*
X590320Y-711380D01*
X585240Y-708840D01*
X580160Y-711380D01*
X618260Y-685980D02*
X620800Y-680900D01*
X618260Y-675820D01*
X623340Y-678360D01*
X628420Y-675820D01*
X625880Y-680900D01*
X628420Y-685980D01*
X623340Y-683440D01*
X618260Y-685980D01*
X599420D02*
X601960Y-680900D01*
X599420Y-675820D01*
X604500Y-678360D01*
X609580Y-675820D01*
X607040Y-680900D01*
X609580Y-685980D01*
X604500Y-683440D01*
X599420Y-685980D01*
X580160D02*
X582700Y-680900D01*
X580160Y-675820D01*
X585240Y-678360D01*
X590320Y-675820D01*
X587780Y-680900D01*
X590320Y-685980D01*
X585240Y-683440D01*
X580160Y-685980D01*
X755420Y-685980D02*
X757960Y-680900D01*
X755420Y-675820D01*
X760500Y-678360D01*
X765580Y-675820D01*
X763040Y-680900D01*
X765580Y-685980D01*
X760500Y-683440D01*
X755420Y-685980D01*
X774680D02*
X777220Y-680900D01*
X774680Y-675820D01*
X779760Y-678360D01*
X784840Y-675820D01*
X782300Y-680900D01*
X784840Y-685980D01*
X779760Y-683440D01*
X774680Y-685980D01*
X793520D02*
X796060Y-680900D01*
X793520Y-675820D01*
X798600Y-678360D01*
X803680Y-675820D01*
X801140Y-680900D01*
X803680Y-685980D01*
X798600Y-683440D01*
X793520Y-685980D01*
X755420Y-711380D02*
X757960Y-706300D01*
X755420Y-701220D01*
X760500Y-703760D01*
X765580Y-701220D01*
X763040Y-706300D01*
X765580Y-711380D01*
X760500Y-708840D01*
X755420Y-711380D01*
X774680D02*
X777220Y-706300D01*
X774680Y-701220D01*
X779760Y-703760D01*
X784840Y-701220D01*
X782300Y-706300D01*
X784840Y-711380D01*
X779760Y-708840D01*
X774680Y-711380D01*
X793520D02*
X796060Y-706300D01*
X793520Y-701220D01*
X798600Y-703760D01*
X803680Y-701220D01*
X801140Y-706300D01*
X803680Y-711380D01*
X798600Y-708840D01*
X793520Y-711380D01*
X755420Y-736780D02*
X757960Y-731700D01*
X755420Y-726620D01*
X760500Y-729160D01*
X765580Y-726620D01*
X763040Y-731700D01*
X765580Y-736780D01*
X760500Y-734240D01*
X755420Y-736780D01*
X774470D02*
X777010Y-731700D01*
X774470Y-726620D01*
X779550Y-729160D01*
X784630Y-726620D01*
X782090Y-731700D01*
X784630Y-736780D01*
X779550Y-734240D01*
X774470Y-736780D01*
X793520D02*
X796060Y-731700D01*
X793520Y-726620D01*
X798600Y-729160D01*
X803680Y-726620D01*
X801140Y-731700D01*
X803680Y-736780D01*
X798600Y-734240D01*
X793520Y-736780D01*
X755420Y-762180D02*
X757960Y-757100D01*
X755420Y-752020D01*
X760500Y-754560D01*
X765580Y-752020D01*
X763040Y-757100D01*
X765580Y-762180D01*
X760500Y-759640D01*
X755420Y-762180D01*
X774470D02*
X777010Y-757100D01*
X774470Y-752020D01*
X779550Y-754560D01*
X784630Y-752020D01*
X782090Y-757100D01*
X784630Y-762180D01*
X779550Y-759640D01*
X774470Y-762180D01*
X793520D02*
X796060Y-757100D01*
X793520Y-752020D01*
X798600Y-754560D01*
X803680Y-752020D01*
X801140Y-757100D01*
X803680Y-762180D01*
X798600Y-759640D01*
X793520Y-762180D01*
X784840Y-307684D02*
X787380Y-302604D01*
X784840Y-297524D01*
X789920Y-300064D01*
X795000Y-297524D01*
X792460Y-302604D01*
X795000Y-307684D01*
X789920Y-305144D01*
X784840Y-307684D01*
X801804Y-333682D02*
X804344Y-328602D01*
X801804Y-323522D01*
X806884Y-326062D01*
X811964Y-323522D01*
X809424Y-328602D01*
X811964Y-333682D01*
X806884Y-331142D01*
X801804Y-333682D01*
X801550Y-340286D02*
X804090Y-335206D01*
X801550Y-330126D01*
X806630Y-332666D01*
X811710Y-330126D01*
X809170Y-335206D01*
X811710Y-340286D01*
X806630Y-337746D01*
X801550Y-340286D01*
X801296Y-346890D02*
X803836Y-341810D01*
X801296Y-336730D01*
X806376Y-339270D01*
X811456Y-336730D01*
X808916Y-341810D01*
X811456Y-346890D01*
X806376Y-344350D01*
X801296Y-346890D01*
X801550Y-353494D02*
X804090Y-348414D01*
X801550Y-343334D01*
X806630Y-345874D01*
X811710Y-343334D01*
X809170Y-348414D01*
X811710Y-353494D01*
X806630Y-350954D01*
X801550Y-353494D01*
X101276Y-316970D02*
X103816Y-311890D01*
X101276Y-306810D01*
X106356Y-309350D01*
X111436Y-306810D01*
X108896Y-311890D01*
X111436Y-316970D01*
X106356Y-314430D01*
X101276Y-316970D01*
X110670Y-326570D02*
X113210Y-321490D01*
X110670Y-316410D01*
X115750Y-318950D01*
X120830Y-316410D01*
X118290Y-321490D01*
X120830Y-326570D01*
X115750Y-324030D01*
X110670Y-326570D01*
X110416Y-334444D02*
X112956Y-329364D01*
X110416Y-324284D01*
X115496Y-326824D01*
X120576Y-324284D01*
X118036Y-329364D01*
X120576Y-334444D01*
X115496Y-331904D01*
X110416Y-334444D01*
Y-341556D02*
X112956Y-336476D01*
X110416Y-331396D01*
X115496Y-333936D01*
X120576Y-331396D01*
X118036Y-336476D01*
X120576Y-341556D01*
X115496Y-339016D01*
X110416Y-341556D01*
Y-348668D02*
X112956Y-343588D01*
X110416Y-338508D01*
X115496Y-341048D01*
X120576Y-338508D01*
X118036Y-343588D01*
X120576Y-348668D01*
X115496Y-346128D01*
X110416Y-348668D01*
X-749624Y-330940D02*
X-747084Y-325860D01*
X-749624Y-320780D01*
X-744544Y-323320D01*
X-739464Y-320780D01*
X-742004Y-325860D01*
X-739464Y-330940D01*
X-744544Y-328400D01*
X-749624Y-330940D01*
X-739722Y-345366D02*
X-737182Y-340286D01*
X-739722Y-335206D01*
X-734642Y-337746D01*
X-729562Y-335206D01*
X-732102Y-340286D01*
X-729562Y-345366D01*
X-734642Y-342826D01*
X-739722Y-345366D01*
X-739976Y-339524D02*
X-737436Y-334444D01*
X-739976Y-329364D01*
X-734896Y-331904D01*
X-729816Y-329364D01*
X-732356Y-334444D01*
X-729816Y-339524D01*
X-734896Y-336984D01*
X-739976Y-339524D01*
X-735306Y-333330D02*
X-732766Y-328250D01*
X-735306Y-323170D01*
X-730226Y-325710D01*
X-725146Y-323170D01*
X-727686Y-328250D01*
X-725146Y-333330D01*
X-730226Y-330790D01*
X-735306Y-333330D01*
X-727686D02*
X-725146Y-328250D01*
X-727686Y-323170D01*
X-722606Y-325710D01*
X-717526Y-323170D01*
X-720066Y-328250D01*
X-717526Y-333330D01*
X-722606Y-330790D01*
X-727686Y-333330D01*
X-262710Y-342064D02*
X-260170Y-336984D01*
X-262710Y-331904D01*
X-257630Y-334444D01*
X-252550Y-331904D01*
X-255090Y-336984D01*
X-252550Y-342064D01*
X-257630Y-339524D01*
X-262710Y-342064D01*
X-260326Y-333330D02*
X-257786Y-328250D01*
X-260326Y-323170D01*
X-255246Y-325710D01*
X-250166Y-323170D01*
X-252706Y-328250D01*
X-250166Y-333330D01*
X-255246Y-330790D01*
X-260326Y-333330D01*
X-253214Y-332568D02*
X-250674Y-327488D01*
X-253214Y-322408D01*
X-248134Y-324948D01*
X-243054Y-322408D01*
X-245594Y-327488D01*
X-243054Y-332568D01*
X-248134Y-330028D01*
X-253214Y-332568D01*
X-282850Y-321444D02*
X-280310Y-316364D01*
X-282850Y-311284D01*
X-277770Y-313824D01*
X-272690Y-311284D01*
X-275230Y-316364D01*
X-272690Y-321444D01*
X-277770Y-318904D01*
X-282850Y-321444D01*
X-592002Y-225841D02*
X-589462Y-220761D01*
X-592002Y-215681D01*
X-586922Y-218221D01*
X-581842Y-215681D01*
X-584382Y-220761D01*
X-581842Y-225841D01*
X-586922Y-223301D01*
X-592002Y-225841D01*
X-276260Y-552230D02*
X-273720Y-547150D01*
X-276260Y-542070D01*
X-271180Y-544610D01*
X-266100Y-542070D01*
X-268640Y-547150D01*
X-266100Y-552230D01*
X-271180Y-549690D01*
X-276260Y-552230D01*
X73340Y-551451D02*
X75880Y-546371D01*
X73340Y-541291D01*
X78419Y-543830D01*
X83499Y-541291D01*
X80960Y-546371D01*
X83499Y-551451D01*
X78419Y-548910D01*
X73340Y-551451D01*
X101940Y-548300D02*
X104480Y-543220D01*
X101940Y-538140D01*
X107020Y-540680D01*
X112100Y-538140D01*
X109560Y-543220D01*
X112100Y-548300D01*
X107020Y-545760D01*
X101940Y-548300D01*
X735850Y-221800D02*
X738390Y-216720D01*
X735850Y-211640D01*
X740930Y-214180D01*
X746010Y-211640D01*
X743470Y-216720D01*
X746010Y-221800D01*
X740930Y-219260D01*
X735850Y-221800D01*
X613300Y-223110D02*
X615840Y-218030D01*
X613300Y-212950D01*
X618380Y-215490D01*
X623460Y-212950D01*
X620920Y-218030D01*
X623460Y-223110D01*
X618380Y-220570D01*
X613300Y-223110D01*
X449120Y-222150D02*
X451660Y-217070D01*
X449120Y-211990D01*
X454200Y-214530D01*
X459280Y-211990D01*
X456740Y-217070D01*
X459280Y-222150D01*
X454200Y-219610D01*
X449120Y-222150D01*
X469880Y-316800D02*
X472420Y-311720D01*
X469880Y-306640D01*
X474960Y-309180D01*
X480040Y-306640D01*
X477500Y-311720D01*
X480040Y-316800D01*
X474960Y-314260D01*
X469880Y-316800D01*
X338600Y-483710D02*
X341140Y-478630D01*
X338600Y-473550D01*
X343680Y-476090D01*
X348760Y-473550D01*
X346220Y-478630D01*
X348760Y-483710D01*
X343680Y-481170D01*
X338600Y-483710D01*
X224300D02*
X226840Y-478630D01*
X224300Y-473550D01*
X229380Y-476090D01*
X234460Y-473550D01*
X231920Y-478630D01*
X234460Y-483710D01*
X229380Y-481170D01*
X224300Y-483710D01*
X-128760Y-493870D02*
X-126220Y-488790D01*
X-128760Y-483710D01*
X-123680Y-486250D01*
X-118600Y-483710D01*
X-121140Y-488790D01*
X-118600Y-493870D01*
X-123680Y-491330D01*
X-128760Y-493870D01*
X-101921Y-551450D02*
X-99381Y-546370D01*
X-101921Y-541290D01*
X-96841Y-543830D01*
X-91761Y-541290D01*
X-94301Y-546370D01*
X-91761Y-551450D01*
X-96841Y-548910D01*
X-101921Y-551450D01*
X61410Y-266880D02*
X63950Y-261800D01*
X61410Y-256720D01*
X66490Y-259260D01*
X71570Y-256720D01*
X69030Y-261800D01*
X71570Y-266880D01*
X66490Y-264340D01*
X61410Y-266880D01*
X40980Y-307001D02*
X43520Y-301921D01*
X40980Y-296841D01*
X46060Y-299381D01*
X51140Y-296841D01*
X48600Y-301921D01*
X51140Y-307001D01*
X46060Y-304461D01*
X40980Y-307001D01*
X-41290Y-239600D02*
X-38750Y-234520D01*
X-41290Y-229440D01*
X-36210Y-231980D01*
X-31130Y-229440D01*
X-33670Y-234520D01*
X-31130Y-239600D01*
X-36210Y-237060D01*
X-41290Y-239600D01*
X-411662Y-242591D02*
X-409122Y-237511D01*
X-411662Y-232431D01*
X-406582Y-234971D01*
X-401502Y-232431D01*
X-404042Y-237511D01*
X-401502Y-242591D01*
X-406582Y-240051D01*
X-411662Y-242591D01*
X-618300Y-489550D02*
X-615760Y-484470D01*
X-618300Y-479390D01*
X-613220Y-481930D01*
X-608140Y-479390D01*
X-610680Y-484470D01*
X-608140Y-489550D01*
X-613220Y-487010D01*
X-618300Y-489550D01*
X-625160Y-552720D02*
X-622621Y-547640D01*
X-625160Y-542561D01*
X-620080Y-545101D01*
X-615000Y-542561D01*
X-617541Y-547640D01*
X-615000Y-552720D01*
X-620080Y-550181D01*
X-625160Y-552720D01*
X-466320Y-251640D02*
X-463780Y-246560D01*
X-466320Y-241480D01*
X-461240Y-244020D01*
X-456160Y-241480D01*
X-458700Y-246560D01*
X-456160Y-251640D01*
X-461240Y-249100D01*
X-466320Y-251640D01*
X-87860Y-241480D02*
X-85320Y-236400D01*
X-87860Y-231320D01*
X-82780Y-233860D01*
X-77700Y-231320D01*
X-80240Y-236400D01*
X-77700Y-241480D01*
X-82780Y-238940D01*
X-87860Y-241480D01*
X397280Y-226240D02*
X399820Y-221160D01*
X397280Y-216080D01*
X402360Y-218620D01*
X407440Y-216080D01*
X404900Y-221160D01*
X407440Y-226240D01*
X402360Y-223700D01*
X397280Y-226240D01*
X-474844Y-251640D02*
X-472304Y-246560D01*
X-474844Y-241480D01*
X-469764Y-244020D01*
X-464684Y-241480D01*
X-467224Y-246560D01*
X-464684Y-251640D01*
X-469764Y-249100D01*
X-474844Y-251640D01*
X-93887Y-235453D02*
X-91347Y-230373D01*
X-93887Y-225293D01*
X-88807Y-227833D01*
X-83727Y-225293D01*
X-86267Y-230373D01*
X-83727Y-235453D01*
X-88807Y-232913D01*
X-93887Y-235453D01*
X391253Y-220213D02*
X393793Y-215133D01*
X391253Y-210053D01*
X396333Y-212593D01*
X401413Y-210053D01*
X398873Y-215133D01*
X401413Y-220213D01*
X396333Y-217673D01*
X391253Y-220213D01*
X727480Y-251640D02*
X730020Y-246560D01*
X727480Y-241480D01*
X732560Y-244020D01*
X737640Y-241480D01*
X735100Y-246560D01*
X737640Y-251640D01*
X732560Y-249100D01*
X727480Y-251640D01*
X605560Y-245140D02*
X608100Y-240060D01*
X605560Y-234980D01*
X610640Y-237520D01*
X615720Y-234980D01*
X613180Y-240060D01*
X615720Y-245140D01*
X610640Y-242600D01*
X605560Y-245140D01*
X387120Y-259260D02*
X389660Y-254180D01*
X387120Y-249100D01*
X392200Y-251640D01*
X397280Y-249100D01*
X394740Y-254180D01*
X397280Y-259260D01*
X392200Y-256720D01*
X387120Y-259260D01*
X381093Y-253233D02*
X383633Y-248153D01*
X381093Y-243073D01*
X386173Y-245613D01*
X391253Y-243073D01*
X388713Y-248153D01*
X391253Y-253233D01*
X386173Y-250693D01*
X381093Y-253233D01*
X280440Y-592000D02*
X282980Y-586920D01*
X280440Y-581840D01*
X285520Y-584380D01*
X290600Y-581840D01*
X288060Y-586920D01*
X290600Y-592000D01*
X285520Y-589460D01*
X280440Y-592000D01*
Y-508180D02*
X282980Y-503100D01*
X280440Y-498020D01*
X285520Y-500560D01*
X290600Y-498020D01*
X288060Y-503100D01*
X290600Y-508180D01*
X285520Y-505640D01*
X280440Y-508180D01*
X399820Y-350700D02*
X402360Y-345620D01*
X399820Y-340540D01*
X404900Y-343080D01*
X409980Y-340540D01*
X407440Y-345620D01*
X409980Y-350700D01*
X404900Y-348160D01*
X399820Y-350700D01*
X366170Y-273870D02*
X368710Y-268790D01*
X366170Y-263710D01*
X371250Y-266250D01*
X376330Y-263710D01*
X373790Y-268790D01*
X376330Y-273870D01*
X371250Y-271330D01*
X366170Y-273870D01*
X453160Y-594540D02*
X455700Y-589460D01*
X453160Y-584380D01*
X458240Y-586920D01*
X463320Y-584380D01*
X460780Y-589460D01*
X463320Y-594540D01*
X458240Y-592000D01*
X453160Y-594540D01*
X372670Y-280370D02*
X375210Y-275290D01*
X372670Y-270210D01*
X377750Y-272750D01*
X382830Y-270210D01*
X380290Y-275290D01*
X382830Y-280370D01*
X377750Y-277830D01*
X372670Y-280370D01*
X491260Y-358320D02*
X493800Y-353240D01*
X491260Y-348160D01*
X496340Y-350700D01*
X501420Y-348160D01*
X498880Y-353240D01*
X501420Y-358320D01*
X496340Y-355780D01*
X491260Y-358320D01*
X393147Y-288793D02*
X395687Y-283713D01*
X393147Y-278633D01*
X398227Y-281173D01*
X403307Y-278633D01*
X400767Y-283713D01*
X403307Y-288793D01*
X398227Y-286253D01*
X393147Y-288793D01*
X491260Y-366844D02*
X493800Y-361764D01*
X491260Y-356684D01*
X496340Y-359224D01*
X501420Y-356684D01*
X498880Y-361764D01*
X501420Y-366844D01*
X496340Y-364304D01*
X491260Y-366844D01*
X387120Y-294820D02*
X389660Y-289740D01*
X387120Y-284660D01*
X392200Y-287200D01*
X397280Y-284660D01*
X394740Y-289740D01*
X397280Y-294820D01*
X392200Y-292280D01*
X387120Y-294820D01*
X539515Y-404035D02*
X542055Y-398955D01*
X539515Y-393875D01*
X544595Y-396415D01*
X549675Y-393875D01*
X547135Y-398955D01*
X549675Y-404035D01*
X544595Y-401495D01*
X539515Y-404035D01*
X531900Y-398960D02*
X534440Y-393880D01*
X531900Y-388800D01*
X536980Y-391340D01*
X542060Y-388800D01*
X539520Y-393880D01*
X542060Y-398960D01*
X536980Y-396420D01*
X531900Y-398960D01*
X399820Y-317680D02*
X402360Y-312600D01*
X399820Y-307520D01*
X404900Y-310060D01*
X409980Y-307520D01*
X407440Y-312600D01*
X409980Y-317680D01*
X404900Y-315140D01*
X399820Y-317680D01*
X406982Y-313058D02*
X409522Y-307978D01*
X406982Y-302898D01*
X412062Y-305438D01*
X417142Y-302898D01*
X414602Y-307978D01*
X417142Y-313058D01*
X412062Y-310518D01*
X406982Y-313058D01*
X768292Y-406580D02*
X770832Y-401500D01*
X768292Y-396420D01*
X773372Y-398960D01*
X778452Y-396420D01*
X775912Y-401500D01*
X778452Y-406580D01*
X773372Y-404040D01*
X768292Y-406580D01*
X759768D02*
X762308Y-401500D01*
X759768Y-396420D01*
X764848Y-398960D01*
X769928Y-396420D01*
X767388Y-401500D01*
X769928Y-406580D01*
X764848Y-404040D01*
X759768Y-406580D01*
X751244D02*
X753784Y-401500D01*
X751244Y-396420D01*
X756324Y-398960D01*
X761404Y-396420D01*
X758864Y-401500D01*
X761404Y-406580D01*
X756324Y-404040D01*
X751244Y-406580D01*
X742720D02*
X745260Y-401500D01*
X742720Y-396420D01*
X747800Y-398960D01*
X752880Y-396420D01*
X750340Y-401500D01*
X752880Y-406580D01*
X747800Y-404040D01*
X742720Y-406580D01*
X476535Y-259253D02*
X479075Y-254173D01*
X476535Y-249093D01*
X481615Y-251633D01*
X486695Y-249093D01*
X484155Y-254173D01*
X486695Y-259253D01*
X481615Y-256713D01*
X476535Y-259253D01*
X483640Y-266358D02*
X486180Y-261278D01*
X483640Y-256198D01*
X488720Y-258738D01*
X493800Y-256198D01*
X491260Y-261278D01*
X493800Y-266358D01*
X488720Y-263818D01*
X483640Y-266358D01*
X476535Y-273463D02*
X479075Y-268383D01*
X476535Y-263303D01*
X481615Y-265843D01*
X486695Y-263303D01*
X484155Y-268383D01*
X486695Y-273463D01*
X481615Y-270923D01*
X476535Y-273463D01*
X483640Y-280568D02*
X486180Y-275488D01*
X483640Y-270408D01*
X488720Y-272948D01*
X493800Y-270408D01*
X491260Y-275488D01*
X493800Y-280568D01*
X488720Y-278028D01*
X483640Y-280568D01*
X338860Y-429440D02*
X341400Y-424360D01*
X338860Y-419280D01*
X343940Y-421820D01*
X349020Y-419280D01*
X346480Y-424360D01*
X349020Y-429440D01*
X343940Y-426900D01*
X338860Y-429440D01*
X324104Y-428956D02*
X326644Y-423876D01*
X324104Y-418796D01*
X329184Y-421336D01*
X334264Y-418796D01*
X331724Y-423876D01*
X334264Y-428956D01*
X329184Y-426416D01*
X324104Y-428956D01*
X294733Y-291333D02*
X297273Y-286253D01*
X294733Y-281173D01*
X299813Y-283713D01*
X304893Y-281173D01*
X302353Y-286253D01*
X304893Y-291333D01*
X299813Y-288793D01*
X294733Y-291333D01*
X300760Y-297360D02*
X303300Y-292280D01*
X300760Y-287200D01*
X305840Y-289740D01*
X310920Y-287200D01*
X308380Y-292280D01*
X310920Y-297360D01*
X305840Y-294820D01*
X300760Y-297360D01*
X209320Y-429440D02*
X211860Y-424360D01*
X209320Y-419280D01*
X214400Y-421820D01*
X219480Y-419280D01*
X216940Y-424360D01*
X219480Y-429440D01*
X214400Y-426900D01*
X209320Y-429440D01*
X224560D02*
X227100Y-424360D01*
X224560Y-419280D01*
X229640Y-421820D01*
X234720Y-419280D01*
X232180Y-424360D01*
X234720Y-429440D01*
X229640Y-426900D01*
X224560Y-429440D01*
X288060Y-279580D02*
X290600Y-274500D01*
X288060Y-269420D01*
X293140Y-271960D01*
X298220Y-269420D01*
X295680Y-274500D01*
X298220Y-279580D01*
X293140Y-277040D01*
X288060Y-279580D01*
X282033Y-273553D02*
X284573Y-268473D01*
X282033Y-263393D01*
X287113Y-265933D01*
X292193Y-263393D01*
X289653Y-268473D01*
X292193Y-273553D01*
X287113Y-271013D01*
X282033Y-273553D01*
X3580Y-541200D02*
X6120Y-536120D01*
X3580Y-531040D01*
X8660Y-533580D01*
X13740Y-531040D01*
X11200Y-536120D01*
X13740Y-541200D01*
X8660Y-538660D01*
X3580Y-541200D01*
X-54840Y-508180D02*
X-52300Y-503100D01*
X-54840Y-498020D01*
X-49760Y-500560D01*
X-44680Y-498020D01*
X-47220Y-503100D01*
X-44680Y-508180D01*
X-49760Y-505640D01*
X-54840Y-508180D01*
X-70080Y-589460D02*
X-67540Y-584380D01*
X-70080Y-579300D01*
X-65000Y-581840D01*
X-59920Y-579300D01*
X-62460Y-584380D01*
X-59920Y-589460D01*
X-65000Y-586920D01*
X-70080Y-589460D01*
X-65000Y-510720D02*
X-62460Y-505640D01*
X-65000Y-500560D01*
X-59920Y-503100D01*
X-54840Y-500560D01*
X-57380Y-505640D01*
X-54840Y-510720D01*
X-59920Y-508180D01*
X-65000Y-510720D01*
X52379Y-405633D02*
X54919Y-400553D01*
X52379Y-395473D01*
X57459Y-398013D01*
X62539Y-395473D01*
X59999Y-400553D01*
X62539Y-405633D01*
X57459Y-403093D01*
X52379Y-405633D01*
X-20825Y-302955D02*
X-18285Y-297875D01*
X-20825Y-292795D01*
X-15745Y-295335D01*
X-10665Y-292795D01*
X-13205Y-297875D01*
X-10665Y-302955D01*
X-15745Y-300415D01*
X-20825Y-302955D01*
X46352Y-411660D02*
X48892Y-406580D01*
X46352Y-401500D01*
X51432Y-404040D01*
X56512Y-401500D01*
X53972Y-406580D01*
X56512Y-411660D01*
X51432Y-409120D01*
X46352Y-411660D01*
X-27930Y-310060D02*
X-25390Y-304980D01*
X-27930Y-299900D01*
X-22850Y-302440D01*
X-17770Y-299900D01*
X-20310Y-304980D01*
X-17770Y-310060D01*
X-22850Y-307520D01*
X-27930Y-310060D01*
X39247Y-404555D02*
X41787Y-399475D01*
X39247Y-394395D01*
X44327Y-396935D01*
X49407Y-394395D01*
X46867Y-399475D01*
X49407Y-404555D01*
X44327Y-402015D01*
X39247Y-404555D01*
X-35035Y-304980D02*
X-32495Y-299900D01*
X-35035Y-294820D01*
X-29955Y-297360D01*
X-24875Y-294820D01*
X-27415Y-299900D01*
X-24875Y-304980D01*
X-29955Y-302440D01*
X-35035Y-304980D01*
X32142Y-411660D02*
X34682Y-406580D01*
X32142Y-401500D01*
X37222Y-404040D01*
X42302Y-401500D01*
X39762Y-406580D01*
X42302Y-411660D01*
X37222Y-409120D01*
X32142Y-411660D01*
X-42140Y-310060D02*
X-39600Y-304980D01*
X-42140Y-299900D01*
X-37060Y-302440D01*
X-31980Y-299900D01*
X-34520Y-304980D01*
X-31980Y-310060D01*
X-37060Y-307520D01*
X-42140Y-310060D01*
X-128500Y-439600D02*
X-125960Y-434520D01*
X-128500Y-429440D01*
X-123420Y-431980D01*
X-118340Y-429440D01*
X-120880Y-434520D01*
X-118340Y-439600D01*
X-123420Y-437060D01*
X-128500Y-439600D01*
X-143740Y-434520D02*
X-141200Y-429440D01*
X-143740Y-424360D01*
X-138660Y-426900D01*
X-133580Y-424360D01*
X-136120Y-429440D01*
X-133580Y-434520D01*
X-138660Y-431980D01*
X-143740Y-434520D01*
X-156440Y-305948D02*
X-153900Y-300868D01*
X-156440Y-295788D01*
X-151360Y-298328D01*
X-146280Y-295788D01*
X-148820Y-300868D01*
X-146280Y-305948D01*
X-151360Y-303408D01*
X-156440Y-305948D01*
Y-315140D02*
X-153900Y-310060D01*
X-156440Y-304980D01*
X-151360Y-307520D01*
X-146280Y-304980D01*
X-148820Y-310060D01*
X-146280Y-315140D01*
X-151360Y-312600D01*
X-156440Y-315140D01*
X-245340Y-592000D02*
X-242800Y-586920D01*
X-245340Y-581840D01*
X-240260Y-584380D01*
X-235180Y-581840D01*
X-237720Y-586920D01*
X-235180Y-592000D01*
X-240260Y-589460D01*
X-245340Y-592000D01*
X-171680Y-312600D02*
X-169140Y-307520D01*
X-171680Y-302440D01*
X-166600Y-304980D01*
X-161520Y-302440D01*
X-164060Y-307520D01*
X-161520Y-312600D01*
X-166600Y-310060D01*
X-171680Y-312600D01*
X-423140Y-594540D02*
X-420600Y-589460D01*
X-423140Y-584380D01*
X-418060Y-586920D01*
X-412980Y-584380D01*
X-415520Y-589460D01*
X-412980Y-594540D01*
X-418060Y-592000D01*
X-423140Y-594540D01*
X-171680Y-302440D02*
X-169140Y-297360D01*
X-171680Y-292280D01*
X-166600Y-294820D01*
X-161520Y-292280D01*
X-164060Y-297360D01*
X-161520Y-302440D01*
X-166600Y-299900D01*
X-171680Y-302440D01*
X-344288Y-411884D02*
X-341748Y-406804D01*
X-344288Y-401724D01*
X-339208Y-404264D01*
X-334128Y-401724D01*
X-336668Y-406804D01*
X-334128Y-411884D01*
X-339208Y-409344D01*
X-344288Y-411884D01*
X-191888Y-282344D02*
X-189348Y-277264D01*
X-191888Y-272184D01*
X-186808Y-274724D01*
X-181728Y-272184D01*
X-184268Y-277264D01*
X-181728Y-282344D01*
X-186808Y-279804D01*
X-191888Y-282344D01*
X-344288Y-421932D02*
X-341748Y-416852D01*
X-344288Y-411772D01*
X-339208Y-414312D01*
X-334128Y-411772D01*
X-336668Y-416852D01*
X-334128Y-421932D01*
X-339208Y-419392D01*
X-344288Y-421932D01*
X-191888Y-292392D02*
X-189348Y-287312D01*
X-191888Y-282232D01*
X-186808Y-284772D01*
X-181728Y-282232D01*
X-184268Y-287312D01*
X-181728Y-292392D01*
X-186808Y-289852D01*
X-191888Y-292392D01*
X-334240Y-421932D02*
X-331700Y-416852D01*
X-334240Y-411772D01*
X-329160Y-414312D01*
X-324080Y-411772D01*
X-326620Y-416852D01*
X-324080Y-421932D01*
X-329160Y-419392D01*
X-334240Y-421932D01*
X-181840Y-292392D02*
X-179300Y-287312D01*
X-181840Y-282232D01*
X-176760Y-284772D01*
X-171680Y-282232D01*
X-174220Y-287312D01*
X-171680Y-292392D01*
X-176760Y-289852D01*
X-181840Y-292392D01*
X-339320Y-429440D02*
X-336780Y-424360D01*
X-339320Y-419280D01*
X-334240Y-421820D01*
X-329160Y-419280D01*
X-331700Y-424360D01*
X-329160Y-429440D01*
X-334240Y-426900D01*
X-339320Y-429440D01*
X-181840Y-302440D02*
X-179300Y-297360D01*
X-181840Y-292280D01*
X-176760Y-294820D01*
X-171680Y-292280D01*
X-174220Y-297360D01*
X-171680Y-302440D01*
X-176760Y-299900D01*
X-181840Y-302440D01*
X-542520Y-437060D02*
X-539980Y-431980D01*
X-542520Y-426900D01*
X-537440Y-429440D01*
X-532360Y-426900D01*
X-534900Y-431980D01*
X-532360Y-437060D01*
X-537440Y-434520D01*
X-542520Y-437060D01*
X-595860Y-594540D02*
X-593320Y-589460D01*
X-595860Y-584380D01*
X-590780Y-586920D01*
X-585700Y-584380D01*
X-588240Y-589460D01*
X-585700Y-594540D01*
X-590780Y-592000D01*
X-595860Y-594540D01*
X-771120D02*
X-768580Y-589460D01*
X-771120Y-584380D01*
X-766040Y-586920D01*
X-760960Y-584380D01*
X-763500Y-589460D01*
X-760960Y-594540D01*
X-766040Y-592000D01*
X-771120Y-594540D01*
X-694920Y-533580D02*
X-692380Y-528500D01*
X-694920Y-523420D01*
X-689840Y-525960D01*
X-684760Y-523420D01*
X-687300Y-528500D01*
X-684760Y-533580D01*
X-689840Y-531040D01*
X-694920Y-533580D01*
X-705080Y-541200D02*
X-702540Y-536120D01*
X-705080Y-531040D01*
X-700000Y-533580D01*
X-694920Y-531040D01*
X-697460Y-536120D01*
X-694920Y-541200D01*
X-700000Y-538660D01*
X-705080Y-541200D01*
X-639040Y-473524D02*
X-636500Y-468444D01*
X-639040Y-463364D01*
X-633960Y-465904D01*
X-628880Y-463364D01*
X-631420Y-468444D01*
X-628880Y-473524D01*
X-633960Y-470984D01*
X-639040Y-473524D01*
X-814300Y-546280D02*
X-811760Y-541200D01*
X-814300Y-536120D01*
X-809220Y-538660D01*
X-804140Y-536120D01*
X-806680Y-541200D01*
X-804140Y-546280D01*
X-809220Y-543740D01*
X-814300Y-546280D01*
X-639040Y-465000D02*
X-636500Y-459920D01*
X-639040Y-454840D01*
X-633960Y-457380D01*
X-628880Y-454840D01*
X-631420Y-459920D01*
X-628880Y-465000D01*
X-633960Y-462460D01*
X-639040Y-465000D01*
X-558707Y-293873D02*
X-556167Y-288793D01*
X-558707Y-283713D01*
X-553627Y-286253D01*
X-548547Y-283713D01*
X-551087Y-288793D01*
X-548547Y-293873D01*
X-553627Y-291333D01*
X-558707Y-293873D01*
X-552680Y-299900D02*
X-550140Y-294820D01*
X-552680Y-289740D01*
X-547600Y-292280D01*
X-542520Y-289740D01*
X-545060Y-294820D01*
X-542520Y-299900D01*
X-547600Y-297360D01*
X-552680Y-299900D01*
X-603480Y-305092D02*
X-600940Y-300012D01*
X-603480Y-294932D01*
X-598400Y-297472D01*
X-593320Y-294932D01*
X-595860Y-300012D01*
X-593320Y-305092D01*
X-598400Y-302552D01*
X-603480Y-305092D01*
Y-315140D02*
X-600940Y-310060D01*
X-603480Y-304980D01*
X-598400Y-307520D01*
X-593320Y-304980D01*
X-595860Y-310060D01*
X-593320Y-315140D01*
X-598400Y-312600D01*
X-603480Y-315140D01*
X-613528Y-305092D02*
X-610988Y-300012D01*
X-613528Y-294932D01*
X-608448Y-297472D01*
X-603368Y-294932D01*
X-605908Y-300012D01*
X-603368Y-305092D01*
X-608448Y-302552D01*
X-613528Y-305092D01*
Y-295044D02*
X-610988Y-289964D01*
X-613528Y-284884D01*
X-608448Y-287424D01*
X-603368Y-284884D01*
X-605908Y-289964D01*
X-603368Y-295044D01*
X-608448Y-292504D01*
X-613528Y-295044D01*
X-807168Y-421820D02*
X-804628Y-416740D01*
X-807168Y-411660D01*
X-802088Y-414200D01*
X-797008Y-411660D01*
X-799548Y-416740D01*
X-797008Y-421820D01*
X-802088Y-419280D01*
X-807168Y-421820D01*
X-800063Y-414715D02*
X-797523Y-409635D01*
X-800063Y-404555D01*
X-794983Y-407095D01*
X-789903Y-404555D01*
X-792443Y-409635D01*
X-789903Y-414715D01*
X-794983Y-412175D01*
X-800063Y-414715D01*
X-792958Y-421820D02*
X-790418Y-416740D01*
X-792958Y-411660D01*
X-787878Y-414200D01*
X-782798Y-411660D01*
X-785338Y-416740D01*
X-782798Y-421820D01*
X-787878Y-419280D01*
X-792958Y-421820D01*
X-781280Y-419280D02*
X-778740Y-414200D01*
X-781280Y-409120D01*
X-776200Y-411660D01*
X-771120Y-409120D01*
X-773660Y-414200D01*
X-771120Y-419280D01*
X-776200Y-416740D01*
X-781280Y-419280D01*
X-731180Y-394390D02*
Y-396930D01*
X-726100D01*
Y-394390D01*
X-723560D01*
Y-389310D01*
X-726100D01*
Y-386770D01*
X-731180D01*
Y-389310D01*
X-733720D01*
Y-394390D01*
X-731180D01*
X-162140Y-220400D02*
X-159600Y-215320D01*
X-162140Y-210240D01*
X-157060Y-212780D01*
X-151980Y-210240D01*
X-154520Y-215320D01*
X-151980Y-220400D01*
X-157060Y-217860D01*
X-162140Y-220400D01*
X-187540D02*
X-185000Y-215320D01*
X-187540Y-210240D01*
X-182460Y-212780D01*
X-177380Y-210240D01*
X-179920Y-215320D01*
X-177380Y-220400D01*
X-182460Y-217860D01*
X-187540Y-220400D01*
X-212940D02*
X-210400Y-215320D01*
X-212940Y-210240D01*
X-207860Y-212780D01*
X-202780Y-210240D01*
X-205320Y-215320D01*
X-202780Y-220400D01*
X-207860Y-217860D01*
X-212940Y-220400D01*
X-505100Y-799520D02*
Y-802060D01*
X-500020D01*
Y-799520D01*
X-497480D01*
Y-794440D01*
X-500020D01*
Y-791900D01*
X-505100D01*
Y-794440D01*
X-507640D01*
Y-799520D01*
X-505100D01*
Y-786820D02*
Y-789360D01*
X-500020D01*
Y-786820D01*
X-497480D01*
Y-781740D01*
X-500020D01*
Y-779200D01*
X-505100D01*
Y-781740D01*
X-507640D01*
Y-786820D01*
X-505100D01*
X-721020Y-622990D02*
Y-625530D01*
X-715940D01*
Y-622990D01*
X-713400D01*
Y-617910D01*
X-715940D01*
Y-615370D01*
X-721020D01*
Y-617910D01*
X-723560D01*
Y-622990D01*
X-721020D01*
Y-603940D02*
Y-606480D01*
X-715940D01*
Y-603940D01*
X-713400D01*
Y-598860D01*
X-715940D01*
Y-596320D01*
X-721020D01*
Y-598860D01*
X-723560D01*
Y-603940D01*
X-721020D01*
X-541950Y-622990D02*
Y-625530D01*
X-536870D01*
Y-622990D01*
X-534330D01*
Y-617910D01*
X-536870D01*
Y-615370D01*
X-541950D01*
Y-617910D01*
X-544490D01*
Y-622990D01*
X-541950D01*
Y-603940D02*
Y-606480D01*
X-536870D01*
Y-603940D01*
X-534330D01*
Y-598860D01*
X-536870D01*
Y-596320D01*
X-541950D01*
Y-598860D01*
X-544490D01*
Y-603940D01*
X-541950D01*
X-797880Y-483290D02*
Y-485830D01*
X-792800D01*
Y-483290D01*
X-790260D01*
Y-478210D01*
X-792800D01*
Y-475670D01*
X-797880D01*
Y-478210D01*
X-800420D01*
Y-483290D01*
X-797880D01*
X-156200Y-799030D02*
Y-801570D01*
X-151120D01*
Y-799030D01*
X-148580D01*
Y-793950D01*
X-151120D01*
Y-791410D01*
X-156200D01*
Y-793950D01*
X-158740D01*
Y-799030D01*
X-156200D01*
Y-786330D02*
Y-788870D01*
X-151120D01*
Y-786330D01*
X-148580D01*
Y-781250D01*
X-151120D01*
Y-778710D01*
X-156200D01*
Y-781250D01*
X-158740D01*
Y-786330D01*
X-156200D01*
X-372120Y-622500D02*
Y-625040D01*
X-367040D01*
Y-622500D01*
X-364500D01*
Y-617420D01*
X-367040D01*
Y-614880D01*
X-372120D01*
Y-617420D01*
X-374660D01*
Y-622500D01*
X-372120D01*
Y-603450D02*
Y-605990D01*
X-367040D01*
Y-603450D01*
X-364500D01*
Y-598370D01*
X-367040D01*
Y-595830D01*
X-372120D01*
Y-598370D01*
X-374660D01*
Y-603450D01*
X-372120D01*
X-193050Y-622500D02*
Y-625040D01*
X-187970D01*
Y-622500D01*
X-185430D01*
Y-617420D01*
X-187970D01*
Y-614880D01*
X-193050D01*
Y-617420D01*
X-195590D01*
Y-622500D01*
X-193050D01*
Y-603450D02*
Y-605990D01*
X-187970D01*
Y-603450D01*
X-185430D01*
Y-598370D01*
X-187970D01*
Y-595830D01*
X-193050D01*
Y-598370D01*
X-195590D01*
Y-603450D01*
X-193050D01*
X-321610Y-483290D02*
Y-485830D01*
X-316530D01*
Y-483290D01*
X-313990D01*
Y-478210D01*
X-316530D01*
Y-475670D01*
X-321610D01*
Y-478210D01*
X-324150D01*
Y-483290D01*
X-321610D01*
X-254910Y-394390D02*
Y-396930D01*
X-249830D01*
Y-394390D01*
X-247290D01*
Y-389310D01*
X-249830D01*
Y-386770D01*
X-254910D01*
Y-389310D01*
X-257450D01*
Y-394390D01*
X-254910D01*
X193400Y-798250D02*
Y-800790D01*
X198480D01*
Y-798250D01*
X201020D01*
Y-793170D01*
X198480D01*
Y-790630D01*
X193400D01*
Y-793170D01*
X190860D01*
Y-798250D01*
X193400D01*
Y-785550D02*
Y-788090D01*
X198480D01*
Y-785550D01*
X201020D01*
Y-780470D01*
X198480D01*
Y-777930D01*
X193400D01*
Y-780470D01*
X190860D01*
Y-785550D01*
X193400D01*
X-22520Y-602670D02*
Y-605210D01*
X-17440D01*
Y-602670D01*
X-14900D01*
Y-597590D01*
X-17440D01*
Y-595050D01*
X-22520D01*
Y-597590D01*
X-25060D01*
Y-602670D01*
X-22520D01*
Y-621720D02*
Y-624260D01*
X-17440D01*
Y-621720D01*
X-14900D01*
Y-616640D01*
X-17440D01*
Y-614100D01*
X-22520D01*
Y-616640D01*
X-25060D01*
Y-621720D01*
X-22520D01*
X156550Y-621720D02*
Y-624260D01*
X161630D01*
Y-621720D01*
X164170D01*
Y-616640D01*
X161630D01*
Y-614100D01*
X156550D01*
Y-616640D01*
X154010D01*
Y-621720D01*
X156550D01*
Y-602670D02*
Y-605210D01*
X161630D01*
Y-602670D01*
X164170D01*
Y-597590D01*
X161630D01*
Y-595050D01*
X156550D01*
Y-597590D01*
X154010D01*
Y-602670D01*
X156550D01*
X53020Y-469320D02*
Y-471860D01*
X58100D01*
Y-469320D01*
X60640D01*
Y-464240D01*
X58100D01*
Y-461700D01*
X53020D01*
Y-464240D01*
X50480D01*
Y-469320D01*
X53020D01*
X119720Y-380420D02*
Y-382960D01*
X124800D01*
Y-380420D01*
X127340D01*
Y-375340D01*
X124800D01*
Y-372800D01*
X119720D01*
Y-375340D01*
X117180D01*
Y-380420D01*
X119720D01*
X542710Y-798740D02*
Y-801280D01*
X547790D01*
Y-798740D01*
X550330D01*
Y-793660D01*
X547790D01*
Y-791120D01*
X542710D01*
Y-793660D01*
X540170D01*
Y-798740D01*
X542710D01*
Y-786040D02*
Y-788580D01*
X547790D01*
Y-786040D01*
X550330D01*
Y-780960D01*
X547790D01*
Y-778420D01*
X542710D01*
Y-780960D01*
X540170D01*
Y-786040D01*
X542710D01*
X326790Y-622210D02*
Y-624750D01*
X331870D01*
Y-622210D01*
X334410D01*
Y-617130D01*
X331870D01*
Y-614590D01*
X326790D01*
Y-617130D01*
X324250D01*
Y-622210D01*
X326790D01*
Y-603160D02*
Y-605700D01*
X331870D01*
Y-603160D01*
X334410D01*
Y-598080D01*
X331870D01*
Y-595540D01*
X326790D01*
Y-598080D01*
X324250D01*
Y-603160D01*
X326790D01*
X505860Y-622210D02*
Y-624750D01*
X510940D01*
Y-622210D01*
X513480D01*
Y-617130D01*
X510940D01*
Y-614590D01*
X505860D01*
Y-617130D01*
X503320D01*
Y-622210D01*
X505860D01*
Y-603160D02*
Y-605700D01*
X510940D01*
Y-603160D01*
X513480D01*
Y-598080D01*
X510940D01*
Y-595540D01*
X505860D01*
Y-598080D01*
X503320D01*
Y-603160D01*
X505860D01*
X516630Y-469810D02*
Y-472350D01*
X521710D01*
Y-469810D01*
X524250D01*
Y-464730D01*
X521710D01*
Y-462190D01*
X516630D01*
Y-464730D01*
X514090D01*
Y-469810D01*
X516630D01*
X583330Y-380910D02*
Y-383450D01*
X588410D01*
Y-380910D01*
X590950D01*
Y-375830D01*
X588410D01*
Y-373290D01*
X583330D01*
Y-375830D01*
X580790D01*
Y-380910D01*
X583330D01*
X675620Y-622590D02*
Y-625130D01*
X680700D01*
Y-622590D01*
X683240D01*
Y-617510D01*
X680700D01*
Y-614970D01*
X675620D01*
Y-617510D01*
X673080D01*
Y-622590D01*
X675620D01*
Y-603540D02*
Y-606080D01*
X680700D01*
Y-603540D01*
X683240D01*
Y-598460D01*
X680700D01*
Y-595920D01*
X675620D01*
Y-598460D01*
X673080D01*
Y-603540D01*
X675620D01*
X854690Y-622590D02*
Y-625130D01*
X859770D01*
Y-622590D01*
X862310D01*
Y-617510D01*
X859770D01*
Y-614970D01*
X854690D01*
Y-617510D01*
X852150D01*
Y-622590D01*
X854690D01*
Y-603540D02*
Y-606080D01*
X859770D01*
Y-603540D01*
X862310D01*
Y-598460D01*
X859770D01*
Y-595920D01*
X854690D01*
Y-598460D01*
X852150D01*
Y-603540D01*
X854690D01*
X891540Y-786420D02*
Y-788960D01*
X896620D01*
Y-786420D01*
X899160D01*
Y-781340D01*
X896620D01*
Y-778800D01*
X891540D01*
Y-781340D01*
X889000D01*
Y-786420D01*
X891540D01*
Y-799120D02*
Y-801660D01*
X896620D01*
Y-799120D01*
X899160D01*
Y-794040D01*
X896620D01*
Y-791500D01*
X891540D01*
Y-794040D01*
X889000D01*
Y-799120D01*
X891540D01*
X746080Y-470190D02*
Y-472730D01*
X751160D01*
Y-470190D01*
X753700D01*
Y-465110D01*
X751160D01*
Y-462570D01*
X746080D01*
Y-465110D01*
X743540D01*
Y-470190D01*
X746080D01*
X812780Y-381290D02*
Y-383830D01*
X817860D01*
Y-381290D01*
X820400D01*
Y-376210D01*
X817860D01*
Y-373670D01*
X812780D01*
Y-376210D01*
X810240D01*
Y-381290D01*
X812780D01*
X320160Y-208116D02*
X322700Y-203036D01*
X320160Y-197956D01*
X325240Y-200496D01*
X330320Y-197956D01*
X327780Y-203036D01*
X330320Y-208116D01*
X325240Y-205576D01*
X320160Y-208116D01*
X294760Y-208028D02*
X297300Y-202948D01*
X294760Y-197868D01*
X299840Y-200408D01*
X304920Y-197868D01*
X302380Y-202948D01*
X304920Y-208028D01*
X299840Y-205488D01*
X294760Y-208028D01*
X267360Y-207628D02*
X269900Y-202548D01*
X267360Y-197468D01*
X272440Y-200008D01*
X277520Y-197468D01*
X274980Y-202548D01*
X277520Y-207628D01*
X272440Y-205088D01*
X267360Y-207628D01*
X-566602Y-225841D02*
X-564062Y-220761D01*
X-566602Y-215681D01*
X-561522Y-218221D01*
X-556442Y-215681D01*
X-558982Y-220761D01*
X-556442Y-225841D01*
X-561522Y-223301D01*
X-566602Y-225841D01*
X-541202D02*
X-538662Y-220761D01*
X-541202Y-215681D01*
X-536122Y-218221D01*
X-531042Y-215681D01*
X-533582Y-220761D01*
X-531042Y-225841D01*
X-536122Y-223301D01*
X-541202Y-225841D01*
X313260Y-411120D02*
X315800D01*
X318340Y-408580D01*
X320880Y-411120D01*
X323420D01*
Y-408580D01*
X320880Y-406040D01*
X323420Y-403500D01*
Y-400960D01*
X320880D01*
X318340Y-403500D01*
X315800Y-400960D01*
X313260D01*
Y-403500D01*
X315800Y-406040D01*
X313260Y-408580D01*
Y-411120D01*
Y-399120D02*
X315800D01*
X318340Y-396580D01*
X320880Y-399120D01*
X323420D01*
Y-396580D01*
X320880Y-394040D01*
X323420Y-391500D01*
Y-388960D01*
X320880D01*
X318340Y-391500D01*
X315800Y-388960D01*
X313260D01*
Y-391500D01*
X315800Y-394040D01*
X313260Y-396580D01*
Y-399120D01*
Y-387120D02*
X315800D01*
X318340Y-384580D01*
X320880Y-387120D01*
X323420D01*
Y-384580D01*
X320880Y-382040D01*
X323420Y-379500D01*
Y-376960D01*
X320880D01*
X318340Y-379500D01*
X315800Y-376960D01*
X313260D01*
Y-379500D01*
X315800Y-382040D01*
X313260Y-384580D01*
Y-387120D01*
Y-375120D02*
X315800D01*
X318340Y-372580D01*
X320880Y-375120D01*
X323420D01*
Y-372580D01*
X320880Y-370040D01*
X323420Y-367500D01*
Y-364960D01*
X320880D01*
X318340Y-367500D01*
X315800Y-364960D01*
X313260D01*
Y-367500D01*
X315800Y-370040D01*
X313260Y-372580D01*
Y-375120D01*
X325260Y-411120D02*
X327800D01*
X330340Y-408580D01*
X332880Y-411120D01*
X335420D01*
Y-408580D01*
X332880Y-406040D01*
X335420Y-403500D01*
Y-400960D01*
X332880D01*
X330340Y-403500D01*
X327800Y-400960D01*
X325260D01*
Y-403500D01*
X327800Y-406040D01*
X325260Y-408580D01*
Y-411120D01*
Y-399120D02*
X327800D01*
X330340Y-396580D01*
X332880Y-399120D01*
X335420D01*
Y-396580D01*
X332880Y-394040D01*
X335420Y-391500D01*
Y-388960D01*
X332880D01*
X330340Y-391500D01*
X327800Y-388960D01*
X325260D01*
Y-391500D01*
X327800Y-394040D01*
X325260Y-396580D01*
Y-399120D01*
Y-387120D02*
X327800D01*
X330340Y-384580D01*
X332880Y-387120D01*
X335420D01*
Y-384580D01*
X332880Y-382040D01*
X335420Y-379500D01*
Y-376960D01*
X332880D01*
X330340Y-379500D01*
X327800Y-376960D01*
X325260D01*
Y-379500D01*
X327800Y-382040D01*
X325260Y-384580D01*
Y-387120D01*
Y-375120D02*
X327800D01*
X330340Y-372580D01*
X332880Y-375120D01*
X335420D01*
Y-372580D01*
X332880Y-370040D01*
X335420Y-367500D01*
Y-364960D01*
X332880D01*
X330340Y-367500D01*
X327800Y-364960D01*
X325260D01*
Y-367500D01*
X327800Y-370040D01*
X325260Y-372580D01*
Y-375120D01*
X337260Y-411120D02*
X339800D01*
X342340Y-408580D01*
X344880Y-411120D01*
X347420D01*
Y-408580D01*
X344880Y-406040D01*
X347420Y-403500D01*
Y-400960D01*
X344880D01*
X342340Y-403500D01*
X339800Y-400960D01*
X337260D01*
Y-403500D01*
X339800Y-406040D01*
X337260Y-408580D01*
Y-411120D01*
Y-399120D02*
X339800D01*
X342340Y-396580D01*
X344880Y-399120D01*
X347420D01*
Y-396580D01*
X344880Y-394040D01*
X347420Y-391500D01*
Y-388960D01*
X344880D01*
X342340Y-391500D01*
X339800Y-388960D01*
X337260D01*
Y-391500D01*
X339800Y-394040D01*
X337260Y-396580D01*
Y-399120D01*
Y-387120D02*
X339800D01*
X342340Y-384580D01*
X344880Y-387120D01*
X347420D01*
Y-384580D01*
X344880Y-382040D01*
X347420Y-379500D01*
Y-376960D01*
X344880D01*
X342340Y-379500D01*
X339800Y-376960D01*
X337260D01*
Y-379500D01*
X339800Y-382040D01*
X337260Y-384580D01*
Y-387120D01*
Y-375120D02*
X339800D01*
X342340Y-372580D01*
X344880Y-375120D01*
X347420D01*
Y-372580D01*
X344880Y-370040D01*
X347420Y-367500D01*
Y-364960D01*
X344880D01*
X342340Y-367500D01*
X339800Y-364960D01*
X337260D01*
Y-367500D01*
X339800Y-370040D01*
X337260Y-372580D01*
Y-375120D01*
X349260Y-411120D02*
X351800D01*
X354340Y-408580D01*
X356880Y-411120D01*
X359420D01*
Y-408580D01*
X356880Y-406040D01*
X359420Y-403500D01*
Y-400960D01*
X356880D01*
X354340Y-403500D01*
X351800Y-400960D01*
X349260D01*
Y-403500D01*
X351800Y-406040D01*
X349260Y-408580D01*
Y-411120D01*
Y-399120D02*
X351800D01*
X354340Y-396580D01*
X356880Y-399120D01*
X359420D01*
Y-396580D01*
X356880Y-394040D01*
X359420Y-391500D01*
Y-388960D01*
X356880D01*
X354340Y-391500D01*
X351800Y-388960D01*
X349260D01*
Y-391500D01*
X351800Y-394040D01*
X349260Y-396580D01*
Y-399120D01*
Y-387120D02*
X351800D01*
X354340Y-384580D01*
X356880Y-387120D01*
X359420D01*
Y-384580D01*
X356880Y-382040D01*
X359420Y-379500D01*
Y-376960D01*
X356880D01*
X354340Y-379500D01*
X351800Y-376960D01*
X349260D01*
Y-379500D01*
X351800Y-382040D01*
X349260Y-384580D01*
Y-387120D01*
Y-375120D02*
X351800D01*
X354340Y-372580D01*
X356880Y-375120D01*
X359420D01*
Y-372580D01*
X356880Y-370040D01*
X359420Y-367500D01*
Y-364960D01*
X356880D01*
X354340Y-367500D01*
X351800Y-364960D01*
X349260D01*
Y-367500D01*
X351800Y-370040D01*
X349260Y-372580D01*
Y-375120D01*
X361260Y-411120D02*
X363800D01*
X366340Y-408580D01*
X368880Y-411120D01*
X371420D01*
Y-408580D01*
X368880Y-406040D01*
X371420Y-403500D01*
Y-400960D01*
X368880D01*
X366340Y-403500D01*
X363800Y-400960D01*
X361260D01*
Y-403500D01*
X363800Y-406040D01*
X361260Y-408580D01*
Y-411120D01*
Y-399120D02*
X363800D01*
X366340Y-396580D01*
X368880Y-399120D01*
X371420D01*
Y-396580D01*
X368880Y-394040D01*
X371420Y-391500D01*
Y-388960D01*
X368880D01*
X366340Y-391500D01*
X363800Y-388960D01*
X361260D01*
Y-391500D01*
X363800Y-394040D01*
X361260Y-396580D01*
Y-399120D01*
Y-387120D02*
X363800D01*
X366340Y-384580D01*
X368880Y-387120D01*
X371420D01*
Y-384580D01*
X368880Y-382040D01*
X371420Y-379500D01*
Y-376960D01*
X368880D01*
X366340Y-379500D01*
X363800Y-376960D01*
X361260D01*
Y-379500D01*
X363800Y-382040D01*
X361260Y-384580D01*
Y-387120D01*
Y-375120D02*
X363800D01*
X366340Y-372580D01*
X368880Y-375120D01*
X371420D01*
Y-372580D01*
X368880Y-370040D01*
X371420Y-367500D01*
Y-364960D01*
X368880D01*
X366340Y-367500D01*
X363800Y-364960D01*
X361260D01*
Y-367500D01*
X363800Y-370040D01*
X361260Y-372580D01*
Y-375120D01*
X373260Y-411120D02*
X375800D01*
X378340Y-408580D01*
X380880Y-411120D01*
X383420D01*
Y-408580D01*
X380880Y-406040D01*
X383420Y-403500D01*
Y-400960D01*
X380880D01*
X378340Y-403500D01*
X375800Y-400960D01*
X373260D01*
Y-403500D01*
X375800Y-406040D01*
X373260Y-408580D01*
Y-411120D01*
Y-399120D02*
X375800D01*
X378340Y-396580D01*
X380880Y-399120D01*
X383420D01*
Y-396580D01*
X380880Y-394040D01*
X383420Y-391500D01*
Y-388960D01*
X380880D01*
X378340Y-391500D01*
X375800Y-388960D01*
X373260D01*
Y-391500D01*
X375800Y-394040D01*
X373260Y-396580D01*
Y-399120D01*
Y-387120D02*
X375800D01*
X378340Y-384580D01*
X380880Y-387120D01*
X383420D01*
Y-384580D01*
X380880Y-382040D01*
X383420Y-379500D01*
Y-376960D01*
X380880D01*
X378340Y-379500D01*
X375800Y-376960D01*
X373260D01*
Y-379500D01*
X375800Y-382040D01*
X373260Y-384580D01*
Y-387120D01*
Y-375120D02*
X375800D01*
X378340Y-372580D01*
X380880Y-375120D01*
X383420D01*
Y-372580D01*
X380880Y-370040D01*
X383420Y-367500D01*
Y-364960D01*
X380880D01*
X378340Y-367500D01*
X375800Y-364960D01*
X373260D01*
Y-367500D01*
X375800Y-370040D01*
X373260Y-372580D01*
Y-375120D01*
X198960Y-411120D02*
X201500D01*
X204040Y-408580D01*
X206580Y-411120D01*
X209120D01*
Y-408580D01*
X206580Y-406040D01*
X209120Y-403500D01*
Y-400960D01*
X206580D01*
X204040Y-403500D01*
X201500Y-400960D01*
X198960D01*
Y-403500D01*
X201500Y-406040D01*
X198960Y-408580D01*
Y-411120D01*
Y-399120D02*
X201500D01*
X204040Y-396580D01*
X206580Y-399120D01*
X209120D01*
Y-396580D01*
X206580Y-394040D01*
X209120Y-391500D01*
Y-388960D01*
X206580D01*
X204040Y-391500D01*
X201500Y-388960D01*
X198960D01*
Y-391500D01*
X201500Y-394040D01*
X198960Y-396580D01*
Y-399120D01*
Y-387120D02*
X201500D01*
X204040Y-384580D01*
X206580Y-387120D01*
X209120D01*
Y-384580D01*
X206580Y-382040D01*
X209120Y-379500D01*
Y-376960D01*
X206580D01*
X204040Y-379500D01*
X201500Y-376960D01*
X198960D01*
Y-379500D01*
X201500Y-382040D01*
X198960Y-384580D01*
Y-387120D01*
Y-375120D02*
X201500D01*
X204040Y-372580D01*
X206580Y-375120D01*
X209120D01*
Y-372580D01*
X206580Y-370040D01*
X209120Y-367500D01*
Y-364960D01*
X206580D01*
X204040Y-367500D01*
X201500Y-364960D01*
X198960D01*
Y-367500D01*
X201500Y-370040D01*
X198960Y-372580D01*
Y-375120D01*
X210960Y-411120D02*
X213500D01*
X216040Y-408580D01*
X218580Y-411120D01*
X221120D01*
Y-408580D01*
X218580Y-406040D01*
X221120Y-403500D01*
Y-400960D01*
X218580D01*
X216040Y-403500D01*
X213500Y-400960D01*
X210960D01*
Y-403500D01*
X213500Y-406040D01*
X210960Y-408580D01*
Y-411120D01*
Y-399120D02*
X213500D01*
X216040Y-396580D01*
X218580Y-399120D01*
X221120D01*
Y-396580D01*
X218580Y-394040D01*
X221120Y-391500D01*
Y-388960D01*
X218580D01*
X216040Y-391500D01*
X213500Y-388960D01*
X210960D01*
Y-391500D01*
X213500Y-394040D01*
X210960Y-396580D01*
Y-399120D01*
Y-387120D02*
X213500D01*
X216040Y-384580D01*
X218580Y-387120D01*
X221120D01*
Y-384580D01*
X218580Y-382040D01*
X221120Y-379500D01*
Y-376960D01*
X218580D01*
X216040Y-379500D01*
X213500Y-376960D01*
X210960D01*
Y-379500D01*
X213500Y-382040D01*
X210960Y-384580D01*
Y-387120D01*
Y-375120D02*
X213500D01*
X216040Y-372580D01*
X218580Y-375120D01*
X221120D01*
Y-372580D01*
X218580Y-370040D01*
X221120Y-367500D01*
Y-364960D01*
X218580D01*
X216040Y-367500D01*
X213500Y-364960D01*
X210960D01*
Y-367500D01*
X213500Y-370040D01*
X210960Y-372580D01*
Y-375120D01*
X222960Y-411120D02*
X225500D01*
X228040Y-408580D01*
X230580Y-411120D01*
X233120D01*
Y-408580D01*
X230580Y-406040D01*
X233120Y-403500D01*
Y-400960D01*
X230580D01*
X228040Y-403500D01*
X225500Y-400960D01*
X222960D01*
Y-403500D01*
X225500Y-406040D01*
X222960Y-408580D01*
Y-411120D01*
Y-399120D02*
X225500D01*
X228040Y-396580D01*
X230580Y-399120D01*
X233120D01*
Y-396580D01*
X230580Y-394040D01*
X233120Y-391500D01*
Y-388960D01*
X230580D01*
X228040Y-391500D01*
X225500Y-388960D01*
X222960D01*
Y-391500D01*
X225500Y-394040D01*
X222960Y-396580D01*
Y-399120D01*
Y-387120D02*
X225500D01*
X228040Y-384580D01*
X230580Y-387120D01*
X233120D01*
Y-384580D01*
X230580Y-382040D01*
X233120Y-379500D01*
Y-376960D01*
X230580D01*
X228040Y-379500D01*
X225500Y-376960D01*
X222960D01*
Y-379500D01*
X225500Y-382040D01*
X222960Y-384580D01*
Y-387120D01*
Y-375120D02*
X225500D01*
X228040Y-372580D01*
X230580Y-375120D01*
X233120D01*
Y-372580D01*
X230580Y-370040D01*
X233120Y-367500D01*
Y-364960D01*
X230580D01*
X228040Y-367500D01*
X225500Y-364960D01*
X222960D01*
Y-367500D01*
X225500Y-370040D01*
X222960Y-372580D01*
Y-375120D01*
X234960Y-411120D02*
X237500D01*
X240040Y-408580D01*
X242580Y-411120D01*
X245120D01*
Y-408580D01*
X242580Y-406040D01*
X245120Y-403500D01*
Y-400960D01*
X242580D01*
X240040Y-403500D01*
X237500Y-400960D01*
X234960D01*
Y-403500D01*
X237500Y-406040D01*
X234960Y-408580D01*
Y-411120D01*
Y-399120D02*
X237500D01*
X240040Y-396580D01*
X242580Y-399120D01*
X245120D01*
Y-396580D01*
X242580Y-394040D01*
X245120Y-391500D01*
Y-388960D01*
X242580D01*
X240040Y-391500D01*
X237500Y-388960D01*
X234960D01*
Y-391500D01*
X237500Y-394040D01*
X234960Y-396580D01*
Y-399120D01*
Y-387120D02*
X237500D01*
X240040Y-384580D01*
X242580Y-387120D01*
X245120D01*
Y-384580D01*
X242580Y-382040D01*
X245120Y-379500D01*
Y-376960D01*
X242580D01*
X240040Y-379500D01*
X237500Y-376960D01*
X234960D01*
Y-379500D01*
X237500Y-382040D01*
X234960Y-384580D01*
Y-387120D01*
Y-375120D02*
X237500D01*
X240040Y-372580D01*
X242580Y-375120D01*
X245120D01*
Y-372580D01*
X242580Y-370040D01*
X245120Y-367500D01*
Y-364960D01*
X242580D01*
X240040Y-367500D01*
X237500Y-364960D01*
X234960D01*
Y-367500D01*
X237500Y-370040D01*
X234960Y-372580D01*
Y-375120D01*
X246960Y-411120D02*
X249500D01*
X252040Y-408580D01*
X254580Y-411120D01*
X257120D01*
Y-408580D01*
X254580Y-406040D01*
X257120Y-403500D01*
Y-400960D01*
X254580D01*
X252040Y-403500D01*
X249500Y-400960D01*
X246960D01*
Y-403500D01*
X249500Y-406040D01*
X246960Y-408580D01*
Y-411120D01*
Y-399120D02*
X249500D01*
X252040Y-396580D01*
X254580Y-399120D01*
X257120D01*
Y-396580D01*
X254580Y-394040D01*
X257120Y-391500D01*
Y-388960D01*
X254580D01*
X252040Y-391500D01*
X249500Y-388960D01*
X246960D01*
Y-391500D01*
X249500Y-394040D01*
X246960Y-396580D01*
Y-399120D01*
Y-387120D02*
X249500D01*
X252040Y-384580D01*
X254580Y-387120D01*
X257120D01*
Y-384580D01*
X254580Y-382040D01*
X257120Y-379500D01*
Y-376960D01*
X254580D01*
X252040Y-379500D01*
X249500Y-376960D01*
X246960D01*
Y-379500D01*
X249500Y-382040D01*
X246960Y-384580D01*
Y-387120D01*
Y-375120D02*
X249500D01*
X252040Y-372580D01*
X254580Y-375120D01*
X257120D01*
Y-372580D01*
X254580Y-370040D01*
X257120Y-367500D01*
Y-364960D01*
X254580D01*
X252040Y-367500D01*
X249500Y-364960D01*
X246960D01*
Y-367500D01*
X249500Y-370040D01*
X246960Y-372580D01*
Y-375120D01*
X258960Y-411120D02*
X261500D01*
X264040Y-408580D01*
X266580Y-411120D01*
X269120D01*
Y-408580D01*
X266580Y-406040D01*
X269120Y-403500D01*
Y-400960D01*
X266580D01*
X264040Y-403500D01*
X261500Y-400960D01*
X258960D01*
Y-403500D01*
X261500Y-406040D01*
X258960Y-408580D01*
Y-411120D01*
Y-399120D02*
X261500D01*
X264040Y-396580D01*
X266580Y-399120D01*
X269120D01*
Y-396580D01*
X266580Y-394040D01*
X269120Y-391500D01*
Y-388960D01*
X266580D01*
X264040Y-391500D01*
X261500Y-388960D01*
X258960D01*
Y-391500D01*
X261500Y-394040D01*
X258960Y-396580D01*
Y-399120D01*
Y-387120D02*
X261500D01*
X264040Y-384580D01*
X266580Y-387120D01*
X269120D01*
Y-384580D01*
X266580Y-382040D01*
X269120Y-379500D01*
Y-376960D01*
X266580D01*
X264040Y-379500D01*
X261500Y-376960D01*
X258960D01*
Y-379500D01*
X261500Y-382040D01*
X258960Y-384580D01*
Y-387120D01*
Y-375120D02*
X261500D01*
X264040Y-372580D01*
X266580Y-375120D01*
X269120D01*
Y-372580D01*
X266580Y-370040D01*
X269120Y-367500D01*
Y-364960D01*
X266580D01*
X264040Y-367500D01*
X261500Y-364960D01*
X258960D01*
Y-367500D01*
X261500Y-370040D01*
X258960Y-372580D01*
Y-375120D01*
X-154100Y-385280D02*
X-151560D01*
X-149020Y-382740D01*
X-146480Y-385280D01*
X-143940D01*
Y-382740D01*
X-146480Y-380200D01*
X-143940Y-377660D01*
Y-375120D01*
X-146480D01*
X-149020Y-377660D01*
X-151560Y-375120D01*
X-154100D01*
Y-377660D01*
X-151560Y-380200D01*
X-154100Y-382740D01*
Y-385280D01*
X-142100D02*
X-139560D01*
X-137020Y-382740D01*
X-134480Y-385280D01*
X-131940D01*
Y-382740D01*
X-134480Y-380200D01*
X-131940Y-377660D01*
Y-375120D01*
X-134480D01*
X-137020Y-377660D01*
X-139560Y-375120D01*
X-142100D01*
Y-377660D01*
X-139560Y-380200D01*
X-142100Y-382740D01*
Y-385280D01*
X-130100D02*
X-127560D01*
X-125020Y-382740D01*
X-122480Y-385280D01*
X-119940D01*
Y-382740D01*
X-122480Y-380200D01*
X-119940Y-377660D01*
Y-375120D01*
X-122480D01*
X-125020Y-377660D01*
X-127560Y-375120D01*
X-130100D01*
Y-377660D01*
X-127560Y-380200D01*
X-130100Y-382740D01*
Y-385280D01*
X-154100Y-397280D02*
X-151560D01*
X-149020Y-394740D01*
X-146480Y-397280D01*
X-143940D01*
Y-394740D01*
X-146480Y-392200D01*
X-143940Y-389660D01*
Y-387120D01*
X-146480D01*
X-149020Y-389660D01*
X-151560Y-387120D01*
X-154100D01*
Y-389660D01*
X-151560Y-392200D01*
X-154100Y-394740D01*
Y-397280D01*
X-142100D02*
X-139560D01*
X-137020Y-394740D01*
X-134480Y-397280D01*
X-131940D01*
Y-394740D01*
X-134480Y-392200D01*
X-131940Y-389660D01*
Y-387120D01*
X-134480D01*
X-137020Y-389660D01*
X-139560Y-387120D01*
X-142100D01*
Y-389660D01*
X-139560Y-392200D01*
X-142100Y-394740D01*
Y-397280D01*
X-154100Y-409280D02*
X-151560D01*
X-149020Y-406740D01*
X-146480Y-409280D01*
X-143940D01*
Y-406740D01*
X-146480Y-404200D01*
X-143940Y-401660D01*
Y-399120D01*
X-146480D01*
X-149020Y-401660D01*
X-151560Y-399120D01*
X-154100D01*
Y-401660D01*
X-151560Y-404200D01*
X-154100Y-406740D01*
Y-409280D01*
X-142100D02*
X-139560D01*
X-137020Y-406740D01*
X-134480Y-409280D01*
X-131940D01*
Y-406740D01*
X-134480Y-404200D01*
X-131940Y-401660D01*
Y-399120D01*
X-134480D01*
X-137020Y-401660D01*
X-139560Y-399120D01*
X-142100D01*
Y-401660D01*
X-139560Y-404200D01*
X-142100Y-406740D01*
Y-409280D01*
X-130100Y-397280D02*
X-127560D01*
X-125020Y-394740D01*
X-122480Y-397280D01*
X-119940D01*
Y-394740D01*
X-122480Y-392200D01*
X-119940Y-389660D01*
Y-387120D01*
X-122480D01*
X-125020Y-389660D01*
X-127560Y-387120D01*
X-130100D01*
Y-389660D01*
X-127560Y-392200D01*
X-130100Y-394740D01*
Y-397280D01*
Y-409280D02*
X-127560D01*
X-125020Y-406740D01*
X-122480Y-409280D01*
X-119940D01*
Y-406740D01*
X-122480Y-404200D01*
X-119940Y-401660D01*
Y-399120D01*
X-122480D01*
X-125020Y-401660D01*
X-127560Y-399120D01*
X-130100D01*
Y-401660D01*
X-127560Y-404200D01*
X-130100Y-406740D01*
Y-409280D01*
X-118100Y-385280D02*
X-115560D01*
X-113020Y-382740D01*
X-110480Y-385280D01*
X-107940D01*
Y-382740D01*
X-110480Y-380200D01*
X-107940Y-377660D01*
Y-375120D01*
X-110480D01*
X-113020Y-377660D01*
X-115560Y-375120D01*
X-118100D01*
Y-377660D01*
X-115560Y-380200D01*
X-118100Y-382740D01*
Y-385280D01*
Y-409280D02*
X-115560D01*
X-113020Y-406740D01*
X-110480Y-409280D01*
X-107940D01*
Y-406740D01*
X-110480Y-404200D01*
X-107940Y-401660D01*
Y-399120D01*
X-110480D01*
X-113020Y-401660D01*
X-115560Y-399120D01*
X-118100D01*
Y-401660D01*
X-115560Y-404200D01*
X-118100Y-406740D01*
Y-409280D01*
Y-397280D02*
X-115560D01*
X-113020Y-394740D01*
X-110480Y-397280D01*
X-107940D01*
Y-394740D01*
X-110480Y-392200D01*
X-107940Y-389660D01*
Y-387120D01*
X-110480D01*
X-113020Y-389660D01*
X-115560Y-387120D01*
X-118100D01*
Y-389660D01*
X-115560Y-392200D01*
X-118100Y-394740D01*
Y-397280D01*
X-106100Y-385280D02*
X-103560D01*
X-101020Y-382740D01*
X-98480Y-385280D01*
X-95940D01*
Y-382740D01*
X-98480Y-380200D01*
X-95940Y-377660D01*
Y-375120D01*
X-98480D01*
X-101020Y-377660D01*
X-103560Y-375120D01*
X-106100D01*
Y-377660D01*
X-103560Y-380200D01*
X-106100Y-382740D01*
Y-385280D01*
X-94100D02*
X-91560D01*
X-89020Y-382740D01*
X-86480Y-385280D01*
X-83940D01*
Y-382740D01*
X-86480Y-380200D01*
X-83940Y-377660D01*
Y-375120D01*
X-86480D01*
X-89020Y-377660D01*
X-91560Y-375120D01*
X-94100D01*
Y-377660D01*
X-91560Y-380200D01*
X-94100Y-382740D01*
Y-385280D01*
X-106100Y-397280D02*
X-103560D01*
X-101020Y-394740D01*
X-98480Y-397280D01*
X-95940D01*
Y-394740D01*
X-98480Y-392200D01*
X-95940Y-389660D01*
Y-387120D01*
X-98480D01*
X-101020Y-389660D01*
X-103560Y-387120D01*
X-106100D01*
Y-389660D01*
X-103560Y-392200D01*
X-106100Y-394740D01*
Y-397280D01*
X-94100D02*
X-91560D01*
X-89020Y-394740D01*
X-86480Y-397280D01*
X-83940D01*
Y-394740D01*
X-86480Y-392200D01*
X-83940Y-389660D01*
Y-387120D01*
X-86480D01*
X-89020Y-389660D01*
X-91560Y-387120D01*
X-94100D01*
Y-389660D01*
X-91560Y-392200D01*
X-94100Y-394740D01*
Y-397280D01*
X-130100Y-421280D02*
X-127560D01*
X-125020Y-418740D01*
X-122480Y-421280D01*
X-119940D01*
Y-418740D01*
X-122480Y-416200D01*
X-119940Y-413660D01*
Y-411120D01*
X-122480D01*
X-125020Y-413660D01*
X-127560Y-411120D01*
X-130100D01*
Y-413660D01*
X-127560Y-416200D01*
X-130100Y-418740D01*
Y-421280D01*
X-118100D02*
X-115560D01*
X-113020Y-418740D01*
X-110480Y-421280D01*
X-107940D01*
Y-418740D01*
X-110480Y-416200D01*
X-107940Y-413660D01*
Y-411120D01*
X-110480D01*
X-113020Y-413660D01*
X-115560Y-411120D01*
X-118100D01*
Y-413660D01*
X-115560Y-416200D01*
X-118100Y-418740D01*
Y-421280D01*
X-154100D02*
X-151560D01*
X-149020Y-418740D01*
X-146480Y-421280D01*
X-143940D01*
Y-418740D01*
X-146480Y-416200D01*
X-143940Y-413660D01*
Y-411120D01*
X-146480D01*
X-149020Y-413660D01*
X-151560Y-411120D01*
X-154100D01*
Y-413660D01*
X-151560Y-416200D01*
X-154100Y-418740D01*
Y-421280D01*
X-142100D02*
X-139560D01*
X-137020Y-418740D01*
X-134480Y-421280D01*
X-131940D01*
Y-418740D01*
X-134480Y-416200D01*
X-131940Y-413660D01*
Y-411120D01*
X-134480D01*
X-137020Y-413660D01*
X-139560Y-411120D01*
X-142100D01*
Y-413660D01*
X-139560Y-416200D01*
X-142100Y-418740D01*
Y-421280D01*
X-106100Y-409280D02*
X-103560D01*
X-101020Y-406740D01*
X-98480Y-409280D01*
X-95940D01*
Y-406740D01*
X-98480Y-404200D01*
X-95940Y-401660D01*
Y-399120D01*
X-98480D01*
X-101020Y-401660D01*
X-103560Y-399120D01*
X-106100D01*
Y-401660D01*
X-103560Y-404200D01*
X-106100Y-406740D01*
Y-409280D01*
X-94100Y-421280D02*
X-91560D01*
X-89020Y-418740D01*
X-86480Y-421280D01*
X-83940D01*
Y-418740D01*
X-86480Y-416200D01*
X-83940Y-413660D01*
Y-411120D01*
X-86480D01*
X-89020Y-413660D01*
X-91560Y-411120D01*
X-94100D01*
Y-413660D01*
X-91560Y-416200D01*
X-94100Y-418740D01*
Y-421280D01*
Y-409280D02*
X-91560D01*
X-89020Y-406740D01*
X-86480Y-409280D01*
X-83940D01*
Y-406740D01*
X-86480Y-404200D01*
X-83940Y-401660D01*
Y-399120D01*
X-86480D01*
X-89020Y-401660D01*
X-91560Y-399120D01*
X-94100D01*
Y-401660D01*
X-91560Y-404200D01*
X-94100Y-406740D01*
Y-409280D01*
X-106100Y-421280D02*
X-103560D01*
X-101020Y-418740D01*
X-98480Y-421280D01*
X-95940D01*
Y-418740D01*
X-98480Y-416200D01*
X-95940Y-413660D01*
Y-411120D01*
X-98480D01*
X-101020Y-413660D01*
X-103560Y-411120D01*
X-106100D01*
Y-413660D01*
X-103560Y-416200D01*
X-106100Y-418740D01*
Y-421280D01*
X-596320Y-394740D02*
X-593780D01*
X-591240Y-392200D01*
X-588700Y-394740D01*
X-586160D01*
Y-392200D01*
X-588700Y-389660D01*
X-586160Y-387120D01*
Y-384580D01*
X-588700D01*
X-591240Y-387120D01*
X-593780Y-384580D01*
X-596320D01*
Y-387120D01*
X-593780Y-389660D01*
X-596320Y-392200D01*
Y-394740D01*
X-644320Y-418740D02*
X-641780D01*
X-639240Y-416200D01*
X-636700Y-418740D01*
X-634160D01*
Y-416200D01*
X-636700Y-413660D01*
X-634160Y-411120D01*
Y-408580D01*
X-636700D01*
X-639240Y-411120D01*
X-641780Y-408580D01*
X-644320D01*
Y-411120D01*
X-641780Y-413660D01*
X-644320Y-416200D01*
Y-418740D01*
Y-406740D02*
X-641780D01*
X-639240Y-404200D01*
X-636700Y-406740D01*
X-634160D01*
Y-404200D01*
X-636700Y-401660D01*
X-634160Y-399120D01*
Y-396580D01*
X-636700D01*
X-639240Y-399120D01*
X-641780Y-396580D01*
X-644320D01*
Y-399120D01*
X-641780Y-401660D01*
X-644320Y-404200D01*
Y-406740D01*
Y-394740D02*
X-641780D01*
X-639240Y-392200D01*
X-636700Y-394740D01*
X-634160D01*
Y-392200D01*
X-636700Y-389660D01*
X-634160Y-387120D01*
Y-384580D01*
X-636700D01*
X-639240Y-387120D01*
X-641780Y-384580D01*
X-644320D01*
Y-387120D01*
X-641780Y-389660D01*
X-644320Y-392200D01*
Y-394740D01*
Y-382740D02*
X-641780D01*
X-639240Y-380200D01*
X-636700Y-382740D01*
X-634160D01*
Y-380200D01*
X-636700Y-377660D01*
X-634160Y-375120D01*
Y-372580D01*
X-636700D01*
X-639240Y-375120D01*
X-641780Y-372580D01*
X-644320D01*
Y-375120D01*
X-641780Y-377660D01*
X-644320Y-380200D01*
Y-382740D01*
X-632320Y-418740D02*
X-629780D01*
X-627240Y-416200D01*
X-624700Y-418740D01*
X-622160D01*
Y-416200D01*
X-624700Y-413660D01*
X-622160Y-411120D01*
Y-408580D01*
X-624700D01*
X-627240Y-411120D01*
X-629780Y-408580D01*
X-632320D01*
Y-411120D01*
X-629780Y-413660D01*
X-632320Y-416200D01*
Y-418740D01*
Y-406740D02*
X-629780D01*
X-627240Y-404200D01*
X-624700Y-406740D01*
X-622160D01*
Y-404200D01*
X-624700Y-401660D01*
X-622160Y-399120D01*
Y-396580D01*
X-624700D01*
X-627240Y-399120D01*
X-629780Y-396580D01*
X-632320D01*
Y-399120D01*
X-629780Y-401660D01*
X-632320Y-404200D01*
Y-406740D01*
Y-394740D02*
X-629780D01*
X-627240Y-392200D01*
X-624700Y-394740D01*
X-622160D01*
Y-392200D01*
X-624700Y-389660D01*
X-622160Y-387120D01*
Y-384580D01*
X-624700D01*
X-627240Y-387120D01*
X-629780Y-384580D01*
X-632320D01*
Y-387120D01*
X-629780Y-389660D01*
X-632320Y-392200D01*
Y-394740D01*
Y-382740D02*
X-629780D01*
X-627240Y-380200D01*
X-624700Y-382740D01*
X-622160D01*
Y-380200D01*
X-624700Y-377660D01*
X-622160Y-375120D01*
Y-372580D01*
X-624700D01*
X-627240Y-375120D01*
X-629780Y-372580D01*
X-632320D01*
Y-375120D01*
X-629780Y-377660D01*
X-632320Y-380200D01*
Y-382740D01*
X-620320Y-418740D02*
X-617780D01*
X-615240Y-416200D01*
X-612700Y-418740D01*
X-610160D01*
Y-416200D01*
X-612700Y-413660D01*
X-610160Y-411120D01*
Y-408580D01*
X-612700D01*
X-615240Y-411120D01*
X-617780Y-408580D01*
X-620320D01*
Y-411120D01*
X-617780Y-413660D01*
X-620320Y-416200D01*
Y-418740D01*
Y-406740D02*
X-617780D01*
X-615240Y-404200D01*
X-612700Y-406740D01*
X-610160D01*
Y-404200D01*
X-612700Y-401660D01*
X-610160Y-399120D01*
Y-396580D01*
X-612700D01*
X-615240Y-399120D01*
X-617780Y-396580D01*
X-620320D01*
Y-399120D01*
X-617780Y-401660D01*
X-620320Y-404200D01*
Y-406740D01*
Y-394740D02*
X-617780D01*
X-615240Y-392200D01*
X-612700Y-394740D01*
X-610160D01*
Y-392200D01*
X-612700Y-389660D01*
X-610160Y-387120D01*
Y-384580D01*
X-612700D01*
X-615240Y-387120D01*
X-617780Y-384580D01*
X-620320D01*
Y-387120D01*
X-617780Y-389660D01*
X-620320Y-392200D01*
Y-394740D01*
Y-382740D02*
X-617780D01*
X-615240Y-380200D01*
X-612700Y-382740D01*
X-610160D01*
Y-380200D01*
X-612700Y-377660D01*
X-610160Y-375120D01*
Y-372580D01*
X-612700D01*
X-615240Y-375120D01*
X-617780Y-372580D01*
X-620320D01*
Y-375120D01*
X-617780Y-377660D01*
X-620320Y-380200D01*
Y-382740D01*
X-608320Y-418740D02*
X-605780D01*
X-603240Y-416200D01*
X-600700Y-418740D01*
X-598160D01*
Y-416200D01*
X-600700Y-413660D01*
X-598160Y-411120D01*
Y-408580D01*
X-600700D01*
X-603240Y-411120D01*
X-605780Y-408580D01*
X-608320D01*
Y-411120D01*
X-605780Y-413660D01*
X-608320Y-416200D01*
Y-418740D01*
Y-406740D02*
X-605780D01*
X-603240Y-404200D01*
X-600700Y-406740D01*
X-598160D01*
Y-404200D01*
X-600700Y-401660D01*
X-598160Y-399120D01*
Y-396580D01*
X-600700D01*
X-603240Y-399120D01*
X-605780Y-396580D01*
X-608320D01*
Y-399120D01*
X-605780Y-401660D01*
X-608320Y-404200D01*
Y-406740D01*
Y-394740D02*
X-605780D01*
X-603240Y-392200D01*
X-600700Y-394740D01*
X-598160D01*
Y-392200D01*
X-600700Y-389660D01*
X-598160Y-387120D01*
Y-384580D01*
X-600700D01*
X-603240Y-387120D01*
X-605780Y-384580D01*
X-608320D01*
Y-387120D01*
X-605780Y-389660D01*
X-608320Y-392200D01*
Y-394740D01*
Y-382740D02*
X-605780D01*
X-603240Y-380200D01*
X-600700Y-382740D01*
X-598160D01*
Y-380200D01*
X-600700Y-377660D01*
X-598160Y-375120D01*
Y-372580D01*
X-600700D01*
X-603240Y-375120D01*
X-605780Y-372580D01*
X-608320D01*
Y-375120D01*
X-605780Y-377660D01*
X-608320Y-380200D01*
Y-382740D01*
X-596320Y-418740D02*
X-593780D01*
X-591240Y-416200D01*
X-588700Y-418740D01*
X-586160D01*
Y-416200D01*
X-588700Y-413660D01*
X-586160Y-411120D01*
Y-408580D01*
X-588700D01*
X-591240Y-411120D01*
X-593780Y-408580D01*
X-596320D01*
Y-411120D01*
X-593780Y-413660D01*
X-596320Y-416200D01*
Y-418740D01*
Y-406740D02*
X-593780D01*
X-591240Y-404200D01*
X-588700Y-406740D01*
X-586160D01*
Y-404200D01*
X-588700Y-401660D01*
X-586160Y-399120D01*
Y-396580D01*
X-588700D01*
X-591240Y-399120D01*
X-593780Y-396580D01*
X-596320D01*
Y-399120D01*
X-593780Y-401660D01*
X-596320Y-404200D01*
Y-406740D01*
Y-382740D02*
X-593780D01*
X-591240Y-380200D01*
X-588700Y-382740D01*
X-586160D01*
Y-380200D01*
X-588700Y-377660D01*
X-586160Y-375120D01*
Y-372580D01*
X-588700D01*
X-591240Y-375120D01*
X-593780Y-372580D01*
X-596320D01*
Y-375120D01*
X-593780Y-377660D01*
X-596320Y-380200D01*
Y-382740D01*
X-584320Y-418740D02*
X-581780D01*
X-579240Y-416200D01*
X-576700Y-418740D01*
X-574160D01*
Y-416200D01*
X-576700Y-413660D01*
X-574160Y-411120D01*
Y-408580D01*
X-576700D01*
X-579240Y-411120D01*
X-581780Y-408580D01*
X-584320D01*
Y-411120D01*
X-581780Y-413660D01*
X-584320Y-416200D01*
Y-418740D01*
Y-406740D02*
X-581780D01*
X-579240Y-404200D01*
X-576700Y-406740D01*
X-574160D01*
Y-404200D01*
X-576700Y-401660D01*
X-574160Y-399120D01*
Y-396580D01*
X-576700D01*
X-579240Y-399120D01*
X-581780Y-396580D01*
X-584320D01*
Y-399120D01*
X-581780Y-401660D01*
X-584320Y-404200D01*
Y-406740D01*
Y-394740D02*
X-581780D01*
X-579240Y-392200D01*
X-576700Y-394740D01*
X-574160D01*
Y-392200D01*
X-576700Y-389660D01*
X-574160Y-387120D01*
Y-384580D01*
X-576700D01*
X-579240Y-387120D01*
X-581780Y-384580D01*
X-584320D01*
Y-387120D01*
X-581780Y-389660D01*
X-584320Y-392200D01*
Y-394740D01*
Y-382740D02*
X-581780D01*
X-579240Y-380200D01*
X-576700Y-382740D01*
X-574160D01*
Y-380200D01*
X-576700Y-377660D01*
X-574160Y-375120D01*
Y-372580D01*
X-576700D01*
X-579240Y-375120D01*
X-581780Y-372580D01*
X-584320D01*
Y-375120D01*
X-581780Y-377660D01*
X-584320Y-380200D01*
Y-382740D01*
X-582580Y-50080D02*
X-580040Y-45000D01*
X-582580Y-39920D01*
X-577500Y-42460D01*
X-572420Y-39920D01*
X-574960Y-45000D01*
X-572420Y-50080D01*
X-577500Y-47540D01*
X-582580Y-50080D01*
D83*
X-635420Y-16400D02*
G03*
X-635420Y-16400I-5080J0D01*
G01*
X-695420D02*
G03*
X-695420Y-16400I-5080J0D01*
G01*
X-424920D02*
G03*
X-424920Y-16400I-5080J0D01*
G01*
X-484920D02*
G03*
X-484920Y-16400I-5080J0D01*
G01*
X-219920D02*
G03*
X-219920Y-16400I-5080J0D01*
G01*
X-279920D02*
G03*
X-279920Y-16400I-5080J0D01*
G01*
M02*
