%FSLAX44Y44*%
%MOMM*%
G71*
G01*
G75*
G04 Layer_Physical_Order=1*
G04 Layer_Color=255*
%ADD10R,1.2000X1.3500*%
%ADD11R,1.4000X2.0000*%
%ADD12R,1.3500X1.2000*%
%ADD13R,2.0000X1.4000*%
%ADD14R,0.7000X0.8000*%
%ADD15R,0.8000X0.7000*%
%ADD16R,2.8000X1.3500*%
%ADD17R,1.3000X0.8000*%
%ADD18R,5.3500X8.5400*%
%ADD19R,0.8900X3.0600*%
%ADD20O,0.3500X2.2000*%
%ADD21O,0.3500X1.5500*%
%ADD22R,1.3500X2.8000*%
%ADD23O,0.6000X2.2000*%
%ADD24O,2.1000X0.4500*%
%ADD25O,0.6000X1.8000*%
%ADD26R,7.4000X5.0000*%
%ADD27C,1.0160*%
%ADD28C,0.1524*%
%ADD29C,0.7620*%
%ADD30C,0.2540*%
%ADD31C,0.5080*%
%ADD32C,0.6350*%
%ADD33C,0.2032*%
%ADD34C,0.3048*%
%ADD35R,177.7702X1.3208*%
%ADD36C,2.0000*%
G04:AMPARAMS|DCode=37|XSize=2mm|YSize=2mm|CornerRadius=0.5mm|HoleSize=0mm|Usage=FLASHONLY|Rotation=180.000|XOffset=0mm|YOffset=0mm|HoleType=Round|Shape=RoundedRectangle|*
%AMROUNDEDRECTD37*
21,1,2.0000,1.0000,0,0,180.0*
21,1,1.0000,2.0000,0,0,180.0*
1,1,1.0000,-0.5000,0.5000*
1,1,1.0000,0.5000,0.5000*
1,1,1.0000,0.5000,-0.5000*
1,1,1.0000,-0.5000,-0.5000*
%
%ADD37ROUNDEDRECTD37*%
%ADD38C,7.0000*%
%ADD39C,6.0000*%
%ADD40C,0.7000*%
%ADD41C,1.2700*%
%ADD42C,0.6600*%
G36*
X401205Y-564444D02*
X405881D01*
Y-573296D01*
X401205D01*
Y-585066D01*
X393355Y-592916D01*
X392738Y-593840D01*
X392521Y-594930D01*
X392521Y-594930D01*
Y-615860D01*
X392521Y-615860D01*
X392738Y-616950D01*
X393355Y-617875D01*
X402681Y-627200D01*
Y-631396D01*
X399820D01*
Y-630380D01*
X394100D01*
Y-648220D01*
X392830D01*
Y-649490D01*
X385840D01*
Y-659700D01*
X380130D01*
Y-621600D01*
X337981D01*
X337143Y-620645D01*
X337272Y-619670D01*
X337001Y-617615D01*
X336208Y-615699D01*
X334946Y-614055D01*
X333473Y-612925D01*
Y-607366D01*
X334946Y-606236D01*
X336208Y-604591D01*
X337001Y-602676D01*
X337272Y-600620D01*
X337001Y-598565D01*
X336208Y-596649D01*
X334946Y-595004D01*
X333301Y-593742D01*
X331870Y-593149D01*
Y-560640D01*
X401205D01*
Y-564444D01*
D02*
G37*
G36*
X-544013Y-537159D02*
X-544258Y-537479D01*
X-544924Y-539086D01*
X-545151Y-540810D01*
X-545151Y-540810D01*
Y-563588D01*
X-545199Y-563705D01*
Y-563705D01*
D01*
Y-593449D01*
X-545135Y-593605D01*
X-545168Y-593771D01*
X-544900Y-594171D01*
X-544716Y-594615D01*
X-544716D01*
X-544452Y-595333D01*
X-544449Y-595342D01*
X-545026Y-595784D01*
X-546288Y-597429D01*
X-547082Y-599344D01*
X-547352Y-601400D01*
X-547082Y-603456D01*
X-546288Y-605371D01*
X-545026Y-607016D01*
X-543554Y-608145D01*
Y-613705D01*
X-545026Y-614834D01*
X-546288Y-616479D01*
X-547082Y-618395D01*
X-547352Y-620450D01*
X-547082Y-622506D01*
X-546288Y-624421D01*
X-545026Y-626066D01*
X-543554Y-627196D01*
Y-635176D01*
X-547684D01*
Y-650224D01*
X-531136D01*
Y-638453D01*
X-529965Y-637961D01*
X-507660Y-659820D01*
Y-730910D01*
X-507750D01*
Y-730910D01*
X-515770D01*
Y-747450D01*
X-517040D01*
Y-748720D01*
X-526330D01*
Y-763960D01*
X-535600D01*
Y-724990D01*
X-529910D01*
Y-715700D01*
Y-706410D01*
X-535600D01*
Y-699590D01*
X-529910D01*
Y-690300D01*
Y-681010D01*
X-537180D01*
Y-682641D01*
X-538353Y-683127D01*
X-555920Y-665560D01*
X-571790D01*
Y-650270D01*
X-578780D01*
Y-649000D01*
X-580050D01*
Y-631160D01*
X-583361D01*
X-583847Y-629987D01*
X-578780Y-624920D01*
Y-617040D01*
X-577820D01*
Y-617040D01*
X-570550D01*
Y-607750D01*
Y-598460D01*
X-577820D01*
Y-598460D01*
X-577882D01*
X-578780Y-597562D01*
Y-575649D01*
X-574354D01*
Y-580324D01*
X-557806D01*
Y-565276D01*
X-574354D01*
Y-569951D01*
X-578780D01*
Y-536020D01*
X-544575D01*
X-544013Y-537159D01*
D02*
G37*
G36*
X-297704Y-564734D02*
X-293029D01*
Y-573586D01*
X-297704D01*
Y-585356D01*
X-305554Y-593206D01*
X-306172Y-594130D01*
X-306389Y-595220D01*
X-306389Y-595220D01*
Y-616150D01*
X-306389Y-616150D01*
X-306172Y-617240D01*
X-305554Y-618164D01*
X-296229Y-627490D01*
Y-631686D01*
X-299090D01*
Y-630670D01*
X-304810D01*
Y-648510D01*
X-306080D01*
Y-649780D01*
X-313070D01*
Y-659990D01*
X-318780D01*
Y-621890D01*
X-360929D01*
X-361766Y-620935D01*
X-361638Y-619960D01*
X-361909Y-617905D01*
X-362702Y-615989D01*
X-363964Y-614344D01*
X-365436Y-613215D01*
Y-607655D01*
X-363964Y-606526D01*
X-362702Y-604881D01*
X-361909Y-602966D01*
X-361638Y-600910D01*
X-361909Y-598854D01*
X-362702Y-596939D01*
X-363964Y-595294D01*
X-365609Y-594032D01*
X-367040Y-593439D01*
Y-560930D01*
X-297704D01*
Y-564734D01*
D02*
G37*
G36*
X-646604Y-565224D02*
X-641929D01*
Y-574076D01*
X-646604D01*
Y-585846D01*
X-654455Y-593696D01*
X-655072Y-594620D01*
X-655289Y-595710D01*
X-655289Y-595710D01*
Y-616640D01*
X-655289Y-616640D01*
X-655072Y-617730D01*
X-654455Y-618655D01*
X-645129Y-627980D01*
Y-632176D01*
X-647990D01*
Y-631160D01*
X-653710D01*
Y-649000D01*
X-654980D01*
Y-650270D01*
X-661970D01*
Y-660480D01*
X-667680D01*
Y-622380D01*
X-709829D01*
X-710667Y-621425D01*
X-710538Y-620450D01*
X-710809Y-618395D01*
X-711602Y-616479D01*
X-712864Y-614835D01*
X-714337Y-613705D01*
Y-608146D01*
X-712864Y-607016D01*
X-711602Y-605371D01*
X-710809Y-603456D01*
X-710538Y-601400D01*
X-710809Y-599345D01*
X-711602Y-597429D01*
X-712864Y-595784D01*
X-714509Y-594522D01*
X-715940Y-593929D01*
Y-561420D01*
X-646604D01*
Y-565224D01*
D02*
G37*
G36*
X750036Y-564824D02*
X754712D01*
Y-573676D01*
X750036D01*
Y-585445D01*
X742186Y-593296D01*
X741568Y-594220D01*
X741351Y-595310D01*
X741351Y-595310D01*
Y-616240D01*
X741351Y-616240D01*
X741568Y-617330D01*
X742186Y-618254D01*
X751511Y-627580D01*
Y-631776D01*
X748650D01*
Y-630760D01*
X742930D01*
Y-648600D01*
X741660D01*
Y-649870D01*
X734670D01*
Y-660080D01*
X728960D01*
Y-621980D01*
X686811D01*
X685974Y-621025D01*
X686102Y-620050D01*
X685831Y-617995D01*
X685038Y-616079D01*
X683776Y-614434D01*
X682304Y-613305D01*
Y-607745D01*
X683776Y-606616D01*
X685038Y-604971D01*
X685831Y-603055D01*
X686102Y-601000D01*
X685831Y-598945D01*
X685038Y-597029D01*
X683776Y-595384D01*
X682131Y-594122D01*
X680700Y-593529D01*
Y-561020D01*
X750036D01*
Y-564824D01*
D02*
G37*
G36*
X-717521Y-561255D02*
X-717590Y-561420D01*
Y-592677D01*
X-718480Y-593458D01*
X-720536Y-593729D01*
X-722451Y-594522D01*
X-724096Y-595784D01*
X-725358Y-597429D01*
X-726152Y-599345D01*
X-726422Y-601400D01*
X-726152Y-603456D01*
X-725358Y-605371D01*
X-724096Y-607016D01*
X-722624Y-608146D01*
Y-613705D01*
X-724096Y-614835D01*
X-725358Y-616479D01*
X-726152Y-618395D01*
X-726422Y-620450D01*
X-726152Y-622506D01*
X-725358Y-624421D01*
X-724096Y-626066D01*
X-722624Y-627196D01*
Y-635176D01*
X-726754D01*
Y-650224D01*
X-710206D01*
Y-646894D01*
X-709033Y-646408D01*
X-703240Y-652200D01*
X-675300Y-680140D01*
Y-766500D01*
X-715940D01*
Y-762974D01*
X-713876D01*
Y-731926D01*
X-715940D01*
Y-723974D01*
X-715376D01*
Y-707426D01*
X-715940D01*
Y-698574D01*
X-715376D01*
Y-682026D01*
X-715940D01*
Y-680140D01*
X-746420D01*
X-758547Y-668014D01*
X-758061Y-666840D01*
X-755310D01*
Y-649000D01*
Y-631160D01*
X-756741D01*
X-757227Y-629987D01*
X-754040Y-626800D01*
Y-617040D01*
X-753080D01*
Y-617040D01*
X-745810D01*
Y-607750D01*
Y-598460D01*
X-753080D01*
Y-598460D01*
X-753142D01*
X-754040Y-597562D01*
Y-575649D01*
X-749614D01*
Y-580324D01*
X-733066D01*
Y-565276D01*
X-749614D01*
Y-569951D01*
X-754040D01*
Y-535360D01*
X-717521D01*
Y-561255D01*
D02*
G37*
G36*
X51896Y-563954D02*
X56571D01*
Y-572806D01*
X51896D01*
Y-584576D01*
X44045Y-592426D01*
X43428Y-593350D01*
X43211Y-594440D01*
X43211Y-594440D01*
Y-615370D01*
X43211Y-615370D01*
X43428Y-616460D01*
X44045Y-617385D01*
X53371Y-626710D01*
Y-630906D01*
X50510D01*
Y-629890D01*
X44790D01*
Y-647730D01*
X43520D01*
Y-649000D01*
X36530D01*
Y-659210D01*
X30820D01*
Y-621110D01*
X-11329D01*
X-12167Y-620155D01*
X-12038Y-619180D01*
X-12309Y-617125D01*
X-13102Y-615209D01*
X-14364Y-613565D01*
X-15837Y-612435D01*
Y-606876D01*
X-14364Y-605746D01*
X-13102Y-604101D01*
X-12309Y-602186D01*
X-12038Y-600130D01*
X-12309Y-598075D01*
X-13102Y-596159D01*
X-14364Y-594514D01*
X-16009Y-593252D01*
X-17440Y-592659D01*
Y-560150D01*
X51896D01*
Y-563954D01*
D02*
G37*
G36*
X-132510Y-598140D02*
X-132510Y-598140D01*
Y-613990D01*
X-132049Y-614451D01*
Y-615370D01*
X-132049Y-615370D01*
X-131832Y-616460D01*
X-131215Y-617385D01*
X-126160Y-622439D01*
Y-629890D01*
X-130470D01*
Y-647730D01*
X-133010D01*
Y-629890D01*
X-138730D01*
D01*
X-138730D01*
X-138860Y-629761D01*
Y-620340D01*
X-145210Y-613990D01*
X-185356D01*
X-186366Y-613215D01*
Y-607655D01*
X-184894Y-606526D01*
X-183632Y-604881D01*
X-182839Y-602965D01*
X-182568Y-600910D01*
X-182839Y-598854D01*
X-183632Y-596939D01*
X-184894Y-595294D01*
X-186539Y-594032D01*
X-188454Y-593238D01*
X-189660Y-593080D01*
Y-563290D01*
X-183310Y-563190D01*
X-179130D01*
Y-570260D01*
X-160550D01*
Y-563190D01*
X-153730D01*
Y-570260D01*
X-135150D01*
Y-563190D01*
X-132510D01*
Y-598140D01*
D02*
G37*
G36*
X-533410Y-562808D02*
X-528730D01*
Y-563770D01*
X-528730D01*
Y-571040D01*
X-510150D01*
Y-563770D01*
X-510150D01*
Y-563706D01*
X-509252Y-562808D01*
X-503330D01*
Y-563770D01*
X-503330D01*
Y-571040D01*
X-484750D01*
Y-563770D01*
X-484750D01*
Y-563706D01*
X-483852Y-562808D01*
X-482610D01*
Y-597758D01*
X-482610Y-597758D01*
Y-613608D01*
X-481649Y-614569D01*
Y-616150D01*
X-481649Y-616150D01*
X-481432Y-617240D01*
X-480814Y-618164D01*
X-476260Y-622719D01*
Y-630670D01*
X-480070D01*
Y-648510D01*
X-482610D01*
Y-630670D01*
X-488330D01*
D01*
X-488330D01*
X-488960Y-630040D01*
Y-619958D01*
X-495310Y-613607D01*
X-535267Y-613607D01*
Y-608145D01*
X-533794Y-607016D01*
X-532532Y-605371D01*
X-531739Y-603456D01*
X-531468Y-601400D01*
X-531739Y-599344D01*
X-532532Y-597429D01*
X-533794Y-595784D01*
X-535439Y-594522D01*
X-537355Y-593729D01*
X-539410Y-593458D01*
X-541466Y-593729D01*
X-542494Y-594155D01*
X-543550Y-593449D01*
Y-563705D01*
X-542652Y-562807D01*
X-533410Y-562808D01*
D02*
G37*
G36*
X217570Y-593703D02*
X217478Y-593840D01*
X217261Y-594930D01*
X217261Y-594930D01*
Y-615860D01*
X217261Y-615860D01*
X217478Y-616950D01*
X218095Y-617875D01*
X223920Y-623699D01*
Y-630380D01*
X218840D01*
Y-648220D01*
X216300D01*
Y-630380D01*
X211220D01*
Y-619670D01*
X204870Y-613320D01*
X164387D01*
X163233Y-612435D01*
Y-606875D01*
X164706Y-605746D01*
X165968Y-604101D01*
X166761Y-602186D01*
X167032Y-600130D01*
X166761Y-598074D01*
X165968Y-596159D01*
X164706Y-594514D01*
X163061Y-593252D01*
X161145Y-592459D01*
X160420Y-592363D01*
Y-562620D01*
X166770Y-562520D01*
X170180D01*
Y-563480D01*
X170180D01*
Y-570750D01*
X188760D01*
Y-563480D01*
X188760D01*
Y-563418D01*
X189658Y-562520D01*
X195580D01*
Y-563480D01*
X195580D01*
Y-570750D01*
X214160D01*
Y-563480D01*
X214160D01*
Y-563418D01*
X215058Y-562520D01*
X217570D01*
Y-593703D01*
D02*
G37*
G36*
X-882310Y-563298D02*
X-877630D01*
Y-564260D01*
X-877630D01*
Y-571530D01*
X-859050D01*
Y-564260D01*
X-859050D01*
Y-564196D01*
X-858152Y-563298D01*
X-852230D01*
Y-564260D01*
X-852230D01*
Y-571530D01*
X-833650D01*
Y-564260D01*
X-833650D01*
Y-564196D01*
X-832752Y-563298D01*
X-831510D01*
Y-598248D01*
X-831510Y-598248D01*
Y-614098D01*
X-830549Y-615059D01*
Y-616640D01*
X-830549Y-616640D01*
X-830332Y-617730D01*
X-829715Y-618655D01*
X-825160Y-623209D01*
Y-631160D01*
X-828970D01*
Y-649000D01*
X-831510D01*
Y-631160D01*
X-837230D01*
D01*
X-837230D01*
X-837860Y-630530D01*
Y-620448D01*
X-844210Y-614098D01*
X-846700D01*
Y-613320D01*
X-879901D01*
X-880678Y-614098D01*
X-892450Y-614098D01*
Y-564196D01*
X-891552Y-563298D01*
X-882310Y-563298D01*
D02*
G37*
G36*
X566400Y-594082D02*
X566308Y-594220D01*
X566091Y-595310D01*
X566091Y-595310D01*
Y-616240D01*
X566091Y-616240D01*
X566308Y-617330D01*
X566926Y-618254D01*
X572750Y-624079D01*
Y-630760D01*
X567670D01*
Y-648600D01*
X565130D01*
Y-630760D01*
X560050D01*
Y-620050D01*
X553700Y-613700D01*
X513554D01*
X512543Y-612925D01*
Y-607365D01*
X514016Y-606236D01*
X515278Y-604591D01*
X516071Y-602676D01*
X516342Y-600620D01*
X516071Y-598564D01*
X515278Y-596649D01*
X514016Y-595004D01*
X512371Y-593742D01*
X510455Y-592949D01*
X509250Y-592790D01*
Y-563000D01*
X515600Y-562900D01*
X519010D01*
Y-563860D01*
X519010D01*
Y-571130D01*
X537590D01*
Y-563860D01*
X537590D01*
Y-563798D01*
X538488Y-562900D01*
X544410D01*
Y-563860D01*
X544410D01*
Y-571130D01*
X562990D01*
Y-563860D01*
X562990D01*
Y-563798D01*
X563888Y-562900D01*
X566400D01*
Y-594082D01*
D02*
G37*
G36*
X330289Y-560475D02*
X330220Y-560640D01*
Y-591897D01*
X329330Y-592678D01*
X327274Y-592949D01*
X325359Y-593742D01*
X323714Y-595004D01*
X322452Y-596649D01*
X321658Y-598565D01*
X321388Y-600620D01*
X321658Y-602676D01*
X322452Y-604591D01*
X323714Y-606236D01*
X325186Y-607366D01*
Y-612925D01*
X323714Y-614055D01*
X322452Y-615699D01*
X321658Y-617615D01*
X321388Y-619670D01*
X321658Y-621726D01*
X322452Y-623641D01*
X323714Y-625286D01*
X325186Y-626416D01*
Y-634396D01*
X321056D01*
Y-649444D01*
X337604D01*
Y-646114D01*
X338777Y-645628D01*
X344570Y-651420D01*
X372510Y-679360D01*
Y-765720D01*
X331870D01*
Y-762194D01*
X333934D01*
Y-731146D01*
X331870D01*
Y-723194D01*
X332434D01*
Y-706646D01*
X331870D01*
Y-697794D01*
X332434D01*
Y-681246D01*
X331870D01*
Y-679360D01*
X301390D01*
X289263Y-667234D01*
X289749Y-666060D01*
X292500D01*
Y-648220D01*
Y-630380D01*
X291069D01*
X290583Y-629207D01*
X293770Y-626020D01*
Y-616260D01*
X294730D01*
Y-616260D01*
X302000D01*
Y-606970D01*
Y-597680D01*
X294730D01*
Y-597680D01*
X294668D01*
X293770Y-596782D01*
Y-574869D01*
X298196D01*
Y-579544D01*
X314744D01*
Y-564496D01*
X298196D01*
Y-569171D01*
X293770D01*
Y-534580D01*
X330289D01*
Y-560475D01*
D02*
G37*
G36*
X505506Y-536414D02*
X504540Y-537380D01*
X503481Y-538760D01*
X502816Y-540366D01*
X502589Y-542090D01*
X502589Y-542090D01*
Y-565250D01*
X502589Y-565250D01*
X502816Y-566974D01*
X503481Y-568581D01*
X504540Y-569960D01*
X507130Y-572550D01*
Y-592845D01*
X506344Y-592949D01*
X504429Y-593742D01*
X502784Y-595004D01*
X501522Y-596649D01*
X500728Y-598564D01*
X500458Y-600620D01*
X500728Y-602676D01*
X501522Y-604591D01*
X502784Y-606236D01*
X504256Y-607365D01*
Y-612925D01*
X502784Y-614054D01*
X501522Y-615699D01*
X500728Y-617615D01*
X500458Y-619670D01*
X500728Y-621726D01*
X501522Y-623641D01*
X502784Y-625286D01*
X504256Y-626416D01*
Y-634396D01*
X500126D01*
Y-649444D01*
X516674D01*
Y-637673D01*
X517845Y-637181D01*
X540150Y-659040D01*
Y-730130D01*
X540060D01*
Y-730130D01*
X532040D01*
Y-746670D01*
X530770D01*
Y-747940D01*
X521480D01*
Y-763180D01*
X512210D01*
Y-724210D01*
X517900D01*
Y-714920D01*
Y-705630D01*
X512210D01*
Y-698810D01*
X517900D01*
Y-689520D01*
Y-680230D01*
X510630D01*
Y-681861D01*
X509457Y-682347D01*
X491890Y-664780D01*
X476020D01*
Y-649490D01*
X469030D01*
Y-648220D01*
X467760D01*
Y-630380D01*
X464449D01*
X463963Y-629207D01*
X469030Y-624140D01*
Y-616260D01*
X469990D01*
Y-616260D01*
X477260D01*
Y-606970D01*
Y-597680D01*
X469990D01*
Y-597680D01*
X469928D01*
X469030Y-596782D01*
Y-574869D01*
X473456D01*
Y-579544D01*
X490004D01*
Y-564496D01*
X473456D01*
Y-569171D01*
X469030D01*
Y-535240D01*
X505020D01*
X505506Y-536414D01*
D02*
G37*
G36*
X-19021Y-559985D02*
X-19090Y-560150D01*
Y-591407D01*
X-19980Y-592188D01*
X-22036Y-592459D01*
X-23951Y-593252D01*
X-25596Y-594514D01*
X-26858Y-596159D01*
X-27652Y-598075D01*
X-27922Y-600130D01*
X-27652Y-602186D01*
X-26858Y-604101D01*
X-25596Y-605746D01*
X-24124Y-606876D01*
Y-612435D01*
X-25596Y-613565D01*
X-26858Y-615209D01*
X-27652Y-617125D01*
X-27922Y-619180D01*
X-27652Y-621236D01*
X-26858Y-623151D01*
X-25596Y-624796D01*
X-24124Y-625926D01*
Y-633906D01*
X-28254D01*
Y-648954D01*
X-11706D01*
Y-645624D01*
X-10533Y-645138D01*
X-4740Y-650930D01*
X23200Y-678870D01*
Y-765230D01*
X-17440D01*
Y-761704D01*
X-15376D01*
Y-730656D01*
X-17440D01*
Y-722704D01*
X-16876D01*
Y-706156D01*
X-17440D01*
Y-697304D01*
X-16876D01*
Y-680756D01*
X-17440D01*
Y-678870D01*
X-47920D01*
X-60047Y-666743D01*
X-59561Y-665570D01*
X-56810D01*
Y-647730D01*
Y-629890D01*
X-58241D01*
X-58727Y-628717D01*
X-55540Y-625530D01*
Y-615770D01*
X-54580D01*
Y-615770D01*
X-47310D01*
Y-606480D01*
Y-597190D01*
X-54580D01*
Y-597190D01*
X-54642D01*
X-55540Y-596292D01*
Y-574379D01*
X-51114D01*
Y-579054D01*
X-34566D01*
Y-564006D01*
X-51114D01*
Y-568681D01*
X-55540D01*
Y-534090D01*
X-19021D01*
Y-559985D01*
D02*
G37*
G36*
X-367064Y-535780D02*
X-367121Y-537958D01*
X-367729Y-538750D01*
X-368394Y-540356D01*
X-368621Y-542080D01*
X-368621Y-542080D01*
Y-560765D01*
X-368690Y-560930D01*
Y-592187D01*
X-369580Y-592968D01*
X-371636Y-593239D01*
X-373551Y-594032D01*
X-375196Y-595294D01*
X-376458Y-596939D01*
X-377251Y-598854D01*
X-377522Y-600910D01*
X-377251Y-602966D01*
X-376458Y-604881D01*
X-375196Y-606526D01*
X-373724Y-607655D01*
Y-613215D01*
X-375196Y-614344D01*
X-376458Y-615989D01*
X-377251Y-617905D01*
X-377522Y-619960D01*
X-377251Y-622016D01*
X-376458Y-623931D01*
X-375196Y-625576D01*
X-373724Y-626706D01*
Y-634686D01*
X-377854D01*
Y-649734D01*
X-361306D01*
Y-646404D01*
X-360132Y-645918D01*
X-354340Y-651710D01*
X-326400Y-679650D01*
Y-766010D01*
X-367040D01*
Y-762484D01*
X-364976D01*
Y-731436D01*
X-367040D01*
Y-723484D01*
X-366476D01*
Y-706936D01*
X-367040D01*
Y-698084D01*
X-366476D01*
Y-681536D01*
X-367040D01*
Y-679650D01*
X-397520D01*
X-409647Y-667523D01*
X-409161Y-666350D01*
X-406410D01*
Y-648510D01*
Y-630670D01*
X-407841D01*
X-408327Y-629497D01*
X-405140Y-626310D01*
Y-616550D01*
X-404180D01*
Y-616550D01*
X-396910D01*
Y-607260D01*
Y-597970D01*
X-404180D01*
Y-597970D01*
X-404242D01*
X-405140Y-597072D01*
Y-575159D01*
X-400714D01*
Y-579834D01*
X-384166D01*
Y-564786D01*
X-400714D01*
Y-569461D01*
X-405140D01*
Y-534870D01*
X-367950D01*
X-367064Y-535780D01*
D02*
G37*
G36*
X440781Y-631396D02*
X437920D01*
Y-630380D01*
X432200D01*
Y-648220D01*
Y-666060D01*
X437920D01*
Y-665044D01*
X449604D01*
Y-665044D01*
X449604D01*
X449604Y-665044D01*
X450356D01*
Y-665044D01*
X462304D01*
Y-665044D01*
X462304D01*
X462304Y-665044D01*
X463056D01*
Y-665044D01*
X474479D01*
X474853Y-665947D01*
X476020Y-666430D01*
X491207D01*
X503833Y-679057D01*
X503347Y-680230D01*
X501440D01*
Y-689520D01*
Y-698810D01*
X504110D01*
Y-705630D01*
X501440D01*
Y-714920D01*
Y-724210D01*
X504110D01*
Y-727885D01*
X505179Y-728957D01*
X504692Y-730130D01*
X502540D01*
Y-746670D01*
Y-763210D01*
X510560D01*
Y-763210D01*
X510573D01*
X511043Y-764347D01*
X512210Y-764830D01*
X521480D01*
X522646Y-764347D01*
X523129Y-763180D01*
Y-762194D01*
X539044D01*
Y-731780D01*
X540060D01*
X540060Y-731780D01*
X540150D01*
X541316Y-731297D01*
X541799Y-730130D01*
Y-659040D01*
X541796Y-659032D01*
X541799Y-659024D01*
X541555Y-658450D01*
X541316Y-657874D01*
X541308Y-657870D01*
X541304Y-657862D01*
X522645Y-639576D01*
X523125Y-638400D01*
X533380D01*
Y-629110D01*
X534650D01*
Y-627840D01*
X551190D01*
Y-623869D01*
X553700D01*
X556240Y-621320D01*
X558400D01*
Y-630760D01*
X558884Y-631926D01*
X560050Y-632410D01*
X560426D01*
Y-665424D01*
X572374D01*
Y-665424D01*
X572374D01*
X572374Y-665424D01*
X573126D01*
Y-665424D01*
X585074D01*
Y-665424D01*
X585074D01*
X585074Y-665424D01*
X585826D01*
Y-665424D01*
X597510D01*
Y-666440D01*
X603230D01*
Y-648600D01*
Y-630760D01*
X597510D01*
Y-631776D01*
X594649D01*
Y-626400D01*
X594649Y-626400D01*
X594432Y-625310D01*
X593814Y-624386D01*
X593814Y-624386D01*
X591922Y-622493D01*
X592408Y-621320D01*
X614351D01*
Y-631776D01*
X611490D01*
Y-630760D01*
X605770D01*
Y-648600D01*
Y-666440D01*
X611490D01*
Y-665424D01*
X623174D01*
Y-665424D01*
X623174D01*
X623174Y-665424D01*
X623926D01*
Y-665424D01*
X635874D01*
Y-665424D01*
X636626D01*
X636626Y-666845D01*
X636569Y-666982D01*
Y-667310D01*
X636444Y-667613D01*
X636569Y-667916D01*
Y-668245D01*
X636801Y-668477D01*
X636927Y-668780D01*
X649054Y-680906D01*
X650220Y-681390D01*
X665200D01*
Y-688630D01*
X673740D01*
Y-689900D01*
X675010D01*
Y-699190D01*
X679050D01*
Y-706010D01*
X675010D01*
Y-715300D01*
Y-724590D01*
X679050D01*
Y-730510D01*
X675760D01*
Y-747050D01*
Y-763590D01*
X679050D01*
Y-766100D01*
X679534Y-767266D01*
X680700Y-767750D01*
X721340D01*
X722506Y-767266D01*
X722990Y-766100D01*
Y-679740D01*
X722506Y-678574D01*
X694566Y-650634D01*
X694566Y-650634D01*
X688774Y-644841D01*
X688471Y-644715D01*
X688239Y-644483D01*
X687911D01*
X687607Y-644358D01*
X687490Y-644406D01*
X686434Y-643701D01*
Y-634776D01*
X682304D01*
Y-626796D01*
X683776Y-625666D01*
X685038Y-624021D01*
X685101Y-623870D01*
X686289Y-623422D01*
X686703Y-623626D01*
X686758Y-623608D01*
X686811Y-623630D01*
X727310D01*
Y-660080D01*
X727794Y-661246D01*
X728960Y-661730D01*
X734670D01*
X735686Y-662409D01*
Y-665424D01*
X747634D01*
Y-665424D01*
X747634D01*
X747634Y-665424D01*
X748386D01*
Y-665424D01*
X760334D01*
Y-665424D01*
X760334D01*
X760334Y-665424D01*
X761086D01*
Y-665424D01*
X772770D01*
Y-666440D01*
X778490D01*
Y-648600D01*
Y-630760D01*
X772770D01*
Y-631776D01*
X769909D01*
Y-626400D01*
X769909Y-626400D01*
X769692Y-625310D01*
X769074Y-624385D01*
X769074Y-624385D01*
X767182Y-622493D01*
X767668Y-621320D01*
X789611D01*
Y-631776D01*
X786750D01*
Y-630760D01*
X781030D01*
Y-648600D01*
Y-666440D01*
X786750D01*
Y-665424D01*
X798434D01*
Y-665424D01*
X798434D01*
X798434Y-665424D01*
X799186D01*
Y-665424D01*
X811134D01*
Y-665424D01*
X811134D01*
X811134Y-665424D01*
X811886D01*
Y-665424D01*
X823310D01*
X823684Y-666327D01*
X824850Y-666810D01*
X840037D01*
X852664Y-679437D01*
X852178Y-680610D01*
X850270D01*
Y-689900D01*
Y-699190D01*
X853420D01*
Y-706010D01*
X850270D01*
Y-715300D01*
Y-724590D01*
X853420D01*
Y-728375D01*
X854379Y-729337D01*
X853892Y-730510D01*
X851370D01*
Y-747050D01*
Y-763590D01*
X859390D01*
Y-763590D01*
X859403D01*
X859874Y-764726D01*
X861040Y-765210D01*
X870310D01*
X871476Y-764726D01*
X871960Y-763560D01*
Y-762574D01*
X886440D01*
Y-774706D01*
X870056D01*
Y-805754D01*
X886440D01*
Y-809940D01*
X505440D01*
Y-809450D01*
X188010D01*
Y-810340D01*
X-192990D01*
Y-809560D01*
X-510200D01*
Y-810340D01*
X-891200D01*
Y-624269D01*
X-842940D01*
X-840684Y-622005D01*
X-839510Y-622490D01*
Y-630530D01*
X-839027Y-631697D01*
X-838397Y-632327D01*
X-838397Y-632327D01*
X-837230Y-632810D01*
X-836214D01*
Y-665824D01*
X-824266D01*
Y-665824D01*
X-824266D01*
X-824266Y-665824D01*
X-823514D01*
Y-665824D01*
X-811566D01*
Y-665824D01*
X-811566D01*
X-811566Y-665824D01*
X-810814D01*
Y-665824D01*
X-799130D01*
Y-666840D01*
X-793410D01*
Y-649000D01*
Y-631160D01*
X-799130D01*
Y-632176D01*
X-801992D01*
Y-626800D01*
X-801992Y-626800D01*
X-802208Y-625710D01*
X-802826Y-624786D01*
X-802826Y-624786D01*
X-804719Y-622893D01*
X-804233Y-621720D01*
X-782289D01*
Y-632176D01*
X-785150D01*
Y-631160D01*
X-790870D01*
Y-649000D01*
Y-666840D01*
X-785150D01*
Y-665824D01*
X-773466D01*
Y-665824D01*
X-773466D01*
X-773466Y-665824D01*
X-772714D01*
Y-665824D01*
X-760766D01*
Y-665824D01*
X-760014D01*
X-760014Y-667245D01*
X-760071Y-667382D01*
Y-667710D01*
X-760196Y-668014D01*
X-760071Y-668317D01*
Y-668645D01*
X-759839Y-668877D01*
X-759713Y-669180D01*
X-747587Y-681307D01*
X-746420Y-681790D01*
X-731440D01*
Y-689030D01*
X-722900D01*
Y-690300D01*
X-721630D01*
Y-699590D01*
X-717590D01*
Y-706410D01*
X-721630D01*
Y-715700D01*
Y-724990D01*
X-717590D01*
Y-730910D01*
X-720880D01*
Y-747450D01*
Y-763990D01*
X-717590D01*
Y-766500D01*
X-717107Y-767667D01*
X-715940Y-768150D01*
X-675300D01*
X-674134Y-767667D01*
X-673651Y-766500D01*
Y-680140D01*
X-674134Y-678974D01*
X-702074Y-651034D01*
X-707866Y-645241D01*
X-708169Y-645116D01*
X-708401Y-644884D01*
X-708729D01*
X-709033Y-644758D01*
X-709150Y-644807D01*
X-710206Y-644101D01*
Y-635176D01*
X-714337D01*
Y-627196D01*
X-712864Y-626066D01*
X-711602Y-624421D01*
X-711540Y-624270D01*
X-710351Y-623822D01*
X-709937Y-624026D01*
X-709883Y-624008D01*
X-709829Y-624030D01*
X-669330D01*
Y-660480D01*
X-668847Y-661647D01*
X-667680Y-662130D01*
X-661970D01*
X-660954Y-662809D01*
Y-665824D01*
X-649006D01*
Y-665824D01*
X-649006D01*
X-649006Y-665824D01*
X-648254D01*
Y-665824D01*
X-636306D01*
Y-665824D01*
X-636306D01*
X-636306Y-665824D01*
X-635554D01*
Y-665824D01*
X-623870D01*
Y-666840D01*
X-618150D01*
Y-649000D01*
Y-631160D01*
X-623870D01*
Y-632176D01*
X-626732D01*
Y-626800D01*
X-626732Y-626800D01*
X-626949Y-625710D01*
X-627566Y-624786D01*
X-627566Y-624786D01*
X-629458Y-622893D01*
X-628972Y-621720D01*
X-607029D01*
Y-632176D01*
X-609890D01*
Y-631160D01*
X-615610D01*
Y-649000D01*
Y-666840D01*
X-609890D01*
Y-665824D01*
X-598206D01*
Y-665824D01*
X-598206D01*
X-598206Y-665824D01*
X-597454D01*
Y-665824D01*
X-585506D01*
Y-665824D01*
X-585506D01*
X-585506Y-665824D01*
X-584754D01*
Y-665824D01*
X-573330D01*
X-572957Y-666727D01*
X-571790Y-667210D01*
X-556604D01*
X-543977Y-679837D01*
X-544463Y-681010D01*
X-546370D01*
Y-690300D01*
Y-699590D01*
X-543220D01*
Y-706410D01*
X-546370D01*
Y-715700D01*
Y-724990D01*
X-543220D01*
Y-728775D01*
X-542261Y-729737D01*
X-542748Y-730910D01*
X-545270D01*
Y-747450D01*
Y-763990D01*
X-537250D01*
Y-763990D01*
X-537237D01*
X-536767Y-765127D01*
X-535600Y-765610D01*
X-526330D01*
X-525164Y-765127D01*
X-524681Y-763960D01*
Y-762974D01*
X-508766D01*
Y-732560D01*
X-507750D01*
X-507750Y-732560D01*
X-507660D01*
X-506494Y-732077D01*
X-506011Y-730910D01*
Y-659820D01*
X-506014Y-659812D01*
X-506011Y-659803D01*
X-506255Y-659230D01*
X-506494Y-658654D01*
X-506502Y-658650D01*
X-506506Y-658642D01*
X-526053Y-639486D01*
X-525573Y-638310D01*
X-514360D01*
Y-629020D01*
X-513090D01*
Y-627750D01*
X-496550D01*
Y-623489D01*
X-493340D01*
X-491783Y-621927D01*
X-490610Y-622412D01*
Y-630040D01*
X-490126Y-631206D01*
X-489496Y-631836D01*
X-489496Y-631837D01*
X-488330Y-632320D01*
X-487314D01*
Y-665334D01*
X-475366D01*
Y-665334D01*
X-475366D01*
X-475366Y-665334D01*
X-474614D01*
Y-665334D01*
X-462666D01*
Y-665334D01*
X-462666D01*
X-462666Y-665334D01*
X-461914D01*
Y-665334D01*
X-450230D01*
Y-666350D01*
X-444510D01*
Y-648510D01*
Y-630670D01*
X-450230D01*
Y-631686D01*
X-453091D01*
Y-626310D01*
X-453091Y-626310D01*
X-453308Y-625220D01*
X-453926Y-624296D01*
X-453926Y-624296D01*
X-456108Y-622114D01*
X-455622Y-620940D01*
X-433389D01*
Y-631686D01*
X-436250D01*
Y-630670D01*
X-441970D01*
Y-648510D01*
Y-666350D01*
X-436250D01*
Y-665334D01*
X-424566D01*
Y-665334D01*
X-424566D01*
X-424566Y-665334D01*
X-423814D01*
Y-665334D01*
X-411866D01*
Y-665334D01*
X-411114D01*
X-411114Y-666755D01*
X-411171Y-666892D01*
Y-667220D01*
X-411296Y-667523D01*
X-411171Y-667827D01*
Y-668155D01*
X-410939Y-668387D01*
X-410813Y-668690D01*
X-398686Y-680816D01*
X-397520Y-681300D01*
X-382540D01*
Y-688540D01*
X-374000D01*
Y-689810D01*
X-372730D01*
Y-699100D01*
X-368690D01*
Y-705920D01*
X-372730D01*
Y-715210D01*
Y-724500D01*
X-368690D01*
Y-730420D01*
X-371980D01*
Y-746960D01*
Y-763500D01*
X-368690D01*
Y-766010D01*
X-368206Y-767177D01*
X-367040Y-767660D01*
X-326400D01*
X-325234Y-767177D01*
X-324750Y-766010D01*
Y-679650D01*
X-325234Y-678484D01*
X-353174Y-650544D01*
X-358966Y-644751D01*
X-359269Y-644626D01*
X-359501Y-644394D01*
X-359829D01*
X-360132Y-644268D01*
X-360250Y-644317D01*
X-361306Y-643611D01*
Y-634686D01*
X-365436D01*
Y-626706D01*
X-363964Y-625576D01*
X-362702Y-623931D01*
X-362639Y-623779D01*
X-361451Y-623332D01*
X-361037Y-623536D01*
X-360982Y-623518D01*
X-360929Y-623540D01*
X-320430D01*
Y-659990D01*
X-319946Y-661157D01*
X-318780Y-661640D01*
X-313070D01*
X-312054Y-662319D01*
Y-665334D01*
X-300106D01*
Y-665334D01*
X-300106D01*
X-300106Y-665334D01*
X-299354D01*
Y-665334D01*
X-287406D01*
Y-665334D01*
X-287406D01*
X-287406Y-665334D01*
X-286654D01*
Y-665334D01*
X-274970D01*
Y-666350D01*
X-269250D01*
Y-648510D01*
Y-630670D01*
X-274970D01*
Y-631686D01*
X-277831D01*
Y-626310D01*
X-277831Y-626310D01*
X-278048Y-625220D01*
X-278666Y-624296D01*
X-278666Y-624295D01*
X-280848Y-622114D01*
X-280362Y-620940D01*
X-258129D01*
Y-631686D01*
X-260990D01*
Y-630670D01*
X-266710D01*
Y-648510D01*
Y-666350D01*
X-260990D01*
Y-665334D01*
X-249306D01*
Y-665334D01*
X-249306D01*
X-249306Y-665334D01*
X-248554D01*
Y-665334D01*
X-236606D01*
Y-665334D01*
X-236606D01*
X-236606Y-665334D01*
X-235854D01*
Y-665334D01*
X-224430D01*
X-224056Y-666237D01*
X-222890Y-666720D01*
X-207703D01*
X-195076Y-679346D01*
X-195562Y-680520D01*
X-197470D01*
Y-689810D01*
Y-699100D01*
X-193620D01*
Y-705920D01*
X-197470D01*
Y-715210D01*
Y-724500D01*
X-193620D01*
Y-727995D01*
X-192373Y-729247D01*
X-192860Y-730420D01*
X-196370D01*
Y-746960D01*
Y-763500D01*
X-188350D01*
Y-763500D01*
X-188337D01*
X-187866Y-764637D01*
X-186700Y-765120D01*
X-177430D01*
X-176264Y-764637D01*
X-175780Y-763470D01*
Y-762484D01*
X-159866D01*
Y-732070D01*
X-158850D01*
X-158850Y-732070D01*
X-158760D01*
X-157594Y-731586D01*
X-157110Y-730420D01*
Y-659330D01*
X-157114Y-659322D01*
X-157111Y-659313D01*
X-157355Y-658740D01*
X-157594Y-658164D01*
X-157602Y-658160D01*
X-157605Y-658152D01*
X-177448Y-638706D01*
X-176968Y-637530D01*
X-164760D01*
Y-628240D01*
X-163490D01*
Y-626970D01*
X-146950D01*
Y-624269D01*
X-144730D01*
X-142190Y-621720D01*
X-140509D01*
Y-629761D01*
X-140026Y-630927D01*
X-139897Y-631057D01*
X-139897Y-631057D01*
X-138730Y-631540D01*
X-137714D01*
Y-664554D01*
X-125766D01*
Y-664554D01*
X-125766D01*
X-125766Y-664554D01*
X-125014D01*
Y-664554D01*
X-113066D01*
Y-664554D01*
X-113066D01*
X-113066Y-664554D01*
X-112314D01*
Y-664554D01*
X-100630D01*
Y-665570D01*
X-94910D01*
Y-647730D01*
Y-629890D01*
X-100630D01*
Y-630906D01*
X-103492D01*
Y-625531D01*
X-103492Y-625530D01*
X-103708Y-624440D01*
X-104326Y-623516D01*
X-104326Y-623516D01*
X-104949Y-622893D01*
X-104463Y-621720D01*
X-83789D01*
Y-630906D01*
X-86650D01*
Y-629890D01*
X-92370D01*
Y-647730D01*
Y-665570D01*
X-86650D01*
Y-664554D01*
X-74966D01*
Y-664554D01*
X-74966D01*
X-74966Y-664554D01*
X-74214D01*
Y-664554D01*
X-62266D01*
Y-664554D01*
X-61514D01*
X-61514Y-665975D01*
X-61571Y-666112D01*
Y-666440D01*
X-61696Y-666743D01*
X-61571Y-667047D01*
Y-667375D01*
X-61339Y-667607D01*
X-61213Y-667910D01*
X-49087Y-680037D01*
X-47920Y-680520D01*
X-32940D01*
Y-687760D01*
X-24400D01*
Y-689030D01*
X-23130D01*
Y-698320D01*
X-19090D01*
Y-705140D01*
X-23130D01*
Y-714430D01*
Y-723720D01*
X-19090D01*
Y-729640D01*
X-22380D01*
Y-746180D01*
Y-762720D01*
X-19090D01*
Y-765230D01*
X-18607Y-766397D01*
X-17440Y-766880D01*
X23200D01*
X24366Y-766397D01*
X24849Y-765230D01*
Y-678870D01*
X24366Y-677704D01*
X-3574Y-649764D01*
X-9366Y-643971D01*
X-9669Y-643846D01*
X-9901Y-643614D01*
X-10230D01*
X-10533Y-643488D01*
X-10650Y-643537D01*
X-11706Y-642831D01*
Y-633906D01*
X-15837D01*
Y-625926D01*
X-14364Y-624796D01*
X-13102Y-623151D01*
X-13039Y-623000D01*
X-11851Y-622552D01*
X-11437Y-622756D01*
X-11383Y-622738D01*
X-11329Y-622760D01*
X29170D01*
Y-659210D01*
X29653Y-660377D01*
X30820Y-660860D01*
X36530D01*
X37546Y-661539D01*
Y-664554D01*
X49494D01*
Y-664554D01*
X49494D01*
X49494Y-664554D01*
X50246D01*
Y-664554D01*
X62194D01*
Y-664554D01*
X62194D01*
X62194Y-664554D01*
X62946D01*
Y-664554D01*
X74630D01*
Y-665570D01*
X80350D01*
Y-647730D01*
Y-629890D01*
X74630D01*
Y-630906D01*
X71768D01*
Y-625530D01*
X71768Y-625530D01*
X71551Y-624440D01*
X70934Y-623516D01*
X70934Y-623516D01*
X70312Y-622893D01*
X70798Y-621720D01*
X91471D01*
Y-630906D01*
X88610D01*
Y-629890D01*
X82890D01*
Y-647730D01*
Y-665570D01*
X88610D01*
Y-664554D01*
X100294D01*
Y-664554D01*
X100294D01*
X100294Y-664554D01*
X101046D01*
Y-664554D01*
X112994D01*
Y-664554D01*
X112994D01*
X112994Y-664554D01*
X113746D01*
Y-664554D01*
X125169D01*
X125543Y-665457D01*
X126710Y-665940D01*
X141896D01*
X154523Y-678567D01*
X154037Y-679740D01*
X152130D01*
Y-689030D01*
Y-698320D01*
X154990D01*
Y-705140D01*
X152130D01*
Y-714430D01*
Y-723720D01*
X154990D01*
Y-728775D01*
X154990Y-728775D01*
X154990Y-728775D01*
X154631Y-729640D01*
X153230D01*
Y-746180D01*
Y-762720D01*
X161250D01*
Y-762720D01*
X161263D01*
X161733Y-763857D01*
X162900Y-764340D01*
X172170D01*
X173336Y-763857D01*
X173819Y-762690D01*
Y-761704D01*
X189734D01*
Y-731290D01*
X190750D01*
X190750Y-731290D01*
X190840D01*
X192006Y-730807D01*
X192489Y-729640D01*
Y-658550D01*
X192486Y-658542D01*
X192489Y-658533D01*
X192245Y-657960D01*
X192006Y-657384D01*
X191998Y-657380D01*
X191994Y-657372D01*
X173447Y-639196D01*
X173928Y-638020D01*
X184550D01*
Y-628730D01*
X185820D01*
Y-627460D01*
X202360D01*
Y-623379D01*
X204390D01*
X206930Y-620830D01*
X209570D01*
Y-630380D01*
X210053Y-631547D01*
X211220Y-632030D01*
X211596D01*
Y-665044D01*
X223544D01*
Y-665044D01*
X223544D01*
X223544Y-665044D01*
X224296D01*
Y-665044D01*
X236244D01*
Y-665044D01*
X236244D01*
X236244Y-665044D01*
X236996D01*
Y-665044D01*
X248680D01*
Y-666060D01*
X254400D01*
Y-648220D01*
Y-630380D01*
X248680D01*
Y-631396D01*
X245818D01*
Y-626021D01*
X245818Y-626020D01*
X245602Y-624930D01*
X244984Y-624006D01*
X244984Y-624006D01*
X242981Y-622003D01*
X243467Y-620830D01*
X265521D01*
Y-631396D01*
X262660D01*
Y-630380D01*
X256940D01*
Y-648220D01*
Y-666060D01*
X262660D01*
Y-665044D01*
X274344D01*
Y-665044D01*
X274344D01*
X274344Y-665044D01*
X275096D01*
Y-665044D01*
X287044D01*
Y-665044D01*
X287796D01*
X287796Y-666465D01*
X287739Y-666602D01*
Y-666930D01*
X287614Y-667234D01*
X287739Y-667537D01*
Y-667865D01*
X287971Y-668097D01*
X288097Y-668400D01*
X300223Y-680527D01*
X301390Y-681010D01*
X316370D01*
Y-688250D01*
X324910D01*
Y-689520D01*
X326180D01*
Y-698810D01*
X330220D01*
Y-705630D01*
X326180D01*
Y-714920D01*
Y-724210D01*
X330220D01*
Y-730130D01*
X326930D01*
Y-746670D01*
Y-763210D01*
X330220D01*
Y-765720D01*
X330703Y-766887D01*
X331870Y-767370D01*
X372510D01*
X373676Y-766887D01*
X374159Y-765720D01*
Y-679360D01*
X373676Y-678194D01*
X345736Y-650254D01*
X339944Y-644461D01*
X339641Y-644336D01*
X339408Y-644104D01*
X339080D01*
X338777Y-643978D01*
X338660Y-644027D01*
X337604Y-643321D01*
Y-634396D01*
X333473D01*
Y-626416D01*
X334946Y-625286D01*
X336208Y-623641D01*
X336270Y-623490D01*
X337459Y-623042D01*
X337873Y-623246D01*
X337927Y-623228D01*
X337981Y-623250D01*
X378480D01*
Y-659700D01*
X378963Y-660867D01*
X380130Y-661350D01*
X385840D01*
X386856Y-662029D01*
Y-665044D01*
X398804D01*
Y-665044D01*
X398804D01*
X398804Y-665044D01*
X399556D01*
Y-665044D01*
X411504D01*
Y-665044D01*
X411504D01*
X411504Y-665044D01*
X412256D01*
Y-665044D01*
X423940D01*
Y-666060D01*
X429660D01*
Y-648220D01*
Y-630380D01*
X423940D01*
Y-631396D01*
X421078D01*
Y-626020D01*
X421078Y-626020D01*
X420862Y-624930D01*
X420244Y-624006D01*
X420244Y-624006D01*
X418242Y-622003D01*
X418728Y-620830D01*
X440781D01*
Y-631396D01*
D02*
G37*
G36*
X-191780Y-537740D02*
X-193600Y-539560D01*
X-194659Y-540940D01*
X-195324Y-542546D01*
X-195551Y-544270D01*
X-195551Y-544270D01*
Y-564860D01*
X-195551Y-564860D01*
X-195324Y-566584D01*
X-194659Y-568190D01*
X-193600Y-569570D01*
X-191780Y-571390D01*
Y-593135D01*
X-192565Y-593238D01*
X-194481Y-594032D01*
X-196126Y-595294D01*
X-197388Y-596939D01*
X-198181Y-598854D01*
X-198452Y-600910D01*
X-198181Y-602965D01*
X-197388Y-604881D01*
X-196126Y-606526D01*
X-194654Y-607655D01*
Y-613215D01*
X-196126Y-614344D01*
X-197388Y-615989D01*
X-198181Y-617905D01*
X-198452Y-619960D01*
X-198181Y-622016D01*
X-197388Y-623931D01*
X-196126Y-625576D01*
X-194654Y-626706D01*
Y-634686D01*
X-198784D01*
Y-649734D01*
X-182236D01*
Y-637963D01*
X-181065Y-637471D01*
X-158760Y-659330D01*
Y-730420D01*
X-158850D01*
Y-730420D01*
X-166870D01*
Y-746960D01*
X-168140D01*
Y-748230D01*
X-177430D01*
Y-763470D01*
X-186700D01*
Y-724500D01*
X-181010D01*
Y-715210D01*
Y-705920D01*
X-186700D01*
Y-699100D01*
X-181010D01*
Y-689810D01*
Y-680520D01*
X-188280D01*
Y-682151D01*
X-189453Y-682637D01*
X-207020Y-665070D01*
X-222890D01*
Y-649780D01*
X-229880D01*
Y-648510D01*
X-231150D01*
Y-630670D01*
X-234461D01*
X-234947Y-629497D01*
X-229880Y-624430D01*
Y-616550D01*
X-228920D01*
Y-616550D01*
X-221650D01*
Y-607260D01*
Y-597970D01*
X-228920D01*
Y-597970D01*
X-228982D01*
X-229880Y-597072D01*
Y-575159D01*
X-225454D01*
Y-579834D01*
X-208906D01*
Y-564786D01*
X-225454D01*
Y-569461D01*
X-229880D01*
Y-535536D01*
X-229872Y-535530D01*
X-191780D01*
Y-537740D01*
D02*
G37*
G36*
X153759Y-535360D02*
X153759Y-535360D01*
Y-564170D01*
X153759Y-564170D01*
X153986Y-565894D01*
X154651Y-567500D01*
X155710Y-568880D01*
X157820Y-570990D01*
Y-592355D01*
X157034Y-592459D01*
X155119Y-593252D01*
X153474Y-594514D01*
X152212Y-596159D01*
X151418Y-598074D01*
X151148Y-600130D01*
X151418Y-602186D01*
X152212Y-604101D01*
X153474Y-605746D01*
X154946Y-606875D01*
Y-612435D01*
X153474Y-613564D01*
X152212Y-615209D01*
X151418Y-617125D01*
X151148Y-619180D01*
X151418Y-621236D01*
X152212Y-623151D01*
X153474Y-624796D01*
X154946Y-625926D01*
Y-633906D01*
X150816D01*
Y-648954D01*
X167364D01*
Y-637183D01*
X168535Y-636691D01*
X190840Y-658550D01*
Y-729640D01*
X190750D01*
Y-729640D01*
X182730D01*
Y-746180D01*
X181460D01*
Y-747450D01*
X172170D01*
Y-762690D01*
X162900D01*
Y-723720D01*
X168590D01*
Y-714430D01*
Y-705140D01*
X162900D01*
Y-698320D01*
X168590D01*
Y-689030D01*
Y-679740D01*
X161320D01*
Y-681371D01*
X160147Y-681857D01*
X142580Y-664290D01*
X126710D01*
Y-649000D01*
X119720D01*
Y-647730D01*
X118450D01*
Y-629890D01*
X115139D01*
X114653Y-628717D01*
X119720Y-623650D01*
Y-615770D01*
X120680D01*
Y-615770D01*
X127950D01*
Y-606480D01*
Y-597190D01*
X120680D01*
Y-597190D01*
X120618D01*
X119720Y-596292D01*
Y-574379D01*
X124146D01*
Y-579054D01*
X140694D01*
Y-564006D01*
X124146D01*
Y-568681D01*
X119720D01*
Y-534750D01*
X153224D01*
X153759Y-535360D01*
D02*
G37*
G36*
X680676Y-535870D02*
X680656Y-536650D01*
X680011Y-537490D01*
X679346Y-539096D01*
X679119Y-540820D01*
X679119Y-540820D01*
Y-560855D01*
X679050Y-561020D01*
Y-592277D01*
X678160Y-593058D01*
X676105Y-593329D01*
X674189Y-594122D01*
X672544Y-595384D01*
X671282Y-597029D01*
X670489Y-598945D01*
X670218Y-601000D01*
X670489Y-603055D01*
X671282Y-604971D01*
X672544Y-606616D01*
X674016Y-607745D01*
Y-613305D01*
X672544Y-614434D01*
X671282Y-616079D01*
X670489Y-617995D01*
X670218Y-620050D01*
X670489Y-622106D01*
X671282Y-624021D01*
X672544Y-625666D01*
X674016Y-626796D01*
Y-634776D01*
X669886D01*
Y-649824D01*
X686434D01*
Y-646493D01*
X687607Y-646007D01*
X693400Y-651800D01*
X721340Y-679740D01*
Y-766100D01*
X680700D01*
Y-762574D01*
X682764D01*
Y-731526D01*
X680700D01*
Y-723574D01*
X681264D01*
Y-707026D01*
X680700D01*
Y-698174D01*
X681264D01*
Y-681626D01*
X680700D01*
Y-679740D01*
X650220D01*
X638093Y-667613D01*
X638579Y-666440D01*
X641330D01*
Y-648600D01*
Y-630760D01*
X639899D01*
X639413Y-629587D01*
X642600Y-626400D01*
Y-616640D01*
X643560D01*
Y-616640D01*
X650830D01*
Y-607350D01*
Y-598060D01*
X643560D01*
Y-598060D01*
X643498D01*
X642600Y-597162D01*
Y-575249D01*
X647026D01*
Y-579924D01*
X663574D01*
Y-564876D01*
X647026D01*
Y-569551D01*
X642600D01*
Y-534960D01*
X679790D01*
X680676Y-535870D01*
D02*
G37*
G36*
X855960Y-593225D02*
X855174Y-593329D01*
X853259Y-594122D01*
X851614Y-595384D01*
X850352Y-597029D01*
X849559Y-598944D01*
X849288Y-601000D01*
X849559Y-603055D01*
X850352Y-604971D01*
X851614Y-606616D01*
X853086Y-607745D01*
Y-613305D01*
X851614Y-614434D01*
X850352Y-616079D01*
X849559Y-617994D01*
X849288Y-620050D01*
X849559Y-622105D01*
X850352Y-624021D01*
X851614Y-625666D01*
X853086Y-626795D01*
Y-634776D01*
X848956D01*
Y-649824D01*
X865504D01*
Y-638053D01*
X866675Y-637561D01*
X888980Y-659420D01*
Y-730510D01*
X888890D01*
Y-730510D01*
X880870D01*
Y-747050D01*
X879600D01*
Y-748320D01*
X870310D01*
Y-763560D01*
X861040D01*
Y-724590D01*
X866730D01*
Y-715300D01*
Y-706010D01*
X861040D01*
Y-699190D01*
X866730D01*
Y-689900D01*
Y-680610D01*
X859460D01*
Y-682241D01*
X858287Y-682727D01*
X840720Y-665160D01*
X824850D01*
Y-649870D01*
X817860D01*
Y-648600D01*
X816590D01*
Y-630760D01*
X813279D01*
X812793Y-629587D01*
X817860Y-624520D01*
Y-616640D01*
X818820D01*
Y-616640D01*
X826090D01*
Y-607350D01*
Y-598060D01*
X818820D01*
Y-598060D01*
X818758D01*
X817860Y-597162D01*
Y-575249D01*
X822286D01*
Y-579924D01*
X838834D01*
Y-564876D01*
X822286D01*
Y-569551D01*
X817860D01*
Y-535620D01*
X855960D01*
Y-593225D01*
D02*
G37*
%LPC*%
G36*
X-346460Y-691080D02*
X-353730D01*
Y-699100D01*
X-346460D01*
Y-691080D01*
D02*
G37*
G36*
X-200010D02*
X-207280D01*
Y-699100D01*
X-200010D01*
Y-691080D01*
D02*
G37*
G36*
X-171200D02*
X-178470D01*
Y-699100D01*
X-171200D01*
Y-691080D01*
D02*
G37*
G36*
X-356270D02*
X-363540D01*
Y-699100D01*
X-356270D01*
Y-691080D01*
D02*
G37*
G36*
X847730Y-691170D02*
X840460D01*
Y-699190D01*
X847730D01*
Y-691170D01*
D02*
G37*
G36*
X876540D02*
X869270D01*
Y-699190D01*
X876540D01*
Y-691170D01*
D02*
G37*
G36*
X-375270Y-691080D02*
X-382540D01*
Y-699100D01*
X-375270D01*
Y-691080D01*
D02*
G37*
G36*
X323640Y-690790D02*
X316370D01*
Y-698810D01*
X323640D01*
Y-690790D01*
D02*
G37*
G36*
X527710D02*
X520440D01*
Y-698810D01*
X527710D01*
Y-690790D01*
D02*
G37*
G36*
X-6670Y-690300D02*
X-13940D01*
Y-698320D01*
X-6670D01*
Y-690300D01*
D02*
G37*
G36*
X3140D02*
X-4130D01*
Y-698320D01*
X3140D01*
Y-690300D01*
D02*
G37*
G36*
X498900Y-690790D02*
X491630D01*
Y-698810D01*
X498900D01*
Y-690790D01*
D02*
G37*
G36*
X-25670Y-690300D02*
X-32940D01*
Y-698320D01*
X-25670D01*
Y-690300D01*
D02*
G37*
G36*
X342640Y-690790D02*
X335370D01*
Y-698810D01*
X342640D01*
Y-690790D01*
D02*
G37*
G36*
X352450D02*
X345180D01*
Y-698810D01*
X352450D01*
Y-690790D01*
D02*
G37*
G36*
X-375270Y-705920D02*
X-382540D01*
Y-713940D01*
X-375270D01*
Y-705920D01*
D02*
G37*
G36*
X-356270D02*
X-363540D01*
Y-713940D01*
X-356270D01*
Y-705920D01*
D02*
G37*
G36*
X847730Y-706010D02*
X840460D01*
Y-714030D01*
X847730D01*
Y-706010D01*
D02*
G37*
G36*
X876540D02*
X869270D01*
Y-714030D01*
X876540D01*
Y-706010D01*
D02*
G37*
G36*
X-171200Y-705920D02*
X-178470D01*
Y-713940D01*
X-171200D01*
Y-705920D01*
D02*
G37*
G36*
X323640Y-705630D02*
X316370D01*
Y-713650D01*
X323640D01*
Y-705630D01*
D02*
G37*
G36*
X-346460Y-705920D02*
X-353730D01*
Y-713940D01*
X-346460D01*
Y-705920D01*
D02*
G37*
G36*
X-200010D02*
X-207280D01*
Y-713940D01*
X-200010D01*
Y-705920D01*
D02*
G37*
G36*
X-695360Y-706410D02*
X-702630D01*
Y-714430D01*
X-695360D01*
Y-706410D01*
D02*
G37*
G36*
X-548910D02*
X-556180D01*
Y-714430D01*
X-548910D01*
Y-706410D01*
D02*
G37*
G36*
X-724170D02*
X-731440D01*
Y-714430D01*
X-724170D01*
Y-706410D01*
D02*
G37*
G36*
X-705170D02*
X-712440D01*
Y-714430D01*
X-705170D01*
Y-706410D01*
D02*
G37*
G36*
X691470Y-706010D02*
X684200D01*
Y-714030D01*
X691470D01*
Y-706010D01*
D02*
G37*
G36*
X701280D02*
X694010D01*
Y-714030D01*
X701280D01*
Y-706010D01*
D02*
G37*
G36*
X-520100Y-706410D02*
X-527370D01*
Y-714430D01*
X-520100D01*
Y-706410D01*
D02*
G37*
G36*
X672470Y-706010D02*
X665200D01*
Y-714030D01*
X672470D01*
Y-706010D01*
D02*
G37*
G36*
X342640Y-705630D02*
X335370D01*
Y-713650D01*
X342640D01*
Y-705630D01*
D02*
G37*
G36*
X-695360Y-691570D02*
X-702630D01*
Y-699590D01*
X-695360D01*
Y-691570D01*
D02*
G37*
G36*
X-548910D02*
X-556180D01*
Y-699590D01*
X-548910D01*
Y-691570D01*
D02*
G37*
G36*
X-724170D02*
X-731440D01*
Y-699590D01*
X-724170D01*
Y-691570D01*
D02*
G37*
G36*
X-705170D02*
X-712440D01*
Y-699590D01*
X-705170D01*
Y-691570D01*
D02*
G37*
G36*
X691470Y-691170D02*
X684200D01*
Y-699190D01*
X691470D01*
Y-691170D01*
D02*
G37*
G36*
X701280D02*
X694010D01*
Y-699190D01*
X701280D01*
Y-691170D01*
D02*
G37*
G36*
X-520100Y-691570D02*
X-527370D01*
Y-699590D01*
X-520100D01*
Y-691570D01*
D02*
G37*
G36*
X672470Y-691170D02*
X665200D01*
Y-699190D01*
X672470D01*
Y-691170D01*
D02*
G37*
G36*
X527710Y-705630D02*
X520440D01*
Y-713650D01*
X527710D01*
Y-705630D01*
D02*
G37*
G36*
X-25670Y-705140D02*
X-32940D01*
Y-713160D01*
X-25670D01*
Y-705140D01*
D02*
G37*
G36*
X352450Y-705630D02*
X345180D01*
Y-713650D01*
X352450D01*
Y-705630D01*
D02*
G37*
G36*
X498900D02*
X491630D01*
Y-713650D01*
X498900D01*
Y-705630D01*
D02*
G37*
G36*
X149590Y-705140D02*
X142320D01*
Y-713160D01*
X149590D01*
Y-705140D01*
D02*
G37*
G36*
X178400D02*
X171130D01*
Y-713160D01*
X178400D01*
Y-705140D01*
D02*
G37*
G36*
X-6670D02*
X-13940D01*
Y-713160D01*
X-6670D01*
Y-705140D01*
D02*
G37*
G36*
X3140D02*
X-4130D01*
Y-713160D01*
X3140D01*
Y-705140D01*
D02*
G37*
G36*
X676890Y-662570D02*
X668870D01*
Y-669840D01*
X676890D01*
Y-662570D01*
D02*
G37*
G36*
X866520Y-662570D02*
X858500D01*
Y-669840D01*
X866520D01*
Y-662570D01*
D02*
G37*
G36*
X855960D02*
X847940D01*
Y-669840D01*
X855960D01*
Y-662570D01*
D02*
G37*
G36*
X687450Y-662570D02*
X679430D01*
Y-669840D01*
X687450D01*
Y-662570D01*
D02*
G37*
G36*
X-370850Y-662480D02*
X-378870D01*
Y-669750D01*
X-370850D01*
Y-662480D01*
D02*
G37*
G36*
X-181220Y-662480D02*
X-189240D01*
Y-669750D01*
X-181220D01*
Y-662480D01*
D02*
G37*
G36*
X-191780D02*
X-199800D01*
Y-669750D01*
X-191780D01*
Y-662480D01*
D02*
G37*
G36*
X101730Y-674125D02*
Y-680030D01*
X99190D01*
Y-674125D01*
X98103Y-674341D01*
X96308Y-675540D01*
X85772D01*
X83976Y-674341D01*
X82890Y-674125D01*
Y-680030D01*
X80350D01*
Y-674125D01*
X79263Y-674341D01*
X77468Y-675540D01*
X66512D01*
X64717Y-674341D01*
X63630Y-674125D01*
Y-680030D01*
X61090D01*
Y-674125D01*
X60003Y-674341D01*
X58208Y-675540D01*
X52330D01*
Y-719510D01*
X110910D01*
Y-675540D01*
X104612D01*
X102816Y-674341D01*
X101730Y-674125D01*
D02*
G37*
G36*
X-73530D02*
Y-680030D01*
X-76070D01*
Y-674125D01*
X-77157Y-674341D01*
X-78952Y-675540D01*
X-89488D01*
X-91284Y-674341D01*
X-92370Y-674125D01*
Y-680030D01*
X-94910D01*
Y-674125D01*
X-95997Y-674341D01*
X-97792Y-675540D01*
X-108748D01*
X-110543Y-674341D01*
X-111630Y-674125D01*
Y-680030D01*
X-114170D01*
Y-674125D01*
X-115257Y-674341D01*
X-117052Y-675540D01*
X-122930D01*
Y-719510D01*
X-64350D01*
Y-675540D01*
X-70648D01*
X-72443Y-674341D01*
X-73530Y-674125D01*
D02*
G37*
G36*
X275780Y-674614D02*
Y-680520D01*
X273240D01*
Y-674614D01*
X272153Y-674831D01*
X270358Y-676030D01*
X259821D01*
X258026Y-674831D01*
X256940Y-674614D01*
Y-680520D01*
X254400D01*
Y-674614D01*
X253313Y-674831D01*
X251518Y-676030D01*
X240562D01*
X238766Y-674831D01*
X237680Y-674614D01*
Y-680520D01*
X235140D01*
Y-674614D01*
X234053Y-674831D01*
X232258Y-676030D01*
X226380D01*
Y-720000D01*
X284960D01*
Y-676030D01*
X278662D01*
X276866Y-674831D01*
X275780Y-674614D01*
D02*
G37*
G36*
X-540680Y-662970D02*
X-548700D01*
Y-670240D01*
X-540680D01*
Y-662970D01*
D02*
G37*
G36*
X-709190Y-662970D02*
X-717210D01*
Y-670240D01*
X-709190D01*
Y-662970D01*
D02*
G37*
G36*
X-719750D02*
X-727770D01*
Y-670240D01*
X-719750D01*
Y-662970D01*
D02*
G37*
G36*
X-530120Y-662970D02*
X-538140D01*
Y-670240D01*
X-530120D01*
Y-662970D01*
D02*
G37*
G36*
X-747050Y-650270D02*
X-752770D01*
Y-666840D01*
X-747050D01*
Y-650270D01*
D02*
G37*
G36*
X-10690Y-661700D02*
X-18710D01*
Y-668970D01*
X-10690D01*
Y-661700D01*
D02*
G37*
G36*
X-21250D02*
X-29270D01*
Y-668970D01*
X-21250D01*
Y-661700D01*
D02*
G37*
G36*
X649590Y-649870D02*
X643870D01*
Y-666440D01*
X649590D01*
Y-649870D01*
D02*
G37*
G36*
X-48550Y-649000D02*
X-54270D01*
Y-665570D01*
X-48550D01*
Y-649000D01*
D02*
G37*
G36*
X300760Y-649490D02*
X295040D01*
Y-666060D01*
X300760D01*
Y-649490D01*
D02*
G37*
G36*
X-398150Y-649780D02*
X-403870D01*
Y-666350D01*
X-398150D01*
Y-649780D01*
D02*
G37*
G36*
X517690Y-662190D02*
X509670D01*
Y-669460D01*
X517690D01*
Y-662190D01*
D02*
G37*
G36*
X507130D02*
X499110D01*
Y-669460D01*
X507130D01*
Y-662190D01*
D02*
G37*
G36*
X-360290Y-662480D02*
X-368310D01*
Y-669750D01*
X-360290D01*
Y-662480D01*
D02*
G37*
G36*
X328060Y-662190D02*
X320040D01*
Y-669460D01*
X328060D01*
Y-662190D01*
D02*
G37*
G36*
X168380Y-661700D02*
X160360D01*
Y-668970D01*
X168380D01*
Y-661700D01*
D02*
G37*
G36*
X157820D02*
X149800D01*
Y-668970D01*
X157820D01*
Y-661700D01*
D02*
G37*
G36*
X338620Y-662190D02*
X330600D01*
Y-669460D01*
X338620D01*
Y-662190D01*
D02*
G37*
G36*
X451040Y-674615D02*
Y-680520D01*
X448500D01*
Y-674615D01*
X447413Y-674831D01*
X445618Y-676030D01*
X435081D01*
X433286Y-674831D01*
X432199Y-674615D01*
Y-680520D01*
X429659D01*
Y-674615D01*
X428573Y-674831D01*
X426778Y-676030D01*
X415821D01*
X414026Y-674831D01*
X412940Y-674615D01*
Y-680520D01*
X410400D01*
Y-674615D01*
X409313Y-674831D01*
X407518Y-676030D01*
X401640D01*
Y-720000D01*
X460220D01*
Y-676030D01*
X453921D01*
X452126Y-674831D01*
X451040Y-674615D01*
D02*
G37*
G36*
X876540Y-680610D02*
X869270D01*
Y-688630D01*
X876540D01*
Y-680610D01*
D02*
G37*
G36*
X847730D02*
X840460D01*
Y-688630D01*
X847730D01*
Y-680610D01*
D02*
G37*
G36*
X701280D02*
X694010D01*
Y-688630D01*
X701280D01*
Y-680610D01*
D02*
G37*
G36*
X-356270Y-680520D02*
X-363540D01*
Y-688540D01*
X-356270D01*
Y-680520D01*
D02*
G37*
G36*
X-171200D02*
X-178470D01*
Y-688540D01*
X-171200D01*
Y-680520D01*
D02*
G37*
G36*
X-200010D02*
X-207280D01*
Y-688540D01*
X-200010D01*
Y-680520D01*
D02*
G37*
G36*
X-346460D02*
X-353730D01*
Y-688540D01*
X-346460D01*
Y-680520D01*
D02*
G37*
G36*
X-705170Y-681010D02*
X-712440D01*
Y-689030D01*
X-705170D01*
Y-681010D01*
D02*
G37*
G36*
X178400Y-690300D02*
X171130D01*
Y-698320D01*
X178400D01*
Y-690300D01*
D02*
G37*
G36*
X149590D02*
X142320D01*
Y-698320D01*
X149590D01*
Y-690300D01*
D02*
G37*
G36*
X-695360Y-681010D02*
X-702630D01*
Y-689030D01*
X-695360D01*
Y-681010D01*
D02*
G37*
G36*
X691470Y-680610D02*
X684200D01*
Y-688630D01*
X691470D01*
Y-680610D01*
D02*
G37*
G36*
X-520100Y-681010D02*
X-527370D01*
Y-689030D01*
X-520100D01*
Y-681010D01*
D02*
G37*
G36*
X-548910D02*
X-556180D01*
Y-689030D01*
X-548910D01*
Y-681010D01*
D02*
G37*
G36*
X-596770Y-675395D02*
Y-681300D01*
X-599310D01*
Y-675395D01*
X-600397Y-675611D01*
X-602192Y-676810D01*
X-612729D01*
X-614524Y-675611D01*
X-615611Y-675395D01*
Y-681300D01*
X-618151D01*
Y-675395D01*
X-619237Y-675611D01*
X-621032Y-676810D01*
X-631989D01*
X-633784Y-675611D01*
X-634870Y-675395D01*
Y-681300D01*
X-637410D01*
Y-675395D01*
X-638497Y-675611D01*
X-640292Y-676810D01*
X-646170D01*
Y-720780D01*
X-587590D01*
Y-676810D01*
X-593889D01*
X-595684Y-675611D01*
X-596770Y-675395D01*
D02*
G37*
G36*
X-772030D02*
Y-681300D01*
X-774570D01*
Y-675395D01*
X-775657Y-675611D01*
X-777452Y-676810D01*
X-787989D01*
X-789784Y-675611D01*
X-790871Y-675395D01*
Y-681300D01*
X-793411D01*
Y-675395D01*
X-794497Y-675611D01*
X-796292Y-676810D01*
X-807249D01*
X-809044Y-675611D01*
X-810130Y-675395D01*
Y-681300D01*
X-812670D01*
Y-675395D01*
X-813757Y-675611D01*
X-815552Y-676810D01*
X-821430D01*
Y-720780D01*
X-762850D01*
Y-676810D01*
X-769149D01*
X-770944Y-675611D01*
X-772030Y-675395D01*
D02*
G37*
G36*
X178400Y-679740D02*
X171130D01*
Y-687760D01*
X178400D01*
Y-679740D01*
D02*
G37*
G36*
X624610Y-674994D02*
Y-680900D01*
X622070D01*
Y-674994D01*
X620983Y-675211D01*
X619188Y-676410D01*
X608651D01*
X606856Y-675211D01*
X605770Y-674994D01*
Y-680900D01*
X603230D01*
Y-674994D01*
X602143Y-675211D01*
X600348Y-676410D01*
X589392D01*
X587597Y-675211D01*
X586510Y-674994D01*
Y-680900D01*
X583970D01*
Y-674994D01*
X582883Y-675211D01*
X581088Y-676410D01*
X575210D01*
Y-720380D01*
X633790D01*
Y-676410D01*
X627492D01*
X625696Y-675211D01*
X624610Y-674994D01*
D02*
G37*
G36*
X-247870Y-674904D02*
Y-680810D01*
X-250410D01*
Y-674904D01*
X-251497Y-675121D01*
X-253292Y-676320D01*
X-263829D01*
X-265624Y-675121D01*
X-266710Y-674904D01*
Y-680810D01*
X-269250D01*
Y-674904D01*
X-270337Y-675121D01*
X-272132Y-676320D01*
X-283088D01*
X-284883Y-675121D01*
X-285970Y-674904D01*
Y-680810D01*
X-288510D01*
Y-674904D01*
X-289597Y-675121D01*
X-291392Y-676320D01*
X-297270D01*
Y-720290D01*
X-238690D01*
Y-676320D01*
X-244988D01*
X-246784Y-675121D01*
X-247870Y-674904D01*
D02*
G37*
G36*
X-423130D02*
Y-680810D01*
X-425670D01*
Y-674904D01*
X-426757Y-675121D01*
X-428552Y-676320D01*
X-439089D01*
X-440884Y-675121D01*
X-441970Y-674904D01*
Y-680810D01*
X-444510D01*
Y-674904D01*
X-445597Y-675121D01*
X-447392Y-676320D01*
X-458348D01*
X-460144Y-675121D01*
X-461230Y-674904D01*
Y-680810D01*
X-463770D01*
Y-674904D01*
X-464857Y-675121D01*
X-466652Y-676320D01*
X-472530D01*
Y-720290D01*
X-413950D01*
Y-676320D01*
X-420248D01*
X-422043Y-675121D01*
X-423130Y-674904D01*
D02*
G37*
G36*
X799870Y-674994D02*
Y-680900D01*
X797330D01*
Y-674994D01*
X796243Y-675210D01*
X794448Y-676410D01*
X783912D01*
X782116Y-675210D01*
X781030Y-674994D01*
Y-680900D01*
X778490D01*
Y-674994D01*
X777403Y-675210D01*
X775608Y-676410D01*
X764652D01*
X762857Y-675210D01*
X761770Y-674994D01*
Y-680900D01*
X759230D01*
Y-674994D01*
X758143Y-675210D01*
X756348Y-676410D01*
X750470D01*
Y-720380D01*
X809050D01*
Y-676410D01*
X802752D01*
X800957Y-675210D01*
X799870Y-674994D01*
D02*
G37*
G36*
X498900Y-680230D02*
X491630D01*
Y-688250D01*
X498900D01*
Y-680230D01*
D02*
G37*
G36*
X352450D02*
X345180D01*
Y-688250D01*
X352450D01*
Y-680230D01*
D02*
G37*
G36*
X342640D02*
X335370D01*
Y-688250D01*
X342640D01*
Y-680230D01*
D02*
G37*
G36*
X527710D02*
X520440D01*
Y-688250D01*
X527710D01*
Y-680230D01*
D02*
G37*
G36*
X149590Y-679740D02*
X142320D01*
Y-687760D01*
X149590D01*
Y-679740D01*
D02*
G37*
G36*
X3140D02*
X-4130D01*
Y-687760D01*
X3140D01*
Y-679740D01*
D02*
G37*
G36*
X-6670D02*
X-13940D01*
Y-687760D01*
X-6670D01*
Y-679740D01*
D02*
G37*
G36*
X178400Y-715700D02*
X171130D01*
Y-723720D01*
X178400D01*
Y-715700D01*
D02*
G37*
G36*
X284960Y-722540D02*
X256940D01*
Y-766510D01*
X284960D01*
Y-722540D01*
D02*
G37*
G36*
X254400D02*
X226380D01*
Y-766510D01*
X254400D01*
Y-722540D01*
D02*
G37*
G36*
X-238690Y-722830D02*
X-266710D01*
Y-766800D01*
X-238690D01*
Y-722830D01*
D02*
G37*
G36*
X429660Y-722540D02*
X401640D01*
Y-766510D01*
X429660D01*
Y-722540D01*
D02*
G37*
G36*
X-64350Y-722050D02*
X-92370D01*
Y-766020D01*
X-64350D01*
Y-722050D01*
D02*
G37*
G36*
X-94910D02*
X-122930D01*
Y-766020D01*
X-94910D01*
Y-722050D01*
D02*
G37*
G36*
X460220Y-722540D02*
X432200D01*
Y-766510D01*
X460220D01*
Y-722540D01*
D02*
G37*
G36*
X778490Y-722920D02*
X750470D01*
Y-766890D01*
X778490D01*
Y-722920D01*
D02*
G37*
G36*
X633790D02*
X605770D01*
Y-766890D01*
X633790D01*
Y-722920D01*
D02*
G37*
G36*
X603230D02*
X575210D01*
Y-766890D01*
X603230D01*
Y-722920D01*
D02*
G37*
G36*
X809050D02*
X781030D01*
Y-766890D01*
X809050D01*
Y-722920D01*
D02*
G37*
G36*
X-269250Y-722830D02*
X-297270D01*
Y-766800D01*
X-269250D01*
Y-722830D01*
D02*
G37*
G36*
X-413950D02*
X-441970D01*
Y-766800D01*
X-413950D01*
Y-722830D01*
D02*
G37*
G36*
X-444510D02*
X-472530D01*
Y-766800D01*
X-444510D01*
Y-722830D01*
D02*
G37*
G36*
X848830Y-748320D02*
X840810D01*
Y-763590D01*
X848830D01*
Y-748320D01*
D02*
G37*
G36*
X713280D02*
X705260D01*
Y-763590D01*
X713280D01*
Y-748320D01*
D02*
G37*
G36*
X702720D02*
X694700D01*
Y-763590D01*
X702720D01*
Y-748320D01*
D02*
G37*
G36*
X-374520Y-748230D02*
X-382540D01*
Y-763500D01*
X-374520D01*
Y-748230D01*
D02*
G37*
G36*
X-198910D02*
X-206930D01*
Y-763500D01*
X-198910D01*
Y-748230D01*
D02*
G37*
G36*
X-334460D02*
X-342480D01*
Y-763500D01*
X-334460D01*
Y-748230D01*
D02*
G37*
G36*
X-345020D02*
X-353040D01*
Y-763500D01*
X-345020D01*
Y-748230D01*
D02*
G37*
G36*
X-723420Y-748720D02*
X-731440D01*
Y-763990D01*
X-723420D01*
Y-748720D01*
D02*
G37*
G36*
X110910Y-722050D02*
X82890D01*
Y-766020D01*
X110910D01*
Y-722050D01*
D02*
G37*
G36*
X80350D02*
X52330D01*
Y-766020D01*
X80350D01*
Y-722050D01*
D02*
G37*
G36*
X-693920Y-748720D02*
X-701940D01*
Y-763990D01*
X-693920D01*
Y-748720D01*
D02*
G37*
G36*
X673220Y-748320D02*
X665200D01*
Y-763590D01*
X673220D01*
Y-748320D01*
D02*
G37*
G36*
X-547810Y-748720D02*
X-555830D01*
Y-763990D01*
X-547810D01*
Y-748720D01*
D02*
G37*
G36*
X-683360D02*
X-691380D01*
Y-763990D01*
X-683360D01*
Y-748720D01*
D02*
G37*
G36*
X159980Y-790630D02*
X151960D01*
Y-805900D01*
X159980D01*
Y-790630D01*
D02*
G37*
G36*
X149420D02*
X141400D01*
Y-805900D01*
X149420D01*
Y-790630D01*
D02*
G37*
G36*
X509290Y-791120D02*
X501270D01*
Y-806390D01*
X509290D01*
Y-791120D01*
D02*
G37*
G36*
X-510036Y-775106D02*
X-526584D01*
Y-806154D01*
X-510036D01*
Y-803641D01*
X-506814D01*
X-506531Y-803858D01*
X-504616Y-804651D01*
X-502560Y-804922D01*
X-500504Y-804651D01*
X-498589Y-803858D01*
X-496944Y-802596D01*
X-495682Y-800951D01*
X-494889Y-799036D01*
X-494618Y-796980D01*
X-494889Y-794924D01*
X-495682Y-793009D01*
X-496944Y-791364D01*
X-497073Y-791265D01*
Y-789995D01*
X-496944Y-789896D01*
X-495682Y-788251D01*
X-494889Y-786336D01*
X-494618Y-784280D01*
X-494889Y-782225D01*
X-495682Y-780309D01*
X-496944Y-778664D01*
X-498589Y-777402D01*
X-500504Y-776609D01*
X-502560Y-776338D01*
X-504616Y-776609D01*
X-506531Y-777402D01*
X-506814Y-777619D01*
X-510036D01*
Y-775106D01*
D02*
G37*
G36*
X188464Y-773836D02*
X171916D01*
Y-804884D01*
X188464D01*
Y-802371D01*
X191686D01*
X191969Y-802588D01*
X193885Y-803381D01*
X195940Y-803652D01*
X197995Y-803381D01*
X199911Y-802588D01*
X201556Y-801326D01*
X202818Y-799681D01*
X203611Y-797766D01*
X203882Y-795710D01*
X203611Y-793654D01*
X202818Y-791739D01*
X201556Y-790094D01*
X201427Y-789995D01*
Y-788725D01*
X201556Y-788626D01*
X202818Y-786981D01*
X203611Y-785066D01*
X203882Y-783010D01*
X203611Y-780955D01*
X202818Y-779039D01*
X201556Y-777394D01*
X199911Y-776132D01*
X197995Y-775339D01*
X195940Y-775068D01*
X193885Y-775339D01*
X191969Y-776132D01*
X191686Y-776349D01*
X188464D01*
Y-773836D01*
D02*
G37*
G36*
X537774Y-774326D02*
X521226D01*
Y-805374D01*
X537774D01*
Y-802861D01*
X540996D01*
X541279Y-803078D01*
X543195Y-803871D01*
X545250Y-804142D01*
X547305Y-803871D01*
X549221Y-803078D01*
X550866Y-801816D01*
X552128Y-800171D01*
X552921Y-798256D01*
X553192Y-796200D01*
X552921Y-794145D01*
X552128Y-792229D01*
X550866Y-790584D01*
X550737Y-790485D01*
Y-789215D01*
X550866Y-789116D01*
X552128Y-787471D01*
X552921Y-785556D01*
X553192Y-783500D01*
X552921Y-781444D01*
X552128Y-779529D01*
X550866Y-777884D01*
X549221Y-776622D01*
X547305Y-775829D01*
X545250Y-775558D01*
X543195Y-775829D01*
X541279Y-776622D01*
X540996Y-776839D01*
X537774D01*
Y-774326D01*
D02*
G37*
G36*
X-161136Y-774616D02*
X-177684D01*
Y-805664D01*
X-161136D01*
Y-803151D01*
X-157913D01*
X-157631Y-803368D01*
X-155715Y-804161D01*
X-153660Y-804432D01*
X-151604Y-804161D01*
X-149689Y-803368D01*
X-148044Y-802106D01*
X-146782Y-800461D01*
X-145988Y-798545D01*
X-145718Y-796490D01*
X-145988Y-794434D01*
X-146782Y-792519D01*
X-148044Y-790874D01*
X-148173Y-790775D01*
Y-789505D01*
X-148044Y-789406D01*
X-146782Y-787761D01*
X-145988Y-785845D01*
X-145718Y-783790D01*
X-145988Y-781734D01*
X-146782Y-779819D01*
X-148044Y-778174D01*
X-149689Y-776912D01*
X-151604Y-776119D01*
X-153660Y-775848D01*
X-155715Y-776119D01*
X-157631Y-776912D01*
X-157913Y-777129D01*
X-161136D01*
Y-774616D01*
D02*
G37*
G36*
X847560Y-791500D02*
X839540D01*
Y-806770D01*
X847560D01*
Y-791500D01*
D02*
G37*
G36*
X-538520Y-791900D02*
X-546540D01*
Y-807170D01*
X-538520D01*
Y-791900D01*
D02*
G37*
G36*
X-549080D02*
X-557100D01*
Y-807170D01*
X-549080D01*
Y-791900D01*
D02*
G37*
G36*
X858120Y-791500D02*
X850100D01*
Y-806770D01*
X858120D01*
Y-791500D01*
D02*
G37*
G36*
X498730Y-791120D02*
X490710D01*
Y-806390D01*
X498730D01*
Y-791120D01*
D02*
G37*
G36*
X-189620Y-791410D02*
X-197640D01*
Y-806680D01*
X-189620D01*
Y-791410D01*
D02*
G37*
G36*
X-200180D02*
X-208200D01*
Y-806680D01*
X-200180D01*
Y-791410D01*
D02*
G37*
G36*
X159980Y-772820D02*
X151960D01*
Y-788090D01*
X159980D01*
Y-772820D01*
D02*
G37*
G36*
X149420D02*
X141400D01*
Y-788090D01*
X149420D01*
Y-772820D01*
D02*
G37*
G36*
X509290Y-773310D02*
X501270D01*
Y-788580D01*
X509290D01*
Y-773310D01*
D02*
G37*
G36*
X-793410Y-723320D02*
X-821430D01*
Y-767290D01*
X-793410D01*
Y-723320D01*
D02*
G37*
G36*
X-587590D02*
X-615610D01*
Y-767290D01*
X-587590D01*
Y-723320D01*
D02*
G37*
G36*
X-618150D02*
X-646170D01*
Y-767290D01*
X-618150D01*
Y-723320D01*
D02*
G37*
G36*
X-762850D02*
X-790870D01*
Y-767290D01*
X-762850D01*
Y-723320D01*
D02*
G37*
G36*
X847560Y-773690D02*
X839540D01*
Y-788960D01*
X847560D01*
Y-773690D01*
D02*
G37*
G36*
X-538520Y-774090D02*
X-546540D01*
Y-789360D01*
X-538520D01*
Y-774090D01*
D02*
G37*
G36*
X-549080D02*
X-557100D01*
Y-789360D01*
X-549080D01*
Y-774090D01*
D02*
G37*
G36*
X858120Y-773690D02*
X850100D01*
Y-788960D01*
X858120D01*
Y-773690D01*
D02*
G37*
G36*
X498730Y-773310D02*
X490710D01*
Y-788580D01*
X498730D01*
Y-773310D01*
D02*
G37*
G36*
X-189620Y-773600D02*
X-197640D01*
Y-788870D01*
X-189620D01*
Y-773600D01*
D02*
G37*
G36*
X-200180D02*
X-208200D01*
Y-788870D01*
X-200180D01*
Y-773600D01*
D02*
G37*
G36*
X324390Y-747940D02*
X316370D01*
Y-763210D01*
X324390D01*
Y-747940D01*
D02*
G37*
G36*
X672470Y-716570D02*
X665200D01*
Y-724590D01*
X672470D01*
Y-716570D01*
D02*
G37*
G36*
X-520100Y-716970D02*
X-527370D01*
Y-724990D01*
X-520100D01*
Y-716970D01*
D02*
G37*
G36*
X-548910D02*
X-556180D01*
Y-724990D01*
X-548910D01*
Y-716970D01*
D02*
G37*
G36*
X691470Y-716570D02*
X684200D01*
Y-724590D01*
X691470D01*
Y-716570D01*
D02*
G37*
G36*
X876540D02*
X869270D01*
Y-724590D01*
X876540D01*
Y-716570D01*
D02*
G37*
G36*
X847730D02*
X840460D01*
Y-724590D01*
X847730D01*
Y-716570D01*
D02*
G37*
G36*
X701280D02*
X694010D01*
Y-724590D01*
X701280D01*
Y-716570D01*
D02*
G37*
G36*
X150690Y-729640D02*
X142670D01*
Y-744910D01*
X150690D01*
Y-729640D01*
D02*
G37*
G36*
X15140D02*
X7120D01*
Y-744910D01*
X15140D01*
Y-729640D01*
D02*
G37*
G36*
X4580D02*
X-3440D01*
Y-744910D01*
X4580D01*
Y-729640D01*
D02*
G37*
G36*
X180190D02*
X172170D01*
Y-744910D01*
X180190D01*
Y-729640D01*
D02*
G37*
G36*
X-695360Y-716970D02*
X-702630D01*
Y-724990D01*
X-695360D01*
Y-716970D01*
D02*
G37*
G36*
X-705170D02*
X-712440D01*
Y-724990D01*
X-705170D01*
Y-716970D01*
D02*
G37*
G36*
X-724170D02*
X-731440D01*
Y-724990D01*
X-724170D01*
Y-716970D01*
D02*
G37*
G36*
X527710Y-716190D02*
X520440D01*
Y-724210D01*
X527710D01*
Y-716190D01*
D02*
G37*
G36*
X498900D02*
X491630D01*
Y-724210D01*
X498900D01*
Y-716190D01*
D02*
G37*
G36*
X352450D02*
X345180D01*
Y-724210D01*
X352450D01*
Y-716190D01*
D02*
G37*
G36*
X-25670Y-715700D02*
X-32940D01*
Y-723720D01*
X-25670D01*
Y-715700D01*
D02*
G37*
G36*
X149590D02*
X142320D01*
Y-723720D01*
X149590D01*
Y-715700D01*
D02*
G37*
G36*
X3140D02*
X-4130D01*
Y-723720D01*
X3140D01*
Y-715700D01*
D02*
G37*
G36*
X-6670D02*
X-13940D01*
Y-723720D01*
X-6670D01*
Y-715700D01*
D02*
G37*
G36*
X-346460Y-716480D02*
X-353730D01*
Y-724500D01*
X-346460D01*
Y-716480D01*
D02*
G37*
G36*
X-356270D02*
X-363540D01*
Y-724500D01*
X-356270D01*
Y-716480D01*
D02*
G37*
G36*
X-375270D02*
X-382540D01*
Y-724500D01*
X-375270D01*
Y-716480D01*
D02*
G37*
G36*
X-200010D02*
X-207280D01*
Y-724500D01*
X-200010D01*
Y-716480D01*
D02*
G37*
G36*
X342640Y-716190D02*
X335370D01*
Y-724210D01*
X342640D01*
Y-716190D01*
D02*
G37*
G36*
X323640D02*
X316370D01*
Y-724210D01*
X323640D01*
Y-716190D01*
D02*
G37*
G36*
X-171200Y-716480D02*
X-178470D01*
Y-724500D01*
X-171200D01*
Y-716480D01*
D02*
G37*
G36*
X-683360Y-730910D02*
X-691380D01*
Y-746180D01*
X-683360D01*
Y-730910D01*
D02*
G37*
G36*
X-693920D02*
X-701940D01*
Y-746180D01*
X-693920D01*
Y-730910D01*
D02*
G37*
G36*
X-723420D02*
X-731440D01*
Y-746180D01*
X-723420D01*
Y-730910D01*
D02*
G37*
G36*
X-547810D02*
X-555830D01*
Y-746180D01*
X-547810D01*
Y-730910D01*
D02*
G37*
G36*
X702720Y-730510D02*
X694700D01*
Y-745780D01*
X702720D01*
Y-730510D01*
D02*
G37*
G36*
X673220D02*
X665200D01*
Y-745780D01*
X673220D01*
Y-730510D01*
D02*
G37*
G36*
X-518310Y-730910D02*
X-526330D01*
Y-746180D01*
X-518310D01*
Y-730910D01*
D02*
G37*
G36*
X500000Y-747940D02*
X491980D01*
Y-763210D01*
X500000D01*
Y-747940D01*
D02*
G37*
G36*
X364450D02*
X356430D01*
Y-763210D01*
X364450D01*
Y-747940D01*
D02*
G37*
G36*
X353890D02*
X345870D01*
Y-763210D01*
X353890D01*
Y-747940D01*
D02*
G37*
G36*
X-24920Y-747450D02*
X-32940D01*
Y-762720D01*
X-24920D01*
Y-747450D01*
D02*
G37*
G36*
X150690D02*
X142670D01*
Y-762720D01*
X150690D01*
Y-747450D01*
D02*
G37*
G36*
X15140D02*
X7120D01*
Y-762720D01*
X15140D01*
Y-747450D01*
D02*
G37*
G36*
X4580D02*
X-3440D01*
Y-762720D01*
X4580D01*
Y-747450D01*
D02*
G37*
G36*
X353890Y-730130D02*
X345870D01*
Y-745400D01*
X353890D01*
Y-730130D01*
D02*
G37*
G36*
X324390D02*
X316370D01*
Y-745400D01*
X324390D01*
Y-730130D01*
D02*
G37*
G36*
X-169410Y-730420D02*
X-177430D01*
Y-745690D01*
X-169410D01*
Y-730420D01*
D02*
G37*
G36*
X364450Y-730130D02*
X356430D01*
Y-745400D01*
X364450D01*
Y-730130D01*
D02*
G37*
G36*
X-24920Y-729640D02*
X-32940D01*
Y-744910D01*
X-24920D01*
Y-729640D01*
D02*
G37*
G36*
X529500Y-730130D02*
X521480D01*
Y-745400D01*
X529500D01*
Y-730130D01*
D02*
G37*
G36*
X500000D02*
X491980D01*
Y-745400D01*
X500000D01*
Y-730130D01*
D02*
G37*
G36*
X878330Y-730510D02*
X870310D01*
Y-745780D01*
X878330D01*
Y-730510D01*
D02*
G37*
G36*
X848830D02*
X840810D01*
Y-745780D01*
X848830D01*
Y-730510D01*
D02*
G37*
G36*
X713280D02*
X705260D01*
Y-745780D01*
X713280D01*
Y-730510D01*
D02*
G37*
G36*
X-374520Y-730420D02*
X-382540D01*
Y-745690D01*
X-374520D01*
Y-730420D01*
D02*
G37*
G36*
X-198910D02*
X-206930D01*
Y-745690D01*
X-198910D01*
Y-730420D01*
D02*
G37*
G36*
X-334460D02*
X-342480D01*
Y-745690D01*
X-334460D01*
Y-730420D01*
D02*
G37*
G36*
X-345020D02*
X-353040D01*
Y-745690D01*
X-345020D01*
Y-730420D01*
D02*
G37*
G36*
X-540680Y-653160D02*
X-548700D01*
Y-660430D01*
X-540680D01*
Y-653160D01*
D02*
G37*
G36*
X214160Y-573290D02*
X206140D01*
Y-580560D01*
X214160D01*
Y-573290D01*
D02*
G37*
G36*
X203600D02*
X195580D01*
Y-580560D01*
X203600D01*
Y-573290D01*
D02*
G37*
G36*
X188760D02*
X180740D01*
Y-580560D01*
X188760D01*
Y-573290D01*
D02*
G37*
G36*
X378860D02*
X370840D01*
Y-580560D01*
X378860D01*
Y-573290D01*
D02*
G37*
G36*
X364020D02*
X356000D01*
Y-580560D01*
X364020D01*
Y-573290D01*
D02*
G37*
G36*
X353460D02*
X345440D01*
Y-580560D01*
X353460D01*
Y-573290D01*
D02*
G37*
G36*
X178200D02*
X170180D01*
Y-580560D01*
X178200D01*
Y-573290D01*
D02*
G37*
G36*
X-345450Y-573580D02*
X-353470D01*
Y-580850D01*
X-345450D01*
Y-573580D01*
D02*
G37*
G36*
X-484750D02*
X-492770D01*
Y-580850D01*
X-484750D01*
Y-573580D01*
D02*
G37*
G36*
X-495310D02*
X-503330D01*
Y-580850D01*
X-495310D01*
Y-573580D01*
D02*
G37*
G36*
X-309490D02*
X-317510D01*
Y-580850D01*
X-309490D01*
Y-573580D01*
D02*
G37*
G36*
X-320050D02*
X-328070D01*
Y-580850D01*
X-320050D01*
Y-573580D01*
D02*
G37*
G36*
X-334890D02*
X-342910D01*
Y-580850D01*
X-334890D01*
Y-573580D01*
D02*
G37*
G36*
X389420Y-573290D02*
X381400D01*
Y-580560D01*
X389420D01*
Y-573290D01*
D02*
G37*
G36*
X-683790Y-564260D02*
X-691810D01*
Y-571530D01*
X-683790D01*
Y-564260D01*
D02*
G37*
G36*
X-694350D02*
X-702370D01*
Y-571530D01*
X-694350D01*
Y-564260D01*
D02*
G37*
G36*
X40110Y-572800D02*
X32090D01*
Y-580070D01*
X40110D01*
Y-572800D01*
D02*
G37*
G36*
X702290Y-563860D02*
X694270D01*
Y-571130D01*
X702290D01*
Y-563860D01*
D02*
G37*
G36*
X-658390Y-564260D02*
X-666410D01*
Y-571530D01*
X-658390D01*
Y-564260D01*
D02*
G37*
G36*
X-668950D02*
X-676970D01*
Y-571530D01*
X-668950D01*
Y-564260D01*
D02*
G37*
G36*
X29550Y-572800D02*
X21530D01*
Y-580070D01*
X29550D01*
Y-572800D01*
D02*
G37*
G36*
X-145710D02*
X-153730D01*
Y-580070D01*
X-145710D01*
Y-572800D01*
D02*
G37*
G36*
X-160550D02*
X-168570D01*
Y-580070D01*
X-160550D01*
Y-572800D01*
D02*
G37*
G36*
X-171110D02*
X-179130D01*
Y-580070D01*
X-171110D01*
Y-572800D01*
D02*
G37*
G36*
X14710D02*
X6690D01*
Y-580070D01*
X14710D01*
Y-572800D01*
D02*
G37*
G36*
X4150D02*
X-3870D01*
Y-580070D01*
X4150D01*
Y-572800D01*
D02*
G37*
G36*
X-135150D02*
X-143170D01*
Y-580070D01*
X-135150D01*
Y-572800D01*
D02*
G37*
G36*
X-510150Y-573580D02*
X-518170D01*
Y-580850D01*
X-510150D01*
Y-573580D01*
D02*
G37*
G36*
X-146950Y-589450D02*
X-162220D01*
Y-597470D01*
X-146950D01*
Y-589450D01*
D02*
G37*
G36*
X-164760D02*
X-180030D01*
Y-597470D01*
X-164760D01*
Y-589450D01*
D02*
G37*
G36*
X202360Y-589940D02*
X187090D01*
Y-597960D01*
X202360D01*
Y-589940D01*
D02*
G37*
G36*
X-844210Y-574070D02*
X-852230D01*
Y-581340D01*
X-844210D01*
Y-574070D01*
D02*
G37*
G36*
X-859050D02*
X-867070D01*
Y-581340D01*
X-859050D01*
Y-574070D01*
D02*
G37*
G36*
X-869610D02*
X-877630D01*
Y-581340D01*
X-869610D01*
Y-574070D01*
D02*
G37*
G36*
X184550Y-589940D02*
X169280D01*
Y-597960D01*
X184550D01*
Y-589940D01*
D02*
G37*
G36*
X533380Y-590320D02*
X518110D01*
Y-598340D01*
X533380D01*
Y-590320D01*
D02*
G37*
G36*
X27820Y-595140D02*
X12550D01*
Y-603160D01*
X27820D01*
Y-595140D01*
D02*
G37*
G36*
X10010D02*
X-5260D01*
Y-603160D01*
X10010D01*
Y-595140D01*
D02*
G37*
G36*
X-496550Y-590230D02*
X-511820D01*
Y-598250D01*
X-496550D01*
Y-590230D01*
D02*
G37*
G36*
X-514360D02*
X-529630D01*
Y-598250D01*
X-514360D01*
Y-590230D01*
D02*
G37*
G36*
X551190Y-590320D02*
X535920D01*
Y-598340D01*
X551190D01*
Y-590320D01*
D02*
G37*
G36*
X-833650Y-574070D02*
X-841670D01*
Y-581340D01*
X-833650D01*
Y-574070D01*
D02*
G37*
G36*
X712850Y-573670D02*
X704830D01*
Y-580940D01*
X712850D01*
Y-573670D01*
D02*
G37*
G36*
X702290D02*
X694270D01*
Y-580940D01*
X702290D01*
Y-573670D01*
D02*
G37*
G36*
X562990D02*
X554970D01*
Y-580940D01*
X562990D01*
Y-573670D01*
D02*
G37*
G36*
X-520710Y-573580D02*
X-528730D01*
Y-580850D01*
X-520710D01*
Y-573580D01*
D02*
G37*
G36*
X738250Y-573670D02*
X730230D01*
Y-580940D01*
X738250D01*
Y-573670D01*
D02*
G37*
G36*
X727690D02*
X719670D01*
Y-580940D01*
X727690D01*
Y-573670D01*
D02*
G37*
G36*
X552430D02*
X544410D01*
Y-580940D01*
X552430D01*
Y-573670D01*
D02*
G37*
G36*
X-668950Y-574070D02*
X-676970D01*
Y-581340D01*
X-668950D01*
Y-574070D01*
D02*
G37*
G36*
X-683790D02*
X-691810D01*
Y-581340D01*
X-683790D01*
Y-574070D01*
D02*
G37*
G36*
X-694350D02*
X-702370D01*
Y-581340D01*
X-694350D01*
Y-574070D01*
D02*
G37*
G36*
X537590Y-573670D02*
X529570D01*
Y-580940D01*
X537590D01*
Y-573670D01*
D02*
G37*
G36*
X527030D02*
X519010D01*
Y-580940D01*
X527030D01*
Y-573670D01*
D02*
G37*
G36*
X-658390Y-574070D02*
X-666410D01*
Y-581340D01*
X-658390D01*
Y-574070D01*
D02*
G37*
G36*
X-567350Y-545261D02*
X-575370D01*
Y-552530D01*
X-567350D01*
Y-545261D01*
D02*
G37*
G36*
X-732050D02*
X-740070D01*
Y-552530D01*
X-732050D01*
Y-545261D01*
D02*
G37*
G36*
X-742610D02*
X-750630D01*
Y-552530D01*
X-742610D01*
Y-545261D01*
D02*
G37*
G36*
X664590Y-544860D02*
X656570D01*
Y-552130D01*
X664590D01*
Y-544860D01*
D02*
G37*
G36*
X654030D02*
X646010D01*
Y-552130D01*
X654030D01*
Y-544860D01*
D02*
G37*
G36*
X-556790Y-545261D02*
X-564810D01*
Y-552530D01*
X-556790D01*
Y-545261D01*
D02*
G37*
G36*
X141710Y-553800D02*
X133690D01*
Y-561070D01*
X141710D01*
Y-553800D01*
D02*
G37*
G36*
X491020Y-554290D02*
X483000D01*
Y-561560D01*
X491020D01*
Y-554290D01*
D02*
G37*
G36*
X480460D02*
X472440D01*
Y-561560D01*
X480460D01*
Y-554290D01*
D02*
G37*
G36*
X315760D02*
X307740D01*
Y-561560D01*
X315760D01*
Y-554290D01*
D02*
G37*
G36*
X131150Y-553800D02*
X123130D01*
Y-561070D01*
X131150D01*
Y-553800D01*
D02*
G37*
G36*
X-33550D02*
X-41570D01*
Y-561070D01*
X-33550D01*
Y-553800D01*
D02*
G37*
G36*
X-44110D02*
X-52130D01*
Y-561070D01*
X-44110D01*
Y-553800D01*
D02*
G37*
G36*
X829290Y-544860D02*
X821270D01*
Y-552130D01*
X829290D01*
Y-544860D01*
D02*
G37*
G36*
X-44110Y-543991D02*
X-52130D01*
Y-551260D01*
X-44110D01*
Y-543991D01*
D02*
G37*
G36*
X491020Y-544480D02*
X483000D01*
Y-551750D01*
X491020D01*
Y-544480D01*
D02*
G37*
G36*
X480460D02*
X472440D01*
Y-551750D01*
X480460D01*
Y-544480D01*
D02*
G37*
G36*
X141710Y-543991D02*
X133690D01*
Y-551260D01*
X141710D01*
Y-543991D01*
D02*
G37*
G36*
X131150D02*
X123130D01*
Y-551260D01*
X131150D01*
Y-543991D01*
D02*
G37*
G36*
X-33550D02*
X-41570D01*
Y-551260D01*
X-33550D01*
Y-543991D01*
D02*
G37*
G36*
X315760Y-544480D02*
X307740D01*
Y-551750D01*
X315760D01*
Y-544480D01*
D02*
G37*
G36*
X-383150Y-544770D02*
X-391170D01*
Y-552040D01*
X-383150D01*
Y-544770D01*
D02*
G37*
G36*
X-393710D02*
X-401730D01*
Y-552040D01*
X-393710D01*
Y-544770D01*
D02*
G37*
G36*
X839850Y-544860D02*
X831830D01*
Y-552130D01*
X839850D01*
Y-544860D01*
D02*
G37*
G36*
X305200Y-544480D02*
X297180D01*
Y-551750D01*
X305200D01*
Y-544480D01*
D02*
G37*
G36*
X-207890Y-544770D02*
X-215910D01*
Y-552040D01*
X-207890D01*
Y-544770D01*
D02*
G37*
G36*
X-218450D02*
X-226470D01*
Y-552040D01*
X-218450D01*
Y-544770D01*
D02*
G37*
G36*
X305200Y-554290D02*
X297180D01*
Y-561560D01*
X305200D01*
Y-554290D01*
D02*
G37*
G36*
X378860Y-563480D02*
X370840D01*
Y-570750D01*
X378860D01*
Y-563480D01*
D02*
G37*
G36*
X364020D02*
X356000D01*
Y-570750D01*
X364020D01*
Y-563480D01*
D02*
G37*
G36*
X353460D02*
X345440D01*
Y-570750D01*
X353460D01*
Y-563480D01*
D02*
G37*
G36*
X14710Y-562990D02*
X6690D01*
Y-570260D01*
X14710D01*
Y-562990D01*
D02*
G37*
G36*
X4150D02*
X-3870D01*
Y-570260D01*
X4150D01*
Y-562990D01*
D02*
G37*
G36*
X389420Y-563480D02*
X381400D01*
Y-570750D01*
X389420D01*
Y-563480D01*
D02*
G37*
G36*
X-309490Y-563770D02*
X-317510D01*
Y-571040D01*
X-309490D01*
Y-563770D01*
D02*
G37*
G36*
X738250Y-563860D02*
X730230D01*
Y-571130D01*
X738250D01*
Y-563860D01*
D02*
G37*
G36*
X727690D02*
X719670D01*
Y-571130D01*
X727690D01*
Y-563860D01*
D02*
G37*
G36*
X712850D02*
X704830D01*
Y-571130D01*
X712850D01*
Y-563860D01*
D02*
G37*
G36*
X-320050Y-563770D02*
X-328070D01*
Y-571040D01*
X-320050D01*
Y-563770D01*
D02*
G37*
G36*
X-334890D02*
X-342910D01*
Y-571040D01*
X-334890D01*
Y-563770D01*
D02*
G37*
G36*
X-345450D02*
X-353470D01*
Y-571040D01*
X-345450D01*
Y-563770D01*
D02*
G37*
G36*
X29550Y-562990D02*
X21530D01*
Y-570260D01*
X29550D01*
Y-562990D01*
D02*
G37*
G36*
X-393710Y-554580D02*
X-401730D01*
Y-561850D01*
X-393710D01*
Y-554580D01*
D02*
G37*
G36*
X839850Y-554670D02*
X831830D01*
Y-561940D01*
X839850D01*
Y-554670D01*
D02*
G37*
G36*
X829290D02*
X821270D01*
Y-561940D01*
X829290D01*
Y-554670D01*
D02*
G37*
G36*
X-207890Y-554580D02*
X-215910D01*
Y-561850D01*
X-207890D01*
Y-554580D01*
D02*
G37*
G36*
X-218450D02*
X-226470D01*
Y-561850D01*
X-218450D01*
Y-554580D01*
D02*
G37*
G36*
X-383150D02*
X-391170D01*
Y-561850D01*
X-383150D01*
Y-554580D01*
D02*
G37*
G36*
X664590Y-554670D02*
X656570D01*
Y-561940D01*
X664590D01*
Y-554670D01*
D02*
G37*
G36*
X-732050Y-555070D02*
X-740070D01*
Y-562340D01*
X-732050D01*
Y-555070D01*
D02*
G37*
G36*
X-742610D02*
X-750630D01*
Y-562340D01*
X-742610D01*
Y-555070D01*
D02*
G37*
G36*
X40110Y-562990D02*
X32090D01*
Y-570260D01*
X40110D01*
Y-562990D01*
D02*
G37*
G36*
X654030Y-554670D02*
X646010D01*
Y-561940D01*
X654030D01*
Y-554670D01*
D02*
G37*
G36*
X-556790Y-555070D02*
X-564810D01*
Y-562340D01*
X-556790D01*
Y-555070D01*
D02*
G37*
G36*
X-567350D02*
X-575370D01*
Y-562340D01*
X-567350D01*
Y-555070D01*
D02*
G37*
G36*
X-670680Y-636470D02*
X-685950D01*
Y-644490D01*
X-670680D01*
Y-636470D01*
D02*
G37*
G36*
X-688490D02*
X-703760D01*
Y-644490D01*
X-688490D01*
Y-636470D01*
D02*
G37*
G36*
X126710Y-629890D02*
X120990D01*
Y-646460D01*
X126710D01*
Y-629890D01*
D02*
G37*
G36*
X-339590Y-635980D02*
X-354860D01*
Y-644000D01*
X-339590D01*
Y-635980D01*
D02*
G37*
G36*
X725960Y-636070D02*
X710690D01*
Y-644090D01*
X725960D01*
Y-636070D01*
D02*
G37*
G36*
X708150D02*
X692880D01*
Y-644090D01*
X708150D01*
Y-636070D01*
D02*
G37*
G36*
X42250Y-629890D02*
X36530D01*
Y-646460D01*
X42250D01*
Y-629890D01*
D02*
G37*
G36*
X300760Y-630380D02*
X295040D01*
Y-646950D01*
X300760D01*
Y-630380D01*
D02*
G37*
G36*
X-222890Y-630670D02*
X-228610D01*
Y-647240D01*
X-222890D01*
Y-630670D01*
D02*
G37*
G36*
X-307350D02*
X-313070D01*
Y-647240D01*
X-307350D01*
Y-630670D01*
D02*
G37*
G36*
X-48550Y-629890D02*
X-54270D01*
Y-646460D01*
X-48550D01*
Y-629890D01*
D02*
G37*
G36*
X476020Y-630380D02*
X470300D01*
Y-646950D01*
X476020D01*
Y-630380D01*
D02*
G37*
G36*
X391560D02*
X385840D01*
Y-646950D01*
X391560D01*
Y-630380D01*
D02*
G37*
G36*
X-321780Y-635980D02*
X-337050D01*
Y-644000D01*
X-321780D01*
Y-635980D01*
D02*
G37*
G36*
X-146950Y-629510D02*
X-162220D01*
Y-637530D01*
X-146950D01*
Y-629510D01*
D02*
G37*
G36*
X202360Y-630000D02*
X187090D01*
Y-638020D01*
X202360D01*
Y-630000D01*
D02*
G37*
G36*
X-496550Y-630290D02*
X-511820D01*
Y-638310D01*
X-496550D01*
Y-630290D01*
D02*
G37*
G36*
X708150Y-625510D02*
X692880D01*
Y-633530D01*
X708150D01*
Y-625510D01*
D02*
G37*
G36*
X-670680Y-625910D02*
X-685950D01*
Y-633930D01*
X-670680D01*
Y-625910D01*
D02*
G37*
G36*
X-688490D02*
X-703760D01*
Y-633930D01*
X-688490D01*
Y-625910D01*
D02*
G37*
G36*
X551190Y-630380D02*
X535920D01*
Y-638400D01*
X551190D01*
Y-630380D01*
D02*
G37*
G36*
X10010Y-635200D02*
X-5260D01*
Y-643220D01*
X10010D01*
Y-635200D01*
D02*
G37*
G36*
X377130Y-635690D02*
X361860D01*
Y-643710D01*
X377130D01*
Y-635690D01*
D02*
G37*
G36*
X359320D02*
X344050D01*
Y-643710D01*
X359320D01*
Y-635690D01*
D02*
G37*
G36*
X-846700Y-632260D02*
X-861970D01*
Y-640280D01*
X-846700D01*
Y-632260D01*
D02*
G37*
G36*
X-864510D02*
X-879780D01*
Y-640280D01*
X-864510D01*
Y-632260D01*
D02*
G37*
G36*
X27820Y-635200D02*
X12550D01*
Y-643220D01*
X27820D01*
Y-635200D01*
D02*
G37*
G36*
X-398150Y-630670D02*
X-403870D01*
Y-647240D01*
X-398150D01*
Y-630670D01*
D02*
G37*
G36*
X-370850Y-652670D02*
X-378870D01*
Y-659940D01*
X-370850D01*
Y-652670D01*
D02*
G37*
G36*
X-181220Y-652670D02*
X-189240D01*
Y-659940D01*
X-181220D01*
Y-652670D01*
D02*
G37*
G36*
X-191780D02*
X-199800D01*
Y-659940D01*
X-191780D01*
Y-652670D01*
D02*
G37*
G36*
X517690Y-652380D02*
X509670D01*
Y-659650D01*
X517690D01*
Y-652380D01*
D02*
G37*
G36*
X507130D02*
X499110D01*
Y-659650D01*
X507130D01*
Y-652380D01*
D02*
G37*
G36*
X-360290Y-652670D02*
X-368310D01*
Y-659940D01*
X-360290D01*
Y-652670D01*
D02*
G37*
G36*
X687450Y-652760D02*
X679430D01*
Y-660030D01*
X687450D01*
Y-652760D01*
D02*
G37*
G36*
X-709190Y-653160D02*
X-717210D01*
Y-660430D01*
X-709190D01*
Y-653160D01*
D02*
G37*
G36*
X-719750D02*
X-727770D01*
Y-660430D01*
X-719750D01*
Y-653160D01*
D02*
G37*
G36*
X-530120Y-653160D02*
X-538140D01*
Y-660430D01*
X-530120D01*
Y-653160D01*
D02*
G37*
G36*
X676890Y-652760D02*
X668870D01*
Y-660030D01*
X676890D01*
Y-652760D01*
D02*
G37*
G36*
X866520Y-652760D02*
X858500D01*
Y-660030D01*
X866520D01*
Y-652760D01*
D02*
G37*
G36*
X855960D02*
X847940D01*
Y-660030D01*
X855960D01*
Y-652760D01*
D02*
G37*
G36*
X328060Y-652380D02*
X320040D01*
Y-659650D01*
X328060D01*
Y-652380D01*
D02*
G37*
G36*
X-571790Y-631160D02*
X-577510D01*
Y-647730D01*
X-571790D01*
Y-631160D01*
D02*
G37*
G36*
X-656250D02*
X-661970D01*
Y-647730D01*
X-656250D01*
Y-631160D01*
D02*
G37*
G36*
X-747050D02*
X-752770D01*
Y-647730D01*
X-747050D01*
Y-631160D01*
D02*
G37*
G36*
X824850Y-630760D02*
X819130D01*
Y-647330D01*
X824850D01*
Y-630760D01*
D02*
G37*
G36*
X740390D02*
X734670D01*
Y-647330D01*
X740390D01*
Y-630760D01*
D02*
G37*
G36*
X649590D02*
X643870D01*
Y-647330D01*
X649590D01*
Y-630760D01*
D02*
G37*
G36*
X-846700Y-642820D02*
X-861970D01*
Y-650840D01*
X-846700D01*
Y-642820D01*
D02*
G37*
G36*
X168380Y-651890D02*
X160360D01*
Y-659160D01*
X168380D01*
Y-651890D01*
D02*
G37*
G36*
X157820D02*
X149800D01*
Y-659160D01*
X157820D01*
Y-651890D01*
D02*
G37*
G36*
X338620Y-652380D02*
X330600D01*
Y-659650D01*
X338620D01*
Y-652380D01*
D02*
G37*
G36*
X-864510Y-642820D02*
X-879780D01*
Y-650840D01*
X-864510D01*
Y-642820D01*
D02*
G37*
G36*
X-10690Y-651890D02*
X-18710D01*
Y-659160D01*
X-10690D01*
Y-651890D01*
D02*
G37*
G36*
X-21250D02*
X-29270D01*
Y-659160D01*
X-21250D01*
Y-651890D01*
D02*
G37*
G36*
X-736000Y-598460D02*
X-743270D01*
Y-606480D01*
X-736000D01*
Y-598460D01*
D02*
G37*
G36*
X-146950Y-600010D02*
X-162220D01*
Y-608030D01*
X-146950D01*
Y-600010D01*
D02*
G37*
G36*
X-164760D02*
X-180030D01*
Y-608030D01*
X-164760D01*
Y-600010D01*
D02*
G37*
G36*
X835900Y-598060D02*
X828630D01*
Y-606080D01*
X835900D01*
Y-598060D01*
D02*
G37*
G36*
X660640D02*
X653370D01*
Y-606080D01*
X660640D01*
Y-598060D01*
D02*
G37*
G36*
X-560740Y-598460D02*
X-568010D01*
Y-606480D01*
X-560740D01*
Y-598460D01*
D02*
G37*
G36*
X202360Y-600500D02*
X187090D01*
Y-608520D01*
X202360D01*
Y-600500D01*
D02*
G37*
G36*
X551190Y-600880D02*
X535920D01*
Y-608900D01*
X551190D01*
Y-600880D01*
D02*
G37*
G36*
X533380D02*
X518110D01*
Y-608900D01*
X533380D01*
Y-600880D01*
D02*
G37*
G36*
X-846700Y-602760D02*
X-861970D01*
Y-610780D01*
X-846700D01*
Y-602760D01*
D02*
G37*
G36*
X184550Y-600500D02*
X169280D01*
Y-608520D01*
X184550D01*
Y-600500D01*
D02*
G37*
G36*
X-496550Y-600790D02*
X-511820D01*
Y-608810D01*
X-496550D01*
Y-600790D01*
D02*
G37*
G36*
X-514360D02*
X-529630D01*
Y-608810D01*
X-514360D01*
Y-600790D01*
D02*
G37*
G36*
X-387100Y-597970D02*
X-394370D01*
Y-605990D01*
X-387100D01*
Y-597970D01*
D02*
G37*
G36*
X-339590Y-595920D02*
X-354860D01*
Y-603940D01*
X-339590D01*
Y-595920D01*
D02*
G37*
G36*
X725960Y-596010D02*
X710690D01*
Y-604030D01*
X725960D01*
Y-596010D01*
D02*
G37*
G36*
X708150D02*
X692880D01*
Y-604030D01*
X708150D01*
Y-596010D01*
D02*
G37*
G36*
X377130Y-595630D02*
X361860D01*
Y-603650D01*
X377130D01*
Y-595630D01*
D02*
G37*
G36*
X359320D02*
X344050D01*
Y-603650D01*
X359320D01*
Y-595630D01*
D02*
G37*
G36*
X-321780Y-595920D02*
X-337050D01*
Y-603940D01*
X-321780D01*
Y-595920D01*
D02*
G37*
G36*
X-670680Y-596410D02*
X-685950D01*
Y-604430D01*
X-670680D01*
Y-596410D01*
D02*
G37*
G36*
X487070Y-597680D02*
X479800D01*
Y-605700D01*
X487070D01*
Y-597680D01*
D02*
G37*
G36*
X311810D02*
X304540D01*
Y-605700D01*
X311810D01*
Y-597680D01*
D02*
G37*
G36*
X-211840Y-597970D02*
X-219110D01*
Y-605990D01*
X-211840D01*
Y-597970D01*
D02*
G37*
G36*
X-688490Y-596410D02*
X-703760D01*
Y-604430D01*
X-688490D01*
Y-596410D01*
D02*
G37*
G36*
X137760Y-597190D02*
X130490D01*
Y-605210D01*
X137760D01*
Y-597190D01*
D02*
G37*
G36*
X-37500D02*
X-44770D01*
Y-605210D01*
X-37500D01*
Y-597190D01*
D02*
G37*
G36*
X-864510Y-602760D02*
X-879780D01*
Y-610780D01*
X-864510D01*
Y-602760D01*
D02*
G37*
G36*
X660640Y-608620D02*
X653370D01*
Y-616640D01*
X660640D01*
Y-608620D01*
D02*
G37*
G36*
X-560740Y-609020D02*
X-568010D01*
Y-617040D01*
X-560740D01*
Y-609020D01*
D02*
G37*
G36*
X-736000D02*
X-743270D01*
Y-617040D01*
X-736000D01*
Y-609020D01*
D02*
G37*
G36*
X-211840Y-608530D02*
X-219110D01*
Y-616550D01*
X-211840D01*
Y-608530D01*
D02*
G37*
G36*
X-387100D02*
X-394370D01*
Y-616550D01*
X-387100D01*
Y-608530D01*
D02*
G37*
G36*
X835900Y-608620D02*
X828630D01*
Y-616640D01*
X835900D01*
Y-608620D01*
D02*
G37*
G36*
X27820Y-624640D02*
X12550D01*
Y-632660D01*
X27820D01*
Y-624640D01*
D02*
G37*
G36*
X-321780Y-625420D02*
X-337050D01*
Y-633440D01*
X-321780D01*
Y-625420D01*
D02*
G37*
G36*
X-339590D02*
X-354860D01*
Y-633440D01*
X-339590D01*
Y-625420D01*
D02*
G37*
G36*
X725960Y-625510D02*
X710690D01*
Y-633530D01*
X725960D01*
Y-625510D01*
D02*
G37*
G36*
X10010Y-624640D02*
X-5260D01*
Y-632660D01*
X10010D01*
Y-624640D01*
D02*
G37*
G36*
X377130Y-625130D02*
X361860D01*
Y-633150D01*
X377130D01*
Y-625130D01*
D02*
G37*
G36*
X359320D02*
X344050D01*
Y-633150D01*
X359320D01*
Y-625130D01*
D02*
G37*
G36*
X311810Y-608240D02*
X304540D01*
Y-616260D01*
X311810D01*
Y-608240D01*
D02*
G37*
G36*
X359320Y-606190D02*
X344050D01*
Y-614210D01*
X359320D01*
Y-606190D01*
D02*
G37*
G36*
X-321780Y-606480D02*
X-337050D01*
Y-614500D01*
X-321780D01*
Y-606480D01*
D02*
G37*
G36*
X-339590D02*
X-354860D01*
Y-614500D01*
X-339590D01*
Y-606480D01*
D02*
G37*
G36*
X27820Y-605700D02*
X12550D01*
Y-613720D01*
X27820D01*
Y-605700D01*
D02*
G37*
G36*
X10010D02*
X-5260D01*
Y-613720D01*
X10010D01*
Y-605700D01*
D02*
G37*
G36*
X377130Y-606190D02*
X361860D01*
Y-614210D01*
X377130D01*
Y-606190D01*
D02*
G37*
G36*
X725960Y-606570D02*
X710690D01*
Y-614590D01*
X725960D01*
Y-606570D01*
D02*
G37*
G36*
X137760Y-607750D02*
X130490D01*
Y-615770D01*
X137760D01*
Y-607750D01*
D02*
G37*
G36*
X-37500D02*
X-44770D01*
Y-615770D01*
X-37500D01*
Y-607750D01*
D02*
G37*
G36*
X487070Y-608240D02*
X479800D01*
Y-616260D01*
X487070D01*
Y-608240D01*
D02*
G37*
G36*
X708150Y-606570D02*
X692880D01*
Y-614590D01*
X708150D01*
Y-606570D01*
D02*
G37*
G36*
X-670680Y-606970D02*
X-685950D01*
Y-614990D01*
X-670680D01*
Y-606970D01*
D02*
G37*
G36*
X-688490D02*
X-703760D01*
Y-614990D01*
X-688490D01*
Y-606970D01*
D02*
G37*
%LPD*%
D10*
X-155500Y-165000D02*
D03*
X-174500D02*
D03*
X-155500Y-125000D02*
D03*
X-174500D02*
D03*
X-155500Y-95000D02*
D03*
X-174500D02*
D03*
X-155500Y-75000D02*
D03*
X-174500D02*
D03*
X-155500Y-35000D02*
D03*
X-174500D02*
D03*
X-695500Y-130000D02*
D03*
X-714500D02*
D03*
X-660500D02*
D03*
X-679500D02*
D03*
X-625500D02*
D03*
X-644500D02*
D03*
X-590500D02*
D03*
X-609500D02*
D03*
X-730500D02*
D03*
X-749500D02*
D03*
X-548000Y-45000D02*
D03*
X-567000D02*
D03*
X-507000Y-155000D02*
D03*
X-488000D02*
D03*
X57180Y-236920D02*
D03*
X38180D02*
D03*
X57180Y-262320D02*
D03*
X38180D02*
D03*
X776560Y-581950D02*
D03*
X757560D02*
D03*
X776560Y-556550D02*
D03*
X757560D02*
D03*
X808360Y-607350D02*
D03*
X827360D02*
D03*
X812120Y-486700D02*
D03*
X793120D02*
D03*
X601300Y-556550D02*
D03*
X582300D02*
D03*
X601300Y-581950D02*
D03*
X582300D02*
D03*
X633100Y-607350D02*
D03*
X652100D02*
D03*
X691520Y-486700D02*
D03*
X710520D02*
D03*
X757560Y-607350D02*
D03*
X776560D02*
D03*
X849000Y-715300D02*
D03*
X868000D02*
D03*
X849000Y-689900D02*
D03*
X868000D02*
D03*
X582300Y-607350D02*
D03*
X601300D02*
D03*
X673740Y-689900D02*
D03*
X692740D02*
D03*
X673740Y-715300D02*
D03*
X692740D02*
D03*
X-521540Y-429440D02*
D03*
X-502540D02*
D03*
X-521540Y-409120D02*
D03*
X-502540D02*
D03*
X-521540Y-368480D02*
D03*
X-502540D02*
D03*
X-521540Y-388800D02*
D03*
X-502540D02*
D03*
X-639081Y-582350D02*
D03*
X-620080D02*
D03*
X-290180Y-581860D02*
D03*
X-271180D02*
D03*
X59419Y-581080D02*
D03*
X78419D02*
D03*
X408730Y-581570D02*
D03*
X427729D02*
D03*
X-639081Y-556950D02*
D03*
X-620080D02*
D03*
X-290180Y-556460D02*
D03*
X-271180D02*
D03*
X59419Y-555680D02*
D03*
X78419D02*
D03*
X408730Y-556170D02*
D03*
X427729D02*
D03*
X-569280Y-607750D02*
D03*
X-588280D02*
D03*
X-220380Y-607260D02*
D03*
X-239380D02*
D03*
X129220Y-606480D02*
D03*
X110220D02*
D03*
X478530Y-606970D02*
D03*
X459530D02*
D03*
X-750841Y-499800D02*
D03*
X-731841D02*
D03*
X-274570Y-499800D02*
D03*
X-255570D02*
D03*
X100059Y-485830D02*
D03*
X119059D02*
D03*
X563670Y-486320D02*
D03*
X582669D02*
D03*
X-814341Y-556950D02*
D03*
X-795340D02*
D03*
X-465440Y-556460D02*
D03*
X-446440D02*
D03*
X-115841Y-555680D02*
D03*
X-96840D02*
D03*
X233470Y-556170D02*
D03*
X252470D02*
D03*
X-814341Y-582350D02*
D03*
X-795340D02*
D03*
X-465440Y-581860D02*
D03*
X-446440D02*
D03*
X-115841Y-581080D02*
D03*
X-96840D02*
D03*
X233470Y-581570D02*
D03*
X252470D02*
D03*
X-744540Y-607750D02*
D03*
X-763540D02*
D03*
X-395640Y-607260D02*
D03*
X-414640D02*
D03*
X-46040Y-606480D02*
D03*
X-65040D02*
D03*
X303270Y-606970D02*
D03*
X284270D02*
D03*
X-833440Y-499800D02*
D03*
X-852440D02*
D03*
X-357170Y-499800D02*
D03*
X-376170D02*
D03*
X17460Y-485830D02*
D03*
X-1540D02*
D03*
X481070Y-486320D02*
D03*
X462070D02*
D03*
X-620080Y-607750D02*
D03*
X-639080D02*
D03*
X-271180Y-607260D02*
D03*
X-290180D02*
D03*
X78420Y-606480D02*
D03*
X59420D02*
D03*
X427730Y-606970D02*
D03*
X408730D02*
D03*
X-528640Y-715700D02*
D03*
X-547640D02*
D03*
X-179740Y-715210D02*
D03*
X-198740D02*
D03*
X169860Y-714430D02*
D03*
X150860D02*
D03*
X519170Y-714920D02*
D03*
X500170D02*
D03*
X-528640Y-690300D02*
D03*
X-547640D02*
D03*
X-179740Y-689810D02*
D03*
X-198740D02*
D03*
X169860Y-689030D02*
D03*
X150860D02*
D03*
X519170Y-689520D02*
D03*
X500170D02*
D03*
X-795340Y-607750D02*
D03*
X-814340D02*
D03*
X-446440Y-607260D02*
D03*
X-465440D02*
D03*
X-96840Y-606480D02*
D03*
X-115840D02*
D03*
X252470Y-606970D02*
D03*
X233470D02*
D03*
X-703900Y-690300D02*
D03*
X-722900D02*
D03*
X-355000Y-689810D02*
D03*
X-374000D02*
D03*
X-5400Y-689030D02*
D03*
X-24400D02*
D03*
X343910Y-689520D02*
D03*
X324910D02*
D03*
X-703900Y-715700D02*
D03*
X-722900D02*
D03*
X-355000Y-715210D02*
D03*
X-374000D02*
D03*
X-5400Y-714430D02*
D03*
X-24400D02*
D03*
X343910Y-714920D02*
D03*
X324910D02*
D03*
X-521540Y-510720D02*
D03*
X-502540D02*
D03*
X-521540Y-490400D02*
D03*
X-502540D02*
D03*
X-521540Y-470080D02*
D03*
X-502540D02*
D03*
X-521540Y-449760D02*
D03*
X-502540D02*
D03*
D11*
X-132000Y-160000D02*
D03*
X-98000D02*
D03*
X-242000D02*
D03*
X-208000D02*
D03*
X-132000Y-130000D02*
D03*
X-98000D02*
D03*
X-132000Y-100000D02*
D03*
X-98000D02*
D03*
X-132000Y-70000D02*
D03*
X-98000D02*
D03*
X-132000Y-40000D02*
D03*
X-98000D02*
D03*
X-337000Y-150000D02*
D03*
X-303000D02*
D03*
X-507000Y-130000D02*
D03*
X-473000D02*
D03*
D12*
X-265000Y-159500D02*
D03*
Y-140500D02*
D03*
X-335000Y-119500D02*
D03*
Y-100500D02*
D03*
X-380000Y-119500D02*
D03*
Y-100500D02*
D03*
X-36490Y-482630D02*
D03*
Y-463630D02*
D03*
X-217180Y-572310D02*
D03*
Y-553310D02*
D03*
X789920Y-312760D02*
D03*
Y-331760D02*
D03*
X713720Y-312100D02*
D03*
Y-331100D02*
D03*
X805160Y-572400D02*
D03*
Y-553400D02*
D03*
X830560Y-553400D02*
D03*
Y-572400D02*
D03*
X728960Y-553400D02*
D03*
Y-572400D02*
D03*
X847070Y-483500D02*
D03*
Y-464500D02*
D03*
X768710Y-502950D02*
D03*
Y-483950D02*
D03*
X629900Y-572400D02*
D03*
Y-553400D02*
D03*
X655300Y-553400D02*
D03*
Y-572400D02*
D03*
X553700Y-553400D02*
D03*
Y-572400D02*
D03*
X735690Y-502950D02*
D03*
Y-483950D02*
D03*
X656570Y-483500D02*
D03*
Y-464500D02*
D03*
X857230Y-642300D02*
D03*
Y-661300D02*
D03*
X678160Y-661300D02*
D03*
Y-642300D02*
D03*
X703560Y-553400D02*
D03*
Y-572400D02*
D03*
X815320Y-439100D02*
D03*
Y-458100D02*
D03*
X764520Y-312100D02*
D03*
Y-331100D02*
D03*
X528300Y-553400D02*
D03*
Y-572400D02*
D03*
X739120Y-312100D02*
D03*
Y-331100D02*
D03*
X815320Y-413650D02*
D03*
Y-394650D02*
D03*
X688320Y-458100D02*
D03*
Y-439100D02*
D03*
X-754040Y-325860D02*
D03*
Y-344860D02*
D03*
X-277770Y-325860D02*
D03*
Y-344860D02*
D03*
X96860Y-311890D02*
D03*
Y-330890D02*
D03*
X560470Y-312380D02*
D03*
Y-331380D02*
D03*
X-830220Y-325200D02*
D03*
Y-344200D02*
D03*
X-353970Y-325200D02*
D03*
Y-344200D02*
D03*
X20660Y-311230D02*
D03*
Y-330230D02*
D03*
X484270Y-311720D02*
D03*
Y-330720D02*
D03*
X-591480Y-553800D02*
D03*
Y-572800D02*
D03*
X-242580Y-553310D02*
D03*
Y-572310D02*
D03*
X107020Y-552530D02*
D03*
Y-571530D02*
D03*
X456330Y-553020D02*
D03*
Y-572020D02*
D03*
X-566080Y-572800D02*
D03*
Y-553800D02*
D03*
X132420Y-571530D02*
D03*
Y-552530D02*
D03*
X481730Y-572020D02*
D03*
Y-553020D02*
D03*
X-667680Y-572800D02*
D03*
Y-553800D02*
D03*
X-318780Y-572310D02*
D03*
Y-553310D02*
D03*
X30820Y-571530D02*
D03*
Y-552530D02*
D03*
X380130Y-572020D02*
D03*
Y-553020D02*
D03*
X-696890Y-477600D02*
D03*
Y-496600D02*
D03*
X-220620Y-477600D02*
D03*
Y-496600D02*
D03*
X154010Y-463630D02*
D03*
Y-482630D02*
D03*
X617620Y-464120D02*
D03*
Y-483120D02*
D03*
X-775250Y-497050D02*
D03*
Y-516050D02*
D03*
X-298980Y-497050D02*
D03*
Y-516050D02*
D03*
X75650Y-483080D02*
D03*
Y-502080D02*
D03*
X538880Y-486440D02*
D03*
Y-467440D02*
D03*
X-766740Y-553800D02*
D03*
Y-572800D02*
D03*
X-417840Y-553310D02*
D03*
Y-572310D02*
D03*
X-68240Y-552530D02*
D03*
Y-571530D02*
D03*
X281070Y-553020D02*
D03*
Y-572020D02*
D03*
X-741340Y-572800D02*
D03*
Y-553800D02*
D03*
X-392440Y-572310D02*
D03*
Y-553310D02*
D03*
X-42840Y-571530D02*
D03*
Y-552530D02*
D03*
X306470Y-572020D02*
D03*
Y-553020D02*
D03*
X-842940Y-572800D02*
D03*
Y-553800D02*
D03*
X-494040Y-572310D02*
D03*
Y-553310D02*
D03*
X-144440Y-571530D02*
D03*
Y-552530D02*
D03*
X204870Y-572020D02*
D03*
Y-553020D02*
D03*
X-808270Y-497050D02*
D03*
Y-516050D02*
D03*
X-332000Y-497050D02*
D03*
Y-516050D02*
D03*
X42630Y-483080D02*
D03*
Y-502080D02*
D03*
X503280Y-486440D02*
D03*
Y-467440D02*
D03*
X-887390Y-477600D02*
D03*
Y-496600D02*
D03*
X-411120Y-477600D02*
D03*
Y-496600D02*
D03*
X427120Y-464120D02*
D03*
Y-483120D02*
D03*
X-539410Y-642700D02*
D03*
Y-661700D02*
D03*
X-190510Y-642210D02*
D03*
Y-661210D02*
D03*
X159090Y-641430D02*
D03*
Y-660430D02*
D03*
X508400Y-641920D02*
D03*
Y-660920D02*
D03*
X-718480Y-642700D02*
D03*
Y-661700D02*
D03*
X-369580Y-642210D02*
D03*
Y-661210D02*
D03*
X-19980Y-641430D02*
D03*
Y-660430D02*
D03*
X329330Y-641920D02*
D03*
Y-660920D02*
D03*
X-26900Y-234520D02*
D03*
Y-253520D02*
D03*
X454200Y-226380D02*
D03*
Y-245380D02*
D03*
X-693080Y-572800D02*
D03*
Y-553800D02*
D03*
X-344180Y-572310D02*
D03*
Y-553310D02*
D03*
X5420Y-571530D02*
D03*
Y-552530D02*
D03*
X354730Y-572020D02*
D03*
Y-553020D02*
D03*
X-728640Y-471200D02*
D03*
Y-452200D02*
D03*
X-252370Y-471200D02*
D03*
Y-452200D02*
D03*
X122260Y-457230D02*
D03*
Y-438230D02*
D03*
X585870Y-457720D02*
D03*
Y-438720D02*
D03*
X-779440Y-344200D02*
D03*
Y-325200D02*
D03*
X-303170Y-344200D02*
D03*
Y-325200D02*
D03*
X71460Y-330230D02*
D03*
Y-311230D02*
D03*
X535070Y-330720D02*
D03*
Y-311720D02*
D03*
X-868340Y-572800D02*
D03*
Y-553800D02*
D03*
X-519440Y-572310D02*
D03*
Y-553310D02*
D03*
X-169840Y-571530D02*
D03*
Y-552530D02*
D03*
X179470Y-572020D02*
D03*
Y-553020D02*
D03*
X-804840Y-344200D02*
D03*
Y-325200D02*
D03*
X-328570Y-344200D02*
D03*
Y-325200D02*
D03*
X46060Y-330230D02*
D03*
Y-311230D02*
D03*
X509670Y-330720D02*
D03*
Y-311720D02*
D03*
X-728640Y-407750D02*
D03*
Y-426750D02*
D03*
X-252370Y-407750D02*
D03*
Y-426750D02*
D03*
X122260Y-393780D02*
D03*
Y-412780D02*
D03*
X585870Y-394270D02*
D03*
Y-413270D02*
D03*
X-855640Y-452200D02*
D03*
Y-471200D02*
D03*
X-379370Y-452200D02*
D03*
Y-471200D02*
D03*
X-4740Y-438230D02*
D03*
Y-457230D02*
D03*
X458870Y-438720D02*
D03*
Y-457720D02*
D03*
X-406582Y-246821D02*
D03*
Y-265821D02*
D03*
D13*
X-695000Y-153000D02*
D03*
Y-187000D02*
D03*
X-660000Y-153000D02*
D03*
Y-187000D02*
D03*
X-625000Y-153000D02*
D03*
Y-187000D02*
D03*
X-730000Y-153000D02*
D03*
Y-187000D02*
D03*
X-375000Y-143000D02*
D03*
Y-177000D02*
D03*
X-552500Y-68000D02*
D03*
Y-102000D02*
D03*
X-590000Y-153000D02*
D03*
Y-187000D02*
D03*
D14*
X-352500Y-265500D02*
D03*
Y-254500D02*
D03*
X-340000Y-265500D02*
D03*
Y-254500D02*
D03*
X-327500Y-265500D02*
D03*
Y-254500D02*
D03*
X-315000Y-254500D02*
D03*
Y-265500D02*
D03*
X-352500Y-209500D02*
D03*
Y-220500D02*
D03*
X-340000Y-209500D02*
D03*
Y-220500D02*
D03*
X-327500Y-209500D02*
D03*
Y-220500D02*
D03*
X-315000Y-220500D02*
D03*
Y-209500D02*
D03*
X452780Y-205420D02*
D03*
Y-194420D02*
D03*
X-406582Y-212721D02*
D03*
Y-223721D02*
D03*
D15*
X6620Y-249620D02*
D03*
X17620D02*
D03*
X6620Y-264860D02*
D03*
X17620D02*
D03*
X-17500Y-208000D02*
D03*
X-28500D02*
D03*
X332680Y-469320D02*
D03*
X343680D02*
D03*
X369080D02*
D03*
X358080D02*
D03*
X218380D02*
D03*
X229380D02*
D03*
X254780D02*
D03*
X243780D02*
D03*
X394480D02*
D03*
X383480D02*
D03*
X280180D02*
D03*
X269180D02*
D03*
X-134680Y-479480D02*
D03*
X-123680D02*
D03*
X-98280D02*
D03*
X-109280D02*
D03*
X-624220Y-475160D02*
D03*
X-613220D02*
D03*
X-587820D02*
D03*
X-598820D02*
D03*
X-72880Y-479480D02*
D03*
X-83880D02*
D03*
X-562420Y-475160D02*
D03*
X-573420D02*
D03*
D16*
X-863240Y-641550D02*
D03*
Y-612050D02*
D03*
X709420Y-634800D02*
D03*
Y-605300D02*
D03*
X534650Y-629110D02*
D03*
Y-599610D02*
D03*
X-687220Y-635200D02*
D03*
Y-605700D02*
D03*
X-338320Y-634710D02*
D03*
Y-605210D02*
D03*
X11280Y-633930D02*
D03*
Y-604430D02*
D03*
X360590Y-634420D02*
D03*
Y-604920D02*
D03*
X-513090Y-629020D02*
D03*
Y-599520D02*
D03*
X-163490Y-628240D02*
D03*
Y-598740D02*
D03*
X185820Y-628730D02*
D03*
Y-599230D02*
D03*
D17*
X-157060Y-224728D02*
D03*
Y-235728D02*
D03*
Y-246728D02*
D03*
X-182460Y-224728D02*
D03*
Y-235728D02*
D03*
Y-246728D02*
D03*
X-207860Y-224728D02*
D03*
Y-235728D02*
D03*
Y-246728D02*
D03*
X325240Y-234356D02*
D03*
Y-223356D02*
D03*
Y-212356D02*
D03*
X299840Y-234356D02*
D03*
Y-223356D02*
D03*
Y-212356D02*
D03*
X272440Y-233868D02*
D03*
Y-222868D02*
D03*
Y-211868D02*
D03*
X-586922Y-252257D02*
D03*
Y-241257D02*
D03*
Y-230257D02*
D03*
X-561522Y-252257D02*
D03*
Y-241257D02*
D03*
Y-230257D02*
D03*
X-536122Y-252257D02*
D03*
Y-241257D02*
D03*
Y-230257D02*
D03*
D18*
X779760Y-721650D02*
D03*
X604500D02*
D03*
X-616880Y-722050D02*
D03*
X-267980Y-721560D02*
D03*
X81620Y-720780D02*
D03*
X430930Y-721270D02*
D03*
X-792140Y-722050D02*
D03*
X-443240Y-721560D02*
D03*
X-93640Y-720780D02*
D03*
X255670Y-721270D02*
D03*
D19*
X792460Y-648600D02*
D03*
X805160D02*
D03*
X817860D02*
D03*
X779760D02*
D03*
X767060D02*
D03*
X754360D02*
D03*
X741660D02*
D03*
X617200D02*
D03*
X629900D02*
D03*
X642600D02*
D03*
X604500D02*
D03*
X591800D02*
D03*
X579100D02*
D03*
X566400D02*
D03*
X-604180Y-649000D02*
D03*
X-591480D02*
D03*
X-578780D02*
D03*
X-616880D02*
D03*
X-629580D02*
D03*
X-642280D02*
D03*
X-654980D02*
D03*
X-255280Y-648510D02*
D03*
X-242580D02*
D03*
X-229880D02*
D03*
X-267980D02*
D03*
X-280680D02*
D03*
X-293380D02*
D03*
X-306080D02*
D03*
X94320Y-647730D02*
D03*
X107020D02*
D03*
X119720D02*
D03*
X81620D02*
D03*
X68920D02*
D03*
X56220D02*
D03*
X43520D02*
D03*
X443630Y-648220D02*
D03*
X456330D02*
D03*
X469030D02*
D03*
X430930D02*
D03*
X418230D02*
D03*
X405530D02*
D03*
X392830D02*
D03*
X-779440Y-649000D02*
D03*
X-766740D02*
D03*
X-754040D02*
D03*
X-792140D02*
D03*
X-804840D02*
D03*
X-817540D02*
D03*
X-830240D02*
D03*
X-430540Y-648510D02*
D03*
X-417840D02*
D03*
X-405140D02*
D03*
X-443240D02*
D03*
X-455940D02*
D03*
X-468640D02*
D03*
X-481340D02*
D03*
X-80940Y-647730D02*
D03*
X-68240D02*
D03*
X-55540D02*
D03*
X-93640D02*
D03*
X-106340D02*
D03*
X-119040D02*
D03*
X-131740D02*
D03*
X268370Y-648220D02*
D03*
X281070D02*
D03*
X293770D02*
D03*
X255670D02*
D03*
X242970D02*
D03*
X230270D02*
D03*
X217570D02*
D03*
D20*
X716895Y-428150D02*
D03*
X723245D02*
D03*
X729595D02*
D03*
X735945D02*
D03*
X742295D02*
D03*
X748645D02*
D03*
X754995D02*
D03*
X761345D02*
D03*
X767695D02*
D03*
X774045D02*
D03*
X780395D02*
D03*
X786745D02*
D03*
X716895Y-380150D02*
D03*
X723245D02*
D03*
X729595D02*
D03*
X735945D02*
D03*
X742295D02*
D03*
X748645D02*
D03*
X754995D02*
D03*
X761345D02*
D03*
X767695D02*
D03*
X774045D02*
D03*
X780395D02*
D03*
X786745D02*
D03*
X-757215Y-393250D02*
D03*
X-763565D02*
D03*
X-769915D02*
D03*
X-776265D02*
D03*
X-782615D02*
D03*
X-788965D02*
D03*
X-795315D02*
D03*
X-801665D02*
D03*
X-808015D02*
D03*
X-814365D02*
D03*
X-820715D02*
D03*
X-827065D02*
D03*
X-757215Y-441250D02*
D03*
X-763565D02*
D03*
X-769915D02*
D03*
X-776265D02*
D03*
X-782615D02*
D03*
X-788965D02*
D03*
X-795315D02*
D03*
X-801665D02*
D03*
X-808015D02*
D03*
X-814365D02*
D03*
X-820715D02*
D03*
X-827065D02*
D03*
X-280945Y-393250D02*
D03*
X-287295D02*
D03*
X-293645D02*
D03*
X-299995D02*
D03*
X-306345D02*
D03*
X-312695D02*
D03*
X-319045D02*
D03*
X-325395D02*
D03*
X-331745D02*
D03*
X-338095D02*
D03*
X-344445D02*
D03*
X-350795D02*
D03*
X-280945Y-441250D02*
D03*
X-287295D02*
D03*
X-293645D02*
D03*
X-299995D02*
D03*
X-306345D02*
D03*
X-312695D02*
D03*
X-319045D02*
D03*
X-325395D02*
D03*
X-331745D02*
D03*
X-338095D02*
D03*
X-344445D02*
D03*
X-350795D02*
D03*
X93685Y-379280D02*
D03*
X87335D02*
D03*
X80985D02*
D03*
X74635D02*
D03*
X68285D02*
D03*
X61935D02*
D03*
X55585D02*
D03*
X49235D02*
D03*
X42885D02*
D03*
X36535D02*
D03*
X30185D02*
D03*
X23835D02*
D03*
X93685Y-427280D02*
D03*
X87335D02*
D03*
X80985D02*
D03*
X74635D02*
D03*
X68285D02*
D03*
X61935D02*
D03*
X55585D02*
D03*
X49235D02*
D03*
X42885D02*
D03*
X36535D02*
D03*
X30185D02*
D03*
X23835D02*
D03*
X557295Y-379770D02*
D03*
X550945D02*
D03*
X544595D02*
D03*
X538245D02*
D03*
X531895D02*
D03*
X525545D02*
D03*
X519195D02*
D03*
X512845D02*
D03*
X506495D02*
D03*
X500145D02*
D03*
X493795D02*
D03*
X487445D02*
D03*
X557295Y-427770D02*
D03*
X550945D02*
D03*
X544595D02*
D03*
X538245D02*
D03*
X531895D02*
D03*
X525545D02*
D03*
X519195D02*
D03*
X512845D02*
D03*
X506495D02*
D03*
X500145D02*
D03*
X493795D02*
D03*
X487445D02*
D03*
D21*
X856820Y-375400D02*
D03*
X850320D02*
D03*
X843820D02*
D03*
X837320D02*
D03*
X856820Y-432900D02*
D03*
X850320D02*
D03*
X843820D02*
D03*
X837320D02*
D03*
X646820D02*
D03*
X653320D02*
D03*
X659820D02*
D03*
X666320D02*
D03*
X646820Y-375400D02*
D03*
X653320D02*
D03*
X659820D02*
D03*
X666320D02*
D03*
X-687140Y-388500D02*
D03*
X-693640D02*
D03*
X-700140D02*
D03*
X-706640D02*
D03*
X-687140Y-446000D02*
D03*
X-693640D02*
D03*
X-700140D02*
D03*
X-706640D02*
D03*
X-210870Y-388500D02*
D03*
X-217370D02*
D03*
X-223870D02*
D03*
X-230370D02*
D03*
X-210870Y-446000D02*
D03*
X-217370D02*
D03*
X-223870D02*
D03*
X-230370D02*
D03*
X163760Y-374530D02*
D03*
X157260D02*
D03*
X150760D02*
D03*
X144260D02*
D03*
X163760Y-432030D02*
D03*
X157260D02*
D03*
X150760D02*
D03*
X144260D02*
D03*
X627370Y-375020D02*
D03*
X620870D02*
D03*
X614370D02*
D03*
X607870D02*
D03*
X627370Y-432520D02*
D03*
X620870D02*
D03*
X614370D02*
D03*
X607870D02*
D03*
X-897140Y-446000D02*
D03*
X-890640D02*
D03*
X-884140D02*
D03*
X-877640D02*
D03*
X-897140Y-388500D02*
D03*
X-890640D02*
D03*
X-884140D02*
D03*
X-877640D02*
D03*
X-420870Y-446000D02*
D03*
X-414370D02*
D03*
X-407870D02*
D03*
X-401370D02*
D03*
X-420870Y-388500D02*
D03*
X-414370D02*
D03*
X-407870D02*
D03*
X-401370D02*
D03*
X-46240Y-432030D02*
D03*
X-39740D02*
D03*
X-33240D02*
D03*
X-26740D02*
D03*
X-46240Y-374530D02*
D03*
X-39740D02*
D03*
X-33240D02*
D03*
X-26740D02*
D03*
X417370Y-432520D02*
D03*
X423870D02*
D03*
X430370D02*
D03*
X436870D02*
D03*
X417370Y-375020D02*
D03*
X423870D02*
D03*
X430370D02*
D03*
X436870D02*
D03*
D22*
X879600Y-747050D02*
D03*
X850100D02*
D03*
X878330Y-790230D02*
D03*
X848830D02*
D03*
X703990Y-747050D02*
D03*
X674490D02*
D03*
X816190Y-339780D02*
D03*
X845690D02*
D03*
X-517040Y-747450D02*
D03*
X-546540D02*
D03*
X-168140Y-746960D02*
D03*
X-197640D02*
D03*
X181460Y-746180D02*
D03*
X151960D02*
D03*
X530770Y-746670D02*
D03*
X501270D02*
D03*
X-518310Y-790630D02*
D03*
X-547810D02*
D03*
X-169410Y-790140D02*
D03*
X-198910D02*
D03*
X180190Y-789360D02*
D03*
X150690D02*
D03*
X529500Y-789850D02*
D03*
X500000D02*
D03*
X-692650Y-747450D02*
D03*
X-722150D02*
D03*
X-343750Y-746960D02*
D03*
X-373250D02*
D03*
X5850Y-746180D02*
D03*
X-23650D02*
D03*
X355160Y-746670D02*
D03*
X325660D02*
D03*
X-725590Y-344860D02*
D03*
X-696090D02*
D03*
X-250610D02*
D03*
X-221110D02*
D03*
X125310Y-332160D02*
D03*
X154810D02*
D03*
X587590Y-339780D02*
D03*
X617090D02*
D03*
D23*
X693520Y-264720D02*
D03*
X706220D02*
D03*
X718920D02*
D03*
X731620D02*
D03*
X693520Y-216720D02*
D03*
X706220D02*
D03*
X718920D02*
D03*
X731620D02*
D03*
X570970Y-266030D02*
D03*
X583670D02*
D03*
X596370D02*
D03*
X609070D02*
D03*
X570970Y-218030D02*
D03*
X583670D02*
D03*
X596370D02*
D03*
X609070D02*
D03*
D24*
X-59060Y-300750D02*
D03*
Y-294250D02*
D03*
Y-287750D02*
D03*
Y-281250D02*
D03*
Y-274750D02*
D03*
Y-268250D02*
D03*
Y-261750D02*
D03*
Y-255250D02*
D03*
Y-248750D02*
D03*
Y-242250D02*
D03*
Y-235750D02*
D03*
Y-229250D02*
D03*
Y-222750D02*
D03*
Y-216250D02*
D03*
X-128060Y-300750D02*
D03*
Y-294250D02*
D03*
Y-287750D02*
D03*
Y-281250D02*
D03*
Y-274750D02*
D03*
Y-268250D02*
D03*
Y-261750D02*
D03*
Y-255250D02*
D03*
Y-248750D02*
D03*
Y-242250D02*
D03*
Y-235750D02*
D03*
Y-229250D02*
D03*
Y-222750D02*
D03*
Y-216250D02*
D03*
X423240Y-288290D02*
D03*
Y-281790D02*
D03*
Y-275290D02*
D03*
Y-268790D02*
D03*
Y-262290D02*
D03*
Y-255790D02*
D03*
Y-249290D02*
D03*
Y-242790D02*
D03*
Y-236290D02*
D03*
Y-229790D02*
D03*
Y-223290D02*
D03*
Y-216790D02*
D03*
Y-210290D02*
D03*
Y-203790D02*
D03*
X354240Y-288290D02*
D03*
Y-281790D02*
D03*
Y-275290D02*
D03*
Y-268790D02*
D03*
Y-262290D02*
D03*
Y-255790D02*
D03*
Y-249290D02*
D03*
Y-242790D02*
D03*
Y-236290D02*
D03*
Y-229790D02*
D03*
Y-223290D02*
D03*
Y-216790D02*
D03*
Y-210290D02*
D03*
Y-203790D02*
D03*
X-507122Y-221691D02*
D03*
Y-228191D02*
D03*
Y-234691D02*
D03*
Y-241191D02*
D03*
Y-247691D02*
D03*
Y-254191D02*
D03*
Y-260691D02*
D03*
Y-267191D02*
D03*
Y-273691D02*
D03*
Y-280191D02*
D03*
Y-286691D02*
D03*
Y-293191D02*
D03*
Y-299691D02*
D03*
Y-306191D02*
D03*
X-438122Y-221691D02*
D03*
Y-228191D02*
D03*
Y-234691D02*
D03*
Y-241191D02*
D03*
Y-247691D02*
D03*
Y-254191D02*
D03*
Y-260691D02*
D03*
Y-267191D02*
D03*
Y-273691D02*
D03*
Y-280191D02*
D03*
Y-286691D02*
D03*
Y-293191D02*
D03*
Y-299691D02*
D03*
Y-306191D02*
D03*
D25*
X304340Y-435540D02*
D03*
X312340D02*
D03*
X320340D02*
D03*
X328340D02*
D03*
X336340D02*
D03*
X344340D02*
D03*
X352340D02*
D03*
X360340D02*
D03*
X368340D02*
D03*
X376340D02*
D03*
X384340D02*
D03*
X392340D02*
D03*
X304340Y-340540D02*
D03*
X312340D02*
D03*
X320340D02*
D03*
X328340D02*
D03*
X336340D02*
D03*
X344340D02*
D03*
X352340D02*
D03*
X360340D02*
D03*
X368340D02*
D03*
X376340D02*
D03*
X384340D02*
D03*
X392340D02*
D03*
X190040Y-435540D02*
D03*
X198040D02*
D03*
X206040D02*
D03*
X214040D02*
D03*
X222040D02*
D03*
X230040D02*
D03*
X238040D02*
D03*
X246040D02*
D03*
X254040D02*
D03*
X262040D02*
D03*
X270040D02*
D03*
X278040D02*
D03*
X190040Y-340540D02*
D03*
X198040D02*
D03*
X206040D02*
D03*
X214040D02*
D03*
X222040D02*
D03*
X230040D02*
D03*
X238040D02*
D03*
X246040D02*
D03*
X254040D02*
D03*
X262040D02*
D03*
X270040D02*
D03*
X278040D02*
D03*
X-155020Y-350700D02*
D03*
X-163020D02*
D03*
X-139020D02*
D03*
X-147020D02*
D03*
X-131020D02*
D03*
X-123020D02*
D03*
X-115020D02*
D03*
X-107020D02*
D03*
X-83020D02*
D03*
X-75020D02*
D03*
X-99020D02*
D03*
X-91020D02*
D03*
X-155020Y-445700D02*
D03*
X-163020D02*
D03*
X-147020D02*
D03*
X-139020D02*
D03*
X-115020D02*
D03*
X-107020D02*
D03*
X-131020D02*
D03*
X-123020D02*
D03*
X-83020D02*
D03*
X-75020D02*
D03*
X-99020D02*
D03*
X-91020D02*
D03*
X-653240Y-443160D02*
D03*
X-645240D02*
D03*
X-637240D02*
D03*
X-629240D02*
D03*
X-621240D02*
D03*
X-613240D02*
D03*
X-605240D02*
D03*
X-597240D02*
D03*
X-589240D02*
D03*
X-581240D02*
D03*
X-573240D02*
D03*
X-565240D02*
D03*
X-653240Y-348160D02*
D03*
X-645240D02*
D03*
X-637240D02*
D03*
X-629240D02*
D03*
X-621240D02*
D03*
X-613240D02*
D03*
X-605240D02*
D03*
X-597240D02*
D03*
X-589240D02*
D03*
X-581240D02*
D03*
X-573240D02*
D03*
X-565240D02*
D03*
D26*
X348340Y-388040D02*
D03*
X234040D02*
D03*
X-119020Y-398200D02*
D03*
X-609240Y-395660D02*
D03*
D27*
X-85500Y-82500D02*
X-80500Y-87500D01*
X-268008Y-184992D02*
X102032D01*
X-303000Y-150000D02*
X-268008Y-184992D01*
X102032D02*
X239800Y-322760D01*
X-281800Y-196676D02*
X60376D01*
X-301476Y-177000D02*
X-281800Y-196676D01*
X60376D02*
X186860Y-323160D01*
X-98000Y-70000D02*
X-85500Y-82500D01*
X-20552Y-117448D02*
X594948D01*
X-98000Y-40000D02*
X-20552Y-117448D01*
X594948D02*
X680400Y-202900D01*
X-68868Y-129132D02*
X482072D01*
X-98000Y-100000D02*
X-68868Y-129132D01*
X-98000Y-130000D02*
X-87184Y-140816D01*
X441396D01*
X514120Y-213540D01*
X-60000Y-152500D02*
X148280D01*
X-67500Y-160000D02*
X-60000Y-152500D01*
X-98000Y-160000D02*
X-67500D01*
X148280Y-152500D02*
X303300Y-307520D01*
X-52500Y-165000D02*
X-45000D01*
X140460D01*
X-227500Y-160000D02*
X-220000D01*
X-208000D01*
X-208000Y-160000D01*
X-270000D02*
X-242000D01*
X-316604Y-63504D02*
X-300000Y-46900D01*
X-316604Y-83778D02*
X-289396Y-110986D01*
Y-140604D02*
Y-110986D01*
X-316604Y-83778D02*
Y-63504D01*
X-289396Y-140604D02*
X-270000Y-160000D01*
X-155500Y-165000D02*
Y-161910D01*
X-167372Y-150038D02*
X-155500Y-161910D01*
X-300000Y-76900D02*
X-245178Y-131722D01*
X-209802D01*
X-191486Y-150038D02*
X-167372D01*
X-209802Y-131722D02*
X-191486Y-150038D01*
X-226862Y-120038D02*
X-204962D01*
X-270000Y-76900D02*
X-226862Y-120038D01*
X-204962D02*
X-186646Y-138354D01*
X-165765D01*
X-155500Y-128090D02*
Y-125000D01*
X-165765Y-138354D02*
X-155500Y-128090D01*
X-137000Y-125000D02*
X-132000Y-130000D01*
X-155500Y-125000D02*
X-137000D01*
X-137000Y-165000D02*
X-132000Y-160000D01*
X-155500Y-165000D02*
X-137000D01*
X-155500Y-98090D02*
Y-95000D01*
X-165765Y-108354D02*
X-155500Y-98090D01*
X-240000Y-76900D02*
X-208546Y-108354D01*
X-165765D01*
X-155500Y-95000D02*
X-137000D01*
X-132000Y-100000D01*
X-155500Y-75000D02*
Y-71911D01*
X-210000Y-76900D02*
X-194746Y-61646D01*
X-165765D01*
X-155500Y-71911D01*
X-137000Y-75000D02*
X-132000Y-70000D01*
X-155500Y-75000D02*
X-137000D01*
X-155500Y-38089D02*
Y-35000D01*
X-165765Y-48354D02*
X-155500Y-38089D01*
X-210000Y-46900D02*
X-208546Y-48354D01*
X-165765D01*
X-155500Y-35000D02*
X-137000D01*
X-132000Y-40000D01*
X-411511Y-46900D02*
X-337000Y-121411D01*
X-473000Y-110500D02*
X-462500Y-100000D01*
X-473000Y-130000D02*
Y-110500D01*
X-507000Y-155000D02*
Y-78900D01*
X-548000Y-63500D02*
Y-45000D01*
X-552500Y-68000D02*
X-548000Y-63500D01*
X-506900Y-45000D02*
X-505000Y-46900D01*
X-548000Y-45000D02*
X-506900D01*
X-535000Y-125000D02*
X-527500D01*
X-545000D02*
X-535000D01*
X-552500Y-117500D02*
X-545000Y-125000D01*
X-552500Y-117500D02*
Y-102000D01*
X-415000Y-46900D02*
X-411511D01*
X-337000Y-150000D02*
Y-121411D01*
X-380000Y-119500D02*
X-375000Y-124500D01*
X-386396Y-113104D02*
X-380000Y-119500D01*
X-415000Y-87590D02*
Y-76900D01*
Y-87590D02*
X-389486Y-113104D01*
X-386396D01*
X-375000Y-143000D02*
Y-124500D01*
X-372000Y-177000D02*
X-301476D01*
X-589999Y-174999D02*
Y-167500D01*
Y-186999D02*
Y-174999D01*
X-590000Y-187000D02*
X-589999Y-186999D01*
X-625000Y-210000D02*
Y-187000D01*
Y-210000D02*
X-625000Y-210000D01*
X-660000Y-271320D02*
Y-187000D01*
Y-271320D02*
X-605240Y-326080D01*
X-695000Y-286480D02*
Y-187500D01*
Y-286480D02*
X-653240Y-328240D01*
X-730000Y-215000D02*
Y-207500D01*
Y-200000D01*
Y-187000D01*
X-715500Y-76900D02*
Y-46900D01*
X-730000Y-153000D02*
Y-91400D01*
X-715500Y-76900D01*
X-352500Y-280000D02*
X-340000D01*
X-315000D02*
X-250000D01*
X-340000D02*
X-315000D01*
X-174780Y-320220D02*
X-115020D01*
X-300000Y-195000D02*
X-174780Y-320220D01*
X-352500Y-195000D02*
X-300000D01*
X249200Y-388040D02*
X337080D01*
X169010Y-358570D02*
X198480Y-388040D01*
X220240D01*
X417554Y-492686D02*
X427120Y-483120D01*
X345294Y-492686D02*
X417554D01*
X322940Y-515040D02*
X345294Y-492686D01*
X847070Y-359440D02*
Y-303120D01*
X680400Y-264340D02*
Y-202900D01*
X303300Y-307520D02*
X392200D01*
X-35691Y-358571D02*
Y-334091D01*
X9679Y-288721D01*
X128610D01*
X-710860Y-530940D02*
X-696890Y-516970D01*
Y-496600D01*
X-710860Y-572800D02*
Y-530940D01*
X-696890Y-477600D02*
Y-461700D01*
X-693640Y-347310D02*
X-645290Y-395660D01*
X-632100D01*
X-385720Y-302690D02*
X-246020D01*
X-221125Y-327585D01*
Y-344845D02*
Y-327585D01*
X-710860Y-572800D02*
X-693080D01*
X-667680D01*
X-165230Y-400740D02*
X-144420D01*
X-538490Y-540810D02*
X-533040Y-535360D01*
X-428900D01*
X-411120Y-517580D01*
X617620Y-357270D02*
Y-314610D01*
X602244Y-299236D02*
X617620Y-314611D01*
X592220Y-289211D02*
X602244Y-299236D01*
X427919Y-313811D02*
X452519Y-289211D01*
X427919Y-359061D02*
Y-313811D01*
X584560Y-289211D02*
X592220D01*
X617620Y-359060D02*
Y-357270D01*
X-221125Y-344845D02*
X-221110Y-344860D01*
X-165230Y-400740D01*
X-221110Y-374850D02*
Y-344860D01*
X154010Y-358570D02*
X169010D01*
X154010Y-356781D02*
Y-314120D01*
Y-358570D02*
Y-356781D01*
X-411120Y-517580D02*
Y-496600D01*
X-538490Y-564010D02*
Y-540810D01*
X-350330Y-530450D02*
X-234100D01*
X-361960Y-542080D02*
X-350330Y-530450D01*
X-361960Y-572310D02*
Y-542080D01*
Y-572310D02*
X-318780D01*
X-234100Y-530450D02*
X-220620Y-516970D01*
X-36490Y-508710D02*
Y-482630D01*
X-50440Y-522660D02*
X-36490Y-508710D01*
X-167280Y-522660D02*
X-50440D01*
X-188890Y-544270D02*
X-167280Y-522660D01*
X-188890Y-564860D02*
Y-544270D01*
X-2180Y-522660D02*
X134350D01*
X-12360Y-532840D02*
X-2180Y-522660D01*
X-12360Y-571530D02*
Y-532840D01*
X134350Y-522660D02*
X154010Y-503000D01*
X-12360Y-571530D02*
X30820D01*
X847070Y-464500D02*
Y-448600D01*
X160420Y-564170D02*
Y-535360D01*
X180740Y-515040D01*
X322940D01*
X336950Y-572020D02*
X380130D01*
X357150Y-509960D02*
X611150D01*
X617620Y-503490D01*
X656570Y-464500D02*
Y-448600D01*
Y-511610D02*
Y-483500D01*
X642980Y-525200D02*
X656570Y-511610D01*
X526140Y-525200D02*
X642980D01*
X509250Y-542090D02*
X526140Y-525200D01*
X509250Y-565250D02*
Y-542090D01*
X685780Y-572400D02*
Y-540820D01*
X701400Y-525200D01*
X825740D01*
X847070Y-503870D01*
X-886591Y-372541D02*
Y-327291D01*
X-861991Y-302691D01*
X-722290D01*
X-410320Y-372540D02*
Y-327290D01*
X-385720Y-302690D01*
X128610Y-288721D02*
X154010Y-314121D01*
X657370Y-359440D02*
Y-343000D01*
X-887390Y-477601D02*
Y-461700D01*
X-411120Y-477600D02*
Y-461700D01*
X-36490Y-463631D02*
Y-447730D01*
X427120Y-464121D02*
Y-448220D01*
X509250Y-565250D02*
X517500Y-573500D01*
X-887390Y-562610D02*
Y-496600D01*
X-877200Y-572800D02*
X-868340D01*
X-842940D01*
X-887390Y-562610D02*
X-877200Y-572800D01*
X-530190Y-572310D02*
X-519440D01*
X-494040D01*
X-538490Y-564010D02*
X-530190Y-572310D01*
X-182220Y-571530D02*
X-169840D01*
X-144440D01*
X-188890Y-564860D02*
X-182220Y-571530D01*
X168270Y-572020D02*
X179470D01*
X204870D01*
X160420Y-564170D02*
X168270Y-572020D01*
X-511960Y-784280D02*
X-502560D01*
X-511960Y-796980D02*
X-502560D01*
X-163060Y-796490D02*
X-153660D01*
X-163060Y-783790D02*
X-153660D01*
X-220620Y-516970D02*
Y-496600D01*
Y-477600D02*
Y-461700D01*
X186540Y-795710D02*
X195940D01*
X186540Y-783010D02*
X195940D01*
X154010Y-503000D02*
Y-482630D01*
Y-463630D02*
Y-447730D01*
X535850Y-796200D02*
X545250D01*
X535850Y-783500D02*
X545250D01*
X336950Y-572020D02*
Y-530160D01*
X357150Y-509960D01*
X617620Y-503490D02*
Y-483120D01*
Y-464120D02*
Y-448220D01*
X685780Y-572400D02*
X703560D01*
X847070Y-503870D02*
Y-483500D01*
X703560Y-572400D02*
X728960D01*
X884680Y-783880D02*
X894080D01*
X884680Y-796580D02*
X894080D01*
X-696090Y-344860D02*
X-693640Y-347310D01*
X-696890Y-344059D02*
X-696090Y-344860D01*
X-250000Y-280000D02*
X-197080Y-332920D01*
X482072Y-129132D02*
X557300Y-204360D01*
X514120Y-289211D02*
X584560D01*
X452519D02*
X514120D01*
X140460Y-165000D02*
X298220Y-322760D01*
X514120Y-289211D02*
Y-213540D01*
X-629240Y-328240D02*
X-621240D01*
X-637240D02*
X-629240D01*
X-645240D02*
X-637240D01*
X-653240D02*
X-645240D01*
X-597240Y-327840D02*
X-589240D01*
X-581240D02*
X-573240D01*
X-589240D02*
X-581240D01*
X-603480D02*
X-597240D01*
X-605240Y-326080D02*
X-603480Y-327840D01*
X-139020Y-332920D02*
X-131020D01*
X-147020D02*
X-139020D01*
X-155020D02*
X-147020D01*
X-163020D02*
X-155020D01*
X-197080D02*
X-163020D01*
X-107020Y-320220D02*
X-99020D01*
X-91020D02*
X-83020D01*
X-99020D02*
X-91020D01*
X-115020D02*
X-107020D01*
X186860Y-323160D02*
X222580D01*
X239800Y-322760D02*
X275360D01*
X298220D02*
X343940D01*
X557300Y-266880D02*
Y-204360D01*
X-696890Y-344059D02*
Y-328091D01*
X-722290Y-302691D02*
X-696890Y-328091D01*
D28*
X-40424Y-222048D02*
X62007D01*
X62027Y-222027D01*
X53000Y-219000D02*
X56000Y-216000D01*
X-43876Y-219000D02*
X53000D01*
X-47626Y-229250D02*
X-40424Y-222048D01*
X-59060Y-229250D02*
X-47626D01*
Y-222750D02*
X-43876Y-219000D01*
X-59060Y-222750D02*
X-47626D01*
X-81185D02*
X-59060D01*
X-17500Y-208000D02*
X-9000D01*
X-148883Y-206486D02*
X-139120Y-216250D01*
X-188866Y-206486D02*
X-148883D01*
X-195160Y-212780D02*
X-188866Y-206486D01*
X-150146Y-209534D02*
X-136930Y-222750D01*
X-166514Y-209534D02*
X-150146D01*
X-169760Y-212780D02*
X-166514Y-209534D01*
X806884Y-328602D02*
X816380D01*
X713720Y-312100D02*
X789920D01*
X484270Y-311720D02*
X560470D01*
X578284Y-327840D02*
X587780D01*
X578284Y-335460D02*
X587780D01*
X578094Y-343080D02*
X587590D01*
X578094Y-350700D02*
X587590D01*
X503280Y-467440D02*
X538880D01*
X20660Y-311230D02*
X96860D01*
X-255246Y-336984D02*
Y-328250D01*
Y-336984D02*
X-248134D01*
X-255246Y-337746D02*
Y-336984D01*
X-353970Y-325200D02*
X-277770D01*
X-730226Y-334444D02*
X-725400D01*
X-830240Y-325200D02*
X-754040D01*
X-734642Y-340286D02*
X-725146D01*
X-613900Y-476940D02*
X-613220D01*
X325240Y-203036D02*
Y-200916D01*
Y-212356D02*
Y-203036D01*
X272440Y-202548D02*
Y-200428D01*
Y-211868D02*
Y-202548D01*
X299840Y-202948D02*
Y-200828D01*
Y-212268D02*
Y-202948D01*
X-257630Y-336984D02*
X-255246D01*
X-277770Y-325200D02*
Y-316364D01*
Y-325860D02*
Y-325200D01*
X-734896Y-334444D02*
X-730226D01*
Y-328250D01*
Y-337746D02*
Y-334444D01*
X-613220Y-476940D02*
X-599500D01*
X-613220D02*
Y-475160D01*
Y-484470D02*
Y-476940D01*
X-475000Y-76900D02*
X-453048Y-98852D01*
Y-188284D02*
Y-98852D01*
X-469764Y-205000D02*
X-453048Y-188284D01*
X-450000Y-81900D02*
X-445000Y-76900D01*
X-450000Y-193760D02*
Y-81900D01*
X-461240Y-205000D02*
X-450000Y-193760D01*
X259356Y-234356D02*
X325240D01*
X455059Y-206187D02*
X463362D01*
X-219632Y-246728D02*
X-157060D01*
X-406302Y-224000D02*
X-398000D01*
X789920Y-312100D02*
Y-302604D01*
X806630Y-335206D02*
X816126D01*
X806376Y-341810D02*
X815872D01*
X806630Y-348414D02*
X816126D01*
X96860Y-311890D02*
X106356D01*
X115750Y-321490D02*
X125246D01*
X115496Y-329364D02*
X124992D01*
X115496Y-336476D02*
X124992D01*
X115496Y-343588D02*
X124992D01*
X-754040Y-325860D02*
X-744544D01*
X-722606Y-337746D02*
Y-328250D01*
X-248134Y-336984D02*
Y-327488D01*
X-586922Y-230257D02*
Y-220761D01*
X-271180Y-556460D02*
Y-547150D01*
X78419Y-555680D02*
Y-546371D01*
X107020Y-552530D02*
Y-543220D01*
X731620Y-216720D02*
X740930D01*
X609070Y-218030D02*
X618380D01*
X454200Y-226380D02*
Y-217070D01*
X474960Y-311720D02*
X484270D01*
X343680Y-478630D02*
Y-469320D01*
X285520Y-503100D02*
X303300Y-485320D01*
X397280D01*
X404900Y-477700D01*
X229380Y-478630D02*
Y-469320D01*
X-123680Y-488790D02*
Y-479480D01*
X-96841Y-555680D02*
Y-546370D01*
X57180Y-261800D02*
X66490D01*
X46060Y-311230D02*
Y-301921D01*
X-36210Y-234520D02*
X-26900D01*
X57180Y-262320D02*
Y-236920D01*
X-59060Y-242250D02*
X-34630D01*
X-26900Y-234520D01*
X-438122Y-247691D02*
X-407452D01*
X-406582Y-246821D01*
X-406582Y-246821D02*
Y-237511D01*
X-620080Y-556950D02*
Y-547640D01*
X-461240Y-246560D02*
Y-245411D01*
X-450520Y-234691D01*
X-438122D01*
X-82780Y-236400D02*
X-75630Y-229250D01*
X-59060D01*
X406730Y-216790D02*
X423240D01*
X402360Y-221160D02*
X406730Y-216790D01*
X-469764Y-246560D02*
X-451395Y-228191D01*
X-438122D01*
X-88807Y-230373D02*
X-81185Y-222750D01*
X401175Y-210290D02*
X423240D01*
X396333Y-215133D02*
X401175Y-210290D01*
X-418212Y-254191D02*
X-406582Y-265821D01*
X-438122Y-254191D02*
X-418212D01*
X-34380Y-253520D02*
X-26900D01*
X-20660D01*
X-39150Y-248750D02*
X-34380Y-253520D01*
X-59060Y-248750D02*
X-39150D01*
X423240Y-236290D02*
X443150D01*
X732560Y-263780D02*
Y-246560D01*
X609070Y-266030D02*
Y-241630D01*
X392200Y-254180D02*
X397090Y-249290D01*
X423240D01*
X386173Y-248153D02*
X391535Y-242790D01*
X423240D01*
X281070Y-582470D02*
Y-572020D01*
Y-582470D02*
X285520Y-586920D01*
X404900Y-477700D02*
Y-345620D01*
X354240Y-268790D02*
X371250D01*
X456330Y-572020D02*
X458240Y-573930D01*
Y-589460D02*
Y-573930D01*
X354240Y-275290D02*
X377750D01*
X506495Y-379770D02*
Y-363395D01*
X496340Y-353240D02*
X506495Y-363395D01*
X369283Y-283713D02*
X398227D01*
X367360Y-281790D02*
X369283Y-283713D01*
X354240Y-281790D02*
X367360D01*
X500145Y-379770D02*
Y-365569D01*
X496340Y-361764D02*
X500145Y-365569D01*
X390750Y-288290D02*
X392200Y-289740D01*
X354240Y-288290D02*
X390750D01*
X544595Y-398955D02*
Y-379770D01*
X538245Y-392615D02*
Y-379770D01*
X404900Y-312600D02*
X406020Y-311480D01*
Y-286310D01*
X410540Y-281790D01*
X423240D01*
X412062Y-307978D02*
X412520Y-307520D01*
Y-299010D01*
X423240Y-288290D01*
X729595Y-393455D02*
Y-380150D01*
Y-393455D02*
X735100Y-398960D01*
X745260D01*
X747800Y-401500D01*
X735945Y-388758D02*
Y-380150D01*
Y-388758D02*
X740623Y-393436D01*
X748260D01*
X756324Y-401500D01*
X767695Y-398653D02*
Y-380150D01*
X764848Y-401500D02*
X767695Y-398653D01*
X773372Y-380823D02*
X774045Y-380150D01*
X773372Y-401500D02*
Y-380823D01*
X479998Y-255790D02*
X481615Y-254173D01*
X423240Y-255790D02*
X479998D01*
X487708Y-262290D02*
X488720Y-261278D01*
X423240Y-262290D02*
X487708D01*
X435940Y-268790D02*
X436347Y-268383D01*
X423240Y-268790D02*
X435940D01*
X436347Y-268383D02*
X481615D01*
X488522Y-275290D02*
X488720Y-275488D01*
X423240Y-275290D02*
X488522D01*
X751224Y-407286D02*
X775769D01*
X777635Y-405420D01*
X791190D01*
X748645Y-409865D02*
X751224Y-407286D01*
X299813Y-286253D02*
X330275Y-255790D01*
X354240D01*
X305840Y-292280D02*
X335830Y-262290D01*
X354240D01*
X293140Y-274500D02*
X318350Y-249290D01*
X354240D01*
X287113Y-268473D02*
X312795Y-242790D01*
X354240D01*
X-59060Y-261750D02*
X-57096Y-263714D01*
X-39457D01*
X-35782Y-267388D01*
X-18017D01*
X-15490Y-264860D01*
X6620D01*
X-4560Y-249620D02*
X6620D01*
X-19280Y-264340D02*
X-4560Y-249620D01*
X-34520Y-264340D02*
X-19280D01*
X-43610Y-255250D02*
X-34520Y-264340D01*
X-59060Y-255250D02*
X-43610D01*
X8660Y-536120D02*
X89940D01*
X92480Y-538660D01*
Y-556990D02*
Y-538660D01*
Y-556990D02*
X107020Y-571530D01*
X-54840Y-498020D02*
X-49760Y-503100D01*
X-54840Y-498020D02*
Y-315140D01*
X-44680Y-304980D01*
Y-297360D01*
X-47790Y-294250D02*
X-44680Y-297360D01*
X-59060Y-294250D02*
X-47790D01*
X-68240Y-571530D02*
X-65000Y-574770D01*
Y-584380D02*
Y-574770D01*
X-59920Y-505640D02*
Y-301610D01*
X-59060Y-300750D01*
X51432Y-396828D02*
X54380Y-393880D01*
X51432Y-406580D02*
Y-396828D01*
X54380Y-393880D02*
X72160D01*
X36535Y-379280D02*
X37222Y-379967D01*
Y-406580D02*
Y-379967D01*
X42885Y-398033D02*
Y-379280D01*
Y-398033D02*
X44327Y-399475D01*
X74635Y-391405D02*
Y-379280D01*
X72160Y-393880D02*
X74635Y-391405D01*
X80985Y-392675D02*
Y-379280D01*
X73107Y-400553D02*
X80985Y-392675D01*
X57459Y-400553D02*
X73107D01*
X55585Y-427280D02*
Y-415535D01*
X66570Y-404550D01*
X98130D01*
X-45370Y-268250D02*
X-15745Y-297875D01*
X-59060Y-268250D02*
X-45370D01*
X-22850Y-304980D02*
Y-298560D01*
X-46660Y-274750D02*
X-22850Y-298560D01*
X-59060Y-274750D02*
X-46660D01*
X-46580Y-281250D02*
X-29955Y-297875D01*
X-59060Y-281250D02*
X-46580D01*
X-37060Y-304980D02*
Y-297350D01*
X-46660Y-287750D02*
X-37060Y-297350D01*
X-59060Y-287750D02*
X-46660D01*
X-139020Y-445700D02*
Y-429800D01*
X-151360Y-300012D02*
X-145598Y-294250D01*
X-128060D01*
X-151360Y-310060D02*
X-142050Y-300750D01*
X-128060D01*
X-242580Y-572310D02*
X-242580Y-572310D01*
X-240260Y-574630D01*
Y-586920D02*
Y-574630D01*
X-166600Y-307520D02*
X-146830Y-287750D01*
X-128060D01*
X-418060Y-572530D02*
X-417840Y-572310D01*
X-418060Y-589460D02*
Y-572530D01*
X-166600Y-297360D02*
X-150490Y-281250D01*
X-128060D01*
X-334240Y-424360D02*
X-326620D01*
X-299995Y-402815D02*
Y-393250D01*
X-304160Y-406980D02*
X-299995Y-402815D01*
X-319288Y-406980D02*
X-304160D01*
X-293645Y-406625D02*
Y-393250D01*
X-298680Y-411660D02*
X-293645Y-406625D01*
X-313920Y-411660D02*
X-298680D01*
X-326620Y-424360D02*
X-313920Y-411660D01*
X-338095Y-406980D02*
Y-393250D01*
X-339032Y-406980D02*
X-338095D01*
X-339208Y-406804D02*
X-339032Y-406980D01*
X-186808Y-277264D02*
X-164794Y-255250D01*
X-128060D01*
X-331745Y-409389D02*
Y-393250D01*
X-339208Y-416852D02*
X-331745Y-409389D01*
X-186808Y-287312D02*
X-161246Y-261750D01*
X-128060D01*
X-329160Y-416852D02*
X-319288Y-406980D01*
X-176760Y-287312D02*
X-157698Y-268250D01*
X-128060D01*
X-176760Y-297360D02*
X-154150Y-274750D01*
X-128060D01*
X-537440Y-431980D02*
Y-336509D01*
X-507122Y-306191D01*
X-591480Y-572800D02*
X-590780Y-573500D01*
Y-589460D02*
Y-573500D01*
X-547600Y-475160D02*
Y-332004D01*
X-517251Y-301655D01*
X-539980Y-479470D02*
Y-447880D01*
X-521540Y-429440D01*
X-566149Y-505640D02*
X-539980Y-479470D01*
X-766740Y-588760D02*
Y-572800D01*
Y-588760D02*
X-766040Y-589460D01*
X-689840Y-528500D02*
X-659360Y-498020D01*
X-700000Y-536120D02*
X-684760D01*
X-659360Y-498020D02*
X-570460D01*
X-547600Y-475160D01*
X-517251Y-301655D02*
X-509086D01*
X-507122Y-299691D01*
X-588500Y-473980D02*
X-581240Y-466720D01*
Y-443160D01*
X-619400Y-466780D02*
X-601620D01*
X-597240Y-462400D01*
X-624900Y-472280D02*
X-619400Y-466780D01*
X-621520Y-484560D02*
X-613900Y-476940D01*
X-728640Y-496600D02*
X-696890D01*
X-633960Y-468444D02*
X-626444D01*
X-613240Y-455240D01*
X-728640Y-496600D02*
Y-471200D01*
X-775630Y-497920D02*
Y-479480D01*
X-782615Y-472495D02*
X-775630Y-479480D01*
X-563100Y-476940D02*
Y-445300D01*
X-573240Y-476080D02*
Y-443160D01*
X-645240Y-473960D02*
X-634640Y-484560D01*
X-621520D01*
X-639080Y-556950D02*
X-592850Y-510720D01*
X-521540D01*
X-654280Y-505640D02*
X-566149D01*
X-684760Y-536120D02*
X-654280Y-505640D01*
X-814341Y-556950D02*
Y-556950D01*
Y-546320D01*
X-809220Y-541200D01*
X-639081Y-556950D02*
X-639080Y-556950D01*
X-521540Y-510720D02*
Y-490400D01*
Y-470080D01*
Y-449760D01*
Y-429440D02*
Y-409120D01*
Y-388800D01*
Y-368480D01*
X-629240Y-455240D02*
Y-443160D01*
X-633920Y-459920D02*
X-629240Y-455240D01*
X-633960Y-459920D02*
X-633920D01*
X-553627Y-288793D02*
X-521202D01*
X-519100Y-286691D01*
X-507122D01*
X-613240Y-455240D02*
Y-443160D01*
X-547600Y-294820D02*
X-545971Y-293191D01*
X-507122D01*
X-598400Y-310060D02*
X-568531Y-280191D01*
X-598400Y-300012D02*
X-572079Y-273691D01*
X-608448Y-300012D02*
X-575627Y-267191D01*
X-608448Y-289964D02*
X-579175Y-260691D01*
X-785482Y-422526D02*
X-782942Y-419986D01*
X-751305D01*
X-744540Y-426750D01*
X-808015Y-402705D02*
Y-393250D01*
Y-402705D02*
X-803740Y-406980D01*
X-797638D01*
X-814365Y-404940D02*
Y-393250D01*
Y-404940D02*
X-802566Y-416740D01*
X-579175Y-260691D02*
X-507122D01*
X-575627Y-267191D02*
X-507122D01*
X-572079Y-273691D02*
X-507122D01*
X-568531Y-280191D02*
X-507122D01*
X-802566Y-416740D02*
X-802088D01*
X-797638Y-406980D02*
X-794983Y-409635D01*
X-787878Y-416740D02*
X-778118Y-406980D01*
X-776265D01*
Y-393250D01*
X-776200Y-414200D02*
Y-413265D01*
X-769915Y-406980D01*
Y-393250D01*
X-794876Y-422526D02*
X-785482D01*
X-795315Y-422965D02*
X-794876Y-422526D01*
X-795315Y-441250D02*
Y-422965D01*
X-744540Y-426750D02*
X-728640D01*
X-763565Y-426775D02*
X-760390Y-423600D01*
X-755310D01*
X-740070Y-438840D01*
X-757215Y-441250D02*
X-745941D01*
X-734990Y-452200D01*
X-757215Y-406455D02*
X-746420Y-417250D01*
X-715940D01*
X-740070Y-438840D02*
X-719750D01*
X-757215Y-406455D02*
Y-393250D01*
X-715940Y-417250D02*
X-706641Y-407951D01*
Y-388501D01*
X-801665Y-472495D02*
Y-441250D01*
X-782615Y-472495D02*
Y-441250D01*
X-776265Y-455985D02*
X-761050Y-471200D01*
X-776265Y-455985D02*
Y-441250D01*
X-823230Y-471200D02*
X-808015Y-455985D01*
Y-441250D01*
X-762930Y-461700D02*
X-696890D01*
X-769915Y-454715D02*
X-762930Y-461700D01*
X-838340Y-441250D02*
X-827065D01*
X-823890Y-461700D02*
X-814365Y-452175D01*
Y-441250D01*
X-887390Y-461700D02*
X-823890D01*
X-855640Y-471200D02*
X-823230D01*
X-769915Y-454715D02*
Y-441250D01*
X-140510Y-229250D02*
X-128060D01*
X-146988Y-235728D02*
X-140510Y-229250D01*
X-139120Y-216250D02*
X-128060D01*
Y-235750D02*
X-113990D01*
X-136930Y-222750D02*
X-128060D01*
X384340Y-468460D02*
Y-435540D01*
X394480Y-469320D02*
Y-437680D01*
X392340Y-435540D02*
X394480Y-437680D01*
X369080Y-469320D02*
Y-466360D01*
X376340Y-459100D01*
Y-435540D01*
X332680Y-469320D02*
Y-464660D01*
X338180Y-459160D01*
X355960D01*
X360340Y-454780D01*
Y-435540D01*
X343680Y-469320D02*
X358080D01*
X336060Y-476940D02*
X343680Y-469320D01*
X322940Y-476940D02*
X336060D01*
X312340Y-466340D02*
X322940Y-476940D01*
X312340Y-466340D02*
Y-435540D01*
X270040Y-468460D02*
Y-435540D01*
X280180Y-469320D02*
Y-437680D01*
X278040Y-435540D02*
X280180Y-437680D01*
X254780Y-469320D02*
Y-466360D01*
X262040Y-459100D01*
Y-435540D01*
X218380Y-469320D02*
Y-464660D01*
X223880Y-459160D01*
X241660D01*
X246040Y-454780D01*
Y-435540D01*
X229380Y-469320D02*
X243780D01*
X221760Y-476940D02*
X229380Y-469320D01*
X208640Y-476940D02*
X221760D01*
X198040Y-466340D02*
X208640Y-476940D01*
X198040Y-466340D02*
Y-435540D01*
X-155020Y-476500D02*
Y-445700D01*
Y-476500D02*
X-144420Y-487100D01*
X-131300D01*
X-123680Y-479480D01*
X-109280D01*
X-107020Y-464940D02*
Y-445700D01*
X-111400Y-469320D02*
X-107020Y-464940D01*
X-129180Y-469320D02*
X-111400D01*
X-134680Y-474820D02*
X-129180Y-469320D01*
X-134680Y-479480D02*
Y-474820D01*
X-91020Y-469260D02*
Y-445700D01*
X-98280Y-476520D02*
X-91020Y-469260D01*
X-98280Y-479480D02*
Y-476520D01*
X-75020Y-445700D02*
X-72880Y-447840D01*
Y-479480D02*
Y-447840D01*
X-83020Y-478620D02*
Y-445700D01*
X-207860Y-224728D02*
Y-215320D01*
Y-213288D01*
X-182460Y-224728D02*
Y-215320D01*
Y-213288D01*
X-157060Y-224728D02*
Y-215320D01*
Y-213288D01*
Y-235728D02*
X-146988D01*
X-169760Y-230560D02*
Y-212780D01*
X-174928Y-235728D02*
X-169760Y-230560D01*
X-182460Y-235728D02*
X-174928D01*
X-195160Y-230560D02*
Y-212780D01*
X-200328Y-235728D02*
X-195160Y-230560D01*
X-207860Y-235728D02*
X-200328D01*
X-85940Y-207700D02*
X-27940D01*
X-113990Y-235750D02*
X-85940Y-207700D01*
X-27940D02*
X-27520Y-207280D01*
X-411120Y-496600D02*
X-379370D01*
X-259380Y-499800D02*
X-252370D01*
Y-496600D01*
X-256180D02*
X-252370D01*
X115250Y-485830D02*
X122260D01*
Y-482630D01*
X118450D02*
X122260D01*
X427120Y-483120D02*
X458870D01*
X578860Y-486320D02*
X585870D01*
X582060Y-483120D02*
X585870D01*
Y-486320D02*
Y-483120D01*
X510531Y-431488D02*
X514249Y-427770D01*
X481070Y-486320D02*
X493120D01*
X503160D01*
X493120D02*
Y-461700D01*
X494244Y-460576D01*
Y-460493D01*
X510531Y-444207D01*
X538880Y-484440D02*
X540760Y-486320D01*
X551540D02*
Y-464117D01*
X540760Y-486320D02*
X551540D01*
X559860D01*
X531895Y-444472D02*
X551540Y-464117D01*
X531895Y-444472D02*
Y-427770D01*
X503280Y-486440D02*
Y-484762D01*
X510531Y-444207D02*
Y-431488D01*
X512845Y-427770D02*
X514249D01*
X538880Y-486440D02*
Y-484762D01*
X729595Y-441125D02*
Y-428150D01*
X722120Y-448600D02*
X729595Y-441125D01*
X656570Y-448600D02*
X722120D01*
X811510Y-483500D02*
X815320D01*
Y-486700D02*
Y-483500D01*
X144259Y-393981D02*
Y-374531D01*
X134960Y-403280D02*
X144259Y-393981D01*
X93685Y-392485D02*
Y-379280D01*
X104480Y-403280D02*
X134960D01*
X93685Y-392485D02*
X104480Y-403280D01*
X93685Y-427280D02*
X104959D01*
X110830Y-424870D02*
X131150D01*
X95590Y-409630D02*
X110830Y-424870D01*
X90510Y-409630D02*
X95590D01*
X87335Y-412805D02*
X90510Y-409630D01*
X87335Y-427280D02*
Y-412805D01*
X98130Y-404550D02*
X106360Y-412780D01*
X122260D01*
X12560Y-427280D02*
X23835D01*
X-230370Y-407950D02*
Y-388500D01*
X-239670Y-417250D02*
X-230370Y-407950D01*
X-280945Y-406455D02*
Y-393250D01*
X-270150Y-417250D02*
X-239670D01*
X-280945Y-406455D02*
X-270150Y-417250D01*
X-263800Y-438840D02*
X-243480D01*
X-279040Y-423600D02*
X-263800Y-438840D01*
X-284120Y-423600D02*
X-279040D01*
X-287295Y-426775D02*
X-284120Y-423600D01*
X-276500Y-418520D02*
X-268270Y-426750D01*
X-252370D01*
X-314600Y-418520D02*
X-276500D01*
X-319045Y-422965D02*
X-314600Y-418520D01*
X607869Y-394470D02*
Y-375020D01*
X598570Y-403770D02*
X607869Y-394470D01*
X557295Y-392975D02*
Y-379770D01*
X568090Y-403770D02*
X598570D01*
X557295Y-392975D02*
X568090Y-403770D01*
X554120Y-410120D02*
X559200D01*
X550945Y-413295D02*
X554120Y-410120D01*
X561740Y-405040D02*
X569970Y-413270D01*
X585870D01*
X523640Y-405040D02*
X561740D01*
X519195Y-409485D02*
X523640Y-405040D01*
X-338095Y-452175D02*
Y-441250D01*
X-347620Y-461700D02*
X-338095Y-452175D01*
X-411120Y-461700D02*
X-347620D01*
X36535Y-438205D02*
Y-427280D01*
X27010Y-447730D02*
X36535Y-438205D01*
X-36490Y-447730D02*
X27010D01*
X500145Y-438695D02*
Y-427770D01*
X490620Y-448220D02*
X500145Y-438695D01*
X427120Y-448220D02*
X490620D01*
X-887390Y-496600D02*
X-887390D01*
X-855640D01*
X-36490Y-482630D02*
X-36490D01*
X-4740D01*
X-855640Y-496600D02*
Y-471200D01*
X-829630Y-497260D02*
X-807990D01*
X-775630Y-497920D02*
X-773750Y-499800D01*
X-754650D01*
X-735650D02*
X-731840D01*
X-732450Y-496600D02*
X-728640D01*
Y-499800D02*
Y-496600D01*
X-731840Y-499800D02*
X-728640D01*
X-849290Y-452200D02*
X-838340Y-441250D01*
X-807990Y-497260D02*
Y-478820D01*
X-801665Y-472495D01*
X-761050Y-471200D02*
X-728640D01*
X-763565Y-441250D02*
Y-426775D01*
X-712590Y-446001D02*
X-706640D01*
X-719750Y-438840D02*
X-712590Y-446001D01*
X-379370Y-496600D02*
Y-471200D01*
X-353360Y-497260D02*
X-331720D01*
X-299360Y-497920D02*
X-297480Y-499800D01*
X-278380D01*
X-252370Y-496600D02*
Y-471200D01*
Y-496600D02*
X-220620D01*
X-373020Y-452200D02*
X-362069Y-441250D01*
X-350795D01*
X-331720Y-497260D02*
Y-478820D01*
X-325395Y-472495D02*
Y-441250D01*
X-331720Y-478820D02*
X-325395Y-472495D01*
X-379370Y-471200D02*
X-346960D01*
X-331745Y-455985D01*
Y-441250D01*
X-319045D02*
Y-422965D01*
X-306345Y-472495D02*
X-299360Y-479480D01*
Y-497920D02*
Y-479480D01*
X-306345Y-472495D02*
Y-441250D01*
X-286660Y-461700D02*
X-220620D01*
X-293645Y-454715D02*
X-286660Y-461700D01*
X-293645Y-454715D02*
Y-441250D01*
X-299995Y-455985D02*
Y-441250D01*
Y-455985D02*
X-284780Y-471200D01*
X-252370D01*
X-287295Y-441250D02*
Y-426775D01*
X-236320Y-446000D02*
X-230370D01*
X-243480Y-438840D02*
X-236320Y-446000D01*
X-280945Y-441250D02*
X-269670D01*
X-258720Y-452200D01*
X-4740Y-482630D02*
Y-457230D01*
X21270Y-483290D02*
X42910D01*
X75270Y-483950D02*
X77150Y-485830D01*
X96250D01*
X122260Y-482630D02*
Y-457230D01*
Y-482630D02*
X154010D01*
X1610Y-438230D02*
X12560Y-427280D01*
X42910Y-483290D02*
Y-464850D01*
X49235Y-458525D02*
Y-427280D01*
X42910Y-464850D02*
X49235Y-458525D01*
X-4740Y-457230D02*
X27670D01*
X42885Y-442015D01*
Y-427280D01*
X68285Y-458525D02*
X75270Y-465510D01*
Y-483950D02*
Y-465510D01*
X68285Y-458525D02*
Y-427280D01*
X87970Y-447730D02*
X154010D01*
X80985Y-440745D02*
X87970Y-447730D01*
X80985Y-440745D02*
Y-427280D01*
X74635Y-442015D02*
Y-427280D01*
Y-442015D02*
X89850Y-457230D01*
X122260D01*
X138310Y-432030D02*
X144260D01*
X131150Y-424870D02*
X138310Y-432030D01*
X104959Y-427280D02*
X115910Y-438230D01*
X458870Y-483120D02*
Y-457720D01*
X585870Y-483120D02*
Y-457720D01*
Y-483120D02*
X617620D01*
X465220Y-438720D02*
X476170Y-427770D01*
X487445D01*
X458870Y-457720D02*
X491280D01*
X506495Y-442505D01*
Y-427770D01*
X519195D02*
Y-409485D01*
X551580Y-448220D02*
X617620D01*
X544595Y-441235D02*
X551580Y-448220D01*
X544595Y-441235D02*
Y-427770D01*
X538245Y-442505D02*
Y-427770D01*
Y-442505D02*
X553460Y-457720D01*
X585870D01*
X550945Y-427770D02*
Y-413295D01*
X559200Y-410120D02*
X574440Y-425360D01*
X594760D01*
X601920Y-432520D02*
X607869D01*
X594760Y-425360D02*
X601920Y-432520D01*
X557295Y-427770D02*
X568569D01*
X579520Y-438720D01*
X705620Y-428150D02*
X716895D01*
X694670Y-439100D02*
X705620Y-428150D01*
X735945Y-442885D02*
Y-428150D01*
X720730Y-458100D02*
X735945Y-442885D01*
X714330Y-484160D02*
X735970D01*
Y-465720D01*
X742295Y-459395D01*
Y-428150D01*
X770210Y-486700D02*
X789310D01*
X768330Y-484820D02*
X770210Y-486700D01*
X767695Y-442885D02*
Y-428150D01*
Y-442885D02*
X782910Y-458100D01*
X774045Y-441615D02*
Y-428150D01*
Y-441615D02*
X781030Y-448600D01*
X847070D01*
X761345Y-459395D02*
Y-428150D01*
Y-459395D02*
X768330Y-466380D01*
Y-484820D02*
Y-466380D01*
X782910Y-458100D02*
X815320D01*
X656570Y-483500D02*
X688320D01*
Y-458100D01*
X720730D01*
X831370Y-432900D02*
X837320D01*
X824210Y-425740D02*
X831370Y-432900D01*
X783570Y-410500D02*
X788650D01*
X780395Y-413675D02*
X783570Y-410500D01*
X780395Y-428150D02*
Y-413675D01*
X786745Y-428150D02*
X798020D01*
X808970Y-439100D01*
X788650Y-410500D02*
X803890Y-425740D01*
X824210D01*
X799420Y-413650D02*
X815320D01*
X791190Y-405420D02*
X799420Y-413650D01*
X748645Y-428150D02*
Y-409865D01*
X786745Y-393355D02*
Y-380150D01*
Y-393355D02*
X797540Y-404150D01*
X828020D01*
X837320Y-394850D01*
Y-375400D01*
X815320Y-483500D02*
X847070D01*
X812120Y-486700D02*
X815320D01*
X808310D02*
X812120D01*
X815320Y-483500D02*
Y-458100D01*
X341790Y-216790D02*
X354240D01*
X335312Y-223268D02*
X341790Y-216790D01*
X325240Y-223268D02*
X335312D01*
X332154Y-197074D02*
X345370Y-210290D01*
X315786Y-197074D02*
X332154D01*
X312540Y-218100D02*
Y-200320D01*
X315786Y-197074D01*
X307372Y-223268D02*
X312540Y-218100D01*
X299840Y-223268D02*
X307372D01*
X333416Y-194026D02*
X343181Y-203790D01*
X293434Y-194026D02*
X333416D01*
X287140Y-218100D02*
Y-200320D01*
X293434Y-194026D01*
X281972Y-223268D02*
X287140Y-218100D01*
X274440Y-223268D02*
X281972D01*
X343181Y-203790D02*
X354240D01*
X396360Y-195240D02*
X454360D01*
X368310Y-223290D02*
X396360Y-195240D01*
X354240Y-223290D02*
X368310D01*
X345370Y-210290D02*
X354240D01*
X454360Y-195240D02*
X454780Y-194820D01*
X17620Y-264860D02*
X35640D01*
X25480Y-249620D02*
X38180Y-236920D01*
X35640Y-264860D02*
X38180Y-262320D01*
X-565240Y-443160D02*
X-563100Y-445300D01*
X-588500Y-476940D02*
Y-473980D01*
X-624900Y-476940D02*
Y-472280D01*
X-597240Y-462400D02*
Y-443160D01*
X-645240Y-473960D02*
Y-443160D01*
X-407002Y-213141D02*
X-406582Y-212721D01*
X-493052Y-241191D02*
X-465002Y-213141D01*
X-407002D01*
X-548822Y-218221D02*
X-545576Y-214975D01*
X-529208D01*
X-536122Y-241169D02*
X-526050D01*
X-515992Y-228191D02*
X-507122D01*
Y-241191D02*
X-493052D01*
X-518181Y-221691D02*
X-507122D01*
X-527945Y-211927D02*
X-518181Y-221691D01*
X-529208Y-214975D02*
X-515992Y-228191D01*
X-526050Y-241169D02*
X-519572Y-234691D01*
X-507122D01*
X-536122Y-230257D02*
Y-220761D01*
X-561522Y-230257D02*
Y-220761D01*
X-466828Y-296499D02*
X-450520Y-280191D01*
X-438122D01*
X-470892Y-294063D02*
X-450520Y-273691D01*
X-438122D01*
X-474956Y-291627D02*
X-450520Y-267191D01*
X-438122D01*
X-479020Y-335200D02*
Y-289191D01*
X-450520Y-260691D01*
X-438122D01*
X-462764Y-298935D02*
X-450520Y-286691D01*
X-438122D01*
X-458700Y-301371D02*
X-450520Y-293191D01*
X-438122D01*
X-454636Y-303807D02*
X-450520Y-299691D01*
X-438122D01*
X-450572Y-454415D02*
X-450572Y-309298D01*
X-447465Y-306191D01*
X-438122D01*
X-502540Y-510720D02*
X-450572Y-458752D01*
Y-454415D01*
X-502540Y-490400D02*
X-454636Y-442496D01*
Y-303807D01*
X-502540Y-470080D02*
X-458700Y-426240D01*
Y-301371D01*
X-502540Y-449760D02*
X-462764Y-409984D01*
Y-298935D01*
X-502540Y-429440D02*
X-466828Y-393728D01*
Y-296499D01*
X-502540Y-409120D02*
X-470892Y-377472D01*
Y-294063D01*
X-502540Y-388800D02*
X-474956Y-361216D01*
Y-291627D01*
X-502540Y-368480D02*
X-479020Y-344960D01*
Y-335200D01*
X-479020Y-335200D02*
X-479020Y-335200D01*
X17620Y-249620D02*
X25480D01*
X-561522Y-241169D02*
X-553990D01*
X-579390D02*
X-574222Y-236001D01*
X-586922Y-241169D02*
X-579390D01*
X-574222Y-236001D02*
Y-218221D01*
X-567928Y-211927D01*
X-527945D01*
X-548822Y-236001D02*
Y-218221D01*
X-553990Y-241169D02*
X-548822Y-236001D01*
X443150Y-236290D02*
X454780Y-247920D01*
X-598694Y-252169D02*
X-536122D01*
D29*
X-488000Y-167000D02*
Y-155000D01*
X-272000Y-129000D02*
X-265000Y-136000D01*
Y-140500D02*
Y-136000D01*
X-182500Y-173000D02*
X-174500Y-165000D01*
X-185000Y-122500D02*
X-182500Y-125000D01*
X-174500D01*
X-185000Y-95000D02*
X-174500D01*
X-185000Y-75000D02*
X-174500D01*
X-185000Y-35000D02*
X-174500D01*
X-390000Y-90500D02*
Y-87501D01*
X-389999Y-87500D01*
X-390000Y-90500D02*
X-380000Y-100500D01*
X-335000D02*
Y-90000D01*
X779760Y-706300D02*
X798600D01*
Y-731700D02*
Y-706300D01*
X760500Y-731700D02*
Y-706300D01*
X604500Y-706300D02*
X623340D01*
Y-731700D02*
Y-706300D01*
X585240Y-731700D02*
Y-706300D01*
X779550Y-731700D02*
X798600D01*
X779550Y-757100D02*
X798600D01*
X604290Y-731700D02*
X623340D01*
X604290Y-757100D02*
X623340D01*
X430930Y-705920D02*
X449770D01*
X255670Y-705920D02*
X274510D01*
X449770Y-731320D02*
Y-705920D01*
X411670Y-731320D02*
Y-705920D01*
X274510Y-731320D02*
Y-705920D01*
X81620Y-705430D02*
X100460D01*
X236410Y-731320D02*
Y-705920D01*
X100460Y-730830D02*
Y-705430D01*
X62360Y-730830D02*
Y-705430D01*
X430720Y-731320D02*
X449770D01*
X255460Y-731320D02*
X274510D01*
X255460Y-756720D02*
X274510D01*
X430720Y-756720D02*
X449770D01*
X81410Y-730830D02*
X100460D01*
X81410Y-756230D02*
X100460D01*
X-93640Y-705430D02*
X-74800D01*
Y-730830D02*
Y-705430D01*
X-112900Y-730830D02*
Y-705430D01*
X-249140Y-731610D02*
Y-706210D01*
X-267980D02*
X-249140D01*
X-443240D02*
X-424400D01*
X-287240Y-731610D02*
Y-706210D01*
X-424400Y-731610D02*
Y-706210D01*
X-93850Y-730830D02*
X-74800D01*
X-93850Y-756230D02*
X-74800D01*
X-268190Y-731610D02*
X-249140D01*
X-268190Y-757010D02*
X-249140D01*
X-443450Y-731610D02*
X-424400D01*
X-443450Y-757010D02*
X-424400D01*
X-616880Y-706700D02*
X-598040D01*
X-462500Y-731610D02*
Y-706210D01*
X-636140Y-732100D02*
Y-706700D01*
X-598040Y-732100D02*
Y-706700D01*
X-792140D02*
X-773300D01*
Y-732100D02*
Y-706700D01*
X-811400Y-732100D02*
Y-706700D01*
X-617090Y-732100D02*
X-598040D01*
X-617090Y-757500D02*
X-598040D01*
X-792350Y-732100D02*
X-773300D01*
X-792350Y-757500D02*
X-773300D01*
X798600Y-680900D02*
Y-669234D01*
Y-706300D02*
Y-680900D01*
X760500D02*
Y-669234D01*
Y-706300D02*
Y-680900D01*
X604500Y-706300D02*
X604500D01*
X760500Y-731700D02*
X779550D01*
X760500Y-757100D02*
X779550D01*
X585240Y-731700D02*
X604290D01*
X585240Y-757100D02*
X604290D01*
X430929Y-705920D02*
X430930D01*
X411670Y-731320D02*
X430720D01*
X411670Y-756720D02*
X430720D01*
X62360Y-730830D02*
X81410D01*
X236410Y-731320D02*
X255460D01*
X62360Y-756230D02*
X81410D01*
X236410Y-756720D02*
X255460D01*
X-267980Y-706210D02*
X-267980D01*
X-443240D02*
X-443240D01*
X-112900Y-756230D02*
X-93850D01*
X-112900Y-730830D02*
X-93850D01*
X-287240Y-731610D02*
X-268190D01*
X-287240Y-757010D02*
X-268190D01*
X-462500Y-731610D02*
X-443450D01*
X-462500Y-757010D02*
X-443450D01*
X-616881Y-706700D02*
X-616880D01*
X-792141D02*
X-792140D01*
X-636140Y-732100D02*
X-617090D01*
X-636140Y-757500D02*
X-617090D01*
X-811400Y-732100D02*
X-792350D01*
X-811400Y-757500D02*
X-792350D01*
X-609500Y-130000D02*
Y-117500D01*
X-644500Y-130000D02*
Y-117500D01*
X-749500Y-130000D02*
Y-117500D01*
X-714500Y-130000D02*
Y-117500D01*
X-679500Y-130000D02*
Y-117500D01*
X-824100Y-757500D02*
Y-732100D01*
X-760600D02*
Y-706700D01*
X-824100D02*
Y-681300D01*
X-811400Y-757500D02*
Y-732100D01*
Y-770200D02*
Y-757500D01*
X-773300D02*
Y-732100D01*
Y-770200D02*
Y-757500D01*
X-811400Y-706700D02*
X-792141D01*
X-824100D02*
X-811400D01*
X-773300Y-732100D02*
X-760600D01*
X-824100D02*
X-811400D01*
X-773300Y-757500D02*
X-760600D01*
X-824100D02*
X-811400D01*
X-773300Y-706700D02*
X-760600D01*
X-648840Y-757500D02*
Y-732100D01*
X-585340D02*
Y-706700D01*
X-648840D02*
Y-681300D01*
X-636140Y-757500D02*
Y-732100D01*
Y-770200D02*
Y-757500D01*
X-598040D02*
Y-732100D01*
Y-770200D02*
Y-757500D01*
X-636140Y-706700D02*
X-616881D01*
X-648840D02*
X-636140D01*
X-598040Y-732100D02*
X-585340D01*
X-648840D02*
X-636140D01*
X-598040Y-757500D02*
X-585340D01*
X-648840D02*
X-636140D01*
X-598040Y-706700D02*
X-585340D01*
X-475200Y-757010D02*
Y-731610D01*
X-411700D02*
Y-706210D01*
X-475200D02*
Y-680810D01*
X-462500Y-757010D02*
Y-731610D01*
Y-769710D02*
Y-757010D01*
X-424400D02*
Y-731610D01*
Y-769710D02*
Y-757010D01*
X-462500Y-706210D02*
X-443240D01*
X-475200D02*
X-462500D01*
X-424400Y-731610D02*
X-411700D01*
X-475200D02*
X-462500D01*
X-424400Y-757010D02*
X-411700D01*
X-475200D02*
X-462500D01*
X-424400Y-706210D02*
X-411700D01*
X-299940Y-757010D02*
Y-731610D01*
X-236440D02*
Y-706210D01*
X-299940D02*
Y-680810D01*
X-287240Y-757010D02*
Y-731610D01*
Y-769710D02*
Y-757010D01*
X-249140D02*
Y-731610D01*
Y-769710D02*
Y-757010D01*
X-287240Y-706210D02*
X-267980D01*
X-299940D02*
X-287240D01*
X-249140Y-731610D02*
X-236440D01*
X-299940D02*
X-287240D01*
X-249140Y-757010D02*
X-236440D01*
X-299940D02*
X-287240D01*
X-249140Y-706210D02*
X-236440D01*
X-125600Y-756230D02*
Y-730830D01*
X-62100D02*
Y-705430D01*
X-125600D02*
Y-680030D01*
X-112900Y-756230D02*
Y-730830D01*
Y-768930D02*
Y-756230D01*
X-74800D02*
Y-730830D01*
Y-768930D02*
Y-756230D01*
X-112900Y-705430D02*
X-93640D01*
X-125600D02*
X-112900D01*
X-74800Y-730830D02*
X-62100D01*
X-125600D02*
X-112900D01*
X-74800Y-756230D02*
X-62100D01*
X-125600D02*
X-112900D01*
X-74800Y-705430D02*
X-62100D01*
X49660Y-756230D02*
Y-730830D01*
X113160D02*
Y-705430D01*
X49660D02*
Y-680030D01*
X62360Y-756230D02*
Y-730830D01*
Y-768930D02*
Y-756230D01*
X100460D02*
Y-730830D01*
Y-768930D02*
Y-756230D01*
X62360Y-705430D02*
X81620D01*
X49660D02*
X62360D01*
X100460Y-730830D02*
X113160D01*
X49660D02*
X62360D01*
X100460Y-756230D02*
X113160D01*
X49660D02*
X62360D01*
X100460Y-705430D02*
X113160D01*
X223710Y-756720D02*
Y-731320D01*
X287210D02*
Y-705920D01*
X223710D02*
Y-680520D01*
X236410Y-756720D02*
Y-731320D01*
Y-769420D02*
Y-756720D01*
X274510D02*
Y-731320D01*
Y-769420D02*
Y-756720D01*
X236410Y-705920D02*
X255670D01*
X223710D02*
X236410D01*
X274510Y-731320D02*
X287210D01*
X223710D02*
X236410D01*
X274510Y-756720D02*
X287210D01*
X223710D02*
X236410D01*
X274510Y-705920D02*
X287210D01*
X398970Y-756720D02*
Y-731320D01*
X462470D02*
Y-705920D01*
X398970D02*
Y-680520D01*
X411670Y-756720D02*
Y-731320D01*
Y-769420D02*
Y-756720D01*
X449770D02*
Y-731320D01*
Y-769420D02*
Y-756720D01*
X411670Y-705920D02*
X430929D01*
X398970D02*
X411670D01*
X449770Y-731320D02*
X462470D01*
X398970D02*
X411670D01*
X449770Y-756720D02*
X462470D01*
X398970D02*
X411670D01*
X449770Y-705920D02*
X462470D01*
X572540Y-757100D02*
Y-731700D01*
X636040D02*
Y-706300D01*
X572540D02*
Y-680900D01*
X585240Y-757100D02*
Y-731700D01*
Y-769800D02*
Y-757100D01*
X623340D02*
Y-731700D01*
Y-769800D02*
Y-757100D01*
X585240Y-706300D02*
X604500D01*
X572540D02*
X585240D01*
X623340Y-731700D02*
X636040D01*
X572540D02*
X585240D01*
X623340Y-757100D02*
X636040D01*
X572540D02*
X585240D01*
X623340Y-706300D02*
X636040D01*
X798600Y-706300D02*
X811300D01*
X760500Y-669234D02*
X779760D01*
X798600D01*
X747800Y-757100D02*
X760500D01*
X798600D02*
X811300D01*
X747800Y-731700D02*
X760500D01*
X798600D02*
X811300D01*
X747800Y-706300D02*
X760500D01*
X779760D01*
X798600Y-769800D02*
Y-757100D01*
Y-731700D01*
X760500Y-769800D02*
Y-757100D01*
Y-731700D01*
X747800Y-706300D02*
Y-680900D01*
X811300Y-731700D02*
Y-706300D01*
X747800Y-757100D02*
Y-731700D01*
X-830240Y-649000D02*
Y-626860D01*
X-481340Y-648510D02*
Y-627780D01*
X-131740Y-647730D02*
Y-626860D01*
X217570Y-648220D02*
Y-628190D01*
X566400Y-648600D02*
Y-626080D01*
X-577500Y-45000D02*
X-567000D01*
D30*
X735310Y-503820D02*
X748620D01*
X601300Y-607350D02*
Y-556550D01*
X427730Y-606970D02*
Y-556170D01*
X252470Y-606970D02*
Y-556170D01*
X42250Y-502950D02*
X55560D01*
X78420Y-606480D02*
Y-555680D01*
X-96840Y-606480D02*
Y-555680D01*
X-332380Y-516920D02*
X-319070D01*
X-271180Y-607260D02*
Y-556460D01*
X-446440Y-607260D02*
Y-556460D01*
X-620080Y-607750D02*
Y-556950D01*
X-808650Y-516920D02*
X-795340D01*
X-795340Y-607750D02*
Y-556950D01*
X587590Y-343080D02*
Y-339780D01*
Y-350700D02*
Y-343080D01*
Y-376650D02*
Y-350700D01*
X780395Y-380150D02*
Y-354875D01*
X780395Y-362875D02*
X780395Y-362875D01*
X702000Y-362240D02*
X717530D01*
X659110D02*
X659820Y-362950D01*
X570014Y-349246D02*
Y-317666D01*
X588444Y-299236D01*
X602244D01*
X550945Y-368315D02*
X570014Y-349246D01*
X-245492Y-369242D02*
X-221110Y-344860D01*
X-276328Y-369242D02*
X-245492D01*
X-287295Y-380209D02*
X-276328Y-369242D01*
X-287295Y-393250D02*
Y-380209D01*
X-714049Y-367718D02*
X-700140Y-353810D01*
X-693640Y-347310D01*
X-756896Y-367718D02*
X-714049D01*
X-763565Y-374387D02*
X-756896Y-367718D01*
X-763565Y-393250D02*
Y-374387D01*
X423240Y-229790D02*
X450790D01*
X454200Y-226380D01*
X360960Y-388040D02*
X392340Y-419420D01*
X348340Y-388040D02*
X360960D01*
X392340Y-435540D02*
Y-419420D01*
X249200Y-388040D02*
X278040Y-416880D01*
X304340Y-420780D02*
X337080Y-388040D01*
X348340D01*
X304340Y-435540D02*
Y-420780D01*
X234040Y-388040D02*
X249200D01*
X278040Y-435540D02*
Y-416880D01*
X190040Y-418240D02*
X220240Y-388040D01*
X234040D01*
X190040Y-435540D02*
Y-418240D01*
X453155Y-575195D02*
X456330Y-572020D01*
X456330Y-572020D02*
X481730D01*
X429660Y-361860D02*
X487180D01*
X493795Y-368475D01*
Y-379770D02*
Y-368475D01*
X392340Y-340540D02*
Y-307660D01*
X761345Y-380150D02*
Y-359675D01*
X742295Y-380150D02*
Y-359675D01*
X103845Y-574705D02*
X107020Y-571530D01*
X107020Y-571530D02*
X132420D01*
X-245755Y-575485D02*
X-242580Y-572310D01*
X-242580Y-572310D02*
X-217180D01*
X-242580D02*
X-242580D01*
X-594655Y-575975D02*
X-591480Y-572800D01*
X-591480Y-572800D02*
X-566080D01*
X-639080Y-582350D02*
Y-556950D01*
X-652440Y-595710D02*
X-639080Y-582350D01*
X-604180Y-649000D02*
Y-585500D01*
X-594655Y-575975D01*
X-817490Y-553800D02*
X-814341Y-556950D01*
X-814340Y-556950D01*
X-642230Y-553800D02*
X-639080Y-556950D01*
X-639080Y-556950D01*
X-728640Y-407751D02*
Y-391850D01*
X-795340Y-480750D02*
Y-463630D01*
X-788965Y-457255D01*
Y-441250D01*
X-687140Y-447271D02*
Y-388500D01*
X-801665Y-393250D02*
Y-372775D01*
X-795315Y-393250D02*
Y-353725D01*
X-163020Y-419340D02*
X-144420Y-400740D01*
X-91080Y-398200D02*
X-75020Y-414260D01*
X-144420Y-400740D02*
X-141880Y-398200D01*
X-119020D01*
X-163020Y-445700D02*
Y-419340D01*
X-119020Y-398200D02*
X-91080D01*
X-75020Y-445700D02*
Y-414260D01*
X-586380Y-395660D02*
X-565240Y-416800D01*
X-632100Y-395660D02*
X-609240D01*
X-653240Y-443160D02*
Y-416800D01*
X-609240Y-395660D02*
X-586380D01*
X-565240Y-443160D02*
Y-416800D01*
X706480Y-257480D02*
Y-209480D01*
X719180Y-257480D02*
Y-209480D01*
X815320Y-378750D02*
X816190Y-377880D01*
Y-339780D01*
X550945Y-379770D02*
Y-368315D01*
X584560Y-262180D02*
Y-214180D01*
X597260Y-262180D02*
Y-214180D01*
X585870Y-378370D02*
X587590Y-376650D01*
X594720Y-291520D02*
X596370Y-289870D01*
Y-266030D01*
X583670Y-288321D02*
X584560Y-289211D01*
X583670Y-288321D02*
Y-266030D01*
X614370Y-365420D02*
Y-362570D01*
Y-375020D02*
Y-365420D01*
X620870Y-365420D02*
Y-362570D01*
X617620Y-357270D02*
X617620D01*
X620870Y-375020D02*
Y-365420D01*
X614370Y-365420D02*
X617620Y-362170D01*
X620870Y-365420D01*
X653320Y-375400D02*
Y-366290D01*
X653320Y-366290D02*
X653320Y-366290D01*
X657370Y-362240D01*
X843820Y-375400D02*
Y-365800D01*
X843820Y-365800D02*
X843820Y-365800D01*
X847070Y-362550D01*
X-693640Y-388500D02*
Y-347310D01*
X-223870Y-388500D02*
Y-376050D01*
X-217370Y-388500D02*
Y-376050D01*
X150760Y-374530D02*
Y-362080D01*
X157260Y-374530D02*
Y-362080D01*
X92560Y-356781D02*
X154010D01*
X87335Y-362005D02*
X92560Y-356781D01*
X68285Y-379280D02*
Y-358806D01*
X122260Y-393781D02*
Y-377880D01*
X61909Y-427305D02*
X61935Y-427280D01*
Y-379280D02*
Y-339755D01*
X49235Y-379280D02*
Y-358806D01*
X55585Y-379280D02*
Y-339755D01*
X24470Y-361370D02*
X30185Y-367085D01*
X-33950Y-361370D02*
X24470D01*
X-35691D02*
X-33950D01*
X-33240Y-362080D01*
X-39740Y-365420D02*
X-35691Y-361370D01*
X30185Y-379280D02*
Y-367085D01*
X-33240Y-374530D02*
Y-362080D01*
X-39740Y-374530D02*
Y-365420D01*
X87335Y-379280D02*
Y-362005D01*
X-306345Y-393250D02*
Y-372775D01*
X-252370Y-407750D02*
Y-391850D01*
X-312695Y-393250D02*
Y-353725D01*
X-325395Y-393250D02*
Y-372775D01*
X-319045Y-393250D02*
Y-353725D01*
X-408580Y-375340D02*
X-350160D01*
X-344445Y-381055D01*
X-414370Y-379390D02*
X-410320Y-375340D01*
X-408580D02*
X-407870Y-376050D01*
X-410320Y-375340D02*
X-408580D01*
X-344445Y-393250D02*
Y-381055D01*
X-407870Y-388500D02*
Y-376050D01*
X-414370Y-388500D02*
Y-379390D01*
X-782615Y-393250D02*
Y-372776D01*
X-788965Y-393250D02*
Y-353725D01*
X-884850Y-375340D02*
X-884140Y-376050D01*
X-884850Y-375340D02*
X-826430D01*
X-890640Y-379390D02*
X-886590Y-375340D01*
X-826430D02*
X-820715Y-381055D01*
X-884140Y-388500D02*
Y-376050D01*
X-886590Y-375340D02*
X-884850D01*
X-890640Y-388500D02*
Y-379390D01*
X-820715Y-393250D02*
Y-381055D01*
X-700140Y-388500D02*
Y-353810D01*
X531895Y-379770D02*
Y-359295D01*
X512845Y-379770D02*
Y-359295D01*
X585870Y-394270D02*
Y-378370D01*
X427920Y-361860D02*
X429660D01*
X423870Y-365910D02*
X427920Y-361860D01*
X429660D02*
X430370Y-362570D01*
Y-375020D02*
Y-362570D01*
X423870Y-375020D02*
Y-365910D01*
X739120Y-331100D02*
X748645Y-340625D01*
X754995D02*
X764520Y-331100D01*
X713720Y-331100D02*
X742295Y-359675D01*
X761345Y-359675D02*
X789920Y-331100D01*
X717530Y-362240D02*
X723245Y-367955D01*
X657370Y-362240D02*
X659110D01*
X847070Y-362550D02*
X850320Y-365800D01*
X847070Y-362550D02*
Y-357650D01*
X-884140Y-458451D02*
Y-446000D01*
X-887390Y-461700D02*
X-884140Y-458451D01*
X-890640Y-458451D02*
X-887390Y-461700D01*
X-890640Y-458451D02*
Y-446000D01*
X-407870Y-458450D02*
Y-446000D01*
X-411120Y-461700D02*
X-407870Y-458450D01*
X-414370Y-458450D02*
X-411120Y-461700D01*
X-414370Y-458450D02*
Y-446000D01*
X-33240Y-444481D02*
Y-432030D01*
X-36490Y-447730D02*
X-33240Y-444481D01*
X-39740Y-444481D02*
X-36490Y-447730D01*
X-39740Y-444481D02*
Y-432030D01*
X430370Y-444971D02*
Y-432520D01*
X427120Y-448220D02*
X430370Y-444971D01*
X423870Y-444971D02*
X427120Y-448220D01*
X423870Y-444971D02*
Y-432520D01*
X-795340Y-607750D02*
X-792140Y-610950D01*
X-620080Y-607750D02*
X-616880Y-610950D01*
X-897140Y-446000D02*
Y-388500D01*
X-766740Y-610951D02*
X-763540Y-607750D01*
X-868340Y-553800D02*
X-817490D01*
X-814340Y-582350D02*
Y-556950D01*
X-766740Y-572800D02*
X-741340D01*
X-792190Y-553800D02*
X-766740D01*
X-591480Y-607750D02*
X-591480Y-607750D01*
X-588280D01*
X-693080Y-553800D02*
X-642230D01*
X-616931Y-553800D02*
X-591480D01*
X-827700Y-616640D02*
Y-595710D01*
X-817540Y-649000D02*
Y-626800D01*
X-827700Y-616640D02*
X-817540Y-626800D01*
X-827700Y-595710D02*
X-814340Y-582350D01*
X-792140Y-649000D02*
Y-610950D01*
X-814340Y-617301D02*
Y-607750D01*
Y-617301D02*
X-804840Y-626800D01*
Y-649000D02*
Y-626800D01*
X-779440Y-649000D02*
Y-585500D01*
X-766740Y-572800D01*
X-766740Y-649000D02*
Y-610951D01*
X-804840Y-344200D02*
X-795315Y-353725D01*
X-830240Y-344200D02*
X-801665Y-372775D01*
X-788965Y-353725D02*
X-779440Y-344200D01*
X-795340Y-556950D02*
Y-516920D01*
Y-480750D01*
Y-516920D02*
X-775630D01*
X-788990Y-441275D02*
X-788965Y-441250D01*
X-782615Y-372775D02*
X-754040Y-344200D01*
X-652440Y-616640D02*
Y-595710D01*
X-642280Y-649000D02*
Y-626800D01*
X-652440Y-616640D02*
X-642280Y-626800D01*
X-616880Y-649000D02*
Y-610950D01*
X-639080Y-617300D02*
Y-607750D01*
Y-617300D02*
X-629580Y-626800D01*
Y-649000D02*
Y-626800D01*
X-591480Y-649000D02*
Y-607750D01*
X-446440Y-607260D02*
X-443240Y-610460D01*
X-271180Y-607260D02*
X-267980Y-610460D01*
X-420870Y-445999D02*
Y-388499D01*
X-210870Y-447270D02*
Y-388500D01*
X-417840Y-610460D02*
X-414640Y-607260D01*
X-519440Y-553310D02*
X-494040D01*
X-468590D01*
X-465440Y-556460D01*
Y-581860D02*
Y-556460D01*
X-417840Y-572310D02*
X-392440D01*
X-443290Y-553310D02*
X-417840D01*
X-242580Y-607260D02*
X-242580Y-607260D01*
X-239380D01*
X-344180Y-553310D02*
X-318780D01*
X-293330D01*
X-290180Y-556460D01*
Y-581860D02*
Y-556460D01*
X-268030Y-553310D02*
X-242580D01*
X-478800Y-616150D02*
Y-595220D01*
X-468640Y-648510D02*
Y-626310D01*
X-478800Y-616150D02*
X-468640Y-626310D01*
X-478800Y-595220D02*
X-465440Y-581860D01*
X-443240Y-648510D02*
Y-610460D01*
X-465440Y-616811D02*
Y-607260D01*
X-455940Y-648510D02*
Y-626310D01*
X-465440Y-616811D02*
X-455940Y-626310D01*
X-430540Y-648510D02*
Y-585010D01*
X-417840Y-572310D01*
X-417840Y-648510D02*
Y-610460D01*
X-328570Y-344200D02*
X-319045Y-353725D01*
X-353970Y-344200D02*
X-325395Y-372775D01*
X-312695Y-353725D02*
X-303170Y-344200D01*
X-319070Y-516920D02*
X-299360D01*
X-319070Y-480750D02*
Y-463630D01*
Y-516920D02*
Y-480750D01*
Y-463630D02*
X-312695Y-457255D01*
X-312720Y-441275D02*
X-312695Y-441250D01*
Y-457255D02*
Y-441250D01*
X-306345Y-372775D02*
X-277770Y-344200D01*
X-303540Y-616150D02*
Y-595220D01*
X-293380Y-648510D02*
Y-626310D01*
X-303540Y-616150D02*
X-293380Y-626310D01*
X-303540Y-595220D02*
X-290180Y-581860D01*
X-267980Y-648510D02*
Y-610460D01*
X-290180Y-616810D02*
Y-607260D01*
X-280680Y-648510D02*
Y-626310D01*
X-290180Y-616810D02*
X-280680Y-626310D01*
X-255280Y-648510D02*
Y-585010D01*
X-245755Y-575485D01*
X-242580Y-648510D02*
Y-607260D01*
X-96840Y-606480D02*
X-93640Y-609680D01*
X78420Y-606480D02*
X81620Y-609680D01*
X-46240Y-432030D02*
Y-374530D01*
X163760Y-433301D02*
Y-374530D01*
X-68240Y-609680D02*
X-65040Y-606480D01*
X-169840Y-552530D02*
X-144440D01*
X-118990D01*
X-115840Y-555680D01*
Y-581080D02*
Y-555680D01*
X-68240Y-571530D02*
X-42840D01*
X-93691Y-552530D02*
X-68240D01*
X107020Y-606480D02*
X107020Y-606480D01*
X110220D01*
X5420Y-552530D02*
X30820D01*
X56270D01*
X59420Y-555680D01*
Y-581080D02*
Y-555680D01*
X-129200Y-615370D02*
Y-594440D01*
X-119040Y-647730D02*
Y-625530D01*
X-129200Y-615370D02*
X-119040Y-625530D01*
X-129200Y-594440D02*
X-115840Y-581080D01*
X-93640Y-647730D02*
Y-609680D01*
X-115840Y-616031D02*
Y-606480D01*
Y-616031D02*
X-106340Y-625530D01*
Y-647730D02*
Y-625530D01*
X-80940Y-647730D02*
Y-584230D01*
X-68240Y-571530D01*
X-68240Y-647730D02*
Y-609680D01*
X46060Y-330230D02*
X55585Y-339755D01*
X20660Y-330230D02*
X49235Y-358805D01*
X61935Y-339755D02*
X71460Y-330230D01*
X55560Y-502950D02*
X75270D01*
X55560D02*
Y-466780D01*
Y-449660D01*
X61935Y-443285D01*
Y-427280D01*
X68285Y-358805D02*
X96860Y-330230D01*
X46060Y-615370D02*
Y-594440D01*
X56220Y-647730D02*
Y-625530D01*
X46060Y-615370D02*
X56220Y-625530D01*
X46060Y-594440D02*
X59420Y-581080D01*
X81620Y-647730D02*
Y-609680D01*
X59420Y-616030D02*
Y-606480D01*
Y-616030D02*
X68920Y-625530D01*
Y-647730D02*
Y-625530D01*
X94320Y-647730D02*
Y-584230D01*
X103845Y-574705D01*
X107020Y-647730D02*
Y-606480D01*
X252470Y-606970D02*
X255670Y-610170D01*
X427730Y-606970D02*
X430930Y-610170D01*
X417370Y-432520D02*
Y-375020D01*
X627370Y-433790D02*
Y-375020D01*
X281070Y-610171D02*
X284270Y-606970D01*
X179470Y-553020D02*
X204870D01*
X230320D01*
X233470Y-556170D01*
Y-581570D02*
Y-556170D01*
X281070Y-572020D02*
X306470D01*
X255620Y-553020D02*
X281070D01*
X456330Y-606970D02*
X456330Y-606970D01*
X459530D01*
X354730Y-553020D02*
X380130D01*
X405580D01*
X408730Y-556170D01*
Y-581570D02*
Y-556170D01*
X430880Y-553020D02*
X456330D01*
X268370Y-648220D02*
Y-584720D01*
X281070Y-572020D01*
X281070Y-648220D02*
Y-610171D01*
X255670Y-648220D02*
Y-610170D01*
X233470Y-616521D02*
Y-606970D01*
Y-616521D02*
X242970Y-626020D01*
Y-648220D02*
Y-626020D01*
X220110Y-615860D02*
Y-594930D01*
X230270Y-648220D02*
Y-626020D01*
X220110Y-615860D02*
X230270Y-626020D01*
X220110Y-594930D02*
X233470Y-581570D01*
X519195Y-379770D02*
Y-340245D01*
X509670Y-330720D02*
X519195Y-340245D01*
X525545Y-379770D02*
Y-340245D01*
X535070Y-330720D01*
X519170Y-467270D02*
Y-450150D01*
X525545Y-443775D01*
X525520Y-427795D02*
X525545Y-427770D01*
Y-443775D02*
Y-427770D01*
X443630Y-648220D02*
Y-584720D01*
X453155Y-575195D01*
X456330Y-648220D02*
Y-606970D01*
X430930Y-648220D02*
Y-610170D01*
X408730Y-616520D02*
Y-606970D01*
Y-616520D02*
X418230Y-626020D01*
Y-648220D02*
Y-626020D01*
X395370Y-615860D02*
Y-594930D01*
X405530Y-648220D02*
Y-626020D01*
X395370Y-615860D02*
X405530Y-626020D01*
X395370Y-594930D02*
X408730Y-581570D01*
X484270Y-330720D02*
X512845Y-359295D01*
X531895Y-359295D02*
X560470Y-330720D01*
X850320Y-375400D02*
Y-365800D01*
X748620Y-503820D02*
X768330D01*
X568940Y-616240D02*
X579100Y-626400D01*
X568940Y-616240D02*
Y-595310D01*
X582300Y-581950D01*
X744200Y-616240D02*
X754360Y-626400D01*
X744200Y-616240D02*
Y-595310D01*
X757560Y-581950D01*
X659820Y-375400D02*
Y-362950D01*
X754995Y-380150D02*
Y-340625D01*
X748645Y-380150D02*
Y-340625D01*
X776560Y-581950D02*
Y-556550D01*
X757560Y-581950D02*
Y-556550D01*
X757560Y-616900D02*
Y-607350D01*
Y-616900D02*
X767060Y-626400D01*
Y-648600D02*
Y-626400D01*
X779760Y-648600D02*
Y-610550D01*
X776560Y-607350D02*
X779760Y-610550D01*
X776560Y-607350D02*
Y-581950D01*
X805160Y-607350D02*
X808360D01*
X805160Y-607350D02*
X805160Y-607350D01*
X805160Y-648600D02*
Y-607350D01*
X754360Y-648600D02*
Y-626400D01*
X792460Y-585100D02*
X801985Y-575575D01*
X792460Y-648600D02*
Y-585100D01*
X779710Y-553400D02*
X805160D01*
X754410Y-553400D02*
X757560Y-556550D01*
X728960Y-553400D02*
X754410D01*
X703560D02*
X728960D01*
X805160Y-572400D02*
X830560D01*
X604450Y-553400D02*
X629900D01*
X604500Y-648600D02*
Y-610550D01*
X601300Y-607350D02*
X604500Y-610550D01*
X629900Y-648600D02*
Y-610550D01*
X633100Y-607350D01*
X629900Y-572400D02*
X655300D01*
X617200Y-585100D02*
X629900Y-572400D01*
X617200Y-648600D02*
Y-585100D01*
X591800Y-648600D02*
Y-626400D01*
X582300Y-616900D02*
X591800Y-626400D01*
X582300Y-616900D02*
Y-607350D01*
X582300Y-581950D02*
Y-556550D01*
X579100Y-648600D02*
Y-626400D01*
X579150Y-553400D02*
X582300Y-556550D01*
X553700Y-553400D02*
X579150D01*
X528300D02*
X553700D01*
X646820Y-432900D02*
Y-375400D01*
X723245Y-380150D02*
Y-367955D01*
X856820Y-434170D02*
Y-375400D01*
X754970Y-428175D02*
X754995Y-428150D01*
X748620Y-450530D02*
X754995Y-444155D01*
Y-428150D01*
X815320Y-394650D02*
Y-378750D01*
X748620Y-467650D02*
Y-450530D01*
Y-503820D02*
Y-467650D01*
X-653240Y-416800D02*
X-632100Y-395660D01*
X-621240Y-348160D02*
Y-328240D01*
X-629240Y-348160D02*
Y-328240D01*
X-637240Y-348160D02*
Y-328240D01*
X-645240Y-348160D02*
Y-328240D01*
X-653240Y-348160D02*
Y-328240D01*
X-573240Y-348160D02*
Y-327840D01*
X-581240Y-348160D02*
Y-327840D01*
X-589240Y-348160D02*
Y-327840D01*
X-597240Y-348160D02*
Y-327840D01*
X-605240Y-348160D02*
Y-326080D01*
X-565240Y-348160D02*
Y-335840D01*
X-573240Y-327840D02*
X-565240Y-335840D01*
X-613240Y-348160D02*
Y-333320D01*
X-618320Y-328240D02*
X-613240Y-333320D01*
X-621240Y-328240D02*
X-618320D01*
X-131020Y-350700D02*
Y-332920D01*
X-139020Y-350700D02*
Y-332920D01*
X-147020Y-350700D02*
Y-332920D01*
X-155020Y-350700D02*
Y-332920D01*
X-163020Y-350700D02*
Y-332920D01*
X-123020Y-350700D02*
Y-340920D01*
X-131020Y-332920D02*
X-123020Y-340920D01*
X-83020Y-350700D02*
Y-320220D01*
X-91020Y-350700D02*
Y-320220D01*
X-99020Y-350700D02*
Y-320220D01*
X-107020Y-350700D02*
Y-320220D01*
X-115020Y-350700D02*
Y-320220D01*
X-75020Y-350700D02*
Y-328220D01*
X-83020Y-320220D02*
X-75020Y-328220D01*
X190040Y-340540D02*
Y-326340D01*
X198040Y-340540D02*
Y-324280D01*
X206040Y-340540D02*
Y-323900D01*
X214040Y-340540D02*
Y-323520D01*
X222040Y-340540D02*
Y-323700D01*
X230040Y-340540D02*
Y-331700D01*
X222040Y-323700D02*
X230040Y-331700D01*
X238040Y-340540D02*
Y-324520D01*
X246040Y-340540D02*
Y-323920D01*
X254040Y-340540D02*
Y-324300D01*
X262040Y-340540D02*
Y-323380D01*
X270040Y-340540D02*
Y-325060D01*
X278040Y-340540D02*
Y-325440D01*
X304340Y-340540D02*
Y-324260D01*
X312340Y-340540D02*
Y-323880D01*
X320340Y-340540D02*
Y-323500D01*
X328340Y-340540D02*
Y-323120D01*
X336340Y-340540D02*
Y-322780D01*
X344340Y-340540D02*
Y-323160D01*
X352340Y-340540D02*
Y-308300D01*
X360340Y-340540D02*
Y-308900D01*
X368340Y-340540D02*
Y-309060D01*
X376340Y-340540D02*
Y-309440D01*
X384340Y-340540D02*
Y-309820D01*
D31*
X604500Y-706300D02*
Y-648600D01*
X430930Y-705920D02*
Y-648220D01*
X-267980Y-706210D02*
Y-648510D01*
X-443240Y-706210D02*
Y-648510D01*
X-616880Y-706700D02*
Y-649000D01*
X-792140Y-706700D02*
Y-649000D01*
X779760Y-680900D02*
Y-669234D01*
Y-706300D02*
Y-680900D01*
X604500Y-721650D02*
Y-706300D01*
X430930Y-721270D02*
Y-705920D01*
X255670Y-680520D02*
Y-648220D01*
Y-705920D02*
Y-680520D01*
Y-721270D02*
Y-705920D01*
X81620Y-680030D02*
Y-647730D01*
Y-705430D02*
Y-680030D01*
Y-720780D02*
Y-705430D01*
X-93640Y-680030D02*
Y-647730D01*
Y-705430D02*
Y-680030D01*
Y-720780D02*
Y-705430D01*
X-267980Y-721560D02*
Y-706210D01*
X-443240Y-721560D02*
Y-706210D01*
X-616880Y-722050D02*
Y-706700D01*
X-792140Y-722050D02*
Y-706700D01*
X-315000Y-254500D02*
Y-220500D01*
X-327500Y-254500D02*
Y-220500D01*
X-340000Y-254500D02*
Y-220500D01*
X-352500Y-230000D02*
Y-220500D01*
Y-237500D02*
Y-230000D01*
Y-245000D02*
Y-237500D01*
Y-254500D02*
Y-245000D01*
X-315000Y-209500D02*
Y-195000D01*
X-327500Y-209500D02*
Y-197500D01*
X-340000Y-209500D02*
Y-195000D01*
X-340000Y-280000D02*
Y-265500D01*
X-352500Y-209500D02*
Y-197500D01*
X-315000Y-280000D02*
Y-265500D01*
X-327500Y-277500D02*
Y-265500D01*
X-352500Y-277500D02*
Y-265500D01*
X-792141Y-722050D02*
Y-706700D01*
X-616881Y-722050D02*
Y-706700D01*
X-443240Y-721560D02*
Y-706210D01*
X-267980Y-721560D02*
Y-706210D01*
X430929Y-721270D02*
Y-705920D01*
X604500Y-721650D02*
Y-706300D01*
X779760Y-669234D02*
Y-648600D01*
Y-721650D02*
Y-706300D01*
X-718480Y-642700D02*
Y-620450D01*
Y-601400D01*
X-539410Y-642700D02*
Y-620450D01*
Y-601400D01*
X-369580Y-642210D02*
Y-619960D01*
Y-600910D01*
X-190510Y-642210D02*
Y-619960D01*
Y-600910D01*
X-19980Y-641430D02*
Y-619180D01*
Y-600130D01*
X159090Y-641430D02*
Y-619180D01*
Y-600130D01*
X329330Y-641920D02*
Y-619670D01*
Y-600620D01*
X508400Y-641920D02*
Y-619670D01*
Y-600620D01*
X678160Y-642300D02*
Y-620050D01*
Y-601000D01*
X857230Y-642300D02*
Y-620050D01*
Y-601000D01*
X558150Y-266030D02*
X570970D01*
X557890Y-218030D02*
X570970D01*
X680780Y-264720D02*
X693520D01*
X681040Y-216720D02*
X693520D01*
D32*
X-730000Y-187000D02*
X-730000Y-187000D01*
X-590000Y-153000D02*
Y-82400D01*
X-625500Y-46900D02*
X-590000Y-82400D01*
X-625000Y-153000D02*
Y-77400D01*
X-625500Y-76900D02*
X-625000Y-77400D01*
X-660000Y-153000D02*
Y-81400D01*
X-655500Y-76900D01*
X-695000Y-153000D02*
Y-86400D01*
X-685500Y-76900D01*
D33*
X-874690Y-410900D02*
X-830240D01*
X-827065Y-407725D01*
Y-393250D01*
X-874690Y-423600D02*
X-823890D01*
X-820715Y-426775D01*
X-820715Y-441250D02*
Y-426775D01*
X23835Y-393755D02*
Y-379280D01*
X20660Y-396930D02*
X23835Y-393755D01*
X-26740Y-393981D02*
Y-374530D01*
X-23790Y-396930D02*
X20660D01*
X-26740Y-393981D02*
X-23790Y-396930D01*
X27010Y-409630D02*
X30185Y-412805D01*
Y-427280D02*
Y-412805D01*
X-23790Y-409630D02*
X27010D01*
X-26740Y-412580D02*
X-23790Y-409630D01*
X-350795Y-407725D02*
Y-393250D01*
X-353970Y-410900D02*
X-350795Y-407725D01*
X-401370Y-407950D02*
Y-388500D01*
X-398420Y-410900D02*
X-353970D01*
X-401370Y-407950D02*
X-398420Y-410900D01*
X-347620Y-423600D02*
X-344445Y-426775D01*
X-398420Y-423600D02*
X-347620D01*
X-401370Y-426550D02*
X-398420Y-423600D01*
X-877640Y-407951D02*
Y-388500D01*
Y-407951D02*
X-874690Y-410900D01*
X-877640Y-426550D02*
X-874690Y-423600D01*
X487445Y-394245D02*
Y-379770D01*
X484270Y-397420D02*
X487445Y-394245D01*
X436870Y-394470D02*
Y-375020D01*
X439820Y-397420D02*
X484270D01*
X436870Y-394470D02*
X439820Y-397420D01*
X490620Y-410120D02*
X493795Y-413295D01*
X439820Y-410120D02*
X490620D01*
X436870Y-413070D02*
X439820Y-410120D01*
X-877640Y-446000D02*
Y-426550D01*
X-401370Y-445999D02*
Y-426549D01*
X-344445Y-441250D02*
Y-426775D01*
X-26740Y-432030D02*
Y-412580D01*
X436870Y-432520D02*
Y-413070D01*
X493795Y-427770D02*
Y-413295D01*
X666320Y-394850D02*
Y-375400D01*
Y-394850D02*
X669270Y-397800D01*
X713720D01*
X716895Y-394625D01*
Y-380150D01*
X723245Y-428150D02*
Y-413675D01*
X666320Y-432900D02*
Y-413450D01*
X669270Y-410500D01*
X720070D01*
X723245Y-413675D01*
D34*
X850320Y-445350D02*
Y-432900D01*
X847070Y-448600D02*
X850320Y-445350D01*
X843820Y-445350D02*
Y-432900D01*
Y-445350D02*
X847070Y-448600D01*
X653320Y-445350D02*
X656570Y-448600D01*
X653320Y-445350D02*
Y-432900D01*
X656570Y-448600D02*
X659820Y-445350D01*
Y-432900D01*
X-700140Y-458450D02*
Y-446001D01*
Y-458450D02*
X-696890Y-461700D01*
X-693640Y-458450D01*
Y-446001D01*
X-223870Y-458450D02*
Y-446000D01*
Y-458450D02*
X-220620Y-461700D01*
X-217370Y-458450D01*
Y-446000D01*
X150760Y-444480D02*
Y-432030D01*
Y-444480D02*
X154010Y-447730D01*
X157260Y-444480D01*
Y-432030D01*
X614370Y-444970D02*
Y-432520D01*
Y-444970D02*
X617620Y-448220D01*
X620870Y-444970D01*
Y-432520D01*
D35*
X-2411Y-815774D02*
D03*
D36*
X-685500Y-76900D02*
D03*
X-715500D02*
D03*
X-655500D02*
D03*
X-625500D02*
D03*
X-655500Y-46900D02*
D03*
X-715500D02*
D03*
X-685500D02*
D03*
X-475000Y-76900D02*
D03*
X-505000D02*
D03*
X-445000D02*
D03*
X-415000D02*
D03*
X-445000Y-46900D02*
D03*
X-505000D02*
D03*
X-475000D02*
D03*
X-270000Y-76900D02*
D03*
X-300000D02*
D03*
X-240000D02*
D03*
X-210000D02*
D03*
X-240000Y-46900D02*
D03*
X-300000D02*
D03*
X-270000D02*
D03*
D37*
X-625500D02*
D03*
X-415000D02*
D03*
X-210000D02*
D03*
D38*
X870000Y-870000D02*
D03*
X-870000D02*
D03*
X0D02*
D03*
X-0Y-74000D02*
D03*
D39*
X-870000D02*
D03*
X870000D02*
D03*
D40*
X-80500Y-87500D02*
D03*
X62027Y-222027D02*
D03*
X56000Y-216000D02*
D03*
X-9000Y-208000D02*
D03*
X-488000Y-167000D02*
D03*
X-272000Y-129000D02*
D03*
X-182500Y-173000D02*
D03*
X-185000Y-122500D02*
D03*
X-185000Y-95000D02*
D03*
Y-75000D02*
D03*
Y-35000D02*
D03*
X-85500Y-82500D02*
D03*
X-52500Y-165000D02*
D03*
X-45000D02*
D03*
X-227500Y-160000D02*
D03*
X-220000D02*
D03*
X-467500Y-105000D02*
D03*
X-535000Y-125000D02*
D03*
X-527500D02*
D03*
X-389999Y-87500D02*
D03*
X-335000Y-90000D02*
D03*
X-609500Y-117500D02*
D03*
X-644500D02*
D03*
X-749500D02*
D03*
X-714500D02*
D03*
X-679500D02*
D03*
X-462500Y-100000D02*
D03*
X-461240Y-205000D02*
D03*
X-469764D02*
D03*
X-589999Y-174999D02*
D03*
Y-167500D02*
D03*
X-625000Y-202500D02*
D03*
Y-210000D02*
D03*
X-730000Y-215000D02*
D03*
Y-207500D02*
D03*
Y-200000D02*
D03*
X706480Y-241000D02*
D03*
X719180D02*
D03*
Y-233000D02*
D03*
X706480D02*
D03*
X847070Y-303120D02*
D03*
Y-320000D02*
D03*
Y-311560D02*
D03*
X780395Y-354875D02*
D03*
Y-362875D02*
D03*
X702000Y-362240D02*
D03*
X710000D02*
D03*
X657370Y-343000D02*
D03*
Y-351000D02*
D03*
Y-359440D02*
D03*
X259356Y-234356D02*
D03*
X463362Y-206187D02*
D03*
X443362Y-237187D02*
D03*
X-38938Y-249559D02*
D03*
X-219632Y-246728D02*
D03*
X-598694Y-252169D02*
D03*
X-418000Y-255000D02*
D03*
X-398000Y-224000D02*
D03*
X-352500Y-230000D02*
D03*
X-340000D02*
D03*
X-327500D02*
D03*
X-315000D02*
D03*
X-352500Y-245000D02*
D03*
Y-237500D02*
D03*
X-340000D02*
D03*
Y-245000D02*
D03*
X-327500Y-237500D02*
D03*
Y-245000D02*
D03*
X-315000Y-237500D02*
D03*
Y-245000D02*
D03*
X578284Y-327840D02*
D03*
Y-335460D02*
D03*
X578094Y-343080D02*
D03*
Y-350700D02*
D03*
X-773300Y-757500D02*
D03*
X-792350D02*
D03*
X-811400D02*
D03*
X-773300Y-732100D02*
D03*
X-792350D02*
D03*
X-811400D02*
D03*
X-773300Y-706700D02*
D03*
X-792141D02*
D03*
X-811400D02*
D03*
X-773300Y-681300D02*
D03*
X-792141D02*
D03*
X-811400D02*
D03*
X-598040Y-757500D02*
D03*
X-617090D02*
D03*
X-636140D02*
D03*
X-598040Y-732100D02*
D03*
X-617090D02*
D03*
X-636140D02*
D03*
X-598040Y-706700D02*
D03*
X-616881D02*
D03*
X-636140D02*
D03*
X-598040Y-681300D02*
D03*
X-616881D02*
D03*
X-636140D02*
D03*
X-424400Y-757010D02*
D03*
X-443450D02*
D03*
X-462500D02*
D03*
X-424400Y-731610D02*
D03*
X-443450D02*
D03*
X-462500D02*
D03*
X-424400Y-706210D02*
D03*
X-443240D02*
D03*
X-462500D02*
D03*
X-424400Y-680810D02*
D03*
X-443240D02*
D03*
X-462500D02*
D03*
X-249140Y-757010D02*
D03*
X-268190D02*
D03*
X-287240D02*
D03*
X-249140Y-731610D02*
D03*
X-268190D02*
D03*
X-287240D02*
D03*
X-249140Y-706210D02*
D03*
X-267980D02*
D03*
X-287240D02*
D03*
X-249140Y-680810D02*
D03*
X-267980D02*
D03*
X-287240D02*
D03*
X-74800Y-756230D02*
D03*
X-93850D02*
D03*
X-112900D02*
D03*
X-74800Y-730830D02*
D03*
X-93850D02*
D03*
X-112900D02*
D03*
X-74800Y-705430D02*
D03*
X-93640D02*
D03*
X-112900D02*
D03*
X-74800Y-680030D02*
D03*
X-93640D02*
D03*
X-112900D02*
D03*
X100460Y-756230D02*
D03*
X81410D02*
D03*
X62360D02*
D03*
X100460Y-730830D02*
D03*
X81410D02*
D03*
X62360D02*
D03*
X100460Y-705430D02*
D03*
X81620D02*
D03*
X62360D02*
D03*
X100460Y-680030D02*
D03*
X81620D02*
D03*
X62360D02*
D03*
X274510Y-756720D02*
D03*
X255460D02*
D03*
X236410D02*
D03*
X274510Y-731320D02*
D03*
X255460D02*
D03*
X236410D02*
D03*
X274510Y-705920D02*
D03*
X255670D02*
D03*
X236410D02*
D03*
X274510Y-680520D02*
D03*
X255670D02*
D03*
X236410D02*
D03*
X449770Y-756720D02*
D03*
X430720D02*
D03*
X411670D02*
D03*
X449770Y-731320D02*
D03*
X430720D02*
D03*
X411670D02*
D03*
X449770Y-705920D02*
D03*
X430929D02*
D03*
X411670D02*
D03*
X449770Y-680520D02*
D03*
X430929D02*
D03*
X411670D02*
D03*
X623340Y-757100D02*
D03*
X604290D02*
D03*
X585240D02*
D03*
X623340Y-731700D02*
D03*
X604290D02*
D03*
X585240D02*
D03*
X623340Y-706300D02*
D03*
X604500D02*
D03*
X585240D02*
D03*
X623340Y-680900D02*
D03*
X604500D02*
D03*
X585240D02*
D03*
X760500Y-680900D02*
D03*
X779760D02*
D03*
X798600D02*
D03*
X760500Y-706300D02*
D03*
X779760D02*
D03*
X798600D02*
D03*
X760500Y-731700D02*
D03*
X779550D02*
D03*
X798600D02*
D03*
X760500Y-757100D02*
D03*
X779550D02*
D03*
X798600D02*
D03*
X789920Y-302604D02*
D03*
X806884Y-328602D02*
D03*
X806630Y-335206D02*
D03*
X806376Y-341810D02*
D03*
X806630Y-348414D02*
D03*
X106356Y-311890D02*
D03*
X115750Y-321490D02*
D03*
X115496Y-329364D02*
D03*
Y-336476D02*
D03*
Y-343588D02*
D03*
X-744544Y-325860D02*
D03*
X-734642Y-340286D02*
D03*
X-734896Y-334444D02*
D03*
X-730226Y-328250D02*
D03*
X-722606D02*
D03*
X-257630Y-336984D02*
D03*
X-255246Y-328250D02*
D03*
X-248134Y-327488D02*
D03*
X-277770Y-316364D02*
D03*
X-586922Y-220761D02*
D03*
X-271180Y-547150D02*
D03*
X78419Y-546371D02*
D03*
X107020Y-543220D02*
D03*
X740930Y-216720D02*
D03*
X618380Y-218030D02*
D03*
X454200Y-217070D02*
D03*
X474960Y-311720D02*
D03*
X343680Y-478630D02*
D03*
X229380D02*
D03*
X-123680Y-488790D02*
D03*
X-96841Y-546370D02*
D03*
X66490Y-261800D02*
D03*
X46060Y-301921D02*
D03*
X-36210Y-234520D02*
D03*
X-406582Y-237511D02*
D03*
X-613220Y-484470D02*
D03*
X-620080Y-547640D02*
D03*
X-461240Y-246560D02*
D03*
X-82780Y-236400D02*
D03*
X402360Y-221160D02*
D03*
X-469764Y-246560D02*
D03*
X-88807Y-230373D02*
D03*
X396333Y-215133D02*
D03*
X732560Y-246560D02*
D03*
X610640Y-240060D02*
D03*
X392200Y-254180D02*
D03*
X386173Y-248153D02*
D03*
X285520Y-586920D02*
D03*
Y-503100D02*
D03*
X404900Y-345620D02*
D03*
X371250Y-268790D02*
D03*
X458240Y-589460D02*
D03*
X377750Y-275290D02*
D03*
X496340Y-353240D02*
D03*
X398227Y-283713D02*
D03*
X496340Y-361764D02*
D03*
X392200Y-289740D02*
D03*
X544595Y-398955D02*
D03*
X536980Y-393880D02*
D03*
X404900Y-312600D02*
D03*
X412062Y-307978D02*
D03*
X773372Y-401500D02*
D03*
X764848D02*
D03*
X756324D02*
D03*
X747800D02*
D03*
X481615Y-254173D02*
D03*
X488720Y-261278D02*
D03*
X481615Y-268383D02*
D03*
X488720Y-275488D02*
D03*
X343940Y-424360D02*
D03*
X329184Y-423876D02*
D03*
X299813Y-286253D02*
D03*
X305840Y-292280D02*
D03*
X214400Y-424360D02*
D03*
X229640D02*
D03*
X293140Y-274500D02*
D03*
X287113Y-268473D02*
D03*
X8660Y-536120D02*
D03*
X-49760Y-503100D02*
D03*
X-65000Y-584380D02*
D03*
X-59920Y-505640D02*
D03*
X57459Y-400553D02*
D03*
X-15745Y-297875D02*
D03*
X51432Y-406580D02*
D03*
X-22850Y-304980D02*
D03*
X44327Y-399475D02*
D03*
X-29955Y-299900D02*
D03*
X37222Y-406580D02*
D03*
X-37060Y-304980D02*
D03*
X-123420Y-434520D02*
D03*
X-138660Y-429440D02*
D03*
X-151360Y-300868D02*
D03*
Y-310060D02*
D03*
X-240260Y-586920D02*
D03*
X-166600Y-307520D02*
D03*
X-418060Y-589460D02*
D03*
X-166600Y-297360D02*
D03*
X-339208Y-406804D02*
D03*
X-186808Y-277264D02*
D03*
X-339208Y-416852D02*
D03*
X-186808Y-287312D02*
D03*
X-329160Y-416852D02*
D03*
X-176760Y-287312D02*
D03*
X-334240Y-424360D02*
D03*
X-176760Y-297360D02*
D03*
X-537440Y-431980D02*
D03*
X-590780Y-589460D02*
D03*
X-766040D02*
D03*
X-689840Y-528500D02*
D03*
X-700000Y-536120D02*
D03*
X-633960Y-468444D02*
D03*
X-809220Y-541200D02*
D03*
X-633960Y-459920D02*
D03*
X-553627Y-288793D02*
D03*
X-547600Y-294820D02*
D03*
X-598400Y-300012D02*
D03*
Y-310060D02*
D03*
X-608448Y-300012D02*
D03*
Y-289964D02*
D03*
X-802088Y-416740D02*
D03*
X-794983Y-409635D02*
D03*
X-787878Y-416740D02*
D03*
X-776200Y-414200D02*
D03*
X-157060Y-215320D02*
D03*
X-182460D02*
D03*
X-207860D02*
D03*
X325240Y-203036D02*
D03*
X299840Y-202948D02*
D03*
X272440Y-202548D02*
D03*
X-561522Y-220761D02*
D03*
X-536122D02*
D03*
X-577500Y-45000D02*
D03*
D41*
X-728640Y-391850D02*
D03*
X-502560Y-796980D02*
D03*
Y-784280D02*
D03*
X-718480Y-620450D02*
D03*
Y-601400D02*
D03*
X-539410Y-620450D02*
D03*
Y-601400D02*
D03*
X-795340Y-480750D02*
D03*
X-153660Y-796490D02*
D03*
Y-783790D02*
D03*
X-369580Y-619960D02*
D03*
Y-600910D02*
D03*
X-190510Y-619960D02*
D03*
Y-600910D02*
D03*
X-319070Y-480750D02*
D03*
X-252370Y-391850D02*
D03*
X195940Y-795710D02*
D03*
Y-783010D02*
D03*
X-19980Y-600130D02*
D03*
Y-619180D02*
D03*
X159090Y-619180D02*
D03*
Y-600130D02*
D03*
X55560Y-466780D02*
D03*
X122260Y-377880D02*
D03*
X545250Y-796200D02*
D03*
Y-783500D02*
D03*
X329330Y-619670D02*
D03*
Y-600620D02*
D03*
X508400Y-619670D02*
D03*
Y-600620D02*
D03*
X519170Y-467270D02*
D03*
X585870Y-378370D02*
D03*
X678160Y-620050D02*
D03*
Y-601000D02*
D03*
X857230Y-620050D02*
D03*
Y-601000D02*
D03*
X894080Y-783880D02*
D03*
Y-796580D02*
D03*
X748620Y-467650D02*
D03*
X815320Y-378750D02*
D03*
D42*
X318340Y-406040D02*
D03*
Y-394040D02*
D03*
Y-382040D02*
D03*
Y-370040D02*
D03*
X330340Y-406040D02*
D03*
Y-394040D02*
D03*
Y-382040D02*
D03*
Y-370040D02*
D03*
X342340Y-406040D02*
D03*
Y-394040D02*
D03*
Y-382040D02*
D03*
Y-370040D02*
D03*
X354340Y-406040D02*
D03*
Y-394040D02*
D03*
Y-382040D02*
D03*
Y-370040D02*
D03*
X366340Y-406040D02*
D03*
Y-394040D02*
D03*
Y-382040D02*
D03*
Y-370040D02*
D03*
X378340Y-406040D02*
D03*
Y-394040D02*
D03*
Y-382040D02*
D03*
Y-370040D02*
D03*
X204040Y-406040D02*
D03*
Y-394040D02*
D03*
Y-382040D02*
D03*
Y-370040D02*
D03*
X216040Y-406040D02*
D03*
Y-394040D02*
D03*
Y-382040D02*
D03*
Y-370040D02*
D03*
X228040Y-406040D02*
D03*
Y-394040D02*
D03*
Y-382040D02*
D03*
Y-370040D02*
D03*
X240040Y-406040D02*
D03*
Y-394040D02*
D03*
Y-382040D02*
D03*
Y-370040D02*
D03*
X252040Y-406040D02*
D03*
Y-394040D02*
D03*
Y-382040D02*
D03*
Y-370040D02*
D03*
X264040Y-406040D02*
D03*
Y-394040D02*
D03*
Y-382040D02*
D03*
Y-370040D02*
D03*
X-149020Y-380200D02*
D03*
X-137020D02*
D03*
X-125020D02*
D03*
X-149020Y-392200D02*
D03*
X-137020D02*
D03*
X-149020Y-404200D02*
D03*
X-137020D02*
D03*
X-125020Y-392200D02*
D03*
Y-404200D02*
D03*
X-113020Y-380200D02*
D03*
Y-404200D02*
D03*
Y-392200D02*
D03*
X-101020Y-380200D02*
D03*
X-89020D02*
D03*
X-101020Y-392200D02*
D03*
X-89020D02*
D03*
X-125020Y-416200D02*
D03*
X-113020D02*
D03*
X-149020D02*
D03*
X-137020D02*
D03*
X-101020Y-404200D02*
D03*
X-89020Y-416200D02*
D03*
Y-404200D02*
D03*
X-101020Y-416200D02*
D03*
X-591240Y-389660D02*
D03*
X-639240Y-413660D02*
D03*
Y-401660D02*
D03*
Y-389660D02*
D03*
Y-377660D02*
D03*
X-627240Y-413660D02*
D03*
Y-401660D02*
D03*
Y-389660D02*
D03*
Y-377660D02*
D03*
X-615240Y-413660D02*
D03*
Y-401660D02*
D03*
Y-389660D02*
D03*
Y-377660D02*
D03*
X-603240Y-413660D02*
D03*
Y-401660D02*
D03*
Y-389660D02*
D03*
Y-377660D02*
D03*
X-591240Y-413660D02*
D03*
Y-401660D02*
D03*
Y-377660D02*
D03*
X-579240Y-413660D02*
D03*
Y-401660D02*
D03*
Y-389660D02*
D03*
Y-377660D02*
D03*
M02*
