%FSLAX44Y44*%
%MOMM*%
G71*
G01*
G75*
G04 Layer_Physical_Order=2*
G04 Layer_Color=128*
%ADD10R,1.2000X1.3500*%
%ADD11R,1.4000X2.0000*%
%ADD12R,1.3500X1.2000*%
%ADD13R,2.0000X1.4000*%
%ADD14R,0.7000X0.8000*%
%ADD15R,0.8000X0.7000*%
%ADD16R,2.8000X1.3500*%
%ADD17R,1.3000X0.8000*%
%ADD18R,5.3500X8.5400*%
%ADD19R,0.8900X3.0600*%
%ADD20O,0.3500X2.2000*%
%ADD21O,0.3500X1.5500*%
%ADD22R,1.3500X2.8000*%
%ADD23O,0.6000X2.2000*%
%ADD24O,2.1000X0.4500*%
%ADD25O,0.6000X1.8000*%
%ADD26R,7.4000X5.0000*%
%ADD27C,1.0160*%
%ADD28C,0.1524*%
%ADD29C,0.7620*%
%ADD30C,0.2540*%
%ADD31C,0.5080*%
%ADD32C,0.6350*%
%ADD33C,0.2032*%
%ADD34C,0.3048*%
%ADD35R,177.7702X1.3208*%
%ADD36C,2.0000*%
G04:AMPARAMS|DCode=37|XSize=2mm|YSize=2mm|CornerRadius=0.5mm|HoleSize=0mm|Usage=FLASHONLY|Rotation=180.000|XOffset=0mm|YOffset=0mm|HoleType=Round|Shape=RoundedRectangle|*
%AMROUNDEDRECTD37*
21,1,2.0000,1.0000,0,0,180.0*
21,1,1.0000,2.0000,0,0,180.0*
1,1,1.0000,-0.5000,0.5000*
1,1,1.0000,0.5000,0.5000*
1,1,1.0000,0.5000,-0.5000*
1,1,1.0000,-0.5000,-0.5000*
%
%ADD37ROUNDEDRECTD37*%
%ADD38C,7.0000*%
%ADD39C,6.0000*%
%ADD40C,0.7000*%
%ADD41C,1.2700*%
%ADD42C,0.6600*%
%ADD43C,2.0160*%
%ADD44C,3.4160*%
%ADD45C,4.5160*%
%ADD46C,4.1160*%
G04:AMPARAMS|DCode=47|XSize=1.824mm|YSize=1.824mm|CornerRadius=0mm|HoleSize=0mm|Usage=FLASHONLY|Rotation=0.000|XOffset=0mm|YOffset=0mm|HoleType=Round|Shape=Relief|Width=0.254mm|Gap=0.254mm|Entries=4|*
%AMTHD47*
7,0,0,1.8240,1.3160,0.2540,45*
%
%ADD47THD47*%
%ADD48C,1.3160*%
%ADD49C,1.7272*%
%ADD50C,1.3460*%
D27*
X-960131Y-880000D02*
G03*
X-880003Y-960131I80131J0D01*
G01*
D02*
G03*
X-880000Y-960131I3J131D01*
G01*
X880000D02*
G03*
X960131Y-880000I0J80131D01*
G01*
D02*
G03*
X960131Y-879997I-131J0D01*
G01*
Y9000D02*
G03*
X960000Y9131I-131J0D01*
G01*
X-960000D02*
G03*
X-960131Y9000I0J-131D01*
G01*
Y-879997D02*
G03*
X-960131Y-880000I131J-3D01*
G01*
X-880000Y-960131D02*
X880000D01*
X960131Y-879997D02*
X960131Y-880000D01*
X960131Y-880000D02*
X960131Y-880000D01*
X960131Y-880000D02*
Y9000D01*
X-960000Y9131D02*
X960000D01*
X-960131Y-879997D02*
Y9000D01*
D43*
X-685500Y-76900D02*
D03*
X-715500D02*
D03*
X-655500D02*
D03*
X-625500D02*
D03*
Y-46900D02*
D03*
X-655500D02*
D03*
X-715500D02*
D03*
X-685500D02*
D03*
X-475000Y-76900D02*
D03*
X-505000D02*
D03*
X-445000D02*
D03*
X-415000D02*
D03*
Y-46900D02*
D03*
X-445000D02*
D03*
X-505000D02*
D03*
X-475000D02*
D03*
X-270000Y-76900D02*
D03*
X-300000D02*
D03*
X-240000D02*
D03*
X-210000D02*
D03*
Y-46900D02*
D03*
X-240000D02*
D03*
X-300000D02*
D03*
X-270000D02*
D03*
D44*
X-640500Y-16400D02*
D03*
X-700500D02*
D03*
X-430000D02*
D03*
X-490000D02*
D03*
X-225000D02*
D03*
X-285000D02*
D03*
D45*
X870000Y-870000D02*
D03*
X-870000D02*
D03*
X0D02*
D03*
X-0Y-74000D02*
D03*
D46*
X-870000D02*
D03*
X870000D02*
D03*
D47*
X-80500Y-87500D02*
D03*
X-9000Y-208000D02*
D03*
X-85500Y-82500D02*
D03*
X706480Y-241000D02*
D03*
X719180D02*
D03*
Y-233000D02*
D03*
X706480D02*
D03*
X847070Y-303120D02*
D03*
Y-320000D02*
D03*
Y-311560D02*
D03*
X780395Y-354875D02*
D03*
Y-362875D02*
D03*
X702000Y-362240D02*
D03*
X710000D02*
D03*
X657370Y-343000D02*
D03*
Y-351000D02*
D03*
Y-359440D02*
D03*
X259356Y-234356D02*
D03*
X463362Y-206187D02*
D03*
X443362Y-237187D02*
D03*
X-38938Y-249559D02*
D03*
X-219632Y-246728D02*
D03*
X-598694Y-252169D02*
D03*
X-418000Y-255000D02*
D03*
X-398000Y-224000D02*
D03*
D48*
X62027Y-222027D02*
D03*
X56000Y-216000D02*
D03*
X-488000Y-167000D02*
D03*
X-272000Y-129000D02*
D03*
X-182500Y-173000D02*
D03*
X-185000Y-122500D02*
D03*
X-185000Y-95000D02*
D03*
Y-75000D02*
D03*
Y-35000D02*
D03*
X-52500Y-165000D02*
D03*
X-45000D02*
D03*
X-227500Y-160000D02*
D03*
X-220000D02*
D03*
X-467500Y-105000D02*
D03*
X-535000Y-125000D02*
D03*
X-527500D02*
D03*
X-389999Y-87500D02*
D03*
X-335000Y-90000D02*
D03*
X-609500Y-117500D02*
D03*
X-644500D02*
D03*
X-749500D02*
D03*
X-714500D02*
D03*
X-679500D02*
D03*
X-462500Y-100000D02*
D03*
X-461240Y-205000D02*
D03*
X-469764D02*
D03*
X-589999Y-174999D02*
D03*
Y-167500D02*
D03*
X-625000Y-202500D02*
D03*
Y-210000D02*
D03*
X-730000Y-215000D02*
D03*
Y-207500D02*
D03*
Y-200000D02*
D03*
X-352500Y-230000D02*
D03*
X-340000D02*
D03*
X-327500D02*
D03*
X-315000D02*
D03*
X-352500Y-245000D02*
D03*
Y-237500D02*
D03*
X-340000D02*
D03*
Y-245000D02*
D03*
X-327500Y-237500D02*
D03*
Y-245000D02*
D03*
X-315000Y-237500D02*
D03*
Y-245000D02*
D03*
X578284Y-327840D02*
D03*
Y-335460D02*
D03*
X578094Y-343080D02*
D03*
Y-350700D02*
D03*
X-773300Y-757500D02*
D03*
X-792350D02*
D03*
X-811400D02*
D03*
X-773300Y-732100D02*
D03*
X-792350D02*
D03*
X-811400D02*
D03*
X-773300Y-706700D02*
D03*
X-792141D02*
D03*
X-811400D02*
D03*
X-773300Y-681300D02*
D03*
X-792141D02*
D03*
X-811400D02*
D03*
X-598040Y-757500D02*
D03*
X-617090D02*
D03*
X-636140D02*
D03*
X-598040Y-732100D02*
D03*
X-617090D02*
D03*
X-636140D02*
D03*
X-598040Y-706700D02*
D03*
X-616881D02*
D03*
X-636140D02*
D03*
X-598040Y-681300D02*
D03*
X-616881D02*
D03*
X-636140D02*
D03*
X-424400Y-757010D02*
D03*
X-443450D02*
D03*
X-462500D02*
D03*
X-424400Y-731610D02*
D03*
X-443450D02*
D03*
X-462500D02*
D03*
X-424400Y-706210D02*
D03*
X-443240D02*
D03*
X-462500D02*
D03*
X-424400Y-680810D02*
D03*
X-443240D02*
D03*
X-462500D02*
D03*
X-249140Y-757010D02*
D03*
X-268190D02*
D03*
X-287240D02*
D03*
X-249140Y-731610D02*
D03*
X-268190D02*
D03*
X-287240D02*
D03*
X-249140Y-706210D02*
D03*
X-267980D02*
D03*
X-287240D02*
D03*
X-249140Y-680810D02*
D03*
X-267980D02*
D03*
X-287240D02*
D03*
X-74800Y-756230D02*
D03*
X-93850D02*
D03*
X-112900D02*
D03*
X-74800Y-730830D02*
D03*
X-93850D02*
D03*
X-112900D02*
D03*
X-74800Y-705430D02*
D03*
X-93640D02*
D03*
X-112900D02*
D03*
X-74800Y-680030D02*
D03*
X-93640D02*
D03*
X-112900D02*
D03*
X100460Y-756230D02*
D03*
X81410D02*
D03*
X62360D02*
D03*
X100460Y-730830D02*
D03*
X81410D02*
D03*
X62360D02*
D03*
X100460Y-705430D02*
D03*
X81620D02*
D03*
X62360D02*
D03*
X100460Y-680030D02*
D03*
X81620D02*
D03*
X62360D02*
D03*
X274510Y-756720D02*
D03*
X255460D02*
D03*
X236410D02*
D03*
X274510Y-731320D02*
D03*
X255460D02*
D03*
X236410D02*
D03*
X274510Y-705920D02*
D03*
X255670D02*
D03*
X236410D02*
D03*
X274510Y-680520D02*
D03*
X255670D02*
D03*
X236410D02*
D03*
X449770Y-756720D02*
D03*
X430720D02*
D03*
X411670D02*
D03*
X449770Y-731320D02*
D03*
X430720D02*
D03*
X411670D02*
D03*
X449770Y-705920D02*
D03*
X430929D02*
D03*
X411670D02*
D03*
X449770Y-680520D02*
D03*
X430929D02*
D03*
X411670D02*
D03*
X623340Y-757100D02*
D03*
X604290D02*
D03*
X585240D02*
D03*
X623340Y-731700D02*
D03*
X604290D02*
D03*
X585240D02*
D03*
X623340Y-706300D02*
D03*
X604500D02*
D03*
X585240D02*
D03*
X623340Y-680900D02*
D03*
X604500D02*
D03*
X585240D02*
D03*
X760500Y-680900D02*
D03*
X779760D02*
D03*
X798600D02*
D03*
X760500Y-706300D02*
D03*
X779760D02*
D03*
X798600D02*
D03*
X760500Y-731700D02*
D03*
X779550D02*
D03*
X798600D02*
D03*
X760500Y-757100D02*
D03*
X779550D02*
D03*
X798600D02*
D03*
X789920Y-302604D02*
D03*
X806884Y-328602D02*
D03*
X806630Y-335206D02*
D03*
X806376Y-341810D02*
D03*
X806630Y-348414D02*
D03*
X106356Y-311890D02*
D03*
X115750Y-321490D02*
D03*
X115496Y-329364D02*
D03*
Y-336476D02*
D03*
Y-343588D02*
D03*
X-744544Y-325860D02*
D03*
X-734642Y-340286D02*
D03*
X-734896Y-334444D02*
D03*
X-730226Y-328250D02*
D03*
X-722606D02*
D03*
X-257630Y-336984D02*
D03*
X-255246Y-328250D02*
D03*
X-248134Y-327488D02*
D03*
X-277770Y-316364D02*
D03*
X-586922Y-220761D02*
D03*
X-271180Y-547150D02*
D03*
X78419Y-546371D02*
D03*
X107020Y-543220D02*
D03*
X740930Y-216720D02*
D03*
X618380Y-218030D02*
D03*
X454200Y-217070D02*
D03*
X474960Y-311720D02*
D03*
X343680Y-478630D02*
D03*
X229380D02*
D03*
X-123680Y-488790D02*
D03*
X-96841Y-546370D02*
D03*
X66490Y-261800D02*
D03*
X46060Y-301921D02*
D03*
X-36210Y-234520D02*
D03*
X-406582Y-237511D02*
D03*
X-613220Y-484470D02*
D03*
X-620080Y-547640D02*
D03*
X-461240Y-246560D02*
D03*
X-82780Y-236400D02*
D03*
X402360Y-221160D02*
D03*
X-469764Y-246560D02*
D03*
X-88807Y-230373D02*
D03*
X396333Y-215133D02*
D03*
X732560Y-246560D02*
D03*
X610640Y-240060D02*
D03*
X392200Y-254180D02*
D03*
X386173Y-248153D02*
D03*
X285520Y-586920D02*
D03*
Y-503100D02*
D03*
X404900Y-345620D02*
D03*
X371250Y-268790D02*
D03*
X458240Y-589460D02*
D03*
X377750Y-275290D02*
D03*
X496340Y-353240D02*
D03*
X398227Y-283713D02*
D03*
X496340Y-361764D02*
D03*
X392200Y-289740D02*
D03*
X544595Y-398955D02*
D03*
X536980Y-393880D02*
D03*
X404900Y-312600D02*
D03*
X412062Y-307978D02*
D03*
X773372Y-401500D02*
D03*
X764848D02*
D03*
X756324D02*
D03*
X747800D02*
D03*
X481615Y-254173D02*
D03*
X488720Y-261278D02*
D03*
X481615Y-268383D02*
D03*
X488720Y-275488D02*
D03*
X343940Y-424360D02*
D03*
X329184Y-423876D02*
D03*
X299813Y-286253D02*
D03*
X305840Y-292280D02*
D03*
X214400Y-424360D02*
D03*
X229640D02*
D03*
X293140Y-274500D02*
D03*
X287113Y-268473D02*
D03*
X8660Y-536120D02*
D03*
X-49760Y-503100D02*
D03*
X-65000Y-584380D02*
D03*
X-59920Y-505640D02*
D03*
X57459Y-400553D02*
D03*
X-15745Y-297875D02*
D03*
X51432Y-406580D02*
D03*
X-22850Y-304980D02*
D03*
X44327Y-399475D02*
D03*
X-29955Y-299900D02*
D03*
X37222Y-406580D02*
D03*
X-37060Y-304980D02*
D03*
X-123420Y-434520D02*
D03*
X-138660Y-429440D02*
D03*
X-151360Y-300868D02*
D03*
Y-310060D02*
D03*
X-240260Y-586920D02*
D03*
X-166600Y-307520D02*
D03*
X-418060Y-589460D02*
D03*
X-166600Y-297360D02*
D03*
X-339208Y-406804D02*
D03*
X-186808Y-277264D02*
D03*
X-339208Y-416852D02*
D03*
X-186808Y-287312D02*
D03*
X-329160Y-416852D02*
D03*
X-176760Y-287312D02*
D03*
X-334240Y-424360D02*
D03*
X-176760Y-297360D02*
D03*
X-537440Y-431980D02*
D03*
X-590780Y-589460D02*
D03*
X-766040D02*
D03*
X-689840Y-528500D02*
D03*
X-700000Y-536120D02*
D03*
X-633960Y-468444D02*
D03*
X-809220Y-541200D02*
D03*
X-633960Y-459920D02*
D03*
X-553627Y-288793D02*
D03*
X-547600Y-294820D02*
D03*
X-598400Y-300012D02*
D03*
Y-310060D02*
D03*
X-608448Y-300012D02*
D03*
Y-289964D02*
D03*
X-802088Y-416740D02*
D03*
X-794983Y-409635D02*
D03*
X-787878Y-416740D02*
D03*
X-776200Y-414200D02*
D03*
X-157060Y-215320D02*
D03*
X-182460D02*
D03*
X-207860D02*
D03*
X325240Y-203036D02*
D03*
X299840Y-202948D02*
D03*
X272440Y-202548D02*
D03*
X-561522Y-220761D02*
D03*
X-536122D02*
D03*
X-577500Y-45000D02*
D03*
D49*
X-728640Y-391850D02*
D03*
X-502560Y-796980D02*
D03*
Y-784280D02*
D03*
X-718480Y-620450D02*
D03*
Y-601400D02*
D03*
X-539410Y-620450D02*
D03*
Y-601400D02*
D03*
X-795340Y-480750D02*
D03*
X-153660Y-796490D02*
D03*
Y-783790D02*
D03*
X-369580Y-619960D02*
D03*
Y-600910D02*
D03*
X-190510Y-619960D02*
D03*
Y-600910D02*
D03*
X-319070Y-480750D02*
D03*
X-252370Y-391850D02*
D03*
X195940Y-795710D02*
D03*
Y-783010D02*
D03*
X-19980Y-600130D02*
D03*
Y-619180D02*
D03*
X159090Y-619180D02*
D03*
Y-600130D02*
D03*
X55560Y-466780D02*
D03*
X122260Y-377880D02*
D03*
X545250Y-796200D02*
D03*
Y-783500D02*
D03*
X329330Y-619670D02*
D03*
Y-600620D02*
D03*
X508400Y-619670D02*
D03*
Y-600620D02*
D03*
X519170Y-467270D02*
D03*
X585870Y-378370D02*
D03*
X678160Y-620050D02*
D03*
Y-601000D02*
D03*
X857230Y-620050D02*
D03*
Y-601000D02*
D03*
X894080Y-783880D02*
D03*
Y-796580D02*
D03*
X748620Y-467650D02*
D03*
X815320Y-378750D02*
D03*
D50*
X318340Y-406040D02*
D03*
Y-394040D02*
D03*
Y-382040D02*
D03*
Y-370040D02*
D03*
X330340Y-406040D02*
D03*
Y-394040D02*
D03*
Y-382040D02*
D03*
Y-370040D02*
D03*
X342340Y-406040D02*
D03*
Y-394040D02*
D03*
Y-382040D02*
D03*
Y-370040D02*
D03*
X354340Y-406040D02*
D03*
Y-394040D02*
D03*
Y-382040D02*
D03*
Y-370040D02*
D03*
X366340Y-406040D02*
D03*
Y-394040D02*
D03*
Y-382040D02*
D03*
Y-370040D02*
D03*
X378340Y-406040D02*
D03*
Y-394040D02*
D03*
Y-382040D02*
D03*
Y-370040D02*
D03*
X204040Y-406040D02*
D03*
Y-394040D02*
D03*
Y-382040D02*
D03*
Y-370040D02*
D03*
X216040Y-406040D02*
D03*
Y-394040D02*
D03*
Y-382040D02*
D03*
Y-370040D02*
D03*
X228040Y-406040D02*
D03*
Y-394040D02*
D03*
Y-382040D02*
D03*
Y-370040D02*
D03*
X240040Y-406040D02*
D03*
Y-394040D02*
D03*
Y-382040D02*
D03*
Y-370040D02*
D03*
X252040Y-406040D02*
D03*
Y-394040D02*
D03*
Y-382040D02*
D03*
Y-370040D02*
D03*
X264040Y-406040D02*
D03*
Y-394040D02*
D03*
Y-382040D02*
D03*
Y-370040D02*
D03*
X-149020Y-380200D02*
D03*
X-137020D02*
D03*
X-125020D02*
D03*
X-149020Y-392200D02*
D03*
X-137020D02*
D03*
X-149020Y-404200D02*
D03*
X-137020D02*
D03*
X-125020Y-392200D02*
D03*
Y-404200D02*
D03*
X-113020Y-380200D02*
D03*
Y-404200D02*
D03*
Y-392200D02*
D03*
X-101020Y-380200D02*
D03*
X-89020D02*
D03*
X-101020Y-392200D02*
D03*
X-89020D02*
D03*
X-125020Y-416200D02*
D03*
X-113020D02*
D03*
X-149020D02*
D03*
X-137020D02*
D03*
X-101020Y-404200D02*
D03*
X-89020Y-416200D02*
D03*
Y-404200D02*
D03*
X-101020Y-416200D02*
D03*
X-591240Y-389660D02*
D03*
X-639240Y-413660D02*
D03*
Y-401660D02*
D03*
Y-389660D02*
D03*
Y-377660D02*
D03*
X-627240Y-413660D02*
D03*
Y-401660D02*
D03*
Y-389660D02*
D03*
Y-377660D02*
D03*
X-615240Y-413660D02*
D03*
Y-401660D02*
D03*
Y-389660D02*
D03*
Y-377660D02*
D03*
X-603240Y-413660D02*
D03*
Y-401660D02*
D03*
Y-389660D02*
D03*
Y-377660D02*
D03*
X-591240Y-413660D02*
D03*
Y-401660D02*
D03*
Y-377660D02*
D03*
X-579240Y-413660D02*
D03*
Y-401660D02*
D03*
Y-389660D02*
D03*
Y-377660D02*
D03*
M02*
