M48
;Layer_Color=9474304
;FILE_FORMAT=2:5
INCH,LZ
;TYPE=PLATED
T1F00S00C0.01181
T2F00S00C0.03543
T3F00S00C0.05118
T4F00S00C0.06496
T5F00S00C0.11811
%
T01
X0035Y-0115
X0045
X0015Y-007
Y-0045
X0005
X-0005
X-0015
X-0003937Y-0003937
X0
X0003937
Y0
Y0003937
X0
X-0003937
Y0
X0Y-0
X-0025Y0
Y001
X-0012146Y0028878
X005Y003
Y002
Y0
Y-001
Y-0018
X007Y-004
X009Y-006
X-0085Y-005
X-0095Y-003
X-0085Y-001
Y0
Y001
X-0045
Y0
Y-001
X-003Y0045
X-0017854Y0041201
X0Y0045
X001
X002
X-001Y0075
X-002
T02
X-004Y-011
Y-01
X-003
X-002
X-001
X0
X001
Y-011
X0
X-001
X-002
X-003
X-005
Y-01
X-006
Y-011
T03
X-0106457Y-0098425
X-0086457
T04
X0115Y-003
X0125Y-004
Y-002
X0105
Y-004
T05
X0127953Y-0108268
X-0127953
Y007874
X0127953
M30
