%FSLAX44Y44*%
%MOMM*%
G71*
G01*
G75*
G04 Layer_Physical_Order=1*
G04 Layer_Color=255*
%ADD10O,2.1000X0.4500*%
%ADD11R,1.2000X1.3500*%
%ADD12R,0.8000X0.7000*%
%ADD13R,1.3500X1.2000*%
%ADD14R,0.7000X0.8000*%
%ADD15R,1.3000X0.8000*%
%ADD16R,2.8000X1.3500*%
%ADD17O,0.6000X1.8000*%
%ADD18R,7.4000X5.0000*%
%ADD19R,5.3500X8.5400*%
%ADD20R,0.8900X3.0600*%
%ADD21O,0.3500X1.5500*%
%ADD22R,1.3500X2.8000*%
%ADD23O,0.3500X2.2000*%
%ADD24O,0.6000X2.2000*%
%ADD25C,0.1524*%
%ADD26C,0.2540*%
%ADD27C,0.7620*%
%ADD28C,0.5080*%
%ADD29C,1.0160*%
%ADD30C,0.2032*%
%ADD31C,0.3048*%
%ADD32R,177.7702X1.3208*%
%ADD33C,0.1000*%
%ADD34R,2.5400X2.5400*%
%ADD35C,2.5400*%
%ADD36R,1.5000X1.5000*%
%ADD37C,1.5000*%
%ADD38R,2.5400X2.5400*%
%ADD39C,7.0000*%
%ADD40C,0.7000*%
%ADD41C,0.6600*%
%ADD42C,1.2700*%
G36*
X1572040Y932484D02*
X1569976D01*
Y901436D01*
X1572040D01*
Y893484D01*
X1571476D01*
Y876936D01*
X1572040D01*
Y868084D01*
X1571476D01*
Y851536D01*
X1572040D01*
Y849650D01*
X1602520D01*
X1615220Y836950D01*
X1617760D01*
Y835334D01*
X1616866Y835334D01*
D01*
X1616114D01*
Y835334D01*
X1611410D01*
Y818510D01*
Y801686D01*
X1613857D01*
X1614343Y800513D01*
X1610140Y796310D01*
Y745159D01*
X1605714D01*
Y749834D01*
X1589166D01*
Y734786D01*
X1605714D01*
Y739461D01*
X1610140D01*
Y704870D01*
X1572950D01*
X1572064Y705780D01*
X1572121Y707958D01*
X1572729Y708749D01*
X1573394Y710356D01*
X1573621Y712080D01*
X1573621Y712080D01*
Y730765D01*
X1573690Y730930D01*
Y762187D01*
X1574580Y762968D01*
X1576635Y763239D01*
X1578551Y764032D01*
X1580196Y765294D01*
X1581458Y766939D01*
X1582251Y768855D01*
X1582522Y770910D01*
X1582251Y772965D01*
X1581458Y774881D01*
X1580196Y776526D01*
X1578724Y777655D01*
Y783215D01*
X1580196Y784344D01*
X1581458Y785989D01*
X1582251Y787905D01*
X1582522Y789960D01*
X1582251Y792016D01*
X1581458Y793931D01*
X1580196Y795576D01*
X1578724Y796706D01*
Y804686D01*
X1582854D01*
Y819734D01*
X1566306D01*
Y816404D01*
X1565132Y815918D01*
X1559340Y821710D01*
X1531400Y849650D01*
Y936010D01*
X1572040D01*
Y932484D01*
D02*
G37*
G36*
X1872680Y792380D02*
X1914829D01*
X1915667Y791425D01*
X1915538Y790450D01*
X1915809Y788395D01*
X1916602Y786479D01*
X1917864Y784835D01*
X1919337Y783705D01*
Y778146D01*
X1917864Y777016D01*
X1916602Y775371D01*
X1915809Y773456D01*
X1915538Y771400D01*
X1915809Y769345D01*
X1916602Y767429D01*
X1917864Y765784D01*
X1919509Y764522D01*
X1920940Y763930D01*
Y731420D01*
X1851604D01*
Y735224D01*
X1846929D01*
Y744076D01*
X1851604D01*
Y755846D01*
X1859455Y763696D01*
X1860072Y764620D01*
X1860289Y765710D01*
X1860289Y765711D01*
Y786640D01*
X1860289Y786640D01*
X1860072Y787730D01*
X1859455Y788654D01*
X1859454Y788655D01*
X1850129Y797980D01*
Y802176D01*
X1853254D01*
Y802176D01*
X1853254D01*
X1853254Y802176D01*
X1854006D01*
Y802176D01*
X1858710D01*
Y819000D01*
X1859980D01*
Y820270D01*
X1865954D01*
Y830480D01*
X1872680D01*
Y792380D01*
D02*
G37*
G36*
X873130Y932194D02*
X871066D01*
Y901146D01*
X873130D01*
Y893194D01*
X872566D01*
Y876646D01*
X873130D01*
Y867794D01*
X872566D01*
Y851246D01*
X873130D01*
Y849360D01*
X903610D01*
X916310Y836660D01*
X918850D01*
Y835044D01*
X917956Y835044D01*
D01*
X917204D01*
Y835044D01*
X912500D01*
Y818220D01*
Y801396D01*
X914947D01*
X915433Y800223D01*
X911230Y796020D01*
Y744869D01*
X906804D01*
Y749544D01*
X890256D01*
Y734496D01*
X906804D01*
Y739171D01*
X911230D01*
Y704580D01*
X874711D01*
Y730475D01*
X874780Y730640D01*
Y761897D01*
X875670Y762678D01*
X877726Y762949D01*
X879641Y763742D01*
X881286Y765004D01*
X882548Y766649D01*
X883342Y768565D01*
X883612Y770620D01*
X883342Y772676D01*
X882548Y774591D01*
X881286Y776236D01*
X879814Y777366D01*
Y782925D01*
X881286Y784054D01*
X882548Y785699D01*
X883342Y787615D01*
X883612Y789670D01*
X883342Y791726D01*
X882548Y793641D01*
X881286Y795286D01*
X879814Y796416D01*
Y804396D01*
X883944D01*
Y819444D01*
X867396D01*
Y816114D01*
X866223Y815628D01*
X860430Y821420D01*
X832490Y849360D01*
Y935720D01*
X873130D01*
Y932194D01*
D02*
G37*
G36*
X1042100Y892704D02*
X1036410D01*
Y884430D01*
Y876156D01*
X1042100D01*
Y867304D01*
X1036410D01*
Y859030D01*
Y850756D01*
X1042664D01*
Y852387D01*
X1043837Y852873D01*
X1062420Y834290D01*
X1079306D01*
Y819000D01*
X1085280D01*
Y817730D01*
X1086550D01*
Y800906D01*
X1090877D01*
X1091363Y799733D01*
X1085280Y793650D01*
Y744379D01*
X1080854D01*
Y749054D01*
X1064306D01*
Y734006D01*
X1080854D01*
Y738681D01*
X1085280D01*
Y704750D01*
X1051776D01*
X1051241Y705360D01*
X1051241Y705360D01*
Y734170D01*
X1051241Y734170D01*
X1051014Y735894D01*
X1050349Y737500D01*
X1049290Y738880D01*
X1049290Y738880D01*
X1047180Y740990D01*
Y762355D01*
X1047966Y762459D01*
X1049881Y763252D01*
X1051526Y764514D01*
X1052788Y766159D01*
X1053582Y768074D01*
X1053852Y770130D01*
X1053582Y772186D01*
X1052788Y774101D01*
X1051526Y775746D01*
X1050054Y776875D01*
Y782435D01*
X1051526Y783564D01*
X1052788Y785209D01*
X1053582Y787125D01*
X1053852Y789180D01*
X1053582Y791236D01*
X1052788Y793151D01*
X1051526Y794796D01*
X1050054Y795926D01*
Y803906D01*
X1054184D01*
Y818954D01*
X1037636D01*
Y807183D01*
X1036465Y806691D01*
X1014160Y828550D01*
Y900656D01*
X1015266D01*
Y900656D01*
X1022270D01*
Y916180D01*
X1023540D01*
Y917450D01*
X1031814D01*
Y931704D01*
X1031814D01*
Y931792D01*
X1032712Y932690D01*
X1042100D01*
Y892704D01*
D02*
G37*
G36*
X1222440Y931704D02*
X1220376D01*
Y900656D01*
X1222440D01*
Y892704D01*
X1221876D01*
Y876156D01*
X1222440D01*
Y867304D01*
X1221876D01*
Y850756D01*
X1222440D01*
Y848870D01*
X1252920D01*
X1265620Y836170D01*
X1268160D01*
Y834554D01*
X1267266Y834554D01*
D01*
X1266514D01*
Y834554D01*
X1261810D01*
Y817730D01*
Y800906D01*
X1264257D01*
X1264743Y799733D01*
X1260540Y795530D01*
Y744379D01*
X1256114D01*
Y749054D01*
X1239566D01*
Y734006D01*
X1256114D01*
Y738681D01*
X1260540D01*
Y704090D01*
X1224021D01*
Y729985D01*
X1224090Y730150D01*
Y761407D01*
X1224980Y762188D01*
X1227036Y762459D01*
X1228951Y763252D01*
X1230596Y764514D01*
X1231858Y766159D01*
X1232652Y768075D01*
X1232922Y770130D01*
X1232652Y772186D01*
X1231858Y774101D01*
X1230596Y775746D01*
X1229124Y776876D01*
Y782435D01*
X1230596Y783565D01*
X1231858Y785209D01*
X1232652Y787125D01*
X1232922Y789180D01*
X1232652Y791236D01*
X1231858Y793151D01*
X1230596Y794796D01*
X1229124Y795926D01*
Y803906D01*
X1233254D01*
Y818954D01*
X1216706D01*
Y815624D01*
X1215533Y815138D01*
X1209740Y820930D01*
X1181800Y848870D01*
Y935230D01*
X1222440D01*
Y931704D01*
D02*
G37*
G36*
X476040Y791980D02*
X518189D01*
X519026Y791025D01*
X518898Y790050D01*
X519169Y787995D01*
X519962Y786079D01*
X521224Y784434D01*
X522696Y783305D01*
Y777745D01*
X521224Y776616D01*
X519962Y774971D01*
X519169Y773055D01*
X518898Y771000D01*
X519169Y768944D01*
X519962Y767029D01*
X521224Y765384D01*
X522869Y764122D01*
X524300Y763529D01*
Y731020D01*
X454964D01*
Y734824D01*
X450289D01*
Y743676D01*
X454964D01*
Y755445D01*
X462814Y763296D01*
X463432Y764220D01*
X463649Y765310D01*
X463649Y765310D01*
Y786240D01*
X463649Y786240D01*
X463432Y787330D01*
X462814Y788254D01*
X462814Y788254D01*
X453489Y797580D01*
Y801776D01*
X456614D01*
Y801776D01*
X456614D01*
X456614Y801776D01*
X457366D01*
Y801776D01*
X462070D01*
Y818600D01*
X463340D01*
Y819870D01*
X469314D01*
Y830080D01*
X476040D01*
Y791980D01*
D02*
G37*
G36*
X1920940Y932974D02*
X1918876D01*
Y901926D01*
X1920940D01*
Y893974D01*
X1920376D01*
Y877426D01*
X1920940D01*
Y868574D01*
X1920376D01*
Y852026D01*
X1920940D01*
Y850140D01*
X1951420D01*
X1964120Y837440D01*
X1966660D01*
Y835824D01*
X1965766Y835824D01*
D01*
X1965014D01*
Y835824D01*
X1960310D01*
Y819000D01*
Y802176D01*
X1962757D01*
X1963243Y801003D01*
X1959040Y796800D01*
Y745649D01*
X1954614D01*
Y750324D01*
X1938066D01*
Y735276D01*
X1954614D01*
Y739951D01*
X1959040D01*
Y705360D01*
X1922521D01*
Y731255D01*
X1922590Y731420D01*
Y762677D01*
X1923480Y763458D01*
X1925536Y763729D01*
X1927451Y764522D01*
X1929096Y765784D01*
X1930358Y767429D01*
X1931152Y769345D01*
X1931422Y771400D01*
X1931152Y773456D01*
X1930358Y775371D01*
X1929096Y777016D01*
X1927624Y778146D01*
Y783705D01*
X1929096Y784835D01*
X1930358Y786479D01*
X1931152Y788395D01*
X1931422Y790450D01*
X1931152Y792506D01*
X1930358Y794421D01*
X1929096Y796066D01*
X1927624Y797196D01*
Y805176D01*
X1931754D01*
Y820224D01*
X1915206D01*
Y816894D01*
X1914033Y816408D01*
X1908240Y822200D01*
X1880300Y850140D01*
Y936500D01*
X1920940D01*
Y932974D01*
D02*
G37*
G36*
X1174180Y791110D02*
X1216329D01*
X1217167Y790155D01*
X1217038Y789180D01*
X1217309Y787125D01*
X1218102Y785209D01*
X1219364Y783565D01*
X1220837Y782435D01*
Y776876D01*
X1219364Y775746D01*
X1218102Y774101D01*
X1217309Y772186D01*
X1217038Y770130D01*
X1217309Y768075D01*
X1218102Y766159D01*
X1219364Y764514D01*
X1221009Y763252D01*
X1222440Y762660D01*
Y730150D01*
X1153104D01*
Y733954D01*
X1148429D01*
Y742806D01*
X1153104D01*
Y754576D01*
X1160955Y762426D01*
X1161572Y763350D01*
X1161789Y764440D01*
X1161789Y764441D01*
Y785370D01*
X1161789Y785370D01*
X1161572Y786460D01*
X1160955Y787384D01*
X1160955Y787385D01*
X1151629Y796710D01*
Y800906D01*
X1154754D01*
Y800906D01*
X1154754D01*
X1154754Y800906D01*
X1155506D01*
Y800906D01*
X1160210D01*
Y817730D01*
X1161480D01*
Y819000D01*
X1167454D01*
Y829210D01*
X1174180D01*
Y791110D01*
D02*
G37*
G36*
X1523780Y791890D02*
X1565929D01*
X1566766Y790935D01*
X1566638Y789960D01*
X1566909Y787905D01*
X1567702Y785989D01*
X1568964Y784344D01*
X1570436Y783215D01*
Y777655D01*
X1568964Y776526D01*
X1567702Y774881D01*
X1566909Y772965D01*
X1566638Y770910D01*
X1566909Y768855D01*
X1567702Y766939D01*
X1568964Y765294D01*
X1570609Y764032D01*
X1572040Y763439D01*
Y730930D01*
X1502704D01*
Y734734D01*
X1498029D01*
Y743586D01*
X1502704D01*
Y755356D01*
X1510554Y763206D01*
X1511172Y764130D01*
X1511389Y765220D01*
X1511389Y765220D01*
Y786150D01*
X1511389Y786150D01*
X1511172Y787240D01*
X1510554Y788164D01*
X1510554Y788164D01*
X1501229Y797490D01*
Y801686D01*
X1504354D01*
Y801686D01*
X1504354D01*
X1504354Y801686D01*
X1505106D01*
Y801686D01*
X1509810D01*
Y818510D01*
X1511080D01*
Y819780D01*
X1517054D01*
Y829990D01*
X1523780D01*
Y791890D01*
D02*
G37*
G36*
X524300Y932574D02*
X522236D01*
Y901526D01*
X524300D01*
Y893574D01*
X523736D01*
Y877026D01*
X524300D01*
Y868174D01*
X523736D01*
Y851626D01*
X524300D01*
Y849740D01*
X554780D01*
X567480Y837040D01*
X570020D01*
Y835424D01*
X569126Y835424D01*
D01*
X568374D01*
Y835424D01*
X563670D01*
Y818600D01*
Y801776D01*
X566117D01*
X566603Y800603D01*
X562400Y796400D01*
Y745248D01*
X557974D01*
Y749924D01*
X541426D01*
Y734876D01*
X557974D01*
Y739551D01*
X562400D01*
Y704960D01*
X525210D01*
X524324Y705870D01*
X524344Y706650D01*
X524989Y707489D01*
X525654Y709096D01*
X525881Y710820D01*
X525881Y710820D01*
Y730854D01*
X525950Y731020D01*
Y762277D01*
X526840Y763058D01*
X528895Y763329D01*
X530811Y764122D01*
X532456Y765384D01*
X533718Y767029D01*
X534511Y768944D01*
X534782Y771000D01*
X534511Y773055D01*
X533718Y774971D01*
X532456Y776616D01*
X530984Y777745D01*
Y783305D01*
X532456Y784434D01*
X533718Y786079D01*
X534511Y787995D01*
X534782Y790050D01*
X534511Y792106D01*
X533718Y794021D01*
X532456Y795666D01*
X530984Y796796D01*
Y804776D01*
X535114D01*
Y819824D01*
X518566D01*
Y816493D01*
X517393Y816007D01*
X511600Y821800D01*
X483660Y849740D01*
Y936100D01*
X524300D01*
Y932574D01*
D02*
G37*
G36*
X692790Y893194D02*
X687100D01*
Y884920D01*
Y876646D01*
X692790D01*
Y867794D01*
X687100D01*
Y859520D01*
Y851246D01*
X693354D01*
Y852877D01*
X694527Y853363D01*
X713110Y834780D01*
X729996D01*
Y819490D01*
X735970D01*
Y818220D01*
X737240D01*
Y801396D01*
X741567D01*
X742053Y800223D01*
X735970Y794140D01*
Y744869D01*
X731544D01*
Y749544D01*
X714996D01*
Y734496D01*
X731544D01*
Y739171D01*
X735970D01*
Y705240D01*
X699980D01*
X699494Y706414D01*
X700460Y707380D01*
X700460Y707380D01*
X701519Y708760D01*
X702184Y710366D01*
X702411Y712090D01*
X702411Y712090D01*
Y735250D01*
X702411Y735250D01*
X702184Y736974D01*
X701519Y738580D01*
X700460Y739960D01*
X700460Y739960D01*
X697870Y742550D01*
Y762845D01*
X698656Y762949D01*
X700571Y763742D01*
X702216Y765004D01*
X703478Y766649D01*
X704272Y768565D01*
X704542Y770620D01*
X704272Y772675D01*
X703478Y774591D01*
X702216Y776236D01*
X700744Y777365D01*
Y782925D01*
X702216Y784054D01*
X703478Y785699D01*
X704272Y787615D01*
X704542Y789670D01*
X704272Y791726D01*
X703478Y793641D01*
X702216Y795286D01*
X700744Y796416D01*
Y804396D01*
X704874D01*
Y819444D01*
X688326D01*
Y807673D01*
X687155Y807181D01*
X664850Y829040D01*
Y901146D01*
X665956D01*
Y901146D01*
X672960D01*
Y916670D01*
X674230D01*
Y917940D01*
X682504D01*
Y932194D01*
X682504D01*
Y932282D01*
X683402Y933180D01*
X692790D01*
Y893194D01*
D02*
G37*
G36*
X1693960Y789958D02*
X1700310Y783607D01*
X1740267Y783607D01*
Y778145D01*
X1738794Y777016D01*
X1737532Y775371D01*
X1736739Y773456D01*
X1736468Y771400D01*
X1736739Y769344D01*
X1737532Y767429D01*
X1738794Y765784D01*
X1740439Y764522D01*
X1742355Y763729D01*
X1744410Y763458D01*
X1746466Y763729D01*
X1747494Y764155D01*
X1748550Y763449D01*
Y733705D01*
X1747652Y732807D01*
X1738410Y732807D01*
X1687610D01*
Y767758D01*
X1687610Y767758D01*
Y783607D01*
X1686649Y784569D01*
Y786150D01*
X1686649Y786150D01*
X1686432Y787240D01*
X1685814Y788164D01*
X1685814Y788164D01*
X1681260Y792719D01*
Y801686D01*
X1685070D01*
Y818510D01*
X1686340D01*
Y819780D01*
X1692314D01*
Y834408D01*
X1693960D01*
Y789958D01*
D02*
G37*
G36*
X988700Y801396D02*
X993404D01*
D01*
X993404D01*
X993780Y801020D01*
Y789670D01*
X1000130Y783320D01*
X1040613D01*
X1041767Y782435D01*
Y776875D01*
X1040294Y775746D01*
X1039032Y774101D01*
X1038239Y772186D01*
X1037968Y770130D01*
X1038239Y768074D01*
X1039032Y766159D01*
X1040294Y764514D01*
X1041939Y763252D01*
X1043855Y762459D01*
X1044580Y762363D01*
Y732620D01*
X1038230Y732520D01*
X987430D01*
Y763703D01*
X987522Y763840D01*
X987739Y764930D01*
X987739Y764930D01*
Y785860D01*
X987739Y785860D01*
X987522Y786950D01*
X986905Y787875D01*
X986905Y787875D01*
X981080Y793699D01*
Y801396D01*
X981456D01*
Y801396D01*
X986160D01*
Y818220D01*
X988700D01*
Y801396D01*
D02*
G37*
G36*
X1740600Y893974D02*
X1734910D01*
Y885700D01*
Y877426D01*
X1740600D01*
Y868574D01*
X1734910D01*
Y860300D01*
Y852026D01*
X1741164D01*
Y853657D01*
X1742337Y854143D01*
X1760920Y835560D01*
X1777806D01*
Y820270D01*
X1783780D01*
Y819000D01*
X1785050D01*
Y802176D01*
X1789377D01*
X1789863Y801003D01*
X1783780Y794920D01*
Y745649D01*
X1779354D01*
Y750324D01*
X1762806D01*
Y735276D01*
X1779354D01*
Y739951D01*
X1783780D01*
Y706020D01*
X1749575D01*
X1749013Y707159D01*
X1749258Y707479D01*
X1749453Y707950D01*
X1749924Y709086D01*
X1750151Y710810D01*
X1750151Y710810D01*
Y733588D01*
X1750199Y733705D01*
Y733705D01*
D01*
Y763449D01*
X1750135Y763605D01*
X1750168Y763771D01*
X1749900Y764171D01*
X1749716Y764615D01*
X1749716D01*
X1749454Y765328D01*
X1749449Y765341D01*
X1750026Y765784D01*
X1751288Y767429D01*
X1752082Y769344D01*
X1752352Y771400D01*
X1752082Y773456D01*
X1751288Y775371D01*
X1750026Y777016D01*
X1748554Y778145D01*
Y783705D01*
X1750026Y784834D01*
X1751288Y786479D01*
X1752082Y788395D01*
X1752352Y790450D01*
X1752082Y792506D01*
X1751288Y794421D01*
X1750026Y796066D01*
X1748554Y797196D01*
Y805176D01*
X1752684D01*
Y820224D01*
X1736136D01*
Y808453D01*
X1734965Y807961D01*
X1712660Y829820D01*
Y901926D01*
X1713766D01*
Y901926D01*
X1720770D01*
Y917450D01*
X1722040D01*
Y918720D01*
X1730314D01*
Y932974D01*
X1730314D01*
Y933062D01*
X1731212Y933960D01*
X1740600D01*
Y893974D01*
D02*
G37*
G36*
X2096200Y794269D02*
X2047940D01*
X2045684Y792004D01*
X2044510Y792489D01*
Y834898D01*
X2044027Y836064D01*
X2042860Y836547D01*
X2041214D01*
X2040048Y836064D01*
X2039948Y835824D01*
X2029266D01*
D01*
D01*
X2029266Y835824D01*
X2028514D01*
Y835824D01*
X2016566D01*
D01*
D01*
X2016566Y835824D01*
X2015814D01*
Y835824D01*
X2004012D01*
X2004012Y835824D01*
Y835824D01*
X2003866Y835824D01*
X2003490D01*
X2003114D01*
X2002968Y835824D01*
X2002968Y835824D01*
Y835824D01*
X1998410D01*
Y819000D01*
Y802176D01*
X2002968D01*
X2002968Y802176D01*
Y802176D01*
X2003114Y802176D01*
X2003490D01*
X2003866D01*
X2004012Y802176D01*
X2004012Y802176D01*
Y802176D01*
X2006992D01*
Y796801D01*
X2006992Y796800D01*
X2007209Y795710D01*
X2007826Y794786D01*
X2009719Y792894D01*
X2009233Y791720D01*
X1987289D01*
Y802176D01*
X1990268D01*
X1990268Y802176D01*
Y802176D01*
X1990414Y802176D01*
X1990790D01*
X1991166D01*
X1991312Y802176D01*
X1991312Y802176D01*
Y802176D01*
X1995870D01*
Y819000D01*
Y835824D01*
X1991312D01*
X1991312Y835824D01*
Y835824D01*
X1991166Y835824D01*
X1990790D01*
X1990414D01*
X1990268Y835824D01*
X1990268Y835824D01*
Y835824D01*
X1978466D01*
D01*
D01*
X1978466Y835824D01*
X1977714D01*
Y835824D01*
X1968310D01*
Y837440D01*
X1967827Y838607D01*
X1966660Y839090D01*
X1964803D01*
X1952587Y851307D01*
X1951420Y851790D01*
X1935424D01*
Y852026D01*
X1935424D01*
Y859030D01*
X1927900D01*
Y860300D01*
X1926630D01*
Y868574D01*
X1922590D01*
Y877426D01*
X1926630D01*
Y885700D01*
Y893974D01*
X1922590D01*
Y901926D01*
X1925880D01*
Y917450D01*
Y932974D01*
X1922590D01*
Y936500D01*
X1922107Y937667D01*
X1920940Y938150D01*
X1880300D01*
X1879134Y937667D01*
X1878651Y936500D01*
Y850140D01*
X1879134Y848974D01*
X1907074Y821034D01*
X1912866Y815241D01*
X1913170Y815116D01*
X1913401Y814884D01*
X1913730D01*
X1914033Y814758D01*
X1914150Y814807D01*
X1915206Y814101D01*
Y805176D01*
X1919337D01*
Y797196D01*
X1917864Y796066D01*
X1916602Y794421D01*
X1916539Y794270D01*
X1915351Y793822D01*
X1914937Y794026D01*
X1914883Y794008D01*
X1914829Y794030D01*
X1874330D01*
Y830480D01*
X1873847Y831647D01*
X1872680Y832130D01*
X1865954D01*
Y835824D01*
X1854006D01*
D01*
D01*
X1854006Y835824D01*
X1853254D01*
Y835824D01*
X1841306D01*
D01*
D01*
X1841306Y835824D01*
X1840554D01*
Y835824D01*
X1828752D01*
X1828752Y835824D01*
Y835824D01*
X1828606Y835824D01*
X1828230D01*
X1827854D01*
X1827708Y835824D01*
X1827708Y835824D01*
Y835824D01*
X1823150D01*
Y819000D01*
Y802176D01*
X1827708D01*
X1827708Y802176D01*
Y802176D01*
X1827854Y802176D01*
X1828230D01*
X1828606D01*
X1828752Y802176D01*
X1828752Y802176D01*
Y802176D01*
X1831732D01*
Y796800D01*
X1831732Y796800D01*
X1831949Y795710D01*
X1832566Y794786D01*
X1834458Y792894D01*
X1833972Y791720D01*
X1812029D01*
Y802176D01*
X1815008D01*
X1815008Y802176D01*
Y802176D01*
X1815154Y802176D01*
X1815530D01*
X1815906D01*
X1816052Y802176D01*
X1816052Y802176D01*
Y802176D01*
X1820610D01*
Y819000D01*
Y835824D01*
X1816052D01*
X1816052Y835824D01*
Y835824D01*
X1815906Y835824D01*
X1815530D01*
X1815154D01*
X1815008Y835824D01*
X1815008Y835824D01*
Y835824D01*
X1803206D01*
D01*
D01*
X1803206Y835824D01*
X1802454D01*
Y835824D01*
X1790506D01*
D01*
D01*
X1790506Y835824D01*
X1789754D01*
Y835824D01*
X1779346D01*
X1778973Y836727D01*
X1777806Y837210D01*
X1761604D01*
X1748220Y850593D01*
Y852026D01*
X1751370D01*
Y859030D01*
X1745116D01*
Y855357D01*
X1743943Y854871D01*
X1743504Y855310D01*
X1743201Y855435D01*
X1742969Y855667D01*
X1742641D01*
X1742337Y855793D01*
X1742220Y855744D01*
X1741164Y856450D01*
Y867158D01*
X1741767Y867408D01*
X1742250Y868574D01*
Y877426D01*
X1741767Y878592D01*
X1741164Y878842D01*
Y892558D01*
X1741767Y892808D01*
X1742250Y893974D01*
Y901926D01*
X1743266D01*
Y901926D01*
X1746600D01*
Y901600D01*
X1746736Y901926D01*
X1750270D01*
Y917450D01*
Y932974D01*
X1743266D01*
Y932974D01*
X1743148D01*
X1742250Y933872D01*
D01*
Y933960D01*
X1741767Y935127D01*
X1740600Y935610D01*
X1731212D01*
X1730046Y935127D01*
X1729148Y934229D01*
X1728665Y933062D01*
Y932974D01*
X1728665Y932974D01*
X1713766D01*
Y903576D01*
X1713766Y903576D01*
X1712660D01*
X1711494Y903093D01*
X1711011Y901926D01*
Y829820D01*
X1711014Y829812D01*
X1711011Y829803D01*
X1711255Y829230D01*
X1711494Y828654D01*
X1711502Y828650D01*
X1711506Y828642D01*
X1732089Y808470D01*
X1731609Y807294D01*
X1719360D01*
Y799020D01*
X1718090D01*
Y797750D01*
X1702566D01*
Y793489D01*
X1698340D01*
X1696783Y791927D01*
X1695610Y792412D01*
Y834408D01*
X1695126Y835574D01*
X1693960Y836057D01*
X1692314D01*
X1691148Y835574D01*
X1691048Y835334D01*
X1680366D01*
D01*
D01*
X1680366Y835334D01*
X1679614D01*
Y835334D01*
X1667666D01*
D01*
D01*
X1667666Y835334D01*
X1666914D01*
Y835334D01*
X1655112D01*
X1655112Y835334D01*
Y835334D01*
X1654966Y835334D01*
X1654590D01*
X1654214D01*
X1654068Y835334D01*
X1654068Y835334D01*
Y835334D01*
X1649510D01*
Y818510D01*
Y801686D01*
X1654068D01*
X1654068Y801686D01*
Y801686D01*
X1654214Y801686D01*
X1654590D01*
X1654966D01*
X1655112Y801686D01*
X1655112Y801686D01*
Y801686D01*
X1658091D01*
Y796310D01*
X1658091Y796310D01*
X1658308Y795220D01*
X1658926Y794296D01*
X1661108Y792114D01*
X1660622Y790940D01*
X1638389D01*
Y801686D01*
X1641368D01*
X1641368Y801686D01*
Y801686D01*
X1641514Y801686D01*
X1641890D01*
X1642266D01*
X1642412Y801686D01*
X1642412Y801686D01*
Y801686D01*
X1646970D01*
Y818510D01*
Y835334D01*
X1642412D01*
X1642412Y835334D01*
Y835334D01*
X1642266Y835334D01*
X1641890D01*
X1641514D01*
X1641368Y835334D01*
X1641368Y835334D01*
Y835334D01*
X1629566D01*
D01*
D01*
X1629566Y835334D01*
X1628814D01*
Y835334D01*
X1619410D01*
Y836950D01*
X1618926Y838116D01*
X1617760Y838600D01*
X1615903D01*
X1603686Y850816D01*
X1602520Y851300D01*
X1586524D01*
Y851536D01*
X1586524D01*
Y858540D01*
X1579000D01*
Y859810D01*
X1577730D01*
Y868084D01*
X1573690D01*
Y876936D01*
X1577730D01*
Y885210D01*
Y893484D01*
X1573690D01*
Y901436D01*
X1576980D01*
Y916960D01*
Y932484D01*
X1573690D01*
Y936010D01*
X1573206Y937176D01*
X1572040Y937660D01*
X1531400D01*
X1530234Y937176D01*
X1529750Y936010D01*
Y849650D01*
X1530234Y848484D01*
X1558174Y820544D01*
X1563966Y814751D01*
X1564269Y814625D01*
X1564501Y814393D01*
X1564829D01*
X1565132Y814268D01*
X1565250Y814317D01*
X1566306Y813611D01*
Y804686D01*
X1570436D01*
Y796706D01*
X1568964Y795576D01*
X1567702Y793931D01*
X1567639Y793780D01*
X1566451Y793332D01*
X1566037Y793536D01*
X1565982Y793518D01*
X1565929Y793540D01*
X1525430D01*
Y829990D01*
X1524946Y831156D01*
X1523780Y831640D01*
X1517054D01*
Y835334D01*
X1505106D01*
D01*
D01*
X1505106Y835334D01*
X1504354D01*
Y835334D01*
X1492406D01*
D01*
D01*
X1492406Y835334D01*
X1491654D01*
Y835334D01*
X1479852D01*
X1479852Y835334D01*
Y835334D01*
X1479706Y835334D01*
X1479330D01*
X1478954D01*
X1478808Y835334D01*
X1478808Y835334D01*
Y835334D01*
X1474250D01*
Y818510D01*
Y801686D01*
X1478808D01*
X1478808Y801686D01*
Y801686D01*
X1478954Y801686D01*
X1479330D01*
X1479706D01*
X1479852Y801686D01*
X1479852Y801686D01*
Y801686D01*
X1482832D01*
Y796310D01*
X1482832Y796310D01*
X1483048Y795220D01*
X1483666Y794295D01*
X1485848Y792114D01*
X1485362Y790940D01*
X1463129D01*
Y801686D01*
X1466108D01*
X1466108Y801686D01*
Y801686D01*
X1466254Y801686D01*
X1466630D01*
X1467006D01*
X1467152Y801686D01*
X1467152Y801686D01*
Y801686D01*
X1471710D01*
Y818510D01*
Y835334D01*
X1467152D01*
X1467152Y835334D01*
Y835334D01*
X1467006Y835334D01*
X1466630D01*
X1466254D01*
X1466108Y835334D01*
X1466108Y835334D01*
Y835334D01*
X1454306D01*
D01*
D01*
X1454306Y835334D01*
X1453554D01*
Y835334D01*
X1441606D01*
D01*
D01*
X1441606Y835334D01*
X1440854D01*
Y835334D01*
X1430446D01*
X1430072Y836236D01*
X1428906Y836720D01*
X1412703D01*
X1399060Y850362D01*
X1399547Y851536D01*
X1402470D01*
Y858540D01*
X1396216D01*
Y854866D01*
X1395043Y854380D01*
X1394604Y854819D01*
X1394300Y854945D01*
X1394068Y855177D01*
X1393740D01*
X1393437Y855303D01*
X1393320Y855254D01*
X1392264Y855959D01*
Y866668D01*
X1392866Y866917D01*
X1393350Y868084D01*
Y876936D01*
X1392866Y878102D01*
X1392264Y878352D01*
Y892068D01*
X1392866Y892317D01*
X1393350Y893484D01*
Y901436D01*
X1394366D01*
Y901436D01*
X1401370D01*
Y916960D01*
Y932484D01*
X1394366D01*
Y932484D01*
X1394248D01*
D01*
X1393350Y933382D01*
Y933470D01*
X1392866Y934636D01*
X1391700Y935120D01*
X1382312D01*
X1381146Y934636D01*
X1380248Y933738D01*
X1379764Y932572D01*
Y932484D01*
X1379764Y932484D01*
X1364866D01*
Y903086D01*
X1364866Y903086D01*
X1363760D01*
X1362594Y902602D01*
X1362110Y901436D01*
Y829330D01*
X1362114Y829322D01*
X1362110Y829313D01*
X1362355Y828740D01*
X1362594Y828164D01*
X1362602Y828160D01*
X1362605Y828152D01*
X1383485Y807690D01*
X1383005Y806514D01*
X1369760D01*
Y798240D01*
X1368490D01*
Y796970D01*
X1352966D01*
Y794269D01*
X1349730D01*
X1347190Y791720D01*
X1345509D01*
Y800008D01*
X1345026Y801174D01*
X1344128Y802073D01*
X1342962Y802556D01*
X1342714D01*
X1342714Y802556D01*
Y834554D01*
X1330766D01*
D01*
D01*
X1330766Y834554D01*
X1330014D01*
Y834554D01*
X1318066D01*
D01*
D01*
X1318066Y834554D01*
X1317314D01*
Y834554D01*
X1305512D01*
X1305512Y834554D01*
Y834554D01*
X1305366Y834554D01*
X1304990D01*
X1304614D01*
X1304468Y834554D01*
X1304468Y834554D01*
Y834554D01*
X1299910D01*
Y817730D01*
Y800906D01*
X1304468D01*
X1304468Y800906D01*
Y800906D01*
X1304614Y800906D01*
X1304990D01*
X1305366D01*
X1305512Y800906D01*
X1305512Y800906D01*
Y800906D01*
X1308492D01*
Y795530D01*
X1308492Y795530D01*
X1308709Y794440D01*
X1309326Y793516D01*
X1309949Y792893D01*
X1309463Y791720D01*
X1288789D01*
Y800906D01*
X1291768D01*
X1291768Y800906D01*
Y800906D01*
X1291914Y800906D01*
X1292290D01*
X1292666D01*
X1292812Y800906D01*
X1292812Y800906D01*
Y800906D01*
X1297370D01*
Y817730D01*
Y834554D01*
X1292812D01*
X1292812Y834554D01*
Y834554D01*
X1292666Y834554D01*
X1292290D01*
X1291914D01*
X1291768Y834554D01*
X1291768Y834554D01*
Y834554D01*
X1279966D01*
D01*
D01*
X1279966Y834554D01*
X1279214D01*
Y834554D01*
X1269810D01*
Y836170D01*
X1269327Y837337D01*
X1268160Y837820D01*
X1266303D01*
X1254087Y850037D01*
X1252920Y850520D01*
X1236924D01*
Y850756D01*
X1236924D01*
Y857760D01*
X1229400D01*
Y859030D01*
X1228130D01*
Y867304D01*
X1224090D01*
Y876156D01*
X1228130D01*
Y884430D01*
Y892704D01*
X1224090D01*
Y900656D01*
X1227380D01*
Y916180D01*
Y931704D01*
X1224090D01*
Y935230D01*
X1223607Y936397D01*
X1222440Y936880D01*
X1181800D01*
X1180634Y936397D01*
X1180151Y935230D01*
Y848870D01*
X1180634Y847704D01*
X1208574Y819764D01*
X1214366Y813971D01*
X1214669Y813846D01*
X1214902Y813614D01*
X1215230D01*
X1215533Y813488D01*
X1215650Y813537D01*
X1216706Y812831D01*
Y803906D01*
X1220837D01*
Y795926D01*
X1219364Y794796D01*
X1218102Y793151D01*
X1218039Y793000D01*
X1216851Y792552D01*
X1216437Y792756D01*
X1216383Y792738D01*
X1216329Y792760D01*
X1175830D01*
Y829210D01*
X1175347Y830377D01*
X1174180Y830860D01*
X1167454D01*
Y834554D01*
X1155506D01*
D01*
D01*
X1155506Y834554D01*
X1154754D01*
Y834554D01*
X1142806D01*
D01*
D01*
X1142806Y834554D01*
X1142054D01*
Y834554D01*
X1130252D01*
X1130252Y834554D01*
Y834554D01*
X1130106Y834554D01*
X1129730D01*
X1129354D01*
X1129208Y834554D01*
X1129208Y834554D01*
Y834554D01*
X1124650D01*
Y817730D01*
Y800906D01*
X1129208D01*
X1129208Y800906D01*
Y800906D01*
X1129354Y800906D01*
X1129730D01*
X1130106D01*
X1130252Y800906D01*
X1130252Y800906D01*
Y800906D01*
X1133232D01*
Y795530D01*
X1133232Y795530D01*
X1133449Y794440D01*
X1134066Y793516D01*
X1134688Y792893D01*
X1134202Y791720D01*
X1113529D01*
Y800906D01*
X1116508D01*
X1116508Y800906D01*
Y800906D01*
X1116654Y800906D01*
X1117030D01*
X1117406D01*
X1117552Y800906D01*
X1117552Y800906D01*
Y800906D01*
X1122110D01*
Y817730D01*
Y834554D01*
X1117552D01*
X1117552Y834554D01*
Y834554D01*
X1117406Y834554D01*
X1117030D01*
X1116654D01*
X1116508Y834554D01*
X1116508Y834554D01*
Y834554D01*
X1104706D01*
D01*
D01*
X1104706Y834554D01*
X1103954D01*
Y834554D01*
X1092006D01*
D01*
D01*
X1092006Y834554D01*
X1091254D01*
Y834554D01*
X1080846D01*
X1080473Y835457D01*
X1079306Y835940D01*
X1063103D01*
X1050010Y849033D01*
Y850756D01*
X1052870D01*
Y857760D01*
X1046616D01*
Y854087D01*
X1045443Y853601D01*
X1045004Y854040D01*
X1044701Y854165D01*
X1044469Y854397D01*
X1044141D01*
X1043837Y854523D01*
X1043720Y854474D01*
X1042664Y855180D01*
Y865888D01*
X1043267Y866138D01*
X1043750Y867304D01*
Y876156D01*
X1043267Y877322D01*
X1042664Y877572D01*
Y891288D01*
X1043267Y891538D01*
X1043750Y892704D01*
Y900656D01*
X1044766D01*
Y900656D01*
X1048870D01*
Y892704D01*
X1046616D01*
Y885700D01*
X1052870D01*
Y892704D01*
X1050010D01*
Y898775D01*
X1049304Y899483D01*
X1049791Y900656D01*
X1051770D01*
Y916180D01*
Y931704D01*
X1044766D01*
Y931704D01*
X1044648D01*
X1043750Y932602D01*
D01*
Y932690D01*
X1043267Y933857D01*
X1042100Y934340D01*
X1032712D01*
X1031546Y933857D01*
X1030648Y932959D01*
X1030165Y931792D01*
Y931704D01*
X1030165Y931704D01*
X1015266D01*
Y902306D01*
X1015266Y902306D01*
X1014160D01*
X1012994Y901823D01*
X1012511Y900656D01*
Y828550D01*
X1012514Y828542D01*
X1012511Y828533D01*
X1012755Y827960D01*
X1012994Y827384D01*
X1013002Y827380D01*
X1013006Y827372D01*
X1032589Y808180D01*
X1032109Y807004D01*
X1020450D01*
Y798730D01*
X1019180D01*
Y797460D01*
X1003656D01*
Y793379D01*
X1000610D01*
X998070Y790830D01*
X995430D01*
Y801020D01*
X995088Y801845D01*
X994947Y802187D01*
X994571Y802562D01*
X994571Y802563D01*
X993404Y803046D01*
Y835044D01*
X981456D01*
D01*
D01*
X981456Y835044D01*
X980704D01*
Y835044D01*
X968756D01*
D01*
D01*
X968756Y835044D01*
X968004D01*
Y835044D01*
X956202D01*
X956202Y835044D01*
Y835044D01*
X956056Y835044D01*
X955680D01*
X955304D01*
X955158Y835044D01*
X955158Y835044D01*
Y835044D01*
X950600D01*
Y818220D01*
Y801396D01*
X955158D01*
X955158Y801396D01*
Y801396D01*
X955304Y801396D01*
X955680D01*
X956056D01*
X956202Y801396D01*
X956202Y801396D01*
Y801396D01*
X959182D01*
Y796021D01*
X959182Y796020D01*
X959399Y794930D01*
X960016Y794006D01*
X962019Y792003D01*
X961533Y790830D01*
X939479D01*
Y801396D01*
X942458D01*
X942458Y801396D01*
Y801396D01*
X942604Y801396D01*
X942980D01*
X943356D01*
X943502Y801396D01*
X943502Y801396D01*
Y801396D01*
X948060D01*
Y818220D01*
Y835044D01*
X943502D01*
X943502Y835044D01*
Y835044D01*
X943356Y835044D01*
X942980D01*
X942604D01*
X942458Y835044D01*
X942458Y835044D01*
Y835044D01*
X930656D01*
D01*
D01*
X930656Y835044D01*
X929904D01*
Y835044D01*
X920500D01*
Y836660D01*
X920017Y837827D01*
X918850Y838310D01*
X916993D01*
X904777Y850527D01*
X903610Y851010D01*
X887614D01*
Y851246D01*
X887614D01*
Y858250D01*
X880090D01*
Y859520D01*
X878820D01*
Y867794D01*
X874780D01*
Y876646D01*
X878820D01*
Y884920D01*
Y893194D01*
X874780D01*
Y901146D01*
X878070D01*
Y916670D01*
Y932194D01*
X874780D01*
Y935720D01*
X874297Y936887D01*
X873130Y937370D01*
X832490D01*
X831324Y936887D01*
X830841Y935720D01*
Y849360D01*
X831324Y848194D01*
X859264Y820254D01*
X865056Y814461D01*
X865359Y814336D01*
X865592Y814104D01*
X865920D01*
X866223Y813978D01*
X866340Y814027D01*
X867396Y813321D01*
Y804396D01*
X871527D01*
Y796416D01*
X870054Y795286D01*
X868792Y793641D01*
X868729Y793490D01*
X867541Y793042D01*
X867127Y793246D01*
X867073Y793228D01*
X867019Y793250D01*
X826520D01*
Y829700D01*
X826037Y830867D01*
X824870Y831350D01*
X818144D01*
Y835044D01*
X806196D01*
D01*
D01*
X806196Y835044D01*
X805444D01*
Y835044D01*
X793496D01*
D01*
D01*
X793496Y835044D01*
X792744D01*
Y835044D01*
X780942D01*
X780942Y835044D01*
Y835044D01*
X780796Y835044D01*
X780420D01*
X780044D01*
X779898Y835044D01*
X779898Y835044D01*
Y835044D01*
X775340D01*
Y818220D01*
Y801396D01*
X779898D01*
X779898Y801396D01*
Y801396D01*
X780044Y801396D01*
X780420D01*
X780796D01*
X780942Y801396D01*
X780942Y801396D01*
Y801396D01*
X783922D01*
Y796020D01*
X783922Y796020D01*
X784139Y794930D01*
X784756Y794006D01*
X786758Y792003D01*
X786272Y790830D01*
X764219D01*
Y801396D01*
X767198D01*
X767198Y801396D01*
Y801396D01*
X767344Y801396D01*
X767720D01*
X768096D01*
X768242Y801396D01*
X768242Y801396D01*
Y801396D01*
X772800D01*
Y818220D01*
Y835044D01*
X768242D01*
X768242Y835044D01*
Y835044D01*
X768096Y835044D01*
X767720D01*
X767344D01*
X767198Y835044D01*
X767198Y835044D01*
Y835044D01*
X755396D01*
D01*
D01*
X755396Y835044D01*
X754644D01*
Y835044D01*
X742696D01*
D01*
D01*
X742696Y835044D01*
X741944D01*
Y835044D01*
X731536D01*
X731163Y835947D01*
X729996Y836430D01*
X713793D01*
X700890Y849333D01*
Y851246D01*
X703560D01*
Y858250D01*
X697306D01*
Y854577D01*
X696133Y854091D01*
X695694Y854529D01*
X695391Y854655D01*
X695159Y854887D01*
X694831D01*
X694527Y855013D01*
X694410Y854964D01*
X693354Y855670D01*
Y866378D01*
X693957Y866628D01*
X694440Y867794D01*
Y876646D01*
X693957Y877812D01*
X693354Y878062D01*
Y891778D01*
X693957Y892028D01*
X694440Y893194D01*
Y901146D01*
X695456D01*
Y901146D01*
X702460D01*
Y916670D01*
Y932194D01*
X695456D01*
Y932194D01*
X695338D01*
X694440Y933092D01*
D01*
Y933180D01*
X693957Y934347D01*
X692790Y934830D01*
X683402D01*
X682236Y934347D01*
X681338Y933448D01*
X680855Y932282D01*
Y932194D01*
X680855Y932194D01*
X665956D01*
Y902796D01*
X665956Y902796D01*
X664850D01*
X663684Y902312D01*
X663201Y901146D01*
Y829040D01*
X663204Y829032D01*
X663201Y829024D01*
X663445Y828450D01*
X663684Y827874D01*
X663692Y827870D01*
X663696Y827862D01*
X683392Y808560D01*
X682912Y807384D01*
X671620D01*
Y799110D01*
X670350D01*
Y797840D01*
X654826D01*
Y793869D01*
X651300D01*
X648760Y791320D01*
X646600D01*
Y801400D01*
X646258Y802225D01*
X646116Y802566D01*
X645740Y802942D01*
X645740Y802942D01*
X644574Y803426D01*
Y835424D01*
X632626D01*
D01*
D01*
X632626Y835424D01*
X631874D01*
Y835424D01*
X619926D01*
D01*
D01*
X619926Y835424D01*
X619174D01*
Y835424D01*
X607372D01*
X607372Y835424D01*
Y835424D01*
X607226Y835424D01*
X606850D01*
X606474D01*
X606328Y835424D01*
X606328Y835424D01*
Y835424D01*
X601770D01*
Y818600D01*
Y801776D01*
X606328D01*
X606328Y801776D01*
Y801776D01*
X606474Y801776D01*
X606850D01*
X607226D01*
X607372Y801776D01*
X607372Y801776D01*
Y801776D01*
X610351D01*
Y796400D01*
X610351Y796400D01*
X610568Y795310D01*
X611186Y794386D01*
X613078Y792493D01*
X612592Y791320D01*
X590649D01*
Y801776D01*
X593628D01*
X593628Y801776D01*
Y801776D01*
X593774Y801776D01*
X594150D01*
X594526D01*
X594672Y801776D01*
X594672Y801776D01*
Y801776D01*
X599230D01*
Y818600D01*
Y835424D01*
X594672D01*
X594672Y835424D01*
Y835424D01*
X594526Y835424D01*
X594150D01*
X593774D01*
X593628Y835424D01*
X593628Y835424D01*
Y835424D01*
X581826D01*
D01*
D01*
X581826Y835424D01*
X581074D01*
Y835424D01*
X571670D01*
Y837040D01*
X571186Y838206D01*
X570020Y838690D01*
X568163D01*
X555946Y850906D01*
X554780Y851390D01*
X538784D01*
Y851626D01*
X538784D01*
Y858630D01*
X531260D01*
Y859900D01*
X529990D01*
Y868174D01*
X525950D01*
Y877026D01*
X529990D01*
Y885300D01*
Y893574D01*
X525950D01*
Y901526D01*
X529240D01*
Y917050D01*
Y932574D01*
X525950D01*
Y936100D01*
X525466Y937266D01*
X524300Y937750D01*
X483660D01*
X482494Y937266D01*
X482010Y936100D01*
Y849740D01*
X482494Y848574D01*
X510434Y820634D01*
X510434Y820634D01*
X516226Y814841D01*
X516529Y814715D01*
X516762Y814483D01*
X517090D01*
X517393Y814358D01*
X517510Y814406D01*
X518566Y813701D01*
Y804776D01*
X522696D01*
Y796796D01*
X521224Y795666D01*
X519962Y794021D01*
X519899Y793869D01*
X518711Y793422D01*
X518297Y793626D01*
X518242Y793608D01*
X518189Y793630D01*
X477690D01*
Y830080D01*
X477206Y831246D01*
X476040Y831730D01*
X469314D01*
Y835424D01*
X457366D01*
D01*
D01*
X457366Y835424D01*
X456614D01*
Y835424D01*
X444666D01*
D01*
D01*
X444666Y835424D01*
X443914D01*
Y835424D01*
X432112D01*
X432112Y835424D01*
Y835424D01*
X431966Y835424D01*
X431590D01*
X431214D01*
X431068Y835424D01*
X431068Y835424D01*
Y835424D01*
X426510D01*
Y818600D01*
Y801776D01*
X431068D01*
X431068Y801776D01*
Y801776D01*
X431214Y801776D01*
X431590D01*
X431966D01*
X432112Y801776D01*
X432112Y801776D01*
Y801776D01*
X435092D01*
Y796400D01*
X435092Y796400D01*
X435308Y795310D01*
X435926Y794385D01*
X437818Y792493D01*
X437332Y791320D01*
X415389D01*
Y801776D01*
X418368D01*
X418368Y801776D01*
Y801776D01*
X418514Y801776D01*
X418890D01*
X419266D01*
X419412Y801776D01*
X419412Y801776D01*
Y801776D01*
X423970D01*
Y818600D01*
Y835424D01*
X419412D01*
X419412Y835424D01*
Y835424D01*
X419266Y835424D01*
X418890D01*
X418514D01*
X418368Y835424D01*
X418368Y835424D01*
Y835424D01*
X406566D01*
D01*
D01*
X406566Y835424D01*
X405814D01*
Y835424D01*
X393866D01*
D01*
D01*
X393866Y835424D01*
X393114D01*
Y835424D01*
X382706D01*
X382332Y836327D01*
X381166Y836810D01*
X364963D01*
X351580Y850193D01*
Y851626D01*
X354730D01*
Y859900D01*
Y868174D01*
X351580D01*
Y877026D01*
X354730D01*
Y885300D01*
Y893574D01*
X351580D01*
Y898375D01*
X349608Y900353D01*
X350095Y901526D01*
X353630D01*
Y917050D01*
Y932574D01*
X346626D01*
Y932574D01*
X346508D01*
X345610Y933472D01*
Y933560D01*
X345126Y934726D01*
X343960Y935210D01*
X334572D01*
X333406Y934726D01*
X332508Y933828D01*
X332024Y932662D01*
Y932574D01*
X332024Y932574D01*
X318560D01*
Y944706D01*
X334944D01*
Y975754D01*
X318560D01*
Y979940D01*
X699560D01*
Y979450D01*
X1016990D01*
Y980340D01*
X1397990D01*
Y979560D01*
X1715200D01*
Y980340D01*
X2096200D01*
Y794269D01*
D02*
G37*
G36*
X639870Y801776D02*
X644574D01*
D01*
X644574D01*
X644950Y801400D01*
Y790050D01*
X651300Y783700D01*
X691446D01*
X692457Y782925D01*
Y777365D01*
X690984Y776236D01*
X689722Y774591D01*
X688929Y772675D01*
X688658Y770620D01*
X688929Y768565D01*
X689722Y766649D01*
X690984Y765004D01*
X692629Y763742D01*
X694545Y762949D01*
X695750Y762790D01*
Y733000D01*
X689400Y732900D01*
X638600D01*
Y764082D01*
X638692Y764220D01*
X638909Y765310D01*
X638909Y765310D01*
Y786240D01*
X638909Y786240D01*
X638692Y787330D01*
X638074Y788254D01*
X638074Y788254D01*
X632250Y794079D01*
Y801776D01*
X632626D01*
Y801776D01*
X637330D01*
Y818600D01*
X639870D01*
Y801776D01*
D02*
G37*
G36*
X343960Y893574D02*
X338270D01*
Y885300D01*
Y877026D01*
X343960D01*
Y868174D01*
X338270D01*
Y859900D01*
Y851626D01*
X344524D01*
Y853257D01*
X345698Y853743D01*
X364280Y835160D01*
X381166D01*
Y819870D01*
X387140D01*
Y818600D01*
X388410D01*
Y801776D01*
X392737D01*
X393223Y800603D01*
X387140Y794520D01*
Y745249D01*
X382714D01*
Y749924D01*
X366166D01*
Y734876D01*
X382714D01*
Y739551D01*
X387140D01*
Y705620D01*
X349040D01*
Y763225D01*
X349826Y763328D01*
X351741Y764122D01*
X353386Y765384D01*
X354648Y767029D01*
X355441Y768944D01*
X355712Y771000D01*
X355441Y773055D01*
X354648Y774971D01*
X353386Y776616D01*
X351914Y777745D01*
Y783305D01*
X353386Y784434D01*
X354648Y786079D01*
X355441Y787995D01*
X355712Y790050D01*
X355441Y792105D01*
X354648Y794021D01*
X353386Y795666D01*
X351914Y796795D01*
Y804776D01*
X356044D01*
Y819824D01*
X339496D01*
Y808053D01*
X338325Y807561D01*
X316020Y829420D01*
Y901526D01*
X317126D01*
Y901526D01*
X324130D01*
Y917050D01*
X325400D01*
Y918320D01*
X333674D01*
Y932574D01*
X333674D01*
Y932662D01*
X334572Y933560D01*
X343960D01*
Y893574D01*
D02*
G37*
G36*
X1391700Y893484D02*
X1386010D01*
Y885210D01*
Y876936D01*
X1391700D01*
Y868084D01*
X1386010D01*
Y859810D01*
Y851536D01*
X1392264D01*
Y853167D01*
X1393437Y853653D01*
X1412020Y835070D01*
X1428906D01*
Y819780D01*
X1434880D01*
Y818510D01*
X1436150D01*
Y801686D01*
X1440477D01*
X1440963Y800513D01*
X1434880Y794430D01*
Y745159D01*
X1430454D01*
Y749834D01*
X1413906D01*
Y734786D01*
X1430454D01*
Y739461D01*
X1434880D01*
Y705536D01*
X1434872Y705530D01*
X1396780D01*
Y707740D01*
X1398600Y709560D01*
X1398600Y709560D01*
X1399659Y710940D01*
X1400324Y712546D01*
X1400551Y714270D01*
X1400551Y714270D01*
Y734860D01*
X1400551Y734860D01*
X1400324Y736584D01*
X1399659Y738190D01*
X1398600Y739570D01*
X1398600Y739570D01*
X1396780Y741390D01*
Y763135D01*
X1397565Y763239D01*
X1399481Y764032D01*
X1401126Y765294D01*
X1402388Y766939D01*
X1403181Y768854D01*
X1403452Y770910D01*
X1403181Y772965D01*
X1402388Y774881D01*
X1401126Y776526D01*
X1399654Y777655D01*
Y783215D01*
X1401126Y784344D01*
X1402388Y785989D01*
X1403181Y787905D01*
X1403452Y789960D01*
X1403181Y792016D01*
X1402388Y793931D01*
X1401126Y795576D01*
X1399654Y796705D01*
Y804686D01*
X1403784D01*
Y819734D01*
X1387236D01*
Y807963D01*
X1386065Y807471D01*
X1363760Y829330D01*
Y901436D01*
X1364866D01*
Y901436D01*
X1371870D01*
Y916960D01*
X1373140D01*
Y918230D01*
X1381414D01*
Y932484D01*
X1381414D01*
Y932572D01*
X1382312Y933470D01*
X1391700D01*
Y893484D01*
D02*
G37*
G36*
X824870Y791600D02*
X867019D01*
X867857Y790645D01*
X867728Y789670D01*
X867999Y787615D01*
X868792Y785699D01*
X870054Y784054D01*
X871527Y782925D01*
Y777366D01*
X870054Y776236D01*
X868792Y774591D01*
X867999Y772676D01*
X867728Y770620D01*
X867999Y768565D01*
X868792Y766649D01*
X870054Y765004D01*
X871699Y763742D01*
X873130Y763149D01*
Y730640D01*
X803794D01*
Y734444D01*
X799119D01*
Y743296D01*
X803794D01*
Y755066D01*
X811645Y762916D01*
X812262Y763840D01*
X812479Y764930D01*
X812479Y764930D01*
Y785860D01*
X812479Y785860D01*
X812262Y786950D01*
X811645Y787875D01*
X811645Y787875D01*
X802319Y797200D01*
Y801396D01*
X805444D01*
Y801396D01*
X805444D01*
X805444Y801396D01*
X806196D01*
Y801396D01*
X810900D01*
Y818220D01*
X812170D01*
Y819490D01*
X818144D01*
Y829700D01*
X824870D01*
Y791600D01*
D02*
G37*
G36*
X1338010Y800906D02*
X1342714D01*
Y800906D01*
X1342962D01*
X1343860Y800008D01*
Y790340D01*
X1350210Y783990D01*
X1390356D01*
X1391366Y783215D01*
Y777655D01*
X1389894Y776526D01*
X1388632Y774881D01*
X1387839Y772965D01*
X1387568Y770910D01*
X1387839Y768854D01*
X1388632Y766939D01*
X1389894Y765294D01*
X1391539Y764032D01*
X1393454Y763239D01*
X1394660Y763080D01*
Y733290D01*
X1388310Y733190D01*
X1383114D01*
Y733190D01*
Y734006D01*
X1383114Y734088D01*
X1383114Y734088D01*
X1383114D01*
Y740260D01*
X1366566D01*
Y734088D01*
X1366566Y734088D01*
X1366566D01*
X1366566Y734006D01*
X1365750Y733190D01*
X1357714D01*
Y733190D01*
Y734006D01*
X1357714Y734088D01*
X1357714Y734088D01*
X1357714D01*
Y740260D01*
X1341166D01*
Y734088D01*
X1341166Y734088D01*
X1341166D01*
X1341166Y734006D01*
X1340349Y733190D01*
X1337510D01*
Y768140D01*
X1337510Y768140D01*
Y783990D01*
X1337049Y784451D01*
Y785370D01*
X1337049Y785370D01*
X1336832Y786460D01*
X1336215Y787384D01*
X1336214Y787385D01*
X1331160Y792439D01*
Y800906D01*
X1335470D01*
Y817730D01*
X1338010D01*
Y800906D01*
D02*
G37*
G36*
X2042860Y790448D02*
X2049210Y784098D01*
X2052716D01*
Y783320D01*
X2083885D01*
X2084662Y784098D01*
X2097450Y784098D01*
Y734195D01*
X2096552Y733298D01*
X2087310Y733298D01*
X2036510D01*
Y768248D01*
X2036510Y768248D01*
Y784098D01*
X2035549Y785059D01*
Y786640D01*
X2035549Y786640D01*
X2035332Y787730D01*
X2034715Y788654D01*
X2034715Y788655D01*
X2030160Y793209D01*
Y802176D01*
X2033970D01*
Y819000D01*
X2035240D01*
Y820270D01*
X2041214D01*
Y834898D01*
X2042860D01*
Y790448D01*
D02*
G37*
%LPC*%
G36*
X669080Y777884D02*
X654826D01*
Y770880D01*
X669080D01*
Y777884D01*
D02*
G37*
G36*
X1384014Y777014D02*
X1369760D01*
Y770010D01*
X1384014D01*
Y777014D01*
D02*
G37*
G36*
X1367220D02*
X1352966D01*
Y770010D01*
X1367220D01*
Y777014D01*
D02*
G37*
G36*
X1957064Y776480D02*
X1950810D01*
Y769476D01*
X1957064D01*
Y776480D01*
D02*
G37*
G36*
X1017910Y777504D02*
X1003656D01*
Y770500D01*
X1017910D01*
Y777504D01*
D02*
G37*
G36*
X1733614Y777794D02*
X1719360D01*
Y770790D01*
X1733614D01*
Y777794D01*
D02*
G37*
G36*
X1716820D02*
X1702566D01*
Y770790D01*
X1716820D01*
Y777794D01*
D02*
G37*
G36*
X1034704Y777504D02*
X1020450D01*
Y770500D01*
X1034704D01*
Y777504D01*
D02*
G37*
G36*
X685874Y777884D02*
X671620D01*
Y770880D01*
X685874D01*
Y777884D01*
D02*
G37*
G36*
X511104Y783574D02*
X496850D01*
Y776570D01*
X511104D01*
Y783574D01*
D02*
G37*
G36*
X494310D02*
X480056D01*
Y776570D01*
X494310D01*
Y783574D01*
D02*
G37*
G36*
X1558844Y783484D02*
X1544590D01*
Y776480D01*
X1558844D01*
Y783484D01*
D02*
G37*
G36*
X1890950Y783974D02*
X1876696D01*
Y776970D01*
X1890950D01*
Y783974D01*
D02*
G37*
G36*
X1083304Y784754D02*
X1077050D01*
Y777750D01*
X1083304D01*
Y784754D01*
D02*
G37*
G36*
X1074510D02*
X1068256D01*
Y777750D01*
X1074510D01*
Y784754D01*
D02*
G37*
G36*
X1907744Y783974D02*
X1893490D01*
Y776970D01*
X1907744D01*
Y783974D01*
D02*
G37*
G36*
X1192450Y782704D02*
X1178196D01*
Y775700D01*
X1192450D01*
Y782704D01*
D02*
G37*
G36*
X2083764Y780780D02*
X2069510D01*
Y773776D01*
X2083764D01*
Y780780D01*
D02*
G37*
G36*
X2066970D02*
X2052716D01*
Y773776D01*
X2066970D01*
Y780780D01*
D02*
G37*
G36*
X1209244Y782704D02*
X1194990D01*
Y775700D01*
X1209244D01*
Y782704D01*
D02*
G37*
G36*
X1542050Y783484D02*
X1527796D01*
Y776480D01*
X1542050D01*
Y783484D01*
D02*
G37*
G36*
X859934Y783194D02*
X845680D01*
Y776190D01*
X859934D01*
Y783194D01*
D02*
G37*
G36*
X843140D02*
X828886D01*
Y776190D01*
X843140D01*
Y783194D01*
D02*
G37*
G36*
X1907744Y774430D02*
X1893490D01*
Y767426D01*
X1907744D01*
Y774430D01*
D02*
G37*
G36*
X1890950D02*
X1876696D01*
Y767426D01*
X1890950D01*
Y774430D01*
D02*
G37*
G36*
X511104Y774030D02*
X496850D01*
Y767026D01*
X511104D01*
Y774030D01*
D02*
G37*
G36*
X1074510Y775210D02*
X1068256D01*
Y768206D01*
X1074510D01*
Y775210D01*
D02*
G37*
G36*
X1258564D02*
X1252310D01*
Y768206D01*
X1258564D01*
Y775210D01*
D02*
G37*
G36*
X1249770D02*
X1243516D01*
Y768206D01*
X1249770D01*
Y775210D01*
D02*
G37*
G36*
X1083304D02*
X1077050D01*
Y768206D01*
X1083304D01*
Y775210D01*
D02*
G37*
G36*
X494310Y774030D02*
X480056D01*
Y767026D01*
X494310D01*
Y774030D01*
D02*
G37*
G36*
X1209244Y773160D02*
X1194990D01*
Y766156D01*
X1209244D01*
Y773160D01*
D02*
G37*
G36*
X1192450D02*
X1178196D01*
Y766156D01*
X1192450D01*
Y773160D01*
D02*
G37*
G36*
X685874Y768340D02*
X671620D01*
Y761336D01*
X685874D01*
Y768340D01*
D02*
G37*
G36*
X843140Y773650D02*
X828886D01*
Y766646D01*
X843140D01*
Y773650D01*
D02*
G37*
G36*
X1558844Y773940D02*
X1544590D01*
Y766936D01*
X1558844D01*
Y773940D01*
D02*
G37*
G36*
X1542050D02*
X1527796D01*
Y766936D01*
X1542050D01*
Y773940D01*
D02*
G37*
G36*
X859934Y773650D02*
X845680D01*
Y766646D01*
X859934D01*
Y773650D01*
D02*
G37*
G36*
X551630Y776080D02*
X545376D01*
Y769076D01*
X551630D01*
Y776080D01*
D02*
G37*
G36*
X385164D02*
X378910D01*
Y769076D01*
X385164D01*
Y776080D01*
D02*
G37*
G36*
X376370D02*
X370116D01*
Y769076D01*
X376370D01*
Y776080D01*
D02*
G37*
G36*
X560424D02*
X554170D01*
Y769076D01*
X560424D01*
Y776080D01*
D02*
G37*
G36*
X1948270Y776480D02*
X1942016D01*
Y769476D01*
X1948270D01*
Y776480D01*
D02*
G37*
G36*
X1781804D02*
X1775550D01*
Y769476D01*
X1781804D01*
Y776480D01*
D02*
G37*
G36*
X1773010D02*
X1766756D01*
Y769476D01*
X1773010D01*
Y776480D01*
D02*
G37*
G36*
X1608164Y775990D02*
X1601910D01*
Y768986D01*
X1608164D01*
Y775990D01*
D02*
G37*
G36*
X900460Y775700D02*
X894206D01*
Y768696D01*
X900460D01*
Y775700D01*
D02*
G37*
G36*
X733994D02*
X727740D01*
Y768696D01*
X733994D01*
Y775700D01*
D02*
G37*
G36*
X725200D02*
X718946D01*
Y768696D01*
X725200D01*
Y775700D01*
D02*
G37*
G36*
X909254D02*
X903000D01*
Y768696D01*
X909254D01*
Y775700D01*
D02*
G37*
G36*
X1599370Y775990D02*
X1593116D01*
Y768986D01*
X1599370D01*
Y775990D01*
D02*
G37*
G36*
X1432904D02*
X1426650D01*
Y768986D01*
X1432904D01*
Y775990D01*
D02*
G37*
G36*
X1424110D02*
X1417856D01*
Y768986D01*
X1424110D01*
Y775990D01*
D02*
G37*
G36*
X1249770Y784754D02*
X1243516D01*
Y777750D01*
X1249770D01*
Y784754D01*
D02*
G37*
G36*
X1517054Y817240D02*
X1512350D01*
Y801686D01*
X1517054D01*
Y817240D01*
D02*
G37*
G36*
X1433610D02*
X1428906D01*
Y801686D01*
X1433610D01*
Y817240D01*
D02*
G37*
G36*
X909960Y816950D02*
X905256D01*
Y801396D01*
X909960D01*
Y816950D01*
D02*
G37*
G36*
X1608870Y817240D02*
X1604166D01*
Y801686D01*
X1608870D01*
Y817240D01*
D02*
G37*
G36*
X469314Y817330D02*
X464610D01*
Y801776D01*
X469314D01*
Y817330D01*
D02*
G37*
G36*
X385870D02*
X381166D01*
Y801776D01*
X385870D01*
Y817330D01*
D02*
G37*
G36*
X1692314Y817240D02*
X1687610D01*
Y801686D01*
X1692314D01*
Y817240D01*
D02*
G37*
G36*
X1084010Y816460D02*
X1079306D01*
Y800906D01*
X1084010D01*
Y816460D01*
D02*
G37*
G36*
X669080Y807384D02*
X654826D01*
Y800380D01*
X669080D01*
Y807384D01*
D02*
G37*
G36*
X1716820Y807294D02*
X1702566D01*
Y800290D01*
X1716820D01*
Y807294D01*
D02*
G37*
G36*
X1167454Y816460D02*
X1162750D01*
Y800906D01*
X1167454D01*
Y816460D01*
D02*
G37*
G36*
X818144Y816950D02*
X813440D01*
Y801396D01*
X818144D01*
Y816950D01*
D02*
G37*
G36*
X734700D02*
X729996D01*
Y801396D01*
X734700D01*
Y816950D01*
D02*
G37*
G36*
X1259270Y816460D02*
X1254566D01*
Y800906D01*
X1259270D01*
Y816460D01*
D02*
G37*
G36*
X561130Y817330D02*
X556426D01*
Y801776D01*
X561130D01*
Y817330D01*
D02*
G37*
G36*
X859934Y812694D02*
X845680D01*
Y805690D01*
X859934D01*
Y812694D01*
D02*
G37*
G36*
X843140D02*
X828886D01*
Y805690D01*
X843140D01*
Y812694D01*
D02*
G37*
G36*
X1209244Y812204D02*
X1194990D01*
Y805200D01*
X1209244D01*
Y812204D01*
D02*
G37*
G36*
X1542050Y812984D02*
X1527796D01*
Y805980D01*
X1542050D01*
Y812984D01*
D02*
G37*
G36*
X511104Y813074D02*
X496850D01*
Y806070D01*
X511104D01*
Y813074D01*
D02*
G37*
G36*
X494310D02*
X480056D01*
Y806070D01*
X494310D01*
Y813074D01*
D02*
G37*
G36*
X1558844Y812984D02*
X1544590D01*
Y805980D01*
X1558844D01*
Y812984D01*
D02*
G37*
G36*
X1957770Y817730D02*
X1953066D01*
Y802176D01*
X1957770D01*
Y817730D01*
D02*
G37*
G36*
X1865954D02*
X1861250D01*
Y802176D01*
X1865954D01*
Y817730D01*
D02*
G37*
G36*
X1782510D02*
X1777806D01*
Y802176D01*
X1782510D01*
Y817730D01*
D02*
G37*
G36*
X2041214D02*
X2036510D01*
Y802176D01*
X2041214D01*
Y817730D01*
D02*
G37*
G36*
X1192450Y812204D02*
X1178196D01*
Y805200D01*
X1192450D01*
Y812204D01*
D02*
G37*
G36*
X2083764Y810280D02*
X2069510D01*
Y803276D01*
X2083764D01*
Y810280D01*
D02*
G37*
G36*
X2066970D02*
X2052716D01*
Y803276D01*
X2066970D01*
Y810280D01*
D02*
G37*
G36*
X376370Y785624D02*
X370116D01*
Y778620D01*
X376370D01*
Y785624D01*
D02*
G37*
G36*
X1608164Y785534D02*
X1601910D01*
Y778530D01*
X1608164D01*
Y785534D01*
D02*
G37*
G36*
X1599370D02*
X1593116D01*
Y778530D01*
X1599370D01*
Y785534D01*
D02*
G37*
G36*
X385164Y785624D02*
X378910D01*
Y778620D01*
X385164D01*
Y785624D01*
D02*
G37*
G36*
X1773010Y786024D02*
X1766756D01*
Y779020D01*
X1773010D01*
Y786024D01*
D02*
G37*
G36*
X560424Y785624D02*
X554170D01*
Y778620D01*
X560424D01*
Y785624D01*
D02*
G37*
G36*
X551630D02*
X545376D01*
Y778620D01*
X551630D01*
Y785624D01*
D02*
G37*
G36*
X733994Y785244D02*
X727740D01*
Y778240D01*
X733994D01*
Y785244D01*
D02*
G37*
G36*
X725200D02*
X718946D01*
Y778240D01*
X725200D01*
Y785244D01*
D02*
G37*
G36*
X1258564Y784754D02*
X1252310D01*
Y777750D01*
X1258564D01*
Y784754D01*
D02*
G37*
G36*
X900460Y785244D02*
X894206D01*
Y778240D01*
X900460D01*
Y785244D01*
D02*
G37*
G36*
X1432904Y785534D02*
X1426650D01*
Y778530D01*
X1432904D01*
Y785534D01*
D02*
G37*
G36*
X1424110D02*
X1417856D01*
Y778530D01*
X1424110D01*
Y785534D01*
D02*
G37*
G36*
X909254Y785244D02*
X903000D01*
Y778240D01*
X909254D01*
Y785244D01*
D02*
G37*
G36*
X1781804Y786024D02*
X1775550D01*
Y779020D01*
X1781804D01*
Y786024D01*
D02*
G37*
G36*
X511104Y803530D02*
X496850D01*
Y796526D01*
X511104D01*
Y803530D01*
D02*
G37*
G36*
X494310D02*
X480056D01*
Y796526D01*
X494310D01*
Y803530D01*
D02*
G37*
G36*
X1558844Y803440D02*
X1544590D01*
Y796436D01*
X1558844D01*
Y803440D01*
D02*
G37*
G36*
X1890950Y803930D02*
X1876696D01*
Y796926D01*
X1890950D01*
Y803930D01*
D02*
G37*
G36*
X1017910Y807004D02*
X1003656D01*
Y800000D01*
X1017910D01*
Y807004D01*
D02*
G37*
G36*
X1367220Y806514D02*
X1352966D01*
Y799510D01*
X1367220D01*
Y806514D01*
D02*
G37*
G36*
X1907744Y803930D02*
X1893490D01*
Y796926D01*
X1907744D01*
Y803930D01*
D02*
G37*
G36*
X1192450Y802660D02*
X1178196D01*
Y795656D01*
X1192450D01*
Y802660D01*
D02*
G37*
G36*
X1957064Y786024D02*
X1950810D01*
Y779020D01*
X1957064D01*
Y786024D01*
D02*
G37*
G36*
X1948270D02*
X1942016D01*
Y779020D01*
X1948270D01*
Y786024D01*
D02*
G37*
G36*
X1209244Y802660D02*
X1194990D01*
Y795656D01*
X1209244D01*
Y802660D01*
D02*
G37*
G36*
X1542050Y803440D02*
X1527796D01*
Y796436D01*
X1542050D01*
Y803440D01*
D02*
G37*
G36*
X859934Y803150D02*
X845680D01*
Y796146D01*
X859934D01*
Y803150D01*
D02*
G37*
G36*
X843140D02*
X828886D01*
Y796146D01*
X843140D01*
Y803150D01*
D02*
G37*
G36*
X1182454Y740260D02*
X1175450D01*
Y734006D01*
X1182454D01*
Y740260D01*
D02*
G37*
G36*
X1172910D02*
X1165906D01*
Y734006D01*
X1172910D01*
Y740260D01*
D02*
G37*
G36*
X1954614Y731324D02*
X1947610D01*
Y725070D01*
X1954614D01*
Y731324D01*
D02*
G37*
G36*
X1198310Y740260D02*
X1191306D01*
Y734006D01*
X1198310D01*
Y740260D01*
D02*
G37*
G36*
X833144Y740750D02*
X826140D01*
Y734496D01*
X833144D01*
Y740750D01*
D02*
G37*
G36*
X823600D02*
X816596D01*
Y734496D01*
X823600D01*
Y740750D01*
D02*
G37*
G36*
X1207854Y740260D02*
X1200850D01*
Y734006D01*
X1207854D01*
Y740260D01*
D02*
G37*
G36*
X1945070Y731324D02*
X1938066D01*
Y725070D01*
X1945070D01*
Y731324D01*
D02*
G37*
G36*
X382714Y730924D02*
X375710D01*
Y724670D01*
X382714D01*
Y730924D01*
D02*
G37*
G36*
X373170D02*
X366166D01*
Y724670D01*
X373170D01*
Y730924D01*
D02*
G37*
G36*
X1605714Y730834D02*
X1598710D01*
Y724580D01*
X1605714D01*
Y730834D01*
D02*
G37*
G36*
X548430Y730924D02*
X541426D01*
Y724670D01*
X548430D01*
Y730924D01*
D02*
G37*
G36*
X1779354Y731324D02*
X1772350D01*
Y725070D01*
X1779354D01*
Y731324D01*
D02*
G37*
G36*
X1769810D02*
X1762806D01*
Y725070D01*
X1769810D01*
Y731324D01*
D02*
G37*
G36*
X557974Y730924D02*
X550970D01*
Y724670D01*
X557974D01*
Y730924D01*
D02*
G37*
G36*
X1697770Y741040D02*
X1690766D01*
Y734786D01*
X1697770D01*
Y741040D01*
D02*
G37*
G36*
X1557454D02*
X1550450D01*
Y734786D01*
X1557454D01*
Y741040D01*
D02*
G37*
G36*
X1547910D02*
X1540906D01*
Y734786D01*
X1547910D01*
Y741040D01*
D02*
G37*
G36*
X1707314D02*
X1700310D01*
Y734786D01*
X1707314D01*
Y741040D01*
D02*
G37*
G36*
X474770Y741130D02*
X467766D01*
Y734876D01*
X474770D01*
Y741130D01*
D02*
G37*
G36*
X1732714Y741040D02*
X1725710D01*
Y734786D01*
X1732714D01*
Y741040D01*
D02*
G37*
G36*
X1723170D02*
X1716166D01*
Y734786D01*
X1723170D01*
Y741040D01*
D02*
G37*
G36*
X1532054D02*
X1525050D01*
Y734786D01*
X1532054D01*
Y741040D01*
D02*
G37*
G36*
X998860Y740750D02*
X991856D01*
Y734496D01*
X998860D01*
Y740750D01*
D02*
G37*
G36*
X858544D02*
X851540D01*
Y734496D01*
X858544D01*
Y740750D01*
D02*
G37*
G36*
X849000D02*
X841996D01*
Y734496D01*
X849000D01*
Y740750D01*
D02*
G37*
G36*
X1008404D02*
X1001400D01*
Y734496D01*
X1008404D01*
Y740750D01*
D02*
G37*
G36*
X1522510Y741040D02*
X1515506D01*
Y734786D01*
X1522510D01*
Y741040D01*
D02*
G37*
G36*
X1033804Y740750D02*
X1026800D01*
Y734496D01*
X1033804D01*
Y740750D01*
D02*
G37*
G36*
X1024260D02*
X1017256D01*
Y734496D01*
X1024260D01*
Y740750D01*
D02*
G37*
G36*
X1596170Y730834D02*
X1589166D01*
Y724580D01*
X1596170D01*
Y730834D01*
D02*
G37*
G36*
Y722040D02*
X1589166D01*
Y715786D01*
X1596170D01*
Y722040D01*
D02*
G37*
G36*
X1430454D02*
X1423450D01*
Y715786D01*
X1430454D01*
Y722040D01*
D02*
G37*
G36*
X1420910D02*
X1413906D01*
Y715786D01*
X1420910D01*
Y722040D01*
D02*
G37*
G36*
X1605714D02*
X1598710D01*
Y715786D01*
X1605714D01*
Y722040D01*
D02*
G37*
G36*
X548430Y722130D02*
X541426D01*
Y715876D01*
X548430D01*
Y722130D01*
D02*
G37*
G36*
X382714D02*
X375710D01*
Y715876D01*
X382714D01*
Y722130D01*
D02*
G37*
G36*
X373170D02*
X366166D01*
Y715876D01*
X373170D01*
Y722130D01*
D02*
G37*
G36*
X906804Y721750D02*
X899800D01*
Y715496D01*
X906804D01*
Y721750D01*
D02*
G37*
G36*
X1246570Y721260D02*
X1239566D01*
Y715006D01*
X1246570D01*
Y721260D01*
D02*
G37*
G36*
X1080854D02*
X1073850D01*
Y715006D01*
X1080854D01*
Y721260D01*
D02*
G37*
G36*
X1071310D02*
X1064306D01*
Y715006D01*
X1071310D01*
Y721260D01*
D02*
G37*
G36*
X1256114D02*
X1249110D01*
Y715006D01*
X1256114D01*
Y721260D01*
D02*
G37*
G36*
X897260Y721750D02*
X890256D01*
Y715496D01*
X897260D01*
Y721750D01*
D02*
G37*
G36*
X731544D02*
X724540D01*
Y715496D01*
X731544D01*
Y721750D01*
D02*
G37*
G36*
X722000D02*
X714996D01*
Y715496D01*
X722000D01*
Y721750D01*
D02*
G37*
G36*
X731544Y730544D02*
X724540D01*
Y724290D01*
X731544D01*
Y730544D01*
D02*
G37*
G36*
X722000D02*
X714996D01*
Y724290D01*
X722000D01*
Y730544D01*
D02*
G37*
G36*
X1256114Y730054D02*
X1249110D01*
Y723800D01*
X1256114D01*
Y730054D01*
D02*
G37*
G36*
X897260Y730544D02*
X890256D01*
Y724290D01*
X897260D01*
Y730544D01*
D02*
G37*
G36*
X1430454Y730834D02*
X1423450D01*
Y724580D01*
X1430454D01*
Y730834D01*
D02*
G37*
G36*
X1420910D02*
X1413906D01*
Y724580D01*
X1420910D01*
Y730834D01*
D02*
G37*
G36*
X906804Y730544D02*
X899800D01*
Y724290D01*
X906804D01*
Y730544D01*
D02*
G37*
G36*
X1246570Y730054D02*
X1239566D01*
Y723800D01*
X1246570D01*
Y730054D01*
D02*
G37*
G36*
X1779354Y722530D02*
X1772350D01*
Y716276D01*
X1779354D01*
Y722530D01*
D02*
G37*
G36*
X1769810D02*
X1762806D01*
Y716276D01*
X1769810D01*
Y722530D01*
D02*
G37*
G36*
X557974Y722130D02*
X550970D01*
Y715876D01*
X557974D01*
Y722130D01*
D02*
G37*
G36*
X1945070Y722530D02*
X1938066D01*
Y716276D01*
X1945070D01*
Y722530D01*
D02*
G37*
G36*
X1080854Y730054D02*
X1073850D01*
Y723800D01*
X1080854D01*
Y730054D01*
D02*
G37*
G36*
X1071310D02*
X1064306D01*
Y723800D01*
X1071310D01*
Y730054D01*
D02*
G37*
G36*
X1954614Y722530D02*
X1947610D01*
Y716276D01*
X1954614D01*
Y722530D01*
D02*
G37*
G36*
X484314Y741130D02*
X477310D01*
Y734876D01*
X484314D01*
Y741130D01*
D02*
G37*
G36*
X509714Y749924D02*
X502710D01*
Y743670D01*
X509714D01*
Y749924D01*
D02*
G37*
G36*
X500170D02*
X493166D01*
Y743670D01*
X500170D01*
Y749924D01*
D02*
G37*
G36*
X484314D02*
X477310D01*
Y743670D01*
X484314D01*
Y749924D01*
D02*
G37*
G36*
X650030D02*
X643026D01*
Y743670D01*
X650030D01*
Y749924D01*
D02*
G37*
G36*
X684974D02*
X677970D01*
Y743670D01*
X684974D01*
Y749924D01*
D02*
G37*
G36*
X675430D02*
X668426D01*
Y743670D01*
X675430D01*
Y749924D01*
D02*
G37*
G36*
X659574D02*
X652570D01*
Y743670D01*
X659574D01*
Y749924D01*
D02*
G37*
G36*
X474770D02*
X467766D01*
Y743670D01*
X474770D01*
Y749924D01*
D02*
G37*
G36*
X1557454Y749834D02*
X1550450D01*
Y743580D01*
X1557454D01*
Y749834D01*
D02*
G37*
G36*
X1547910D02*
X1540906D01*
Y743580D01*
X1547910D01*
Y749834D01*
D02*
G37*
G36*
X1532054D02*
X1525050D01*
Y743580D01*
X1532054D01*
Y749834D01*
D02*
G37*
G36*
X1697770D02*
X1690766D01*
Y743580D01*
X1697770D01*
Y749834D01*
D02*
G37*
G36*
X1732714D02*
X1725710D01*
Y743580D01*
X1732714D01*
Y749834D01*
D02*
G37*
G36*
X1723170D02*
X1716166D01*
Y743580D01*
X1723170D01*
Y749834D01*
D02*
G37*
G36*
X1707314D02*
X1700310D01*
Y743580D01*
X1707314D01*
Y749834D01*
D02*
G37*
G36*
X1017910Y767960D02*
X1003656D01*
Y760956D01*
X1017910D01*
Y767960D01*
D02*
G37*
G36*
X1384014Y767470D02*
X1369760D01*
Y760466D01*
X1384014D01*
Y767470D01*
D02*
G37*
G36*
X1367220D02*
X1352966D01*
Y760466D01*
X1367220D01*
Y767470D01*
D02*
G37*
G36*
X1034704Y767960D02*
X1020450D01*
Y760956D01*
X1034704D01*
Y767960D01*
D02*
G37*
G36*
X669080Y768340D02*
X654826D01*
Y761336D01*
X669080D01*
Y768340D01*
D02*
G37*
G36*
X1733614Y768250D02*
X1719360D01*
Y761246D01*
X1733614D01*
Y768250D01*
D02*
G37*
G36*
X1716820D02*
X1702566D01*
Y761246D01*
X1716820D01*
Y768250D01*
D02*
G37*
G36*
X2081614Y750324D02*
X2074610D01*
Y744070D01*
X2081614D01*
Y750324D01*
D02*
G37*
G36*
X1896810D02*
X1889806D01*
Y744070D01*
X1896810D01*
Y750324D01*
D02*
G37*
G36*
X1880954D02*
X1873950D01*
Y744070D01*
X1880954D01*
Y750324D01*
D02*
G37*
G36*
X1871410D02*
X1864406D01*
Y744070D01*
X1871410D01*
Y750324D01*
D02*
G37*
G36*
X1906354D02*
X1899350D01*
Y744070D01*
X1906354D01*
Y750324D01*
D02*
G37*
G36*
X2072070D02*
X2065066D01*
Y744070D01*
X2072070D01*
Y750324D01*
D02*
G37*
G36*
X2056214D02*
X2049210D01*
Y744070D01*
X2056214D01*
Y750324D01*
D02*
G37*
G36*
X2046670D02*
X2039666D01*
Y744070D01*
X2046670D01*
Y750324D01*
D02*
G37*
G36*
X1522510Y749834D02*
X1515506D01*
Y743580D01*
X1522510D01*
Y749834D01*
D02*
G37*
G36*
X2046670Y741530D02*
X2039666D01*
Y735276D01*
X2046670D01*
Y741530D01*
D02*
G37*
G36*
X1906354D02*
X1899350D01*
Y735276D01*
X1906354D01*
Y741530D01*
D02*
G37*
G36*
X1896810D02*
X1889806D01*
Y735276D01*
X1896810D01*
Y741530D01*
D02*
G37*
G36*
X2056214D02*
X2049210D01*
Y735276D01*
X2056214D01*
Y741530D01*
D02*
G37*
G36*
X1172910Y749054D02*
X1165906D01*
Y742800D01*
X1172910D01*
Y749054D01*
D02*
G37*
G36*
X2081614Y741530D02*
X2074610D01*
Y735276D01*
X2081614D01*
Y741530D01*
D02*
G37*
G36*
X2072070D02*
X2065066D01*
Y735276D01*
X2072070D01*
Y741530D01*
D02*
G37*
G36*
X1880954D02*
X1873950D01*
Y735276D01*
X1880954D01*
Y741530D01*
D02*
G37*
G36*
X650030Y741130D02*
X643026D01*
Y734876D01*
X650030D01*
Y741130D01*
D02*
G37*
G36*
X509714D02*
X502710D01*
Y734876D01*
X509714D01*
Y741130D01*
D02*
G37*
G36*
X500170D02*
X493166D01*
Y734876D01*
X500170D01*
Y741130D01*
D02*
G37*
G36*
X659574D02*
X652570D01*
Y734876D01*
X659574D01*
Y741130D01*
D02*
G37*
G36*
X1871410Y741530D02*
X1864406D01*
Y735276D01*
X1871410D01*
Y741530D01*
D02*
G37*
G36*
X684974Y741130D02*
X677970D01*
Y734876D01*
X684974D01*
Y741130D01*
D02*
G37*
G36*
X675430D02*
X668426D01*
Y734876D01*
X675430D01*
Y741130D01*
D02*
G37*
G36*
X858544Y749544D02*
X851540D01*
Y743290D01*
X858544D01*
Y749544D01*
D02*
G37*
G36*
X849000D02*
X841996D01*
Y743290D01*
X849000D01*
Y749544D01*
D02*
G37*
G36*
X833144D02*
X826140D01*
Y743290D01*
X833144D01*
Y749544D01*
D02*
G37*
G36*
X998860D02*
X991856D01*
Y743290D01*
X998860D01*
Y749544D01*
D02*
G37*
G36*
X1033804D02*
X1026800D01*
Y743290D01*
X1033804D01*
Y749544D01*
D02*
G37*
G36*
X1024260D02*
X1017256D01*
Y743290D01*
X1024260D01*
Y749544D01*
D02*
G37*
G36*
X1008404D02*
X1001400D01*
Y743290D01*
X1008404D01*
Y749544D01*
D02*
G37*
G36*
X823600D02*
X816596D01*
Y743290D01*
X823600D01*
Y749544D01*
D02*
G37*
G36*
X1207854Y749054D02*
X1200850D01*
Y742800D01*
X1207854D01*
Y749054D01*
D02*
G37*
G36*
X1198310D02*
X1191306D01*
Y742800D01*
X1198310D01*
Y749054D01*
D02*
G37*
G36*
X1182454D02*
X1175450D01*
Y742800D01*
X1182454D01*
Y749054D01*
D02*
G37*
G36*
X1348170D02*
X1341166D01*
Y742800D01*
X1348170D01*
Y749054D01*
D02*
G37*
G36*
X1383114D02*
X1376110D01*
Y742800D01*
X1383114D01*
Y749054D01*
D02*
G37*
G36*
X1373570D02*
X1366566D01*
Y742800D01*
X1373570D01*
Y749054D01*
D02*
G37*
G36*
X1357714D02*
X1350710D01*
Y742800D01*
X1357714D01*
Y749054D01*
D02*
G37*
G36*
X802344Y935494D02*
X775340D01*
Y892540D01*
X802344D01*
Y935494D01*
D02*
G37*
G36*
X772800D02*
X745796D01*
Y892540D01*
X772800D01*
Y935494D01*
D02*
G37*
G36*
X1326914Y935004D02*
X1299910D01*
Y892050D01*
X1326914D01*
Y935004D01*
D02*
G37*
G36*
X948060Y935494D02*
X921056D01*
Y892540D01*
X948060D01*
Y935494D01*
D02*
G37*
G36*
X1501254Y935784D02*
X1474250D01*
Y892830D01*
X1501254D01*
Y935784D01*
D02*
G37*
G36*
X1471710D02*
X1444706D01*
Y892830D01*
X1471710D01*
Y935784D01*
D02*
G37*
G36*
X977604Y935494D02*
X950600D01*
Y892540D01*
X977604D01*
Y935494D01*
D02*
G37*
G36*
X1297370Y935004D02*
X1270366D01*
Y892050D01*
X1297370D01*
Y935004D01*
D02*
G37*
G36*
X1907630Y893974D02*
X1901376D01*
Y886970D01*
X1907630D01*
Y893974D01*
D02*
G37*
G36*
X1760164D02*
X1753910D01*
Y886970D01*
X1760164D01*
Y893974D01*
D02*
G37*
G36*
X1746600Y900400D02*
Y893974D01*
X1745116D01*
Y886970D01*
X1751370D01*
Y893974D01*
X1748220D01*
Y898775D01*
X1746600Y900400D01*
D02*
G37*
G36*
X1916424Y893974D02*
X1910170D01*
Y886970D01*
X1916424D01*
Y893974D01*
D02*
G37*
G36*
X1151654Y935004D02*
X1124650D01*
Y892050D01*
X1151654D01*
Y935004D01*
D02*
G37*
G36*
X1122110D02*
X1095106D01*
Y892050D01*
X1122110D01*
Y935004D01*
D02*
G37*
G36*
X1935424Y893974D02*
X1929170D01*
Y886970D01*
X1935424D01*
Y893974D01*
D02*
G37*
G36*
X1646970Y935784D02*
X1619966D01*
Y892830D01*
X1646970D01*
Y935784D01*
D02*
G37*
G36*
X1061314Y914910D02*
X1054310D01*
Y900656D01*
X1061314D01*
Y914910D01*
D02*
G37*
G36*
X1031814D02*
X1024810D01*
Y900656D01*
X1031814D01*
Y914910D01*
D02*
G37*
G36*
X2025414Y936274D02*
X1998410D01*
Y893320D01*
X2025414D01*
Y936274D01*
D02*
G37*
G36*
X1197880Y914910D02*
X1190876D01*
Y900656D01*
X1197880D01*
Y914910D01*
D02*
G37*
G36*
X682504Y915400D02*
X675500D01*
Y901146D01*
X682504D01*
Y915400D01*
D02*
G37*
G36*
X1236924Y914910D02*
X1229920D01*
Y900656D01*
X1236924D01*
Y914910D01*
D02*
G37*
G36*
X1207424D02*
X1200420D01*
Y900656D01*
X1207424D01*
Y914910D01*
D02*
G37*
G36*
X1995870Y936274D02*
X1968866D01*
Y893320D01*
X1995870D01*
Y936274D01*
D02*
G37*
G36*
X453514Y935874D02*
X426510D01*
Y892920D01*
X453514D01*
Y935874D01*
D02*
G37*
G36*
X423970D02*
X396966D01*
Y892920D01*
X423970D01*
Y935874D01*
D02*
G37*
G36*
X1676514Y935784D02*
X1649510D01*
Y892830D01*
X1676514D01*
Y935784D01*
D02*
G37*
G36*
X599230Y935874D02*
X572226D01*
Y892920D01*
X599230D01*
Y935874D01*
D02*
G37*
G36*
X1850154Y936274D02*
X1823150D01*
Y893320D01*
X1850154D01*
Y936274D01*
D02*
G37*
G36*
X1820610D02*
X1793606D01*
Y893320D01*
X1820610D01*
Y936274D01*
D02*
G37*
G36*
X628774Y935874D02*
X601770D01*
Y892920D01*
X628774D01*
Y935874D01*
D02*
G37*
G36*
X1209130Y892704D02*
X1202876D01*
Y885700D01*
X1209130D01*
Y892704D01*
D02*
G37*
G36*
X1061664D02*
X1055410D01*
Y885700D01*
X1061664D01*
Y892704D01*
D02*
G37*
G36*
X1033870D02*
X1027616D01*
Y885700D01*
X1033870D01*
Y892704D01*
D02*
G37*
G36*
X1217924D02*
X1211670D01*
Y885700D01*
X1217924D01*
Y892704D01*
D02*
G37*
G36*
X699560Y899219D02*
Y893194D01*
X697306D01*
Y886190D01*
X703560D01*
Y893194D01*
X700890D01*
Y897885D01*
X699560Y899219D01*
D02*
G37*
G36*
X684560Y893194D02*
X678306D01*
Y886190D01*
X684560D01*
Y893194D01*
D02*
G37*
G36*
X1236924Y892704D02*
X1230670D01*
Y885700D01*
X1236924D01*
Y892704D01*
D02*
G37*
G36*
X1935424Y884430D02*
X1929170D01*
Y877426D01*
X1935424D01*
Y884430D01*
D02*
G37*
G36*
X538784Y884030D02*
X532530D01*
Y877026D01*
X538784D01*
Y884030D01*
D02*
G37*
G36*
X519784D02*
X513530D01*
Y877026D01*
X519784D01*
Y884030D01*
D02*
G37*
G36*
X510990D02*
X504736D01*
Y877026D01*
X510990D01*
Y884030D01*
D02*
G37*
G36*
X1732370Y884430D02*
X1726116D01*
Y877426D01*
X1732370D01*
Y884430D01*
D02*
G37*
G36*
X1916424D02*
X1910170D01*
Y877426D01*
X1916424D01*
Y884430D01*
D02*
G37*
G36*
X1907630D02*
X1901376D01*
Y877426D01*
X1907630D01*
Y884430D01*
D02*
G37*
G36*
X1760164D02*
X1753910D01*
Y877426D01*
X1760164D01*
Y884430D01*
D02*
G37*
G36*
X712354Y893194D02*
X706100D01*
Y886190D01*
X712354D01*
Y893194D01*
D02*
G37*
G36*
X363524Y893574D02*
X357270D01*
Y886570D01*
X363524D01*
Y893574D01*
D02*
G37*
G36*
X335730D02*
X329476D01*
Y886570D01*
X335730D01*
Y893574D01*
D02*
G37*
G36*
X1586524Y893484D02*
X1580270D01*
Y886480D01*
X1586524D01*
Y893484D01*
D02*
G37*
G36*
X510990Y893574D02*
X504736D01*
Y886570D01*
X510990D01*
Y893574D01*
D02*
G37*
G36*
X1732370Y893974D02*
X1726116D01*
Y886970D01*
X1732370D01*
Y893974D01*
D02*
G37*
G36*
X538784Y893574D02*
X532530D01*
Y886570D01*
X538784D01*
Y893574D01*
D02*
G37*
G36*
X519784D02*
X513530D01*
Y886570D01*
X519784D01*
Y893574D01*
D02*
G37*
G36*
X1567524Y893484D02*
X1561270D01*
Y886480D01*
X1567524D01*
Y893484D01*
D02*
G37*
G36*
X887614Y893194D02*
X881360D01*
Y886190D01*
X887614D01*
Y893194D01*
D02*
G37*
G36*
X868614D02*
X862360D01*
Y886190D01*
X868614D01*
Y893194D01*
D02*
G37*
G36*
X859820D02*
X853566D01*
Y886190D01*
X859820D01*
Y893194D01*
D02*
G37*
G36*
X1383470Y893484D02*
X1377216D01*
Y886480D01*
X1383470D01*
Y893484D01*
D02*
G37*
G36*
X1558730D02*
X1552476D01*
Y886480D01*
X1558730D01*
Y893484D01*
D02*
G37*
G36*
X1411264D02*
X1405010D01*
Y886480D01*
X1411264D01*
Y893484D01*
D02*
G37*
G36*
X1397990Y898628D02*
Y893484D01*
X1396216D01*
Y886480D01*
X1402470D01*
Y893484D01*
X1398620D01*
Y897995D01*
X1397990Y898628D01*
D02*
G37*
G36*
X712004Y915400D02*
X705000D01*
Y901146D01*
X712004D01*
Y915400D01*
D02*
G37*
G36*
X713274Y958580D02*
X706270D01*
Y944326D01*
X713274D01*
Y958580D01*
D02*
G37*
G36*
X703730D02*
X696726D01*
Y944326D01*
X703730D01*
Y958580D01*
D02*
G37*
G36*
X1062584Y958090D02*
X1055580D01*
Y943836D01*
X1062584D01*
Y958090D01*
D02*
G37*
G36*
X1402640Y958870D02*
X1395636D01*
Y944616D01*
X1402640D01*
Y958870D01*
D02*
G37*
G36*
X364444Y958960D02*
X357440D01*
Y944706D01*
X364444D01*
Y958960D01*
D02*
G37*
G36*
X354900D02*
X347896D01*
Y944706D01*
X354900D01*
Y958960D01*
D02*
G37*
G36*
X1412184Y958870D02*
X1405180D01*
Y944616D01*
X1412184D01*
Y958870D01*
D02*
G37*
G36*
X1053040Y958090D02*
X1046036D01*
Y943836D01*
X1053040D01*
Y958090D01*
D02*
G37*
G36*
X538784Y932574D02*
X531780D01*
Y918320D01*
X538784D01*
Y932574D01*
D02*
G37*
G36*
X509284D02*
X502280D01*
Y918320D01*
X509284D01*
Y932574D01*
D02*
G37*
G36*
X499740D02*
X492736D01*
Y918320D01*
X499740D01*
Y932574D01*
D02*
G37*
G36*
X1759814Y932974D02*
X1752810D01*
Y918720D01*
X1759814D01*
Y932974D01*
D02*
G37*
G36*
X1935424D02*
X1928420D01*
Y918720D01*
X1935424D01*
Y932974D01*
D02*
G37*
G36*
X1905924D02*
X1898920D01*
Y918720D01*
X1905924D01*
Y932974D01*
D02*
G37*
G36*
X1896380D02*
X1889376D01*
Y918720D01*
X1896380D01*
Y932974D01*
D02*
G37*
G36*
X1751540Y959360D02*
X1744536D01*
Y945106D01*
X1751540D01*
Y959360D01*
D02*
G37*
G36*
X1761084Y976154D02*
X1754080D01*
Y961900D01*
X1761084D01*
Y976154D01*
D02*
G37*
G36*
X1751540D02*
X1744536D01*
Y961900D01*
X1751540D01*
Y976154D01*
D02*
G37*
G36*
X364444Y975754D02*
X357440D01*
Y961500D01*
X364444D01*
Y975754D01*
D02*
G37*
G36*
X1033084Y974884D02*
X1016536D01*
Y972371D01*
X1013314D01*
X1013031Y972588D01*
X1011115Y973381D01*
X1009060Y973652D01*
X1007004Y973381D01*
X1005089Y972588D01*
X1003444Y971326D01*
X1002182Y969681D01*
X1001389Y967766D01*
X1001118Y965710D01*
X1001389Y963654D01*
X1002182Y961739D01*
X1003444Y960094D01*
X1003574Y959995D01*
Y958725D01*
X1003444Y958626D01*
X1002182Y956981D01*
X1001389Y955066D01*
X1001118Y953010D01*
X1001389Y950955D01*
X1002182Y949039D01*
X1003444Y947394D01*
X1005089Y946132D01*
X1007004Y945339D01*
X1009060Y945068D01*
X1011115Y945339D01*
X1013031Y946132D01*
X1013314Y946349D01*
X1016536D01*
Y943836D01*
X1033084D01*
Y974884D01*
D02*
G37*
G36*
X1731584Y976154D02*
X1715036D01*
Y973641D01*
X1711814D01*
X1711531Y973858D01*
X1709615Y974651D01*
X1707560Y974922D01*
X1705504Y974651D01*
X1703589Y973858D01*
X1701944Y972596D01*
X1700682Y970951D01*
X1699889Y969035D01*
X1699618Y966980D01*
X1699889Y964924D01*
X1700682Y963009D01*
X1701944Y961364D01*
X1702074Y961265D01*
Y959995D01*
X1701944Y959896D01*
X1700682Y958251D01*
X1699889Y956336D01*
X1699618Y954280D01*
X1699889Y952225D01*
X1700682Y950309D01*
X1701944Y948664D01*
X1703589Y947402D01*
X1705504Y946609D01*
X1707560Y946338D01*
X1709615Y946609D01*
X1711531Y947402D01*
X1711814Y947619D01*
X1715036D01*
Y945106D01*
X1731584D01*
Y976154D01*
D02*
G37*
G36*
X1382684Y975664D02*
X1366136D01*
Y973151D01*
X1362913D01*
X1362631Y973368D01*
X1360715Y974161D01*
X1358660Y974432D01*
X1356604Y974161D01*
X1354689Y973368D01*
X1353044Y972106D01*
X1351782Y970461D01*
X1350988Y968545D01*
X1350718Y966490D01*
X1350988Y964434D01*
X1351782Y962519D01*
X1353044Y960874D01*
X1353173Y960775D01*
Y959505D01*
X1353044Y959406D01*
X1351782Y957761D01*
X1350988Y955845D01*
X1350718Y953790D01*
X1350988Y951734D01*
X1351782Y949819D01*
X1353044Y948174D01*
X1354689Y946912D01*
X1356604Y946118D01*
X1358660Y945848D01*
X1360715Y946118D01*
X1362631Y946912D01*
X1362913Y947129D01*
X1366136D01*
Y944616D01*
X1382684D01*
Y975664D01*
D02*
G37*
G36*
X683774Y975374D02*
X667226D01*
Y972861D01*
X664004D01*
X663721Y973078D01*
X661805Y973871D01*
X659750Y974142D01*
X657694Y973871D01*
X655779Y973078D01*
X654134Y971816D01*
X652872Y970171D01*
X652079Y968255D01*
X651808Y966200D01*
X652079Y964145D01*
X652872Y962229D01*
X654134Y960584D01*
X654264Y960485D01*
Y959215D01*
X654134Y959116D01*
X652872Y957471D01*
X652079Y955555D01*
X651808Y953500D01*
X652079Y951444D01*
X652872Y949529D01*
X654134Y947884D01*
X655779Y946622D01*
X657694Y945829D01*
X659750Y945558D01*
X661805Y945829D01*
X663721Y946622D01*
X664004Y946839D01*
X667226D01*
Y944326D01*
X683774D01*
Y975374D01*
D02*
G37*
G36*
X354900Y975754D02*
X347896D01*
Y961500D01*
X354900D01*
Y975754D01*
D02*
G37*
G36*
X1062584Y974884D02*
X1055580D01*
Y960630D01*
X1062584D01*
Y974884D01*
D02*
G37*
G36*
X1053040D02*
X1046036D01*
Y960630D01*
X1053040D01*
Y974884D01*
D02*
G37*
G36*
X1761084Y959360D02*
X1754080D01*
Y945106D01*
X1761084D01*
Y959360D01*
D02*
G37*
G36*
X703730Y975374D02*
X696726D01*
Y961120D01*
X703730D01*
Y975374D01*
D02*
G37*
G36*
X1412184Y975664D02*
X1405180D01*
Y961410D01*
X1412184D01*
Y975664D01*
D02*
G37*
G36*
X1402640D02*
X1395636D01*
Y961410D01*
X1402640D01*
Y975664D01*
D02*
G37*
G36*
X713274Y975374D02*
X706270D01*
Y961120D01*
X713274D01*
Y975374D01*
D02*
G37*
G36*
X499740Y915780D02*
X492736D01*
Y901526D01*
X499740D01*
Y915780D01*
D02*
G37*
G36*
X363174D02*
X356170D01*
Y901526D01*
X363174D01*
Y915780D01*
D02*
G37*
G36*
X333674D02*
X326670D01*
Y901526D01*
X333674D01*
Y915780D01*
D02*
G37*
G36*
X509284D02*
X502280D01*
Y901526D01*
X509284D01*
Y915780D01*
D02*
G37*
G36*
X1759814Y916180D02*
X1752810D01*
Y901926D01*
X1759814D01*
Y916180D01*
D02*
G37*
G36*
X1730314D02*
X1723310D01*
Y901926D01*
X1730314D01*
Y916180D01*
D02*
G37*
G36*
X538784Y915780D02*
X531780D01*
Y901526D01*
X538784D01*
Y915780D01*
D02*
G37*
G36*
X1586524Y915690D02*
X1579520D01*
Y901436D01*
X1586524D01*
Y915690D01*
D02*
G37*
G36*
X887614Y915400D02*
X880610D01*
Y901146D01*
X887614D01*
Y915400D01*
D02*
G37*
G36*
X858114D02*
X851110D01*
Y901146D01*
X858114D01*
Y915400D01*
D02*
G37*
G36*
X848570D02*
X841566D01*
Y901146D01*
X848570D01*
Y915400D01*
D02*
G37*
G36*
X1381414Y915690D02*
X1374410D01*
Y901436D01*
X1381414D01*
Y915690D01*
D02*
G37*
G36*
X1557024D02*
X1550020D01*
Y901436D01*
X1557024D01*
Y915690D01*
D02*
G37*
G36*
X1547480D02*
X1540476D01*
Y901436D01*
X1547480D01*
Y915690D01*
D02*
G37*
G36*
X1410914D02*
X1403910D01*
Y901436D01*
X1410914D01*
Y915690D01*
D02*
G37*
G36*
X1896380Y916180D02*
X1889376D01*
Y901926D01*
X1896380D01*
Y916180D01*
D02*
G37*
G36*
X1410914Y932484D02*
X1403910D01*
Y918230D01*
X1410914D01*
Y932484D01*
D02*
G37*
G36*
X887614Y932194D02*
X880610D01*
Y917940D01*
X887614D01*
Y932194D01*
D02*
G37*
G36*
X858114D02*
X851110D01*
Y917940D01*
X858114D01*
Y932194D01*
D02*
G37*
G36*
X1547480Y932484D02*
X1540476D01*
Y918230D01*
X1547480D01*
Y932484D01*
D02*
G37*
G36*
X363174Y932574D02*
X356170D01*
Y918320D01*
X363174D01*
Y932574D01*
D02*
G37*
G36*
X1586524Y932484D02*
X1579520D01*
Y918230D01*
X1586524D01*
Y932484D01*
D02*
G37*
G36*
X1557024D02*
X1550020D01*
Y918230D01*
X1557024D01*
Y932484D01*
D02*
G37*
G36*
X848570Y932194D02*
X841566D01*
Y917940D01*
X848570D01*
Y932194D01*
D02*
G37*
G36*
X1061314Y931704D02*
X1054310D01*
Y917450D01*
X1061314D01*
Y931704D01*
D02*
G37*
G36*
X1935424Y916180D02*
X1928420D01*
Y901926D01*
X1935424D01*
Y916180D01*
D02*
G37*
G36*
X1905924D02*
X1898920D01*
Y901926D01*
X1905924D01*
Y916180D01*
D02*
G37*
G36*
X1197880Y931704D02*
X1190876D01*
Y917450D01*
X1197880D01*
Y931704D01*
D02*
G37*
G36*
X712004Y932194D02*
X705000D01*
Y917940D01*
X712004D01*
Y932194D01*
D02*
G37*
G36*
X1236924Y931704D02*
X1229920D01*
Y917450D01*
X1236924D01*
Y931704D01*
D02*
G37*
G36*
X1207424D02*
X1200420D01*
Y917450D01*
X1207424D01*
Y931704D01*
D02*
G37*
G36*
X525570Y838824D02*
X518566D01*
Y832570D01*
X525570D01*
Y838824D01*
D02*
G37*
G36*
X1403784Y838734D02*
X1396780D01*
Y832480D01*
X1403784D01*
Y838734D01*
D02*
G37*
G36*
X1394240D02*
X1387236D01*
Y832480D01*
X1394240D01*
Y838734D01*
D02*
G37*
G36*
X535114Y838824D02*
X528110D01*
Y832570D01*
X535114D01*
Y838824D01*
D02*
G37*
G36*
X1922210Y839224D02*
X1915206D01*
Y832970D01*
X1922210D01*
Y839224D01*
D02*
G37*
G36*
X356044Y838824D02*
X349040D01*
Y832570D01*
X356044D01*
Y838824D01*
D02*
G37*
G36*
X346500D02*
X339496D01*
Y832570D01*
X346500D01*
Y838824D01*
D02*
G37*
G36*
X1582854Y838734D02*
X1575850D01*
Y832480D01*
X1582854D01*
Y838734D01*
D02*
G37*
G36*
X874400Y838444D02*
X867396D01*
Y832190D01*
X874400D01*
Y838444D01*
D02*
G37*
G36*
X1054184Y837954D02*
X1047180D01*
Y831700D01*
X1054184D01*
Y837954D01*
D02*
G37*
G36*
X1044640D02*
X1037636D01*
Y831700D01*
X1044640D01*
Y837954D01*
D02*
G37*
G36*
X883944Y838444D02*
X876940D01*
Y832190D01*
X883944D01*
Y838444D01*
D02*
G37*
G36*
X1573310Y838734D02*
X1566306D01*
Y832480D01*
X1573310D01*
Y838734D01*
D02*
G37*
G36*
X704874Y838444D02*
X697870D01*
Y832190D01*
X704874D01*
Y838444D01*
D02*
G37*
G36*
X695330D02*
X688326D01*
Y832190D01*
X695330D01*
Y838444D01*
D02*
G37*
G36*
X1931754Y839224D02*
X1924750D01*
Y832970D01*
X1931754D01*
Y839224D01*
D02*
G37*
G36*
X1850154Y890780D02*
X1793606D01*
Y847826D01*
X1799319D01*
X1799418Y847678D01*
X1801080Y846568D01*
X1801770Y846431D01*
Y851300D01*
X1804310D01*
Y846431D01*
X1805001Y846568D01*
X1806662Y847678D01*
X1806761Y847826D01*
X1818160D01*
X1818259Y847678D01*
X1819920Y846568D01*
X1820611Y846431D01*
Y851300D01*
X1823151D01*
Y846431D01*
X1823841Y846568D01*
X1825503Y847678D01*
X1825602Y847826D01*
X1837419D01*
X1837518Y847678D01*
X1839180Y846568D01*
X1839870Y846431D01*
Y851300D01*
X1842410D01*
Y846431D01*
X1843101Y846568D01*
X1844763Y847678D01*
X1844861Y847826D01*
X1850154D01*
Y890780D01*
D02*
G37*
G36*
X628774Y890380D02*
X572226D01*
Y847426D01*
X577939D01*
X578038Y847278D01*
X579700Y846168D01*
X580390Y846030D01*
Y850900D01*
X582930D01*
Y846030D01*
X583620Y846168D01*
X585282Y847278D01*
X585381Y847426D01*
X596780D01*
X596878Y847278D01*
X598540Y846168D01*
X599230Y846030D01*
Y850900D01*
X601770D01*
Y846030D01*
X602461Y846168D01*
X604123Y847278D01*
X604221Y847426D01*
X616039D01*
X616138Y847278D01*
X617800Y846168D01*
X618490Y846030D01*
Y850900D01*
X621030D01*
Y846030D01*
X621721Y846168D01*
X623382Y847278D01*
X623481Y847426D01*
X628774D01*
Y890380D01*
D02*
G37*
G36*
X453514D02*
X396966D01*
Y847426D01*
X402679D01*
X402778Y847278D01*
X404440Y846168D01*
X405130Y846030D01*
Y850900D01*
X407670D01*
Y846030D01*
X408360Y846168D01*
X410022Y847278D01*
X410121Y847426D01*
X421519D01*
X421618Y847278D01*
X423280Y846168D01*
X423970Y846030D01*
Y850900D01*
X426510D01*
Y846030D01*
X427201Y846168D01*
X428862Y847278D01*
X428961Y847426D01*
X440779D01*
X440878Y847278D01*
X442540Y846168D01*
X443230Y846030D01*
Y850900D01*
X445770D01*
Y846030D01*
X446460Y846168D01*
X448122Y847278D01*
X448221Y847426D01*
X453514D01*
Y890380D01*
D02*
G37*
G36*
X2025414Y890780D02*
X1968866D01*
Y847826D01*
X1974579D01*
X1974678Y847678D01*
X1976340Y846568D01*
X1977030Y846431D01*
Y851300D01*
X1979570D01*
Y846431D01*
X1980261Y846568D01*
X1981922Y847678D01*
X1982021Y847826D01*
X1993420D01*
X1993519Y847678D01*
X1995180Y846568D01*
X1995871Y846431D01*
Y851300D01*
X1998411D01*
Y846431D01*
X1999101Y846568D01*
X2000763Y847678D01*
X2000862Y847826D01*
X2012679D01*
X2012778Y847678D01*
X2014440Y846568D01*
X2015130Y846431D01*
Y851300D01*
X2017670D01*
Y846431D01*
X2018361Y846568D01*
X2020022Y847678D01*
X2020121Y847826D01*
X2025414D01*
Y890780D01*
D02*
G37*
G36*
X1209130Y857760D02*
X1202876D01*
Y850756D01*
X1209130D01*
Y857760D01*
D02*
G37*
G36*
X1061664D02*
X1055410D01*
Y850756D01*
X1061664D01*
Y857760D01*
D02*
G37*
G36*
X1033870D02*
X1027616D01*
Y850756D01*
X1033870D01*
Y857760D01*
D02*
G37*
G36*
X1676514Y890290D02*
X1619966D01*
Y847336D01*
X1625679D01*
X1625778Y847188D01*
X1627440Y846078D01*
X1628130Y845940D01*
Y850810D01*
X1630670D01*
Y845940D01*
X1631360Y846078D01*
X1633022Y847188D01*
X1633121Y847336D01*
X1644519D01*
X1644618Y847188D01*
X1646280Y846078D01*
X1646970Y845940D01*
Y850810D01*
X1649510D01*
Y845940D01*
X1650201Y846078D01*
X1651862Y847188D01*
X1651961Y847336D01*
X1663779D01*
X1663878Y847188D01*
X1665540Y846078D01*
X1666230Y845940D01*
Y850810D01*
X1668770D01*
Y845940D01*
X1669460Y846078D01*
X1671122Y847188D01*
X1671221Y847336D01*
X1676514D01*
Y890290D01*
D02*
G37*
G36*
X1151654Y889510D02*
X1095106D01*
Y846556D01*
X1100819D01*
X1100918Y846408D01*
X1102580Y845298D01*
X1103270Y845160D01*
Y850030D01*
X1105810D01*
Y845160D01*
X1106500Y845298D01*
X1108162Y846408D01*
X1108261Y846556D01*
X1119659D01*
X1119758Y846408D01*
X1121420Y845298D01*
X1122111Y845160D01*
Y850030D01*
X1124650D01*
Y845160D01*
X1125341Y845298D01*
X1127002Y846408D01*
X1127102Y846556D01*
X1138919D01*
X1139018Y846408D01*
X1140680Y845298D01*
X1141370Y845160D01*
Y850030D01*
X1143910D01*
Y845160D01*
X1144601Y845298D01*
X1146262Y846408D01*
X1146361Y846556D01*
X1151654D01*
Y889510D01*
D02*
G37*
G36*
X1752684Y839224D02*
X1745680D01*
Y832970D01*
X1752684D01*
Y839224D01*
D02*
G37*
G36*
X1743140D02*
X1736136D01*
Y832970D01*
X1743140D01*
Y839224D01*
D02*
G37*
G36*
X1326914Y889510D02*
X1270366D01*
Y846556D01*
X1276079D01*
X1276178Y846408D01*
X1277840Y845298D01*
X1278530Y845160D01*
Y850030D01*
X1281070D01*
Y845160D01*
X1281761Y845298D01*
X1283422Y846408D01*
X1283521Y846556D01*
X1294919D01*
X1295018Y846408D01*
X1296680Y845298D01*
X1297370Y845160D01*
Y850030D01*
X1299910D01*
Y845160D01*
X1300601Y845298D01*
X1302263Y846408D01*
X1302361Y846556D01*
X1314179D01*
X1314278Y846408D01*
X1315940Y845298D01*
X1316630Y845160D01*
Y850030D01*
X1319170D01*
Y845160D01*
X1319861Y845298D01*
X1321522Y846408D01*
X1321621Y846556D01*
X1326914D01*
Y889510D01*
D02*
G37*
G36*
X1501254Y890290D02*
X1444706D01*
Y847336D01*
X1450419D01*
X1450518Y847188D01*
X1452180Y846078D01*
X1452870Y845940D01*
Y850810D01*
X1455410D01*
Y845940D01*
X1456100Y846078D01*
X1457762Y847188D01*
X1457861Y847336D01*
X1469259D01*
X1469358Y847188D01*
X1471020Y846078D01*
X1471710Y845940D01*
Y850810D01*
X1474250D01*
Y845940D01*
X1474941Y846078D01*
X1476602Y847188D01*
X1476701Y847336D01*
X1488519D01*
X1488618Y847188D01*
X1490280Y846078D01*
X1490970Y845940D01*
Y850810D01*
X1493510D01*
Y845940D01*
X1494200Y846078D01*
X1495862Y847188D01*
X1495961Y847336D01*
X1501254D01*
Y890290D01*
D02*
G37*
G36*
X802344Y890000D02*
X745796D01*
Y847046D01*
X751509D01*
X751608Y846898D01*
X753270Y845788D01*
X753960Y845650D01*
Y850520D01*
X756500D01*
Y845650D01*
X757191Y845788D01*
X758852Y846898D01*
X758951Y847046D01*
X770350D01*
X770449Y846898D01*
X772110Y845788D01*
X772801Y845650D01*
Y850520D01*
X775341D01*
Y845650D01*
X776031Y845788D01*
X777693Y846898D01*
X777792Y847046D01*
X789610D01*
X789708Y846898D01*
X791370Y845788D01*
X792060Y845650D01*
Y850520D01*
X794600D01*
Y845650D01*
X795291Y845788D01*
X796953Y846898D01*
X797051Y847046D01*
X802344D01*
Y890000D01*
D02*
G37*
G36*
X977604D02*
X921056D01*
Y847046D01*
X926769D01*
X926868Y846898D01*
X928530Y845788D01*
X929220Y845650D01*
Y850520D01*
X931760D01*
Y845650D01*
X932450Y845788D01*
X934112Y846898D01*
X934211Y847046D01*
X945609D01*
X945708Y846898D01*
X947370Y845788D01*
X948061Y845650D01*
Y850520D01*
X950601D01*
Y845650D01*
X951291Y845788D01*
X952953Y846898D01*
X953052Y847046D01*
X964869D01*
X964968Y846898D01*
X966630Y845788D01*
X967320Y845650D01*
Y850520D01*
X969860D01*
Y845650D01*
X970551Y845788D01*
X972212Y846898D01*
X972311Y847046D01*
X977604D01*
Y890000D01*
D02*
G37*
G36*
X1233254Y829160D02*
X1226250D01*
Y822906D01*
X1233254D01*
Y829160D01*
D02*
G37*
G36*
X1223710D02*
X1216706D01*
Y822906D01*
X1223710D01*
Y829160D01*
D02*
G37*
G36*
X1957770Y835824D02*
X1953066D01*
Y820270D01*
X1957770D01*
Y835824D01*
D02*
G37*
G36*
X1044640Y829160D02*
X1037636D01*
Y822906D01*
X1044640D01*
Y829160D01*
D02*
G37*
G36*
X883944Y829650D02*
X876940D01*
Y823396D01*
X883944D01*
Y829650D01*
D02*
G37*
G36*
X874400D02*
X867396D01*
Y823396D01*
X874400D01*
Y829650D01*
D02*
G37*
G36*
X1054184Y829160D02*
X1047180D01*
Y822906D01*
X1054184D01*
Y829160D01*
D02*
G37*
G36*
X561130Y835424D02*
X556426D01*
Y819870D01*
X561130D01*
Y835424D01*
D02*
G37*
G36*
X2066970Y819824D02*
X2052716D01*
Y812820D01*
X2066970D01*
Y819824D01*
D02*
G37*
G36*
X1907744Y813474D02*
X1893490D01*
Y806470D01*
X1907744D01*
Y813474D01*
D02*
G37*
G36*
X1890950D02*
X1876696D01*
Y806470D01*
X1890950D01*
Y813474D01*
D02*
G37*
G36*
X2083764Y819824D02*
X2069510D01*
Y812820D01*
X2083764D01*
Y819824D01*
D02*
G37*
G36*
X1608870Y835334D02*
X1604166D01*
Y819780D01*
X1608870D01*
Y835334D01*
D02*
G37*
G36*
X909960Y835044D02*
X905256D01*
Y819490D01*
X909960D01*
Y835044D01*
D02*
G37*
G36*
X1259270Y834554D02*
X1254566D01*
Y819000D01*
X1259270D01*
Y834554D01*
D02*
G37*
G36*
X695330Y829650D02*
X688326D01*
Y823396D01*
X695330D01*
Y829650D01*
D02*
G37*
G36*
X1931754Y830430D02*
X1924750D01*
Y824176D01*
X1931754D01*
Y830430D01*
D02*
G37*
G36*
X1922210D02*
X1915206D01*
Y824176D01*
X1922210D01*
Y830430D01*
D02*
G37*
G36*
X356044Y830030D02*
X349040D01*
Y823776D01*
X356044D01*
Y830030D01*
D02*
G37*
G36*
X1743140Y830430D02*
X1736136D01*
Y824176D01*
X1743140D01*
Y830430D01*
D02*
G37*
G36*
X1233254Y837954D02*
X1226250D01*
Y831700D01*
X1233254D01*
Y837954D01*
D02*
G37*
G36*
X1223710D02*
X1216706D01*
Y831700D01*
X1223710D01*
Y837954D01*
D02*
G37*
G36*
X1752684Y830430D02*
X1745680D01*
Y824176D01*
X1752684D01*
Y830430D01*
D02*
G37*
G36*
X346500Y830030D02*
X339496D01*
Y823776D01*
X346500D01*
Y830030D01*
D02*
G37*
G36*
X1582854Y829940D02*
X1575850D01*
Y823686D01*
X1582854D01*
Y829940D01*
D02*
G37*
G36*
X1573310D02*
X1566306D01*
Y823686D01*
X1573310D01*
Y829940D01*
D02*
G37*
G36*
X704874Y829650D02*
X697870D01*
Y823396D01*
X704874D01*
Y829650D01*
D02*
G37*
G36*
X1394240Y829940D02*
X1387236D01*
Y823686D01*
X1394240D01*
Y829940D01*
D02*
G37*
G36*
X535114Y830030D02*
X528110D01*
Y823776D01*
X535114D01*
Y830030D01*
D02*
G37*
G36*
X525570D02*
X518566D01*
Y823776D01*
X525570D01*
Y830030D01*
D02*
G37*
G36*
X1403784Y829940D02*
X1396780D01*
Y823686D01*
X1403784D01*
Y829940D01*
D02*
G37*
G36*
X1217924Y857760D02*
X1211670D01*
Y850756D01*
X1217924D01*
Y857760D01*
D02*
G37*
G36*
X1760164Y868574D02*
X1753910D01*
Y861570D01*
X1760164D01*
Y868574D01*
D02*
G37*
G36*
X1751370Y884430D02*
X1745116D01*
Y877426D01*
X1746600D01*
Y868574D01*
X1745116D01*
Y861570D01*
X1751370D01*
Y868574D01*
X1748220D01*
Y877426D01*
X1751370D01*
Y884430D01*
D02*
G37*
G36*
X1732370Y868574D02*
X1726116D01*
Y861570D01*
X1732370D01*
Y868574D01*
D02*
G37*
G36*
X1907630D02*
X1901376D01*
Y861570D01*
X1907630D01*
Y868574D01*
D02*
G37*
G36*
X1033870Y883160D02*
X1027616D01*
Y876156D01*
X1033870D01*
Y883160D01*
D02*
G37*
G36*
X1935424Y868574D02*
X1929170D01*
Y861570D01*
X1935424D01*
Y868574D01*
D02*
G37*
G36*
X1916424D02*
X1910170D01*
Y861570D01*
X1916424D01*
Y868574D01*
D02*
G37*
G36*
X538784Y868174D02*
X532530D01*
Y861170D01*
X538784D01*
Y868174D01*
D02*
G37*
G36*
X1586524Y868084D02*
X1580270D01*
Y861080D01*
X1586524D01*
Y868084D01*
D02*
G37*
G36*
X1567524D02*
X1561270D01*
Y861080D01*
X1567524D01*
Y868084D01*
D02*
G37*
G36*
X1558730D02*
X1552476D01*
Y861080D01*
X1558730D01*
Y868084D01*
D02*
G37*
G36*
X335730Y868174D02*
X329476D01*
Y861170D01*
X335730D01*
Y868174D01*
D02*
G37*
G36*
X519784D02*
X513530D01*
Y861170D01*
X519784D01*
Y868174D01*
D02*
G37*
G36*
X510990D02*
X504736D01*
Y861170D01*
X510990D01*
Y868174D01*
D02*
G37*
G36*
X363524D02*
X357270D01*
Y861170D01*
X363524D01*
Y868174D01*
D02*
G37*
G36*
X1061664Y883160D02*
X1055410D01*
Y876156D01*
X1061664D01*
Y883160D01*
D02*
G37*
G36*
X1558730Y883940D02*
X1552476D01*
Y876936D01*
X1558730D01*
Y883940D01*
D02*
G37*
G36*
X1411264D02*
X1405010D01*
Y876936D01*
X1411264D01*
Y883940D01*
D02*
G37*
G36*
X1383470D02*
X1377216D01*
Y876936D01*
X1383470D01*
Y883940D01*
D02*
G37*
G36*
X1567524D02*
X1561270D01*
Y876936D01*
X1567524D01*
Y883940D01*
D02*
G37*
G36*
X363524Y884030D02*
X357270D01*
Y877026D01*
X363524D01*
Y884030D01*
D02*
G37*
G36*
X335730D02*
X329476D01*
Y877026D01*
X335730D01*
Y884030D01*
D02*
G37*
G36*
X1586524Y883940D02*
X1580270D01*
Y876936D01*
X1586524D01*
Y883940D01*
D02*
G37*
G36*
X887614Y883650D02*
X881360D01*
Y876646D01*
X887614D01*
Y883650D01*
D02*
G37*
G36*
X1236924Y883160D02*
X1230670D01*
Y876156D01*
X1236924D01*
Y883160D01*
D02*
G37*
G36*
X1217924D02*
X1211670D01*
Y876156D01*
X1217924D01*
Y883160D01*
D02*
G37*
G36*
X1209130D02*
X1202876D01*
Y876156D01*
X1209130D01*
Y883160D01*
D02*
G37*
G36*
X684560Y883650D02*
X678306D01*
Y876646D01*
X684560D01*
Y883650D01*
D02*
G37*
G36*
X868614D02*
X862360D01*
Y876646D01*
X868614D01*
Y883650D01*
D02*
G37*
G36*
X859820D02*
X853566D01*
Y876646D01*
X859820D01*
Y883650D01*
D02*
G37*
G36*
X712354D02*
X706100D01*
Y876646D01*
X712354D01*
Y883650D01*
D02*
G37*
G36*
X510990Y858630D02*
X504736D01*
Y851626D01*
X510990D01*
Y858630D01*
D02*
G37*
G36*
X363524D02*
X357270D01*
Y851626D01*
X363524D01*
Y858630D01*
D02*
G37*
G36*
X335730D02*
X329476D01*
Y851626D01*
X335730D01*
Y858630D01*
D02*
G37*
G36*
X519784D02*
X513530D01*
Y851626D01*
X519784D01*
Y858630D01*
D02*
G37*
G36*
X1907630Y859030D02*
X1901376D01*
Y852026D01*
X1907630D01*
Y859030D01*
D02*
G37*
G36*
X1760164D02*
X1753910D01*
Y852026D01*
X1760164D01*
Y859030D01*
D02*
G37*
G36*
X1732370D02*
X1726116D01*
Y852026D01*
X1732370D01*
Y859030D01*
D02*
G37*
G36*
X1567524Y858540D02*
X1561270D01*
Y851536D01*
X1567524D01*
Y858540D01*
D02*
G37*
G36*
X859820Y858250D02*
X853566D01*
Y851246D01*
X859820D01*
Y858250D01*
D02*
G37*
G36*
X712354D02*
X706100D01*
Y851246D01*
X712354D01*
Y858250D01*
D02*
G37*
G36*
X684560D02*
X678306D01*
Y851246D01*
X684560D01*
Y858250D01*
D02*
G37*
G36*
X868614D02*
X862360D01*
Y851246D01*
X868614D01*
Y858250D01*
D02*
G37*
G36*
X1558730Y858540D02*
X1552476D01*
Y851536D01*
X1558730D01*
Y858540D01*
D02*
G37*
G36*
X1411264D02*
X1405010D01*
Y851536D01*
X1411264D01*
Y858540D01*
D02*
G37*
G36*
X1383470D02*
X1377216D01*
Y851536D01*
X1383470D01*
Y858540D01*
D02*
G37*
G36*
X1916424Y859030D02*
X1910170D01*
Y852026D01*
X1916424D01*
Y859030D01*
D02*
G37*
G36*
X868614Y867794D02*
X862360D01*
Y860790D01*
X868614D01*
Y867794D01*
D02*
G37*
G36*
X859820D02*
X853566D01*
Y860790D01*
X859820D01*
Y867794D01*
D02*
G37*
G36*
X712354D02*
X706100D01*
Y860790D01*
X712354D01*
Y867794D01*
D02*
G37*
G36*
X887614D02*
X881360D01*
Y860790D01*
X887614D01*
Y867794D01*
D02*
G37*
G36*
X1411264Y868084D02*
X1405010D01*
Y861080D01*
X1411264D01*
Y868084D01*
D02*
G37*
G36*
X1402470Y883940D02*
X1396216D01*
Y876936D01*
X1397990D01*
Y868084D01*
X1396216D01*
Y861080D01*
X1402470D01*
Y868084D01*
X1398620D01*
Y876936D01*
X1402470D01*
Y883940D01*
D02*
G37*
G36*
X1383470Y868084D02*
X1377216D01*
Y861080D01*
X1383470D01*
Y868084D01*
D02*
G37*
G36*
X703560Y883650D02*
X697306D01*
Y876646D01*
X699560D01*
Y867794D01*
X697306D01*
Y860790D01*
X703560D01*
Y867794D01*
X700890D01*
Y876646D01*
X703560D01*
Y883650D01*
D02*
G37*
G36*
X1061664Y867304D02*
X1055410D01*
Y860300D01*
X1061664D01*
Y867304D01*
D02*
G37*
G36*
X1052870Y883160D02*
X1046616D01*
Y876156D01*
X1048870D01*
Y867304D01*
X1046616D01*
Y860300D01*
X1052870D01*
Y867304D01*
X1050010D01*
Y876156D01*
X1052870D01*
Y883160D01*
D02*
G37*
G36*
X1033870Y867304D02*
X1027616D01*
Y860300D01*
X1033870D01*
Y867304D01*
D02*
G37*
G36*
X1209130D02*
X1202876D01*
Y860300D01*
X1209130D01*
Y867304D01*
D02*
G37*
G36*
X684560Y867794D02*
X678306D01*
Y860790D01*
X684560D01*
Y867794D01*
D02*
G37*
G36*
X1236924Y867304D02*
X1230670D01*
Y860300D01*
X1236924D01*
Y867304D01*
D02*
G37*
G36*
X1217924D02*
X1211670D01*
Y860300D01*
X1217924D01*
Y867304D01*
D02*
G37*
%LPD*%
D10*
X1712122Y391691D02*
D03*
Y398191D02*
D03*
Y404691D02*
D03*
Y411191D02*
D03*
Y417691D02*
D03*
Y424191D02*
D03*
Y430691D02*
D03*
Y437191D02*
D03*
Y443691D02*
D03*
Y450191D02*
D03*
Y456691D02*
D03*
Y463191D02*
D03*
Y469691D02*
D03*
Y476191D02*
D03*
X1643122Y391691D02*
D03*
Y398191D02*
D03*
Y404691D02*
D03*
Y411191D02*
D03*
Y417691D02*
D03*
Y424191D02*
D03*
Y430691D02*
D03*
Y437191D02*
D03*
Y443691D02*
D03*
Y450191D02*
D03*
Y456691D02*
D03*
Y463191D02*
D03*
Y469691D02*
D03*
Y476191D02*
D03*
X1264060Y470750D02*
D03*
Y464250D02*
D03*
Y457750D02*
D03*
Y451250D02*
D03*
Y444750D02*
D03*
Y438250D02*
D03*
Y431750D02*
D03*
Y425250D02*
D03*
Y418750D02*
D03*
Y412250D02*
D03*
Y405750D02*
D03*
Y399250D02*
D03*
Y392750D02*
D03*
Y386250D02*
D03*
X1333060Y470750D02*
D03*
Y464250D02*
D03*
Y457750D02*
D03*
Y451250D02*
D03*
Y444750D02*
D03*
Y438250D02*
D03*
Y431750D02*
D03*
Y425250D02*
D03*
Y418750D02*
D03*
Y412250D02*
D03*
Y405750D02*
D03*
Y399250D02*
D03*
Y392750D02*
D03*
Y386250D02*
D03*
X781760Y458290D02*
D03*
Y451790D02*
D03*
Y445290D02*
D03*
Y438790D02*
D03*
Y432290D02*
D03*
Y425790D02*
D03*
Y419290D02*
D03*
Y412790D02*
D03*
Y406290D02*
D03*
Y399790D02*
D03*
Y393290D02*
D03*
Y386790D02*
D03*
Y380290D02*
D03*
Y373790D02*
D03*
X850760Y458290D02*
D03*
Y451790D02*
D03*
Y445290D02*
D03*
Y438790D02*
D03*
Y432290D02*
D03*
Y425790D02*
D03*
Y419290D02*
D03*
Y412790D02*
D03*
Y406290D02*
D03*
Y399790D02*
D03*
Y393290D02*
D03*
Y386790D02*
D03*
Y380290D02*
D03*
Y373790D02*
D03*
D11*
X1147820Y406920D02*
D03*
X1166820D02*
D03*
X1147820Y432320D02*
D03*
X1166820D02*
D03*
X685830Y884920D02*
D03*
X704830D02*
D03*
X777270Y776970D02*
D03*
X796270D02*
D03*
X796271Y751570D02*
D03*
X777271D02*
D03*
X1035140Y884430D02*
D03*
X1054140D02*
D03*
X1126580Y776480D02*
D03*
X1145580D02*
D03*
X1145581Y751080D02*
D03*
X1126581D02*
D03*
X1384740Y885210D02*
D03*
X1403740D02*
D03*
X1476180Y777260D02*
D03*
X1495180D02*
D03*
X1495180Y751860D02*
D03*
X1476180D02*
D03*
X1733640Y885700D02*
D03*
X1752640D02*
D03*
X1825080Y777750D02*
D03*
X1844080D02*
D03*
X1844081Y752350D02*
D03*
X1825081D02*
D03*
X428440Y751950D02*
D03*
X447440D02*
D03*
X428440Y726550D02*
D03*
X447440D02*
D03*
X396640Y777350D02*
D03*
X377640D02*
D03*
X392880Y656700D02*
D03*
X411880D02*
D03*
X603700Y726550D02*
D03*
X622700D02*
D03*
X603700Y751950D02*
D03*
X622700D02*
D03*
X571900Y777350D02*
D03*
X552900D02*
D03*
X513480Y656700D02*
D03*
X494480D02*
D03*
X447440Y777350D02*
D03*
X428440D02*
D03*
X356000Y885300D02*
D03*
X337000D02*
D03*
X356000Y859900D02*
D03*
X337000D02*
D03*
X622700Y777350D02*
D03*
X603700D02*
D03*
X531260Y859900D02*
D03*
X512260D02*
D03*
X531260Y885300D02*
D03*
X512260D02*
D03*
X2038440Y669800D02*
D03*
X2057440D02*
D03*
X1949540Y777750D02*
D03*
X1968540D02*
D03*
X2019341Y752350D02*
D03*
X2000341D02*
D03*
X2019341Y726950D02*
D03*
X2000341D02*
D03*
X2000340Y777750D02*
D03*
X2019340D02*
D03*
X1908900Y860300D02*
D03*
X1927900D02*
D03*
X1908900Y885700D02*
D03*
X1927900D02*
D03*
X1955840Y669800D02*
D03*
X1936841D02*
D03*
X1774280Y777750D02*
D03*
X1793280D02*
D03*
X1844081Y726950D02*
D03*
X1825081D02*
D03*
X1733640Y860300D02*
D03*
X1752640D02*
D03*
X1562170Y669800D02*
D03*
X1581170D02*
D03*
X1600640Y777260D02*
D03*
X1619640D02*
D03*
X1670440Y751860D02*
D03*
X1651440D02*
D03*
X1670440Y726460D02*
D03*
X1651440D02*
D03*
X1651440Y777260D02*
D03*
X1670440D02*
D03*
X1560000Y859810D02*
D03*
X1579000D02*
D03*
X1560000Y885210D02*
D03*
X1579000D02*
D03*
X1479570Y669800D02*
D03*
X1460570D02*
D03*
X1425380Y777260D02*
D03*
X1444380D02*
D03*
X1495180Y726460D02*
D03*
X1476180D02*
D03*
X1384740Y859810D02*
D03*
X1403740D02*
D03*
X1187540Y655830D02*
D03*
X1206540D02*
D03*
X1251040Y776480D02*
D03*
X1270040D02*
D03*
X1320840Y751080D02*
D03*
X1301841D02*
D03*
X1320840Y725680D02*
D03*
X1301841D02*
D03*
X1301840Y776480D02*
D03*
X1320840D02*
D03*
X1210400Y859030D02*
D03*
X1229400D02*
D03*
X1210400Y884430D02*
D03*
X1229400D02*
D03*
X1104940Y655830D02*
D03*
X1085940D02*
D03*
X1075780Y776480D02*
D03*
X1094780D02*
D03*
X1145581Y725680D02*
D03*
X1126581D02*
D03*
X1035140Y859030D02*
D03*
X1054140D02*
D03*
X723930Y656320D02*
D03*
X742930D02*
D03*
X901730Y776970D02*
D03*
X920730D02*
D03*
X971531Y751570D02*
D03*
X952531D02*
D03*
X971531Y726170D02*
D03*
X952531D02*
D03*
X952530Y776970D02*
D03*
X971530D02*
D03*
X861090Y859520D02*
D03*
X880090D02*
D03*
X861090Y884920D02*
D03*
X880090D02*
D03*
X641330Y656320D02*
D03*
X622331D02*
D03*
X726470Y776970D02*
D03*
X745470D02*
D03*
X796271Y726170D02*
D03*
X777271D02*
D03*
X685830Y859520D02*
D03*
X704830D02*
D03*
X1726540Y558800D02*
D03*
X1707540D02*
D03*
X1726540Y538480D02*
D03*
X1707540D02*
D03*
X1726540Y579120D02*
D03*
X1707540D02*
D03*
X1726540Y599440D02*
D03*
X1707540D02*
D03*
X744740Y255000D02*
D03*
X725740D02*
D03*
X594740D02*
D03*
X575740D02*
D03*
X894740D02*
D03*
X875740D02*
D03*
X444740Y255000D02*
D03*
X425740D02*
D03*
X233000Y585900D02*
D03*
X252000D02*
D03*
Y611700D02*
D03*
X233000D02*
D03*
X252000Y632420D02*
D03*
X233000D02*
D03*
X1944740Y255000D02*
D03*
X1925740D02*
D03*
X2094740Y255000D02*
D03*
X2075740D02*
D03*
X1644740Y255000D02*
D03*
X1625740D02*
D03*
X1794740D02*
D03*
X1775740D02*
D03*
X1344740Y255000D02*
D03*
X1325740D02*
D03*
X1494740D02*
D03*
X1475740D02*
D03*
X1044740D02*
D03*
X1025740D02*
D03*
X1194740D02*
D03*
X1175740D02*
D03*
X1726540Y680720D02*
D03*
X1707540D02*
D03*
X1726540Y660400D02*
D03*
X1707540D02*
D03*
X1726540Y640080D02*
D03*
X1707540D02*
D03*
X1726540Y619760D02*
D03*
X1707540D02*
D03*
D12*
X1198380Y419620D02*
D03*
X1187380D02*
D03*
X1198380Y434860D02*
D03*
X1187380D02*
D03*
X1339680Y649480D02*
D03*
X1328680D02*
D03*
X872320Y639320D02*
D03*
X861320D02*
D03*
X835920D02*
D03*
X846920D02*
D03*
X986620D02*
D03*
X975620D02*
D03*
X950220D02*
D03*
X961220D02*
D03*
X810520D02*
D03*
X821520D02*
D03*
X924820D02*
D03*
X935820D02*
D03*
X1303280Y649480D02*
D03*
X1314280D02*
D03*
X1829220Y645160D02*
D03*
X1818220D02*
D03*
X1792820D02*
D03*
X1803820D02*
D03*
X1277880Y649480D02*
D03*
X1288880D02*
D03*
X1767420Y645160D02*
D03*
X1778420D02*
D03*
X287948Y533908D02*
D03*
X276948D02*
D03*
X287948Y554228D02*
D03*
X276948D02*
D03*
X277000Y611700D02*
D03*
X288000D02*
D03*
X277000Y632420D02*
D03*
X288000D02*
D03*
X700740Y255000D02*
D03*
X689740D02*
D03*
X550740D02*
D03*
X539740D02*
D03*
X850740D02*
D03*
X839740D02*
D03*
X400740Y255000D02*
D03*
X389740D02*
D03*
X277000Y585900D02*
D03*
X288000D02*
D03*
X1900740Y255000D02*
D03*
X1889740D02*
D03*
X2050740Y255000D02*
D03*
X2039740D02*
D03*
X1600740Y255000D02*
D03*
X1589740D02*
D03*
X1750740D02*
D03*
X1739740D02*
D03*
X1300740Y255000D02*
D03*
X1289740D02*
D03*
X1450740D02*
D03*
X1439740D02*
D03*
X1000740D02*
D03*
X989740D02*
D03*
X1150740D02*
D03*
X1139740D02*
D03*
D13*
X666120Y656440D02*
D03*
Y637440D02*
D03*
X701720Y656440D02*
D03*
Y637440D02*
D03*
X1241490Y652630D02*
D03*
Y633630D02*
D03*
X1422180Y742310D02*
D03*
Y723310D02*
D03*
X347770Y812300D02*
D03*
Y831300D02*
D03*
X491280Y482100D02*
D03*
Y501100D02*
D03*
X415080Y482760D02*
D03*
Y501760D02*
D03*
X399840Y742400D02*
D03*
Y723400D02*
D03*
X374440Y723400D02*
D03*
Y742400D02*
D03*
X476040Y723400D02*
D03*
Y742400D02*
D03*
X357930Y653500D02*
D03*
Y634500D02*
D03*
X436290Y672950D02*
D03*
Y653950D02*
D03*
X575100Y742400D02*
D03*
Y723400D02*
D03*
X549700Y723400D02*
D03*
Y742400D02*
D03*
X651300Y723400D02*
D03*
Y742400D02*
D03*
X469310Y672950D02*
D03*
Y653950D02*
D03*
X548430Y653500D02*
D03*
Y634500D02*
D03*
X526840Y831300D02*
D03*
Y812300D02*
D03*
X501440Y723400D02*
D03*
Y742400D02*
D03*
X389680Y609100D02*
D03*
Y628100D02*
D03*
X440480Y482100D02*
D03*
Y501100D02*
D03*
X676700Y723400D02*
D03*
Y742400D02*
D03*
X465880Y482100D02*
D03*
Y501100D02*
D03*
X389680Y583650D02*
D03*
Y564650D02*
D03*
X516680Y628100D02*
D03*
Y609100D02*
D03*
X2092390Y647600D02*
D03*
Y666600D02*
D03*
X2060640Y622200D02*
D03*
Y641200D02*
D03*
X1923480Y812700D02*
D03*
Y831700D02*
D03*
X2013270Y667050D02*
D03*
Y686050D02*
D03*
X2035220Y495200D02*
D03*
Y514200D02*
D03*
X1933640Y577750D02*
D03*
Y596750D02*
D03*
X2047940Y742800D02*
D03*
Y723800D02*
D03*
X2009840Y514200D02*
D03*
Y495200D02*
D03*
X1946340Y742800D02*
D03*
Y723800D02*
D03*
X1959040Y495860D02*
D03*
Y514860D02*
D03*
X2073340Y742800D02*
D03*
Y723800D02*
D03*
X1971740Y723800D02*
D03*
Y742800D02*
D03*
X1984440Y514200D02*
D03*
Y495200D02*
D03*
X1980250Y667050D02*
D03*
Y686050D02*
D03*
X1933640Y641200D02*
D03*
Y622200D02*
D03*
X1901890Y647600D02*
D03*
Y666600D02*
D03*
X1744410Y812700D02*
D03*
Y831700D02*
D03*
X1872680Y742800D02*
D03*
Y723800D02*
D03*
X1771080Y742800D02*
D03*
Y723800D02*
D03*
X1898080Y742800D02*
D03*
Y723800D02*
D03*
X1796480Y723800D02*
D03*
Y742800D02*
D03*
X1616120Y647600D02*
D03*
Y666600D02*
D03*
X1584370Y622200D02*
D03*
Y641200D02*
D03*
X1574580Y812210D02*
D03*
Y831210D02*
D03*
X1537000Y667050D02*
D03*
Y686050D02*
D03*
X1558970Y495200D02*
D03*
Y514200D02*
D03*
X1457370Y577750D02*
D03*
Y596750D02*
D03*
X1699040Y742310D02*
D03*
Y723310D02*
D03*
X1533570Y514200D02*
D03*
Y495200D02*
D03*
X1597440Y742310D02*
D03*
Y723310D02*
D03*
X1482770Y495860D02*
D03*
Y514860D02*
D03*
X1724440Y742310D02*
D03*
Y723310D02*
D03*
X1622840Y723310D02*
D03*
Y742310D02*
D03*
X1508170Y514200D02*
D03*
Y495200D02*
D03*
X1503980Y667050D02*
D03*
Y686050D02*
D03*
X1457370Y641200D02*
D03*
Y622200D02*
D03*
X1425620Y647600D02*
D03*
Y666600D02*
D03*
X1395510Y812210D02*
D03*
Y831210D02*
D03*
X1523780Y742310D02*
D03*
Y723310D02*
D03*
X1549180Y742310D02*
D03*
Y723310D02*
D03*
X1447580Y723310D02*
D03*
Y742310D02*
D03*
X1209740Y608230D02*
D03*
Y627230D02*
D03*
X1224980Y811430D02*
D03*
Y830430D02*
D03*
X1162370Y653080D02*
D03*
Y672080D02*
D03*
X1184340Y481230D02*
D03*
Y500230D02*
D03*
X1082740Y563780D02*
D03*
Y582780D02*
D03*
X1349440Y741530D02*
D03*
Y722530D02*
D03*
X1158940Y500230D02*
D03*
Y481230D02*
D03*
X1247840Y741530D02*
D03*
Y722530D02*
D03*
X1108140Y481890D02*
D03*
Y500890D02*
D03*
X1374840Y741530D02*
D03*
Y722530D02*
D03*
X1273240Y722530D02*
D03*
Y741530D02*
D03*
X1133540Y500230D02*
D03*
Y481230D02*
D03*
X1129350Y653080D02*
D03*
Y672080D02*
D03*
X1082740Y627230D02*
D03*
Y608230D02*
D03*
X1050990Y633630D02*
D03*
Y652630D02*
D03*
X1045910Y811430D02*
D03*
Y830430D02*
D03*
X1174180Y741530D02*
D03*
Y722530D02*
D03*
X1072580Y741530D02*
D03*
Y722530D02*
D03*
X1199580Y741530D02*
D03*
Y722530D02*
D03*
X1097980Y722530D02*
D03*
Y741530D02*
D03*
X777880Y634120D02*
D03*
Y653120D02*
D03*
X746130Y608720D02*
D03*
Y627720D02*
D03*
X875670Y811920D02*
D03*
Y830920D02*
D03*
X720730Y481720D02*
D03*
Y500720D02*
D03*
X619130Y564270D02*
D03*
Y583270D02*
D03*
X1000130Y742020D02*
D03*
Y723020D02*
D03*
X695330Y500720D02*
D03*
Y481720D02*
D03*
X898530Y742020D02*
D03*
Y723020D02*
D03*
X644530Y482380D02*
D03*
Y501380D02*
D03*
X1025530Y742020D02*
D03*
Y723020D02*
D03*
X923930Y723020D02*
D03*
Y742020D02*
D03*
X669930Y500720D02*
D03*
Y481720D02*
D03*
X619130Y627720D02*
D03*
Y608720D02*
D03*
X587380Y634120D02*
D03*
Y653120D02*
D03*
X696600Y811920D02*
D03*
Y830920D02*
D03*
X824870Y742020D02*
D03*
Y723020D02*
D03*
X723270Y742020D02*
D03*
Y723020D02*
D03*
X850270Y742020D02*
D03*
Y723020D02*
D03*
X748670Y723020D02*
D03*
Y742020D02*
D03*
X750800Y396380D02*
D03*
Y415380D02*
D03*
X1231900Y404520D02*
D03*
Y423520D02*
D03*
X270000Y315500D02*
D03*
Y334500D02*
D03*
X255000Y885260D02*
D03*
Y904260D02*
D03*
X1611582Y416821D02*
D03*
Y435821D02*
D03*
D14*
X1232520Y388280D02*
D03*
Y377280D02*
D03*
X752220Y375420D02*
D03*
Y364420D02*
D03*
X270000Y359500D02*
D03*
Y370500D02*
D03*
X255000Y929260D02*
D03*
Y940260D02*
D03*
X1611582Y382721D02*
D03*
Y393721D02*
D03*
D15*
X1362060Y394728D02*
D03*
Y405728D02*
D03*
Y416728D02*
D03*
X1387460Y394728D02*
D03*
Y405728D02*
D03*
Y416728D02*
D03*
X1412860Y394728D02*
D03*
Y405728D02*
D03*
Y416728D02*
D03*
X879760Y382356D02*
D03*
Y393356D02*
D03*
Y404356D02*
D03*
X905160Y382356D02*
D03*
Y393356D02*
D03*
Y404356D02*
D03*
X932560Y381868D02*
D03*
Y392868D02*
D03*
Y403868D02*
D03*
X1741122Y422257D02*
D03*
Y411257D02*
D03*
Y400257D02*
D03*
X1766522Y422257D02*
D03*
Y411257D02*
D03*
Y400257D02*
D03*
X1791922Y422257D02*
D03*
Y411257D02*
D03*
Y400257D02*
D03*
D16*
X2068240Y811550D02*
D03*
Y782050D02*
D03*
X495580Y804800D02*
D03*
Y775300D02*
D03*
X670350Y799110D02*
D03*
Y769610D02*
D03*
X1892220Y805200D02*
D03*
Y775700D02*
D03*
X1718090Y799020D02*
D03*
Y769520D02*
D03*
X1543320Y804710D02*
D03*
Y775210D02*
D03*
X1368490Y798240D02*
D03*
Y768740D02*
D03*
X1193720Y803930D02*
D03*
Y774430D02*
D03*
X1019180Y798730D02*
D03*
Y769230D02*
D03*
X844410Y804420D02*
D03*
Y774920D02*
D03*
D17*
X1360020Y520700D02*
D03*
X1368020D02*
D03*
X1344020D02*
D03*
X1352020D02*
D03*
X1336020D02*
D03*
X1328020D02*
D03*
X1320020D02*
D03*
X1312020D02*
D03*
X1288020D02*
D03*
X1280020D02*
D03*
X1304020D02*
D03*
X1296020D02*
D03*
X1360020Y615700D02*
D03*
X1368020D02*
D03*
X1352020D02*
D03*
X1344020D02*
D03*
X1320020D02*
D03*
X1312020D02*
D03*
X1336020D02*
D03*
X1328020D02*
D03*
X1288020D02*
D03*
X1280020D02*
D03*
X1304020D02*
D03*
X1296020D02*
D03*
X1858240Y613160D02*
D03*
X1850240D02*
D03*
X1842240D02*
D03*
X1834240D02*
D03*
X1826240D02*
D03*
X1818240D02*
D03*
X1810240D02*
D03*
X1802240D02*
D03*
X1794240D02*
D03*
X1786240D02*
D03*
X1778240D02*
D03*
X1770240D02*
D03*
X1858240Y518160D02*
D03*
X1850240D02*
D03*
X1842240D02*
D03*
X1834240D02*
D03*
X1826240D02*
D03*
X1818240D02*
D03*
X1810240D02*
D03*
X1802240D02*
D03*
X1794240D02*
D03*
X1786240D02*
D03*
X1778240D02*
D03*
X1770240D02*
D03*
X900660Y605540D02*
D03*
X892660D02*
D03*
X884660D02*
D03*
X876660D02*
D03*
X868660D02*
D03*
X860660D02*
D03*
X852660D02*
D03*
X844660D02*
D03*
X836660D02*
D03*
X828660D02*
D03*
X820660D02*
D03*
X812660D02*
D03*
X900660Y510540D02*
D03*
X892660D02*
D03*
X884660D02*
D03*
X876660D02*
D03*
X868660D02*
D03*
X860660D02*
D03*
X852660D02*
D03*
X844660D02*
D03*
X836660D02*
D03*
X828660D02*
D03*
X820660D02*
D03*
X812660D02*
D03*
X1014960Y605540D02*
D03*
X1006960D02*
D03*
X998960D02*
D03*
X990960D02*
D03*
X982960D02*
D03*
X974960D02*
D03*
X966960D02*
D03*
X958960D02*
D03*
X950960D02*
D03*
X942960D02*
D03*
X934960D02*
D03*
X926960D02*
D03*
X1014960Y510540D02*
D03*
X1006960D02*
D03*
X998960D02*
D03*
X990960D02*
D03*
X982960D02*
D03*
X974960D02*
D03*
X966960D02*
D03*
X958960D02*
D03*
X950960D02*
D03*
X942960D02*
D03*
X934960D02*
D03*
X926960D02*
D03*
D18*
X1324020Y568200D02*
D03*
X1814240Y565660D02*
D03*
X856660Y558040D02*
D03*
X970960D02*
D03*
D19*
X425240Y891650D02*
D03*
X600500D02*
D03*
X1997140Y892050D02*
D03*
X1821880D02*
D03*
X1648240Y891560D02*
D03*
X1472980D02*
D03*
X1298640Y890780D02*
D03*
X1123380D02*
D03*
X949330Y891270D02*
D03*
X774070D02*
D03*
D20*
X412540Y818600D02*
D03*
X399840D02*
D03*
X387140D02*
D03*
X425240D02*
D03*
X437940D02*
D03*
X450640D02*
D03*
X463340D02*
D03*
X587800D02*
D03*
X575100D02*
D03*
X562400D02*
D03*
X600500D02*
D03*
X613200D02*
D03*
X625900D02*
D03*
X638600D02*
D03*
X1984440Y819000D02*
D03*
X1971740D02*
D03*
X1959040D02*
D03*
X1997140D02*
D03*
X2009840D02*
D03*
X2022540D02*
D03*
X2035240D02*
D03*
X1809180D02*
D03*
X1796480D02*
D03*
X1783780D02*
D03*
X1821880D02*
D03*
X1834580D02*
D03*
X1847280D02*
D03*
X1859980D02*
D03*
X1635540Y818510D02*
D03*
X1622840D02*
D03*
X1610140D02*
D03*
X1648240D02*
D03*
X1660940D02*
D03*
X1673640D02*
D03*
X1686340D02*
D03*
X1460280D02*
D03*
X1447580D02*
D03*
X1434880D02*
D03*
X1472980D02*
D03*
X1485680D02*
D03*
X1498380D02*
D03*
X1511080D02*
D03*
X1285940Y817730D02*
D03*
X1273240D02*
D03*
X1260540D02*
D03*
X1298640D02*
D03*
X1311340D02*
D03*
X1324040D02*
D03*
X1336740D02*
D03*
X1110680D02*
D03*
X1097980D02*
D03*
X1085280D02*
D03*
X1123380D02*
D03*
X1136080D02*
D03*
X1148780D02*
D03*
X1161480D02*
D03*
X936630Y818220D02*
D03*
X923930D02*
D03*
X911230D02*
D03*
X949330D02*
D03*
X962030D02*
D03*
X974730D02*
D03*
X987430D02*
D03*
X761370D02*
D03*
X748670D02*
D03*
X735970D02*
D03*
X774070D02*
D03*
X786770D02*
D03*
X799470D02*
D03*
X812170D02*
D03*
D21*
X348180Y545400D02*
D03*
X354680D02*
D03*
X361180D02*
D03*
X367680D02*
D03*
X348180Y602900D02*
D03*
X354680D02*
D03*
X361180D02*
D03*
X367680D02*
D03*
X558180D02*
D03*
X551680D02*
D03*
X545180D02*
D03*
X538680D02*
D03*
X558180Y545400D02*
D03*
X551680D02*
D03*
X545180D02*
D03*
X538680D02*
D03*
X2102140Y616000D02*
D03*
X2095640D02*
D03*
X2089140D02*
D03*
X2082640D02*
D03*
X2102140Y558500D02*
D03*
X2095640D02*
D03*
X2089140D02*
D03*
X2082640D02*
D03*
X1892140D02*
D03*
X1898640D02*
D03*
X1905140D02*
D03*
X1911640D02*
D03*
X1892140Y616000D02*
D03*
X1898640D02*
D03*
X1905140D02*
D03*
X1911640D02*
D03*
X1625870Y616000D02*
D03*
X1619370D02*
D03*
X1612870D02*
D03*
X1606370D02*
D03*
X1625870Y558500D02*
D03*
X1619370D02*
D03*
X1612870D02*
D03*
X1606370D02*
D03*
X1415870D02*
D03*
X1422370D02*
D03*
X1428870D02*
D03*
X1435370D02*
D03*
X1415870Y616000D02*
D03*
X1422370D02*
D03*
X1428870D02*
D03*
X1435370D02*
D03*
X1251240Y602030D02*
D03*
X1244740D02*
D03*
X1238240D02*
D03*
X1231740D02*
D03*
X1251240Y544530D02*
D03*
X1244740D02*
D03*
X1238240D02*
D03*
X1231740D02*
D03*
X1041240D02*
D03*
X1047740D02*
D03*
X1054240D02*
D03*
X1060740D02*
D03*
X1041240Y602030D02*
D03*
X1047740D02*
D03*
X1054240D02*
D03*
X1060740D02*
D03*
X787630Y602520D02*
D03*
X781130D02*
D03*
X774630D02*
D03*
X768130D02*
D03*
X787630Y545020D02*
D03*
X781130D02*
D03*
X774630D02*
D03*
X768130D02*
D03*
X577630D02*
D03*
X584130D02*
D03*
X590630D02*
D03*
X597130D02*
D03*
X577630Y602520D02*
D03*
X584130D02*
D03*
X590630D02*
D03*
X597130D02*
D03*
D22*
X325400Y917050D02*
D03*
X354900D02*
D03*
X326670Y960230D02*
D03*
X356170D02*
D03*
X501010Y917050D02*
D03*
X530510D02*
D03*
X388810Y509780D02*
D03*
X359310D02*
D03*
X1930590Y514860D02*
D03*
X1901090D02*
D03*
X1897650Y917450D02*
D03*
X1927150D02*
D03*
X1723310Y960630D02*
D03*
X1752810D02*
D03*
X1722040Y917450D02*
D03*
X1751540D02*
D03*
X1455610Y514860D02*
D03*
X1426110D02*
D03*
X1548750Y916960D02*
D03*
X1578250D02*
D03*
X1374410Y960140D02*
D03*
X1403910D02*
D03*
X1373140Y916960D02*
D03*
X1402640D02*
D03*
X1079690Y502160D02*
D03*
X1050190D02*
D03*
X1199150Y916180D02*
D03*
X1228650D02*
D03*
X1024810Y959360D02*
D03*
X1054310D02*
D03*
X1023540Y916180D02*
D03*
X1053040D02*
D03*
X617410Y509780D02*
D03*
X587910D02*
D03*
X849840Y916670D02*
D03*
X879340D02*
D03*
X675500Y959850D02*
D03*
X705000D02*
D03*
X674230Y916670D02*
D03*
X703730D02*
D03*
D23*
X488105Y598150D02*
D03*
X481755D02*
D03*
X475405D02*
D03*
X469055D02*
D03*
X462705D02*
D03*
X456355D02*
D03*
X450005D02*
D03*
X443655D02*
D03*
X437305D02*
D03*
X430955D02*
D03*
X424605D02*
D03*
X418255D02*
D03*
X488105Y550150D02*
D03*
X481755D02*
D03*
X475405D02*
D03*
X469055D02*
D03*
X462705D02*
D03*
X456355D02*
D03*
X450005D02*
D03*
X443655D02*
D03*
X437305D02*
D03*
X430955D02*
D03*
X424605D02*
D03*
X418255D02*
D03*
X1962215Y563250D02*
D03*
X1968565D02*
D03*
X1974915D02*
D03*
X1981265D02*
D03*
X1987615D02*
D03*
X1993965D02*
D03*
X2000315D02*
D03*
X2006665D02*
D03*
X2013015D02*
D03*
X2019365D02*
D03*
X2025715D02*
D03*
X2032065D02*
D03*
X1962215Y611250D02*
D03*
X1968565D02*
D03*
X1974915D02*
D03*
X1981265D02*
D03*
X1987615D02*
D03*
X1993965D02*
D03*
X2000315D02*
D03*
X2006665D02*
D03*
X2013015D02*
D03*
X2019365D02*
D03*
X2025715D02*
D03*
X2032065D02*
D03*
X1485945Y563250D02*
D03*
X1492295D02*
D03*
X1498645D02*
D03*
X1504995D02*
D03*
X1511345D02*
D03*
X1517695D02*
D03*
X1524045D02*
D03*
X1530395D02*
D03*
X1536745D02*
D03*
X1543095D02*
D03*
X1549445D02*
D03*
X1555795D02*
D03*
X1485945Y611250D02*
D03*
X1492295D02*
D03*
X1498645D02*
D03*
X1504995D02*
D03*
X1511345D02*
D03*
X1517695D02*
D03*
X1524045D02*
D03*
X1530395D02*
D03*
X1536745D02*
D03*
X1543095D02*
D03*
X1549445D02*
D03*
X1555795D02*
D03*
X1111315Y549280D02*
D03*
X1117665D02*
D03*
X1124015D02*
D03*
X1130365D02*
D03*
X1136715D02*
D03*
X1143065D02*
D03*
X1149415D02*
D03*
X1155765D02*
D03*
X1162115D02*
D03*
X1168465D02*
D03*
X1174815D02*
D03*
X1181165D02*
D03*
X1111315Y597280D02*
D03*
X1117665D02*
D03*
X1124015D02*
D03*
X1130365D02*
D03*
X1136715D02*
D03*
X1143065D02*
D03*
X1149415D02*
D03*
X1155765D02*
D03*
X1162115D02*
D03*
X1168465D02*
D03*
X1174815D02*
D03*
X1181165D02*
D03*
X647705Y549770D02*
D03*
X654055D02*
D03*
X660405D02*
D03*
X666755D02*
D03*
X673105D02*
D03*
X679455D02*
D03*
X685805D02*
D03*
X692155D02*
D03*
X698505D02*
D03*
X704855D02*
D03*
X711205D02*
D03*
X717555D02*
D03*
X647705Y597770D02*
D03*
X654055D02*
D03*
X660405D02*
D03*
X666755D02*
D03*
X673105D02*
D03*
X679455D02*
D03*
X685805D02*
D03*
X692155D02*
D03*
X698505D02*
D03*
X704855D02*
D03*
X711205D02*
D03*
X717555D02*
D03*
D24*
X634030Y436030D02*
D03*
X621330D02*
D03*
X608630D02*
D03*
X595930D02*
D03*
X634030Y388030D02*
D03*
X621330D02*
D03*
X608630D02*
D03*
X595930D02*
D03*
X511480Y434720D02*
D03*
X498780D02*
D03*
X486080D02*
D03*
X473380D02*
D03*
X511480Y386720D02*
D03*
X498780D02*
D03*
X486080D02*
D03*
X473380D02*
D03*
D25*
X617220Y497840D02*
X626716D01*
X617220Y505460D02*
X626716D01*
X617410Y513080D02*
X626906D01*
X617410Y520700D02*
X626906D01*
X1150740Y255000D02*
X1175740D01*
X415080Y472604D02*
Y482100D01*
X388620Y498602D02*
X398116D01*
X388874Y505206D02*
X398370D01*
X389128Y511810D02*
X398624D01*
X388874Y518414D02*
X398370D01*
X1098644Y481890D02*
X1108140D01*
X1079754Y491490D02*
X1089250D01*
X1080008Y499364D02*
X1089504D01*
X1080008Y506476D02*
X1089504D01*
X1080008Y513588D02*
X1089504D01*
X1949544Y495860D02*
X1959040D01*
X1930146Y510286D02*
X1939642D01*
X1930400Y504444D02*
X1939896D01*
X1935226Y498250D02*
Y507746D01*
X1927606Y498250D02*
Y507746D01*
X1453134Y506984D02*
X1462630D01*
X1460246Y498250D02*
Y507746D01*
X1453134Y497488D02*
Y506984D01*
X1482770Y486364D02*
Y495860D01*
X1791922Y390761D02*
Y400257D01*
X1476180Y717150D02*
Y726460D01*
X1126581Y716370D02*
Y725680D01*
X1097980Y713220D02*
Y722530D01*
X464070Y386720D02*
X473380D01*
X586620Y388030D02*
X595930D01*
X750800Y387070D02*
Y396380D01*
X720730Y481720D02*
X730040D01*
X861320Y639320D02*
Y648630D01*
X901700Y655320D02*
X919480Y673100D01*
X807720Y655320D02*
X901700D01*
X800100Y647700D02*
X807720Y655320D01*
X975620Y639320D02*
Y648630D01*
X1328680Y649480D02*
Y658790D01*
X1301841Y716370D02*
Y725680D01*
X1138510Y431800D02*
X1147820D01*
X1158940Y471921D02*
Y481230D01*
X1231900Y404520D02*
X1241210D01*
X1147820Y406920D02*
Y432320D01*
X1239630Y412250D02*
X1264060D01*
X1231900Y404520D02*
X1239630Y412250D01*
X1612452Y417691D02*
X1643122D01*
X1611582Y416821D02*
X1612452Y417691D01*
X1611582Y407511D02*
Y416820D01*
X1818220Y645160D02*
Y654470D01*
X1825081Y717641D02*
Y726950D01*
X149710Y484990D02*
X357930D01*
X270000Y334500D02*
Y359500D01*
X180000Y370400D02*
X269900D01*
X1666240Y415411D02*
Y416560D01*
X1655520Y404691D02*
X1666240Y415411D01*
X1643122Y404691D02*
X1655520D01*
X1310408Y329968D02*
X1321999D01*
X1821180Y275440D02*
X1833880Y262740D01*
Y91440D02*
Y262740D01*
X1674898Y349018D02*
X1748476Y275440D01*
X1821180D01*
X1826260Y83820D02*
X1833880Y91440D01*
X1321999Y329968D02*
X1382244Y269724D01*
Y91924D02*
Y269724D01*
X1379220Y88900D02*
X1382244Y91924D01*
X1280630Y399250D02*
X1287780Y406400D01*
X1264060Y399250D02*
X1280630D01*
X781760Y386790D02*
X798270D01*
X802640Y391160D01*
X939240Y95960D02*
Y297740D01*
X932180Y88900D02*
X939240Y95960D01*
X915820Y321160D02*
X939240Y297740D01*
X811853Y334333D02*
X825025Y321160D01*
X915820D01*
X1656395Y398191D02*
X1674764Y416560D01*
X1643122Y398191D02*
X1656395D01*
X1754031Y281940D02*
X1821180D01*
X1840380Y262740D01*
X1680926Y355046D02*
X1754031Y281940D01*
X1840380Y85885D02*
Y262740D01*
X1832287Y77793D02*
X1840380Y85885D01*
X1316436Y335996D02*
X1325164D01*
X1386840Y274320D01*
Y77793D02*
Y274320D01*
X1264060Y392750D02*
X1286185D01*
X1293807Y400373D01*
X781760Y380290D02*
X803825D01*
X808667Y385133D01*
X943836Y80236D02*
Y302336D01*
X918512Y327660D02*
X943836Y302336D01*
X941393Y77793D02*
X943836Y80236D01*
X817880Y340360D02*
X830580Y327660D01*
X918512D01*
X1611582Y435821D02*
X1623212Y424191D01*
X1598882Y423121D02*
X1611582Y435821D01*
X1803694Y422169D02*
X1812242Y413621D01*
X1623212Y424191D02*
X1643122D01*
X1424632Y416728D02*
X1433180Y408180D01*
X1599302Y393721D02*
X1611582D01*
X1231900Y423520D02*
X1239380D01*
X1225660D02*
X1231900D01*
X1239380D02*
X1244150Y418750D01*
X1387460Y416728D02*
X1412860D01*
X1362060D02*
X1387460D01*
X1412860D02*
X1424632D01*
X1244150Y418750D02*
X1264060D01*
X1797002Y370441D02*
X1812242Y385681D01*
Y413621D01*
X1696720Y355600D02*
Y370441D01*
X1797002D01*
X1606502D02*
X1696720D01*
X1838468Y71613D02*
X1849120Y82265D01*
Y264160D01*
X1760220Y292100D02*
X1821180D01*
X1696720Y355600D02*
X1760220Y292100D01*
X1821180D02*
X1849120Y264160D01*
X1598882Y393301D02*
X1599302Y393721D01*
X1598882Y393301D02*
Y423121D01*
Y378061D02*
Y393301D01*
X1433180Y380240D02*
Y408180D01*
Y380240D02*
X1534160Y279260D01*
X1598882Y378061D02*
X1606502Y370441D01*
X1534160Y71120D02*
Y279260D01*
X1227440Y365000D02*
X1417940D01*
X1433180Y380240D01*
X1219820Y417680D02*
X1225660Y423520D01*
X761850Y406290D02*
X781760D01*
X1220240Y388280D02*
X1232520D01*
X1219820Y387860D02*
Y417680D01*
Y387860D02*
X1220240Y388280D01*
X1219820Y372620D02*
Y387860D01*
X942332Y404268D02*
X950880Y395720D01*
Y367780D02*
Y395720D01*
X1219820Y372620D02*
X1227440Y365000D01*
X952500Y71120D02*
Y335680D01*
X935640Y352540D02*
X952500Y335680D01*
X737940Y375820D02*
X750220D01*
X737520Y375400D02*
X737940Y375820D01*
X737520Y375400D02*
Y405220D01*
X745140Y352540D02*
X935640D01*
X737520Y360160D02*
Y375400D01*
X935640Y352540D02*
X950880Y367780D01*
X737520Y360160D02*
X745140Y352540D01*
X255000Y904260D02*
Y929260D01*
Y940260D02*
Y951500D01*
Y871260D02*
Y885260D01*
X472440Y416560D02*
Y433780D01*
X595930Y411630D02*
Y436030D01*
X807910Y419290D02*
X812800Y424180D01*
X781760Y419290D02*
X807910D01*
X813465Y412790D02*
X818827Y418153D01*
X781760Y412790D02*
X813465D01*
X252000Y632420D02*
X277000D01*
X252000Y611700D02*
X277000D01*
X252000Y585900D02*
X277000D01*
X219000D02*
X233000D01*
X270000Y301500D02*
Y315500D01*
X374600Y254000D02*
X388740D01*
X526140Y255000D02*
X539740D01*
X524600Y256540D02*
X526140Y255000D01*
X674600Y254000D02*
X688740D01*
X834560Y249820D02*
X839740Y255000D01*
X824600Y249820D02*
X834560D01*
X974600Y254000D02*
X988740D01*
X1124600Y256620D02*
X1126220Y255000D01*
X1139740D01*
X1274600Y256000D02*
X1275600Y255000D01*
X1289740D01*
X1424600Y256880D02*
X1426480Y255000D01*
X1439740D01*
X1575600Y255000D02*
X1589740D01*
X1724600Y236280D02*
Y239860D01*
X1739740Y255000D01*
X1876140D02*
X1889740D01*
X2024600Y253460D02*
X2026140Y255000D01*
X2039740D01*
X2050740D02*
X2075740D01*
X1900740Y255000D02*
X1925740D01*
X1750740D02*
X1775740D01*
X1600740D02*
X1625740D01*
X1450740Y255000D02*
X1475740D01*
X1300740D02*
X1325740D01*
X1000740D02*
X1025740D01*
X850740Y255000D02*
X875740D01*
X700740D02*
X725740D01*
X550740D02*
X575740D01*
X400740Y255000D02*
X425740D01*
X2094740D02*
X2108740D01*
X1944740Y255000D02*
X1958740D01*
X1794740D02*
X1808740D01*
X1644740D02*
X1658740D01*
X1494740Y255000D02*
X1508740D01*
X1344740D02*
X1358740D01*
X1194740D02*
X1208740D01*
X1044740D02*
X1058740D01*
X894740Y255000D02*
X908740D01*
X744740D02*
X758740D01*
X594740D02*
X608740D01*
X444740Y255000D02*
X458740D01*
X923930Y742020D02*
Y752470D01*
X919480Y756920D02*
X923930Y752470D01*
X800100Y515620D02*
Y647700D01*
X833750Y438790D02*
X850760D01*
X746760Y743930D02*
X748670Y742020D01*
X746760Y743930D02*
Y759460D01*
X827250Y445290D02*
X850760D01*
X698505Y533395D02*
Y549770D01*
Y533395D02*
X708660Y523240D01*
X806773Y453713D02*
X835717D01*
X837640Y451790D01*
X850760D01*
X704855Y535569D02*
Y549770D01*
Y535569D02*
X708660Y531764D01*
X812800Y459740D02*
X814250Y458290D01*
X850760D01*
X660405Y549770D02*
Y568955D01*
X666755Y549770D02*
Y562615D01*
X798980Y481480D02*
X800100Y482600D01*
X798980Y456310D02*
Y481480D01*
X794460Y451790D02*
X798980Y456310D01*
X781760Y451790D02*
X794460D01*
X792480Y477520D02*
X792938Y477978D01*
X792480Y469010D02*
Y477520D01*
X781760Y458290D02*
X792480Y469010D01*
X475405Y550150D02*
Y563455D01*
X469900Y568960D02*
X475405Y563455D01*
X459740Y568960D02*
X469900D01*
X457200Y571500D02*
X459740Y568960D01*
X469055Y550150D02*
Y558758D01*
X464377Y563436D02*
X469055Y558758D01*
X456740Y563436D02*
X464377D01*
X448676Y571500D02*
X456740Y563436D01*
X437305Y550150D02*
Y568653D01*
X440152Y571500D01*
X430955Y550150D02*
X431628Y550823D01*
Y571500D01*
X723385Y424173D02*
X725002Y425790D01*
X781760D01*
X716280Y431278D02*
X717292Y432290D01*
X781760D01*
X768653Y438383D02*
X769060Y438790D01*
X781760D01*
X723385Y438383D02*
X768653D01*
X716280Y445488D02*
X716478Y445290D01*
X781760D01*
X429231Y577286D02*
X453776D01*
X427365Y575420D02*
X429231Y577286D01*
X413810Y575420D02*
X427365D01*
X453776Y577286D02*
X456355Y579865D01*
X874725Y425790D02*
X905187Y456253D01*
X850760Y425790D02*
X874725D01*
X869170Y432290D02*
X899160Y462280D01*
X850760Y432290D02*
X869170D01*
X886650Y419290D02*
X911860Y444500D01*
X850760Y419290D02*
X886650D01*
X892205Y412790D02*
X917887Y438473D01*
X850760Y412790D02*
X892205D01*
X1262096Y433714D02*
X1264060Y431750D01*
X1244456Y433714D02*
X1262096D01*
X1240782Y437388D02*
X1244456Y433714D01*
X1223018Y437388D02*
X1240782D01*
X1220490Y434860D02*
X1223018Y437388D01*
X1198380Y434860D02*
X1220490D01*
X1198380Y419620D02*
X1209560D01*
X1224280Y434340D01*
X1239520D01*
X1248610Y425250D01*
X1264060D01*
X1115060Y706120D02*
X1196340D01*
X1112520Y708660D02*
X1115060Y706120D01*
X1112520Y708660D02*
Y726990D01*
X1097980Y741530D02*
X1112520Y726990D01*
X1254760Y673100D02*
X1259840Y668020D01*
Y485140D02*
Y668020D01*
X1249680Y474980D02*
X1259840Y485140D01*
X1249680Y467360D02*
Y474980D01*
Y467360D02*
X1252790Y464250D01*
X1264060D01*
X1270000Y744770D02*
X1273240Y741530D01*
X1270000Y744770D02*
Y754380D01*
X1264920Y471610D02*
Y675640D01*
X1264060Y470750D02*
X1264920Y471610D01*
X1150620Y563880D02*
X1153568Y566828D01*
Y576580D01*
X1132840Y563880D02*
X1150620D01*
X1167778Y549967D02*
X1168465Y549280D01*
X1167778Y549967D02*
Y576580D01*
X1162115Y549280D02*
Y568033D01*
X1160673Y569475D02*
X1162115Y568033D01*
X1130365Y549280D02*
Y561405D01*
X1132840Y563880D01*
X1124015Y549280D02*
Y562675D01*
X1131893Y570553D01*
X1147541D01*
X1149415Y585535D02*
Y597280D01*
X1138430Y574550D02*
X1149415Y585535D01*
X1106870Y574550D02*
X1138430D01*
X1220745Y467875D02*
X1250370Y438250D01*
X1264060D01*
X1227850Y468560D02*
Y474980D01*
Y468560D02*
X1251660Y444750D01*
X1264060D01*
X1234955Y467875D02*
X1251580Y451250D01*
X1264060D01*
X1242060Y467350D02*
Y474980D01*
Y467350D02*
X1251660Y457750D01*
X1264060D01*
X1344020Y599800D02*
Y615700D01*
X1350598Y464250D02*
X1356360Y470012D01*
X1333060Y464250D02*
X1350598D01*
X1347050Y470750D02*
X1356360Y480060D01*
X1333060Y470750D02*
X1347050D01*
X1447580Y742310D02*
X1447580Y742310D01*
X1445260Y744630D02*
X1447580Y742310D01*
X1445260Y744630D02*
Y756920D01*
X1351830Y457750D02*
X1371600Y477520D01*
X1333060Y457750D02*
X1351830D01*
X1622840Y742310D02*
X1623060Y742530D01*
Y759460D01*
X1355490Y451250D02*
X1371600Y467360D01*
X1333060Y451250D02*
X1355490D01*
X1531620Y594360D02*
X1539240D01*
X1504995Y563250D02*
Y572815D01*
X1509160Y576980D01*
X1524288D01*
X1498645Y563250D02*
Y576625D01*
X1503680Y581660D01*
X1518920D01*
X1531620Y594360D01*
X1543095Y563250D02*
Y576980D01*
X1544032D01*
X1544208Y576804D01*
X1369794Y425250D02*
X1391808Y447264D01*
X1333060Y425250D02*
X1369794D01*
X1536745Y563250D02*
Y579389D01*
X1544208Y586852D01*
X1366246Y431750D02*
X1391808Y457312D01*
X1333060Y431750D02*
X1366246D01*
X1524288Y576980D02*
X1534160Y586852D01*
X1362698Y438250D02*
X1381760Y457312D01*
X1333060Y438250D02*
X1362698D01*
X1359150Y444750D02*
X1381760Y467360D01*
X1333060Y444750D02*
X1359150D01*
X1742440Y506509D02*
Y601980D01*
X1712122Y476191D02*
X1742440Y506509D01*
X1795780Y743500D02*
X1796480Y742800D01*
X1795780Y743500D02*
Y759460D01*
X1752600Y502004D02*
Y645160D01*
X1722251Y471655D02*
X1752600Y502004D01*
X1744980Y617880D02*
Y649471D01*
X1726540Y599440D02*
X1744980Y617880D01*
Y649471D02*
X1771149Y675640D01*
X1971740Y742800D02*
Y758760D01*
X1971040Y759460D02*
X1971740Y758760D01*
X1864360Y668020D02*
X1894840Y698500D01*
X1889760Y706120D02*
X1905000D01*
X1775460Y668020D02*
X1864360D01*
X1752600Y645160D02*
X1775460Y668020D01*
X1714086Y471655D02*
X1722251D01*
X1712122Y469691D02*
X1714086Y471655D01*
X1786240Y636720D02*
X1793500Y643980D01*
X1786240Y613160D02*
Y636720D01*
X1806620Y636780D02*
X1824400D01*
X1802240Y632400D02*
X1806620Y636780D01*
X1824400D02*
X1829900Y642280D01*
X1818900Y646940D02*
X1826520Y654560D01*
X1804500Y646940D02*
X1818900D01*
X1901890Y666600D02*
X1933640D01*
X1831444Y638444D02*
X1838960D01*
X1818240Y625240D02*
X1831444Y638444D01*
X1933640Y641200D02*
Y666600D01*
X1980630Y649480D02*
Y667920D01*
Y649480D02*
X1987615Y642495D01*
X1768100Y615300D02*
Y646940D01*
X1778240Y613160D02*
Y646080D01*
X1839640Y654560D02*
X1850240Y643960D01*
X1826520Y654560D02*
X1839640D01*
X1797850Y680720D02*
X1844080Y726950D01*
X1726540Y680720D02*
X1797850D01*
X1771149Y675640D02*
X1859280D01*
X1889760Y706120D01*
X2019341Y726950D02*
Y726950D01*
Y716320D02*
Y726950D01*
X2014220Y711200D02*
X2019341Y716320D01*
X1844080Y726950D02*
X1844081Y726950D01*
X1726540Y660400D02*
Y680720D01*
Y640080D02*
Y660400D01*
Y619760D02*
Y640080D01*
Y579120D02*
Y599440D01*
Y558800D02*
Y579120D01*
Y538480D02*
Y558800D01*
X1834240Y613160D02*
Y625240D01*
X1838920Y629920D01*
X1838960D01*
X1726202Y458793D02*
X1758627D01*
X1724100Y456691D02*
X1726202Y458793D01*
X1712122Y456691D02*
X1724100D01*
X1818240Y613160D02*
Y625240D01*
X1750971Y463191D02*
X1752600Y464820D01*
X1712122Y463191D02*
X1750971D01*
X1773531Y450191D02*
X1803400Y480060D01*
X1777079Y443691D02*
X1803400Y470012D01*
X1780627Y437191D02*
X1813448Y470012D01*
X1784175Y430691D02*
X1813448Y459964D01*
X1987942Y589986D02*
X1990482Y592526D01*
X1956305Y589986D02*
X1987942D01*
X1949541Y596750D02*
X1956305Y589986D01*
X2013015Y563250D02*
Y572705D01*
X2008740Y576980D02*
X2013015Y572705D01*
X2002639Y576980D02*
X2008740D01*
X2019365Y563250D02*
Y574940D01*
X2007566Y586740D02*
X2019365Y574940D01*
X1712122Y430691D02*
X1784175D01*
X1712122Y437191D02*
X1780627D01*
X1712122Y443691D02*
X1777079D01*
X1712122Y450191D02*
X1773531D01*
X2007088Y586740D02*
X2007566D01*
X1999983Y579635D02*
X2002639Y576980D01*
X1983118D02*
X1992878Y586740D01*
X1981265Y576980D02*
X1983118D01*
X1981265Y563250D02*
Y576980D01*
X1981200Y583265D02*
Y584200D01*
X1974915Y576980D02*
X1981200Y583265D01*
X1974915Y563250D02*
Y576980D01*
X1990482Y592526D02*
X1999876D01*
X2000315Y592965D01*
X2000315Y592965D02*
Y611250D01*
X1933640Y596750D02*
X1949541D01*
X1965390Y593600D02*
X1968565Y596775D01*
X1960310Y593600D02*
X1965390D01*
X1945070Y608840D02*
X1960310Y593600D01*
X1950941Y611250D02*
X1962215D01*
X1939990Y622200D02*
X1950941Y611250D01*
X1951420Y587250D02*
X1962215Y576455D01*
X1920940Y587250D02*
X1951420D01*
X1924750Y608840D02*
X1945070D01*
X1962215Y563250D02*
Y576455D01*
X1911641Y577951D02*
X1920940Y587250D01*
X1911641Y558501D02*
Y577951D01*
X2006665Y611250D02*
Y642495D01*
X1987615Y611250D02*
Y642495D01*
X1966050Y641200D02*
X1981265Y625985D01*
Y611250D02*
Y625985D01*
X2013015D02*
X2028230Y641200D01*
X2013015Y611250D02*
Y625985D01*
X1901890Y631700D02*
X1967930D01*
X1974915Y624715D01*
X2032065Y611250D02*
X2043340D01*
X2019365Y622175D02*
X2028890Y631700D01*
X2019365Y611250D02*
Y622175D01*
X2028890Y631700D02*
X2092390D01*
X2028230Y641200D02*
X2060640D01*
X1974915Y611250D02*
Y624715D01*
X1333060Y399250D02*
X1345510D01*
X1351988Y405728D01*
X1341930Y392750D02*
X1355146Y379534D01*
X1344120Y386250D02*
X1353884Y376486D01*
X1333060Y386250D02*
X1344120D01*
X1318990Y405750D02*
X1333060D01*
Y392750D02*
X1341930D01*
X820660Y605540D02*
Y638460D01*
X810520Y607680D02*
Y639320D01*
Y607680D02*
X812660Y605540D01*
X835920Y636360D02*
Y639320D01*
X828660Y629100D02*
X835920Y636360D01*
X828660Y605540D02*
Y629100D01*
X872320Y634660D02*
Y639320D01*
X866820Y629160D02*
X872320Y634660D01*
X849040Y629160D02*
X866820D01*
X844660Y624780D02*
X849040Y629160D01*
X844660Y605540D02*
Y624780D01*
X846920Y639320D02*
X861320D01*
X868940Y646940D01*
X882060D01*
X892660Y636340D01*
Y605540D02*
Y636340D01*
X934960Y605540D02*
Y638460D01*
X924820Y607680D02*
Y639320D01*
Y607680D02*
X926960Y605540D01*
X950220Y636360D02*
Y639320D01*
X942960Y629100D02*
X950220Y636360D01*
X942960Y605540D02*
Y629100D01*
X986620Y634660D02*
Y639320D01*
X981120Y629160D02*
X986620Y634660D01*
X963340Y629160D02*
X981120D01*
X958960Y624780D02*
X963340Y629160D01*
X958960Y605540D02*
Y624780D01*
X961220Y639320D02*
X975620D01*
X983240Y646940D01*
X996360D01*
X1006960Y636340D01*
Y605540D02*
Y636340D01*
X1959040Y495200D02*
X2035240D01*
X666120Y637440D02*
X701720D01*
X1108140Y481230D02*
X1184340D01*
X644530Y481720D02*
X720730D01*
X415080Y482100D02*
X491280D01*
X1360020Y615700D02*
Y646500D01*
X1349420Y657100D02*
X1360020Y646500D01*
X1336300Y657100D02*
X1349420D01*
X1328680Y649480D02*
X1336300Y657100D01*
X1314280Y649480D02*
X1328680D01*
X1312020Y615700D02*
Y634940D01*
X1316400Y639320D01*
X1334180D01*
X1339680Y644820D01*
Y649480D01*
X1296020Y615700D02*
Y639260D01*
X1303280Y646520D01*
Y649480D01*
X1277880Y617840D02*
X1280020Y615700D01*
X1277880Y617840D02*
Y649480D01*
X1288020Y615700D02*
Y648620D01*
X1482770Y495200D02*
X1558970D01*
X1412860Y385320D02*
Y394728D01*
Y383288D02*
Y385320D01*
X1387460D02*
Y394728D01*
Y383288D02*
Y385320D01*
X1362060D02*
Y394728D01*
Y383288D02*
Y385320D01*
X1351988Y405728D02*
X1362060D01*
X1355146Y379534D02*
X1371514D01*
X1374760Y382780D02*
Y400560D01*
X1371514Y379534D02*
X1374760Y382780D01*
Y400560D02*
X1379928Y405728D01*
X1387460D01*
X1353884Y376486D02*
X1393866D01*
X1400160Y382780D02*
Y400560D01*
X1393866Y376486D02*
X1400160Y382780D01*
Y400560D02*
X1405328Y405728D01*
X1412860D01*
X1232940Y377700D02*
X1290940D01*
X1318990Y405750D01*
X1232520Y377280D02*
X1232940Y377700D01*
X1584370Y666600D02*
X1616120D01*
X1457370Y669800D02*
X1464380D01*
X1457370Y666600D02*
Y669800D01*
Y666600D02*
X1461180D01*
X1082740Y655830D02*
X1089750D01*
X1082740Y652630D02*
Y655830D01*
Y652630D02*
X1086550D01*
X746130Y653120D02*
X777880D01*
X619130Y656320D02*
X626140D01*
X619130Y653120D02*
X622940D01*
X619130D02*
Y656320D01*
X690751Y597770D02*
X694469Y601488D01*
X711880Y656320D02*
X723930D01*
X701840D02*
X711880D01*
Y631700D02*
Y656320D01*
X710756Y630576D02*
X711880Y631700D01*
X710756Y630493D02*
Y630576D01*
X694469Y614207D02*
X710756Y630493D01*
X664240Y656320D02*
X666120Y654440D01*
X653460Y634117D02*
Y656320D01*
X664240D01*
X645140D02*
X653460D01*
Y634117D02*
X673105Y614472D01*
Y597770D02*
Y614472D01*
X701720Y654762D02*
Y656440D01*
X694469Y601488D02*
Y614207D01*
X690751Y597770D02*
X692155D01*
X666120Y654762D02*
Y656440D01*
X475405Y598150D02*
Y611125D01*
X482880Y618600D01*
X548430D01*
X389680Y653500D02*
X393490D01*
X389680D02*
Y656700D01*
X1060741Y544531D02*
Y563981D01*
X1070040Y573280D01*
X1111315Y549280D02*
Y562485D01*
X1070040Y573280D02*
X1100520D01*
X1111315Y562485D01*
X1100041Y597280D02*
X1111315D01*
X1073850Y594870D02*
X1094170D01*
X1109410Y579630D01*
X1114490D01*
X1117665Y582805D01*
Y597280D01*
X1098641Y582780D02*
X1106870Y574550D01*
X1082740Y582780D02*
X1098641D01*
X1181165Y597280D02*
X1192440D01*
X1435370Y558500D02*
Y577950D01*
X1444670Y587250D01*
X1485945Y563250D02*
Y576455D01*
X1444670Y587250D02*
X1475150D01*
X1485945Y576455D01*
X1448480Y608840D02*
X1468800D01*
X1484040Y593600D01*
X1489120D01*
X1492295Y596775D01*
X1473270Y596750D02*
X1481500Y588520D01*
X1457370Y596750D02*
X1473270D01*
X1481500Y588520D02*
X1519600D01*
X1524045Y592965D01*
X597131Y545020D02*
Y564470D01*
X606430Y573770D01*
X647705Y549770D02*
Y562975D01*
X606430Y573770D02*
X636910D01*
X647705Y562975D01*
X645800Y580120D02*
X650880D01*
X654055Y583295D01*
X635030Y583270D02*
X643260Y575040D01*
X619130Y583270D02*
X635030D01*
X643260Y575040D02*
X681360D01*
X685805Y579485D01*
X1543095Y611250D02*
Y622175D01*
X1552620Y631700D01*
X1616120D01*
X1168465Y597280D02*
Y608205D01*
X1177990Y617730D01*
X1241490D01*
X704855Y597770D02*
Y608695D01*
X714380Y618220D01*
X777880D01*
X2092390Y666600D02*
X2092390D01*
X2060640D02*
X2092390D01*
X1241490Y652630D02*
X1241490D01*
X1209740D02*
X1241490D01*
X2060640Y641200D02*
Y666600D01*
X2012990Y667260D02*
X2034630D01*
X1978750Y669800D02*
X1980630Y667920D01*
X1959650Y669800D02*
X1978750D01*
X1936840D02*
X1940650D01*
X1933640Y666600D02*
X1937450D01*
X1933640D02*
Y669800D01*
X1936840D01*
X2043340Y611250D02*
X2054290Y622200D01*
X2012990Y648820D02*
Y667260D01*
X2006665Y642495D02*
X2012990Y648820D01*
X1933640Y641200D02*
X1966050D01*
X1968565Y596775D02*
Y611250D01*
X1911640Y616000D02*
X1917590D01*
X1924750Y608840D01*
X1584370Y641200D02*
Y666600D01*
X1536720Y667260D02*
X1558360D01*
X1502480Y669800D02*
X1504360Y667920D01*
X1483380Y669800D02*
X1502480D01*
X1457370Y641200D02*
Y666600D01*
X1425620D02*
X1457370D01*
X1567069Y611250D02*
X1578020Y622200D01*
X1555795Y611250D02*
X1567069D01*
X1536720Y648820D02*
Y667260D01*
X1530395Y611250D02*
Y642495D01*
X1536720Y648820D01*
X1551960Y641200D02*
X1584370D01*
X1536745Y625985D02*
X1551960Y641200D01*
X1536745Y611250D02*
Y625985D01*
X1524045Y592965D02*
Y611250D01*
X1504360Y649480D02*
X1511345Y642495D01*
X1504360Y649480D02*
Y667920D01*
X1511345Y611250D02*
Y642495D01*
X1425620Y631700D02*
X1491660D01*
X1498645Y624715D01*
Y611250D02*
Y624715D01*
X1504995Y611250D02*
Y625985D01*
X1489780Y641200D02*
X1504995Y625985D01*
X1457370Y641200D02*
X1489780D01*
X1492295Y596775D02*
Y611250D01*
X1435370Y616000D02*
X1441320D01*
X1448480Y608840D01*
X1474670Y611250D02*
X1485945D01*
X1463720Y622200D02*
X1474670Y611250D01*
X1209740Y627230D02*
Y652630D01*
X1162090Y653290D02*
X1183730D01*
X1127850Y655830D02*
X1129730Y653950D01*
X1108750Y655830D02*
X1127850D01*
X1082740Y627230D02*
Y652630D01*
X1050990D02*
X1082740D01*
X1192440Y597280D02*
X1203390Y608230D01*
X1162090Y634850D02*
Y653290D01*
X1155765Y597280D02*
Y628525D01*
X1162090Y634850D01*
X1177330Y627230D02*
X1209740D01*
X1162115Y612015D02*
X1177330Y627230D01*
X1162115Y597280D02*
Y612015D01*
X1129730Y635510D02*
X1136715Y628525D01*
X1129730Y635510D02*
Y653950D01*
X1136715Y597280D02*
Y628525D01*
X1050990Y617730D02*
X1117030D01*
X1124015Y610745D01*
Y597280D02*
Y610745D01*
X1130365Y597280D02*
Y612015D01*
X1115150Y627230D02*
X1130365Y612015D01*
X1082740Y627230D02*
X1115150D01*
X1060741Y602030D02*
X1066690D01*
X1073850Y594870D01*
X1089090Y608230D02*
X1100041Y597280D01*
X746130Y627720D02*
Y653120D01*
X619130Y627720D02*
Y653120D01*
X587380D02*
X619130D01*
X728830Y597770D02*
X739780Y608720D01*
X717555Y597770D02*
X728830D01*
X713720Y627720D02*
X746130D01*
X698505Y612505D02*
X713720Y627720D01*
X698505Y597770D02*
Y612505D01*
X685805Y579485D02*
Y597770D01*
X587380Y618220D02*
X653420D01*
X660405Y611235D01*
Y597770D02*
Y611235D01*
X666755Y597770D02*
Y612505D01*
X651541Y627720D02*
X666755Y612505D01*
X619130Y627720D02*
X651541D01*
X654055Y583295D02*
Y597770D01*
X630560Y595360D02*
X645800Y580120D01*
X610240Y595360D02*
X630560D01*
X597131Y602520D02*
X603080D01*
X610240Y595360D01*
X636431Y597770D02*
X647705D01*
X625480Y608720D02*
X636431Y597770D01*
X488105Y598150D02*
X499380D01*
X510330Y609100D01*
X469055Y598150D02*
Y612885D01*
X484270Y628100D01*
X469030Y654160D02*
X490670D01*
X469030Y635720D02*
Y654160D01*
X462705Y629395D02*
X469030Y635720D01*
X462705Y598150D02*
Y629395D01*
X415690Y656700D02*
X434790D01*
X436670Y654820D01*
X437305Y598150D02*
Y612885D01*
X422090Y628100D02*
X437305Y612885D01*
X430955Y598150D02*
Y611615D01*
X423970Y618600D02*
X430955Y611615D01*
X357930Y618600D02*
X423970D01*
X443655Y598150D02*
Y629395D01*
X436670Y636380D02*
X443655Y629395D01*
X436670Y636380D02*
Y654820D01*
X389680Y628100D02*
X422090D01*
X516680Y653500D02*
X548430D01*
X516680Y628100D02*
Y653500D01*
X484270Y628100D02*
X516680D01*
X367680Y602900D02*
X373630D01*
X380790Y595740D01*
X416350Y580500D02*
X421430D01*
X424605Y583675D01*
Y598150D01*
X406980D02*
X418255D01*
X396030Y609100D02*
X406980Y598150D01*
X401110Y595740D02*
X416350Y580500D01*
X380790Y595740D02*
X401110D01*
X389680Y583650D02*
X405580D01*
X413810Y575420D01*
X456355Y579865D02*
Y598150D01*
X418255Y550150D02*
Y563355D01*
X407460Y574150D02*
X418255Y563355D01*
X376980Y574150D02*
X407460D01*
X367680Y564850D02*
X376980Y574150D01*
X367680Y545400D02*
Y564850D01*
X357930Y653500D02*
X389680D01*
Y656700D02*
X392880D01*
X396690D01*
X389680Y628100D02*
Y653500D01*
X932560Y370428D02*
Y381868D01*
X905160Y370828D02*
Y382268D01*
X879760Y370916D02*
Y382356D01*
X850760Y386790D02*
X863210D01*
X869688Y393268D01*
X879760D01*
X859630Y380290D02*
X872846Y367074D01*
X889214D01*
X892460Y370320D02*
Y388100D01*
X889214Y367074D02*
X892460Y370320D01*
Y388100D02*
X897628Y393268D01*
X905160D01*
X861820Y373790D02*
X871584Y364026D01*
X911566D01*
X917860Y370320D02*
Y388100D01*
X911566Y364026D02*
X917860Y370320D01*
Y388100D02*
X923028Y393268D01*
X930560D01*
X850760Y373790D02*
X861820D01*
X750640Y365240D02*
X808640D01*
X836690Y393290D01*
X850760D01*
Y380290D02*
X859630D01*
X750220Y364820D02*
X750640Y365240D01*
X1169360Y434860D02*
X1187380D01*
X1166820Y406920D02*
X1179520Y419620D01*
X1166820Y432320D02*
X1169360Y434860D01*
X1768100Y615300D02*
X1770240Y613160D01*
X1793500Y643980D02*
Y646940D01*
X1829900Y642280D02*
Y646940D01*
X1802240Y613160D02*
Y632400D01*
X1850240Y613160D02*
Y643960D01*
X1611582Y382721D02*
X1612002Y383141D01*
X1670002D02*
X1698052Y411191D01*
X1612002Y383141D02*
X1670002D01*
X1750576Y384975D02*
X1753822Y388221D01*
X1734208Y384975D02*
X1750576D01*
X1731050Y411169D02*
X1741122D01*
X1712122Y398191D02*
X1720992D01*
X1698052Y411191D02*
X1712122D01*
Y391691D02*
X1723181D01*
X1732945Y381927D01*
X1720992Y398191D02*
X1734208Y384975D01*
X1724572Y404691D02*
X1731050Y411169D01*
X1712122Y404691D02*
X1724572D01*
X1741122Y390761D02*
Y400257D01*
X1766522Y390761D02*
Y400257D01*
X1655520Y450191D02*
X1671828Y466499D01*
X1643122Y450191D02*
X1655520D01*
Y443691D02*
X1675892Y464063D01*
X1643122Y443691D02*
X1655520D01*
Y437191D02*
X1679956Y461627D01*
X1643122Y437191D02*
X1655520D01*
X1684020Y459191D02*
Y505200D01*
X1655520Y430691D02*
X1684020Y459191D01*
X1643122Y430691D02*
X1655520D01*
Y456691D02*
X1667764Y468935D01*
X1643122Y456691D02*
X1655520D01*
Y463191D02*
X1663700Y471371D01*
X1643122Y463191D02*
X1655520D01*
Y469691D02*
X1659636Y473807D01*
X1643122Y469691D02*
X1655520D01*
X1655572Y479298D02*
X1655572Y624415D01*
X1652465Y476191D02*
X1655572Y479298D01*
X1643122Y476191D02*
X1652465D01*
X1655572Y628752D02*
X1707540Y680720D01*
X1655572Y624415D02*
Y628752D01*
X1659636Y612496D02*
X1707540Y660400D01*
X1659636Y473807D02*
Y612496D01*
X1663700Y596240D02*
X1707540Y640080D01*
X1663700Y471371D02*
Y596240D01*
X1667764Y579984D02*
X1707540Y619760D01*
X1667764Y468935D02*
Y579984D01*
X1671828Y563728D02*
X1707540Y599440D01*
X1671828Y466499D02*
Y563728D01*
X1675892Y547472D02*
X1707540Y579120D01*
X1675892Y464063D02*
Y547472D01*
X1679956Y531216D02*
X1707540Y558800D01*
X1679956Y461627D02*
Y531216D01*
X1684020Y514960D02*
X1707540Y538480D01*
X1684020Y505200D02*
Y514960D01*
Y505200D02*
X1684020Y505200D01*
X1179520Y419620D02*
X1187380D01*
X1758990Y411169D02*
X1766522D01*
X1779222Y406001D02*
X1784390Y411169D01*
X1791922D01*
X1779222Y388221D02*
Y406001D01*
X1772928Y381927D02*
X1779222Y388221D01*
X1732945Y381927D02*
X1772928D01*
X1753822Y388221D02*
Y406001D01*
X1758990Y411169D01*
X288000Y611700D02*
X289560Y610140D01*
X147320Y609600D02*
X203200D01*
X210550Y602250D01*
X289560D02*
Y610140D01*
X147320Y635000D02*
X203200D01*
X214816Y623384D01*
X295764D01*
X147320Y584200D02*
X203200D01*
X276948Y533908D02*
Y554228D01*
Y571812D01*
X287948Y554228D02*
X319532D01*
X320040Y553720D01*
X288000Y632420D02*
X304800Y615620D01*
X287948Y533908D02*
X311912D01*
X312420Y533400D01*
X210550Y602250D02*
X289560D01*
X288000Y571900D02*
Y585900D01*
X276860Y571900D02*
X288000D01*
X294240D01*
X203200Y584200D02*
X215588Y571812D01*
X276948D01*
X294240Y571900D02*
X304800Y561340D01*
X219400Y611700D02*
X233000D01*
X219000Y612100D02*
X219400Y611700D01*
X750220Y417920D02*
X761850Y406290D01*
X879760Y404268D02*
X942332D01*
X219000Y632020D02*
X233000D01*
X737520Y405220D02*
X750220Y417920D01*
X1741122Y422169D02*
X1803694D01*
D26*
X634986Y487666D02*
Y519246D01*
X616556Y469236D02*
X634986Y487666D01*
X602756Y469236D02*
X616556D01*
X634986Y519246D02*
X654055Y538315D01*
X405384Y513654D02*
X424605Y532875D01*
X405384Y485648D02*
Y513654D01*
X381328Y461592D02*
X405384Y485648D01*
X1426110Y514860D02*
X1450492Y539242D01*
X1481328D01*
X1492295Y550209D01*
Y563250D01*
X1905140Y523810D02*
X1919049Y537718D01*
X1898640Y517310D02*
X1905140Y523810D01*
X1919049Y537718D02*
X1961896D01*
X1968565Y544387D01*
Y563250D01*
X754210Y399790D02*
X781760D01*
X750800Y396380D02*
X754210Y399790D01*
X812660Y589420D02*
X844040Y558040D01*
X856660D01*
X812660Y589420D02*
Y605540D01*
X926960Y586880D02*
X955800Y558040D01*
X867920D02*
X900660Y590780D01*
X856660Y558040D02*
X867920D01*
X900660Y590780D02*
Y605540D01*
X955800Y558040D02*
X970960D01*
X926960Y586880D02*
Y605540D01*
X984760Y558040D02*
X1014960Y588240D01*
X970960Y558040D02*
X984760D01*
X1014960Y588240D02*
Y605540D01*
X1825080Y726950D02*
Y777750D01*
X748670Y742020D02*
X751845Y745195D01*
X723270Y742020D02*
X748670D01*
X717820Y531860D02*
X775340D01*
X711205Y538475D02*
X717820Y531860D01*
X711205Y538475D02*
Y549770D01*
X812660Y477660D02*
Y510540D01*
X443655Y529675D02*
Y550150D01*
X462705Y529675D02*
Y550150D01*
X1097980Y741530D02*
X1101155Y744705D01*
X1072580Y741530D02*
X1097980D01*
X1447580Y742310D02*
X1450755Y745485D01*
X1422180Y742310D02*
X1447580D01*
X1447580D01*
X1796480Y742800D02*
X1799655Y745975D01*
X1771080Y742800D02*
X1796480D01*
X1844080Y726950D02*
Y752350D01*
X1857440Y765710D01*
X1809180Y755500D02*
Y819000D01*
X1799655Y745975D02*
X1809180Y755500D01*
X2019341Y726950D02*
X2022490Y723800D01*
X2019340Y726950D02*
X2019341Y726950D01*
X1844080Y726950D02*
X1847230Y723800D01*
X1844080Y726950D02*
X1844080Y726950D01*
X1933640Y561850D02*
Y577751D01*
X2000340Y633630D02*
Y650750D01*
X1993965Y627255D02*
X2000340Y633630D01*
X1993965Y611250D02*
Y627255D01*
X1892140Y558500D02*
Y617270D01*
X2006665Y542775D02*
Y563250D01*
X2000315Y523725D02*
Y563250D01*
X2000340Y686920D02*
X2013650D01*
X1524070Y686920D02*
X1537380D01*
X1149440Y672950D02*
X1162750D01*
X456380Y673820D02*
X469690D01*
X2000340Y726950D02*
Y777750D01*
X1651440Y726460D02*
Y777260D01*
X1476180Y726460D02*
Y777260D01*
X1301840Y725680D02*
Y776480D01*
X1126580Y725680D02*
Y776480D01*
X952531Y726170D02*
Y776970D01*
X777270Y726170D02*
Y776970D01*
X603700Y726550D02*
Y777350D01*
X1349420Y570740D02*
X1368020Y589340D01*
X1280020Y584260D02*
X1296080Y568200D01*
X1346880D02*
X1349420Y570740D01*
X1324020Y568200D02*
X1346880D01*
X1368020Y589340D02*
Y615700D01*
X1296080Y568200D02*
X1324020D01*
X1280020Y584260D02*
Y615700D01*
X1770240Y586800D02*
X1791380Y565660D01*
X1814240D02*
X1837100D01*
X1858240Y586800D02*
Y613160D01*
X1791380Y565660D02*
X1814240D01*
X1770240Y586800D02*
Y613160D01*
X498520Y379480D02*
Y427480D01*
X485820Y379480D02*
Y427480D01*
X388810Y547880D02*
X389680Y548750D01*
X388810Y509780D02*
Y547880D01*
X654055Y538315D02*
Y549770D01*
X620440Y384180D02*
Y432180D01*
X607740Y384180D02*
Y432180D01*
X617410Y546650D02*
X619130Y548370D01*
X617410Y509780D02*
Y546650D01*
X608630Y459870D02*
X610280Y461520D01*
X608630Y436030D02*
Y459870D01*
X620440Y459211D02*
X621330Y458321D01*
Y436030D02*
Y458321D01*
X590630Y532570D02*
Y535420D01*
Y545020D01*
X584130Y532570D02*
Y535420D01*
X587380Y527270D02*
X587380D01*
X584130Y535420D02*
Y545020D01*
X587380Y532170D02*
X590630Y535420D01*
X584130Y535420D02*
X587380Y532170D01*
X486080Y434720D02*
Y459330D01*
X551680Y536290D02*
Y545400D01*
Y536290D02*
X551680Y536290D01*
X547630Y532240D02*
X551680Y536290D01*
X424605Y532875D02*
Y550150D01*
X361180Y535800D02*
Y545400D01*
Y535800D02*
X361180Y535800D01*
X357930Y532550D02*
X361180Y535800D01*
X424605Y532875D02*
X424605Y532875D01*
X498780Y434720D02*
Y459330D01*
X1898640Y517310D02*
Y558500D01*
X1428870Y546050D02*
Y558500D01*
X1422370Y546050D02*
Y558500D01*
X1054240Y532080D02*
Y544530D01*
X1047740Y532080D02*
Y544530D01*
X1050990Y526780D02*
X1112440D01*
X1117665Y532005D01*
X1136715Y528806D02*
Y549280D01*
X1082740Y547880D02*
Y563781D01*
X1143065Y597280D02*
X1143091Y597305D01*
X1143065Y509755D02*
Y549280D01*
X1155765Y528806D02*
Y549280D01*
X1149415Y509755D02*
Y549280D01*
X1174815Y537085D02*
X1180530Y531370D01*
X1238950D01*
X1240691D01*
X1238241Y532080D02*
X1238950Y531370D01*
X1240691D02*
X1244740Y535420D01*
X1174815Y537085D02*
Y549280D01*
X1238241Y532080D02*
Y544530D01*
X1244740Y535420D02*
Y544530D01*
X1117665Y532005D02*
Y549280D01*
X1511345Y542775D02*
Y563250D01*
X1457370Y561850D02*
Y577750D01*
X1517695Y523725D02*
Y563250D01*
X1530395Y542775D02*
Y563250D01*
X1524045Y523725D02*
Y563250D01*
X1555160Y545340D02*
X1613580D01*
X1549445Y551055D02*
X1555160Y545340D01*
X1615320D02*
X1619370Y549390D01*
X1612870Y546050D02*
X1613580Y545340D01*
X1615320D01*
X1549445Y551055D02*
Y563250D01*
X1612870Y546050D02*
Y558500D01*
X1619370Y549390D02*
Y558500D01*
X1987615Y542775D02*
Y563250D01*
X1993965Y523725D02*
Y563250D01*
X2089140Y546050D02*
X2089850Y545340D01*
X2031430D02*
X2089850D01*
X2091591D02*
X2095640Y549390D01*
X2025715Y551055D02*
X2031430Y545340D01*
X2089140Y546050D02*
Y558500D01*
X2089850Y545340D02*
X2091591D01*
X2095640Y549390D02*
Y558500D01*
X2025715Y551055D02*
Y563250D01*
X1905140Y523810D02*
Y558500D01*
X673105Y529295D02*
Y549770D01*
X692155Y529295D02*
Y549770D01*
X619130Y548370D02*
Y564270D01*
X775340Y531860D02*
X777080D01*
X781130Y535910D01*
X774630Y532570D02*
X775340Y531860D01*
X774630Y532570D02*
Y545020D01*
X781130Y535910D02*
Y545020D01*
X456355Y510625D02*
X465880Y501100D01*
X440480D02*
X450005Y510625D01*
X462705Y529675D02*
X491280Y501100D01*
X415080Y501100D02*
X443655Y529675D01*
X545180Y532950D02*
X545890Y532240D01*
X487470D02*
X545890D01*
X481755Y537955D02*
X487470Y532240D01*
X545890D02*
X547630D01*
X354680Y535800D02*
X357930Y532550D01*
Y527650D02*
Y532550D01*
X2089140Y616000D02*
Y628451D01*
X2092390Y631700D01*
X2095640Y628450D01*
Y616000D02*
Y628450D01*
X1612870Y616000D02*
Y628450D01*
X1616120Y631700D01*
X1619370Y628450D01*
Y616000D02*
Y628450D01*
X1238240Y602030D02*
Y614481D01*
X1241490Y617730D01*
X1244740Y614480D01*
Y602030D02*
Y614480D01*
X774630Y602520D02*
Y614971D01*
X777880Y618220D01*
X781130Y614970D01*
Y602520D02*
Y614970D01*
X1997141Y780950D02*
X2000340Y777750D01*
X1821880Y780950D02*
X1825080Y777750D01*
X2102140Y558500D02*
Y616000D01*
X1968540Y777750D02*
X1971741Y780950D01*
X2022490Y723800D02*
X2073340D01*
X2019340Y726950D02*
Y752350D01*
X1946340Y742800D02*
X1971740D01*
X1971740Y723800D02*
X1997191D01*
X1796480Y777750D02*
X1796481Y777750D01*
X1793280Y777750D02*
X1796480D01*
X1847230Y723800D02*
X1898080D01*
X1796480Y723800D02*
X1821931D01*
X2032700Y765710D02*
Y786640D01*
X2022540Y796800D02*
Y819000D01*
Y796800D02*
X2032700Y786640D01*
X2019340Y752350D02*
X2032700Y765710D01*
X1997141Y780950D02*
Y819000D01*
X2019340Y777750D02*
Y787301D01*
X2009841Y796800D02*
X2019340Y787301D01*
X2009841Y796800D02*
Y819000D01*
X1984440Y755500D02*
Y819000D01*
X1971740Y742800D02*
X1984440Y755500D01*
X1971741Y780950D02*
Y819000D01*
X2000315Y523725D02*
X2009840Y514200D01*
X2006665Y542775D02*
X2035240Y514200D01*
X1984440Y514200D02*
X1993965Y523725D01*
X2000340Y686920D02*
Y726950D01*
Y650750D02*
Y686920D01*
X1980630D02*
X2000340D01*
X1993965Y611250D02*
X1993990Y611275D01*
X1959040Y514200D02*
X1987615Y542775D01*
X1857440Y765710D02*
Y786640D01*
X1847280Y796800D02*
Y819000D01*
Y796800D02*
X1857440Y786640D01*
X1821880Y780950D02*
Y819000D01*
X1844080Y777750D02*
Y787300D01*
X1834581Y796800D02*
X1844080Y787300D01*
X1834581Y796800D02*
Y819000D01*
X1796481Y777750D02*
Y819000D01*
X1648240Y780460D02*
X1651440Y777260D01*
X1472980Y780460D02*
X1476180Y777260D01*
X1625870Y558499D02*
Y615999D01*
X1415870Y558500D02*
Y617270D01*
X1619640Y777260D02*
X1622840Y780460D01*
X1699040Y723310D02*
X1724440D01*
X1673590D02*
X1699040D01*
X1670440Y726460D02*
X1673590Y723310D01*
X1670440Y726460D02*
Y751860D01*
X1597440Y742310D02*
X1622840D01*
X1622840Y723310D02*
X1648290D01*
X1447580Y777260D02*
X1447580Y777260D01*
X1444380Y777260D02*
X1447580D01*
X1523780Y723310D02*
X1549180D01*
X1498330D02*
X1523780D01*
X1495180Y726460D02*
X1498330Y723310D01*
X1495180Y726460D02*
Y751860D01*
X1447580Y723310D02*
X1473030D01*
X1683800Y765220D02*
Y786150D01*
X1673640Y796310D02*
Y818510D01*
Y796310D02*
X1683800Y786150D01*
X1670440Y751860D02*
X1683800Y765220D01*
X1648240Y780460D02*
Y818510D01*
X1670440Y777260D02*
Y786811D01*
X1660940Y796310D02*
Y818510D01*
Y796310D02*
X1670440Y786811D01*
X1635540Y755010D02*
Y818510D01*
X1622840Y742310D02*
X1635540Y755010D01*
X1622840Y780460D02*
Y818510D01*
X1524045Y523725D02*
X1533570Y514200D01*
X1530395Y542775D02*
X1558970Y514200D01*
X1508170Y514200D02*
X1517695Y523725D01*
X1504360Y686920D02*
X1524070D01*
Y633630D02*
Y650750D01*
Y686920D01*
X1517695Y627255D02*
X1524070Y633630D01*
X1517695Y611250D02*
X1517720Y611275D01*
X1517695Y611250D02*
Y627255D01*
X1482770Y514200D02*
X1511345Y542775D01*
X1508540Y765220D02*
Y786150D01*
X1498380Y796310D02*
Y818510D01*
Y796310D02*
X1508540Y786150D01*
X1495180Y751860D02*
X1508540Y765220D01*
X1472980Y780460D02*
Y818510D01*
X1495180Y777260D02*
Y786810D01*
X1485680Y796310D02*
Y818510D01*
Y796310D02*
X1495180Y786810D01*
X1460280Y755010D02*
Y818510D01*
X1450755Y745485D02*
X1460280Y755010D01*
X1447580Y777260D02*
Y818510D01*
X1298640Y779680D02*
X1301840Y776480D01*
X1123381Y779680D02*
X1126580Y776480D01*
X1251240Y544530D02*
Y602030D01*
X1041240Y544530D02*
Y603300D01*
X1270040Y776480D02*
X1273241Y779680D01*
X1349440Y722530D02*
X1374840D01*
X1323990D02*
X1349440D01*
X1320840Y725680D02*
X1323990Y722530D01*
X1320840Y725680D02*
Y751080D01*
X1247840Y741530D02*
X1273240D01*
X1273240Y722530D02*
X1298690D01*
X1097980Y776480D02*
X1097980Y776480D01*
X1094780Y776480D02*
X1097980D01*
X1174180Y722530D02*
X1199580D01*
X1148730D02*
X1174180D01*
X1145580Y725680D02*
X1148730Y722530D01*
X1145580Y725680D02*
Y751080D01*
X1334200Y764440D02*
Y785370D01*
X1324041Y795530D02*
Y817730D01*
Y795530D02*
X1334200Y785370D01*
X1320840Y751080D02*
X1334200Y764440D01*
X1298640Y779680D02*
Y817730D01*
X1320840Y776480D02*
Y786031D01*
X1311340Y795530D02*
X1320840Y786031D01*
X1311340Y795530D02*
Y817730D01*
X1285941Y754230D02*
Y817730D01*
X1273240Y741530D02*
X1285941Y754230D01*
X1273241Y779680D02*
Y817730D01*
X1149415Y509755D02*
X1158940Y500230D01*
X1155765Y528805D02*
X1184340Y500230D01*
X1133540Y500230D02*
X1143065Y509755D01*
X1129730Y672950D02*
X1149440D01*
Y636780D02*
Y672950D01*
Y619660D02*
Y636780D01*
X1143065Y613285D02*
X1149440Y619660D01*
X1143065Y597280D02*
Y613285D01*
X1108140Y500230D02*
X1136715Y528805D01*
X1158940Y764440D02*
Y785370D01*
X1148781Y795530D02*
Y817730D01*
Y795530D02*
X1158940Y785370D01*
X1145580Y751080D02*
X1158940Y764440D01*
X1123381Y779680D02*
Y817730D01*
X1145580Y776480D02*
Y786030D01*
X1136080Y795530D02*
X1145580Y786030D01*
X1136080Y795530D02*
Y817730D01*
X1110680Y754230D02*
Y817730D01*
X1101155Y744705D02*
X1110680Y754230D01*
X1097980Y776480D02*
Y817730D01*
X949331Y780170D02*
X952531Y776970D01*
X774071Y780170D02*
X777271Y776970D01*
X787630Y545020D02*
Y602520D01*
X577630Y545020D02*
Y603790D01*
X920730Y776970D02*
X923931Y780170D01*
X1000130Y723020D02*
X1025530D01*
X974680D02*
X1000130D01*
X971530Y726170D02*
X974680Y723020D01*
X971530Y726170D02*
Y751570D01*
X898530Y742020D02*
X923930D01*
X923930Y723020D02*
X949380D01*
X748670Y776970D02*
X748671Y776970D01*
X745470Y776970D02*
X748670D01*
X824870Y723020D02*
X850270D01*
X799420D02*
X824870D01*
X796270Y726170D02*
X799420Y723020D01*
X796270Y726170D02*
Y751570D01*
X748670Y723020D02*
X774120D01*
X936630Y754720D02*
Y818220D01*
X923930Y742020D02*
X936630Y754720D01*
X923931Y780170D02*
Y818220D01*
X949331Y780170D02*
Y818220D01*
X971530Y776970D02*
Y786521D01*
X962030Y796020D02*
X971530Y786521D01*
X962030Y796020D02*
Y818220D01*
X984890Y764930D02*
Y785860D01*
X974731Y796020D02*
Y818220D01*
Y796020D02*
X984890Y785860D01*
X971530Y751570D02*
X984890Y764930D01*
X685805Y510245D02*
Y549770D01*
Y510245D02*
X695330Y500720D01*
X679455Y510245D02*
Y549770D01*
X669930Y500720D02*
X679455Y510245D01*
X685830Y620150D02*
Y637270D01*
X679455Y613775D02*
X685830Y620150D01*
X679455Y597770D02*
X679480Y597795D01*
X679455Y597770D02*
Y613775D01*
X761370Y754720D02*
Y818220D01*
X751845Y745195D02*
X761370Y754720D01*
X748671Y776970D02*
Y818220D01*
X774071Y780170D02*
Y818220D01*
X796270Y776970D02*
Y786520D01*
X786770Y796020D02*
X796270Y786520D01*
X786770Y796020D02*
Y818220D01*
X809630Y764930D02*
Y785860D01*
X799471Y796020D02*
Y818220D01*
Y796020D02*
X809630Y785860D01*
X796270Y751570D02*
X809630Y764930D01*
X692155Y529295D02*
X720730Y500720D01*
X644530Y500720D02*
X673105Y529295D01*
X354680Y535800D02*
Y545400D01*
X436670Y673820D02*
X456380D01*
X625900Y796400D02*
X636060Y786240D01*
Y765310D02*
Y786240D01*
X622700Y751950D02*
X636060Y765310D01*
X450640Y796400D02*
X460800Y786240D01*
Y765310D02*
Y786240D01*
X447440Y751950D02*
X460800Y765310D01*
X545180Y532950D02*
Y545400D01*
X450005Y510625D02*
Y550150D01*
X456355Y510625D02*
Y550150D01*
X428440Y726550D02*
Y751950D01*
X447440Y726550D02*
Y751950D01*
X447440Y777350D02*
Y786900D01*
X437940Y796400D02*
X447440Y786900D01*
X437940Y796400D02*
Y818600D01*
X425240Y780550D02*
Y818600D01*
Y780550D02*
X428440Y777350D01*
X428440Y751950D02*
Y777350D01*
X396640Y777350D02*
X399840D01*
X399840Y777350D01*
Y818600D01*
X450640Y796400D02*
Y818600D01*
X403015Y745575D02*
X412540Y755100D01*
Y818600D01*
X399840Y723400D02*
X425290D01*
X447440Y726550D02*
X450590Y723400D01*
X476040D01*
X501440D01*
X374440Y742400D02*
X399840D01*
X575100Y723400D02*
X600550D01*
X600500Y780550D02*
Y818600D01*
Y780550D02*
X603700Y777350D01*
X575100Y780550D02*
Y818600D01*
X571900Y777350D02*
X575100Y780550D01*
X549700Y742400D02*
X575100D01*
X587800Y755100D01*
Y818600D01*
X613200Y796400D02*
Y818600D01*
Y796400D02*
X622700Y786900D01*
Y777350D02*
Y786900D01*
X622700Y726550D02*
Y751950D01*
X625900Y796400D02*
Y818600D01*
X622700Y726550D02*
X625850Y723400D01*
X651300D01*
X676700D01*
X558180Y545400D02*
Y602900D01*
X481755Y537955D02*
Y550150D01*
X348180Y545400D02*
Y604170D01*
X450005Y598150D02*
X450030Y598175D01*
X450005Y614155D02*
X456380Y620530D01*
X450005Y598150D02*
Y614155D01*
X389680Y548750D02*
Y564650D01*
X456380Y620530D02*
Y637650D01*
Y673820D01*
X1837100Y565660D02*
X1858240Y586800D01*
X1826240Y498240D02*
Y518160D01*
X1834240Y498240D02*
Y518160D01*
X1842240Y498240D02*
Y518160D01*
X1850240Y498240D02*
Y518160D01*
X1858240Y498240D02*
Y518160D01*
X1778240Y497840D02*
Y518160D01*
X1786240Y497840D02*
Y518160D01*
X1794240Y497840D02*
Y518160D01*
X1802240Y497840D02*
Y518160D01*
X1810240Y496080D02*
Y518160D01*
X1770240Y505840D02*
Y518160D01*
Y505840D02*
X1778240Y497840D01*
X1818240Y503320D02*
Y518160D01*
Y503320D02*
X1823320Y498240D01*
X1826240D01*
X1336020Y502920D02*
Y520700D01*
X1344020Y502920D02*
Y520700D01*
X1352020Y502920D02*
Y520700D01*
X1360020Y502920D02*
Y520700D01*
X1368020Y502920D02*
Y520700D01*
X1328020Y510920D02*
Y520700D01*
Y510920D02*
X1336020Y502920D01*
X1288020Y490220D02*
Y520700D01*
X1296020Y490220D02*
Y520700D01*
X1304020Y490220D02*
Y520700D01*
X1312020Y490220D02*
Y520700D01*
X1320020Y490220D02*
Y520700D01*
X1280020Y498220D02*
Y520700D01*
Y498220D02*
X1288020Y490220D01*
X1014960Y496340D02*
Y510540D01*
X1006960Y494280D02*
Y510540D01*
X998960Y493900D02*
Y510540D01*
X990960Y493520D02*
Y510540D01*
X982960Y493700D02*
Y510540D01*
X974960Y501700D02*
Y510540D01*
Y501700D02*
X982960Y493700D01*
X966960Y494520D02*
Y510540D01*
X958960Y493920D02*
Y510540D01*
X950960Y494300D02*
Y510540D01*
X942960Y493380D02*
Y510540D01*
X934960Y495060D02*
Y510540D01*
X926960Y495440D02*
Y510540D01*
X900660Y494260D02*
Y510540D01*
X892660Y493880D02*
Y510540D01*
X884660Y493500D02*
Y510540D01*
X876660Y493120D02*
Y510540D01*
X868660Y492780D02*
Y510540D01*
X860660Y493160D02*
Y510540D01*
X852660Y478300D02*
Y510540D01*
X844660Y478900D02*
Y510540D01*
X836660Y479060D02*
Y510540D01*
X828660Y479440D02*
Y510540D01*
X820660Y479820D02*
Y510540D01*
D27*
X2029100Y902100D02*
Y927500D01*
X1965600Y876700D02*
Y902100D01*
X2029100Y851300D02*
Y876700D01*
X2016400D02*
Y902100D01*
Y927500D01*
Y940200D01*
X1978300Y876700D02*
Y902100D01*
Y927500D01*
Y940200D01*
X1997141Y876700D02*
X2016400D01*
X2029100D01*
X1965600Y902100D02*
X1978300D01*
X2016400D01*
X2029100D01*
X1965600Y927500D02*
X1978300D01*
X2016400D01*
X2029100D01*
X1965600Y876700D02*
X1978300D01*
X1997141D01*
X1853840Y902100D02*
Y927500D01*
X1790340Y876700D02*
Y902100D01*
X1853840Y851300D02*
Y876700D01*
X1841140D02*
Y902100D01*
Y927500D01*
Y940200D01*
X1803040Y876700D02*
Y902100D01*
Y927500D01*
Y940200D01*
X1821881Y876700D02*
X1841140D01*
X1853840D01*
X1790340Y902100D02*
X1803040D01*
X1841140D01*
X1853840D01*
X1790340Y927500D02*
X1803040D01*
X1841140D01*
X1853840D01*
X1790340Y876700D02*
X1803040D01*
X1821881D01*
X1680200Y901610D02*
Y927010D01*
X1616700Y876210D02*
Y901610D01*
X1680200Y850810D02*
Y876210D01*
X1667500D02*
Y901610D01*
Y927010D01*
Y939710D01*
X1629400Y876210D02*
Y901610D01*
Y927010D01*
Y939710D01*
X1648240Y876210D02*
X1667500D01*
X1680200D01*
X1616700Y901610D02*
X1629400D01*
X1667500D01*
X1680200D01*
X1616700Y927010D02*
X1629400D01*
X1667500D01*
X1680200D01*
X1616700Y876210D02*
X1629400D01*
X1648240D01*
X1504940Y901610D02*
Y927010D01*
X1441440Y876210D02*
Y901610D01*
X1504940Y850810D02*
Y876210D01*
X1492240D02*
Y901610D01*
Y927010D01*
Y939710D01*
X1454140Y876210D02*
Y901610D01*
Y927010D01*
Y939710D01*
X1472980Y876210D02*
X1492240D01*
X1504940D01*
X1441440Y901610D02*
X1454140D01*
X1492240D01*
X1504940D01*
X1441440Y927010D02*
X1454140D01*
X1492240D01*
X1504940D01*
X1441440Y876210D02*
X1454140D01*
X1472980D01*
X1330600Y900830D02*
Y926230D01*
X1267100Y875430D02*
Y900830D01*
X1330600Y850030D02*
Y875430D01*
X1317900D02*
Y900830D01*
Y926230D01*
Y938930D01*
X1279800Y875430D02*
Y900830D01*
Y926230D01*
Y938930D01*
X1298640Y875430D02*
X1317900D01*
X1330600D01*
X1267100Y900830D02*
X1279800D01*
X1317900D01*
X1330600D01*
X1267100Y926230D02*
X1279800D01*
X1317900D01*
X1330600D01*
X1267100Y875430D02*
X1279800D01*
X1298640D01*
X1155340Y900830D02*
Y926230D01*
X1091840Y875430D02*
Y900830D01*
X1155340Y850030D02*
Y875430D01*
X1142640D02*
Y900830D01*
Y926230D01*
Y938930D01*
X1104540Y875430D02*
Y900830D01*
Y926230D01*
Y938930D01*
X1123381Y875430D02*
X1142640D01*
X1155340D01*
X1091840Y900830D02*
X1104540D01*
X1142640D01*
X1155340D01*
X1091840Y926230D02*
X1104540D01*
X1142640D01*
X1155340D01*
X1091840Y875430D02*
X1104540D01*
X1123381D01*
X981290Y901320D02*
Y926720D01*
X917790Y875920D02*
Y901320D01*
X981290Y850520D02*
Y875920D01*
X968590D02*
Y901320D01*
Y926720D01*
Y939420D01*
X930490Y875920D02*
Y901320D01*
Y926720D01*
Y939420D01*
X949331Y875920D02*
X968590D01*
X981290D01*
X917790Y901320D02*
X930490D01*
X968590D01*
X981290D01*
X917790Y926720D02*
X930490D01*
X968590D01*
X981290D01*
X917790Y875920D02*
X930490D01*
X949331D01*
X806030Y901320D02*
Y926720D01*
X742530Y875920D02*
Y901320D01*
X806030Y850520D02*
Y875920D01*
X793330D02*
Y901320D01*
Y926720D01*
Y939420D01*
X755230Y875920D02*
Y901320D01*
Y926720D01*
Y939420D01*
X774071Y875920D02*
X793330D01*
X806030D01*
X742530Y901320D02*
X755230D01*
X793330D01*
X806030D01*
X742530Y926720D02*
X755230D01*
X793330D01*
X806030D01*
X742530Y875920D02*
X755230D01*
X774071D01*
X632460Y901700D02*
Y927100D01*
X568960Y876300D02*
Y901700D01*
X632460Y850900D02*
Y876300D01*
X619760D02*
Y901700D01*
Y927100D01*
Y939800D01*
X581660Y876300D02*
Y901700D01*
Y927100D01*
Y939800D01*
X600500Y876300D02*
X619760D01*
X632460D01*
X568960Y901700D02*
X581660D01*
X619760D01*
X632460D01*
X568960Y927100D02*
X581660D01*
X619760D01*
X632460D01*
X568960Y876300D02*
X581660D01*
X600500D01*
X406400Y876300D02*
X425240D01*
X393700D02*
X406400D01*
X425240Y839234D02*
X444500D01*
X406400D02*
X425240D01*
X444500Y927100D02*
X457200D01*
X406400D02*
X444500D01*
X393700D02*
X406400D01*
X444500Y901700D02*
X457200D01*
X406400D02*
X444500D01*
X393700D02*
X406400D01*
X444500Y876300D02*
X457200D01*
X425240D02*
X444500D01*
X406400Y927100D02*
Y939800D01*
Y901700D02*
Y927100D01*
Y876300D02*
Y901700D01*
Y839234D02*
Y876300D01*
X444500Y927100D02*
Y939800D01*
Y901700D02*
Y927100D01*
Y876300D02*
Y901700D01*
Y839234D02*
Y876300D01*
X457200Y850900D02*
Y876300D01*
X393700D02*
Y901700D01*
X457200D02*
Y927100D01*
X2035240Y796860D02*
Y819000D01*
X1686340Y797780D02*
Y818510D01*
X1336740Y796860D02*
Y817730D01*
X987430Y798190D02*
Y818220D01*
X638600Y796080D02*
Y818600D01*
D28*
X1997141Y876700D02*
Y892050D01*
X1821881Y876700D02*
Y892050D01*
X1648240Y876210D02*
Y891560D01*
X1472980Y876210D02*
Y891560D01*
X1298640Y875430D02*
Y890780D01*
X1123381Y875430D02*
Y890780D01*
X949331Y875920D02*
Y891270D01*
X774071Y875920D02*
Y891270D01*
X600500Y876300D02*
Y891650D01*
X425240Y839234D02*
Y876300D01*
Y818600D02*
Y839234D01*
Y876300D02*
Y891650D01*
X1923480Y790450D02*
Y812700D01*
Y771400D02*
Y790450D01*
X1744410Y790450D02*
Y812700D01*
Y771400D02*
Y790450D01*
X1574580Y789960D02*
Y812210D01*
Y770910D02*
Y789960D01*
X1395510Y789960D02*
Y812210D01*
Y770910D02*
Y789960D01*
X1224980Y789180D02*
Y811430D01*
Y770130D02*
Y789180D01*
X1045910Y789180D02*
Y811430D01*
Y770130D02*
Y789180D01*
X875670Y789670D02*
Y811920D01*
Y770620D02*
Y789670D01*
X696600Y789670D02*
Y811920D01*
Y770620D02*
Y789670D01*
X526840Y790050D02*
Y812300D01*
Y771000D02*
Y790050D01*
X347770Y790050D02*
Y812300D01*
Y771000D02*
Y790050D01*
X1997141Y819000D02*
Y892050D01*
X1821880Y819000D02*
Y892050D01*
X1648240Y818510D02*
Y891560D01*
X1472980Y818510D02*
Y891560D01*
X1298640Y817730D02*
Y890780D01*
X1123381Y817730D02*
Y890780D01*
X949331Y818220D02*
Y891270D01*
X774071Y818220D02*
Y891270D01*
X600500Y818600D02*
Y891650D01*
X634030Y436030D02*
X646850D01*
X634030Y388030D02*
X647110D01*
X511480Y434720D02*
X524220D01*
X511480Y386720D02*
X523960D01*
D29*
X381328Y461592D02*
X383330Y459590D01*
X867920Y558040D02*
X955800D01*
X1006520D02*
X1035990Y528570D01*
X984760Y558040D02*
X1006520D01*
X777880Y653120D02*
X787446Y662686D01*
X859706D01*
X882060Y685040D01*
X357930Y484990D02*
Y529440D01*
X374600Y254000D02*
Y450860D01*
Y175000D02*
Y254000D01*
X524600Y256540D02*
Y434340D01*
Y175000D02*
Y256540D01*
X674600Y254000D02*
Y347460D01*
Y175000D02*
Y254000D01*
X974600D02*
Y404620D01*
Y175000D02*
Y254000D01*
X901700Y477520D02*
X974600Y404620D01*
X812800Y477520D02*
X901700D01*
X1124600Y175000D02*
Y256620D01*
Y274940D01*
X1274600Y175000D02*
Y256000D01*
Y267180D01*
X1424600Y175000D02*
Y256880D01*
Y274660D01*
X1574600Y175000D02*
Y299920D01*
X1874600Y175000D02*
Y431720D01*
X2024600Y253460D02*
Y351800D01*
Y175000D02*
Y253460D01*
X1240691Y504091D02*
Y528571D01*
X1195321Y458721D02*
X1240691Y504091D01*
X1076391Y458721D02*
X1195321D01*
X1901890Y686970D02*
X1915860Y700940D01*
X1901890Y666600D02*
Y686970D01*
X1915860Y700940D02*
Y742800D01*
X1901890Y631700D02*
Y647600D01*
X1850290Y565660D02*
X1898640Y517310D01*
X1837100Y565660D02*
X1850290D01*
X1451020Y472690D02*
X1590720D01*
X1426125Y497585D02*
X1451020Y472690D01*
X1426125Y497585D02*
Y514845D01*
X1898080Y742800D02*
X1915860D01*
X1872680D02*
X1898080D01*
X1810240Y496080D02*
X1874600Y431720D01*
X1349420Y570740D02*
X1370230D01*
X1738040Y705360D02*
X1743490Y710810D01*
X1633900Y705360D02*
X1738040D01*
X1616120Y687580D02*
X1633900Y705360D01*
X357930Y484990D02*
X383330Y459590D01*
X587380Y484610D02*
Y527270D01*
X587381Y484611D02*
X602756Y469236D01*
X612781Y459211D01*
X752481D02*
X777081Y483811D01*
Y529061D01*
X612781Y459211D02*
X620440D01*
X587380Y527270D02*
Y529060D01*
X383330Y459590D02*
X523030D01*
X1426110Y514860D02*
X1426125Y514845D01*
X1370230Y570740D02*
X1426110Y514860D01*
Y544850D01*
X1035990Y528570D02*
X1050990D01*
Y484120D02*
Y526780D01*
Y528570D01*
X1616120Y666600D02*
Y687580D01*
X1743490Y710810D02*
Y734010D01*
X1439100Y700450D02*
X1555330D01*
X1566960Y712080D01*
Y742310D01*
X1523780D02*
X1566960D01*
X1425620Y686970D02*
X1439100Y700450D01*
X1241490Y652630D02*
Y678710D01*
X1255440Y692660D01*
X1372280D01*
X1393890Y714270D01*
Y734860D01*
X1070650Y692660D02*
X1207180D01*
X1217360Y702840D01*
Y741530D01*
X1050990Y673000D02*
X1070650Y692660D01*
X1174180Y741530D02*
X1217360D01*
X357930Y618600D02*
Y634500D01*
X1044580Y705360D02*
Y734170D01*
X1024260Y685040D02*
X1044580Y705360D01*
X882060Y685040D02*
X1024260D01*
X824870Y742020D02*
X868050D01*
X593850Y679960D02*
X847850D01*
X587380Y673490D02*
X593850Y679960D01*
X548430Y618600D02*
Y634500D01*
Y653500D02*
Y681610D01*
X562020Y695200D01*
X678860D01*
X695750Y712090D01*
Y735250D01*
X519220Y710820D02*
Y742400D01*
X503600Y695200D02*
X519220Y710820D01*
X379260Y695200D02*
X503600D01*
X357930Y673870D02*
X379260Y695200D01*
X2091591Y497291D02*
Y542541D01*
X2066991Y472691D02*
X2091591Y497291D01*
X1927291Y472691D02*
X2066991D01*
X1615320Y497290D02*
Y542540D01*
X1590720Y472690D02*
X1615320Y497290D01*
X1050991Y484121D02*
X1076391Y458721D01*
X523030Y459590D02*
X547630Y484190D01*
Y529440D01*
X2092390Y631700D02*
Y647601D01*
X1616120Y631700D02*
Y647600D01*
X1241490Y617730D02*
Y633631D01*
X777880Y618220D02*
Y634121D01*
X687500Y743500D02*
X695750Y735250D01*
X2092390Y666600D02*
Y732610D01*
X2073340Y742800D02*
X2082200D01*
X2047940D02*
X2073340D01*
X2082200D02*
X2092390Y732610D01*
X1724440Y742310D02*
X1735190D01*
X1699040D02*
X1724440D01*
X1735190D02*
X1743490Y734010D01*
X1374840Y741530D02*
X1387220D01*
X1349440D02*
X1374840D01*
X1387220D02*
X1393890Y734860D01*
X1025530Y742020D02*
X1036730D01*
X1000130D02*
X1025530D01*
X1036730D02*
X1044580Y734170D01*
X1707560Y954280D02*
X1716960D01*
X1707560Y966980D02*
X1716960D01*
X1358660Y966490D02*
X1368060D01*
X1358660Y953790D02*
X1368060D01*
X1425620Y666600D02*
Y686970D01*
Y631700D02*
Y647600D01*
X1009060Y965710D02*
X1018460D01*
X1009060Y953010D02*
X1018460D01*
X1050990Y652630D02*
Y673000D01*
Y617730D02*
Y633630D01*
X659750Y966200D02*
X669150D01*
X659750Y953500D02*
X669150D01*
X868050Y700160D02*
Y742020D01*
X847850Y679960D02*
X868050Y700160D01*
X587380Y653120D02*
Y673490D01*
Y618220D02*
Y634120D01*
X501440Y742400D02*
X519220D01*
X357930Y653500D02*
Y673870D01*
X476040Y742400D02*
X501440D01*
X310920Y953880D02*
X320320D01*
X310920Y966580D02*
X320320D01*
X1898640Y517310D02*
X1901090Y514860D01*
X1901891Y514059D01*
X1724600Y175000D02*
Y236280D01*
X1402080Y502920D02*
X1483360Y421640D01*
X1539240D01*
X1724600Y236280D01*
X1018140Y493160D02*
X1155700Y355600D01*
X1343660D01*
X1424600Y274660D01*
X1203960Y337820D02*
X1274600Y267180D01*
X647700Y374360D02*
X674600Y347460D01*
X620440Y459211D02*
X690880D01*
X752481D01*
X374600Y450860D02*
X383330Y459590D01*
X1384300Y490220D02*
X1574600Y299920D01*
X906780Y492760D02*
X1124600Y274940D01*
X1120140Y337820D02*
X1203960D01*
X690880Y383540D02*
X824600Y249820D01*
Y175000D02*
Y249820D01*
X690880Y383540D02*
Y459211D01*
X1826240Y498240D02*
X1834240D01*
X1842240D01*
X1850240D01*
X1858240D01*
X1794240Y497840D02*
X1802240D01*
X1778240D02*
X1786240D01*
X1794240D01*
X1802240D02*
X1808480D01*
X1810240Y496080D01*
X1336020Y502920D02*
X1344020D01*
X1352020D01*
X1360020D01*
X1368020D01*
X1402080D01*
X1304020Y490220D02*
X1312020D01*
X1288020D02*
X1296020D01*
X1304020D01*
X1312020D02*
X1320020D01*
X1384300D01*
X982420Y493160D02*
X1018140D01*
X965200Y492760D02*
X1120140Y337820D01*
X929640Y492760D02*
X965200D01*
X861060D02*
X906780D01*
X647700Y374360D02*
Y436880D01*
X1901891Y498091D02*
Y514059D01*
Y498091D02*
X1927291Y472691D01*
X1878160Y498240D02*
X2024600Y351800D01*
X1858240Y498240D02*
X1878160D01*
D30*
X2035240Y580900D02*
X2079690D01*
X2032065Y577725D02*
X2035240Y580900D01*
X2032065Y563250D02*
Y577725D01*
X2028890Y593600D02*
X2079690D01*
X2025715Y596775D02*
X2028890Y593600D01*
X2025715Y596775D02*
Y611250D01*
X1181165Y549280D02*
Y563755D01*
X1184340Y566930D01*
X1231740Y544530D02*
Y563981D01*
X1184340Y566930D02*
X1228790D01*
X1231740Y563981D01*
X1174815Y582805D02*
X1177990Y579630D01*
X1174815Y582805D02*
Y597280D01*
X1177990Y579630D02*
X1228790D01*
X1231740Y582580D01*
X1555795Y563250D02*
Y577725D01*
X1558970Y580900D01*
X1606370Y558500D02*
Y577950D01*
X1558970Y580900D02*
X1603420D01*
X1606370Y577950D01*
X1549445Y596775D02*
X1552620Y593600D01*
X1603420D01*
X1606370Y596550D01*
X2082640Y558500D02*
Y577951D01*
X2079690Y580900D02*
X2082640Y577951D01*
X2079690Y593600D02*
X2082640Y596550D01*
X717555Y549770D02*
Y564245D01*
X720730Y567420D01*
X768130Y545020D02*
Y564470D01*
X720730Y567420D02*
X765180D01*
X768130Y564470D01*
X711205Y583295D02*
X714380Y580120D01*
X765180D01*
X768130Y583070D01*
X2082640Y596550D02*
Y616000D01*
X1606370Y596549D02*
Y615999D01*
X1549445Y596775D02*
Y611250D01*
X1231740Y582580D02*
Y602030D01*
X768130Y583070D02*
Y602520D01*
X711205Y583295D02*
Y597770D01*
X538680Y545400D02*
Y564850D01*
X535730Y567800D02*
X538680Y564850D01*
X491280Y567800D02*
X535730D01*
X488105Y564625D02*
X491280Y567800D01*
X488105Y550150D02*
Y564625D01*
X481755Y583675D02*
Y598150D01*
X538680Y583450D02*
Y602900D01*
X535730Y580500D02*
X538680Y583450D01*
X484930Y580500D02*
X535730D01*
X481755Y583675D02*
X484930Y580500D01*
D31*
X354680Y602900D02*
Y615350D01*
X357930Y618600D01*
X361180Y602900D02*
Y615350D01*
X357930Y618600D02*
X361180Y615350D01*
X548430Y618600D02*
X551680Y615350D01*
Y602900D02*
Y615350D01*
X545180Y615350D02*
X548430Y618600D01*
X545180Y602900D02*
Y615350D01*
X1905140Y616000D02*
Y628450D01*
X1901890Y631700D02*
X1905140Y628450D01*
X1898640Y628450D02*
X1901890Y631700D01*
X1898640Y616000D02*
Y628450D01*
X1428870Y616000D02*
Y628450D01*
X1425620Y631700D02*
X1428870Y628450D01*
X1422370Y628450D02*
X1425620Y631700D01*
X1422370Y616000D02*
Y628450D01*
X1054240Y602030D02*
Y614480D01*
X1050990Y617730D02*
X1054240Y614480D01*
X1047740Y614480D02*
X1050990Y617730D01*
X1047740Y602030D02*
Y614480D01*
X590630Y602520D02*
Y614970D01*
X587380Y618220D02*
X590630Y614970D01*
X584130Y614970D02*
X587380Y618220D01*
X584130Y602520D02*
Y614970D01*
D32*
X1207411Y985774D02*
D03*
D33*
X0Y1100000D02*
X2225000D01*
Y0D02*
Y1100000D01*
X0Y0D02*
X2225000D01*
X0D02*
Y1100000D01*
D34*
X172720Y873760D02*
D03*
X180000Y319600D02*
D03*
D35*
X172720Y924560D02*
D03*
X374600Y175000D02*
D03*
X824600D02*
D03*
X524600D02*
D03*
X674600D02*
D03*
X1124600D02*
D03*
X1424600D02*
D03*
X1724600D02*
D03*
X2024600D02*
D03*
X974600D02*
D03*
X1274600D02*
D03*
X1574600D02*
D03*
X1874600D02*
D03*
X180000Y370400D02*
D03*
D36*
X147320Y482600D02*
D03*
Y660400D02*
D03*
D37*
Y457200D02*
D03*
Y431800D02*
D03*
Y584200D02*
D03*
Y609600D02*
D03*
Y635000D02*
D03*
D38*
X425400Y175000D02*
D03*
X875400D02*
D03*
X575400D02*
D03*
X725400D02*
D03*
X1175400D02*
D03*
X1475400D02*
D03*
X1775400D02*
D03*
X2075400D02*
D03*
X1025400D02*
D03*
X1325400D02*
D03*
X1625400D02*
D03*
X1925400D02*
D03*
D39*
X75000Y75000D02*
D03*
Y1025000D02*
D03*
X2150000D02*
D03*
Y75000D02*
D03*
D40*
X2200000Y150000D02*
D03*
Y250000D02*
D03*
Y450000D02*
D03*
Y350000D02*
D03*
Y750000D02*
D03*
Y850000D02*
D03*
Y650000D02*
D03*
Y550000D02*
D03*
Y950000D02*
D03*
X50000Y150000D02*
D03*
Y250000D02*
D03*
Y450000D02*
D03*
Y350000D02*
D03*
Y750000D02*
D03*
Y850000D02*
D03*
Y650000D02*
D03*
Y550000D02*
D03*
Y950000D02*
D03*
X150000Y1050000D02*
D03*
X250000D02*
D03*
X450000D02*
D03*
X350000D02*
D03*
X750000D02*
D03*
X850000D02*
D03*
X650000D02*
D03*
X550000D02*
D03*
X1350000D02*
D03*
X1450000D02*
D03*
X1650000D02*
D03*
X1550000D02*
D03*
X1150000D02*
D03*
X1250000D02*
D03*
X1050000D02*
D03*
X950000D02*
D03*
X1950000D02*
D03*
X2050000D02*
D03*
X1850000D02*
D03*
X1750000D02*
D03*
Y50000D02*
D03*
X1850000D02*
D03*
X2050000D02*
D03*
X1950000D02*
D03*
X950000D02*
D03*
X1050000D02*
D03*
X1250000D02*
D03*
X1150000D02*
D03*
X1550000D02*
D03*
X1650000D02*
D03*
X1450000D02*
D03*
X1350000D02*
D03*
X550000D02*
D03*
X650000D02*
D03*
X850000D02*
D03*
X750000D02*
D03*
X350000D02*
D03*
X450000D02*
D03*
X250000D02*
D03*
X150000D02*
D03*
X626716Y497840D02*
D03*
Y505460D02*
D03*
X626906Y513080D02*
D03*
Y520700D02*
D03*
X1978300Y927500D02*
D03*
X1997350D02*
D03*
X2016400D02*
D03*
X1978300Y902100D02*
D03*
X1997350D02*
D03*
X2016400D02*
D03*
X1978300Y876700D02*
D03*
X1997141D02*
D03*
X2016400D02*
D03*
X1978300Y851300D02*
D03*
X1997141D02*
D03*
X2016400D02*
D03*
X1803040Y927500D02*
D03*
X1822090D02*
D03*
X1841140D02*
D03*
X1803040Y902100D02*
D03*
X1822090D02*
D03*
X1841140D02*
D03*
X1803040Y876700D02*
D03*
X1821881D02*
D03*
X1841140D02*
D03*
X1803040Y851300D02*
D03*
X1821881D02*
D03*
X1841140D02*
D03*
X1629400Y927010D02*
D03*
X1648450D02*
D03*
X1667500D02*
D03*
X1629400Y901610D02*
D03*
X1648450D02*
D03*
X1667500D02*
D03*
X1629400Y876210D02*
D03*
X1648240D02*
D03*
X1667500D02*
D03*
X1629400Y850810D02*
D03*
X1648240D02*
D03*
X1667500D02*
D03*
X1454140Y927010D02*
D03*
X1473190D02*
D03*
X1492240D02*
D03*
X1454140Y901610D02*
D03*
X1473190D02*
D03*
X1492240D02*
D03*
X1454140Y876210D02*
D03*
X1472980D02*
D03*
X1492240D02*
D03*
X1454140Y850810D02*
D03*
X1472980D02*
D03*
X1492240D02*
D03*
X1279800Y926230D02*
D03*
X1298850D02*
D03*
X1317900D02*
D03*
X1279800Y900830D02*
D03*
X1298850D02*
D03*
X1317900D02*
D03*
X1279800Y875430D02*
D03*
X1298640D02*
D03*
X1317900D02*
D03*
X1279800Y850030D02*
D03*
X1298640D02*
D03*
X1317900D02*
D03*
X1104540Y926230D02*
D03*
X1123590D02*
D03*
X1142640D02*
D03*
X1104540Y900830D02*
D03*
X1123590D02*
D03*
X1142640D02*
D03*
X1104540Y875430D02*
D03*
X1123381D02*
D03*
X1142640D02*
D03*
X1104540Y850030D02*
D03*
X1123381D02*
D03*
X1142640D02*
D03*
X930490Y926720D02*
D03*
X949540D02*
D03*
X968590D02*
D03*
X930490Y901320D02*
D03*
X949540D02*
D03*
X968590D02*
D03*
X930490Y875920D02*
D03*
X949331D02*
D03*
X968590D02*
D03*
X930490Y850520D02*
D03*
X949331D02*
D03*
X968590D02*
D03*
X755230Y926720D02*
D03*
X774280D02*
D03*
X793330D02*
D03*
X755230Y901320D02*
D03*
X774280D02*
D03*
X793330D02*
D03*
X755230Y875920D02*
D03*
X774071D02*
D03*
X793330D02*
D03*
X755230Y850520D02*
D03*
X774071D02*
D03*
X793330D02*
D03*
X581660Y927100D02*
D03*
X600710D02*
D03*
X619760D02*
D03*
X581660Y901700D02*
D03*
X600710D02*
D03*
X619760D02*
D03*
X581660Y876300D02*
D03*
X600500D02*
D03*
X619760D02*
D03*
X581660Y850900D02*
D03*
X600500D02*
D03*
X619760D02*
D03*
X444500Y850900D02*
D03*
X425240D02*
D03*
X406400D02*
D03*
X444500Y876300D02*
D03*
X425240D02*
D03*
X406400D02*
D03*
X444500Y901700D02*
D03*
X425450D02*
D03*
X406400D02*
D03*
X444500Y927100D02*
D03*
X425450D02*
D03*
X406400D02*
D03*
X415080Y472604D02*
D03*
X398116Y498602D02*
D03*
X398370Y505206D02*
D03*
X398624Y511810D02*
D03*
X398370Y518414D02*
D03*
X1098644Y481890D02*
D03*
X1089250Y491490D02*
D03*
X1089504Y499364D02*
D03*
Y506476D02*
D03*
Y513588D02*
D03*
X1949544Y495860D02*
D03*
X1939642Y510286D02*
D03*
X1939896Y504444D02*
D03*
X1935226Y498250D02*
D03*
X1927606D02*
D03*
X1462630Y506984D02*
D03*
X1460246Y498250D02*
D03*
X1453134Y497488D02*
D03*
X1482770Y486364D02*
D03*
X1791922Y390761D02*
D03*
X1476180Y717150D02*
D03*
X1126581Y716370D02*
D03*
X1097980Y713220D02*
D03*
X464070Y386720D02*
D03*
X586620Y388030D02*
D03*
X750800Y387070D02*
D03*
X730040Y481720D02*
D03*
X861320Y648630D02*
D03*
X975620D02*
D03*
X1328680Y658790D02*
D03*
X1301841Y716370D02*
D03*
X1138510Y431800D02*
D03*
X1158940Y471921D02*
D03*
X1241210Y404520D02*
D03*
X1611582Y407511D02*
D03*
X1818220Y654470D02*
D03*
X1825081Y717641D02*
D03*
X219000Y632020D02*
D03*
X219000Y612100D02*
D03*
X1666240Y416560D02*
D03*
X1674898Y349018D02*
D03*
X1826260Y83820D02*
D03*
X1310408Y329968D02*
D03*
X1379220Y88900D02*
D03*
X1287780Y406400D02*
D03*
X802640Y391160D02*
D03*
X932180Y88900D02*
D03*
X811853Y334333D02*
D03*
X1674764Y416560D02*
D03*
X1680926Y355046D02*
D03*
X1293807Y400373D02*
D03*
X1832287Y77793D02*
D03*
X1316436Y335996D02*
D03*
X1386840Y77793D02*
D03*
X808667Y385133D02*
D03*
X941393Y77793D02*
D03*
X817880Y340360D02*
D03*
X1838468Y71613D02*
D03*
X1534160Y71120D02*
D03*
X952500D02*
D03*
X255000Y951500D02*
D03*
Y871260D02*
D03*
X472440Y416560D02*
D03*
X594360Y410060D02*
D03*
X812800Y424180D02*
D03*
X818827Y418153D02*
D03*
X219000Y585900D02*
D03*
X270000Y301500D02*
D03*
X2108740Y255000D02*
D03*
X1958740Y255000D02*
D03*
X1808740D02*
D03*
X1658740D02*
D03*
X1508740Y255000D02*
D03*
X1358740D02*
D03*
X1208740D02*
D03*
X1058740D02*
D03*
X908740Y255000D02*
D03*
X758740D02*
D03*
X608740D02*
D03*
X458740Y255000D02*
D03*
X919480Y756920D02*
D03*
Y673100D02*
D03*
X800100Y515620D02*
D03*
X833750Y438790D02*
D03*
X746760Y759460D02*
D03*
X827250Y445290D02*
D03*
X708660Y523240D02*
D03*
X806773Y453713D02*
D03*
X708660Y531764D02*
D03*
X812800Y459740D02*
D03*
X660405Y568955D02*
D03*
X668020Y563880D02*
D03*
X800100Y482600D02*
D03*
X792938Y477978D02*
D03*
X431628Y571500D02*
D03*
X440152D02*
D03*
X448676D02*
D03*
X457200D02*
D03*
X723385Y424173D02*
D03*
X716280Y431278D02*
D03*
X723385Y438383D02*
D03*
X716280Y445488D02*
D03*
X861060Y594360D02*
D03*
X875816Y593876D02*
D03*
X905187Y456253D02*
D03*
X899160Y462280D02*
D03*
X990600Y594360D02*
D03*
X975360D02*
D03*
X911860Y444500D02*
D03*
X917887Y438473D02*
D03*
X1196340Y706120D02*
D03*
X1254760Y673100D02*
D03*
X1270000Y754380D02*
D03*
X1264920Y675640D02*
D03*
X1147541Y570553D02*
D03*
X1220745Y467875D02*
D03*
X1153568Y576580D02*
D03*
X1227850Y474980D02*
D03*
X1160673Y569475D02*
D03*
X1234955Y469900D02*
D03*
X1167778Y576580D02*
D03*
X1242060Y474980D02*
D03*
X1328420Y604520D02*
D03*
X1343660Y599440D02*
D03*
X1356360Y470868D02*
D03*
Y480060D02*
D03*
X1445260Y756920D02*
D03*
X1371600Y477520D02*
D03*
X1623060Y759460D02*
D03*
X1371600Y467360D02*
D03*
X1544208Y576804D02*
D03*
X1391808Y447264D02*
D03*
X1544208Y586852D02*
D03*
X1391808Y457312D02*
D03*
X1534160Y586852D02*
D03*
X1381760Y457312D02*
D03*
X1539240Y594360D02*
D03*
X1381760Y467360D02*
D03*
X1742440Y601980D02*
D03*
X1795780Y759460D02*
D03*
X1971040D02*
D03*
X1894840Y698500D02*
D03*
X1905000Y706120D02*
D03*
X1838960Y638444D02*
D03*
X2014220Y711200D02*
D03*
X1838960Y629920D02*
D03*
X1758627Y458793D02*
D03*
X1752600Y464820D02*
D03*
X1803400Y470012D02*
D03*
Y480060D02*
D03*
X1813448Y470012D02*
D03*
Y459964D02*
D03*
X2007088Y586740D02*
D03*
X1999983Y579635D02*
D03*
X1992878Y586740D02*
D03*
X1981200Y584200D02*
D03*
X1362060Y385320D02*
D03*
X1387460D02*
D03*
X1412860D02*
D03*
X879760Y373036D02*
D03*
X905160Y372948D02*
D03*
X932560Y372548D02*
D03*
X1766522Y390761D02*
D03*
X1741122D02*
D03*
X289560Y601980D02*
D03*
X304800Y617220D02*
D03*
X320040Y553720D02*
D03*
X312420Y533400D02*
D03*
X304800Y561340D02*
D03*
D41*
X1796240Y559660D02*
D03*
X1354020Y550200D02*
D03*
X1342020D02*
D03*
X1330020D02*
D03*
X1354020Y562200D02*
D03*
X1342020D02*
D03*
X1354020Y574200D02*
D03*
X1342020D02*
D03*
X1330020Y562200D02*
D03*
Y574200D02*
D03*
X1318020Y550200D02*
D03*
Y574200D02*
D03*
Y562200D02*
D03*
X1306020Y550200D02*
D03*
X1294020D02*
D03*
X1306020Y562200D02*
D03*
X1294020D02*
D03*
X1330020Y586200D02*
D03*
X1318020D02*
D03*
X1354020D02*
D03*
X1342020D02*
D03*
X1306020Y574200D02*
D03*
X1294020Y586200D02*
D03*
Y574200D02*
D03*
X1306020Y586200D02*
D03*
X1844240Y583660D02*
D03*
Y571660D02*
D03*
Y559660D02*
D03*
Y547660D02*
D03*
X1832240Y583660D02*
D03*
Y571660D02*
D03*
Y559660D02*
D03*
Y547660D02*
D03*
X1820240Y583660D02*
D03*
Y571660D02*
D03*
Y559660D02*
D03*
Y547660D02*
D03*
X1808240Y583660D02*
D03*
Y571660D02*
D03*
Y559660D02*
D03*
Y547660D02*
D03*
X1796240Y583660D02*
D03*
Y571660D02*
D03*
Y547660D02*
D03*
X1784240Y583660D02*
D03*
Y571660D02*
D03*
Y559660D02*
D03*
Y547660D02*
D03*
X886660Y576040D02*
D03*
Y564040D02*
D03*
Y552040D02*
D03*
Y540040D02*
D03*
X874660Y576040D02*
D03*
Y564040D02*
D03*
Y552040D02*
D03*
Y540040D02*
D03*
X862660Y576040D02*
D03*
Y564040D02*
D03*
Y552040D02*
D03*
Y540040D02*
D03*
X850660Y576040D02*
D03*
Y564040D02*
D03*
Y552040D02*
D03*
Y540040D02*
D03*
X838660Y576040D02*
D03*
Y564040D02*
D03*
Y552040D02*
D03*
Y540040D02*
D03*
X826660Y576040D02*
D03*
Y564040D02*
D03*
Y552040D02*
D03*
Y540040D02*
D03*
X1000960Y576040D02*
D03*
Y564040D02*
D03*
Y552040D02*
D03*
Y540040D02*
D03*
X988960Y576040D02*
D03*
Y564040D02*
D03*
Y552040D02*
D03*
Y540040D02*
D03*
X976960Y576040D02*
D03*
Y564040D02*
D03*
Y552040D02*
D03*
Y540040D02*
D03*
X964960Y576040D02*
D03*
Y564040D02*
D03*
Y552040D02*
D03*
Y540040D02*
D03*
X952960Y576040D02*
D03*
Y564040D02*
D03*
Y552040D02*
D03*
Y540040D02*
D03*
X940960Y576040D02*
D03*
Y564040D02*
D03*
Y552040D02*
D03*
Y540040D02*
D03*
D42*
X1933640Y561850D02*
D03*
X1707560Y966980D02*
D03*
Y954280D02*
D03*
X1923480Y790450D02*
D03*
Y771400D02*
D03*
X1744410Y790450D02*
D03*
Y771400D02*
D03*
X2000340Y650750D02*
D03*
X1358660Y966490D02*
D03*
Y953790D02*
D03*
X1574580Y789960D02*
D03*
Y770910D02*
D03*
X1395510Y789960D02*
D03*
Y770910D02*
D03*
X1524070Y650750D02*
D03*
X1457370Y561850D02*
D03*
X1009060Y965710D02*
D03*
Y953010D02*
D03*
X1224980Y770130D02*
D03*
Y789180D02*
D03*
X1045910Y789180D02*
D03*
Y770130D02*
D03*
X1149440Y636780D02*
D03*
X1082740Y547880D02*
D03*
X659750Y966200D02*
D03*
Y953500D02*
D03*
X875670Y789670D02*
D03*
Y770620D02*
D03*
X696600Y789670D02*
D03*
Y770620D02*
D03*
X685830Y637270D02*
D03*
X619130Y548370D02*
D03*
X526840Y790050D02*
D03*
Y771000D02*
D03*
X347770Y790050D02*
D03*
Y771000D02*
D03*
X310920Y953880D02*
D03*
Y966580D02*
D03*
X456380Y637650D02*
D03*
X389680Y548750D02*
D03*
M02*
