%FSLAX44Y44*%
%MOMM*%
G71*
G01*
G75*
G04 Layer_Color=65535*
%ADD10O,2.1000X0.4500*%
%ADD11R,1.2000X1.3500*%
%ADD12R,0.8000X0.7000*%
%ADD13R,1.3500X1.2000*%
%ADD14R,0.7000X0.8000*%
%ADD15R,1.3000X0.8000*%
%ADD16R,2.8000X1.3500*%
%ADD17O,0.6000X1.8000*%
%ADD18R,7.4000X5.0000*%
%ADD19R,5.3500X8.5400*%
%ADD20R,0.8900X3.0600*%
%ADD21O,0.3500X1.5500*%
%ADD22R,1.3500X2.8000*%
%ADD23O,0.3500X2.2000*%
%ADD24O,0.6000X2.2000*%
%ADD25C,0.1524*%
%ADD26C,0.2540*%
%ADD27C,0.7620*%
%ADD28C,0.5080*%
%ADD29C,1.0160*%
%ADD30C,0.2032*%
%ADD31C,0.3048*%
%ADD32R,177.7702X1.3208*%
%ADD33C,0.1000*%
%ADD34R,2.5400X2.5400*%
%ADD35C,2.5400*%
%ADD36R,1.5000X1.5000*%
%ADD37C,1.5000*%
%ADD38R,2.5400X2.5400*%
%ADD39C,7.0000*%
%ADD40C,0.7000*%
%ADD41C,0.6600*%
%ADD42C,1.2700*%
G04:AMPARAMS|DCode=43|XSize=3.024mm|YSize=3.024mm|CornerRadius=0mm|HoleSize=0mm|Usage=FLASHONLY|Rotation=0.000|XOffset=0mm|YOffset=0mm|HoleType=Round|Shape=Relief|Width=0.254mm|Gap=0.254mm|Entries=4|*
%AMTHD43*
7,0,0,3.0240,2.5160,0.2540,45*
%
%ADD43THD43*%
%ADD44C,2.5160*%
%ADD45C,1.9160*%
G04:AMPARAMS|DCode=46|XSize=2.424mm|YSize=2.424mm|CornerRadius=0mm|HoleSize=0mm|Usage=FLASHONLY|Rotation=0.000|XOffset=0mm|YOffset=0mm|HoleType=Round|Shape=Relief|Width=0.254mm|Gap=0.254mm|Entries=4|*
%AMTHD46*
7,0,0,2.4240,1.9160,0.2540,45*
%
%ADD46THD46*%
%ADD47C,4.2160*%
G04:AMPARAMS|DCode=48|XSize=1.824mm|YSize=1.824mm|CornerRadius=0mm|HoleSize=0mm|Usage=FLASHONLY|Rotation=0.000|XOffset=0mm|YOffset=0mm|HoleType=Round|Shape=Relief|Width=0.254mm|Gap=0.254mm|Entries=4|*
%AMTHD48*
7,0,0,1.8240,1.3160,0.2540,45*
%
%ADD48THD48*%
%ADD49C,1.3160*%
%ADD50C,1.3460*%
G04:AMPARAMS|DCode=51|XSize=2.2352mm|YSize=2.2352mm|CornerRadius=0mm|HoleSize=0mm|Usage=FLASHONLY|Rotation=0.000|XOffset=0mm|YOffset=0mm|HoleType=Round|Shape=Relief|Width=0.254mm|Gap=0.254mm|Entries=4|*
%AMTHD51*
7,0,0,2.2352,1.7272,0.2540,45*
%
%ADD51THD51*%
%ADD52C,1.7272*%
%ADD53C,2.5400*%
%ADD54C,0.6000*%
%ADD55C,0.2500*%
%ADD56C,0.3810*%
%ADD57C,0.2000*%
%ADD58C,0.1270*%
D25*
X2123907Y631658D02*
X2126446Y626580D01*
X2131524Y621501D01*
X2136602D01*
X2139142Y624040D01*
Y629119D01*
X2136602Y631658D01*
X2134063D01*
X2131524Y629119D01*
Y621501D01*
X2139142Y644354D02*
X2123907D01*
X2131524Y636736D01*
Y646893D01*
X2139142Y672285D02*
X2134063Y667206D01*
X2128985D01*
X2123907Y672285D01*
X2139142Y679902D02*
X2128985D01*
Y682441D01*
X2131524Y684981D01*
X2139142D01*
X2131524D01*
X2128985Y687520D01*
X2131524Y690059D01*
X2139142D01*
Y695137D02*
X2128985D01*
Y697677D01*
X2131524Y700216D01*
X2139142D01*
X2131524D01*
X2128985Y702755D01*
X2131524Y705294D01*
X2139142D01*
Y710372D02*
X2134063Y715451D01*
X2128985D01*
X2123907Y710372D01*
X1155153Y320858D02*
X1160232D01*
X1157692D01*
Y336093D01*
X1155153Y333554D01*
X1167849D02*
X1170388Y336093D01*
X1175467D01*
X1178006Y333554D01*
Y331015D01*
X1175467Y328476D01*
X1178006Y325937D01*
Y323398D01*
X1175467Y320858D01*
X1170388D01*
X1167849Y323398D01*
Y325937D01*
X1170388Y328476D01*
X1167849Y331015D01*
Y333554D01*
X1170388Y328476D02*
X1175467D01*
X1183084Y333554D02*
X1185623Y336093D01*
X1190702D01*
X1193241Y333554D01*
Y323398D01*
X1190702Y320858D01*
X1185623D01*
X1183084Y323398D01*
Y333554D01*
X1218633Y320858D02*
X1213554Y325937D01*
Y331015D01*
X1218633Y336093D01*
X1226250Y320858D02*
Y331015D01*
X1228789D01*
X1231329Y328476D01*
Y320858D01*
Y328476D01*
X1233868Y331015D01*
X1236407Y328476D01*
Y320858D01*
X1241485D02*
Y331015D01*
X1244025D01*
X1246564Y328476D01*
Y320858D01*
Y328476D01*
X1249103Y331015D01*
X1251642Y328476D01*
Y320858D01*
X1256720D02*
X1261799Y325937D01*
Y331015D01*
X1256720Y336093D01*
D26*
X374440Y828150D02*
Y955150D01*
X476040D01*
Y828150D02*
Y955150D01*
X549700Y828150D02*
Y955150D01*
X651300D01*
Y828150D02*
Y955150D01*
X1946340Y828550D02*
Y955550D01*
X2047940D01*
Y828550D02*
Y955550D01*
X1771080Y828550D02*
Y955550D01*
X1872680D01*
Y828550D02*
Y955550D01*
X1597440Y828060D02*
Y955060D01*
X1699040D01*
Y828060D02*
Y955060D01*
X1422180Y828060D02*
Y955060D01*
X1523780D01*
Y828060D02*
Y955060D01*
X1247840Y827280D02*
Y954280D01*
X1349440D01*
Y827280D02*
Y954280D01*
X1072580Y827280D02*
Y954280D01*
X1174180D01*
Y827280D02*
Y954280D01*
X898530Y827770D02*
Y954770D01*
X1000130D01*
Y827770D02*
Y954770D01*
X723270Y827770D02*
Y954770D01*
X824870D01*
Y827770D02*
Y954770D01*
X1356360Y441955D02*
Y429259D01*
X1358899Y426720D01*
X1363978D01*
X1366517Y429259D01*
Y441955D01*
X1371595Y429259D02*
X1374134Y426720D01*
X1379213D01*
X1381752Y429259D01*
Y439416D01*
X1379213Y441955D01*
X1374134D01*
X1371595Y439416D01*
Y436877D01*
X1374134Y434338D01*
X1381752D01*
X873760Y431795D02*
Y419099D01*
X876299Y416560D01*
X881377D01*
X883917Y419099D01*
Y431795D01*
X888995Y429256D02*
X891534Y431795D01*
X896613D01*
X899152Y429256D01*
Y426717D01*
X896613Y424178D01*
X899152Y421638D01*
Y419099D01*
X896613Y416560D01*
X891534D01*
X888995Y419099D01*
Y421638D01*
X891534Y424178D01*
X888995Y426717D01*
Y429256D01*
X891534Y424178D02*
X896613D01*
X319270Y99716D02*
X316731Y102255D01*
Y107333D01*
X319270Y109873D01*
X321809D01*
X324348Y107333D01*
Y104794D01*
Y107333D01*
X326888Y109873D01*
X329427D01*
X331966Y107333D01*
Y102255D01*
X329427Y99716D01*
X316731Y114951D02*
X326888D01*
X331966Y120029D01*
X326888Y125108D01*
X316731D01*
X319270Y130186D02*
X316731Y132725D01*
Y137804D01*
X319270Y140343D01*
X321809D01*
X324348Y137804D01*
Y135264D01*
Y137804D01*
X326888Y140343D01*
X329427D01*
X331966Y137804D01*
Y132725D01*
X329427Y130186D01*
X334505Y145421D02*
Y155578D01*
X316731Y160656D02*
X331966D01*
Y168274D01*
X329427Y170813D01*
X326888D01*
X324348Y168274D01*
Y160656D01*
Y168274D01*
X321809Y170813D01*
X319270D01*
X316731Y168274D01*
Y160656D01*
Y175891D02*
X329427D01*
X331966Y178430D01*
Y183509D01*
X329427Y186048D01*
X316731D01*
X319270Y201283D02*
X316731Y198744D01*
Y193666D01*
X319270Y191126D01*
X321809D01*
X324348Y193666D01*
Y198744D01*
X326888Y201283D01*
X329427D01*
X331966Y198744D01*
Y193666D01*
X329427Y191126D01*
X766819Y109873D02*
Y99716D01*
X774436D01*
X771897Y104794D01*
Y107333D01*
X774436Y109873D01*
X779515D01*
X782054Y107333D01*
Y102255D01*
X779515Y99716D01*
X766819Y114951D02*
X776976D01*
X782054Y120029D01*
X776976Y125108D01*
X766819D01*
X769358Y130186D02*
X766819Y132725D01*
Y137804D01*
X769358Y140343D01*
X779515D01*
X782054Y137804D01*
Y132725D01*
X779515Y130186D01*
X769358D01*
X784593Y145421D02*
Y155578D01*
X766819Y160656D02*
X782054D01*
Y168274D01*
X779515Y170813D01*
X776976D01*
X774436Y168274D01*
Y160656D01*
Y168274D01*
X771897Y170813D01*
X769358D01*
X766819Y168274D01*
Y160656D01*
Y175891D02*
X779515D01*
X782054Y178430D01*
Y183509D01*
X779515Y186048D01*
X766819D01*
X769358Y201283D02*
X766819Y198744D01*
Y193666D01*
X769358Y191126D01*
X771897D01*
X774436Y193666D01*
Y198744D01*
X776976Y201283D01*
X779515D01*
X782054Y198744D01*
Y193666D01*
X779515Y191126D01*
X469384Y99716D02*
X466845Y102255D01*
Y107333D01*
X469384Y109873D01*
X471923D01*
X474463Y107333D01*
Y104794D01*
Y107333D01*
X477002Y109873D01*
X479541D01*
X482080Y107333D01*
Y102255D01*
X479541Y99716D01*
X466845Y114951D02*
X477002D01*
X482080Y120029D01*
X477002Y125108D01*
X466845D01*
X469384Y130186D02*
X466845Y132725D01*
Y137804D01*
X469384Y140343D01*
X471923D01*
X474463Y137804D01*
Y135264D01*
Y137804D01*
X477002Y140343D01*
X479541D01*
X482080Y137804D01*
Y132725D01*
X479541Y130186D01*
X484619Y145421D02*
Y155578D01*
X482080Y160656D02*
X466845D01*
Y168274D01*
X469384Y170813D01*
X474463D01*
X477002Y168274D01*
Y160656D01*
X482080Y175891D02*
X471923D01*
X466845Y180970D01*
X471923Y186048D01*
X482080D01*
X474463D01*
Y175891D01*
X466845Y191126D02*
X469384D01*
X474463Y196205D01*
X469384Y201283D01*
X466845D01*
X474463Y196205D02*
X482080D01*
X466845Y206361D02*
X482080D01*
Y216518D01*
X466845Y229214D02*
Y224136D01*
X469384Y221597D01*
X479541D01*
X482080Y224136D01*
Y229214D01*
X479541Y231753D01*
X469384D01*
X466845Y229214D01*
X482080Y236831D02*
X471923D01*
X466845Y241910D01*
X471923Y246988D01*
X482080D01*
X474463D01*
Y236831D01*
X466845Y252067D02*
X482080D01*
Y259684D01*
X479541Y262223D01*
X469384D01*
X466845Y259684D01*
Y252067D01*
X616705Y109873D02*
Y99716D01*
X624323D01*
X621783Y104794D01*
Y107333D01*
X624323Y109873D01*
X629401D01*
X631940Y107333D01*
Y102255D01*
X629401Y99716D01*
X616705Y114951D02*
X626862D01*
X631940Y120029D01*
X626862Y125108D01*
X616705D01*
X619244Y130186D02*
X616705Y132725D01*
Y137804D01*
X619244Y140343D01*
X629401D01*
X631940Y137804D01*
Y132725D01*
X629401Y130186D01*
X619244D01*
X634479Y145421D02*
Y155578D01*
X631940Y160656D02*
X616705D01*
Y168274D01*
X619244Y170813D01*
X624323D01*
X626862Y168274D01*
Y160656D01*
X631940Y175891D02*
X621783D01*
X616705Y180970D01*
X621783Y186048D01*
X631940D01*
X624323D01*
Y175891D01*
X616705Y191126D02*
X619244D01*
X624323Y196205D01*
X619244Y201283D01*
X616705D01*
X624323Y196205D02*
X631940D01*
X616705Y206361D02*
X631940D01*
Y216518D01*
X616705Y229214D02*
Y224136D01*
X619244Y221597D01*
X629401D01*
X631940Y224136D01*
Y229214D01*
X629401Y231753D01*
X619244D01*
X616705Y229214D01*
X631940Y236831D02*
X621783D01*
X616705Y241910D01*
X621783Y246988D01*
X631940D01*
X624323D01*
Y236831D01*
X616705Y252067D02*
X631940D01*
Y259684D01*
X629401Y262223D01*
X619244D01*
X616705Y259684D01*
Y252067D01*
X1079489Y99716D02*
X1082028Y102255D01*
Y107333D01*
X1079489Y109873D01*
X1069332D01*
X1066793Y107333D01*
Y102255D01*
X1069332Y99716D01*
X1071871D01*
X1074410Y102255D01*
Y109873D01*
X1066793Y114951D02*
X1076950D01*
X1082028Y120029D01*
X1076950Y125108D01*
X1066793D01*
X1082028Y130186D02*
Y135264D01*
Y132725D01*
X1066793D01*
X1069332Y130186D01*
X1084567Y142882D02*
Y153039D01*
X1082028Y158117D02*
X1066793D01*
Y165735D01*
X1069332Y168274D01*
X1074410D01*
X1076950Y165735D01*
Y158117D01*
Y163195D02*
X1082028Y168274D01*
X1066793Y173352D02*
X1082028Y183509D01*
X1066793D02*
X1082028Y173352D01*
Y198744D02*
Y188587D01*
X1071871Y198744D01*
X1069332D01*
X1066793Y196205D01*
Y191126D01*
X1069332Y188587D01*
X1379463Y99716D02*
X1382002Y102255D01*
Y107333D01*
X1379463Y109873D01*
X1369306D01*
X1366767Y107333D01*
Y102255D01*
X1369306Y99716D01*
X1371845D01*
X1374384Y102255D01*
Y109873D01*
X1366767Y114951D02*
X1376924D01*
X1382002Y120029D01*
X1376924Y125108D01*
X1366767D01*
X1382002Y130186D02*
Y135264D01*
Y132725D01*
X1366767D01*
X1369306Y130186D01*
X1384541Y142882D02*
Y153039D01*
X1366767Y158117D02*
Y168274D01*
Y163195D01*
X1382002D01*
X1366767Y173352D02*
X1382002Y183509D01*
X1366767D02*
X1382002Y173352D01*
Y198744D02*
Y188587D01*
X1371845Y198744D01*
X1369306D01*
X1366767Y196205D01*
Y191126D01*
X1369306Y188587D01*
X125000Y272696D02*
X127539Y275235D01*
X132618D01*
X135157Y272696D01*
Y270157D01*
X132618Y267617D01*
X130078D01*
X132618D01*
X135157Y265078D01*
Y262539D01*
X132618Y260000D01*
X127539D01*
X125000Y262539D01*
X140235Y275235D02*
Y265078D01*
X145313Y260000D01*
X150392Y265078D01*
Y275235D01*
X155470Y272696D02*
X158009Y275235D01*
X163088D01*
X165627Y272696D01*
Y270157D01*
X163088Y267617D01*
X160548D01*
X163088D01*
X165627Y265078D01*
Y262539D01*
X163088Y260000D01*
X158009D01*
X155470Y262539D01*
X170705Y257461D02*
X180862D01*
X196097Y275235D02*
X185940D01*
Y260000D01*
X196097D01*
X185940Y267617D02*
X191019D01*
X201175Y275235D02*
X211332Y260000D01*
Y275235D02*
X201175Y260000D01*
X216410Y275235D02*
X226567D01*
X221489D01*
Y260000D01*
X1681976Y99716D02*
Y104794D01*
Y102255D01*
X1666741D01*
X1669280Y99716D01*
Y112412D02*
X1666741Y114951D01*
Y120029D01*
X1669280Y122569D01*
X1671819D01*
X1674359Y120029D01*
Y117490D01*
Y120029D01*
X1676898Y122569D01*
X1679437D01*
X1681976Y120029D01*
Y114951D01*
X1679437Y112412D01*
X1666741Y127647D02*
X1676898D01*
X1681976Y132725D01*
X1676898Y137804D01*
X1666741D01*
Y153039D02*
X1669280Y147960D01*
X1674359Y142882D01*
X1679437D01*
X1681976Y145421D01*
Y150499D01*
X1679437Y153039D01*
X1676898D01*
X1674359Y150499D01*
Y142882D01*
X1684515Y158117D02*
Y168274D01*
X1666741Y173352D02*
Y183509D01*
Y178430D01*
X1681976D01*
X1666741Y188587D02*
X1681976Y198744D01*
X1666741D02*
X1681976Y188587D01*
Y213979D02*
Y203822D01*
X1671819Y213979D01*
X1669280D01*
X1666741Y211440D01*
Y206361D01*
X1669280Y203822D01*
X121920Y833115D02*
Y822958D01*
X126998Y817880D01*
X132077Y822958D01*
Y833115D01*
X137155D02*
Y817880D01*
X144773D01*
X147312Y820419D01*
Y822958D01*
X144773Y825498D01*
X137155D01*
X144773D01*
X147312Y828037D01*
Y830576D01*
X144773Y833115D01*
X137155D01*
X152390Y817880D02*
Y828037D01*
X157469Y833115D01*
X162547Y828037D01*
Y817880D01*
Y825498D01*
X152390D01*
X167625Y833115D02*
X177782D01*
X172704D01*
Y817880D01*
X182860Y833115D02*
X193017D01*
X187939D01*
Y817880D01*
X1966715Y99716D02*
X1976872D01*
X1981950Y104794D01*
X1976872Y109873D01*
X1966715D01*
Y114951D02*
X1976872D01*
X1981950Y120029D01*
X1976872Y125108D01*
X1966715D01*
X1981950Y130186D02*
X1971793D01*
X1966715Y135264D01*
X1971793Y140343D01*
X1981950D01*
X1974332D01*
Y130186D01*
X1981950Y145421D02*
X1966715D01*
Y153039D01*
X1969254Y155578D01*
X1974332D01*
X1976872Y153039D01*
Y145421D01*
Y150499D02*
X1981950Y155578D01*
X1984489Y160656D02*
Y170813D01*
X1966715Y175891D02*
Y186048D01*
Y180970D01*
X1981950D01*
X1966715Y191126D02*
X1981950Y201283D01*
X1966715D02*
X1981950Y191126D01*
Y216518D02*
Y206361D01*
X1971793Y216518D01*
X1969254D01*
X1966715Y213979D01*
Y208901D01*
X1969254Y206361D01*
X929629Y99716D02*
X932168Y102255D01*
Y107333D01*
X929629Y109873D01*
X919472D01*
X916933Y107333D01*
Y102255D01*
X919472Y99716D01*
X922011D01*
X924550Y102255D01*
Y109873D01*
X916933Y114951D02*
X927090D01*
X932168Y120029D01*
X927090Y125108D01*
X916933D01*
X932168Y130186D02*
Y135264D01*
Y132725D01*
X916933D01*
X919472Y130186D01*
X934707Y142882D02*
Y153039D01*
X932168Y158117D02*
X916933D01*
Y165735D01*
X919472Y168274D01*
X924550D01*
X927090Y165735D01*
Y158117D01*
Y163195D02*
X932168Y168274D01*
X916933Y173352D02*
X932168Y183509D01*
X916933D02*
X932168Y173352D01*
Y188587D02*
Y193666D01*
Y191126D01*
X916933D01*
X919472Y188587D01*
X1229603Y99716D02*
X1232142Y102255D01*
Y107333D01*
X1229603Y109873D01*
X1219446D01*
X1216907Y107333D01*
Y102255D01*
X1219446Y99716D01*
X1221985D01*
X1224525Y102255D01*
Y109873D01*
X1216907Y114951D02*
X1227064D01*
X1232142Y120029D01*
X1227064Y125108D01*
X1216907D01*
X1232142Y130186D02*
Y135264D01*
Y132725D01*
X1216907D01*
X1219446Y130186D01*
X1234681Y142882D02*
Y153039D01*
X1216907Y158117D02*
Y168274D01*
Y163195D01*
X1232142D01*
X1216907Y173352D02*
X1232142Y183509D01*
X1216907D02*
X1232142Y173352D01*
Y188587D02*
Y193666D01*
Y191126D01*
X1216907D01*
X1219446Y188587D01*
X1532116Y99716D02*
Y104794D01*
Y102255D01*
X1516881D01*
X1519420Y99716D01*
Y112412D02*
X1516881Y114951D01*
Y120029D01*
X1519420Y122569D01*
X1521959D01*
X1524498Y120029D01*
Y117490D01*
Y120029D01*
X1527038Y122569D01*
X1529577D01*
X1532116Y120029D01*
Y114951D01*
X1529577Y112412D01*
X1516881Y127647D02*
X1527038D01*
X1532116Y132725D01*
X1527038Y137804D01*
X1516881D01*
Y153039D02*
X1519420Y147960D01*
X1524498Y142882D01*
X1529577D01*
X1532116Y145421D01*
Y150499D01*
X1529577Y153039D01*
X1527038D01*
X1524498Y150499D01*
Y142882D01*
X1534655Y158117D02*
Y168274D01*
X1516881Y173352D02*
Y183509D01*
Y178430D01*
X1532116D01*
X1516881Y188587D02*
X1532116Y198744D01*
X1516881D02*
X1532116Y188587D01*
Y203822D02*
Y208901D01*
Y206361D01*
X1516881D01*
X1519420Y203822D01*
X1816855Y99716D02*
X1827012D01*
X1832090Y104794D01*
X1827012Y109873D01*
X1816855D01*
Y114951D02*
X1827012D01*
X1832090Y120029D01*
X1827012Y125108D01*
X1816855D01*
X1832090Y130186D02*
X1821933D01*
X1816855Y135264D01*
X1821933Y140343D01*
X1832090D01*
X1824473D01*
Y130186D01*
X1832090Y145421D02*
X1816855D01*
Y153039D01*
X1819394Y155578D01*
X1824473D01*
X1827012Y153039D01*
Y145421D01*
Y150499D02*
X1832090Y155578D01*
X1834629Y160656D02*
Y170813D01*
X1816855Y175891D02*
Y186048D01*
Y180970D01*
X1832090D01*
X1816855Y191126D02*
X1832090Y201283D01*
X1816855D02*
X1832090Y191126D01*
Y206361D02*
Y211440D01*
Y208901D01*
X1816855D01*
X1819394Y206361D01*
X1734820Y449575D02*
Y436879D01*
X1737359Y434340D01*
X1742437D01*
X1744977Y436879D01*
Y449575D01*
X1750055Y434340D02*
X1755133D01*
X1752594D01*
Y449575D01*
X1750055Y447036D01*
X1772908Y434340D02*
X1762751D01*
X1772908Y444497D01*
Y447036D01*
X1770368Y449575D01*
X1765290D01*
X1762751Y447036D01*
X102603Y919160D02*
Y929317D01*
X97524Y924238D02*
X107681D01*
X102603Y869160D02*
Y879317D01*
X121920Y795020D02*
X126998D01*
X124459D01*
Y810255D01*
X121920Y807716D01*
X134616D02*
X137155Y810255D01*
X142233D01*
X144773Y807716D01*
Y805177D01*
X142233Y802637D01*
X144773Y800098D01*
Y797559D01*
X142233Y795020D01*
X137155D01*
X134616Y797559D01*
Y800098D01*
X137155Y802637D01*
X134616Y805177D01*
Y807716D01*
X137155Y802637D02*
X142233D01*
X149851D02*
X160008D01*
X175243Y795020D02*
X165086D01*
X175243Y805177D01*
Y807716D01*
X172704Y810255D01*
X167625D01*
X165086Y807716D01*
X187939Y795020D02*
Y810255D01*
X180321Y802637D01*
X190478D01*
X195556Y810255D02*
Y800098D01*
X200634Y795020D01*
X205713Y800098D01*
Y810255D01*
X380000Y104882D02*
X369843D01*
X374922Y99804D02*
Y109961D01*
X430000Y104882D02*
X419843D01*
X830000D02*
X819843D01*
X824922Y99804D02*
Y109961D01*
X880000Y104882D02*
X869843D01*
X530000D02*
X519843D01*
X524922Y99804D02*
Y109961D01*
X580000Y104882D02*
X569843D01*
X680000D02*
X669843D01*
X674922Y99804D02*
Y109961D01*
X730000Y104882D02*
X719843D01*
X1130000D02*
X1119843D01*
X1124922Y99804D02*
Y109961D01*
X1180000Y104882D02*
X1169843D01*
X1430000D02*
X1419843D01*
X1424922Y99804D02*
Y109961D01*
X1480000Y104882D02*
X1469843D01*
X1730000D02*
X1719843D01*
X1724922Y99804D02*
Y109961D01*
X1780000Y104882D02*
X1769843D01*
X2030000D02*
X2019843D01*
X2024922Y99804D02*
Y109961D01*
X2080000Y104882D02*
X2069843D01*
X980000D02*
X969843D01*
X974922Y99804D02*
Y109961D01*
X1030000Y104882D02*
X1019843D01*
X1280000D02*
X1269843D01*
X1274922Y99804D02*
Y109961D01*
X1330000Y104882D02*
X1319843D01*
X1580000D02*
X1569843D01*
X1574922Y99804D02*
Y109961D01*
X1630000Y104882D02*
X1619843D01*
X1880000D02*
X1869843D01*
X1874922Y99804D02*
Y109961D01*
X1930000Y104882D02*
X1919843D01*
X177797Y436875D02*
X167640D01*
Y421640D01*
X177797D01*
X167640Y429258D02*
X172718D01*
X182875Y436875D02*
X193032Y421640D01*
Y436875D02*
X182875Y421640D01*
X198110Y436875D02*
X208267D01*
X203188D01*
Y421640D01*
X167640Y492755D02*
Y477520D01*
X175257D01*
X177797Y480059D01*
Y482598D01*
X175257Y485137D01*
X167640D01*
X175257D01*
X177797Y487677D01*
Y490216D01*
X175257Y492755D01*
X167640D01*
X182875D02*
Y480059D01*
X185414Y477520D01*
X190493D01*
X193032Y480059D01*
Y492755D01*
X208267Y490216D02*
X205728Y492755D01*
X200649D01*
X198110Y490216D01*
Y487677D01*
X200649Y485137D01*
X205728D01*
X208267Y482598D01*
Y480059D01*
X205728Y477520D01*
X200649D01*
X198110Y480059D01*
X177797Y668016D02*
X175257Y670555D01*
X170179D01*
X167640Y668016D01*
Y657859D01*
X170179Y655320D01*
X175257D01*
X177797Y657859D01*
Y662937D01*
X172718D01*
X182875Y655320D02*
Y670555D01*
X193032Y655320D01*
Y670555D01*
X198110D02*
Y655320D01*
X205728D01*
X208267Y657859D01*
Y668016D01*
X205728Y670555D01*
X198110D01*
X177797Y642616D02*
X175257Y645155D01*
X170179D01*
X167640Y642616D01*
Y640077D01*
X170179Y637537D01*
X175257D01*
X177797Y634998D01*
Y632459D01*
X175257Y629920D01*
X170179D01*
X167640Y632459D01*
X193032Y642616D02*
X190493Y645155D01*
X185414D01*
X182875Y642616D01*
Y632459D01*
X185414Y629920D01*
X190493D01*
X193032Y632459D01*
X198110Y645155D02*
Y629920D01*
X208267D01*
X177797Y617216D02*
X175257Y619755D01*
X170179D01*
X167640Y617216D01*
Y614677D01*
X170179Y612137D01*
X175257D01*
X177797Y609598D01*
Y607059D01*
X175257Y604520D01*
X170179D01*
X167640Y607059D01*
X182875Y619755D02*
Y604520D01*
X190493D01*
X193032Y607059D01*
Y617216D01*
X190493Y619755D01*
X182875D01*
X198110Y604520D02*
Y614677D01*
X203188Y619755D01*
X208267Y614677D01*
Y604520D01*
Y612137D01*
X198110D01*
X167640Y591816D02*
X170179Y594355D01*
X175257D01*
X177797Y591816D01*
Y589277D01*
X175257Y586738D01*
X172718D01*
X175257D01*
X177797Y584198D01*
Y581659D01*
X175257Y579120D01*
X170179D01*
X167640Y581659D01*
X182875Y594355D02*
Y584198D01*
X187953Y579120D01*
X193032Y584198D01*
Y594355D01*
X198110Y591816D02*
X200649Y594355D01*
X205728D01*
X208267Y591816D01*
Y589277D01*
X205728Y586738D01*
X203188D01*
X205728D01*
X208267Y584198D01*
Y581659D01*
X205728Y579120D01*
X200649D01*
X198110Y581659D01*
X144777Y693416D02*
X142238Y695955D01*
X137159D01*
X134620Y693416D01*
Y683259D01*
X137159Y680720D01*
X142238D01*
X144777Y683259D01*
X149855Y695955D02*
X160012D01*
X154933D01*
Y680720D01*
X165090D02*
Y695955D01*
X172708D01*
X175247Y693416D01*
Y688337D01*
X172708Y685798D01*
X165090D01*
X170168D02*
X175247Y680720D01*
X180325Y695955D02*
Y680720D01*
X190482D01*
X109882Y365000D02*
Y375157D01*
X104804Y370078D02*
X114961D01*
X109882Y315000D02*
Y325157D01*
X375000Y1065235D02*
Y1050000D01*
X382617D01*
X385157Y1052539D01*
Y1055078D01*
X382617Y1057617D01*
X375000D01*
X382617D01*
X385157Y1060157D01*
Y1062696D01*
X382617Y1065235D01*
X375000D01*
X390235D02*
Y1050000D01*
X400392D01*
X405470Y1065235D02*
Y1052539D01*
X408009Y1050000D01*
X413088D01*
X415627Y1052539D01*
Y1065235D01*
X430862D02*
X420705D01*
Y1050000D01*
X430862D01*
X420705Y1057617D02*
X425784D01*
X435940Y1050000D02*
X443558D01*
X446097Y1052539D01*
X443558Y1055078D01*
X438479D01*
X435940Y1057617D01*
X438479Y1060157D01*
X446097D01*
X453715D02*
X458793D01*
X461332Y1057617D01*
Y1050000D01*
X453715D01*
X451175Y1052539D01*
X453715Y1055078D01*
X461332D01*
X468950Y1062696D02*
Y1060157D01*
X466410D01*
X471489D01*
X468950D01*
Y1052539D01*
X471489Y1050000D01*
X494341D02*
Y1065235D01*
X501959D01*
X504498Y1062696D01*
Y1057617D01*
X501959Y1055078D01*
X494341D01*
X512116Y1050000D02*
X517194D01*
X519733Y1052539D01*
Y1057617D01*
X517194Y1060157D01*
X512116D01*
X509576Y1057617D01*
Y1052539D01*
X512116Y1050000D01*
X524812Y1060157D02*
Y1052539D01*
X527351Y1050000D01*
X529890Y1052539D01*
X532429Y1050000D01*
X534968Y1052539D01*
Y1060157D01*
X547664Y1050000D02*
X542586D01*
X540047Y1052539D01*
Y1057617D01*
X542586Y1060157D01*
X547664D01*
X550203Y1057617D01*
Y1055078D01*
X540047D01*
X555282Y1060157D02*
Y1050000D01*
Y1055078D01*
X557821Y1057617D01*
X560360Y1060157D01*
X562899D01*
X595909Y1062696D02*
X593369Y1065235D01*
X588291D01*
X585752Y1062696D01*
Y1060157D01*
X588291Y1057617D01*
X593369D01*
X595909Y1055078D01*
Y1052539D01*
X593369Y1050000D01*
X588291D01*
X585752Y1052539D01*
X600987Y1060157D02*
Y1052539D01*
X603526Y1050000D01*
X611144D01*
Y1060157D01*
X616222Y1065235D02*
Y1050000D01*
X623839D01*
X626379Y1052539D01*
Y1055078D01*
Y1057617D01*
X623839Y1060157D01*
X616222D01*
X631457Y1050000D02*
X639075D01*
X641614Y1052539D01*
X639075Y1055078D01*
X633996D01*
X631457Y1057617D01*
X633996Y1060157D01*
X641614D01*
X646692D02*
Y1052539D01*
X649231Y1050000D01*
X656849D01*
Y1047461D01*
X654310Y1044922D01*
X651770D01*
X656849Y1050000D02*
Y1060157D01*
X661927Y1050000D02*
X669545D01*
X672084Y1052539D01*
X669545Y1055078D01*
X664466D01*
X661927Y1057617D01*
X664466Y1060157D01*
X672084D01*
X679702Y1062696D02*
Y1060157D01*
X677162D01*
X682241D01*
X679702D01*
Y1052539D01*
X682241Y1050000D01*
X697476D02*
X692397D01*
X689858Y1052539D01*
Y1057617D01*
X692397Y1060157D01*
X697476D01*
X700015Y1057617D01*
Y1055078D01*
X689858D01*
X705093Y1050000D02*
Y1060157D01*
X707632D01*
X710172Y1057617D01*
Y1050000D01*
Y1057617D01*
X712711Y1060157D01*
X715250Y1057617D01*
Y1050000D01*
X375000Y1040235D02*
Y1030078D01*
X380078Y1025000D01*
X385157Y1030078D01*
Y1040235D01*
X400392Y1025000D02*
X390235D01*
X400392Y1035157D01*
Y1037696D01*
X397853Y1040235D01*
X392774D01*
X390235Y1037696D01*
X420705Y1025000D02*
Y1040235D01*
X428323D01*
X430862Y1037696D01*
Y1032617D01*
X428323Y1030078D01*
X420705D01*
X435940Y1035157D02*
Y1025000D01*
Y1030078D01*
X438479Y1032617D01*
X441019Y1035157D01*
X443558D01*
X453715Y1025000D02*
X458793D01*
X461332Y1027539D01*
Y1032617D01*
X458793Y1035157D01*
X453715D01*
X451175Y1032617D01*
Y1027539D01*
X453715Y1025000D01*
X468950Y1037696D02*
Y1035157D01*
X466410D01*
X471489D01*
X468950D01*
Y1027539D01*
X471489Y1025000D01*
X481646D02*
X486724D01*
X489263Y1027539D01*
Y1032617D01*
X486724Y1035157D01*
X481646D01*
X479106Y1032617D01*
Y1027539D01*
X481646Y1025000D01*
X496881Y1037696D02*
Y1035157D01*
X494341D01*
X499420D01*
X496881D01*
Y1027539D01*
X499420Y1025000D01*
X507037Y1035157D02*
Y1027539D01*
X509576Y1025000D01*
X517194D01*
Y1022461D01*
X514655Y1019922D01*
X512116D01*
X517194Y1025000D02*
Y1035157D01*
X522272Y1019922D02*
Y1035157D01*
X529890D01*
X532429Y1032617D01*
Y1027539D01*
X529890Y1025000D01*
X522272D01*
X545125D02*
X540047D01*
X537507Y1027539D01*
Y1032617D01*
X540047Y1035157D01*
X545125D01*
X547664Y1032617D01*
Y1030078D01*
X537507D01*
X567978Y1040235D02*
Y1025000D01*
X575595D01*
X578134Y1027539D01*
Y1030078D01*
X575595Y1032617D01*
X567978D01*
X575595D01*
X578134Y1035157D01*
Y1037696D01*
X575595Y1040235D01*
X567978D01*
X585752Y1025000D02*
X590830D01*
X593369Y1027539D01*
Y1032617D01*
X590830Y1035157D01*
X585752D01*
X583213Y1032617D01*
Y1027539D01*
X585752Y1025000D01*
X600987Y1035157D02*
X606065D01*
X608604Y1032617D01*
Y1025000D01*
X600987D01*
X598448Y1027539D01*
X600987Y1030078D01*
X608604D01*
X613683Y1035157D02*
Y1025000D01*
Y1030078D01*
X616222Y1032617D01*
X618761Y1035157D01*
X621300D01*
X639075Y1040235D02*
Y1025000D01*
X631457D01*
X628918Y1027539D01*
Y1032617D01*
X631457Y1035157D01*
X639075D01*
X669545Y1025000D02*
X659388D01*
X669545Y1035157D01*
Y1037696D01*
X667005Y1040235D01*
X661927D01*
X659388Y1037696D01*
X674623D02*
X677162Y1040235D01*
X682241D01*
X684780Y1037696D01*
Y1027539D01*
X682241Y1025000D01*
X677162D01*
X674623Y1027539D01*
Y1037696D01*
X689858Y1025000D02*
X694937D01*
X692397D01*
Y1040235D01*
X689858Y1037696D01*
X712711Y1025000D02*
X702554D01*
X712711Y1035157D01*
Y1037696D01*
X710172Y1040235D01*
X705093D01*
X702554Y1037696D01*
X765807Y1037840D02*
X763268Y1040379D01*
X758189D01*
X755650Y1037840D01*
Y1027683D01*
X758189Y1025144D01*
X763268D01*
X765807Y1027683D01*
X773424Y1035301D02*
X778503D01*
X781042Y1032762D01*
Y1025144D01*
X773424D01*
X770885Y1027683D01*
X773424Y1030222D01*
X781042D01*
X786120Y1025144D02*
Y1035301D01*
X788659D01*
X791199Y1032762D01*
Y1025144D01*
Y1032762D01*
X793738Y1035301D01*
X796277Y1032762D01*
Y1025144D01*
X816590Y1040379D02*
Y1025144D01*
X824208D01*
X826747Y1027683D01*
Y1030222D01*
X824208Y1032762D01*
X816590D01*
X824208D01*
X826747Y1035301D01*
Y1037840D01*
X824208Y1040379D01*
X816590D01*
X831825Y1035301D02*
Y1025144D01*
Y1030222D01*
X834364Y1032762D01*
X836904Y1035301D01*
X839443D01*
X849600Y1025144D02*
X854678D01*
X857217Y1027683D01*
Y1032762D01*
X854678Y1035301D01*
X849600D01*
X847060Y1032762D01*
Y1027683D01*
X849600Y1025144D01*
X862296Y1035301D02*
Y1027683D01*
X864835Y1025144D01*
X867374Y1027683D01*
X869913Y1025144D01*
X872452Y1027683D01*
Y1035301D01*
X877531Y1025144D02*
Y1035301D01*
X885148D01*
X887687Y1032762D01*
Y1025144D01*
X895305Y1022605D02*
X897844Y1025144D01*
Y1027683D01*
X895305D01*
Y1025144D01*
X897844D01*
X895305Y1022605D01*
X892766Y1020066D01*
X923236Y1025144D02*
Y1035301D01*
X928314Y1040379D01*
X933392Y1035301D01*
Y1025144D01*
Y1032762D01*
X923236D01*
X938471Y1025144D02*
X943549D01*
X941010D01*
Y1040379D01*
X938471D01*
X958784Y1025144D02*
X953706D01*
X951167Y1027683D01*
Y1032762D01*
X953706Y1035301D01*
X958784D01*
X961323Y1032762D01*
Y1030222D01*
X951167D01*
X966402Y1035301D02*
X976559Y1025144D01*
X971480Y1030222D01*
X976559Y1035301D01*
X966402Y1025144D01*
X981637D02*
X986715D01*
X984176D01*
Y1035301D01*
X981637D01*
X994333Y1025144D02*
X1001950D01*
X1004490Y1027683D01*
X1001950Y1030222D01*
X996872D01*
X994333Y1032762D01*
X996872Y1035301D01*
X1004490D01*
X1034960Y1037840D02*
X1032421Y1040379D01*
X1027342D01*
X1024803Y1037840D01*
Y1035301D01*
X1027342Y1032762D01*
X1032421D01*
X1034960Y1030222D01*
Y1027683D01*
X1032421Y1025144D01*
X1027342D01*
X1024803Y1027683D01*
X1040038Y1040379D02*
Y1025144D01*
Y1032762D01*
X1042577Y1035301D01*
X1047655D01*
X1050195Y1032762D01*
Y1025144D01*
X1057812Y1035301D02*
X1062891D01*
X1065430Y1032762D01*
Y1025144D01*
X1057812D01*
X1055273Y1027683D01*
X1057812Y1030222D01*
X1065430D01*
X1070508Y1035301D02*
Y1027683D01*
X1073047Y1025144D01*
X1075586Y1027683D01*
X1078126Y1025144D01*
X1080665Y1027683D01*
Y1035301D01*
X1088282Y1022605D02*
X1090822Y1025144D01*
Y1027683D01*
X1088282D01*
Y1025144D01*
X1090822D01*
X1088282Y1022605D01*
X1085743Y1020066D01*
X1116213Y1025144D02*
Y1040379D01*
X1121292Y1035301D01*
X1126370Y1040379D01*
Y1025144D01*
X1131448D02*
X1136527D01*
X1133988D01*
Y1035301D01*
X1131448D01*
X1146684Y1037840D02*
Y1035301D01*
X1144144D01*
X1149223D01*
X1146684D01*
Y1027683D01*
X1149223Y1025144D01*
X1166997Y1035301D02*
X1159379D01*
X1156840Y1032762D01*
Y1027683D01*
X1159379Y1025144D01*
X1166997D01*
X1172075Y1040379D02*
Y1025144D01*
Y1032762D01*
X1174614Y1035301D01*
X1179693D01*
X1182232Y1032762D01*
Y1025144D01*
X1202545Y1040379D02*
Y1025144D01*
X1207624Y1030222D01*
X1212702Y1025144D01*
Y1040379D01*
X1225398Y1025144D02*
X1220320D01*
X1217781Y1027683D01*
Y1032762D01*
X1220320Y1035301D01*
X1225398D01*
X1227937Y1032762D01*
Y1030222D01*
X1217781D01*
X1233016Y1025144D02*
Y1035301D01*
X1240633D01*
X1243172Y1032762D01*
Y1025144D01*
X1248251D02*
Y1040379D01*
Y1030222D02*
X1255868Y1035301D01*
X1248251Y1030222D02*
X1255868Y1025144D01*
X1271103D02*
X1266025D01*
X1263486Y1027683D01*
Y1032762D01*
X1266025Y1035301D01*
X1271103D01*
X1273642Y1032762D01*
Y1030222D01*
X1263486D01*
X134620Y515616D02*
X137159Y518155D01*
X142238D01*
X144777Y515616D01*
Y513077D01*
X142238Y510537D01*
X139698D01*
X142238D01*
X144777Y507998D01*
Y505459D01*
X142238Y502920D01*
X137159D01*
X134620Y505459D01*
X149855Y518155D02*
Y507998D01*
X154933Y502920D01*
X160012Y507998D01*
Y518155D01*
X165090Y515616D02*
X167629Y518155D01*
X172708D01*
X175247Y515616D01*
Y513077D01*
X172708Y510537D01*
X170168D01*
X172708D01*
X175247Y507998D01*
Y505459D01*
X172708Y502920D01*
X167629D01*
X165090Y505459D01*
X180325Y500381D02*
X190482D01*
X195560Y502920D02*
Y518155D01*
X203178D01*
X205717Y515616D01*
Y510537D01*
X203178Y507998D01*
X195560D01*
X210795Y518155D02*
Y502920D01*
X215874Y507998D01*
X220952Y502920D01*
Y518155D01*
X226030Y502920D02*
Y518155D01*
X233648D01*
X236187Y515616D01*
Y510537D01*
X233648Y507998D01*
X226030D01*
X231109D02*
X236187Y502920D01*
X375920Y977896D02*
X378459Y980435D01*
X383537D01*
X386077Y977896D01*
Y975357D01*
X383537Y972818D01*
X380998D01*
X383537D01*
X386077Y970278D01*
Y967739D01*
X383537Y965200D01*
X378459D01*
X375920Y967739D01*
X391155Y980435D02*
Y970278D01*
X396233Y965200D01*
X401312Y970278D01*
Y980435D01*
X406390Y977896D02*
X408929Y980435D01*
X414008D01*
X416547Y977896D01*
Y975357D01*
X414008Y972818D01*
X411469D01*
X414008D01*
X416547Y970278D01*
Y967739D01*
X414008Y965200D01*
X408929D01*
X406390Y967739D01*
X421625Y965200D02*
Y975357D01*
X426704Y980435D01*
X431782Y975357D01*
Y965200D01*
Y972818D01*
X421625D01*
X551180Y977896D02*
X553719Y980435D01*
X558797D01*
X561337Y977896D01*
Y975357D01*
X558797Y972818D01*
X556258D01*
X558797D01*
X561337Y970278D01*
Y967739D01*
X558797Y965200D01*
X553719D01*
X551180Y967739D01*
X566415Y980435D02*
Y970278D01*
X571493Y965200D01*
X576572Y970278D01*
Y980435D01*
X581650Y977896D02*
X584189Y980435D01*
X589268D01*
X591807Y977896D01*
Y975357D01*
X589268Y972818D01*
X586729D01*
X589268D01*
X591807Y970278D01*
Y967739D01*
X589268Y965200D01*
X584189D01*
X581650Y967739D01*
X596885Y980435D02*
Y965200D01*
X604503D01*
X607042Y967739D01*
Y970278D01*
X604503Y972818D01*
X596885D01*
X604503D01*
X607042Y975357D01*
Y977896D01*
X604503Y980435D01*
X596885D01*
X734057D02*
X723900D01*
Y972818D01*
X728978Y975357D01*
X731517D01*
X734057Y972818D01*
Y967739D01*
X731517Y965200D01*
X726439D01*
X723900Y967739D01*
X739135Y980435D02*
Y970278D01*
X744213Y965200D01*
X749292Y970278D01*
Y980435D01*
X754370Y977896D02*
X756909Y980435D01*
X761988D01*
X764527Y977896D01*
Y967739D01*
X761988Y965200D01*
X756909D01*
X754370Y967739D01*
Y977896D01*
X769605Y965200D02*
Y975357D01*
X774684Y980435D01*
X779762Y975357D01*
Y965200D01*
Y972818D01*
X769605D01*
X909317Y980435D02*
X899160D01*
Y972818D01*
X904238Y975357D01*
X906777D01*
X909317Y972818D01*
Y967739D01*
X906777Y965200D01*
X901699D01*
X899160Y967739D01*
X914395Y980435D02*
Y970278D01*
X919473Y965200D01*
X924552Y970278D01*
Y980435D01*
X929630Y977896D02*
X932169Y980435D01*
X937248D01*
X939787Y977896D01*
Y967739D01*
X937248Y965200D01*
X932169D01*
X929630Y967739D01*
Y977896D01*
X944865Y980435D02*
Y965200D01*
X952483D01*
X955022Y967739D01*
Y970278D01*
X952483Y972818D01*
X944865D01*
X952483D01*
X955022Y975357D01*
Y977896D01*
X952483Y980435D01*
X944865D01*
X1074420Y967739D02*
X1076959Y965200D01*
X1082038D01*
X1084577Y967739D01*
Y977896D01*
X1082038Y980435D01*
X1076959D01*
X1074420Y977896D01*
Y975357D01*
X1076959Y972818D01*
X1084577D01*
X1089655Y980435D02*
Y970278D01*
X1094733Y965200D01*
X1099812Y970278D01*
Y980435D01*
X1104890Y965200D02*
X1109968D01*
X1107429D01*
Y980435D01*
X1104890Y977896D01*
X1117586Y965200D02*
Y975357D01*
X1122664Y980435D01*
X1127743Y975357D01*
Y965200D01*
Y972818D01*
X1117586D01*
X1249680Y967739D02*
X1252219Y965200D01*
X1257298D01*
X1259837Y967739D01*
Y977896D01*
X1257298Y980435D01*
X1252219D01*
X1249680Y977896D01*
Y975357D01*
X1252219Y972818D01*
X1259837D01*
X1264915Y980435D02*
Y970278D01*
X1269993Y965200D01*
X1275072Y970278D01*
Y980435D01*
X1280150Y965200D02*
X1285228D01*
X1282689D01*
Y980435D01*
X1280150Y977896D01*
X1292846Y980435D02*
Y965200D01*
X1300464D01*
X1303003Y967739D01*
Y970278D01*
X1300464Y972818D01*
X1292846D01*
X1300464D01*
X1303003Y975357D01*
Y977896D01*
X1300464Y980435D01*
X1292846D01*
X1422400Y965200D02*
X1427478D01*
X1424939D01*
Y980435D01*
X1422400Y977896D01*
X1435096D02*
X1437635Y980435D01*
X1442713D01*
X1445253Y977896D01*
Y975357D01*
X1442713Y972818D01*
X1440174D01*
X1442713D01*
X1445253Y970278D01*
Y967739D01*
X1442713Y965200D01*
X1437635D01*
X1435096Y967739D01*
X1450331Y980435D02*
Y970278D01*
X1455409Y965200D01*
X1460488Y970278D01*
Y980435D01*
X1475723D02*
X1470644Y977896D01*
X1465566Y972818D01*
Y967739D01*
X1468105Y965200D01*
X1473184D01*
X1475723Y967739D01*
Y970278D01*
X1473184Y972818D01*
X1465566D01*
X1480801Y965200D02*
Y975357D01*
X1485880Y980435D01*
X1490958Y975357D01*
Y965200D01*
Y972818D01*
X1480801D01*
X1600200Y965200D02*
X1605278D01*
X1602739D01*
Y980435D01*
X1600200Y977896D01*
X1612896D02*
X1615435Y980435D01*
X1620513D01*
X1623053Y977896D01*
Y975357D01*
X1620513Y972818D01*
X1617974D01*
X1620513D01*
X1623053Y970278D01*
Y967739D01*
X1620513Y965200D01*
X1615435D01*
X1612896Y967739D01*
X1628131Y980435D02*
Y970278D01*
X1633209Y965200D01*
X1638288Y970278D01*
Y980435D01*
X1653523D02*
X1648444Y977896D01*
X1643366Y972818D01*
Y967739D01*
X1645905Y965200D01*
X1650984D01*
X1653523Y967739D01*
Y970278D01*
X1650984Y972818D01*
X1643366D01*
X1658601Y980435D02*
Y965200D01*
X1666219D01*
X1668758Y967739D01*
Y970278D01*
X1666219Y972818D01*
X1658601D01*
X1666219D01*
X1668758Y975357D01*
Y977896D01*
X1666219Y980435D01*
X1658601D01*
X1772920D02*
Y970278D01*
X1777998Y965200D01*
X1783077Y970278D01*
Y980435D01*
X1788155D02*
Y970278D01*
X1793233Y965200D01*
X1798312Y970278D01*
Y980435D01*
X1803390Y965200D02*
Y975357D01*
X1808468Y980435D01*
X1813547Y975357D01*
Y965200D01*
Y972818D01*
X1803390D01*
X1818625Y965200D02*
Y980435D01*
X1826243D01*
X1828782Y977896D01*
Y972818D01*
X1826243Y970278D01*
X1818625D01*
X1823704D02*
X1828782Y965200D01*
X1833860D02*
Y975357D01*
X1838939Y980435D01*
X1844017Y975357D01*
Y965200D01*
Y972818D01*
X1833860D01*
X1948180Y980435D02*
Y970278D01*
X1953258Y965200D01*
X1958337Y970278D01*
Y980435D01*
X1963415D02*
Y970278D01*
X1968493Y965200D01*
X1973572Y970278D01*
Y980435D01*
X1978650Y965200D02*
Y975357D01*
X1983728Y980435D01*
X1988807Y975357D01*
Y965200D01*
Y972818D01*
X1978650D01*
X1993885Y965200D02*
Y980435D01*
X2001503D01*
X2004042Y977896D01*
Y972818D01*
X2001503Y970278D01*
X1993885D01*
X1998964D02*
X2004042Y965200D01*
X2009120Y980435D02*
Y965200D01*
X2016738D01*
X2019277Y967739D01*
Y970278D01*
X2016738Y972818D01*
X2009120D01*
X2016738D01*
X2019277Y975357D01*
Y977896D01*
X2016738Y980435D01*
X2009120D01*
D30*
X360000Y1010000D02*
X1300000D01*
Y1080000D01*
X360000D02*
X1300000D01*
X360000Y1010000D02*
Y1080000D01*
X1117600Y436877D02*
Y426720D01*
X1122678D01*
X1124371Y428413D01*
Y435184D01*
X1122678Y436877D01*
X1117600D01*
X1134528Y426720D02*
X1127757D01*
X1134528Y433491D01*
Y435184D01*
X1132835Y436877D01*
X1129449D01*
X1127757Y435184D01*
X1117600Y411477D02*
Y401320D01*
X1122678D01*
X1124371Y403013D01*
Y409784D01*
X1122678Y411477D01*
X1117600D01*
X1127757Y401320D02*
X1131142D01*
X1129449D01*
Y411477D01*
X1127757Y409784D01*
D33*
X0Y1100000D02*
X2225000D01*
Y0D02*
Y1100000D01*
X0Y0D02*
X2225000D01*
X0D02*
Y1100000D01*
D54*
X1670622Y476441D02*
G03*
X1670622Y476441I-3000J0D01*
G01*
X1291560Y471000D02*
G03*
X1291560Y471000I-3000J0D01*
G01*
X809260Y458540D02*
G03*
X809260Y458540I-3000J0D01*
G01*
X355430Y567150D02*
G03*
X355430Y567150I-3000J0D01*
G01*
X556930Y581150D02*
G03*
X556930Y581150I-3000J0D01*
G01*
X489680Y573150D02*
G03*
X489680Y573150I-3000J0D01*
G01*
X2100890Y594250D02*
G03*
X2100890Y594250I-3000J0D01*
G01*
X2033640Y586250D02*
G03*
X2033640Y586250I-3000J0D01*
G01*
X1899390Y580250D02*
G03*
X1899390Y580250I-3000J0D01*
G01*
X1624620Y594250D02*
G03*
X1624620Y594250I-3000J0D01*
G01*
X1557370Y586250D02*
G03*
X1557370Y586250I-3000J0D01*
G01*
X1423120Y580250D02*
G03*
X1423120Y580250I-3000J0D01*
G01*
X1249990Y580280D02*
G03*
X1249990Y580280I-3000J0D01*
G01*
X1182740Y572280D02*
G03*
X1182740Y572280I-3000J0D01*
G01*
X1048490Y566280D02*
G03*
X1048490Y566280I-3000J0D01*
G01*
X786380Y580770D02*
G03*
X786380Y580770I-3000J0D01*
G01*
X719130Y572770D02*
G03*
X719130Y572770I-3000J0D01*
G01*
X584880Y566770D02*
G03*
X584880Y566770I-3000J0D01*
G01*
X632980Y411030D02*
G03*
X632980Y411030I-3000J0D01*
G01*
X510430Y409720D02*
G03*
X510430Y409720I-3000J0D01*
G01*
D55*
X1644372Y483941D02*
G03*
X1644372Y483941I-1250J0D01*
G01*
X1265310Y478500D02*
G03*
X1265310Y478500I-1250J0D01*
G01*
X783010Y466040D02*
G03*
X783010Y466040I-1250J0D01*
G01*
X1377770Y615700D02*
G03*
X1377770Y615700I-1250J0D01*
G01*
X342180Y545400D02*
G03*
X342180Y545400I-1250J0D01*
G01*
X566680Y602900D02*
G03*
X566680Y602900I-1250J0D01*
G01*
X496605Y598150D02*
G03*
X496605Y598150I-1250J0D01*
G01*
X2110640Y616000D02*
G03*
X2110640Y616000I-1250J0D01*
G01*
X2040565Y611250D02*
G03*
X2040565Y611250I-1250J0D01*
G01*
X1886140Y558500D02*
G03*
X1886140Y558500I-1250J0D01*
G01*
X1634370Y616000D02*
G03*
X1634370Y616000I-1250J0D01*
G01*
X1564295Y611250D02*
G03*
X1564295Y611250I-1250J0D01*
G01*
X1409870Y558500D02*
G03*
X1409870Y558500I-1250J0D01*
G01*
X1259740Y602030D02*
G03*
X1259740Y602030I-1250J0D01*
G01*
X1189665Y597280D02*
G03*
X1189665Y597280I-1250J0D01*
G01*
X1035240Y544530D02*
G03*
X1035240Y544530I-1250J0D01*
G01*
X796130Y602520D02*
G03*
X796130Y602520I-1250J0D01*
G01*
X726055Y597770D02*
G03*
X726055Y597770I-1250J0D01*
G01*
X571630Y545020D02*
G03*
X571630Y545020I-1250J0D01*
G01*
X1867990Y613160D02*
G03*
X1867990Y613160I-1250J0D01*
G01*
X910410Y605540D02*
G03*
X910410Y605540I-1250J0D01*
G01*
X1024710D02*
G03*
X1024710Y605540I-1250J0D01*
G01*
X643780Y436030D02*
G03*
X643780Y436030I-1250J0D01*
G01*
X521230Y434720D02*
G03*
X521230Y434720I-1250J0D01*
G01*
D56*
X223520Y843280D02*
Y899160D01*
X121920Y843280D02*
X223520D01*
X121920D02*
Y955040D01*
X223520D01*
Y899160D02*
Y955040D01*
X2130000Y350000D02*
Y618961D01*
Y721039D02*
Y990000D01*
X2124920Y365240D02*
X2130000Y350000D01*
X2135080Y365240D01*
X2124920Y974760D02*
X2130000Y990000D01*
X2135080Y974760D01*
X2117300Y350000D02*
X2142700D01*
X2117300Y990000D02*
X2142700D01*
X310000Y330000D02*
X1152613D01*
X1267387D02*
X2110000D01*
X310000D02*
X325240Y335080D01*
X310000Y330000D02*
X325240Y324920D01*
X2094760Y335080D02*
X2110000Y330000D01*
X2094760Y324920D02*
X2110000Y330000D01*
X310000Y317300D02*
Y342700D01*
X2110000Y317300D02*
Y342700D01*
X400000Y225800D02*
X455880D01*
Y124200D02*
Y225800D01*
X344120Y124200D02*
X455880D01*
X344120D02*
Y225800D01*
X400000D01*
X850000D02*
X905880D01*
Y124200D02*
Y225800D01*
X794120Y124200D02*
X905880D01*
X794120D02*
Y225800D01*
X850000D01*
X550000D02*
X605880D01*
Y124200D02*
Y225800D01*
X494120Y124200D02*
X605880D01*
X494120D02*
Y225800D01*
X550000D01*
X700000D02*
X755880D01*
Y124200D02*
Y225800D01*
X644120Y124200D02*
X755880D01*
X644120D02*
Y225800D01*
X700000D01*
X1150000D02*
X1205880D01*
Y124200D02*
Y225800D01*
X1094120Y124200D02*
X1205880D01*
X1094120D02*
Y225800D01*
X1150000D01*
X1450000D02*
X1505880D01*
Y124200D02*
Y225800D01*
X1394120Y124200D02*
X1505880D01*
X1394120D02*
Y225800D01*
X1450000D01*
X1750000D02*
X1805880D01*
Y124200D02*
Y225800D01*
X1694120Y124200D02*
X1805880D01*
X1694120D02*
Y225800D01*
X1750000D01*
X2050000D02*
X2105880D01*
Y124200D02*
Y225800D01*
X1994120Y124200D02*
X2105880D01*
X1994120D02*
Y225800D01*
X2050000D01*
X1000000D02*
X1055880D01*
Y124200D02*
Y225800D01*
X944120Y124200D02*
X1055880D01*
X944120D02*
Y225800D01*
X1000000D01*
X1300000D02*
X1355880D01*
Y124200D02*
Y225800D01*
X1244120Y124200D02*
X1355880D01*
X1244120D02*
Y225800D01*
X1300000D01*
X1600000D02*
X1655880D01*
Y124200D02*
Y225800D01*
X1544120Y124200D02*
X1655880D01*
X1544120D02*
Y225800D01*
X1600000D01*
X1900000D02*
X1955880D01*
Y124200D02*
Y225800D01*
X1844120Y124200D02*
X1955880D01*
X1844120D02*
Y225800D01*
X1900000D01*
X230800Y289120D02*
Y345000D01*
X129200Y289120D02*
X230800D01*
X129200D02*
Y400880D01*
X230800D01*
Y345000D02*
Y400880D01*
D57*
X1657622Y381441D02*
X1697622D01*
X1657622Y486441D02*
X1697622D01*
Y381441D02*
Y486441D01*
X1657622Y381441D02*
Y486441D01*
X1278560Y376000D02*
Y481000D01*
X1318560Y376000D02*
Y481000D01*
X1278560D02*
X1318560D01*
X1278560Y376000D02*
X1318560D01*
X796260Y363540D02*
Y468540D01*
X836260Y363540D02*
Y468540D01*
X796260D02*
X836260D01*
X796260Y363540D02*
X836260D01*
X1155820Y401170D02*
X1158820D01*
X1155820Y412670D02*
X1158820D01*
X1155820Y426570D02*
X1158820D01*
X1155820Y438070D02*
X1158820D01*
X671870Y645440D02*
Y648440D01*
X660370Y645440D02*
Y648440D01*
X707470Y645440D02*
Y648440D01*
X695970Y645440D02*
Y648440D01*
X2081240Y792800D02*
Y800800D01*
X2055240Y792800D02*
Y800800D01*
X1247240Y641630D02*
Y644630D01*
X1235740Y641630D02*
Y644630D01*
X1427930Y731310D02*
Y734310D01*
X1416430Y731310D02*
Y734310D01*
X1271520Y533700D02*
X1376520D01*
Y602700D01*
X1271520Y533700D02*
Y602700D01*
X1376520D01*
X342430Y557150D02*
X373430D01*
X342430Y591150D02*
X373430D01*
X342430Y557150D02*
Y591150D01*
X373430Y557150D02*
Y591150D01*
X532930Y591150D02*
X563930D01*
X532930Y557150D02*
X563930D01*
Y591150D01*
X532930Y557150D02*
Y591150D01*
X342020Y820300D02*
Y823300D01*
X353520Y820300D02*
Y823300D01*
X508580Y786050D02*
Y794050D01*
X482580Y786050D02*
Y794050D01*
X336150Y930050D02*
X344150D01*
X336150Y904050D02*
X344150D01*
X337420Y973230D02*
X345420D01*
X337420Y947230D02*
X345420D01*
X683350Y780360D02*
Y788360D01*
X657350Y780360D02*
Y788360D01*
X511760Y930050D02*
X519760D01*
X511760Y904050D02*
X519760D01*
X370060Y496780D02*
X378060D01*
X370060Y522780D02*
X378060D01*
X693830Y890670D02*
X696830D01*
X693830Y879170D02*
X696830D01*
X785270Y782720D02*
X788270D01*
X785270Y771220D02*
X788270D01*
X785270Y745820D02*
X788270D01*
X785270Y757320D02*
X788270D01*
X1043140Y890180D02*
X1046140D01*
X1043140Y878680D02*
X1046140D01*
X1134580Y782230D02*
X1137580D01*
X1134580Y770730D02*
X1137580D01*
X1134581Y745330D02*
X1137580D01*
X1134581Y756830D02*
X1137580D01*
X1392740Y890960D02*
X1395740D01*
X1392740Y879460D02*
X1395740D01*
X1484180Y783010D02*
X1487180D01*
X1484180Y771510D02*
X1487180D01*
X1484180Y746110D02*
X1487180D01*
X1484180Y757610D02*
X1487180D01*
X1741640Y891450D02*
X1744640D01*
X1741640Y879950D02*
X1744640D01*
X1833080Y783500D02*
X1836080D01*
X1833080Y772000D02*
X1836080D01*
X1833080Y746600D02*
X1836080D01*
X1833080Y758100D02*
X1836080D01*
X485530Y490100D02*
Y493100D01*
X497030Y490100D02*
Y493100D01*
X409330Y490760D02*
Y493760D01*
X420830Y490760D02*
Y493760D01*
X409680Y583150D02*
X496680D01*
X409680Y565150D02*
X496680D01*
Y583150D01*
X409680Y565150D02*
Y583150D01*
X405590Y731400D02*
Y734400D01*
X394090Y731400D02*
Y734400D01*
X436440Y757700D02*
X439440D01*
X436440Y746200D02*
X439440D01*
X436440Y732300D02*
X439440D01*
X436440Y720800D02*
X439440D01*
X368690Y731400D02*
Y734400D01*
X380190Y731400D02*
Y734400D01*
X470290Y731400D02*
Y734400D01*
X481790Y731400D02*
Y734400D01*
X385640Y771600D02*
X388640D01*
X385640Y783100D02*
X388640D01*
X363680Y642500D02*
Y645500D01*
X352180Y642500D02*
Y645500D01*
X400880Y662450D02*
X403880D01*
X400880Y650950D02*
X403880D01*
X442040Y661950D02*
Y664950D01*
X430540Y661950D02*
Y664950D01*
X580850Y731400D02*
Y734400D01*
X569350Y731400D02*
Y734400D01*
X611700Y732300D02*
X614700D01*
X611700Y720800D02*
X614700D01*
X611700Y757700D02*
X614700D01*
X611700Y746200D02*
X614700D01*
X543950Y731400D02*
Y734400D01*
X555450Y731400D02*
Y734400D01*
X645550Y731400D02*
Y734400D01*
X657050Y731400D02*
Y734400D01*
X560900Y771600D02*
X563900D01*
X560900Y783100D02*
X563900D01*
X475060Y661950D02*
Y664950D01*
X463560Y661950D02*
Y664950D01*
X502480Y650950D02*
X505480D01*
X502480Y662450D02*
X505480D01*
X554180Y642500D02*
Y645500D01*
X542680Y642500D02*
Y645500D01*
X532590Y820300D02*
Y823300D01*
X521090Y820300D02*
Y823300D01*
X436440Y771600D02*
X439440D01*
X436440Y783100D02*
X439440D01*
X345000Y879550D02*
X348000D01*
X345000Y891050D02*
X348000D01*
X345000Y854150D02*
X348000D01*
X345000Y865650D02*
X348000D01*
X495690Y731400D02*
Y734400D01*
X507190Y731400D02*
Y734400D01*
X383930Y617100D02*
Y620100D01*
X395430Y617100D02*
Y620100D01*
X611700Y771600D02*
X614700D01*
X611700Y783100D02*
X614700D01*
X520260Y854150D02*
X523260D01*
X520260Y865650D02*
X523260D01*
X520260Y879550D02*
X523260D01*
X520260Y891050D02*
X523260D01*
X434730Y490100D02*
Y493100D01*
X446230Y490100D02*
Y493100D01*
X670950Y731400D02*
Y734400D01*
X682450Y731400D02*
Y734400D01*
X460130Y490100D02*
Y493100D01*
X471630Y490100D02*
Y493100D01*
X395430Y572650D02*
Y575650D01*
X383930Y572650D02*
Y575650D01*
X522430Y617100D02*
Y620100D01*
X510930Y617100D02*
Y620100D01*
X2076890Y604250D02*
X2107890D01*
X2076890Y570250D02*
X2107890D01*
Y604250D01*
X2076890Y570250D02*
Y604250D01*
X2086640Y655600D02*
Y658600D01*
X2098140Y655600D02*
Y658600D01*
X1911840Y501860D02*
X1919840D01*
X1911840Y527860D02*
X1919840D01*
X2054890Y630200D02*
Y633200D01*
X2066390Y630200D02*
Y633200D01*
X2046440Y675550D02*
X2049440D01*
X2046440Y664050D02*
X2049440D01*
X1917730Y820700D02*
Y823700D01*
X1929230Y820700D02*
Y823700D01*
X2007520Y675050D02*
Y678050D01*
X2019020Y675050D02*
Y678050D01*
X1953640Y578250D02*
Y596250D01*
X2040640Y578250D02*
Y596250D01*
X1953640Y578250D02*
X2040640D01*
X1953640Y596250D02*
X2040640D01*
X2029470Y503200D02*
Y506200D01*
X2040970Y503200D02*
Y506200D01*
X1957540Y783500D02*
X1960540D01*
X1957540Y772000D02*
X1960540D01*
X1927890Y585750D02*
Y588750D01*
X1939390Y585750D02*
Y588750D01*
X2053690Y731800D02*
Y734800D01*
X2042190Y731800D02*
Y734800D01*
X2015590Y503200D02*
Y506200D01*
X2004090Y503200D02*
Y506200D01*
X1952090Y731800D02*
Y734800D01*
X1940590Y731800D02*
Y734800D01*
X2008340Y746600D02*
X2011340D01*
X2008340Y758100D02*
X2011340D01*
X1953290Y503860D02*
Y506860D01*
X1964790Y503860D02*
Y506860D01*
X2008340Y721200D02*
X2011340D01*
X2008340Y732700D02*
X2011340D01*
X2079090Y731800D02*
Y734800D01*
X2067590Y731800D02*
Y734800D01*
X1965990Y731800D02*
Y734800D01*
X1977490Y731800D02*
Y734800D01*
X1990190Y503200D02*
Y506200D01*
X1978690Y503200D02*
Y506200D01*
X2008340Y783500D02*
X2011340D01*
X2008340Y772000D02*
X2011340D01*
X1908400Y930450D02*
X1916400D01*
X1908400Y904450D02*
X1916400D01*
X1916900Y866050D02*
X1919900D01*
X1916900Y854550D02*
X1919900D01*
X1916900Y891450D02*
X1919900D01*
X1916900Y879950D02*
X1919900D01*
X1974500Y675050D02*
Y678050D01*
X1986000Y675050D02*
Y678050D01*
X1944841Y664050D02*
X1947841D01*
X1944841Y675550D02*
X1947841D01*
X1939390Y630200D02*
Y633200D01*
X1927890Y630200D02*
Y633200D01*
X1896140Y655600D02*
Y658600D01*
X1907640Y655600D02*
Y658600D01*
X1886390Y570250D02*
X1917390D01*
X1886390Y604250D02*
X1917390D01*
X1886390Y570250D02*
Y604250D01*
X1917390Y570250D02*
Y604250D01*
X1738660Y820700D02*
Y823700D01*
X1750160Y820700D02*
Y823700D01*
X1782280Y783500D02*
X1785280D01*
X1782280Y772000D02*
X1785280D01*
X1734060Y973630D02*
X1742060D01*
X1734060Y947630D02*
X1742060D01*
X1878430Y731800D02*
Y734800D01*
X1866930Y731800D02*
Y734800D01*
X1776830Y731800D02*
Y734800D01*
X1765330Y731800D02*
Y734800D01*
X1833080Y721200D02*
X1836080D01*
X1833080Y732700D02*
X1836080D01*
X1903830Y731800D02*
Y734800D01*
X1892330Y731800D02*
Y734800D01*
X1790730Y731800D02*
Y734800D01*
X1802230Y731800D02*
Y734800D01*
X1905220Y786450D02*
Y794450D01*
X1879220Y786450D02*
Y794450D01*
X1732790Y930450D02*
X1740790D01*
X1732790Y904450D02*
X1740790D01*
X1741640Y866050D02*
X1744640D01*
X1741640Y854550D02*
X1744640D01*
X1600620Y604250D02*
X1631620D01*
X1600620Y570250D02*
X1631620D01*
Y604250D01*
X1600620Y570250D02*
Y604250D01*
X1610370Y655600D02*
Y658600D01*
X1621870Y655600D02*
Y658600D01*
X1436860Y501860D02*
X1444860D01*
X1436860Y527860D02*
X1444860D01*
X1578620Y630200D02*
Y633200D01*
X1590120Y630200D02*
Y633200D01*
X1570170Y675550D02*
X1573170D01*
X1570170Y664050D02*
X1573170D01*
X1568830Y820210D02*
Y823210D01*
X1580330Y820210D02*
Y823210D01*
X1531250Y675050D02*
Y678050D01*
X1542750Y675050D02*
Y678050D01*
X1477370Y578250D02*
Y596250D01*
X1564370Y578250D02*
Y596250D01*
X1477370Y578250D02*
X1564370D01*
X1477370Y596250D02*
X1564370D01*
X1553220Y503200D02*
Y506200D01*
X1564720Y503200D02*
Y506200D01*
X1608640Y783010D02*
X1611640D01*
X1608640Y771510D02*
X1611640D01*
X1451620Y585750D02*
Y588750D01*
X1463120Y585750D02*
Y588750D01*
X1704790Y731310D02*
Y734310D01*
X1693290Y731310D02*
Y734310D01*
X1539320Y503200D02*
Y506200D01*
X1527820Y503200D02*
Y506200D01*
X1603190Y731310D02*
Y734310D01*
X1591690Y731310D02*
Y734310D01*
X1659440Y746110D02*
X1662440D01*
X1659440Y757610D02*
X1662440D01*
X1477020Y503860D02*
Y506860D01*
X1488520Y503860D02*
Y506860D01*
X1659440Y720710D02*
X1662440D01*
X1659440Y732210D02*
X1662440D01*
X1730190Y731310D02*
Y734310D01*
X1718690Y731310D02*
Y734310D01*
X1617090Y731310D02*
Y734310D01*
X1628590Y731310D02*
Y734310D01*
X1513920Y503200D02*
Y506200D01*
X1502420Y503200D02*
Y506200D01*
X1731090Y780270D02*
Y788270D01*
X1705090Y780270D02*
Y788270D01*
X1659440Y783010D02*
X1662440D01*
X1659440Y771510D02*
X1662440D01*
X1559500Y929960D02*
X1567500D01*
X1559500Y903960D02*
X1567500D01*
X1568000Y865560D02*
X1571000D01*
X1568000Y854060D02*
X1571000D01*
X1568000Y890960D02*
X1571000D01*
X1568000Y879460D02*
X1571000D01*
X1498230Y675050D02*
Y678050D01*
X1509730Y675050D02*
Y678050D01*
X1468570Y664050D02*
X1471570D01*
X1468570Y675550D02*
X1471570D01*
X1463120Y630200D02*
Y633200D01*
X1451620Y630200D02*
Y633200D01*
X1419870Y655600D02*
Y658600D01*
X1431370Y655600D02*
Y658600D01*
X1410120Y570250D02*
X1441120D01*
X1410120Y604250D02*
X1441120D01*
X1410120Y570250D02*
Y604250D01*
X1441120Y570250D02*
Y604250D01*
X1389760Y820210D02*
Y823210D01*
X1401260Y820210D02*
Y823210D01*
X1433380Y783010D02*
X1436380D01*
X1433380Y771510D02*
X1436380D01*
X1385160Y973140D02*
X1393160D01*
X1385160Y947140D02*
X1393160D01*
X1529530Y731310D02*
Y734310D01*
X1518030Y731310D02*
Y734310D01*
X1484180Y720710D02*
X1487180D01*
X1484180Y732210D02*
X1487180D01*
X1554930Y731310D02*
Y734310D01*
X1543430Y731310D02*
Y734310D01*
X1441830Y731310D02*
Y734310D01*
X1453330Y731310D02*
Y734310D01*
X1556320Y785960D02*
Y793960D01*
X1530320Y785960D02*
Y793960D01*
X1383890Y929960D02*
X1391890D01*
X1383890Y903960D02*
X1391890D01*
X1392740Y865560D02*
X1395740D01*
X1392740Y854060D02*
X1395740D01*
X1225990Y590280D02*
X1256990D01*
X1225990Y556280D02*
X1256990D01*
Y590280D01*
X1225990Y556280D02*
Y590280D01*
X1060940Y489160D02*
X1068940D01*
X1060940Y515160D02*
X1068940D01*
X1203990Y616230D02*
Y619230D01*
X1215490Y616230D02*
Y619230D01*
X1195540Y661580D02*
X1198540D01*
X1195540Y650080D02*
X1198540D01*
X1219230Y819430D02*
Y822430D01*
X1230730Y819430D02*
Y822430D01*
X1156620Y661080D02*
Y664080D01*
X1168120Y661080D02*
Y664080D01*
X1102740Y564280D02*
Y582280D01*
X1189740Y564280D02*
Y582280D01*
X1102740Y564280D02*
X1189740D01*
X1102740Y582280D02*
X1189740D01*
X1178590Y489230D02*
Y492230D01*
X1190090Y489230D02*
Y492230D01*
X1259040Y782230D02*
X1262040D01*
X1259040Y770730D02*
X1262040D01*
X1076990Y571780D02*
Y574780D01*
X1088490Y571780D02*
Y574780D01*
X1355190Y730530D02*
Y733530D01*
X1343690Y730530D02*
Y733530D01*
X1164690Y489230D02*
Y492230D01*
X1153190Y489230D02*
Y492230D01*
X1253590Y730530D02*
Y733530D01*
X1242090Y730530D02*
Y733530D01*
X1309841Y745330D02*
X1312841D01*
X1309841Y756830D02*
X1312841D01*
X1102390Y489890D02*
Y492890D01*
X1113890Y489890D02*
Y492890D01*
X1309841Y719930D02*
X1312841D01*
X1309841Y731430D02*
X1312841D01*
X1380590Y730530D02*
Y733530D01*
X1369090Y730530D02*
Y733530D01*
X1267490Y730530D02*
Y733530D01*
X1278990Y730530D02*
Y733530D01*
X1139290Y489230D02*
Y492230D01*
X1127790Y489230D02*
Y492230D01*
X1381490Y779490D02*
Y787490D01*
X1355490Y779490D02*
Y787490D01*
X1309840Y782230D02*
X1312840D01*
X1309840Y770730D02*
X1312840D01*
X1209900Y929180D02*
X1217900D01*
X1209900Y903180D02*
X1217900D01*
X1218400Y864780D02*
X1221400D01*
X1218400Y853280D02*
X1221400D01*
X1218400Y890180D02*
X1221400D01*
X1218400Y878680D02*
X1221400D01*
X1123600Y661080D02*
Y664080D01*
X1135100Y661080D02*
Y664080D01*
X1093941Y650080D02*
X1096941D01*
X1093941Y661580D02*
X1096941D01*
X1088490Y616230D02*
Y619230D01*
X1076990Y616230D02*
Y619230D01*
X1045240Y641630D02*
Y644630D01*
X1056740Y641630D02*
Y644630D01*
X1035490Y556280D02*
X1066490D01*
X1035490Y590280D02*
X1066490D01*
X1035490Y556280D02*
Y590280D01*
X1066490Y556280D02*
Y590280D01*
X1040160Y819430D02*
Y822430D01*
X1051660Y819430D02*
Y822430D01*
X1083780Y782230D02*
X1086780D01*
X1083780Y770730D02*
X1086780D01*
X1035560Y972360D02*
X1043560D01*
X1035560Y946360D02*
X1043560D01*
X1179930Y730530D02*
Y733530D01*
X1168430Y730530D02*
Y733530D01*
X1078330Y730530D02*
Y733530D01*
X1066830Y730530D02*
Y733530D01*
X1134581Y719930D02*
X1137580D01*
X1134581Y731430D02*
X1137580D01*
X1205330Y730530D02*
Y733530D01*
X1193830Y730530D02*
Y733530D01*
X1092230Y730530D02*
Y733530D01*
X1103730Y730530D02*
Y733530D01*
X1206720Y785180D02*
Y793180D01*
X1180720Y785180D02*
Y793180D01*
X1034290Y929180D02*
X1042290D01*
X1034290Y903180D02*
X1042290D01*
X1043140Y864780D02*
X1046140D01*
X1043140Y853280D02*
X1046140D01*
X762380Y590770D02*
X793380D01*
X762380Y556770D02*
X793380D01*
Y590770D01*
X762380Y556770D02*
Y590770D01*
X772130Y642120D02*
Y645120D01*
X783630Y642120D02*
Y645120D01*
X598660Y496780D02*
X606660D01*
X598660Y522780D02*
X606660D01*
X740380Y616720D02*
Y619720D01*
X751880Y616720D02*
Y619720D01*
X731930Y662070D02*
X734930D01*
X731930Y650570D02*
X734930D01*
X869920Y819920D02*
Y822920D01*
X881420Y819920D02*
Y822920D01*
X639130Y564770D02*
Y582770D01*
X726130Y564770D02*
Y582770D01*
X639130Y564770D02*
X726130D01*
X639130Y582770D02*
X726130D01*
X714980Y489720D02*
Y492720D01*
X726480Y489720D02*
Y492720D01*
X909730Y782720D02*
X912730D01*
X909730Y771220D02*
X912730D01*
X613380Y572270D02*
Y575270D01*
X624880Y572270D02*
Y575270D01*
X1005880Y731020D02*
Y734020D01*
X994380Y731020D02*
Y734020D01*
X701080Y489720D02*
Y492720D01*
X689580Y489720D02*
Y492720D01*
X904280Y731020D02*
Y734020D01*
X892780Y731020D02*
Y734020D01*
X960530Y745820D02*
X963531D01*
X960530Y757320D02*
X963531D01*
X638780Y490380D02*
Y493380D01*
X650280Y490380D02*
Y493380D01*
X960530Y720420D02*
X963531D01*
X960530Y731920D02*
X963531D01*
X1031280Y731020D02*
Y734020D01*
X1019780Y731020D02*
Y734020D01*
X918180Y731020D02*
Y734020D01*
X929680Y731020D02*
Y734020D01*
X675680Y489720D02*
Y492720D01*
X664180Y489720D02*
Y492720D01*
X1032180Y779980D02*
Y787980D01*
X1006180Y779980D02*
Y787980D01*
X960530Y782720D02*
X963530D01*
X960530Y771220D02*
X963530D01*
X860590Y929670D02*
X868590D01*
X860590Y903670D02*
X868590D01*
X869090Y865270D02*
X872090D01*
X869090Y853770D02*
X872090D01*
X869090Y890670D02*
X872090D01*
X869090Y879170D02*
X872090D01*
X630331Y650570D02*
X633330D01*
X630331Y662070D02*
X633330D01*
X624880Y616720D02*
Y619720D01*
X613380Y616720D02*
Y619720D01*
X581630Y642120D02*
Y645120D01*
X593130Y642120D02*
Y645120D01*
X571880Y556770D02*
X602880D01*
X571880Y590770D02*
X602880D01*
X571880Y556770D02*
Y590770D01*
X602880Y556770D02*
Y590770D01*
X690850Y819920D02*
Y822920D01*
X702350Y819920D02*
Y822920D01*
X734470Y782720D02*
X737470D01*
X734470Y771220D02*
X737470D01*
X686250Y972850D02*
X694250D01*
X686250Y946850D02*
X694250D01*
X830620Y731020D02*
Y734020D01*
X819120Y731020D02*
Y734020D01*
X729020Y731020D02*
Y734020D01*
X717520Y731020D02*
Y734020D01*
X785270Y720420D02*
X788270D01*
X785270Y731920D02*
X788270D01*
X856020Y731020D02*
Y734020D01*
X844520Y731020D02*
Y734020D01*
X742920Y731020D02*
Y734020D01*
X754420Y731020D02*
Y734020D01*
X857410Y785670D02*
Y793670D01*
X831410Y785670D02*
Y793670D01*
X684980Y929670D02*
X692980D01*
X684980Y903670D02*
X692980D01*
X693830Y865270D02*
X696830D01*
X693830Y853770D02*
X696830D01*
X1761740Y600160D02*
X1866740D01*
X1761740Y531160D02*
X1866740D01*
Y600160D01*
X1761740Y531160D02*
Y600160D01*
X804160Y592540D02*
X909160D01*
X804160Y523540D02*
X909160D01*
Y592540D01*
X804160Y523540D02*
Y592540D01*
X918460D02*
X1023460D01*
X918460Y523540D02*
X1023460D01*
Y592540D01*
X918460Y523540D02*
Y592540D01*
X745050Y404380D02*
Y407380D01*
X756550Y404380D02*
Y407380D01*
X1226150Y412520D02*
Y415520D01*
X1237650Y412520D02*
Y415520D01*
X589980Y421030D02*
X639980D01*
X589980Y403030D02*
X639980D01*
Y421030D01*
X589980Y403030D02*
Y421030D01*
X467430Y419720D02*
X517430D01*
X467430Y401720D02*
X517430D01*
Y419720D01*
X467430Y401720D02*
Y419720D01*
X1715540Y553050D02*
X1718540D01*
X1715540Y564550D02*
X1718540D01*
X1715540Y532730D02*
X1718540D01*
X1715540Y544230D02*
X1718540D01*
X1715540Y573370D02*
X1718540D01*
X1715540Y584870D02*
X1718540D01*
X1715540Y593690D02*
X1718540D01*
X1715540Y605190D02*
X1718540D01*
X134620Y419100D02*
Y495300D01*
Y419100D02*
X160020D01*
Y495300D01*
X134620D02*
X160020D01*
X134620Y673100D02*
X160020D01*
Y571500D02*
Y673100D01*
X134620Y571500D02*
Y673100D01*
Y571500D02*
X160020D01*
X733740Y249250D02*
X736740D01*
X733740Y260750D02*
X736740D01*
X583740Y249250D02*
X586740D01*
X583740Y260750D02*
X586740D01*
X883740Y249250D02*
X886740D01*
X883740Y260750D02*
X886740D01*
X433740Y249250D02*
X436740D01*
X433740Y260750D02*
X436740D01*
X264250Y323500D02*
Y326500D01*
X275750Y323500D02*
Y326500D01*
X241000Y591650D02*
X244000D01*
X241000Y580150D02*
X244000D01*
X241000Y605950D02*
X244000D01*
X241000Y617450D02*
X244000D01*
X241000Y626670D02*
X244000D01*
X241000Y638170D02*
X244000D01*
X249250Y893260D02*
Y896260D01*
X260750Y893260D02*
Y896260D01*
X1933740Y249250D02*
X1936740D01*
X1933740Y260750D02*
X1936740D01*
X2083740Y249250D02*
X2086740D01*
X2083740Y260750D02*
X2086740D01*
X1633740Y249250D02*
X1636740D01*
X1633740Y260750D02*
X1636740D01*
X1783740Y249250D02*
X1786740D01*
X1783740Y260750D02*
X1786740D01*
X1333740Y249250D02*
X1336740D01*
X1333740Y260750D02*
X1336740D01*
X1483740Y249250D02*
X1486740D01*
X1483740Y260750D02*
X1486740D01*
X1033740Y249250D02*
X1036740D01*
X1033740Y260750D02*
X1036740D01*
X1183740Y249250D02*
X1186740D01*
X1183740Y260750D02*
X1186740D01*
X1715540Y674970D02*
X1718540D01*
X1715540Y686470D02*
X1718540D01*
X1715540Y654650D02*
X1718540D01*
X1715540Y666150D02*
X1718540D01*
X1715540Y634330D02*
X1718540D01*
X1715540Y645830D02*
X1718540D01*
X1715540Y614010D02*
X1718540D01*
X1715540Y625510D02*
X1718540D01*
X1605832Y424821D02*
Y427821D01*
X1617332Y424821D02*
Y427821D01*
D58*
X947420Y398780D02*
X949959D01*
X948690D01*
Y406398D01*
X947420Y405128D01*
Y384808D02*
X948690Y386077D01*
X951229D01*
X952498Y384808D01*
Y379730D01*
X951229Y378460D01*
X948690D01*
X947420Y379730D01*
Y384808D01*
X1427480Y397508D02*
X1428750Y398778D01*
X1431289D01*
X1432558Y397508D01*
Y392430D01*
X1431289Y391160D01*
X1428750D01*
X1427480Y392430D01*
Y397508D01*
Y411480D02*
X1430019D01*
X1428750D01*
Y419098D01*
X1427480Y417828D01*
X1805940Y402588D02*
X1807210Y403857D01*
X1809749D01*
X1811018Y402588D01*
Y397510D01*
X1809749Y396240D01*
X1807210D01*
X1805940Y397510D01*
Y402588D01*
Y419100D02*
X1808479D01*
X1807210D01*
Y426717D01*
X1805940Y425448D01*
M02*
