%FSLAX44Y44*%
%MOMM*%
G71*
G01*
G75*
G04 Layer_Color=16711935*
%ADD10O,2.1000X0.4500*%
%ADD11R,1.2000X1.3500*%
%ADD12R,0.8000X0.7000*%
%ADD13R,1.3500X1.2000*%
%ADD14R,0.7000X0.8000*%
%ADD15R,1.3000X0.8000*%
%ADD16R,2.8000X1.3500*%
%ADD17O,0.6000X1.8000*%
%ADD18R,7.4000X5.0000*%
%ADD19R,5.3500X8.5400*%
%ADD20R,0.8900X3.0600*%
%ADD21O,0.3500X1.5500*%
%ADD22R,1.3500X2.8000*%
%ADD23O,0.3500X2.2000*%
%ADD24O,0.6000X2.2000*%
%ADD25C,0.1524*%
%ADD26C,0.2540*%
%ADD27C,0.7620*%
%ADD28C,0.5080*%
%ADD29C,1.0160*%
%ADD30C,0.2032*%
%ADD31C,0.3048*%
%ADD32R,177.7702X1.3208*%
%ADD33C,0.1000*%
%ADD34R,2.5400X2.5400*%
%ADD35C,2.5400*%
%ADD36R,1.5000X1.5000*%
%ADD37C,1.5000*%
%ADD38R,2.5400X2.5400*%
%ADD39C,7.0000*%
%ADD40C,0.7000*%
%ADD41C,0.6600*%
%ADD42C,1.2700*%
G04:AMPARAMS|DCode=43|XSize=3.024mm|YSize=3.024mm|CornerRadius=0mm|HoleSize=0mm|Usage=FLASHONLY|Rotation=0.000|XOffset=0mm|YOffset=0mm|HoleType=Round|Shape=Relief|Width=0.254mm|Gap=0.254mm|Entries=4|*
%AMTHD43*
7,0,0,3.0240,2.5160,0.2540,45*
%
%ADD43THD43*%
%ADD44C,2.5160*%
%ADD45C,1.9160*%
G04:AMPARAMS|DCode=46|XSize=2.424mm|YSize=2.424mm|CornerRadius=0mm|HoleSize=0mm|Usage=FLASHONLY|Rotation=0.000|XOffset=0mm|YOffset=0mm|HoleType=Round|Shape=Relief|Width=0.254mm|Gap=0.254mm|Entries=4|*
%AMTHD46*
7,0,0,2.4240,1.9160,0.2540,45*
%
%ADD46THD46*%
%ADD47C,4.2160*%
G04:AMPARAMS|DCode=48|XSize=1.824mm|YSize=1.824mm|CornerRadius=0mm|HoleSize=0mm|Usage=FLASHONLY|Rotation=0.000|XOffset=0mm|YOffset=0mm|HoleType=Round|Shape=Relief|Width=0.254mm|Gap=0.254mm|Entries=4|*
%AMTHD48*
7,0,0,1.8240,1.3160,0.2540,45*
%
%ADD48THD48*%
%ADD49C,1.3160*%
%ADD50C,1.3460*%
G04:AMPARAMS|DCode=51|XSize=2.2352mm|YSize=2.2352mm|CornerRadius=0mm|HoleSize=0mm|Usage=FLASHONLY|Rotation=0.000|XOffset=0mm|YOffset=0mm|HoleType=Round|Shape=Relief|Width=0.254mm|Gap=0.254mm|Entries=4|*
%AMTHD51*
7,0,0,2.2352,1.7272,0.2540,45*
%
%ADD51THD51*%
%ADD52C,1.7272*%
%ADD53C,2.5400*%
%ADD54C,0.6000*%
%ADD55C,0.2500*%
%ADD56C,0.3810*%
%ADD57C,0.2000*%
%ADD58C,0.1270*%
%ADD59R,1.4732X3.1750*%
%ADD60O,2.1508X0.5008*%
%ADD61R,1.2508X1.4008*%
%ADD62R,0.8508X0.7508*%
%ADD63R,1.4008X1.2508*%
%ADD64R,0.7508X0.8508*%
%ADD65R,1.3508X0.8508*%
%ADD66R,2.8508X1.4008*%
%ADD67O,0.6508X1.8508*%
%ADD68R,7.4508X5.0508*%
%ADD69R,5.4008X8.5908*%
%ADD70R,0.9408X3.1108*%
%ADD71O,0.4008X1.6008*%
%ADD72R,1.4008X2.8508*%
%ADD73O,0.4008X2.2508*%
%ADD74O,0.6508X2.2508*%
%ADD75R,2.5908X2.5908*%
%ADD76C,2.5908*%
%ADD77R,1.5508X1.5508*%
%ADD78C,1.5508*%
%ADD79R,2.5908X2.5908*%
%ADD80C,7.0508*%
%ADD81C,0.7508*%
D33*
X0Y1100000D02*
X2225000D01*
Y0D02*
Y1100000D01*
X0Y0D02*
X2225000D01*
X0D02*
Y1100000D01*
D75*
X172720Y873760D02*
D03*
X180000Y319600D02*
D03*
D76*
X172720Y924560D02*
D03*
X374600Y175000D02*
D03*
X824600D02*
D03*
X524600D02*
D03*
X674600D02*
D03*
X1124600D02*
D03*
X1424600D02*
D03*
X1724600D02*
D03*
X2024600D02*
D03*
X974600D02*
D03*
X1274600D02*
D03*
X1574600D02*
D03*
X1874600D02*
D03*
X180000Y370400D02*
D03*
D77*
X147320Y482600D02*
D03*
Y660400D02*
D03*
D78*
Y457200D02*
D03*
Y431800D02*
D03*
Y584200D02*
D03*
Y609600D02*
D03*
Y635000D02*
D03*
D79*
X425400Y175000D02*
D03*
X875400D02*
D03*
X575400D02*
D03*
X725400D02*
D03*
X1175400D02*
D03*
X1475400D02*
D03*
X1775400D02*
D03*
X2075400D02*
D03*
X1025400D02*
D03*
X1325400D02*
D03*
X1625400D02*
D03*
X1925400D02*
D03*
D80*
X75000Y75000D02*
D03*
Y1025000D02*
D03*
X2150000D02*
D03*
Y75000D02*
D03*
M02*
