M48
;Layer_Color=9474304
;FILE_FORMAT=2:5
INCH,LZ
;TYPE=PLATED
T1F00S00C0.01181
T2F00S00C0.01299
T3F00S00C0.02800
T4F00S00C0.03543
T5F00S00C0.05906
T6F00S00C0.12598
%
T01
X0719Y0033
X0721373Y0030627
X0723806Y0028194
X0712102Y0100394
X0771158
X0830213Y0100394
X0653047Y0100394
X0659409Y0137409
X0593992Y0100394
X0604Y0028
X0546Y0030627
X0543Y0035
X0534937Y0100394
X0515909Y0129909
X0518282Y0132282
X0475882Y0100394
X0416827
X0357772Y0100394
X0298716
X0319627Y0131627
X0322Y0134
X0239661Y0100394
X0367Y0035
X0370627Y0030627
X0375Y0028
X0180606Y0100394
X0106299Y0118701
X0123Y021
X0126Y0218
X012Y0221
X0114Y0237
X012Y0243
X0086221Y0240984
X0086221Y0248827
Y0230669
X0169932Y0225
X0173288
X0176644
X018
X0156839Y02041
X0156939Y02015
X0156839Y01989
X0156739Y01963
X0163417Y0186065
X0186Y0164
X0182705Y0152252
X0230953Y0152768
X0234Y0161441
X0246739Y0196
Y0199
X0246813Y0202
Y0205
X0260002Y0223998
X0263Y0222
X0279Y0209356
Y0206
X0287417Y0189654
X0284797Y0172592
Y0166997
X0282Y0169794
Y0175389
X0295591Y015239
X0316Y0154
X0318373Y0151627
X032Y0167
X0322373Y0164627
X0328248Y0172752
X0325689Y0175311
X0317627Y0178627
X032Y0181
X0315Y019
X031218Y018818
X0315Y0203
X0339Y0234
X034481Y0233809
X0339102Y0255366
X0362Y0265
X0384102Y0255366
X0384Y0234
X039
X0356373Y0179627
X0354Y0182
X0359Y0175
X0361373Y0172627
X0356362Y014683
X0346362Y0146864
X036715Y0146672
X0448232Y017
X0456276Y0185796
X0480608Y0184203
X0483405Y0187
X0486203Y0185
X0489Y0187
X0488665Y015926
X0507Y016
X0509373Y0157627
X0536244Y0151701
X0546244
X0547956Y0176088
Y0180044
X0544
Y0184
X054Y0184
Y0188
X0534Y0189
Y0185381
X0529Y0236
X0523Y0238
X0523102Y0259366
X0498Y0266
X0494Y0265
X0512536Y0282036
X0471Y0278
X0443536Y0282036
X0432276Y0280795
X0451788Y0224627
X0454161Y0227
X0456958Y0224203
X0459755Y0227
X0428939Y02022
Y01994
Y01966
X0428839Y01935
X0432537Y0189721
X05721Y0195861
X05749Y0196161
X0575839Y01996
X0583768Y0191482
X0607956Y0227088
Y0231044
X0604
X0606Y0234
X0581173Y0282343
X0686Y0237
X069Y0183
X0692373Y0180627
X0695481Y0153843
X0685481
X0659356Y0164
X0656
X0634481Y0160437
X0661782Y0139782
X0556244Y0151701
X0705481Y0153843
X071Y0185044
Y0189
X0713956Y0185044
Y0181088
X07589Y0196161
X07619
X0763739Y01986
X0763639Y02009
X0767537Y0195221
X078Y023
X0784598Y0231
X0790192
X0787395Y0228203
X0793Y028
X075Y0278
X0746Y0275
X0718536Y0282536
X0715835Y0257665
X0724Y0251356
Y0248
X0707Y0299
X0709858Y0335158
X0717276
X0724858
Y0345158
X0717276
X0709858
Y0355158
X0717358
X0724858
Y0365158
X0717358
X0709858
X0778858
X0786358
X0793858
Y0355158
X0786358
X0778858
Y0345158
X0786276
X0793858
Y0335158
X0786276
X0778858
X0776Y0299
X0639
X0641496Y0334965
X0648914
X0656496
Y0344965
X0648914
X0641496
Y0354965
X0648996
X0656496
Y0364965
X0648996
X0641496
X0587496
X0579996
X0572496
Y0354965
X0579996
X0587496
Y0344965
X0579914
X0572496
Y0334965
X0579914
X0587496
X0569Y0298
X05Y0297
X0503858Y0334658
X0511276
X0518858
Y0344657
X0511276
X0503858
Y0354658
X0511358
X0518858
Y0364657
X0511358
X0503858
X0449858
X0442358
X0434858
Y0354658
X0442358
X0449858
Y0344657
X0442276
X0434858
Y0334658
X0442276
X0449858
X0381335Y0334851
X0373752
X0366335
Y034485
X0373752
X0381335
Y0354851
X0373835
X0366335
Y036485
X0373835
X0381335
X0312335Y036485
X0304835
X0297335
Y0354851
X0304835
X0312335
Y034485
X0304752
X0297335
Y0334851
X0304752
X0312335
X0294Y0299
X0362Y0298
X0244Y0335
X0236418
Y0345
X0244
Y0355
X02365
Y0365
X0244
X0229
Y0355
Y0345
Y0335
X0175Y0335
X0167417
X016
Y0345
X0167417
X0175
Y0355
X01675
X016
Y0365
X01675
X0175
X0100394Y0374606
Y0343016
T02
X0325457Y0212614
X0330181
X0334906
X033963
X0344354
X0349079
Y0217339
Y0222063
Y0226787
X0344354
Y0222063
Y0217339
X033963
Y0222063
Y0226787
X0334906
Y0222063
Y0217339
X0330181
Y0222063
Y0226787
X0325457
Y0222063
Y0217339
X0370457
X0375181
X0379906
X038463
X0389354
Y0222063
Y0226787
X038463
Y0222063
X0379906
Y0226787
X0375181
Y0222063
X0370457
Y0226787
Y0212614
X0375181
X0379906
X038463
X0389354
X0394079
Y0217339
Y0222063
Y0226787
X0509457Y0226063
Y0221339
Y0216614
X0514181
X0518905
X052363
X0528354
X0533079
Y0221339
X0528354
Y0226063
X0533079
Y0230787
X0528354
X052363
Y0226063
Y0221339
X0518905
Y0226063
Y0230787
X0514181
Y0226063
Y0221339
X0509457Y0230787
X0702457Y0229787
Y0225063
Y0220339
Y0215614
X0707181
Y0220339
X0711905
X071663
X0721354
X0726079
Y0225063
Y0229787
X0721354
Y0225063
X071663
Y0229787
X0711905
Y0225063
X0707181
Y0229787
X0711905Y0215614
X071663
X0721354
X0726079
T03
X0153417Y0216043
X0179677Y0251043
X0270012Y0250894
X0243752Y0215894
X0426276Y0215701
X0452536Y0250701
X0573768Y0221201
X0600028Y0256201
X0787536Y0256201
X0761276Y0221201
X0757276Y0303701
Y0311201
X0686776Y0311201
Y0303701
X0619913Y0303508
Y0311008
X0549413Y0311008
Y0303508
X0672268Y0375701
Y0380701
X0534905Y0380508
Y0375508
X0482276Y0310701
Y0303201
X0411776Y0303201
Y0310701
X0397268Y0375201
Y0380201
X0344752Y0310894
Y0303394
X0274252Y0303394
Y0310894
X0259744Y0375394
Y0380394
X0207417Y0311043
Y0303543
X0136917Y0303543
Y0311043
X0122409Y0375543
Y0380543
T04
X0058Y017
Y018
Y019
Y023
Y024
Y025
Y026
T05
X0738031Y0068898
X0758032
X0797087
X0817087
X0698976
X0678976
X0639921
X0619921
X0580866
X0560866
X0521811
X0501811
X0462756
X0442756
X0403701
X0383701
X0344646
X0324646
X0285591
X0265591
X0226535
X0206535
X016748
X014748
X0070866Y0125827
Y0145827
X0068Y0344
Y0364
T06
X0846457Y0029528
X0029528
X0846457Y0403543
X0029528
M30
